<?xml version="1.0" encoding="UTF-8"?><svg id="Layer_2" xmlns="http://www.w3.org/2000/svg" xmlns:xlink="http://www.w3.org/1999/xlink" viewBox="0 0 648.03 719.85"><defs><style>.cls-1{stroke-width:3px;}.cls-1,.cls-2,.cls-3,.cls-4,.cls-5,.cls-6,.cls-7,.cls-8,.cls-9,.cls-10{stroke-miterlimit:10;}.cls-1,.cls-2,.cls-3,.cls-4,.cls-6,.cls-7,.cls-9,.cls-10{stroke:#102d2c;}.cls-1,.cls-4,.cls-5,.cls-6,.cls-7,.cls-8,.cls-9,.cls-10{fill:none;}.cls-11{clip-path:url(#clippath);}.cls-12{fill:#f8a808;}.cls-13{fill:#f2e0bc;}.cls-14{fill:#69787a;}.cls-15{fill:#69bc86;}.cls-16{fill:#f2d69c;}.cls-17{fill:#fe525a;}.cls-18{fill:#ffb75b;}.cls-19{fill:#e6c2b2;}.cls-20{fill:#ff8d5b;}.cls-21{fill:#72886a;}.cls-22{fill:#992a34;}.cls-23{fill:#b4cdcd;}.cls-24{fill:#d9656e;}.cls-25{fill:#a7906c;}.cls-26{fill:#e1be9c;}.cls-27{fill:#e19a56;}.cls-28{fill:#e1dfd2;}.cls-29{fill:#e18556;}.cls-30{fill:#d5d3c6;}.cls-31{fill:#424b4f;}.cls-32{fill:#37512d;}.cls-33{fill:#44595a;}.cls-34{fill:#47855e;}.cls-35{fill:#2c9db5;}.cls-36{fill:#76a5af;}.cls-37{clip-path:url(#clippath-1);}.cls-2{stroke-width:.25px;}.cls-2,.cls-3{fill:#592d2c;}.cls-38{filter:url(#drop-shadow-9);}.cls-39{filter:url(#drop-shadow-5);}.cls-40{filter:url(#drop-shadow-7);}.cls-41{filter:url(#drop-shadow-4);}.cls-42{filter:url(#drop-shadow-6);}.cls-43{filter:url(#drop-shadow-8);}.cls-44{filter:url(#drop-shadow-2);}.cls-45{filter:url(#drop-shadow-3);}.cls-46{filter:url(#drop-shadow-1);}.cls-3,.cls-10{stroke-width:.5px;}.cls-4,.cls-5,.cls-8,.cls-9{stroke-width:.75px;}.cls-5,.cls-8{stroke:#000;}.cls-6{stroke-width:2px;}.cls-47{filter:url(#drop-shadow-11);}.cls-48{filter:url(#drop-shadow-10);}.cls-8,.cls-9{stroke-linecap:round;}</style><filter id="drop-shadow-1" filterUnits="userSpaceOnUse"><feOffset dx="0" dy="0"/><feGaussianBlur result="blur" stdDeviation="1.8"/><feFlood flood-color="#000" flood-opacity=".5"/><feComposite in2="blur" operator="in"/><feComposite in="SourceGraphic"/></filter><filter id="drop-shadow-2" filterUnits="userSpaceOnUse"><feOffset dx="-3.96" dy="0"/><feGaussianBlur result="blur-2" stdDeviation="0"/><feFlood flood-color="#000" flood-opacity=".07"/><feComposite in2="blur-2" operator="in"/><feComposite in="SourceGraphic"/></filter><clipPath id="clippath"><rect class="cls-7" x="108.97" y="140.61" width="122.95" height="83.39" rx="4.2" ry="4.2" transform="translate(171.57 -67.26) rotate(43.33)"/></clipPath><filter id="drop-shadow-3" filterUnits="userSpaceOnUse"><feOffset dx="-3.96" dy="0"/><feGaussianBlur result="blur-3" stdDeviation="0"/><feFlood flood-color="#000" flood-opacity=".07"/><feComposite in2="blur-3" operator="in"/><feComposite in="SourceGraphic"/></filter><filter id="drop-shadow-4" filterUnits="userSpaceOnUse"><feOffset dx="-3.96" dy="0"/><feGaussianBlur result="blur-4" stdDeviation="0"/><feFlood flood-color="#000" flood-opacity=".07"/><feComposite in2="blur-4" operator="in"/><feComposite in="SourceGraphic"/></filter><clipPath id="clippath-1"><rect class="cls-7" x="101.86" y="135.18" width="122.95" height="83.39" rx="4.2" ry="4.2" transform="translate(135.26 -62.24) rotate(36.02)"/></clipPath><filter id="drop-shadow-5" filterUnits="userSpaceOnUse"><feOffset dx="-1.8" dy="0"/><feGaussianBlur result="blur-5" stdDeviation="0"/><feFlood flood-color="#000" flood-opacity=".1"/><feComposite in2="blur-5" operator="in"/><feComposite in="SourceGraphic"/></filter><filter id="drop-shadow-6" filterUnits="userSpaceOnUse"><feOffset dx="-1.8" dy="1.08"/><feGaussianBlur result="blur-6" stdDeviation="0"/><feFlood flood-color="#000" flood-opacity=".1"/><feComposite in2="blur-6" operator="in"/><feComposite in="SourceGraphic"/></filter><filter id="drop-shadow-7" filterUnits="userSpaceOnUse"><feOffset dx="-1.8" dy="1.08"/><feGaussianBlur result="blur-7" stdDeviation="0"/><feFlood flood-color="#000" flood-opacity=".1"/><feComposite in2="blur-7" operator="in"/><feComposite in="SourceGraphic"/></filter><filter id="drop-shadow-8" filterUnits="userSpaceOnUse"><feOffset dx="1.8" dy="0"/><feGaussianBlur result="blur-8" stdDeviation="0"/><feFlood flood-color="#000" flood-opacity=".1"/><feComposite in2="blur-8" operator="in"/><feComposite in="SourceGraphic"/></filter><filter id="drop-shadow-9" filterUnits="userSpaceOnUse"><feOffset dx="1.8" dy="0"/><feGaussianBlur result="blur-9" stdDeviation="0"/><feFlood flood-color="#000" flood-opacity=".1"/><feComposite in2="blur-9" operator="in"/><feComposite in="SourceGraphic"/></filter><filter id="drop-shadow-10" filterUnits="userSpaceOnUse"><feOffset dx="0" dy="-1.8"/><feGaussianBlur result="blur-10" stdDeviation="0"/><feFlood flood-color="#000" flood-opacity=".07"/><feComposite in2="blur-10" operator="in"/><feComposite in="SourceGraphic"/></filter><filter id="drop-shadow-11" filterUnits="userSpaceOnUse"><feOffset dx="0" dy="-1.8"/><feGaussianBlur result="blur-11" stdDeviation="0"/><feFlood flood-color="#000" flood-opacity=".07"/><feComposite in2="blur-11" operator="in"/><feComposite in="SourceGraphic"/></filter><image id="image" width="2048" height="2732" xlink:href="../../../../../Downloads/IMG_1488D0605AE1-1.jpeg"/></defs><g id="Layer_2-2"><rect class="cls-16" x="1.5" y="1.5" width="645.03" height="716.85"/><rect class="cls-1" x="1.5" y="1.5" width="645.03" height="716.85"/><rect class="cls-25" x="14.24" y="16.11" width="618.5" height="688.4"/><rect class="cls-6" x="14.24" y="16.11" width="618.5" height="688.4"/><path class="cls-33" d="m628.62,31.96l-.1,658.45s-11.06.51-11.06,10.74l-587.68.16s-.52-11.06-10.74-11.06l-.16-658.29s11.06-.51,11.06-10.74h587.62c0,10.23,11.06,10.74,11.06,10.74Z"/><path class="cls-6" d="m19.04,690.25c10.22,0,10.74,11.06,10.74,11.06l587.68-.16c0-10.23,11.06-10.74,11.06-10.74l.1-658.45s-11.06-.51-11.06-10.74H29.94c0,10.23-11.06,10.74-11.06,10.74l.16,658.29Z"/><rect class="cls-14" x="23.06" y="26.09" width="601.35" height="670.48"/><rect class="cls-6" x="23.06" y="26.09" width="601.35" height="670.48"/><g class="cls-46"><path class="cls-17" d="m605.15,45.59v631.48H41.84V45.59h563.31Zm-31.87,597.56V73.92H74.09v569.23h499.19Z"/><rect class="cls-13" x="74.09" y="73.92" width="499.19" height="569.23"/><rect class="cls-6" x="41.84" y="45.59" width="563.31" height="631.48"/><rect class="cls-7" x="74.09" y="73.92" width="499.19" height="569.23"/></g><g class="cls-44"><path class="cls-12" d="m248.07,190.6c1.86,1.76,1.96,4.7.19,6.58l-58.03,61.5c-1.76,1.87-4.7,1.96-6.57.19l-90.55-85.43c-1.87-1.75-1.96-4.69-.19-6.57l58.03-61.51c1.76-1.86,4.7-1.95,6.57-.18l90.55,85.42Z"/><path class="cls-7" d="m183.67,258.88l-90.55-85.43c-1.87-1.75-1.96-4.69-.19-6.57l58.03-61.51c1.76-1.86,4.7-1.95,6.57-.18l90.55,85.42c1.86,1.76,1.96,4.7.19,6.58l-58.03,61.5c-1.76,1.87-4.7,1.96-6.57.19Z"/></g><g class="cls-11"><use transform="translate(10.53 120.54) rotate(-31.96) scale(.13)" xlink:href="#image"/></g><rect class="cls-7" x="108.97" y="140.61" width="122.95" height="83.39" rx="4.2" ry="4.2" transform="translate(171.57 -67.26) rotate(43.33)"/><g class="cls-45"><path class="cls-12" d="m241.39,175.23c2.07,1.51,2.54,4.42,1.03,6.5l-49.73,68.38c-1.51,2.08-4.42,2.54-6.49,1.03l-100.68-73.22c-2.07-1.5-2.54-4.41-1.03-6.49l49.73-68.39c1.51-2.07,4.42-2.53,6.49-1.02l100.68,73.21Z"/><path class="cls-7" d="m186.19,251.14l-100.68-73.22c-2.07-1.5-2.54-4.41-1.03-6.49l49.73-68.39c1.51-2.07,4.42-2.53,6.49-1.02l100.68,73.21c2.07,1.51,2.54,4.42,1.03,6.5l-49.73,68.38c-1.51,2.08-4.42,2.54-6.49,1.03Z"/></g><g class="cls-41"><g class="cls-37"><use transform="translate(-3.13 135.94) rotate(-39.27) scale(.13)" xlink:href="#image"/></g><rect class="cls-7" x="101.86" y="135.18" width="122.95" height="83.39" rx="4.2" ry="4.2" transform="translate(135.26 -62.24) rotate(36.02)"/></g><g class="cls-39"><path class="cls-24" d="m533.93,246.02c1.05-.84,1.7-1.43,1.7-1.43-5.37-.31-7.51-.94-7.73-1.69h0c-.58-2.01,12.22-4.91,13.14-5.12.04,0,.05-.03.05-.06-.05-.67-.4-7.27,6.43-7.39,2.74-.06,5.42,1.34,6.74,3.74,1.4,2.54.99,7.28-2.93,8.59-.2.06-.32.26-.25.46.68,2.02,3.99,12.17,2.28,12.89-.71.32-2.32-1.04-5.38-5.36,0,0-.22.85-.44,2.18-.49,3.04-.95,8.6,1.39,12.23.33.51.21.77-.2.82h0c-2.19.3-12.68-5.21-9.76-11.21l-1.16-.62c-2.94,5.14-14.12.64-15.38-1.18-.27-.38-.11-.65.63-.69,3.11-.18,8.22-4.01,10.88-6.16Z"/><path class="cls-19" d="m553.37,256.01h0s-.6,4.43-5.81-3.18c.21-1.33.44-2.18.44-2.18,3.06,4.32,4.67,5.68,5.38,5.36Z"/><path class="cls-19" d="m538.97,254.67c-2.92,6,7.58,11.51,9.76,11.22-.05.14-.91,2.81-4.1,1.62,0,0-9.48-3.32-7.14-11.62-3.64,4.94-7.32,3.98-11.89,1.88-4.3-1.97-3.27-4.7-3.19-4.89,1.26,1.82,12.45,6.33,15.38,1.18l1.16.62Z"/><path class="cls-19" d="m535.64,244.59s-.66.59-1.7,1.43c-.88-.03-4.47-.19-5.64-1-1.25-.87-.48-2-.39-2.12.22.75,2.36,1.38,7.73,1.69Z"/><path class="cls-34" d="m516.63,253.61c-.37.69-2.47.7-7.58-.61,0,0,.38.78,1.07,1.94,1.6,2.63,4.84,7.17,8.98,8.42.58.17.67.46.38.77h0c-1.51,1.65-13.04,4.22-14.7-2.22l-1.29.27c1.08,5.8-10.29,9.61-12.49,9.07-.46-.12-.51-.43.03-.94,2.25-2.15,3.67-8.37,4.3-11.73.25-1.33.38-2.21.38-2.21-4.32,3.26-6.35,4.16-6.99,3.71-1.72-1.16,6.14-11.63,6.7-12.39.02-.03.02-.06,0-.09-.46-.46-5.01-5.27.12-9.79,2.05-1.81,5-2.48,7.57-1.51,2.71,1.02,5.46,4.91,3.32,8.44-.11.18-.07.41.11.51,1.84,1.1,10.97,6.72,10.09,8.37Z"/><path class="cls-21" d="m519.48,264.13c.06.14,1.13,2.72-2.06,3.88,0,0-9.39,3.6-12.98-4.24.44,6.12-3,7.77-7.84,9.14-4.49,1.26-5.5-1.39-5.59-1.67,2.2.54,13.57-3.26,12.49-9.07l1.29-.27c1.66,6.44,13.18,3.87,14.7,2.23Z"/><path class="cls-21" d="m516.63,253.61c.09.15,2.2,3.7-6.51,1.33-.69-1.15-1.07-1.94-1.07-1.94,5.11,1.31,7.21,1.3,7.58.61Z"/><path class="cls-21" d="m495.72,256.37s-.13.88-.38,2.21c-.69.54-3.53,2.74-4.94,2.88-1.61.16-1.68-1.37-1.68-1.37h0c.65.44,2.67-.46,6.99-3.72Z"/><path class="cls-35" d="m465.67,276.47c.89-1.03,1.43-1.73,1.43-1.73-5.36.68-7.56.46-7.91-.25-.95-1.86,11.11-7.06,11.98-7.43.03,0,.04-.04.03-.07-.17-.64-1.72-7.07,4.97-8.45,2.68-.55,5.57.33,7.31,2.44,1.85,2.24,2.31,6.98-1.31,8.99-.17.1-.25.31-.15.49,1.04,1.87,6.16,11.26,4.6,12.26-.66.44-2.48-.61-6.28-4.28,0,0-.07.87-.03,2.21.07,3.07.63,8.63,3.61,11.77.42.45.35.73-.06.85-2.12.68-13.42-2.81-11.65-9.23l-1.25-.4c-1.95,5.59-13.77,3.22-15.35,1.65h0c-.32-.33-.21-.62.5-.79,3.02-.75,7.34-5.42,9.55-8.03Z"/><path class="cls-23" d="m472.22,284.04c-1.76,6.42,9.53,9.91,11.65,9.23,0,0-.28,2.94-3.73,2.35,0,0-9.94-1.54-9.15-10.13-2.66,5.53-6.46,5.26-11.33,4.03-4.59-1.14-4.09-4.02-4.04-4.23,1.59,1.57,13.41,3.94,15.35-1.65l1.25.4Z"/><path class="cls-29" d="m433.84,266.07c.55-1.23.88-2.06.88-2.06-4.96,2.16-7.14,2.56-7.67,1.98-1.4-1.55,8.7-9.89,9.43-10.49.02-.02.03-.05,0-.08-.35-.57-3.64-6.31,2.4-9.5,2.42-1.28,5.43-1.24,7.71.3,2.39,1.63,4.17,6.05,1.26,8.98-.15.15-.16.38,0,.52,1.52,1.5,9.07,9.08,7.85,10.49-.5.59-2.55.11-7.22-2.36,0,0,.18.86.59,2.14h0c.92,2.94,3.02,8.1,6.75,10.28.52.31.54.59.19.83-1.8,1.26-13.67,1.08-13.78-5.59l-1.32-.03c-.3,5.9-12.28,6.95-14.27,5.89h0c-.42-.22-.4-.53.25-.91,2.69-1.56,5.53-7.27,6.93-10.38Z"/><path class="cls-27" d="m456.03,277.1s.55,2.92-2.93,3.3c0,0-9.97,1.32-11.62-7.15-1.02,6.05-4.74,6.85-9.76,7.04-4.74.18-5.04-2.71-5.06-2.93,1.99,1.06,13.97,0,14.27-5.89l1.32.03c.11,6.66,11.97,6.85,13.78,5.59Z"/><path class="cls-27" d="m455.7,266.21s1.46,4.21-6.62-.22h0c-.41-1.28-.59-2.14-.59-2.14,4.67,2.47,6.71,2.95,7.22,2.36Z"/><path class="cls-27" d="m434.73,264.01s-.33.83-.88,2.06c-.81.38-4.07,1.83-5.47,1.64-1.61-.22-1.32-1.72-1.32-1.72.53.58,2.71.18,7.67-1.98Z"/><path class="cls-4" d="m449.07,265.98c-.41-1.28-.59-2.14-.59-2.14,4.67,2.47,6.71,2.95,7.22,2.36,1.22-1.41-6.33-8.99-7.85-10.49-.15-.15-.14-.37,0-.52,2.91-2.93,1.13-7.35-1.26-8.98-2.28-1.54-5.29-1.58-7.71-.3-6.04,3.2-2.75,8.93-2.4,9.5.02.03,0,.06,0,.08-.73.6-10.83,8.94-9.43,10.49.53.58,2.71.18,7.67-1.98,0,0-.33.83-.88,2.06-1.39,3.12-4.23,8.83-6.93,10.38-.65.38-.67.69-.25.9"/><path class="cls-4" d="m426.67,277.37c1.99,1.06,13.97,0,14.27-5.89l1.32.03c.11,6.66,11.97,6.85,13.78,5.59.35-.24.33-.52-.19-.83-3.73-2.18-5.83-7.34-6.75-10.28"/><path class="cls-4" d="m427.05,265.98s-.29,1.5,1.32,1.72c1.4.19,4.66-1.26,5.47-1.64.12-.06.18-.09.18-.09"/><path class="cls-4" d="m455.7,266.21s1.46,4.21-6.62-.22h0"/><path class="cls-4" d="m441.48,273.25c-1.02,6.05-4.74,6.85-9.76,7.04-4.74.18-5.04-2.71-5.06-2.93h0"/><path class="cls-4" d="m456.03,277.1s.55,2.92-2.93,3.3c0,0-9.97,1.32-11.62-7.15"/><path class="cls-4" d="m455.61,285.29c1.59,1.57,13.41,3.94,15.35-1.65l1.25.4c-1.76,6.42,9.53,9.91,11.65,9.23.41-.13.47-.41.06-.85-2.98-3.14-3.55-8.7-3.61-11.77-.04-1.34.03-2.21.03-2.21,3.8,3.67,5.62,4.72,6.28,4.28,1.56-1.01-3.56-10.39-4.6-12.26-.1-.18-.02-.4.15-.49,3.61-2.01,3.16-6.75,1.31-8.99-1.74-2.11-4.63-2.99-7.31-2.44-6.69,1.38-5.14,7.81-4.97,8.45,0,.03,0,.06-.03.07-.87.37-12.93,5.57-11.98,7.43.36.71,2.56.93,7.91.25,0,0-.54.71-1.43,1.73-2.21,2.61-6.53,7.28-9.55,8.03-.72.17-.82.46-.5.78"/><path class="cls-4" d="m459.19,274.48s-.71,1.37.77,2.02c1.28.58,4.81.1,5.71-.04.13-.02.2-.03.2-.03"/><path class="cls-4" d="m486.62,282.72s.21,4.46-6.31-2.07"/><path class="cls-4" d="m470.99,285.49c-2.66,5.53-6.46,5.26-11.33,4.03-4.59-1.14-4.09-4.02-4.04-4.23h0"/><path class="cls-4" d="m483.87,293.27s-.28,2.94-3.73,2.35c0,0-9.94-1.54-9.15-10.13"/><path class="cls-4" d="m519.48,264.12c.29-.31.2-.59-.38-.77-4.14-1.25-7.38-5.78-8.98-8.42-.69-1.15-1.07-1.94-1.07-1.94,5.11,1.31,7.21,1.3,7.58.61.87-1.65-8.25-7.27-10.09-8.37-.17-.11-.21-.33-.11-.51,2.14-3.53-.61-7.42-3.32-8.44-2.57-.97-5.51-.3-7.57,1.51-5.12,4.52-.58,9.33-.12,9.79.02.03.02.06,0,.09-.56.76-8.43,11.23-6.7,12.39.65.45,2.67-.45,6.99-3.71,0,0-.13.88-.38,2.21-.63,3.36-2.05,9.58-4.3,11.73-.54.51-.48.82-.03.94,2.2.54,13.57-3.26,12.49-9.07l1.29-.27c1.66,6.44,13.18,3.87,14.7,2.23"/><path class="cls-4" d="m488.72,260.09s.07,1.53,1.68,1.37c1.41-.14,4.25-2.33,4.94-2.88.1-.08.15-.13.15-.13"/><path class="cls-4" d="m516.62,253.6h0c.09.16,2.2,3.71-6.51,1.34"/><path class="cls-4" d="m504.44,263.78c.44,6.12-3,7.77-7.84,9.14-4.49,1.26-5.5-1.39-5.59-1.67,0,0,0-.02,0-.02"/><path class="cls-4" d="m519.48,264.12h0c.06.15,1.13,2.73-2.06,3.89,0,0-9.39,3.6-12.98-4.24"/><path class="cls-4" d="m527.91,242.9c.22.75,2.36,1.38,7.73,1.69,0,0-.66.59-1.7,1.43-2.65,2.15-7.77,5.98-10.88,6.16-.74.04-.9.31-.63.69,1.26,1.82,12.45,6.33,15.38,1.18l1.16.62c-2.92,6,7.58,11.51,9.76,11.22"/><path class="cls-4" d="m548.73,265.88c.42-.05.53-.31.2-.82-2.33-3.62-1.88-9.18-1.39-12.23.21-1.33.44-2.18.44-2.18,3.06,4.32,4.67,5.68,5.38,5.36,1.71-.73-1.6-10.87-2.28-12.89-.07-.19.05-.4.25-.46,3.91-1.31,4.33-6.05,2.93-8.59-1.33-2.4-4-3.8-6.74-3.74-6.83.13-6.48,6.72-6.43,7.39,0,.03,0,.06-.05.06-.92.21-13.72,3.11-13.14,5.11"/><path class="cls-4" d="m527.91,242.89h0c-.1.14-.86,1.26.39,2.13,1.17.8,4.76.97,5.64,1,.13,0,.19,0,.19,0"/><path class="cls-4" d="m553.37,256.02s-.6,4.42-5.81-3.19c0,0,0,0,0,0"/><path class="cls-4" d="m537.5,255.88c-3.64,4.94-7.32,3.98-11.89,1.88-4.3-1.97-3.27-4.7-3.19-4.89h0"/><path class="cls-4" d="m548.73,265.88h0c-.05.15-.91,2.82-4.1,1.63,0,0-9.48-3.32-7.14-11.62"/></g><path class="cls-30" d="m206.58,616.94v26.2h-31.05v-26.2c0-1.95,1.58-3.53,3.54-3.53h23.99c1.95,0,3.53,1.58,3.53,3.53Z"/><path class="cls-4" d="m206.58,643.15v-26.2c0-1.95-1.58-3.53-3.53-3.53h-23.99c-1.96,0-3.54,1.58-3.54,3.53v26.2h31.05Z"/><circle class="cls-31" cx="181.33" cy="620.17" r="3.23"/><circle class="cls-4" cx="181.33" cy="620.17" r="3.23"/><circle class="cls-31" cx="200.97" cy="620.17" r="3.23"/><circle class="cls-31" cx="200.97" cy="637.69" r="3.23"/><circle class="cls-31" cx="191.06" cy="629.17" r="3.23"/><circle class="cls-31" cx="181.33" cy="637.69" r="3.23"/><circle class="cls-4" cx="200.97" cy="620.17" r="3.23"/><circle class="cls-4" cx="200.97" cy="637.69" r="3.23"/><circle class="cls-4" cx="181.33" cy="637.69" r="3.23"/><circle class="cls-4" cx="191.06" cy="629.17" r="3.23"/><g class="cls-42"><path class="cls-28" d="m525.95,179.23c.77.71.81,1.91.11,2.67l-15.01,16.24c-.71.77-1.91.81-2.67.11l-16.24-15.01c-.77-.71-.81-1.91-.11-2.67l15.01-16.24c.71-.77,1.91-.81,2.67-.11l16.24,15.01Z"/><path class="cls-4" d="m526.06,181.9l-15.01,16.24c-.71.77-1.91.81-2.67.11l-16.24-15.01c-.77-.71-.81-1.91-.11-2.67l15.01-16.24c.71-.77,1.91-.81,2.67-.11l16.24,15.01c.77.71.81,1.91.11,2.67Z"/></g><g class="cls-40"><path class="cls-28" d="m509.92,199.02l-1.24.94c-.57.17-1.12-.31-1.36-.54l-15.73-14.21c-.26-.24-.38-.59-.33-.93l.28-1.83,18.39,16.58Z"/><path class="cls-10" d="m491.53,182.44l-.28,1.83c-.05.34.07.69.33.93l15.73,14.21c.25.24.79.71,1.36.54l1.24-.94-18.39-16.58Z"/></g><g class="cls-43"><polygon class="cls-32" points="273.99 582.5 273.99 581.66 275.21 581.66 275.21 582.5 275.3 582.5 280.09 582.5 281.26 587.21 280.61 587.21 268.4 587.21 267.74 587.21 269.26 582.5 273.99 582.5"/><rect class="cls-32" x="268.4" y="587.21" width="12.22" height="5.35"/><polyline class="cls-4" points="273.99 582.5 269.26 582.5 267.74 587.21 268.4 587.21 280.61 587.21 281.26 587.21 280.09 582.5 275.3 582.5"/><polyline class="cls-4" points="268.4 587.21 268.4 592.56 280.61 592.56 280.61 587.21"/><polyline class="cls-10" points="273.99 583.39 273.99 582.5 273.99 581.66 275.21 581.66 275.21 582.5 275.21 583.39"/></g><g class="cls-38"><polygon class="cls-22" points="254.17 577.93 257.46 585.09 230.18 597.63 226.9 590.47 226.9 590.46 254.17 577.93"/><polygon class="cls-22" points="236.49 578.41 235.64 576.56 238.35 575.32 239.19 577.17 239.41 577.07 250.1 572.16 255.62 577.27 254.17 577.93 226.9 590.46 226.9 590.47 225.41 591.15 225.91 583.27 236.49 578.41"/><path class="cls-30" d="m206.81,583.01v24c0,1.95-1.58,3.53-3.53,3.53h-28.57v-2.14h2v-23.11h2.6c0,1.78,1.44,3.23,3.23,3.23s3.23-1.44,3.23-3.23-1.44-3.23-3.23-3.23v-2.57h20.75c1.95,0,3.53,1.58,3.53,3.53Zm-3.53,2.27c0-1.78-1.44-3.23-3.23-3.23s-3.23,1.44-3.23,3.23,1.44,3.23,3.23,3.23,3.23-1.44,3.23-3.23Zm0,19.65c0-1.78-1.44-3.23-3.23-3.23s-3.23,1.44-3.23,3.23,1.44,3.23,3.23,3.23,3.23-1.44,3.23-3.23Zm-9-9.91c0-1.78-1.44-3.23-3.23-3.23s-3.23,1.44-3.23,3.23,1.44,3.23,3.23,3.23,3.23-1.45,3.23-3.23Zm-8.52,9.91c0-1.78-1.44-3.23-3.23-3.23s-3.23,1.44-3.23,3.23,1.44,3.23,3.23,3.23,3.23-1.44,3.23-3.23Z"/><circle class="cls-31" cx="200.06" cy="585.28" r="3.23"/><circle class="cls-31" cx="200.06" cy="604.92" r="3.23"/><circle class="cls-31" cx="191.06" cy="595.01" r="3.23"/><circle class="cls-31" cx="182.54" cy="585.28" r="3.23"/><circle class="cls-31" cx="182.54" cy="604.92" r="3.23"/><path class="cls-30" d="m182.54,579.48v2.57c-1.78,0-3.23,1.44-3.23,3.23h-2.6v-5.79h5.82Z"/><polygon class="cls-31" points="176.72 585.28 176.72 608.39 174.72 608.39 174.72 604.92 174.72 582.05 176.72 582.05 176.72 585.28"/><path class="cls-30" d="m176.72,579.48v2.57h-2v22.87h-2.47c0-1.78-1.44-3.23-3.23-3.23s-3.23,1.44-3.23,3.23,1.44,3.23,3.23,3.23v2.38h-18.87c-1.96,0-3.54-1.58-3.54-3.53v-24c0-1.95,1.58-3.53,3.54-3.53h26.56Zm-20.63,5.79c0-1.78-1.44-3.23-3.23-3.23s-3.23,1.44-3.23,3.23,1.44,3.23,3.23,3.23,3.23-1.44,3.23-3.23Z"/><path class="cls-30" d="m174.72,608.39v2.14h-5.7v-2.38c1.78,0,3.23-1.44,3.23-3.23h2.47v3.47Z"/><circle class="cls-31" cx="169.02" cy="604.92" r="3.23"/><circle class="cls-31" cx="152.86" cy="585.28" r="3.23"/><path class="cls-30" d="m143.49,580.43v26.57c0,1.95-1.58,3.53-3.54,3.53h-23.99c-1.95,0-3.53-1.58-3.53-3.53v-32.39h2.57c0,1.78,1.44,3.23,3.23,3.23v2.6h-3.23v2h26.34v-2h2.14Zm-2.38,7.69c0-1.78-1.44-3.23-3.23-3.23s-3.23,1.44-3.23,3.23,1.44,3.23,3.23,3.23,3.23-1.44,3.23-3.23Zm-19.65,16.17c0-1.78-1.45-3.23-3.23-3.23s-3.23,1.44-3.23,3.23,1.44,3.23,3.23,3.23,3.23-1.44,3.23-3.23Z"/><path class="cls-30" d="m143.49,574.61v5.82h-5.61v-2.6c1.78,0,3.23-1.44,3.23-3.23h2.38Z"/><path class="cls-30" d="m143.49,553.86v20.75h-2.38c0-1.77-1.44-3.23-3.23-3.23s-3.23,1.45-3.23,3.23,1.44,3.23,3.23,3.23v2.6h-19.65v-2.6c1.77,0,3.23-1.44,3.23-3.23s-1.45-3.23-3.23-3.23-3.23,1.45-3.23,3.23h-2.57v-20.75c0-1.95,1.58-3.53,3.53-3.53h23.99c1.96,0,3.54,1.58,3.54,3.53Zm-2.38,3.23c0-1.78-1.44-3.23-3.23-3.23s-3.23,1.44-3.23,3.23,1.44,3.23,3.23,3.23,3.23-1.44,3.23-3.23Zm-19.65,0c0-1.78-1.45-3.23-3.23-3.23s-3.23,1.44-3.23,3.23,1.44,3.23,3.23,3.23,3.23-1.44,3.23-3.23Z"/><polygon class="cls-31" points="141.35 580.43 141.35 582.43 115.01 582.43 115.01 580.43 118.23 580.43 137.88 580.43 141.35 580.43"/><circle class="cls-31" cx="137.88" cy="557.09" r="3.23"/><circle class="cls-31" cx="137.88" cy="574.61" r="3.23"/><circle class="cls-31" cx="137.88" cy="588.12" r="3.23"/><path class="cls-26" d="m115.01,474.7c13.71,0,24.82,11.11,24.82,24.82s-11.11,24.82-24.82,24.82-24.82-11.11-24.82-24.82,11.11-24.82,24.82-24.82Zm22.33,24.82c0-12.33-10-22.34-22.33-22.34s-22.34,10.01-22.34,22.34,10,22.34,22.34,22.34,22.33-10,22.33-22.34Z"/><path class="cls-26" d="m111.33,495.19c-.88.36-1.8.89-2.66,1.66-.32-.26-4.22-3.23-4.82-3.68-.02-.02-.05,0-.03.03l3.16,5.65c-.7,1.09-1.08,2.21-1.3,3.18-.39.15-6.2,2.55-6.89,2.87-.02,0,0,.04,0,.04l6.65-.05h0c6.49,0,12.97,0,19.46,0h0c1.36,0,5.64-.11,6.3-.12.03,0,.03-.03,0-.04l-6.26-2.47h-.09c-.15-1.02-.47-2.23-1.18-3.42.25-.32,3.62-4.84,4.05-5.47.02-.02,0-.04-.03-.03l-5.49,3.44-.1.12c-1.93-1.82-4.21-2.3-5.51-2.44-.06-.41-.97-5.64-1.1-6.38,0-.02-.04-.02-.04,0l-1.45,6.32v.1c-.77.09-1.7.29-2.67.71Zm3.68-18.02c12.33,0,22.33,10.01,22.33,22.34s-10,22.34-22.33,22.34-22.34-10-22.34-22.34,10-22.34,22.34-22.34Z"/><path class="cls-18" d="m131.2,504.74s.02.04,0,.04c-.66,0-4.94.11-6.3.13h0c.04-.28.15-1.3-.04-2.63h.09s6.26,2.46,6.26,2.46Z"/><path class="cls-18" d="m127.7,493.34s.05,0,.03.03c-.43.63-3.8,5.15-4.05,5.47-.28-.46-.6-.92-1-1.37-.18-.2-.38-.4-.57-.58l.1-.12,5.49-3.44Z"/><path class="cls-20" d="m105.44,504.88c-.03-.32-.09-1.43.23-2.86.21-.97.6-2.08,1.3-3.18.32-.51.72-1.03,1.19-1.51.16-.17.33-.33.5-.48.86-.77,1.78-1.3,2.66-1.66.98-.42,1.91-.62,2.68-.71.82-.12,1.48-.1,1.81-.09.18,0,.45.02.77.06,1.3.15,3.58.62,5.51,2.44.19.18.39.38.57.58.4.45.72.9,1,1.37.71,1.19,1.04,2.4,1.18,3.43.19,1.33.08,2.34.04,2.62h-19.46Z"/><circle class="cls-31" cx="118.23" cy="557.09" r="3.23"/><circle class="cls-31" cx="118.23" cy="574.61" r="3.23"/><circle class="cls-31" cx="118.23" cy="604.29" r="3.23"/><path class="cls-18" d="m115.49,488.07c.14.75,1.05,5.98,1.1,6.38-.33-.04-.59-.05-.77-.06-.33,0-.99-.03-1.81.09v-.1s1.44-6.32,1.44-6.32c0-.02.03-.02.04,0Z"/><path class="cls-30" d="m108.66,554.07v24c0,1.95-1.58,3.53-3.53,3.53l-30.9-.04v-31.04l30.9.03c1.95,0,3.53,1.58,3.53,3.53Zm-3.52,2.27c0-1.78-1.44-3.23-3.23-3.23s-3.23,1.44-3.23,3.23,1.44,3.23,3.23,3.23,3.23-1.45,3.23-3.23Zm0,19.65c0-1.78-1.44-3.23-3.23-3.23s-3.23,1.44-3.23,3.23,1.44,3.23,3.23,3.23,3.23-1.44,3.23-3.23Zm-17.53-19.65c0-1.78-1.44-3.23-3.23-3.23s-3.23,1.44-3.23,3.23,1.44,3.23,3.23,3.23,3.23-1.45,3.23-3.23Zm0,19.65c0-1.78-1.44-3.23-3.23-3.23s-3.23,1.44-3.23,3.23,1.44,3.23,3.23,3.23,3.23-1.44,3.23-3.23Zm-9.05,3.47v-26.34h-2v26.34h2Z"/><path class="cls-18" d="m108.66,496.85c-.17.15-.34.31-.5.48-.47.48-.87,1-1.19,1.51l-3.16-5.65s0-.05.03-.03c.6.46,4.5,3.42,4.82,3.68Z"/><path class="cls-18" d="m105.44,504.88l-6.65.05s-.03-.03,0-.04c.69-.32,6.5-2.71,6.89-2.87-.32,1.42-.26,2.54-.23,2.86Z"/><circle class="cls-31" cx="101.92" cy="556.34" r="3.23"/><circle class="cls-31" cx="101.92" cy="575.99" r="3.23"/><circle class="cls-31" cx="84.39" cy="556.34" r="3.23"/><circle class="cls-31" cx="84.39" cy="575.99" r="3.23"/><rect class="cls-31" x="76.57" y="553.11" width="2" height="26.34"/><path class="cls-4" d="m143.49,580.43v26.57c0,1.95-1.58,3.53-3.54,3.53h-23.99c-1.95,0-3.53-1.58-3.53-3.53v-53.14c0-1.95,1.58-3.53,3.53-3.53h23.99c1.96,0,3.54,1.58,3.54,3.53v26.57Z"/><circle class="cls-4" cx="118.23" cy="557.09" r="3.23"/><circle class="cls-4" cx="137.88" cy="557.09" r="3.23"/><circle class="cls-4" cx="137.88" cy="574.61" r="3.23"/><circle class="cls-4" cx="137.88" cy="588.12" r="3.23"/><circle class="cls-4" cx="118.23" cy="574.61" r="3.23"/><circle class="cls-4" cx="118.23" cy="604.29" r="3.23"/><polygon class="cls-4" points="141.35 580.43 141.35 582.43 115.01 582.43 115.01 580.43 118.23 580.43 137.88 580.43 141.35 580.43"/><path class="cls-4" d="m74.23,581.56l30.9.04c1.95,0,3.53-1.58,3.53-3.53v-24c0-1.95-1.58-3.53-3.53-3.53l-30.9-.03v31.04Z"/><circle class="cls-4" cx="101.92" cy="556.34" r="3.23"/><circle class="cls-4" cx="101.92" cy="575.99" r="3.23"/><circle class="cls-4" cx="84.39" cy="575.99" r="3.23"/><circle class="cls-4" cx="84.39" cy="556.34" r="3.23"/><rect class="cls-4" x="76.57" y="553.11" width="2" height="26.34"/><path class="cls-4" d="m169.02,610.53h-18.87c-1.96,0-3.54-1.58-3.54-3.53v-24c0-1.95,1.58-3.53,3.54-3.53h53.13c1.95,0,3.53,1.58,3.53,3.53v24c0,1.95-1.58,3.53-3.53,3.53h-34.26Z"/><circle class="cls-4" cx="200.06" cy="585.28" r="3.23"/><circle class="cls-4" cx="200.06" cy="604.92" r="3.23"/><circle class="cls-4" cx="182.54" cy="604.92" r="3.23"/><circle class="cls-4" cx="169.02" cy="604.92" r="3.23"/><circle class="cls-4" cx="182.54" cy="585.28" r="3.23"/><circle class="cls-4" cx="191.06" cy="595.01" r="3.23"/><circle class="cls-4" cx="152.86" cy="585.28" r="3.23"/><polygon class="cls-4" points="174.72 608.39 174.72 604.92 174.72 582.05 176.72 582.05 176.72 585.28 176.72 608.39 174.72 608.39"/><polyline class="cls-4" points="226.9 590.46 254.17 577.93 255.62 577.27 250.1 572.16 239.41 577.07"/><polyline class="cls-4" points="236.49 578.41 225.91 583.27 225.41 591.15 226.9 590.47"/><polyline class="cls-4" points="226.9 590.46 226.9 590.47 230.18 597.63 257.46 585.09 254.17 577.93"/><polyline class="cls-10" points="237.04 579.61 236.5 578.41 236.49 578.41 235.64 576.56 238.35 575.32 239.19 577.17 239.74 578.37"/><circle class="cls-4" cx="115.01" cy="499.52" r="24.82"/><path class="cls-4" d="m137.34,499.52c0,12.34-10,22.34-22.33,22.34s-22.34-10-22.34-22.34,10-22.34,22.34-22.34,22.33,10.01,22.33,22.34Z"/><path class="cls-4" d="m124.9,504.89h-19.46c-.03-.33-.09-1.44.23-2.87.21-.97.6-2.08,1.3-3.18.32-.51.72-1.03,1.19-1.51.16-.17.33-.33.5-.48.86-.77,1.78-1.3,2.66-1.66.98-.42,1.91-.62,2.68-.71.82-.12,1.48-.1,1.81-.09.18,0,.45.02.77.06,1.3.15,3.58.62,5.51,2.44.19.18.39.38.57.58.4.45.72.9,1,1.37.71,1.19,1.04,2.4,1.18,3.43.19,1.33.08,2.34.04,2.62Z"/><path class="cls-4" d="m106.97,498.85l-3.16-5.65s0-.05.03-.03c.6.46,4.5,3.42,4.82,3.68"/><path class="cls-4" d="m114,494.39l1.45-6.32s.03-.02.04,0c.14.75,1.05,5.98,1.1,6.38"/><path class="cls-4" d="m122.21,496.78l5.49-3.44s.05,0,.03.03c-.43.63-3.8,5.15-4.05,5.47"/><path class="cls-4" d="m124.95,502.27l6.26,2.47s.02.04,0,.04c-.66,0-4.94.11-6.3.13h-.38"/><path class="cls-4" d="m105.52,504.88h-.09l-6.65.05s-.03-.03,0-.04c.69-.32,6.5-2.71,6.89-2.87"/><path class="cls-9" d="m98.38,512.07s15.16,17.16,33.02-.15"/><path class="cls-9" d="m126.84,483.03c-4.33-2.84-11.39-5.68-19.65-2.14"/><path class="cls-9" d="m96.52,491.63s-1.13,2.27-1.81,5.66"/><path class="cls-9" d="m134.88,503.58s.6-2.46.5-5.92"/><line class="cls-9" x1="111.33" y1="495.19" x2="110.06" y2="492.32"/><line class="cls-9" x1="119.58" y1="494.89" x2="120.85" y2="492.03"/><line class="cls-9" x1="124.7" y1="500.52" x2="127.71" y2="499.64"/><line class="cls-9" x1="105.93" y1="500.4" x2="102.92" y2="499.52"/></g><g class="cls-48"><path class="cls-26" d="m282.45,642.98h-2.49c-.21-10.28-7.55-19.37-18.06-21.43-12.11-2.36-23.84,5.54-26.2,17.65-.36,1.86-.52,2.15-.42,3.91h-2.48c-.11-1.64.07-2.34.46-4.39,2.63-13.46,15.65-22.23,29.11-19.62,11.81,2.31,20.01,12.62,20.07,23.87Z"/><path class="cls-26" d="m262.58,640.7c-.19-.94-.53-1.95-1.12-2.94.32-.26,3.97-3.53,4.54-4.03.02-.02,0-.05-.03-.04l-6.15,2.02c-.94-.89-1.96-1.49-2.87-1.89-.08-.4-1.32-6.56-1.49-7.3,0-.02-.04-.02-.05,0l-1.22,6.52h0c-.65,3.34-1.3,6.67-1.95,10.02l-16.95.05c-.11-1.76.06-2.05.42-3.91,2.36-12.11,14.09-20.01,26.2-17.65,10.51,2.05,17.84,11.15,18.06,21.44h-2.09l-15.09.05c.03-.69-.02-1.49-.19-2.34Z"/><path class="cls-18" d="m265.97,633.69s.05.02.03.04c-.57.5-4.22,3.77-4.54,4.03-.12-.19-.24-.39-.38-.58-.39-.56-.81-1.05-1.26-1.46l6.15-2.02Z"/><path class="cls-20" d="m254.19,633.05c.31.04,1.42.19,2.76.77.91.4,1.93,1,2.87,1.89.45.42.87.9,1.26,1.46.14.19.26.39.38.58.59.99.93,2,1.12,2.94.17.85.22,1.66.19,2.34l-10.54.03c.65-3.34,1.3-6.67,1.95-10.02h0Z"/><path class="cls-18" d="m256.96,633.83c-1.34-.58-2.45-.74-2.76-.77l1.22-6.52s.04-.03.05,0c.17.75,1.41,6.91,1.49,7.3Z"/><path class="cls-4" d="m279.96,642.99h2.49c-.06-11.26-8.26-21.57-20.07-23.88-13.46-2.62-26.48,6.16-29.11,19.62-.4,2.04-.57,2.75-.46,4.4h2.48s16.95-.06,16.95-.06l10.54-.03,15.09-.05h2.09Z"/><path class="cls-4" d="m235.29,643.2s0-.06,0-.08c-.11-1.76.06-2.05.42-3.91,2.36-12.11,14.09-20.01,26.2-17.65,10.51,2.05,17.84,11.15,18.06,21.44,0,.12,0,.22,0,.34"/><path class="cls-4" d="m252.17,643.4c.02-.11.04-.22.07-.33.65-3.34,1.3-6.67,1.95-10.02h0c.31.04,1.42.19,2.76.77.91.4,1.93,1,2.87,1.89.45.42.87.9,1.26,1.46.14.19.26.39.38.58.59.99.93,2,1.12,2.94.17.85.22,1.66.19,2.34,0,.09,0,.17,0,.26"/><path class="cls-4" d="m259.82,635.72l6.15-2.02s.05.02.03.04c-.57.5-4.22,3.77-4.54,4.03"/><path class="cls-4" d="m254.17,633.15l.02-.1,1.22-6.52s.04-.03.05,0c.17.75,1.41,6.91,1.49,7.3"/><path class="cls-9" d="m248.49,624.77s-10.9,5.77-11.2,18.28"/><path class="cls-9" d="m277.88,643.15s0-.11,0-.15c-.03-1.16-.18-2.37-.46-3.62"/><path class="cls-9" d="m268.91,626.84s-2.01-1.54-5.21-2.86"/><line class="cls-8" x1="262.58" y1="640.7" x2="265.64" y2="640"/><line class="cls-9" x1="258.5" y1="634.4" x2="259.94" y2="631.61"/></g><g class="cls-47"><path class="cls-26" d="m332.31,642.93h-2.86c-.42-.84-.88-1.69-1.41-2.5-6.75-10.33-20.6-13.23-30.92-6.49-3.59,2.34-6.29,5.55-7.99,9.16h-2.75c1.78-4.31,4.98-8.36,9.39-11.24,11.48-7.5,26.85-4.27,34.35,7.21.86,1.32,1.58,2.68,2.2,3.86Z"/><path class="cls-26" d="m327.2,642.94l-10.69.05c.07-1.15.13-2.16.13-2.45,0-.03-.03-.03-.04,0l-1.14,2.46-11.73.05c-.11-.11-.18-.19-.23-.24,0-.02-.04,0-.03.02l.08.22-14.4.06c1.7-3.61,4.4-6.82,7.99-9.16,10.33-6.74,24.17-3.84,30.92,6.49.53.81,1,1.66,1.41,2.51h-2.26Z"/><path class="cls-18" d="m316.59,640.53s.04-.02.04,0c0,.29-.06,1.3-.13,2.45h-1.06l1.14-2.46Z"/><path class="cls-4" d="m329.45,642.94h2.86c-.62-1.18-1.34-2.55-2.2-3.87-7.5-11.48-22.87-14.71-34.35-7.21-4.41,2.88-7.6,6.93-9.39,11.25h2.75s14.4-.07,14.4-.07h.18l11.73-.05h1.06l10.69-.05h2.26Z"/><path class="cls-4" d="m289.1,643.17s.02-.05.03-.07c1.7-3.61,4.4-6.82,7.99-9.16,10.33-6.74,24.17-3.84,30.92,6.49.53.81,1,1.66,1.41,2.51l.12.23"/><path class="cls-5" d="m303.61,643.25l-.08-.21-.08-.22s.02-.04.03-.02c.05.05.13.14.23.24.06.07.13.14.2.21"/><path class="cls-5" d="m315.41,643.08l.04-.09,1.14-2.46s.04-.02.04,0c0,.29-.06,1.3-.13,2.45,0,.06,0,.12,0,.17"/><path class="cls-9" d="m310.23,632.37c-5.18,0-12.64,1.47-17.63,8.94"/><path class="cls-8" d="m327.3,643.17c-.04-.08-.08-.15-.11-.22-.46-.85-1.05-1.89-1.81-2.99"/></g><circle class="cls-3" cx="508.54" cy="168.98" r="2.89"/><circle class="cls-3" cx="521.18" cy="180.9" r="2.89"/><circle class="cls-3" cx="496.69" cy="181.78" r="2.89"/><path class="cls-2" d="m502.13,193.32c-.09.1-1.89-1.34-2.74-2.13s-1.47-1.51-1.37-1.61,1.47.81,2.31,1.61c1.03.98,1.89,2.03,1.8,2.13Z"/><circle class="cls-3" cx="509.04" cy="181.78" r="2.89"/><circle class="cls-3" cx="509.56" cy="193.68" r="2.89"/><path class="cls-15" d="m3.04,278.21l-.04-207.31s4.47,6.98,5.38,3.74c1.14-4.05,4.85-.44,4.85-.44l.29,206.83s-4.4-7.29-5.32-4.05c-1.14,4.05-5.17,1.23-5.17,1.23Z"/><path class="cls-36" d="m13.23,465.79s-3.72,4.89-5.48,1.15c-1.4-3-4.72,6.76-4.72,6.76l.03-196.83s4.04,4.79,5.08.11c1.04-4.67,5.4,3.57,5.4,3.57l-.31,185.24Z"/><path class="cls-15" d="m638.9,469.49c-1.14,4.56-5.15.55-5.15.55v-232.79s4.4,8.2,5.32,4.56c1.14-4.56,6.21-2.06,6.21-2.06v233.95s-5.47-7.85-6.38-4.21Z"/><path class="cls-36" d="m645.26,241.95s-4.17-5.41-5.21-.15c-1.04,5.25-6.3-3.88-6.3-3.88V29.16s4.93-5.31,6.69-1.1c1.4,3.38,4.72-7.61,4.72-7.61l.1,221.5Z"/></g></svg>