<?xml version="1.0" encoding="UTF-8"?><svg xmlns="http://www.w3.org/2000/svg" xmlns:xlink="http://www.w3.org/1999/xlink" viewBox="0 0 1625.84 998.58"><defs><style>.cls-1,.cls-2,.cls-3,.cls-4,.cls-5,.cls-6,.cls-7,.cls-8,.cls-9,.cls-10{fill:none;}.cls-11{letter-spacing:.05em;}.cls-12{letter-spacing:-.05em;}.cls-13{letter-spacing:-.05em;}.cls-14{letter-spacing:-.05em;}.cls-15{letter-spacing:.03em;}.cls-15,.cls-16,.cls-17,.cls-18,.cls-19,.cls-20{font-family:SpaceGrotesk-Bold, 'Space Grotesk';font-weight:700;}.cls-15,.cls-20{font-size:16.03px;}.cls-2{stroke-width:3px;}.cls-2,.cls-3,.cls-4,.cls-5,.cls-21,.cls-6,.cls-8,.cls-9{stroke-miterlimit:10;}.cls-2,.cls-4,.cls-5,.cls-21,.cls-6,.cls-7,.cls-8,.cls-10{stroke:#000;}.cls-3,.cls-4,.cls-22,.cls-10{opacity:.28;}.cls-3,.cls-9{stroke:#db8f88;}.cls-5{stroke-width:6px;}.cls-23{clip-path:url(#clippath);}.cls-24{letter-spacing:.01em;}.cls-25{letter-spacing:-.04em;}.cls-26{letter-spacing:.04em;}.cls-27{letter-spacing:.04em;}.cls-28{letter-spacing:0em;}.cls-29{letter-spacing:.03em;}.cls-30,.cls-21,.cls-31{fill:#008ba6;}.cls-32{fill:#674a74;}.cls-33{fill:#ed99eb;}.cls-34{fill:#ed99a1;}.cls-35{fill:#e9779c;}.cls-36{fill:#fff;}.cls-37{fill:#ffd1cc;}.cls-38{fill:#ffd1c4;}.cls-39{fill:#ffd1b5;}.cls-40{fill:#edbcd4;}.cls-41,.cls-42{fill:#81779c;}.cls-43{fill:#c07a49;}.cls-44{fill:#db8f88;}.cls-45{fill:#db8f49;}.cls-46{fill:#d4cbe1;}.cls-47{fill:#c92c5e;}.cls-48{fill:#3cd59c;}.cls-49{fill:#754c24;}.cls-50{fill:#4b4649;}.cls-51{fill:#46bfd3;}.cls-52{letter-spacing:.04em;}.cls-21,.cls-6{stroke-width:2px;}.cls-16,.cls-17{font-size:24.04px;}.cls-16,.cls-53{letter-spacing:.03em;}.cls-54,.cls-55,.cls-56{font-size:20.09px;}.cls-54,.cls-57,.cls-58{font-family:SpaceGrotesk-Regular, 'Space Grotesk';}.cls-59{letter-spacing:1.99em;}.cls-60,.cls-61{letter-spacing:.03em;}.cls-62{letter-spacing:.05em;}.cls-63{letter-spacing:0em;}.cls-64{letter-spacing:.03em;}.cls-64,.cls-65,.cls-66,.cls-67,.cls-61,.cls-68,.cls-69,.cls-70,.cls-71{font-family:SpaceGrotesk-Medium, 'Space Grotesk';font-weight:500;}.cls-72{letter-spacing:.04em;}.cls-65{letter-spacing:.03em;}.cls-7,.cls-10{stroke-linecap:round;stroke-linejoin:round;stroke-width:.5px;}.cls-66{letter-spacing:.04em;}.cls-67{letter-spacing:.03em;}.cls-73{letter-spacing:0em;}.cls-74{letter-spacing:.03em;}.cls-56,.cls-75,.cls-58,.cls-71{letter-spacing:.04em;}.cls-76,.cls-70{letter-spacing:.02em;}.cls-77{opacity:.37;}.cls-78{letter-spacing:.05em;}.cls-79{letter-spacing:.04em;}.cls-69{letter-spacing:.03em;}.cls-18{font-size:32.05px;}.cls-80{letter-spacing:.03em;}.cls-81{letter-spacing:.03em;}.cls-42{opacity:.42;}.cls-31{opacity:.38;}.cls-82{fill:#373f74;opacity:.65;}.cls-19{font-size:30.13px;}.cls-20{letter-spacing:.03em;}</style><clipPath id="clippath"><polygon class="cls-1" points="1624.39 993.73 0 998.58 1.45 -149.99 1625.84 -154.84 1624.39 993.73"/></clipPath></defs><g id="Layer_1"><g class="cls-23"><rect class="cls-35" x="-134.54" y="0" width="1885.69" height="1449.47"/><path class="cls-51" d="m1324.82,64.75l1.36,899.05H310.04l-1.35-899.05c0-14.52,11.77-26.3,26.28-26.3h963.57c14.52,0,26.28,11.78,26.28,26.3Z"/><path class="cls-5" d="m1326.19,963.8H310.04l-1.35-899.05c0-14.52,11.77-26.3,26.28-26.3h963.57c14.52,0,26.28,11.78,26.28,26.3l1.36,899.05Z"/><polygon class="cls-31" points="391.18 610.03 358.95 817.62 1282.34 817.62 1245.55 610.03 391.18 610.03"/><polygon class="cls-31" points="353.02 831.82 350.05 960.16 1282.34 960.16 1282.34 831.82 353.02 831.82"/><g class="cls-77"><path class="cls-51" d="m269.14,53.1v914.44H-43.21l.02-914.44c0-8.09,6.52-14.64,14.57-14.64H254.57c8.05,0,14.57,6.56,14.57,14.64Z"/><path class="cls-6" d="m269.13,967.54H-43.21l.02-914.44c0-8.09,6.52-14.64,14.57-14.64H254.57c8.05,0,14.57,6.56,14.57,14.64v914.44Z"/></g><g class="cls-77"><path class="cls-51" d="m1679.88,49.78v916.88h-312.35l.02-916.88c0-8.12,6.52-14.7,14.57-14.7h283.19c8.05,0,14.57,6.58,14.57,14.7Z"/><path class="cls-6" d="m1679.87,966.67h-312.33l.02-916.88c0-8.12,6.52-14.7,14.57-14.7h283.19c8.05,0,14.57,6.58,14.57,14.7v916.88Z"/></g><circle class="cls-32" cx="444.9" cy="745.23" r="56.39"/><circle class="cls-2" cx="444.9" cy="745.23" r="56.39"/><path class="cls-48" d="m444.9,699.41c25.29,0,45.82,20.51,45.82,45.82s-20.53,45.82-45.82,45.82-45.83-20.51-45.83-45.82,20.53-45.82,45.83-45.82Z"/><path class="cls-8" d="m490.72,745.23c0,25.31-20.53,45.82-45.82,45.82s-45.83-20.51-45.83-45.82,20.53-45.82,45.83-45.82,45.82,20.51,45.82,45.82Z"/><path class="cls-32" d="m624.86,704.5v85.98c0,3.07-2.48,5.56-5.56,5.56h-85.98c-3.06,0-5.54-2.48-5.54-5.56v-85.98c0-3.06,2.48-5.54,5.54-5.54h85.98c3.07,0,5.56,2.48,5.56,5.54Zm-10.1,75.9v-65.8c0-3.07-2.48-5.56-5.54-5.56h-65.8c-3.07,0-5.56,2.48-5.56,5.56v65.8c0,3.06,2.48,5.54,5.56,5.54h65.8c3.06,0,5.54-2.48,5.54-5.54Z"/><path class="cls-47" d="m614.76,714.6v65.8c0,3.06-2.48,5.54-5.54,5.54h-65.8c-3.07,0-5.56-2.48-5.56-5.54v-65.8c0-3.07,2.48-5.56,5.56-5.56h65.8c3.06,0,5.54,2.48,5.54,5.56Z"/><path class="cls-2" d="m619.3,796.03h-85.98c-3.06,0-5.54-2.48-5.54-5.56v-85.98c0-3.06,2.48-5.54,5.54-5.54h85.98c3.07,0,5.56,2.48,5.56,5.54v85.98c0,3.07-2.48,5.56-5.56,5.56Z"/><path class="cls-8" d="m609.22,785.94h-65.8c-3.07,0-5.56-2.48-5.56-5.54v-65.8c0-3.07,2.48-5.56,5.56-5.56h65.8c3.06,0,5.54,2.48,5.54,5.56v65.8c0,3.06-2.48,5.54-5.54,5.54Z"/><rect class="cls-21" x="992.76" y="862.46" width="247.93" height="66.46" rx="8.6" ry="8.6"/><text class="cls-20" transform="translate(1007.65 853.21)"><tspan x="0" y="0">SCORE:</tspan></text><rect class="cls-21" x="392.45" y="862.46" width="245.7" height="66.46" rx="8.56" ry="8.56"/><text class="cls-15" transform="translate(407.33 853.21)"><tspan x="0" y="0">SCORE:</tspan></text><text class="cls-17" transform="translate(415.49 753.06)"><tspan class="cls-53" x="0" y="0">ROL</tspan><tspan class="cls-73" x="46.35" y="0">L</tspan></text><text class="cls-16" transform="translate(549.53 753.06)"><tspan x="0" y="0">SKIP</tspan></text><text class="cls-17" transform="translate(1041.52 747.47)"><tspan class="cls-53" x="0" y="0">ROL</tspan><tspan class="cls-63" x="46.35" y="0">L</tspan></text><text class="cls-16" transform="translate(1175.57 747.47)"><tspan x="0" y="0">SKIP</tspan></text><path class="cls-46" d="m1242.88,142.6v437.67c0,3.66-1.48,6.98-3.89,9.39l-.53-.53-41.67-66.91V129.32h32.81c7.33,0,13.27,5.94,13.27,13.27Z"/><path class="cls-32" d="m1240.21,705.59v85.98c0,3.07-2.48,5.56-5.56,5.56h-85.97c-3.07,0-5.56-2.48-5.56-5.56v-85.98c0-3.06,2.48-5.54,5.56-5.54h85.97c3.07,0,5.56,2.48,5.56,5.54Zm-10.08,75.9v-65.8c0-3.07-2.48-5.56-5.56-5.56h-65.8c-3.06,0-5.54,2.48-5.54,5.56v65.8c0,3.06,2.48,5.54,5.54,5.54h65.8c3.07,0,5.56-2.48,5.56-5.54Z"/><path class="cls-41" d="m1238.46,589.12l.53.53c-2.4,2.4-5.72,3.89-9.39,3.89h-259.32l-21.58-71.33h248.08l41.67,66.91Z"/><path class="cls-47" d="m1230.12,715.69v65.8c0,3.06-2.48,5.54-5.56,5.54h-65.8c-3.06,0-5.54-2.48-5.54-5.54v-65.8c0-3.07,2.48-5.56,5.54-5.56h65.8c3.07,0,5.56,2.48,5.56,5.56Z"/><polygon class="cls-46" points="1196.79 129.32 1196.79 522.22 948.7 522.22 680.2 522.22 434.6 522.22 434.6 129.32 1196.79 129.32"/><path class="cls-32" d="m1061.58,689.94c31.14,0,56.39,25.24,56.39,56.39s-25.24,56.39-56.39,56.39-56.39-25.25-56.39-56.39,25.24-56.39,56.39-56.39Zm45.82,56.39c0-25.31-20.51-45.82-45.82-45.82s-45.82,20.51-45.82,45.82,20.51,45.82,45.82,45.82,45.82-20.51,45.82-45.82Z"/><circle class="cls-48" cx="1061.58" cy="746.33" r="45.82"/><polygon class="cls-32" points="948.7 522.22 970.29 593.54 663.44 593.54 680.2 522.22 948.7 522.22"/><path class="cls-32" d="m959.74,645.3v162.12c0,3.45-2.8,6.24-6.24,6.24h-273.49c-3.43,0-6.24-2.79-6.24-6.24v-162.12h14.92c-.4.81-.61,1.71-.61,2.67v145.34c0,3.45,2.79,6.24,6.24,6.24h244.88c3.45,0,6.24-2.79,6.24-6.24v-145.34c0-.96-.21-1.86-.61-2.67h14.92Z"/><path class="cls-32" d="m959.74,633.88v11.42h-14.92c-.99-2.11-3.14-3.57-5.62-3.57h-244.88c-2.48,0-4.63,1.46-5.62,3.57h-14.92v-11.42c0-3.45,2.8-6.24,6.24-6.24h273.49c3.43,0,6.24,2.79,6.24,6.24Z"/><path class="cls-30" d="m945.43,647.97v145.34c0,3.45-2.79,6.24-6.24,6.24h-244.88c-3.45,0-6.24-2.79-6.24-6.24v-145.34c0-.96.21-1.86.61-2.67h256.12c.4.81.61,1.71.61,2.67Z"/><path class="cls-30" d="m944.82,645.3h-256.12c.99-2.11,3.14-3.57,5.62-3.57h244.88c2.48,0,4.63,1.46,5.62,3.57Z"/><path class="cls-41" d="m680.2,522.22l-16.76,71.33h-261.67c-3.9,0-7.4-1.68-9.82-4.35l.49-.43,42.15-66.55h245.6Z"/><path class="cls-46" d="m434.6,129.32v392.89l-42.15,66.55-.49.43c-2.14-2.35-3.45-5.49-3.45-8.92V142.6c0-7.33,5.93-13.27,13.26-13.27h32.83Z"/><path class="cls-5" d="m1238.99,589.66c-2.4,2.4-5.72,3.89-9.39,3.89H401.77c-3.9,0-7.4-1.68-9.82-4.35-2.14-2.35-3.45-5.49-3.45-8.92V142.6c0-7.33,5.93-13.27,13.26-13.27h827.83c7.33,0,13.27,5.94,13.27,13.27v437.67c0,3.66-1.48,6.98-3.89,9.39Z"/><polyline class="cls-8" points="434.6 129.32 434.6 522.22 392.45 588.76"/><polyline class="cls-8" points="1238.46 589.12 1196.79 522.22 1196.79 129.32"/><polyline class="cls-8" points="434.6 522.22 680.2 522.22 948.7 522.22 1196.79 522.22"/><path class="cls-2" d="m959.74,645.3v162.12c0,3.45-2.8,6.24-6.24,6.24h-273.49c-3.43,0-6.24-2.79-6.24-6.24v-173.54c0-3.45,2.8-6.24,6.24-6.24h273.49c3.43,0,6.24,2.79,6.24,6.24v11.42Z"/><path class="cls-8" d="m944.82,645.3c.4.81.61,1.71.61,2.67v145.34c0,3.45-2.79,6.24-6.24,6.24h-244.88c-3.45,0-6.24-2.79-6.24-6.24v-145.34c0-.96.21-1.86.61-2.67.99-2.11,3.14-3.57,5.62-3.57h244.88c2.48,0,4.63,1.46,5.62,3.57Z"/><circle class="cls-2" cx="1061.58" cy="746.33" r="56.39"/><circle class="cls-8" cx="1061.58" cy="746.33" r="45.82"/><path class="cls-6" d="m1234.65,797.13h-85.97c-3.07,0-5.56-2.48-5.56-5.56v-85.98c0-3.06,2.48-5.54,5.56-5.54h85.97c3.07,0,5.56,2.48,5.56,5.54v85.98c0,3.07-2.48,5.56-5.56,5.56Z"/><path class="cls-8" d="m1224.57,787.03h-65.8c-3.06,0-5.54-2.48-5.54-5.54v-65.8c0-3.07,2.48-5.56,5.54-5.56h65.8c3.07,0,5.56,2.48,5.56,5.56v65.8c0,3.06-2.48,5.54-5.56,5.54Z"/><line class="cls-8" x1="663.44" y1="593.54" x2="680.2" y2="522.22"/><line class="cls-8" x1="970.29" y1="593.54" x2="948.7" y2="522.22"/><path d="m403.22,657.8v-22.44h9.23c1.41,0,2.65.28,3.73.85,1.08.57,1.92,1.36,2.53,2.39s.91,2.24.91,3.65v.45c0,1.39-.32,2.6-.95,3.64-.63,1.04-1.49,1.84-2.56,2.4-1.08.57-2.3.85-3.67.85h-5v8.2h-4.23Zm4.23-12.05h4.58c1,0,1.82-.28,2.44-.83.62-.55.93-1.31.93-2.27v-.32c0-.96-.31-1.72-.93-2.28s-1.43-.83-2.44-.83h-4.58v6.54Z"/><path d="m423.41,657.8v-22.44h4.23v18.59h10.26v3.85h-14.49Z"/><path d="m440.08,657.8l5.9-22.44h7.37l5.9,22.44h-4.36l-1.22-4.94h-8.01l-1.22,4.94h-4.36Zm6.57-8.85h6.03l-2.72-10.93h-.58l-2.72,10.93Z"/><path d="m466.23,657.8v-7.72l-7.63-14.71h4.71l4.74,9.62h.58l4.74-9.62h4.71l-7.63,14.71v7.72h-4.23Z"/><path d="m481.3,657.8v-22.44h14.42v3.85h-10.19v5.35h9.3v3.85h-9.3v5.55h10.38v3.85h-14.62Z"/><path d="m499.89,657.8v-22.44h9.74c1.41,0,2.64.25,3.69.74,1.05.49,1.86,1.19,2.44,2.08.58.9.87,1.96.87,3.17v.38c0,1.35-.32,2.44-.96,3.27s-1.43,1.44-2.37,1.83v.58c.85.04,1.52.34,1.99.88.47.55.7,1.27.7,2.16v7.34h-4.23v-6.73c0-.51-.13-.93-.4-1.25-.27-.32-.71-.48-1.33-.48h-5.9v8.46h-4.23Zm4.23-12.31h5.06c1,0,1.79-.27,2.36-.82.57-.55.85-1.27.85-2.16v-.32c0-.9-.28-1.62-.83-2.16-.56-.55-1.35-.82-2.37-.82h-5.06v6.28Z"/><path d="m536.11,657.8v-19.42h-.58l-3.01,7.12h-4.29l4.58-10.13h7.4v22.44h-4.1Z"/><text class="cls-18" transform="translate(1088.53 657.79)"><tspan class="cls-80" x="0" y="0">PL</tspan><tspan class="cls-14" x="38.4" y="0">A</tspan><tspan class="cls-80" x="57.24" y="0">YER 2</tspan></text><line class="cls-8" x1="444.89" y1="699.56" x2="444.89" y2="688.99"/><line class="cls-8" x1="444.89" y1="801.46" x2="444.89" y2="790.9"/><line class="cls-8" x1="490.71" y1="747.49" x2="501.28" y2="747.49"/><line class="cls-8" x1="388.5" y1="747.49" x2="399.07" y2="747.49"/><line class="cls-8" x1="529.78" y1="700.23" x2="540.37" y2="711.18"/><line class="cls-8" x1="540.37" y1="783.46" x2="529.78" y2="794.41"/><line class="cls-8" x1="623.33" y1="700.5" x2="612.74" y2="711.44"/><line class="cls-8" x1="613.01" y1="782.58" x2="623.59" y2="793.53"/><line class="cls-8" x1="675.55" y1="629.31" x2="690.19" y2="642.94"/><line class="cls-8" x1="944.06" y1="797.96" x2="958.69" y2="811.6"/><line class="cls-8" x1="690.19" y1="797.96" x2="675.55" y2="811.6"/><line class="cls-8" x1="957.69" y1="629.95" x2="943.06" y2="643.59"/><line class="cls-8" x1="1061.58" y1="700.65" x2="1061.58" y2="690.09"/><line class="cls-8" x1="1061.58" y1="802.56" x2="1061.58" y2="792"/><line class="cls-8" x1="1107.4" y1="748.59" x2="1117.96" y2="748.59"/><line class="cls-8" x1="1005.19" y1="748.59" x2="1015.76" y2="748.59"/><line class="cls-8" x1="1144.27" y1="701.6" x2="1154.46" y2="712.14"/><line class="cls-8" x1="1155.23" y1="784.86" x2="1144.65" y2="795.81"/><line class="cls-8" x1="1238.94" y1="701.05" x2="1228.36" y2="712"/><line class="cls-8" x1="1229.52" y1="784.86" x2="1239.36" y2="795.04"/><text class="cls-17" transform="translate(1032.17 754.06)"><tspan class="cls-53" x="0" y="0">ROL</tspan><tspan class="cls-63" x="46.35" y="0">L</tspan></text><text class="cls-16" transform="translate(1166.22 754.06)"><tspan x="0" y="0">SKIP</tspan></text><path class="cls-32" d="m935.98,858.12v61.57c0,4.26-3.46,7.72-7.73,7.72h-221.65c-4.27,0-7.73-3.46-7.73-7.72v-61.57c0-4.27,3.46-7.72,7.73-7.72h221.65c4.27,0,7.73,3.45,7.73,7.72Zm-13.28,50.77v-38.31c0-4.25-3.43-7.69-7.67-7.69h-195.88c-4.27,0-7.7,3.44-7.7,7.69v38.31c0,4.25,3.43,7.69,7.7,7.69h195.88c4.24,0,7.67-3.44,7.67-7.69Z"/><path class="cls-47" d="m922.71,870.58v38.31c0,4.25-3.43,7.69-7.67,7.69h-195.88c-4.27,0-7.7-3.44-7.7-7.69v-38.31c0-4.25,3.43-7.69,7.7-7.69h195.88c4.24,0,7.67,3.44,7.67,7.69Z"/><path class="cls-6" d="m928.25,927.42h-221.65c-4.27,0-7.73-3.46-7.73-7.72v-61.57c0-4.27,3.46-7.72,7.73-7.72h221.65c4.27,0,7.73,3.45,7.73,7.72v61.57c0,4.26-3.46,7.72-7.73,7.72Z"/><path class="cls-8" d="m915.04,916.59h-195.88c-4.27,0-7.7-3.44-7.7-7.69v-38.31c0-4.25,3.43-7.69,7.7-7.69h195.88c4.24,0,7.67,3.44,7.67,7.69v38.31c0,4.25-3.43,7.69-7.67,7.69Z"/><line class="cls-8" x1="700.87" y1="851.95" x2="713.71" y2="865.15"/><line class="cls-8" x1="713.34" y1="913.93" x2="701.48" y2="925.48"/><line class="cls-8" x1="933.3" y1="851.95" x2="920.74" y2="865.44"/><line class="cls-8" x1="920.74" y1="913.67" x2="934.15" y2="924.68"/><line class="cls-8" x1="671.82" y1="554.95" x2="959.49" y2="554.95"/><path class="cls-51" d="m215.27,64.75l.28,898.48h-1016.15l-.27-898.48c0-14.52,11.77-26.3,26.28-26.3H188.98c14.52,0,26.28,11.78,26.28,26.3Z"/><path class="cls-5" d="m215.55,963.23h-1016.15l-.27-898.48c0-14.52,11.77-26.3,26.28-26.3H188.98c14.52,0,26.28,11.78,26.28,26.3l.28,898.48Z"/><polygon class="cls-31" points="-720.84 610.03 -761.96 811.6 170.32 817.62 133.53 610.03 -720.84 610.03"/><polygon class="cls-31" points="-756.54 831.82 -759.5 960.16 172.78 960.16 172.78 831.82 -756.54 831.82"/><rect class="cls-21" x="-116.8" y="862.46" width="247.93" height="66.46" rx="8.6" ry="8.6"/><text class="cls-15" transform="translate(-112.38 853.21)"><tspan x="0" y="0">SCORE:</tspan></text><text class="cls-16" transform="translate(55.54 747.47)"><tspan x="0" y="0">SKIP</tspan></text><path class="cls-46" d="m133.32,142.6v437.67c0,3.66-1.48,6.98-3.89,9.39l-.53-.53-33.51-66.91V129.32h24.65c7.33,0,13.27,5.94,13.27,13.27Z"/><path class="cls-32" d="m130.65,705.59v85.98c0,3.07-2.48,5.56-5.56,5.56H39.12c-3.07,0-5.56-2.48-5.56-5.56v-85.98c0-3.06,2.48-5.54,5.56-5.54h85.97c3.07,0,5.56,2.48,5.56,5.54Zm-10.08,75.9v-65.8c0-3.07-2.48-5.56-5.56-5.56H49.21c-3.06,0-5.54,2.48-5.54,5.56v65.8c0,3.06,2.48,5.54,5.54,5.54h65.8c3.07,0,5.56-2.48,5.56-5.54Z"/><path class="cls-41" d="m128.9,589.12l.53.53c-2.4,2.4-5.72,3.89-9.39,3.89H-139.27l-21.58-71.33H95.39l33.51,66.91Z"/><path class="cls-47" d="m120.56,715.69v65.8c0,3.06-2.48,5.54-5.56,5.54H49.21c-3.06,0-5.54-2.48-5.54-5.54v-65.8c0-3.07,2.48-5.56,5.54-5.56h65.8c3.07,0,5.56,2.48,5.56,5.56Z"/><polygon class="cls-46" points="95.39 129.32 95.39 522.22 -160.85 522.22 -429.36 522.22 -674.96 522.22 -674.96 129.32 95.39 129.32"/><path class="cls-32" d="m-47.98,689.94c31.14,0,56.39,25.24,56.39,56.39s-25.24,56.39-56.39,56.39-56.39-25.25-56.39-56.39,25.24-56.39,56.39-56.39Zm45.82,56.39c0-25.31-20.51-45.82-45.82-45.82s-45.82,20.51-45.82,45.82,20.51,45.82,45.82,45.82,45.82-20.51,45.82-45.82Z"/><path class="cls-5" d="m129.43,589.66c-2.4,2.4-5.72,3.89-9.39,3.89h-827.83c-3.9,0-7.4-1.68-9.82-4.35-2.14-2.35-3.45-5.49-3.45-8.92V142.6c0-7.33,5.93-13.27,13.26-13.27H120.04c7.33,0,13.27,5.94,13.27,13.27v437.67c0,3.66-1.48,6.98-3.89,9.39Z"/><polyline class="cls-8" points="128.9 589.12 95.39 522.22 95.39 129.32"/><polyline class="cls-8" points="-674.96 522.22 -429.36 522.22 -160.85 522.22 95.39 522.22"/><circle class="cls-2" cx="-47.98" cy="746.33" r="56.39"/><path class="cls-6" d="m125.09,797.13H39.12c-3.07,0-5.56-2.48-5.56-5.56v-85.98c0-3.06,2.48-5.54,5.56-5.54h85.97c3.07,0,5.56,2.48,5.56,5.54v85.98c0,3.07-2.48,5.56-5.56,5.56Z"/><path class="cls-8" d="m115.01,787.03H49.21c-3.06,0-5.54-2.48-5.54-5.54v-65.8c0-3.07,2.48-5.56,5.54-5.56h65.8c3.07,0,5.56,2.48,5.56,5.56v65.8c0,3.06-2.48,5.54-5.56,5.54Z"/><text class="cls-18" transform="translate(-18.15 657.79)"><tspan class="cls-81" x="0" y="0">PL</tspan><tspan class="cls-13" x="38.4" y="0">A</tspan><tspan class="cls-81" x="57.24" y="0">YER 2</tspan></text><line class="cls-8" x1="-2.16" y1="748.59" x2="8.41" y2="748.59"/><line class="cls-8" x1="34.71" y1="701.6" x2="44.91" y2="712.14"/><line class="cls-8" x1="45.68" y1="784.86" x2="35.09" y2="795.81"/><line class="cls-8" x1="129.38" y1="701.05" x2="118.8" y2="712"/><line class="cls-8" x1="119.96" y1="784.86" x2="129.8" y2="795.04"/><text class="cls-16" transform="translate(56.87 754.06)"><tspan x="0" y="0">SKIP</tspan></text><path class="cls-51" d="m2431.3,61.38v902.79h-1016.14V61.38c0-14.52,11.77-26.3,26.28-26.3h963.57c14.52,0,26.28,11.78,26.28,26.3Z"/><path class="cls-5" d="m2431.3,964.17h-1016.14V61.38c0-14.52,11.77-26.3,26.28-26.3h963.57c14.52,0,26.28,11.78,26.28,26.3v902.79Z"/><polygon class="cls-31" points="1497.67 610.03 1456.55 811.6 2388.83 817.62 2352.04 610.03 1497.67 610.03"/><polygon class="cls-31" points="1459.52 831.82 1456.55 960.16 2388.83 960.16 2388.83 831.82 1459.52 831.82"/><circle class="cls-32" cx="1551.39" cy="745.23" r="56.39"/><circle class="cls-2" cx="1551.39" cy="745.23" r="56.39"/><path class="cls-48" d="m1551.39,699.41c25.29,0,45.82,20.51,45.82,45.82s-20.53,45.82-45.82,45.82-45.83-20.51-45.83-45.82,20.53-45.82,45.83-45.82Z"/><path class="cls-8" d="m1597.21,745.23c0,25.31-20.53,45.82-45.82,45.82s-45.83-20.51-45.83-45.82,20.53-45.82,45.83-45.82,45.82,20.51,45.82,45.82Z"/><rect class="cls-21" x="1498.94" y="862.46" width="245.7" height="66.46" rx="8.56" ry="8.56"/><text class="cls-20" transform="translate(1503.36 853.21)"><tspan x="0" y="0">SCORE:</tspan></text><text class="cls-17" transform="translate(1520.86 753.06)"><tspan class="cls-53" x="0" y="0">ROL</tspan><tspan class="cls-63" x="46.35" y="0">L</tspan></text><polygon class="cls-46" points="2303.28 129.32 2303.28 522.22 2055.2 522.22 1786.69 522.22 1532.95 522.22 1532.95 129.32 2303.28 129.32"/><path class="cls-41" d="m1786.69,522.22l-16.76,71.33h-261.67c-3.9,0-7.4-1.68-9.82-4.35l.49-.43,34-66.55h253.75Z"/><path class="cls-46" d="m1532.95,129.32v392.89l-34,66.55-.49.43c-2.14-2.35-3.45-5.49-3.45-8.92V142.6c0-7.33,5.93-13.27,13.26-13.27h24.68Z"/><path class="cls-5" d="m2345.48,589.66c-2.4,2.4-5.72,3.89-9.39,3.89h-827.83c-3.9,0-7.4-1.68-9.82-4.35-2.14-2.35-3.45-5.49-3.45-8.92V142.6c0-7.33,5.93-13.27,13.26-13.27h827.83c7.33,0,13.27,5.94,13.27,13.27v437.67c0,3.66-1.48,6.98-3.89,9.39Z"/><polyline class="cls-8" points="1532.95 129.32 1532.95 522.22 1498.94 588.76"/><polyline class="cls-8" points="1532.95 522.22 1786.69 522.22 2055.2 522.22 2303.28 522.22"/><text class="cls-18" transform="translate(1497.13 657.79)"><tspan class="cls-80" x="0" y="0">PL</tspan><tspan class="cls-14" x="38.4" y="0">A</tspan><tspan class="cls-80" x="57.24" y="0">YER 1</tspan></text><line class="cls-8" x1="1551.38" y1="699.56" x2="1551.38" y2="688.99"/><line class="cls-8" x1="1551.38" y1="801.46" x2="1551.38" y2="790.9"/><line class="cls-8" x1="1597.21" y1="747.49" x2="1607.77" y2="747.49"/><g class="cls-22"><path class="cls-50" d="m-1.28,251.98c-1.44-.97-2.68-2.05-3.81-3.23,1.6,2.72,2.93,6.36,3.76,10.54,10.56,3.19,23.64,4.13,19.52,8.2-5.1,5.04-18.24,18.13-23.28,23.17-1.78,3.65-3.94,6.82-6.24,9.56-2.3,3.81-5.23,8.36-8.94,13.77l.05.03c3.13-4.68,9.02-9.62,15.33-15.37,17.48-15.92,24.74-24.02,28.08-27.45,3.36-3.46,4.02-4.48,6.39-6.91,3-3.07,6.54-6.6,6.01-6.56-2.28.14-12.19.04-25.53-2.47,0,0-6.21.2-11.33-3.28Z"/><path class="cls-44" d="m-1.33,259.29c1.43,7.09,1.48,15.72-.94,24.03-.76,2.64-1.72,5.07-2.82,7.34,5.04-5.04,18.18-18.13,23.28-23.17,4.12-4.07-8.96-5.02-19.52-8.2Z"/><path class="cls-8" d="m-5.09,248.75c1.14,1.18,2.38,2.26,3.81,3.23,5.12,3.48,11.33,3.28,11.33,3.28,13.35,2.51,23.26,2.61,25.53,2.47.54-.04-3,3.49-6.01,6.56-2.36,2.43-3.03,3.45-6.39,6.91-3.34,3.43-10.6,11.53-28.08,27.45-6.31,5.75-12.21,10.69-15.33,15.37-1.14,1.7-1.9,3.35-2.21,5.01-.84,4.69,1.82,7.4-3.18,13.6-.99,1.23-3.28,3.31-6.29,5.85-10.37,8.71-29.39,22.75-33.87,25.76-1.9,1.27-5.66,5.38-10.98,5.26-7.93-.18-15.75-4.45-19.41-6.55-20.72-11.85-37.06-26.47-45.84-34.37-14.96-13.45-31.78-29.19-40.08-47.69-.93-2.08-2.82-5.79-4.2-9.96-1.49-4.53-.54-9.38,2.32-13.06"/><path class="cls-8" d="m-7.11,292.67s.75-.75,2.02-2.01c5.04-5.04,18.18-18.13,23.28-23.17,4.12-4.07-8.96-5.02-19.52-8.2-4.67-1.41-8.84-3.24-10.82-5.99"/></g><g class="cls-22"><path class="cls-34" d="m20.81,307.58c.51-.67,1.43-1.93,2.78-3.41-1.03-.2-2.17-.05-2.72.05-.21.04-.42.1-.63.17-1.08.4-5.43,1.94-7,1.65,0,0-2.36-.43-2.94-1.16-1.69,2.51,2.79,11.34,8.95,4.62h0c.64-1.08,1.27-1.56,1.54-1.92Z"/><path class="cls-40" d="m60.51,303.43c-.5-.49-.98-.89-1.44-1.23-.23-.17-.47-.32-.7-.48-.08-.05-.16-.11-.23-.16-.78-.57-1.84-1.33-3.17-2.12.88-.41,1.9-.58,2.41-.63.22-.02.43-.02.65-.01,1.16.07,5.77.29,7.18-.44,0,0,2.13-1.09,2.47-1.96-.41-.33-.94-.43-1.58-.16-3.34,1.36-6.98-5.43-13.07,2.17l-.07-.06c-3.64-1.82-8.59-3.36-14.35-2.51h-.04c-6.09.91-10.54,3.99-13.51,6.83-8.14-5.71-9.67,1.93-13.28,1.6-.7-.07-1.18.18-1.47.62.58.73,2.94,1.16,2.94,1.16,1.56.28,5.91-1.25,7-1.65.21-.07.41-.13.63-.17.55-.1,1.69-.25,2.72-.05-1.35,1.48-2.27,2.75-2.78,3.41-.27.36-.9.84-1.54,1.91h0c-1.64,2.72-3.44,9.19-.3,26.88.06.34-1.37.93-.01,1.25.18.04.27.15.31.34.17.92.36,1.87.56,2.86.38,1.88-.35,3.87-.3,5.02.01.31.06.62.13.92.5-2.4,5.39-9.02,9.82-12.61,5.72-4.63,10.12-5.12,14.83-5.75,9.85-1.31,13.75,1,15.6,1.72,6.6,2.58,9.09,6.2,11.23,8.34.23-2.71-1.4-4.16-1.53-5.26-.08-.66.4-1.53.32-2.16-.11-.8-.78-1.35-.89-2.11-2.46-17.01-5.76-22.78-8.51-25.5Zm-36.2,19.56c-1.31-.37-2.02-1.94-1.58-3.52s1.86-2.57,3.17-2.2c1.31.36,2.02,1.94,1.58,3.52-.44,1.58-1.86,2.57-3.17,2.2Zm6.1-7.19c-.18-.57-.26-1.25-.03-1.96.1-.32.26-.77.71-1.09.57-.4,1.33-.42,1.91-.14.46.22.69.57.85.82.77,1.17.39,2.48.19,2.68-.13.13-.28.26-.45.39-.26.19-.53.34-.79.44-.98.4-2.08-.13-2.4-1.14Zm4.96,6.03c-.12-.6-.43-2.19.35-3.84,1.36-2.89,4.91-3.5,5.42-3.59l.26-.04c.6-.09,4.49-.55,6.62,1.98.96,1.15,1.16,2.43,1.25,3.02.11.7.27,2.52-.75,4.32-1.59,2.79-4.72,3.28-5.24,3.36-.55.08-3.61.56-5.92-1.55-1.52-1.38-1.89-3.14-1.99-3.65Zm13.57-7.92c-.25-.14-.98-1.28-.59-2.62.08-.29.2-.69.58-1.03.48-.43,1.21-.64,1.87-.42.53.18.81.56,1,.84.42.61.54,1.29.54,1.89-.01,1.06-.92,1.89-1.97,1.79-.28-.02-.57-.08-.88-.19-.19-.07-.37-.15-.54-.24Zm8.21,2.49c-.88-1.39-.66-3.1.49-3.83,1.15-.73,2.79-.19,3.67,1.19s.65,3.1-.49,3.83c-1.15.73-2.8.19-3.67-1.19Z"/><path class="cls-34" d="m19.65,346.75s0,0,0,0c26.31,4.5,51.45-7.04,51.48-8.3-2.13-2.15-4.63-5.77-11.23-8.34-1.85-.72-5.75-3.03-15.6-1.72-4.71.63-9.11,1.12-14.83,5.75-4.43,3.59-9.33,10.21-9.82,12.61Z"/><path class="cls-44" d="m19.65,346.76c.35,1.48,1.38,2.73,2.85,3.28,1.35.51,2.68.78,3.41.97,6.43,1.69,13.91.64,20.42-.42,3.83-.62,10.92-1.79,18.21-4.64,1.29-.51,3.99-1.62,5.67-3.61,1.13-1.34.85-3.14.92-3.88-.03,1.26-25.17,12.8-51.48,8.3Z"/><path class="cls-33" d="m22.73,319.47c-.44,1.58.27,3.16,1.58,3.52,1.31.36,2.73-.62,3.17-2.2.44-1.58-.26-3.16-1.58-3.52-1.31-.36-2.73.62-3.17,2.2Z"/><path d="m30.38,313.84c-.23.71-.15,1.39.03,1.96.32,1.01,1.42,1.54,2.4,1.14.26-.1.52-.25.79-.44.17-.12.32-.25.45-.39.2-.2.57-1.51-.19-2.68-.16-.25-.39-.6-.85-.82-.58-.28-1.35-.27-1.91.14-.45.33-.61.77-.71,1.09Z"/><path class="cls-33" d="m35.73,317.99c-.78,1.65-.47,3.25-.35,3.84.1.52.47,2.27,1.99,3.65,2.31,2.11,5.37,1.64,5.92,1.55.52-.08,3.65-.56,5.24-3.36,1.02-1.8.86-3.62.75-4.32-.09-.59-.28-1.87-1.25-3.02-2.13-2.53-6.02-2.07-6.62-1.98l-.26.04c-.51.09-4.06.7-5.42,3.59Zm3.28,2.33c-.14-.96.09-1.78.52-1.85s.89.66,1.03,1.62-.09,1.78-.52,1.85-.89-.66-1.03-1.62Zm4.89-.72c-.14-.96.09-1.78.52-1.85s.89.66,1.03,1.62-.09,1.78-.52,1.85-.89-.66-1.03-1.62Z"/><path d="m39.53,318.48c-.43.06-.66.89-.52,1.85s.6,1.68,1.03,1.62.66-.89.52-1.85-.6-1.68-1.03-1.62Z"/><ellipse cx="44.68" cy="319.49" rx=".78" ry="1.75" transform="translate(-46.15 9.94) rotate(-8.39)"/><path d="m48.35,311.29c-.39,1.34.34,2.49.59,2.62.16.09.35.17.54.24.31.11.6.17.88.19,1.05.1,1.96-.73,1.97-1.79,0-.59-.12-1.27-.54-1.89-.19-.27-.47-.66-1-.84-.66-.22-1.39-.01-1.87.42-.37.34-.49.75-.58,1.03Z"/><path class="cls-33" d="m57.64,312.58c-1.15.73-1.37,2.44-.49,3.83.87,1.39,2.52,1.92,3.67,1.19,1.15-.73,1.37-2.44.49-3.83s-2.52-1.92-3.67-1.19Z"/><path class="cls-34" d="m58.36,301.72c.24.16.48.31.7.48.46.34.94.74,1.44,1.23,7.79,4.57,9.51-5.14,7.17-7.04-.35.87-2.47,1.96-2.47,1.96-1.41.73-6.02.51-7.18.44-.22-.01-.43,0-.65.01-.51.06-1.53.22-2.41.63,1.32.79,2.39,1.54,3.17,2.12.08.06.15.11.23.16Z"/><path class="cls-8" d="m25.04,302.69s.02-.01.02-.02c2.98-2.84,7.43-5.92,13.51-6.83h.04c5.76-.86,10.71.68,14.35,2.5"/><path class="cls-8" d="m19.27,309.49c.64-1.07,1.27-1.55,1.54-1.91.51-.67,1.43-1.93,2.78-3.41,0,0,.01-.01.02-.02"/><path class="cls-8" d="m54.92,299.41s.03.02.04.03c1.32.79,2.39,1.54,3.17,2.12.08.06.15.11.23.16.24.16.48.31.7.48.46.34.94.74,1.44,1.23,2.75,2.72,6.05,8.49,8.51,25.5.11.76.78,1.31.89,2.11.08.63-.4,1.5-.32,2.16.14,1.1,1.77,2.54,1.53,5.26-.07.75.21,2.55-.92,3.88-1.67,1.99-4.38,3.11-5.67,3.61-7.29,2.85-14.38,4.01-18.21,4.64-6.51,1.05-13.99,2.11-20.42.42-.73-.19-2.06-.47-3.41-.97-1.47-.55-2.5-1.8-2.85-3.28,0,0,0,0,0,0-.07-.3-.12-.6-.13-.92-.05-1.15.68-3.14.3-5.02-.2-.98-.39-1.94-.56-2.86-.04-.19-.12-.29-.31-.34-1.36-.32.07-.91.01-1.25-3.14-17.69-1.34-24.15.3-26.87"/><path class="cls-8" d="m33.86,313.43c.77,1.17.39,2.48.19,2.68-.13.13-.28.26-.45.39-.26.19-.53.34-.79.44-.98.4-2.08-.13-2.4-1.14-.18-.57-.26-1.25-.03-1.96.1-.32.26-.77.71-1.09.57-.4,1.33-.42,1.91-.14.46.22.69.57.85.82Z"/><path class="cls-8" d="m48.35,311.29c-.39,1.34.34,2.49.59,2.62.16.09.35.17.54.24.31.11.6.17.88.19,1.05.1,1.96-.73,1.97-1.79,0-.59-.12-1.27-.54-1.89-.19-.27-.47-.66-1-.84-.66-.22-1.39-.01-1.87.42-.37.34-.49.75-.58,1.03Z"/><ellipse class="cls-8" cx="44.68" cy="319.49" rx=".78" ry="1.75" transform="translate(-46.15 9.94) rotate(-8.39)"/><path class="cls-8" d="m39.01,320.32c.14.96.6,1.68,1.03,1.62s.66-.89.52-1.85-.6-1.68-1.03-1.62-.66.89-.52,1.85Z"/><path class="cls-8" d="m71.13,338.46c-.03,1.26-25.17,12.8-51.48,8.3h0"/><path class="cls-9" d="m71.13,338.46c-2.13-2.15-4.63-5.77-11.23-8.34-1.85-.72-5.75-3.03-15.6-1.72-4.71.63-9.11,1.12-14.83,5.75-4.43,3.59-9.33,10.21-9.82,12.61t0,0"/><path class="cls-8" d="m35.38,321.83c.1.52.47,2.27,1.99,3.65,2.31,2.11,5.37,1.64,5.92,1.55.52-.08,3.65-.56,5.24-3.36,1.02-1.8.86-3.62.75-4.32-.09-.59-.28-1.87-1.25-3.02-2.13-2.53-6.02-2.07-6.62-1.98l-.26.04c-.51.09-4.06.7-5.42,3.59-.78,1.65-.47,3.25-.35,3.84Z"/><path class="cls-8" d="m26.48,303.75c-.49-.4-.96-.76-1.42-1.08-8.14-5.71-9.67,1.93-13.28,1.6-.7-.07-1.18.18-1.47.62-1.69,2.51,2.79,11.34,8.95,4.62h0"/><path class="cls-8" d="m25.18,305.04c-.37-.49-.95-.74-1.58-.87-1.03-.2-2.17-.05-2.72.05-.21.04-.42.1-.63.17-1.08.4-5.43,1.94-7,1.65,0,0-2.36-.43-2.94-1.16"/><path class="cls-8" d="m20.81,307.58s-4.8,1.41-6.55.39"/><path class="cls-8" d="m51.88,299.97c.39-.58.78-1.11,1.15-1.57,6.08-7.6,9.73-.82,13.07-2.17.64-.26,1.18-.17,1.58.16,2.34,1.9.62,11.61-7.17,7.04-.02-.01-.05-.03-.07-.04"/><path class="cls-8" d="m53.5,300.83c.24-.64.81-1.08,1.47-1.39.88-.41,1.9-.58,2.41-.63.22-.02.43-.02.65-.01,1.16.07,5.77.29,7.18-.44,0,0,2.13-1.09,2.47-1.96"/><path class="cls-8" d="m58.36,301.72s5.05.25,6.43-1.23"/><path class="cls-8" d="m38.17,293.01c-.45-1.01-.27-2.75-.19-4.77"/><path class="cls-8" d="m38.17,293.01c.02-.25.06-.49.14-.71.08-.28.27-.9.76-1.05.47-.15,1.02.21,1.29.59.43.6.39,1.62-.16,1.98-.51.34-1.37.05-1.76-.39-.11-.12-.19-.26-.26-.42Z"/><path class="cls-8" d="m39.15,297.35s-.3-.63-.57-1.51c-.26-.83-.49-1.88-.4-2.83"/><path class="cls-9" d="m57.15,316.41c.87,1.39,2.52,1.92,3.67,1.19,1.15-.73,1.37-2.44.49-3.83s-2.52-1.92-3.67-1.19c-1.15.73-1.37,2.44-.49,3.83Z"/><path class="cls-9" d="m27.48,320.79c-.44,1.58-1.86,2.57-3.17,2.2-1.31-.37-2.02-1.94-1.58-3.52s1.86-2.57,3.17-2.2c1.31.36,2.02,1.94,1.58,3.52Z"/></g><path class="cls-4" d="m69.37,340.98s-17.71,12.5-47.53,7.51"/><path class="cls-3" d="m66.96,337.58s-20.65,10.26-43.41,6.4"/><path class="cls-10" d="m54.72,307.4s-.62-3.81-4.93-1.34"/><path class="cls-10" d="m27.05,311.49s-.5-3.83,4.33-2.71"/><rect class="cls-42" x="1532.83" y="133.04" width="353.66" height="391.42"/></g><path class="cls-82" d="m741.64,543.08c-7.77.51-14.89,4.52-18.4,10.88-3.32,6-3.32,13.72,9.95,20.59,26.53,13.73,161.41,14.8,172.33-3.04s-12.23-23.33-17.46-24.16c-5.09-.8-53.28-10.37-146.42-4.28Z"/><g class="cls-22"><path class="cls-36" d="m1014.36,239.76c-1.11-.47-2.58-.89-4.52-1.05-7.43-4.31-8.65-19.35-10.97-23.28-.69-1.18-1.48-1.36-2.56,0-4.57,5.8-16.07,20.6-16.8,21.56-1.4.63-3.09,1.53-5.15,2.78,1.08.36.78,2.4,1.6,4.46,1.51,3.84,6.55,4.02,7.89,6.24,5.49,9.01,7.84,18.35,5.06,25.05,8.9,6.44,12.59,14.44,12.59,14.44l-2.04.18s-4.38-6.17-12.94-10.82c-.78.89-1.72,1.68-2.79,2.38-9.26,6-28.51,1.91-28.51,1.91-.45-1.03-7.94-18.79,1.79-31.16.12-.15.26-.31.38-.46-.7.56-1.42,1.15-2.16,1.74-.13.11-.27.22-.41.33-3.69,3-7.03,4.7-9.87,4.47-2.65-.21-5.93-.14-8.62,2.12-.64.53-.72,2.34-1.35,2.98-1.91,1.92-3.78,4.13-5.58,6.56l.12.08s6.82-5.57,11.94,5.54c3.95,8.59,5.06,16.65,1.7,20.96,2.92.15,5.82.51,8.64,1.11,1.72.37,3.37.78,4.98,1.24,1.18-.74,6.46,2.01,8.63,3.03.04.02.09.04.13.07,3.07,1.31,5.91,2.76,8.54,4.33.02,0,.04.02.07.03,2.39,1.22,4.24,2.11,4.58,2.04.02,0,.04,0,.11,0,1.31.2,3.85,2.2,5.41,3.5.95.78,2.39,1.97,4.12,3.46,3.2,2.78,6.42,5.77,7.22,6.62.72.77,1.36,1.82,1.9,3.07,8.95-.11,16.92,3,21.82,10.33.31.46.59.94.86,1.42,4.28-3.61,12.73-4.46,17,.47,3.7,4.26,2.19,10.4,2.02,11.07,0,0,6.75-8.62,13.26,2.26.63,1.05,1.21,2.1,1.73,3.16-.11-7.11-1.62-23.81-14.11-37.87-5.93-6.68-12.44-10.64-17.19-12.93,1.28-2.27,3.3-5.49,6.26-8.97-8.48.43-14.03-6.75-14.59-7.5-1.57-3.2-3.7-8.81-3.25-15.8,1.1-16.75,16.11-25.94,17.79-26.92,1.18.52,2.7,1.26,4.42,2.25l.27-.47c-7.57-4.26-14.52-7.71-18.47-12.31.13,2.4-.16,4.53-.94,6.28Zm-17.19,28.48c.95-1.42,2.18-3.11,4.15-3.92,2.61-1.08,2.99-1.11,4.56-.95,2.57.26-4.14,1.45-2.18,5.44.98,1.99,3.75.8,3.6,3.83-.19,3.67-3.47,4.37-4.29,4.29-.53-.06-1.09-.16-1.67-.31-.9-.24-1.7-.58-2.4-.97-2.66-1.47-3.45-4.89-1.77-7.42Zm11.8,26.18c.41-.69,4.73.26,7.75,3.05,3.6,3.31,4.26,8.23,3.85,8.43-.24.11-.69-1.34-2.34-2.04-1.31-.56-2.95-.39-3.34-.42-1.97-.12-2.44.08-3.16-.58-1.42-1.31-.28-3.75-1.51-6.4-.64-1.4-1.43-1.73-1.25-2.04Z"/><path class="cls-44" d="m929.52,270.28l-.12-.08c-2.25,3.03-4.38,6.39-6.35,9.9-.34.61-2.03-.54-3.03,1.44-1.19,2.39.91,3,.55,3.69-1.84,3.44-3.39,6.59-4.65,9.11h0s4.09,2.05,9.12,3.68c5.48-.99,11.8-1.58,18.1-1.23,3.36-4.31,2.25-12.37-1.7-20.96-5.12-11.11-11.94-5.54-11.94-5.54Z"/><path class="cls-38" d="m1001.95,200.39c-13.54,12.56-29.49,36.47-42.42,49.37,1.93-1.76,4-3.04,5.95-3.97,1.7-1.25,3.26-2.35,4.69-3.32h.01c2.34-1.9,3.28-3,4.17-2.71,2.06-1.25,3.76-2.15,5.15-2.78.73-.96,12.23-15.76,16.8-21.56,1.08-1.36,1.87-1.18,2.56,0l.83-.47s2.94-2.4,6.41-.89c-.42-1.61-.93-3.59-1.75-6.39-.02-.06-2.26-7.45-2.42-7.29Z"/><path class="cls-45" d="m915.93,294.34h0c-1.64,3.27-2.77,5.5-3.32,5.99-.67.59-1.27,1.23-1.81,1.91,2.75-1.41,7.94-3.09,14.26-4.23-5.04-1.63-9.12-3.67-9.12-3.67Z"/><path class="cls-38" d="m910.79,302.25h0c37.27,66.82,108.24,102.21,111.11,100,.82-7.44,3.61-17.46.42-32.51-4.45.75-31.77,4.58-42.08-11.89-8.98.99-18.79-1.09-18.79-1.09-.45-1.03-22.75-26.76-13.01-39.12,2.54-3.21,5.51-17.14,8.35-18.5-1.61-.46-3.26-.88-4.98-1.24-2.82-.6-5.73-.96-8.64-1.11-.98,1.27-2.34,2.21-4.13,2.75-3.8,1.15-9.31,0-13.97-1.52-6.32,1.14-11.52,2.83-14.26,4.23Z"/><path class="cls-36" d="m958.12,251.15c-.99.93-1.96,1.8-2.9,2.58.74-.59,1.46-1.18,2.16-1.74.24-.29.49-.58.74-.84Z"/><path class="cls-45" d="m958.21,251.05l-.1.1c-.25.27-.5.55-.74.84,3-2.39,5.69-4.45,8.1-6.21-1.96.93-4.02,2.22-5.95,3.97-.44.44-.88.87-1.31,1.29Z"/><path class="cls-45" d="m959.53,249.76c-.45.4-.89.83-1.31,1.29.44-.41.88-.84,1.31-1.29Z"/><path class="cls-45" d="m986.51,279.32c1.03-1.13,1.83-2.41,2.39-3.8,2.78-6.7.43-16.04-5.06-25.05-1.34-2.21-6.38-2.4-7.89-6.24-.82-2.06-.51-4.1-1.6-4.46-1.26.76-2.64,1.65-4.17,2.69h-.01c-1.86,1.5-3.52,2.6-4.69,3.33-2.41,1.76-5.1,3.82-8.1,6.21-.12.15-.26.31-.38.46-9.74,12.37-2.25,30.13-1.79,31.16,0,0,19.26,4.09,28.51-1.91,1.08-.7,2.01-1.49,2.79-2.38Z"/><path class="cls-36" d="m970.17,242.47c-1.43.97-2.99,2.07-4.69,3.32,1.18-.73,2.83-1.83,4.69-3.32Z"/><path class="cls-45" d="m974.35,239.77c-.89-.3-1.83.81-4.17,2.69,1.53-1.04,2.91-1.93,4.17-2.69Z"/><path class="cls-45" d="m999.7,214.96l-.83.47c2.32,3.94,3.54,18.97,10.97,23.28,1.93.16,3.41.58,4.52,1.05.78-1.75,1.07-3.88.94-6.28-.78-.9-1.43-1.84-1.96-2.84-5.37-10.18-5.97-11.89-7.23-16.57-3.47-1.51-6.41.89-6.41.89Z"/><path class="cls-38" d="m910.78,302.25c-2.69,3.46-3.58,8.02-2.18,12.28,1.29,3.92,3.08,7.4,3.95,9.36,7.8,17.4,23.61,32.19,37.67,44.83,8.25,7.42,23.62,21.17,43.1,32.31,3.44,1.97,10.79,5.99,18.25,6.16,5.01.11,8.54-3.75,10.32-4.95-2.87,2.21-73.83-33.18-111.11-99.99Z"/><path class="cls-36" d="m943.15,296.78c-6.3-.35-12.62.24-18.1,1.23,4.67,1.52,10.17,2.68,13.97,1.52,1.79-.54,3.15-1.49,4.13-2.75Z"/><path class="cls-45" d="m956.77,299.13c-2.84,1.36-5.81,15.29-8.35,18.5-9.74,12.37,12.56,38.09,13.01,39.12,0,0,9.81,2.08,18.79,1.09-1.9-3.02-3.22-6.73-3.73-11.28,0,0-12.69-10.84,2.78-17.25,5.94-2.46,12.02-3.88,17.72-4.02-.84-.83-1.71-1.68-2.61-2.54-5.64-5.35-12-11.25-20.25-16.15-.03-.01-.04-.03-.07-.03-2.64-1.35-5.93-3.1-8.54-4.33-2.72-1.17-5.64-2.21-8.76-3.1Z"/><path class="cls-36" d="m965.4,302.17c-2.17-1.02-7.45-3.77-8.63-3.03,3.12.89,6.04,1.93,8.76,3.1-.04-.03-.1-.05-.13-.07Z"/><path class="cls-36" d="m988.9,275.52c-.57,1.39-1.36,2.67-2.39,3.8,8.56,4.65,12.94,10.82,12.94,10.82l2.04-.18s-3.69-8.01-12.59-14.44Z"/><path d="m1001.31,264.33c-1.97.81-3.2,2.5-4.15,3.92-1.68,2.53-.89,5.95,1.77,7.42.7.38,1.49.73,2.4.97.58.15,1.14.25,1.67.31.82.08,4.1-.62,4.29-4.29.15-3.03-2.62-1.84-3.6-3.83-1.95-3.99,4.75-5.18,2.18-5.44-1.57-.16-1.95-.13-4.56.95Z"/><path class="cls-44" d="m1029.08,244.02c-1.67.98-16.68,10.17-17.79,26.92-.46,6.98,1.68,12.6,3.25,15.8.56.75,6.11,7.93,14.59,7.5.41-.49.84-.98,1.29-1.47,3.41-3.73,5.48-4.99,7.5-6.89,7.64-7.14,7.6-16.54,9.2-21.64-.71-3.99-2.13-7.68-3.93-10.64-1.08-1.76-4.46-4.06-7.9-6.24-.61-.39-1.21-.75-1.79-1.08-1.72-.99-3.24-1.74-4.42-2.25Z"/><path class="cls-36" d="m965.54,302.23c2.61,1.23,5.91,2.97,8.54,4.33-2.64-1.56-5.48-3.02-8.54-4.33Z"/><path class="cls-45" d="m1033.77,245.8l-.27.47c.58.34,1.18.7,1.79,1.08,3.44,2.18,6.82,4.48,7.9,6.24,1.81,2.96,3.23,6.65,3.93,10.64.58-1.87,1.38-3.16,2.86-3.55,2.09-.54,4.62.92,7.07,3.13-1.64-1.77-3.45-3.6-5.44-5.5-5.55-5.31-11.9-9.16-17.85-12.51Z"/><path class="cls-36" d="m978.72,308.63c-.34.08-2.19-.82-4.58-2.04,8.25,4.9,14.61,10.8,20.25,16.15.9.86,1.77,1.71,2.61,2.54.16,0,.32,0,.47,0-.53-1.26-1.17-2.31-1.9-3.07-.8-.85-4.02-3.84-7.22-6.62-1.73-1.49-3.17-2.68-4.12-3.46-1.55-1.3-4.09-3.3-5.41-3.5-.07,0-.09-.01-.11,0Z"/><path class="cls-34" d="m1016.71,297.47c-3.02-2.79-7.34-3.74-7.75-3.05-.18.32.61.65,1.25,2.04,1.23,2.65.1,5.09,1.51,6.4.72.66,1.19.46,3.16.58.39.03,2.02-.14,3.34.42,1.64.7,2.1,2.15,2.34,2.04.41-.2-.25-5.12-3.85-8.43Z"/><path class="cls-45" d="m979.28,329.31c-15.47,6.41-2.78,17.25-2.78,17.25.5,4.55,1.83,8.26,3.73,11.28,3.61-.39,7.08-1.28,9.73-3,9.69-6.28,10.72-20.87,7.83-28.77-.26-.26-.52-.52-.78-.79-5.7.14-11.79,1.57-17.72,4.02Z"/><path class="cls-50" d="m1077.03,334.96s.71-.71,1.9-1.89c1.04-2.13,1.94-4.41,2.65-6.9,2.27-7.82,2.23-15.93.88-22.59-.78-3.93-2.03-7.35-3.54-9.91h0c-2.49-2.62-4.43-5.8-6.79-9.62-2.96-4.35-4.31-6.7-5.5-8.5,0,0-.02-.03-.02-.04-2.47-3.51-5.52-7.39-9.54-11.71-2.45-2.21-4.98-3.67-7.07-3.13-1.49.39-2.29,1.68-2.86,3.55,1.19,6.72.35,14.29-4.06,20.6-1.94,2.78-6.31,9.02-13.93,9.4-2.96,3.47-4.99,6.7-6.26,8.97,4.75,2.3,11.26,6.26,17.19,12.93,12.49,14.06,14.01,30.76,14.11,37.87.27.52.52,1.03.75,1.56,2.83-1.22,11.19-5.28,18.13-13.5,1.64-2.75,2.94-5.09,3.97-7.1Zm-37.21-23.99c-.15-.82.29-4.14,3.94-4.61,3-.39,2.04,2.47,4.09,3.28,4.13,1.64,4.8-5.13,5.25-2.6.29,1.56.28,1.94-.59,4.62-.65,2.03-2.24,3.39-3.58,4.44-2.39,1.88-5.86,1.35-7.53-1.18-.44-.67-.84-1.43-1.15-2.32-.2-.57-.33-1.11-.43-1.64Z"/><path class="cls-50" d="m1043.07,284.83c4.42-6.31,5.25-13.87,4.06-20.6-1.6,5.1-1.56,14.51-9.2,21.64-2.03,1.89-4.1,3.16-7.5,6.89-.46.49-.89.99-1.29,1.47,7.62-.39,11.99-6.63,13.93-9.4Z"/><path class="cls-36" d="m997.48,325.29c-.15,0-.31,0-.47,0,.26.27.53.53.78.79-.1-.27-.2-.53-.31-.79Z"/><path class="cls-36" d="m997.48,325.29c.11.26.22.52.31.79,17.65,17.92,20.91,30.99,22.53,36.09.84,2.65,1.5,5.18,1.99,7.57.4-.07.62-.11.62-.11,0,0,.02-.13.08-.37-2.3-7.19-3.75-13.4-4.72-18.32-1.23-6.22-1.55-9.78.58-12.54.36-.48.81-.93,1.3-1.34-.27-.49-.56-.96-.86-1.42-4.89-7.33-12.86-10.45-21.82-10.33Z"/><path class="cls-50" d="m1066.6,275.52c-.84-1.27-5.07-7.71-9.54-11.71,4.02,4.32,7.07,8.2,9.54,11.71Z"/><path class="cls-50" d="m980.23,357.84c10.31,16.47,37.62,12.64,42.08,11.89-.5-2.39-1.15-4.91-1.99-7.57-1.62-5.11-4.87-18.17-22.53-36.09,2.89,7.9,1.86,22.49-7.83,28.77-2.65,1.71-6.12,2.61-9.73,3Z"/><path class="cls-36" d="m1066.63,275.56c1.19,1.81,2.54,4.15,5.5,8.5-1.55-2.55-3.29-5.36-5.5-8.5Z"/><path d="m1043.76,306.36c-3.66.47-4.09,3.79-3.94,4.61.1.52.24,1.07.43,1.64.31.88.71,1.65,1.15,2.32,1.67,2.53,5.14,3.06,7.53,1.18,1.34-1.06,2.93-2.42,3.58-4.44.87-2.68.88-3.06.59-4.62-.45-2.53-1.13,4.24-5.25,2.6-2.05-.81-1.09-3.68-4.09-3.28Z"/><path class="cls-44" d="m1020.16,337.04c-.49.41-.93.86-1.3,1.34-2.12,2.76-1.8,6.32-.58,12.54.97,4.92,2.42,11.13,4.72,18.32.5-2.81,3.48-20.88-2.84-32.21Z"/><path class="cls-50" d="m1072.27,284.26c-.05-.07-.09-.14-.15-.2,2.36,3.82,4.3,7,6.79,9.61-.31-.54-.64-1.04-.97-1.49-.53-.73-2.72-3.58-5.67-7.91Z"/><path class="cls-44" d="m1037.16,337.51c-4.28-4.93-12.72-4.08-17-.47,6.32,11.33,3.35,29.39,2.84,32.21,1.11,3.52,2.42,7.27,3.98,11.22,0,0,16.94,3.49,25.13-1.9.46-.3.88-.6,1.28-.95,5.74-4.84,5.49-13.33,1.54-22.07-.33.14-.58.25-.75.31,0-.51.01-1.14,0-1.87-.53-1.06-1.11-2.11-1.73-3.16-6.51-10.88-13.26-2.26-13.26-2.26.18-.67,1.69-6.82-2.02-11.07Z"/><path class="cls-50" d="m1082.51,296.71c-1.35-.91-2.52-1.92-3.58-3.04,1.51,2.56,2.75,5.98,3.54,9.91,9.93,3,22.22,3.89,18.35,7.71-4.8,4.74-17.15,17.05-21.89,21.78-1.67,3.43-3.7,6.41-5.86,8.99-2.16,3.59-4.92,7.86-8.41,12.94l.04.03c2.94-4.4,8.48-9.04,14.41-14.45,16.44-14.97,23.25-22.58,26.4-25.8,3.16-3.25,3.78-4.21,6-6.49,2.82-2.89,6.15-6.2,5.65-6.17-2.14.13-11.46.04-24-2.32,0,0-5.84.19-10.65-3.08Z"/><path class="cls-50" d="m1023,369.25c-.06.24-.08.37-.08.37,0,0-.22.04-.62.11,3.19,15.05.4,25.07-.42,32.51,4.21-2.83,22.09-16.03,31.84-24.22l-.33-.39c-.4.34-.82.65-1.28.95-8.19,5.39-25.13,1.9-25.13,1.9-1.56-3.95-2.87-7.7-3.98-11.22Z"/><path class="cls-44" d="m1082.46,303.59c1.34,6.66,1.39,14.77-.88,22.59-.71,2.48-1.62,4.77-2.65,6.9,4.74-4.73,17.09-17.04,21.89-21.78,3.87-3.83-8.42-4.72-18.35-7.71Z"/><path class="cls-44" d="m1054.18,354c.02.73,0,1.36,0,1.87.17-.06.42-.17.75-.31-.24-.52-.48-1.04-.75-1.56Z"/><path class="cls-50" d="m1078.92,333.08c-1.19,1.18-1.9,1.89-1.9,1.89-1.03,2.01-2.33,4.35-3.97,7.1,2.16-2.58,4.19-5.56,5.86-8.99Z"/><path class="cls-45" d="m1064.65,355.01c3.49-5.08,6.25-9.36,8.41-12.94-6.94,8.21-15.31,12.27-18.13,13.5,3.95,8.74,4.2,17.23-1.54,22.07l.33.39c2.83-2.39,4.98-4.34,5.91-5.49,4.69-5.83,2.2-8.37,2.99-12.79.29-1.56,1-3.11,2.07-4.71l-.04-.03Z"/><path class="cls-8" d="m1078.92,293.68c1.07,1.11,2.23,2.12,3.58,3.04,4.81,3.27,10.65,3.08,10.65,3.08,12.55,2.36,21.86,2.46,24,2.32.5-.03-2.82,3.28-5.65,6.17-2.22,2.28-2.85,3.24-6,6.49-3.14,3.22-9.96,10.84-26.4,25.8-5.93,5.41-11.47,10.05-14.41,14.45-1.07,1.59-1.79,3.15-2.07,4.71-.79,4.41,1.71,6.96-2.99,12.79-.93,1.16-3.08,3.11-5.91,5.49-9.75,8.19-27.63,21.39-31.84,24.22-1.79,1.2-5.32,5.06-10.32,4.95-7.46-.17-14.8-4.18-18.25-6.16-19.47-11.14-34.84-24.89-43.1-32.31-14.07-12.64-29.87-27.44-37.67-44.83-.87-1.96-2.65-5.44-3.95-9.36-1.4-4.25-.5-8.82,2.18-12.28"/><path class="cls-8" d="m1066.63,275.56c2.21,3.14,3.95,5.96,5.5,8.5,2.36,3.82,4.3,7,6.79,9.61"/><path class="cls-8" d="m958.21,251.05c.44-.41.88-.84,1.31-1.29,12.93-12.9,28.88-36.81,42.42-49.37.16-.16,2.4,7.23,2.42,7.29.82,2.8,1.33,4.77,1.75,6.39,1.26,4.68,1.86,6.39,7.23,16.57.53,1,1.18,1.94,1.96,2.84,3.96,4.6,10.91,8.05,18.47,12.31,5.95,3.35,12.3,7.2,17.85,12.51,1.99,1.9,3.8,3.73,5.44,5.5,4.02,4.32,7.07,8.2,9.54,11.71"/><path class="cls-8" d="m955.22,253.74c.94-.78,1.91-1.65,2.9-2.58"/><path class="cls-8" d="m910.79,302.25c.54-.69,1.14-1.32,1.81-1.91.55-.49,1.68-2.72,3.32-6,1.26-2.52,2.82-5.66,4.65-9.11.36-.69-1.74-1.3-.55-3.69,1-1.98,2.68-.83,3.03-1.44,1.97-3.51,4.1-6.87,6.35-9.9,1.8-2.42,3.67-4.64,5.58-6.56.63-.64.71-2.45,1.35-2.98,2.68-2.26,5.97-2.33,8.62-2.12,2.85.23,6.19-1.48,9.87-4.47"/><path class="cls-8" d="m1007.29,272.65c-.19,3.67-3.47,4.37-4.29,4.29-.53-.06-1.09-.16-1.67-.31-.9-.24-1.7-.58-2.4-.97-2.66-1.47-3.45-4.89-1.77-7.42.95-1.42,2.18-3.11,4.15-3.92,2.61-1.08,2.99-1.11,4.56-.95,2.57.26-4.14,1.45-2.18,5.44.98,1.99,3.75.8,3.6,3.83Z"/><path class="cls-8" d="m1043.76,306.36c-3.66.47-4.09,3.79-3.94,4.61.1.52.24,1.07.43,1.64.31.88.71,1.65,1.15,2.32,1.67,2.53,5.14,3.06,7.53,1.18,1.34-1.06,2.93-2.42,3.58-4.44.87-2.68.88-3.06.59-4.62-.45-2.53-1.13,4.24-5.25,2.6-2.05-.81-1.09-3.68-4.09-3.28Z"/><path class="cls-8" d="m1021.89,402.25c-2.87,2.21-73.83-33.18-111.11-99.99"/><path class="cls-8" d="m974.15,306.6c8.25,4.9,14.61,10.8,20.25,16.15.9.86,1.77,1.71,2.61,2.54.26.27.53.53.78.79,17.65,17.92,20.91,30.99,22.53,36.09.84,2.65,1.5,5.18,1.99,7.57,3.19,15.05.4,25.07-.42,32.51"/><path class="cls-8" d="m910.78,302.25h0c2.75-1.41,7.94-3.1,14.26-4.24,5.48-.99,11.8-1.58,18.1-1.23,2.92.15,5.82.51,8.64,1.11,1.72.37,3.37.78,4.98,1.24,3.12.89,6.04,1.93,8.76,3.1,3.07,1.31,5.91,2.76,8.54,4.33"/><path class="cls-8" d="m1077.03,334.96s.71-.71,1.9-1.89c4.74-4.73,17.09-17.04,21.89-21.78,3.87-3.83-8.42-4.72-18.35-7.71-4.39-1.32-8.31-3.05-10.18-5.63"/><path class="cls-8" d="m979.47,237.03l.04-.04c.73-.96,12.23-15.76,16.8-21.56,1.08-1.36,1.87-1.18,2.56,0,2.32,3.94,3.54,18.97,10.97,23.28.05.03.1.05.16.09"/><path class="cls-8" d="m965.48,245.79c-2.41,1.76-5.1,3.82-8.1,6.21-.7.56-1.42,1.15-2.16,1.74-.13.11-.27.22-.41.33"/><path class="cls-8" d="m986,236.82s-.09-2.73-6.49.17c-1.4.63-3.09,1.53-5.15,2.78-1.26.76-2.64,1.65-4.17,2.69"/><path class="cls-8" d="m1079.15,322.93s4.09-.18-2.12,12.03c-1.03,2.01-2.33,4.35-3.97,7.1-2.16,3.59-4.92,7.86-8.41,12.94-.08.12-.17.24-.26.37"/><path class="cls-8" d="m1001.49,289.96s-3.69-8.01-12.59-14.44c-1.11-.82-2.32-1.6-3.6-2.34"/><path class="cls-8" d="m999.45,290.14s-4.38-6.17-12.94-10.82c-1.82-1-3.84-1.93-6.05-2.71"/><path class="cls-8" d="m1026.96,313.5s10.47,3.86,18,14.82"/><path class="cls-8" d="m1026.93,315.55s9.59,5.72,14.98,17.88"/><path class="cls-8" d="m1017.1,241.55s-.79-.97-2.74-1.78c-1.11-.47-2.58-.89-4.52-1.05-1.33-.12-2.88-.12-4.67.07"/><path class="cls-8" d="m1068.87,291.54s3.94,2.77,3.68,11.68"/><path class="cls-8" d="m958.12,251.15l.1-.1"/><line class="cls-8" x1="1078.92" y1="293.67" x2="1078.92" y2="293.68"/><path class="cls-8" d="m1066.6,275.52s.02.03.02.04"/></g><path class="cls-4" d="m920.57,285.23s1.22,1.16,1.73,2.25,3.47,3.26,4.25,3.28"/><g class="cls-22"><path class="cls-34" d="m1103.28,348.98c.48-.63,1.34-1.82,2.61-3.21-.96-.19-2.04-.05-2.56.05-.2.04-.4.09-.59.16-1.02.38-5.11,1.82-6.58,1.56,0,0-2.21-.41-2.76-1.09-1.59,2.36,2.62,10.66,8.42,4.34h0c.61-1.01,1.19-1.47,1.45-1.81Z"/><path class="cls-40" d="m1119.97,337.95c-5.72.85-9.9,3.75-12.7,6.42-7.65-5.36-9.09,1.82-12.48,1.5-.66-.06-1.11.17-1.38.58.55.69,2.76,1.09,2.76,1.09,1.47.27,5.56-1.18,6.58-1.56.19-.07.39-.12.59-.16.51-.1,1.59-.24,2.56-.05-1.27,1.39-2.14,2.58-2.61,3.21-.26.34-.84.79-1.45,1.8h0c-1.54,2.56-3.23,8.64-.28,25.27.06.32-1.29.88-.01,1.18.17.04.25.14.29.32.16.87.33,1.76.52,2.69.36,1.77-.33,3.64-.28,4.72.01.3.06.58.12.86.47-2.25,5.07-8.48,9.23-11.85,5.37-4.35,9.51-4.81,13.94-5.4,9.26-1.23,12.93.94,14.67,1.61,6.2,2.42,8.55,5.82,10.56,7.84.22-2.55-1.31-3.91-1.44-4.94-.07-.62.38-1.44.3-2.03-.1-.76-.73-1.27-.84-1.98-2.31-15.99-5.42-21.41-8-23.97-.47-.46-.92-.83-1.35-1.16-.21-.16-.44-.3-.66-.45-.07-.05-.15-.1-.22-.15-.73-.54-1.73-1.25-2.98-1.99.83-.39,1.79-.54,2.27-.59.21-.02.41-.02.61-.01,1.09.06,5.42.27,6.75-.41,0,0,2-1.03,2.33-1.84-.38-.31-.88-.4-1.49-.15-3.14,1.27-6.56-5.11-12.28,2.04l-.06-.05c-3.42-1.71-8.07-3.15-13.49-2.36h-.04Zm-13.41,25.52c-1.23-.35-1.9-1.83-1.48-3.31s1.75-2.41,2.98-2.07c1.23.34,1.9,1.82,1.48,3.31-.41,1.48-1.74,2.41-2.98,2.07Zm5.74-6.76c-.17-.53-.24-1.18-.03-1.84.1-.3.25-.72.67-1.03.53-.38,1.25-.39,1.8-.13.43.21.65.54.8.77.72,1.1.37,2.33.18,2.52-.12.13-.26.25-.42.36-.25.18-.5.32-.74.41-.92.38-1.96-.12-2.26-1.07Zm4.67,5.67c-.11-.56-.4-2.06.33-3.61,1.28-2.72,4.62-3.29,5.1-3.37l.25-.04c.56-.08,4.22-.52,6.22,1.86.91,1.08,1.09,2.28,1.17,2.84.1.66.25,2.37-.71,4.06-1.49,2.62-4.44,3.08-4.93,3.16-.52.08-3.39.52-5.56-1.46-1.43-1.3-1.77-2.95-1.87-3.43Zm12.75-7.44c-.24-.13-.93-1.21-.56-2.46.08-.27.19-.65.54-.97.45-.41,1.14-.6,1.76-.39.5.17.76.53.94.79.4.58.51,1.21.5,1.77-.01,1-.86,1.77-1.85,1.68-.26-.02-.54-.08-.83-.18-.18-.06-.35-.14-.51-.23Zm7.72,2.35c-.83-1.31-.62-2.92.46-3.6,1.08-.68,2.62-.18,3.45,1.12s.62,2.91-.46,3.6c-1.08.68-2.63.18-3.45-1.12Z"/><path class="cls-34" d="m1102.18,385.81s0,0,0,0c24.73,4.23,48.37-6.62,48.39-7.8-2.01-2.02-4.35-5.42-10.56-7.84-1.74-.68-5.4-2.85-14.67-1.61-4.43.59-8.56,1.05-13.94,5.4-4.16,3.37-8.77,9.6-9.23,11.85Z"/><path class="cls-44" d="m1102.18,385.81c.33,1.4,1.3,2.56,2.68,3.08,1.27.48,2.52.74,3.21.91,6.04,1.59,13.08.6,19.2-.39,3.6-.58,10.27-1.68,17.12-4.36,1.21-.48,3.75-1.53,5.33-3.4,1.06-1.26.8-2.95.86-3.65-.02,1.19-23.66,12.03-48.39,7.8Z"/><path class="cls-33" d="m1105.08,360.16c-.41,1.48.25,2.97,1.48,3.31,1.23.34,2.57-.58,2.98-2.07.41-1.49-.25-2.97-1.48-3.31-1.23-.34-2.57.58-2.98,2.07Z"/><path d="m1112.27,354.87c-.21.67-.14,1.31.03,1.84.3.95,1.34,1.45,2.26,1.07.24-.1.49-.23.74-.41.16-.11.3-.24.42-.36.19-.19.54-1.42-.18-2.52-.15-.23-.37-.57-.8-.77-.54-.26-1.26-.25-1.8.13-.42.31-.57.73-.67,1.03Z"/><path class="cls-33" d="m1117.29,358.77c-.73,1.55-.44,3.05-.33,3.61.1.49.44,2.13,1.87,3.43,2.17,1.98,5.05,1.54,5.56,1.46.49-.08,3.44-.53,4.93-3.16.96-1.69.81-3.4.71-4.06-.08-.56-.27-1.76-1.17-2.84-2-2.38-5.66-1.94-6.22-1.86l-.25.04c-.48.08-3.82.66-5.1,3.37Zm3.09,2.19c-.13-.9.08-1.68.49-1.74s.83.62.97,1.52-.08,1.68-.48,1.74-.84-.62-.97-1.52Zm4.6-.68c-.13-.9.09-1.68.49-1.74s.84.62.97,1.52-.09,1.68-.49,1.74-.84-.62-.97-1.52Z"/><path d="m1120.87,359.22c-.4.06-.62.84-.49,1.74s.56,1.58.97,1.52.62-.84.48-1.74-.56-1.58-.97-1.52Z"/><ellipse cx="1125.71" cy="360.17" rx=".74" ry="1.65" transform="translate(-40.52 168.17) rotate(-8.39)"/><path d="m1129.16,352.47c-.37,1.26.32,2.34.56,2.46.15.09.32.16.51.23.29.1.57.16.83.18.99.09,1.84-.68,1.85-1.68,0-.56-.11-1.19-.5-1.77-.18-.26-.44-.62-.94-.79-.62-.21-1.31-.01-1.76.39-.35.32-.46.7-.54.97Z"/><path class="cls-33" d="m1137.9,353.68c-1.08.68-1.29,2.29-.46,3.6.82,1.3,2.37,1.81,3.45,1.12,1.08-.69,1.29-2.3.46-3.6s-2.37-1.8-3.45-1.12Z"/><path class="cls-34" d="m1138.58,343.47c.22.15.45.29.66.45.43.32.88.69,1.35,1.16,7.33,4.29,8.94-4.83,6.74-6.62-.33.82-2.33,1.84-2.33,1.84-1.33.68-5.66.48-6.75.41-.2-.01-.4,0-.61.01-.48.05-1.44.21-2.27.59,1.24.74,2.25,1.45,2.98,1.99.07.05.14.1.22.15Z"/><path class="cls-8" d="m1107.25,344.39s.02-.01.02-.02c2.8-2.67,6.98-5.56,12.7-6.42h.04c5.42-.81,10.07.64,13.49,2.35"/><path class="cls-8" d="m1101.83,350.78c.61-1.01,1.19-1.46,1.45-1.8.48-.63,1.34-1.82,2.61-3.21,0,0,.01-.01.02-.02"/><path class="cls-8" d="m1135.34,341.31s.03.02.04.02c1.24.74,2.25,1.45,2.98,1.99.07.05.14.1.22.15.22.15.45.29.66.45.43.32.88.69,1.35,1.16,2.59,2.56,5.69,7.98,8,23.97.1.71.74,1.23.84,1.98.08.59-.38,1.41-.3,2.03.13,1.03,1.66,2.39,1.44,4.94-.06.7.2,2.4-.86,3.65-1.57,1.87-4.11,2.92-5.33,3.4-6.85,2.68-13.52,3.77-17.12,4.36-6.12.99-13.15,1.98-19.2.39-.68-.18-1.93-.44-3.21-.91-1.38-.52-2.35-1.69-2.68-3.08,0,0,0,0,0,0-.07-.28-.11-.57-.12-.86-.05-1.08.64-2.95.28-4.72-.19-.93-.36-1.82-.52-2.69-.03-.18-.12-.28-.29-.32-1.28-.3.07-.86.01-1.18-2.95-16.63-1.26-22.71.28-25.26"/><path class="cls-8" d="m1115.54,354.48c.72,1.1.37,2.33.18,2.52-.12.13-.26.25-.42.36-.25.18-.5.32-.74.41-.92.38-1.96-.12-2.26-1.07-.17-.53-.24-1.18-.03-1.84.1-.3.25-.72.67-1.03.53-.38,1.25-.39,1.8-.13.43.21.65.54.8.77Z"/><path class="cls-8" d="m1129.16,352.47c-.37,1.26.32,2.34.56,2.46.15.09.32.16.51.23.29.1.57.16.83.18.99.09,1.84-.68,1.85-1.68,0-.56-.11-1.19-.5-1.77-.18-.26-.44-.62-.94-.79-.62-.21-1.31-.01-1.76.39-.35.32-.46.7-.54.97Z"/><ellipse class="cls-8" cx="1125.71" cy="360.17" rx=".74" ry="1.65" transform="translate(-40.52 168.17) rotate(-8.39)"/><path class="cls-8" d="m1120.38,360.96c.13.9.56,1.58.97,1.52s.62-.84.48-1.74-.56-1.58-.97-1.52-.62.84-.49,1.74Z"/><path class="cls-8" d="m1150.58,378.01c-.02,1.19-23.66,12.03-48.39,7.8h0"/><path class="cls-9" d="m1150.58,378.01c-2.01-2.02-4.35-5.42-10.56-7.84-1.74-.68-5.4-2.85-14.67-1.61-4.43.59-8.56,1.05-13.94,5.4-4.16,3.37-8.77,9.6-9.23,11.85t0,0"/><path class="cls-8" d="m1116.97,362.38c.1.49.44,2.13,1.87,3.43,2.17,1.98,5.05,1.54,5.56,1.46.49-.08,3.44-.53,4.93-3.16.96-1.69.81-3.4.71-4.06-.08-.56-.27-1.76-1.17-2.84-2-2.38-5.66-1.94-6.22-1.86l-.25.04c-.48.08-3.82.66-5.1,3.37-.73,1.55-.44,3.05-.33,3.61Z"/><path class="cls-8" d="m1108.6,345.38c-.46-.38-.91-.72-1.33-1.01-7.65-5.36-9.09,1.82-12.48,1.5-.66-.06-1.11.17-1.38.58-1.59,2.36,2.62,10.66,8.42,4.34h0"/><path class="cls-8" d="m1107.38,346.59c-.35-.46-.89-.7-1.49-.82-.96-.19-2.04-.05-2.56.05-.2.04-.4.09-.59.16-1.02.38-5.11,1.82-6.58,1.56,0,0-2.21-.41-2.76-1.09"/><path class="cls-8" d="m1103.28,348.98s-4.51,1.33-6.16.36"/><path class="cls-8" d="m1132.48,341.83c.37-.55.73-1.04,1.08-1.48,5.72-7.15,9.15-.77,12.28-2.04.61-.25,1.11-.16,1.49.15,2.2,1.79.59,10.91-6.74,6.62-.02-.01-.04-.02-.07-.04"/><path class="cls-8" d="m1134,342.64c.22-.6.77-1.02,1.38-1.31.83-.39,1.79-.54,2.27-.59.21-.02.41-.02.61-.01,1.09.06,5.42.27,6.75-.41,0,0,2-1.03,2.33-1.84"/><path class="cls-8" d="m1138.58,343.47s4.74.24,6.04-1.16"/><path class="cls-8" d="m1119.6,335.29c-.42-.95-.26-2.59-.18-4.49"/><path class="cls-8" d="m1119.6,335.29c.02-.23.06-.46.13-.67.08-.27.25-.84.71-.98.45-.14.96.2,1.21.56.4.56.37,1.52-.15,1.86-.48.32-1.29.05-1.66-.36-.1-.11-.18-.25-.25-.4Z"/><path class="cls-8" d="m1120.51,339.37s-.28-.59-.54-1.42c-.24-.78-.46-1.77-.38-2.66"/><path class="cls-9" d="m1137.44,357.28c.82,1.3,2.37,1.81,3.45,1.12,1.08-.69,1.29-2.3.46-3.6s-2.37-1.8-3.45-1.12c-1.08.68-1.29,2.29-.46,3.6Z"/><path class="cls-9" d="m1109.54,361.4c-.41,1.48-1.74,2.41-2.98,2.07-1.23-.35-1.9-1.83-1.48-3.31s1.75-2.41,2.98-2.07c1.23.34,1.9,1.82,1.48,3.31Z"/></g><path class="cls-4" d="m1148.92,380.38s-16.65,11.75-44.69,7.06"/><path class="cls-3" d="m1146.66,377.19s-19.42,9.65-40.81,6.02"/><path class="cls-10" d="m1135.15,348.82s-.58-3.58-4.64-1.26"/><path class="cls-10" d="m1109.14,352.65s-.47-3.6,4.07-2.55"/><g class="cls-22"><path class="cls-43" d="m819.71,251.52c-1.14,1.58-2.15,3.27-3.04,5.06,0,0,6.88-3.34,9.55,6.44,1.21,4.42-3.7,5.3-5.61,9.2s-1.09,9.67-1.33,12.49c-.62,7.13-7.59,9.6-7.82,1.51.17,7.28,1.03,15.23,2.44,23.79.53,3.19,2.18,5.31,2.21,7.24.01.52.07,1.04.17,1.54.91-4.01,5.96-14.16,13.53-20.03,9.77-7.57,19.28-8.83,27.21-9.71,12.57-1.4,20.1.46,24.34,2,0,0,2.06-3.08-1.09-4.28-3.14-1.2-.35-13.26,2.51-12.94,2.85.33,3.73,4.38,4.99,5.44,1.26,1.06,6.96-.6,6.53-4.45-.42-3.86-5.95-6.59-6.15-10.4-.19-3.81,2.32-4.53,4.55-5.15.71-.2,1.92-.31,2.61-.37-2.76-6.17-6.18-11.11-10.48-14.9-1.42-1.25-2.93-2.37-4.55-3.38-1.57-.97-3.24-1.83-5-2.58-1.44-.61-2.94-1.14-4.52-1.6-.1-.04-.2-.07-.31-.09-.13,1.55-.78,3.1-2.29,4.41-6.2,5.4-6.49-2.4-6.49-2.4,0,0-.22-2.48.83-3.32.2-.16.48-.44.79-.79-1.92-.37-3.91-.59-5.98-.66-1.7,2.74-6.04,4.94-6.04,4.94-4.04-1.05-6.54-2.11-7.96-3.2-1.87.57-3.9,1.39-5.59,2.18.23.14.44.25.59.32,1.23.56,1.63,3.02,1.63,3.02,0,0,1.64,7.62-5.7,3.93-1.62-.82-2.61-1.99-3.15-3.31l-.17.09c-1.42.8-2.74,1.67-3.98,2.6-1.48,1.1-2.84,2.3-4.09,3.59-1.15,1.18-2.2,2.44-3.15,3.78Zm19.14,16.54c-1.78.1-3.24-1.35-3.19-3.14.03-1,.28-2.13,1.03-3.12.31-.42.87-1.16,1.73-1.34,1.22-.25,2.75.73,4.01,2.61,1.01,1.5.45,3.56-1.16,4.36-.28.14-.59.27-.93.37-.52.16-1.02.24-1.49.26Zm5.7,8.04c-.49-2.89-.75-4.34-.26-5.52,1.87-4.46,8.7-5.3,9.74-5.42,1.3-.16,8.28-.88,10.98,3.08.68.99.75,2.39.9,5.18.2,3.64.31,5.46-.61,6.93-1.91,3.07-6.49,3.68-8.86,4-2.34.32-7.09.95-9.72-1.57-1.23-1.18-1.54-3.02-2.16-6.69Zm21.23-12.33c-1.05-.46-1.62-1.61-1.37-2.73.25-1.15.83-2.59,2.18-3.56.43-.3,1.18-.84,2.06-.75,1.37.15,2.64,1.83,3.21,4.4.27,1.22-.4,2.46-1.58,2.85-.57.19-1.25.33-2.03.32-.98-.01-1.8-.25-2.46-.54Z"/><path class="cls-39" d="m811.46,286.2c.23,8.1,7.21,5.63,7.82-1.51.24-2.81-.58-8.59,1.33-12.49s6.82-4.78,5.61-9.2c-2.68-9.78-9.55-6.44-9.55-6.44-3.9,7.84-5.43,17.63-5.22,29.1,0,.18,0,.36.01.52Z"/><path class="cls-49" d="m816.29,318.77h0c44.02,8.52,86.67-9.93,86.76-12.05-3.5-3.69-7.57-9.85-18.56-14.42-.74-.31-1.76-.77-3.12-1.26-4.24-1.54-11.77-3.4-24.34-2-7.93.88-17.44,2.14-27.21,9.71-7.57,5.87-12.61,16.02-13.53,20.03Z"/><path class="cls-49" d="m816.3,318.77c.53,2.51,2.24,4.64,4.67,5.61,2.25.9,4.49,1.42,5.69,1.76,10.74,3.08,23.34,1.57,34.31.04,6.45-.9,18.41-2.6,30.75-7.12,2.18-.8,6.76-2.58,9.65-5.86,1.94-2.2,1.89-5.25,1.68-6.49-.09,2.12-42.74,20.57-86.76,12.06Z"/><path class="cls-34" d="m822.86,247.75c1.25-1.29,2.6-2.49,4.09-3.59l-.06-.08s-10.13-5.57-11.63-8.24c-2.02-3.61-2.94-1.91-3.29-.81-1.85,6.55-1.18,18.74,7.74,16.49.95-1.33,2.01-2.6,3.15-3.78Z"/><path class="cls-43" d="m811.96,235.03c.36-1.1,1.27-2.8,3.29.81,1.5,2.67,11.63,8.24,11.63,8.24l.06.08c1.24-.93,2.56-1.8,3.98-2.6l-.03-.06c.76-1.58-11.29-4.16-14.91-9.46-1.49-2.19-3.08-.32-4.02,2.99Z"/><path class="cls-37" d="m837.73,237.5c-1.58-1-4.62-3.57-4.85-5.41-.21-1.64-3.71,4.73-1.78,9.37.54,1.32,1.53,2.5,3.15,3.31,7.34,3.69,5.7-3.93,5.7-3.93,0,0-.4-2.46-1.63-3.02-.15-.07-.35-.18-.59-.32Z"/><path d="m835.66,264.93c-.05,1.78,1.41,3.23,3.19,3.14.46-.03.96-.1,1.49-.26.34-.1.65-.23.93-.37,1.62-.8,2.17-2.86,1.16-4.36-1.26-1.88-2.79-2.86-4.01-2.61-.86.18-1.42.93-1.73,1.34-.75,1-1,2.13-1.03,3.12Z"/><path class="cls-34" d="m844.29,270.59c-.49,1.18-.23,2.62.26,5.52.62,3.67.93,5.5,2.16,6.69,2.63,2.53,7.38,1.89,9.72,1.57,2.37-.32,6.95-.94,8.86-4,.92-1.47.82-3.29.61-6.93-.15-2.79-.22-4.2-.9-5.18-2.7-3.95-9.68-3.24-10.98-3.08-1.03.12-7.87.96-9.74,5.42Zm5.86,4.45c-.2-1.61.22-2.99.94-3.08s1.46,1.14,1.66,2.76-.22,2.99-.93,3.08-1.47-1.14-1.67-2.75Zm6.86-.86c-.2-1.61.22-2.99.93-3.08s1.47,1.14,1.67,2.75-.22,2.99-.94,3.08-1.46-1.14-1.66-2.76Z"/><path class="cls-49" d="m857.32,233.58c.96-1.55,1.08-3.27-.89-4.87-5.47-4.43-4.06-4.73-1.82-5.32,2.23-.59-5.44-1.89-5.11.75s-1.24-5.11-4.77-4.8c0,0,3.17,4.79-.34,8.81-2.34,2.68-3.9,4.99-1.08,7.17,1.41,1.09,3.91,2.15,7.96,3.2,0,0,4.34-2.19,6.04-4.94Z"/><path d="m851.09,271.96c-.72.09-1.14,1.47-.94,3.08s.95,2.85,1.67,2.75,1.14-1.47.93-3.08-.95-2.85-1.66-2.76Z"/><path d="m857.94,271.1c-.72.09-1.14,1.47-.93,3.08s.95,2.85,1.66,2.76,1.14-1.47.94-3.08-.95-2.85-1.67-2.75Z"/><path d="m864.41,261.04c-.25,1.12.32,2.27,1.37,2.73.66.29,1.48.53,2.46.54.78,0,1.46-.13,2.03-.32,1.18-.39,1.85-1.63,1.58-2.85-.57-2.57-1.84-4.25-3.21-4.4-.87-.1-1.63.45-2.06.75-1.35.96-1.93,2.41-2.18,3.56Z"/><path class="cls-37" d="m870.46,236.34c.4-4.85-4.29-9.81-4.09-8.21.21,1.7-1.75,4.61-3.07,6.11-.32.35-.59.63-.79.79-1.05.84-.83,3.32-.83,3.32,0,0,.29,7.8,6.49,2.4,1.51-1.31,2.16-2.86,2.29-4.41Z"/><path class="cls-43" d="m882.92,223.64c-2.17,5.96-12.96,11.37-12.15,12.8,1.58.46,3.08.99,4.52,1.6,0,0,8.48-7.94,9.27-10.89,1.03-3.82,2.68-2.16,3.37-1.15-1.89-3.26-4.08-4.92-5.01-2.35Z"/><path class="cls-39" d="m882.79,273.82c-2.85-.32-5.65,11.74-2.51,12.94,3.15,1.2,1.09,4.28,1.09,4.28,1.36.49,2.38.95,3.12,1.26,10.98,4.57,15.05,10.73,18.56,14.42-.41-2.41,1.93-3.05,1.34-8.19-1.93-16.62-4.64-29.72-9.06-39.63-.69.06-1.9.17-2.61.37-2.23.62-4.75,1.34-4.55,5.15.2,3.81,5.72,6.54,6.15,10.4.42,3.85-5.27,5.51-6.53,4.45-1.26-1.07-2.14-5.11-4.99-5.44Z"/><path class="cls-34" d="m880.29,240.62c1.62,1.01,3.13,2.13,4.55,3.38,9.12.03,6.66-11.82,3.1-17.98,0,0-.01-.01-.01-.02-.69-1.01-2.34-2.67-3.37,1.15-.79,2.96-9.27,10.89-9.27,10.89,1.77.75,3.44,1.61,5,2.58Z"/><path class="cls-8" d="m870.46,236.34c-.13,1.55-.78,3.1-2.29,4.41-6.2,5.4-6.49-2.4-6.49-2.4,0,0-.22-2.48.83-3.32.2-.16.48-.44.79-.79,1.31-1.5,3.28-4.41,3.07-6.11-.2-1.6,4.49,3.37,4.09,8.21Z"/><path class="cls-8" d="m831.1,241.46c.54,1.32,1.53,2.5,3.15,3.31,7.34,3.69,5.7-3.93,5.7-3.93,0,0-.4-2.46-1.63-3.02-.15-.07-.35-.18-.59-.32-1.58-1-4.62-3.57-4.85-5.41-.21-1.64-3.71,4.73-1.78,9.37Z"/><path class="cls-8" d="m857.21,233.58s.08,0,.11,0c2.07.07,4.06.29,5.98.66.01,0,.03,0,.04,0"/><path class="cls-8" d="m837.65,237.53s.05-.02.07-.03c1.69-.8,3.72-1.62,5.59-2.18"/><path class="cls-8" d="m811.45,285.68c-.21-11.47,1.32-21.26,5.22-29.1.88-1.79,1.89-3.47,3.04-5.06.95-1.33,2.01-2.6,3.15-3.78,1.25-1.29,2.6-2.49,4.09-3.59,1.24-.93,2.56-1.8,3.98-2.6l.17-.09s.03-.02.04-.02"/><path class="cls-8" d="m816.29,318.77c-.1-.5-.16-1.02-.17-1.54-.04-1.93-1.69-4.04-2.21-7.24-1.41-8.56-2.27-16.51-2.44-23.79"/><path class="cls-8" d="m870.4,236.33s.04.01.06.02c.11.03.21.06.31.09,1.58.46,3.08.99,4.52,1.6,1.77.75,3.44,1.61,5,2.58,1.62,1.01,3.13,2.13,4.55,3.38,4.31,3.79,7.73,8.73,10.48,14.9,4.42,9.92,7.13,23.01,9.06,39.63.6,5.14-1.75,5.78-1.34,8.19.21,1.24.26,4.29-1.68,6.49-2.89,3.28-7.47,5.06-9.65,5.86-12.34,4.52-24.31,6.22-30.75,7.12-10.97,1.53-23.57,3.03-34.31-.04-1.21-.34-3.44-.86-5.69-1.76-2.44-.97-4.14-3.1-4.67-5.61"/><path class="cls-8" d="m871.86,261.14c.27,1.22-.4,2.46-1.58,2.85-.57.19-1.25.33-2.03.32-.98-.01-1.8-.25-2.46-.54-1.05-.46-1.62-1.61-1.37-2.73.25-1.15.83-2.59,2.18-3.56.43-.3,1.18-.84,2.06-.75,1.37.15,2.64,1.83,3.21,4.4Z"/><path class="cls-8" d="m842.43,263.07c1.01,1.5.45,3.56-1.16,4.36-.28.14-.59.27-.93.37-.52.16-1.02.24-1.49.26-1.78.1-3.24-1.35-3.19-3.14.03-1,.28-2.13,1.03-3.12.31-.42.87-1.16,1.73-1.34,1.22-.25,2.75.73,4.01,2.61Z"/><path class="cls-8" d="m857.01,274.18c.2,1.61.95,2.85,1.66,2.76s1.14-1.47.94-3.08-.95-2.85-1.67-2.75-1.14,1.47-.93,3.08Z"/><path class="cls-8" d="m850.15,275.04c.2,1.61.95,2.85,1.67,2.75s1.14-1.47.93-3.08-.95-2.85-1.66-2.76-1.14,1.47-.94,3.08Z"/><path class="cls-8" d="m843.32,235.32c1.41,1.09,3.91,2.15,7.96,3.2,0,0,4.34-2.19,6.04-4.94.96-1.55,1.08-3.27-.89-4.87-5.47-4.43-4.06-4.73-1.82-5.32,2.23-.59-5.44-1.89-5.11.75s-1.24-5.11-4.77-4.8c0,0,3.17,4.79-.34,8.81-2.34,2.68-3.9,4.99-1.08,7.17Z"/><path class="cls-8" d="m903.05,306.72c-.09,2.12-42.74,20.57-86.76,12.06"/><path class="cls-8" d="m903.05,306.72c-3.5-3.69-7.57-9.85-18.56-14.42-.74-.31-1.76-.77-3.12-1.26-4.24-1.54-11.77-3.4-24.34-2-7.93.88-17.44,2.14-27.21,9.71-7.57,5.87-12.61,16.02-13.53,20.03h0"/><path class="cls-8" d="m895.87,258.86s-.22.01-.54.04c-.69.06-1.9.17-2.61.37-2.23.62-4.75,1.34-4.55,5.15.2,3.81,5.72,6.54,6.15,10.4.42,3.85-5.27,5.51-6.53,4.45-1.26-1.07-2.14-5.11-4.99-5.44-2.85-.32-5.65,11.74-2.51,12.94,3.15,1.2,1.09,4.28,1.09,4.28"/><path class="cls-8" d="m844.55,276.1c.62,3.67.93,5.5,2.16,6.69,2.63,2.53,7.38,1.89,9.72,1.57,2.37-.32,6.95-.94,8.86-4,.92-1.47.82-3.29.61-6.93-.15-2.79-.22-4.2-.9-5.18-2.7-3.95-9.68-3.24-10.98-3.08-1.03.12-7.87.96-9.74,5.42-.49,1.18-.23,2.62.26,5.52Z"/><path class="cls-8" d="m816.67,256.58s6.88-3.34,9.55,6.44c1.21,4.42-3.7,5.3-5.61,9.2s-1.09,9.67-1.33,12.49c-.62,7.13-7.59,9.6-7.82,1.51,0-.17-.01-.34-.01-.52"/><path class="cls-8" d="m887.94,226.02c3.56,6.16,6.02,18.01-3.1,17.98"/><path class="cls-8" d="m870.8,236.49s-.03-.04-.04-.06c-.81-1.43,9.98-6.84,12.15-12.8.93-2.57,3.13-.91,5.01,2.35"/><path class="cls-8" d="m875.29,238.04s8.48-7.94,9.27-10.89c1.03-3.82,2.68-2.16,3.37-1.15,0,.01,0,.02.01.02.02.04.05.08.07.11"/><path class="cls-8" d="m880.29,240.62s7.95-5.02,7.65-8.42"/><path class="cls-8" d="m830.9,241.5c.76-1.58-11.29-4.16-14.91-9.46-1.49-2.19-3.08-.32-4.02,2.99-1.85,6.55-1.18,18.74,7.74,16.49.02,0,.04-.01.06-.01"/><path class="cls-8" d="m826.89,244.08s-10.13-5.57-11.63-8.24c-2.02-3.61-2.94-1.91-3.29-.81"/><path class="cls-8" d="m822.86,247.75s-9.08-2.81-9.63-6.18"/><path class="cls-8" d="m874.79,252.78s-.91-6.42-8.23-2.43"/><path class="cls-8" d="m832.31,258.1s-.71-6.44,7.38-4.39"/></g></g><g id="Layer_4"><path class="cls-4" d="m643.76,468.87s-1.6.07-2.63.53c-1.03.46-4.5.17-5.07-.3"/><rect class="cls-42" x="456.27" y="129.32" width="332.47" height="393.55"/><text transform="translate(470.87 175.55)"><tspan class="cls-19"><tspan class="cls-62" x="0" y="0">H</tspan><tspan class="cls-78" x="21.24" y="0">o</tspan><tspan class="cls-11" x="41.1" y="0">w </tspan><tspan class="cls-29" x="75.33" y="0">t</tspan><tspan class="cls-62" x="90" y="0">o pl</tspan><tspan class="cls-72" x="149.24" y="0">a</tspan><tspan class="cls-62" x="167.71" y="0">y:</tspan></tspan><tspan class="cls-55"><tspan class="cls-58" x="0" y="30.13"> </tspan><tspan class="cls-71" x="22.88" y="30.13">Roll the dice </tspan><tspan class="cls-70" x="160.04" y="30.13">t</tspan><tspan class="cls-71" x="169.7" y="30.13">o g</tspan><tspan class="cls-70" x="202.5" y="30.13">e</tspan><tspan class="cls-71" x="214.7" y="30.13">t poi</tspan><tspan class="cls-69" x="263.51" y="30.13">n</tspan><tspan class="cls-71" x="276.41" y="30.13">ts</tspan></tspan><tspan class="cls-55"><tspan class="cls-58" x="0" y="59.01"> </tspan><tspan class="cls-71" x="22.88" y="59.01">Fi</tspan><tspan class="cls-65" x="40.46" y="59.01">rs</tspan><tspan class="cls-71" x="59.98" y="59.01">t </tspan><tspan class="cls-70" x="75.95" y="59.01">t</tspan><tspan class="cls-71" x="85.61" y="59.01">o 35 poi</tspan><tspan class="cls-61" x="169.38" y="59.01">n</tspan><tspan class="cls-71" x="182.28" y="59.01">ts wins</tspan></tspan><tspan class="cls-56"><tspan class="cls-57" x="0" y="87.88"> </tspan><tspan class="cls-68" x="22.88" y="87.88">Roll a one</tspan><tspan class="cls-57" x="124.72" y="87.88">: </tspan></tspan><tspan class="cls-54"><tspan class="cls-59" x="0" y="110.48">	</tspan><tspan class="cls-12" x="45.2" y="110.48">Y</tspan><tspan class="cls-79" x="56.53" y="110.48">our turn ends</tspan><tspan class="cls-28" x="198.99" y="110.48">,</tspan><tspan class="cls-75" x="204.19" y="110.48"> </tspan></tspan><tspan class="cls-54"><tspan class="cls-59" x="0" y="129.32">	</tspan><tspan class="cls-75" x="45.2" y="131.83">Gain 0 poi</tspan><tspan class="cls-60" x="148.95" y="131.83">n</tspan><tspan class="cls-75" x="161.81" y="131.83">ts this </tspan><tspan class="cls-76" x="235.61" y="131.83">r</tspan><tspan class="cls-75" x="243.64" y="131.83">ound</tspan></tspan><tspan class="cls-55"><tspan class="cls-58" x="0" y="158.19"> </tspan><tspan class="cls-71" x="22.88" y="158.19">Roll t</tspan><tspan class="cls-66" x="77.48" y="158.19">w</tspan><tspan class="cls-71" x="94.09" y="158.19">o 1</tspan><tspan class="cls-64" x="122.78" y="158.19"></tspan><tspan class="cls-71" x="128.94" y="158.19">s or 6</tspan><tspan class="cls-67" x="187.16" y="158.19"></tspan><tspan class="cls-71" x="193.32" y="158.19">s</tspan><tspan class="cls-58" x="204.69" y="158.19">: </tspan></tspan><tspan class="cls-54"><tspan class="cls-59" x="0" y="187.07">	</tspan><tspan class="cls-25" x="45.2" y="179.54">Y</tspan><tspan class="cls-27" x="56.59" y="179.54">our turn ends</tspan><tspan class="cls-24" x="199.83" y="179.54">,</tspan><tspan class="cls-26" x="205.1" y="179.54"></tspan></tspan><tspan class="cls-54"><tspan class="cls-59" x="0" y="199.62">	</tspan><tspan class="cls-52" x="45.2" y="199.62">L</tspan><tspan class="cls-27" x="56.97" y="199.62">ose all your poi</tspan><tspan class="cls-74" x="217.73" y="199.62">n</tspan><tspan class="cls-27" x="230.65" y="199.62">ts</tspan></tspan></text></g><g id="catcowpig"><path class="cls-43" d="m779.07,413.28h0c.18-.09.36-.17.55-.24.59,2.81,2.14,5.48,5.2,7.53,12.56,8.43,11.3-5.87,11.3-5.87,0,0-.17-4.59-2.28-5.89-.41-.25-.97-.69-1.63-1.27,3.42-1.1,7.01-1.97,10.78-2.58,3.74,4.62,12.17,7.64,12.17,7.64,7.14-2.85,11.47-5.36,13.8-7.67,3.56.61,7.45,1.65,10.72,2.72-.4.31-.74.56-1,.73-2.11,1.3-2.28,5.88-2.28,5.88,0,0-1.25,14.31,11.3,5.88,2.77-1.86,4.3-4.24,5-6.77.11.04.22.09.32.13,2.77,1.13,5.4,2.41,7.89,3.82,2.98,1.67,5.77,3.53,8.35,5.6,2.42,1.9,4.68,3.98,6.78,6.23,2.43,2.59,4.64,5.38,6.66,8.4l-.19.13s-13.33-4.55-15.98,13.95c-1.2,8.34,7.97,8.82,12.35,15.51s4.2,17.42,5.29,22.51c2.77,12.94,16.15,15.83,14.63.81h.12c.87,8.86,1.24,18.39,1.2,28.53,0,.31,1.94.19,2,2.42.06,1.63-2.04,1.95-2.04,2.44-.01,1.09-.02,1.09-.04,2.19,0,.48,1.75.54,1.72,1.38-.03,1.21-1.77,1.16-1.78,1.7-.04,1.83-.11,3.67-.18,5.51-.23,5.95-2.76,10.19-2.39,13.74.1.96.11,1.9.03,2.84-2.59-7.1-14.13-24.5-29.3-33.48-19.58-11.59-37.25-11.71-51.95-11.51-23.29.33-36.6,5.45-43.99,9.23,0,0-4.47-5.15,1.01-8.06,5.47-2.92-2.4-24.31-7.54-23.06-5.13,1.24-5.81,8.85-7.87,11.07s-12.84.52-12.95-6.63c-.11-7.13,9.36-13.41,8.85-20.41-.52-7-5.28-7.74-9.5-8.35-1.89-.29-4.61-.15-4.82-.14,3.61-11.87,8.72-21.65,15.71-29.55,2.3-2.61,4.81-5.01,7.54-7.22,2.64-2.14,5.49-4.08,8.55-5.86,2.48-1.44,5.11-2.76,7.88-3.96Zm65.57,50.45c3.27-.23,5.61-3.21,5.11-6.45-.28-1.82-.99-3.83-2.6-5.48-.66-.69-1.86-1.93-3.47-2.05-2.29-.18-4.85,1.95-6.73,5.67-1.5,2.97-.01,6.62,3.13,7.7.55.2,1.14.35,1.78.46.99.18,1.93.21,2.77.14Zm-8.57,15.99c.23-5.38.39-8.1-.78-10.14-4.44-7.7-17.12-7.67-19.03-7.67-2.42.01-15.33.31-19.36,8.13-1.01,1.97-.81,4.55-.45,9.67.46,6.7.69,10.06,2.71,12.53,4.19,5.17,12.7,5.25,17.1,5.28,4.35.04,13.16.12,17.39-5.09,1.98-2.45,2.12-5.88,2.42-12.72Zm-41.62-17.65c1.81-1.08,2.59-3.31,1.88-5.31-.73-2.04-2.11-4.55-4.8-5.99-.85-.45-2.36-1.27-3.93-.9-2.47.58-4.4,3.94-4.85,8.77-.21,2.29,1.3,4.4,3.54,4.85,1.09.21,2.37.31,3.79.11,1.77-.24,3.24-.86,4.37-1.54Z"/><path class="cls-39" d="m898.81,490.46c1.52,15.01-11.85,12.13-14.63-.81-1.09-5.09-.91-15.82-5.29-22.51s-13.55-7.17-12.35-15.51c2.65-18.49,15.98-13.95,15.98-13.95l.19-.13c9.09,13.55,14.12,31.31,16.22,52.9h-.12Z"/><path class="cls-49" d="m897.46,551.2h0c-78.47,25.65-160.61,1.71-161.26-2.15,5.56-7.53,11.58-19.73,30.6-30.6,1.29-.74,3.05-1.81,5.42-3.02,7.4-3.79,20.7-8.9,43.99-9.23,14.7-.2,32.37-.08,51.95,11.51,15.17,8.98,26.71,26.38,29.3,33.48Z"/><path class="cls-49" d="m897.46,551.21c-.4,4.7-3.03,8.98-7.26,11.33-3.9,2.16-7.86,3.61-9.98,4.52-18.92,8.07-42.28,8.21-62.67,7.92-11.99-.17-34.23-.54-57.82-5.97-4.16-.96-12.93-3.16-18.96-8.49-4.05-3.58-4.66-9.16-4.56-11.48.65,3.85,82.79,27.79,161.26,2.16Z"/><path class="cls-34" d="m869.27,422.92c-2.59-2.07-5.37-3.93-8.35-5.6l.08-.14s17.24-12.49,19.36-17.71c2.78-6.84,4.8-4.36,5.75-2.43.03.07.06.12.09.19,4.86,11.48,6.44,33.76-10.14,31.93-2.1-2.25-4.36-4.33-6.78-6.23Z"/><path class="cls-43" d="m886.1,397.03c-.95-1.93-2.96-4.4-5.75,2.43-2.12,5.22-19.36,17.71-19.36,17.71l-.08.14c-2.49-1.41-5.12-2.69-7.89-3.82l.06-.12c-1.75-2.71,19.68-10.18,25.07-20.7,2.2-4.29,5.48-1.35,7.95,4.36Z"/><path class="cls-37" d="m839.68,407.65c2.66-2.2,7.62-7.58,7.62-11,0-3.05,7.87,7.78,5.4,16.71-.69,2.53-2.22,4.91-5,6.77-12.56,8.43-11.3-5.88-11.3-5.88,0,0,.17-4.58,2.28-5.88.26-.17.61-.42,1-.73Z"/><path d="m849.74,457.28c.51,3.24-1.84,6.22-5.11,6.45-.85.07-1.78.03-2.77-.14-.64-.11-1.23-.26-1.78-.46-3.14-1.09-4.62-4.73-3.13-7.7,1.87-3.72,4.44-5.84,6.73-5.67,1.61.12,2.81,1.35,3.47,2.05,1.61,1.65,2.32,3.67,2.6,5.48Z"/><path class="cls-34" d="m835.28,469.59c1.17,2.04,1.01,4.75.78,10.14-.3,6.85-.44,10.27-2.42,12.72-4.23,5.21-13.04,5.13-17.39,5.09-4.4-.03-12.91-.11-17.1-5.28-2.01-2.47-2.25-5.82-2.71-12.53-.36-5.13-.56-7.7.45-9.67,4.03-7.83,16.94-8.12,19.36-8.13,1.92,0,14.59-.03,19.03,7.67Zm-9.69,9.49c0-2.99-1.08-5.43-2.42-5.43s-2.41,2.43-2.41,5.43,1.08,5.42,2.41,5.42,2.42-2.43,2.42-5.42Zm-12.73,0c0-2.99-1.08-5.43-2.41-5.43s-2.42,2.43-2.42,5.43,1.08,5.42,2.42,5.42,2.41-2.43,2.41-5.42Z"/><path class="cls-49" d="m802.99,404.97c-2.11-2.61-2.73-5.72.51-9.1,8.97-9.34,6.34-9.58,2.11-10.14-4.22-.56,9.5-4.69,9.5.2s1.09-9.61,7.62-9.85c0,0-4.69,9.48,2.63,16,4.89,4.36,8.28,8.22,3.61,12.86-2.33,2.31-6.66,4.82-13.8,7.67,0,0-8.43-3.02-12.17-7.64Z"/><path d="m823.17,473.65c1.34,0,2.42,2.43,2.42,5.43s-1.08,5.42-2.42,5.42-2.41-2.43-2.41-5.42,1.08-5.43,2.41-5.43Z"/><path d="m810.45,473.65c1.33,0,2.41,2.43,2.41,5.43s-1.08,5.42-2.41,5.42-2.42-2.43-2.42-5.42,1.08-5.43,2.42-5.43Z"/><path d="m796.33,456.77c.7,1.99-.08,4.23-1.88,5.31-1.13.68-2.6,1.3-4.37,1.54-1.42.2-2.7.1-3.79-.11-2.25-.45-3.75-2.56-3.54-4.85.45-4.83,2.39-8.19,4.85-8.77,1.57-.36,3.08.45,3.93.9,2.69,1.44,4.07,3.95,4.8,5.99Z"/><path class="cls-37" d="m779.62,413.04c-1.84-8.76,5.59-18.91,5.59-15.95,0,3.16,4.26,8.02,7,10.46.66.57,1.22,1.01,1.63,1.27,2.11,1.3,2.28,5.89,2.28,5.89,0,0,1.25,14.3-11.3,5.87-3.06-2.05-4.6-4.72-5.2-7.53Z"/><path class="cls-43" d="m753.95,392.67c5.33,10.39,26.27,17.8,25.12,20.59h0c-2.77,1.21-5.4,2.53-7.88,3.97h0s-17.31-12.56-19.44-17.78c-2.76-6.8-5.43-3.29-6.44-1.3,2.71-6.42,6.34-9.97,8.64-5.49Z"/><path class="cls-39" d="m765.68,484.33c5.14-1.25,13.01,20.14,7.54,23.06-5.48,2.91-1.01,8.06-1.01,8.06-2.37,1.21-4.13,2.28-5.42,3.02-19.02,10.86-25.04,23.07-30.6,30.6.2-4.49-4.23-5.12-4.31-14.65-.03-4.01-.03-7.91,0-11.71.02-1.39-1.56-2.82-1.54-4.17.02-1.31,1.66-2.53,1.7-3.82.62-21.82,2.81-39.97,7.35-54.84.21-.01,2.93-.14,4.82.14,4.22.62,8.98,1.35,9.5,8.35.51,7-8.96,13.27-8.85,20.41.11,7.14,10.9,8.85,12.95,6.63s2.74-9.83,7.87-11.07Z"/><path class="cls-34" d="m762.63,423.1c-2.73,2.21-5.24,4.61-7.54,7.22-16.64,2.12-14.87-20.07-9.78-32.14t0-.01c1.01-1.99,3.68-5.5,6.44,1.3,2.12,5.22,19.44,17.76,19.44,17.76h0c-3.06,1.78-5.91,3.73-8.55,5.87Z"/><path class="cls-8" d="m779.62,413.04c.59,2.81,2.14,5.48,5.2,7.53,12.56,8.43,11.3-5.87,11.3-5.87,0,0-.17-4.59-2.28-5.89-.41-.25-.97-.69-1.63-1.27-2.74-2.43-7-7.3-7-10.46,0-2.96-7.43,7.19-5.59,15.95Z"/><path class="cls-8" d="m852.7,413.37c-.69,2.53-2.22,4.91-5,6.77-12.56,8.43-11.3-5.88-11.3-5.88,0,0,.17-4.58,2.28-5.88.26-.17.61-.42,1-.73,2.66-2.2,7.62-7.58,7.62-11,0-3.05,7.87,7.78,5.4,16.71Z"/><path class="cls-8" d="m803.19,404.93c-.07.01-.14.02-.21.03-3.76.61-7.35,1.47-10.78,2.58-.02,0-.06.01-.08.02"/><path class="cls-8" d="m839.82,407.7s-.09-.03-.14-.04c-3.27-1.07-7.17-2.11-10.72-2.72"/><path class="cls-8" d="m897.46,551.2c.08-.94.07-1.88-.03-2.84-.37-3.54,2.16-7.78,2.39-13.74.07-1.85.13-3.69.18-5.51.01-.54,1.75-.48,1.78-1.7.03-.84-1.72-.89-1.72-1.38.02-1.1.03-1.1.04-2.19,0-.5,2.09-.81,2.04-2.44-.07-2.23-2-2.11-2-2.42.04-10.14-.33-19.67-1.2-28.54-2.1-21.58-7.13-39.35-16.22-52.9-2.01-3.02-4.23-5.81-6.66-8.4-2.1-2.25-4.36-4.33-6.78-6.23-2.59-2.07-5.37-3.93-8.35-5.6-2.49-1.41-5.12-2.69-7.89-3.82-.1-.04-.21-.09-.32-.13-.02-.01-.06-.02-.08-.03"/><path class="cls-8" d="m779.07,413.28c-2.77,1.2-5.4,2.52-7.88,3.96-3.06,1.77-5.91,3.72-8.55,5.86-2.73,2.21-5.24,4.61-7.54,7.22-6.99,7.9-12.1,17.69-15.71,29.55-4.55,14.87-6.74,33.02-7.35,54.84-.03,1.29-1.67,2.51-1.7,3.82-.02,1.35,1.56,2.78,1.54,4.17-.03,3.8-.03,7.7,0,11.71.09,9.53,4.51,10.16,4.31,14.65-.1,2.32.51,7.9,4.56,11.48,6.03,5.33,14.8,7.53,18.96,8.49,23.59,5.43,45.83,5.8,57.82,5.97,20.4.29,43.75.14,62.67-7.92,2.12-.91,6.09-2.37,9.98-4.52,4.24-2.34,6.87-6.63,7.26-11.33"/><path class="cls-8" d="m779.72,412.99s-.07.03-.1.04c-.19.08-.37.15-.55.23"/><path class="cls-8" d="m782.74,458.65c-.21,2.29,1.3,4.4,3.54,4.85,1.09.21,2.37.31,3.79.11,1.77-.24,3.24-.86,4.37-1.54,1.81-1.08,2.59-3.31,1.88-5.31-.73-2.04-2.11-4.55-4.8-5.99-.85-.45-2.36-1.27-3.93-.9-2.47.58-4.4,3.94-4.85,8.77Z"/><path class="cls-8" d="m836.95,455.42c-1.5,2.97-.01,6.62,3.13,7.7.55.2,1.14.35,1.78.46.99.18,1.93.21,2.77.14,3.27-.23,5.61-3.21,5.11-6.45-.28-1.82-.99-3.83-2.6-5.48-.66-.69-1.86-1.93-3.47-2.05-2.29-.18-4.85,1.95-6.73,5.67Z"/><path class="cls-8" d="m812.86,479.08c0,2.98-1.08,5.42-2.41,5.42s-2.42-2.43-2.42-5.42,1.08-5.43,2.42-5.43,2.41,2.43,2.41,5.43Z"/><path class="cls-8" d="m825.59,479.08c0,2.98-1.08,5.42-2.42,5.42s-2.41-2.43-2.41-5.42,1.08-5.43,2.41-5.43,2.42,2.43,2.42,5.43Z"/><path class="cls-8" d="m828.96,404.93c-2.33,2.31-6.66,4.82-13.8,7.67,0,0-8.43-3.02-12.17-7.64-2.11-2.61-2.73-5.72.51-9.1,8.97-9.34,6.34-9.58,2.11-10.14-4.22-.56,9.5-4.69,9.5.2s1.09-9.61,7.62-9.85c0,0-4.69,9.48,2.63,16,4.89,4.36,8.28,8.22,3.61,12.86Z"/><path class="cls-8" d="m736.2,549.06c.65,3.85,82.79,27.79,161.26,2.16"/><path class="cls-8" d="m736.2,549.06c5.56-7.53,11.58-19.73,30.6-30.6,1.29-.74,3.05-1.81,5.42-3.02,7.4-3.79,20.7-8.9,43.99-9.23,14.7-.2,32.37-.08,51.95,11.51,15.17,8.98,26.71,26.38,29.3,33.48h0"/><path class="cls-8" d="m739.38,459.87h.01c.21-.01,2.93-.14,4.82.14,4.22.62,8.98,1.35,9.5,8.35.51,7-8.96,13.27-8.85,20.41.11,7.14,10.9,8.85,12.95,6.63s2.74-9.83,7.87-11.07c5.14-1.25,13.01,20.14,7.54,23.06-5.48,2.91-1.01,8.06-1.01,8.06"/><path class="cls-8" d="m836.06,479.73c-.3,6.85-.44,10.27-2.42,12.72-4.23,5.21-13.04,5.13-17.39,5.09-4.4-.03-12.91-.11-17.1-5.28-2.01-2.47-2.25-5.82-2.71-12.53-.36-5.13-.56-7.7.45-9.67,4.03-7.83,16.94-8.12,19.36-8.13,1.92,0,14.59-.03,19.03,7.67,1.17,2.04,1.01,4.75.78,10.14Z"/><path class="cls-8" d="m882.52,437.68s-13.33-4.55-15.98,13.95c-1.2,8.34,7.97,8.82,12.35,15.51s4.2,17.42,5.29,22.51c2.77,12.94,16.15,15.83,14.63.81-.02-.26-.06-.54-.09-.81"/><path class="cls-8" d="m745.31,398.18c-5.09,12.07-6.86,34.26,9.78,32.14"/><path class="cls-8" d="m779.02,413.38s.03-.07.04-.1h0c1.16-2.81-19.79-10.21-25.12-20.6-2.3-4.48-5.93-.92-8.64,5.49"/><path class="cls-8" d="m771.19,417.23s-17.31-12.55-19.44-17.76c-2.76-6.8-5.43-3.29-6.44-1.3t0,.01c-.03.08-.07.15-.1.22"/><path class="cls-8" d="m762.63,423.1s-15.67-7.36-15.9-13.64"/><path class="cls-8" d="m886.18,397.22c4.86,11.48,6.44,33.76-10.14,31.93-.11,0-.22-.02-.34-.03"/><path class="cls-8" d="m853.08,413.38c-1.75-2.71,19.68-10.18,25.07-20.7,2.2-4.29,5.48-1.35,7.95,4.36"/><path class="cls-8" d="m860.99,417.17s17.24-12.49,19.36-17.71c2.78-6.84,4.8-4.36,5.75-2.43.03.07.06.12.09.19"/><path class="cls-8" d="m869.19,422.95s.02-.01.08-.03c1.19-.55,15.88-7.44,16.1-13.46"/><path class="cls-8" d="m775.48,444.04s.19-11.93,14.48-6.33"/><path class="cls-8" d="m854.31,444.04s-.19-11.93-14.48-6.33"/><path class="cls-34" d="m1114.94,432.48c-1.88-1.82-5.31-5.35-10.19-9.31,3.09-1.09,6.73-1.15,8.46-1.08.68.02,1.35.11,2.02.25,3.56.74,17.78,3.53,22.5,1.92,0,0,7.11-2.41,8.58-4.96,6.41,6.98-3.45,36.51-25.7,18.42-2.5-3.03-4.65-4.25-5.68-5.24Z"/><path class="cls-40" d="m1010.68,418.74l.19-.2c10.47-7.31,25.12-14.35,43.4-14.35h.13c19.33.03,34.56,7.55,45.1,15,22.67-21.46,30.91,1.58,41.96-1.13,2.12-.53,3.73.01,4.84,1.23-1.47,2.55-8.58,4.96-8.58,4.96-4.73,1.61-18.94-1.18-22.5-1.92-.67-.13-1.34-.22-2.02-.25-1.73-.07-5.36-.01-8.46,1.08,4.88,3.96,8.31,7.49,10.19,9.31,1.03.99,3.17,2.21,5.68,5.24,6.32,7.65,14.9,26.89,13.25,83.32-.02,1.08,4.69,2.28.63,3.89-.56.21-.77.58-.79,1.17-.11,2.95-.26,5.99-.42,9.13-.32,6.02,2.86,11.88,3.22,15.46.1.97.1,1.93.01,2.88-2.67-7.23-20.9-25.52-36.28-34.61-19.88-11.78-33.75-11.27-48.68-11.06-31.19.42-42.24,9.38-47.65,12.48-19.31,11.02-25.42,23.41-31.06,31.05-1.97-8.31,2.45-13.54,2.36-17.02-.04-2.09-1.94-4.58-1.98-6.58-.04-2.54,1.8-4.55,1.79-6.95-.16-53.9,7.45-73.34,14.74-83.06h.01c1.34-1.79,2.66-3.24,3.92-4.51.63-.64,1.32-1.22,1.97-1.82.22-.2.44-.4.65-.61,2.16-2.13,5.12-4.98,8.86-8.02-2.93-.88-6.16-.93-7.78-.86-.68.02-1.35.11-2.02.26-3.55.74-17.78,3.52-22.49,1.92,0,0-7.12-2.42-8.59-4.96,1.11-1.22,2.71-1.77,4.85-1.24,10.97,2.69,19.19-20.05,41.56.76Zm100.46,63.2c3.9-1.73,5.37-6.95,3.28-11.65s-6.95-7.12-10.85-5.39-5.37,6.95-3.28,11.65c2.09,4.7,6.95,7.12,10.85,5.39Zm-22.24-19.53c.29-1.84.22-4.01-.8-6.1-.46-.94-1.16-2.27-2.71-3.06-1.93-1.01-4.32-.69-6,.44-1.32.9-1.88,2.11-2.27,2.95-1.83,3.99-.09,7.88.64,8.42.47.35.99.69,1.56.99.9.48,1.8.79,2.65,1.01,3.23.79,6.41-1.36,6.94-4.65Zm-12.65,21.02c.09-1.91.34-7.01-2.84-11.78-5.55-8.36-16.87-8.64-18.48-8.66-.37-.01-.66-.01-.84-.01-1.91.01-14.2.36-19.65,9.19-2.48,4.01-2.49,8.07-2.5,9.94,0,2.23.32,7.94,4.33,13.07,6.2,7.93,16.16,8,17.82,8.01,1.74.01,11.45.08,17.66-7.52,4.08-5.01,4.41-10.6,4.49-12.26Zm-45.75-18.37c.72-.55,2.47-4.44.64-8.42-.39-.84-.95-2.04-2.28-2.95-1.66-1.13-4.06-1.44-6-.44-1.54.79-2.25,2.12-2.71,3.06-1.03,2.09-1.09,4.26-.8,6.1.53,3.28,3.71,5.44,6.94,4.65.85-.21,1.74-.53,2.65-1.01.58-.3,1.11-.65,1.58-.99Zm-24.34,11.5c2.09-4.7.61-9.92-3.28-11.65s-8.76.68-10.85,5.39-.61,9.92,3.28,11.65,8.76-.68,10.85-5.39Z"/><path class="cls-34" d="m1136.51,553.58s.01.04,0,.06c-79.64,26.01-163.01,1.72-163.66-2.2,5.64-7.64,11.75-20.03,31.06-31.05,5.41-3.09,16.46-12.06,47.65-12.48,14.93-.21,28.8-.72,48.68,11.06,15.37,9.09,33.61,27.38,36.28,34.61Z"/><path class="cls-44" d="m1136.51,553.63c-.41,4.77-3.05,9.11-7.35,11.49-3.96,2.19-7.98,3.68-10.13,4.59-19.21,8.19-42.9,8.33-63.62,8.04-12.17-.17-34.75-.54-58.69-6.06-4.22-.97-13.13-3.21-19.25-8.61-4.11-3.63-4.08-9.36-4.63-11.65.66,3.92,84.03,28.21,163.66,2.2Z"/><path class="cls-33" d="m1114.43,470.29c2.09,4.7.61,9.92-3.28,11.65s-8.76-.68-10.85-5.39c-2.09-4.7-.61-9.92,3.28-11.65s8.76.68,10.85,5.39Z"/><path d="m1088.1,456.31c1.03,2.09,1.09,4.26.8,6.1-.53,3.28-3.71,5.44-6.94,4.65-.85-.21-1.74-.53-2.65-1.01-.57-.3-1.09-.65-1.56-.99-.73-.55-2.47-4.44-.64-8.42.39-.84.95-2.04,2.27-2.95,1.68-1.13,4.07-1.44,6-.44,1.55.79,2.26,2.12,2.71,3.06Z"/><path class="cls-33" d="m1073.42,471.65c3.17,4.77,2.93,9.87,2.84,11.78-.08,1.65-.41,7.25-4.49,12.26-6.21,7.6-15.92,7.53-17.66,7.52-1.66-.01-11.62-.08-17.82-8.01-4.01-5.13-4.33-10.84-4.33-13.07.01-1.88.02-5.93,2.5-9.94,5.45-8.84,17.74-9.18,19.65-9.19.18,0,.47,0,.84.01,1.61.02,12.93.3,18.48,8.66Zm-9.13,8.75c0-3.04-1.11-5.5-2.46-5.5s-2.46,2.46-2.46,5.5,1.09,5.5,2.46,5.5,2.46-2.46,2.46-5.5Zm-15.54,0c0-3.04-1.09-5.5-2.45-5.5s-2.46,2.46-2.46,5.5,1.09,5.5,2.46,5.5,2.45-2.46,2.45-5.5Z"/><ellipse cx="1061.83" cy="480.4" rx="2.46" ry="5.5"/><path d="m1046.3,474.9c1.35,0,2.45,2.46,2.45,5.5s-1.09,5.5-2.45,5.5-2.46-2.46-2.46-5.5,1.09-5.5,2.46-5.5Z"/><path d="m1031.14,456.64c1.83,3.99.08,7.88-.64,8.42-.47.35-.99.69-1.58.99-.9.48-1.8.79-2.65,1.01-3.23.79-6.41-1.36-6.94-4.65-.29-1.84-.22-4.01.8-6.1.47-.94,1.17-2.27,2.71-3.06,1.94-1.01,4.33-.69,6,.44,1.33.9,1.89,2.11,2.28,2.95Z"/><path class="cls-33" d="m1002.87,464.9c3.9,1.73,5.37,6.95,3.28,11.65-2.09,4.7-6.95,7.12-10.85,5.39s-5.37-6.95-3.28-11.65,6.95-7.12,10.85-5.39Z"/><path class="cls-34" d="m995.64,431.5c-.65.6-1.34,1.18-1.97,1.82-1.26,1.27-2.58,2.73-3.92,4.5h-.01c-22.08,17.7-31.85-11.62-25.47-18.6,1.47,2.54,8.59,4.96,8.59,4.96,4.71,1.6,18.94-1.18,22.49-1.92.67-.15,1.34-.23,2.02-.26,1.62-.07,4.85-.02,7.78.86-3.74,3.04-6.7,5.89-8.86,8.02-.21.21-.42.41-.65.61Z"/><path class="cls-8" d="m1099.59,419.25s-.06-.03-.08-.06c-10.55-7.45-25.77-14.97-45.1-15h-.13c-18.29,0-32.94,7.04-43.4,14.35"/><path class="cls-8" d="m989.75,437.83c-7.28,9.72-14.89,29.16-14.74,83.06.01,2.4-1.83,4.41-1.79,6.95.03,2,1.93,4.49,1.98,6.58.09,3.47-4.32,8.7-2.36,17.02.55,2.29.51,8.02,4.63,11.65,6.12,5.41,15.03,7.64,19.25,8.61,23.94,5.52,46.52,5.89,58.69,6.06,20.71.29,44.41.15,63.62-8.04,2.16-.92,6.18-2.4,10.13-4.59,4.3-2.38,6.94-6.71,7.35-11.49.01-.01.01-.03,0-.06.09-.95.09-1.91-.01-2.88-.36-3.59-3.54-9.44-3.22-15.46.17-3.14.31-6.18.42-9.13.02-.59.23-.96.79-1.17,4.07-1.61-.65-2.8-.63-3.89,1.65-56.43-6.93-75.67-13.25-83.32-2.5-3.03-4.65-4.25-5.68-5.24-1.88-1.82-5.31-5.35-10.19-9.31-.02-.02-.04-.03-.07-.06"/><path class="cls-8" d="m1005.29,422.75s-.09.08-.13.11c-3.74,3.04-6.7,5.89-8.86,8.02-.21.21-.42.41-.65.61-.65.6-1.34,1.18-1.97,1.82-1.26,1.27-2.58,2.73-3.92,4.5"/><path class="cls-8" d="m1077.11,456.64c-1.83,3.99-.09,7.88.64,8.42.47.35.99.69,1.56.99.9.48,1.8.79,2.65,1.01,3.23.79,6.41-1.36,6.94-4.65.29-1.84.22-4.01-.8-6.1-.46-.94-1.16-2.27-2.71-3.06-1.93-1.01-4.32-.69-6,.44-1.32.9-1.88,2.11-2.27,2.95Z"/><path class="cls-8" d="m1031.14,456.64c1.83,3.99.08,7.88-.64,8.42-.47.35-.99.69-1.58.99-.9.48-1.8.79-2.65,1.01-3.23.79-6.41-1.36-6.94-4.65-.29-1.84-.22-4.01.8-6.1.47-.94,1.17-2.27,2.71-3.06,1.94-1.01,4.33-.69,6,.44,1.33.9,1.89,2.11,2.28,2.95Z"/><path class="cls-8" d="m1048.75,480.4c0,3.04-1.09,5.5-2.45,5.5s-2.46-2.46-2.46-5.5,1.09-5.5,2.46-5.5,2.45,2.46,2.45,5.5Z"/><ellipse class="cls-8" cx="1061.83" cy="480.4" rx="2.46" ry="5.5"/><path class="cls-8" d="m972.84,551.43c.66,3.92,84.03,28.21,163.66,2.2t.02-.01"/><path class="cls-9" d="m972.84,551.43c5.64-7.64,11.75-20.03,31.06-31.05,5.41-3.09,16.46-12.06,47.65-12.48,14.93-.21,28.8-.72,48.68,11.06,15.37,9.09,33.61,27.38,36.28,34.61.01.01.02.03.02.04"/><path class="cls-8" d="m1076.25,483.43c-.08,1.65-.41,7.25-4.49,12.26-6.21,7.6-15.92,7.53-17.66,7.52-1.66-.01-11.62-.08-17.82-8.01-4.01-5.13-4.33-10.84-4.33-13.07.01-1.88.02-5.93,2.5-9.94,5.45-8.84,17.74-9.18,19.65-9.19.18,0,.47,0,.84.01,1.61.02,12.93.3,18.48,8.66,3.17,4.77,2.93,9.87,2.84,11.78Z"/><path class="cls-8" d="m1095.6,423.19c1.35-1.47,2.65-2.8,3.91-3.99,22.67-21.46,30.91,1.58,41.96-1.13,2.12-.53,3.73.01,4.84,1.23,6.41,6.98-3.45,36.51-25.7,18.42"/><path class="cls-8" d="m1100.23,426.59c.93-1.68,2.63-2.74,4.52-3.42,3.09-1.09,6.73-1.15,8.46-1.08.68.02,1.35.11,2.02.25,3.56.74,17.78,3.53,22.5,1.92,0,0,7.11-2.41,8.58-4.96"/><path class="cls-8" d="m1114.94,432.48s15.55,2.2,20.51-1.79"/><path class="cls-8" d="m1015,423.11c-1.5-1.63-2.93-3.08-4.31-4.37-22.37-20.81-30.59,1.93-41.56-.76-2.13-.53-3.74.02-4.85,1.24-6.38,6.98,3.4,36.3,25.47,18.61h.01c.08-.07.15-.13.22-.19"/><path class="cls-8" d="m1010.36,426.5c-1.03-1.88-3.04-2.99-5.21-3.64-2.93-.88-6.16-.93-7.78-.86-.68.02-1.35.11-2.02.26-3.55.74-17.78,3.52-22.49,1.92,0,0-7.12-2.42-8.59-4.96"/><path class="cls-8" d="m995.64,431.5s-15.54,3.09-20.51-.88"/><path class="cls-8" d="m1054.36,395.2c.95-3.33-.4-8.66-1.59-14.89"/><path class="cls-8" d="m1054.36,395.2c-.18-.76-.42-1.49-.74-2.16-.4-.84-1.26-2.65-2.84-2.89-1.55-.25-3.07,1.13-3.74,2.42-1.05,2.04-.47,5.2,1.41,6.08,1.73.83,4.28-.46,5.28-2.02.28-.42.48-.9.63-1.43Z"/><path class="cls-8" d="m1053.32,409.13s.66-2.1,1.09-4.94c.42-2.7.65-6.08-.06-8.99"/><path class="cls-9" d="m1006.16,476.56c-2.09,4.7-6.95,7.12-10.85,5.39s-5.37-6.95-3.28-11.65,6.95-7.12,10.85-5.39,5.37,6.95,3.28,11.65Z"/><path class="cls-9" d="m1100.3,476.56c2.09,4.7,6.95,7.12,10.85,5.39s5.37-6.95,3.28-11.65-6.95-7.12-10.85-5.39-5.37,6.95-3.28,11.65Z"/><path class="cls-8" d="m979.46,558.47s60.73,30.7,151.06,1.55"/><path class="cls-9" d="m985.39,546.81s68.84,22.41,137.74,0"/><path class="cls-7" d="m1009.58,447.48s.19-12.11,14.7-6.43"/><path class="cls-7" d="m1097.38,447.48s-.19-12.11-14.7-6.43"/><path class="cls-36" d="m623.77,433.83c1.19.43,2.63,1.16,4.24,2.42,8.83,1.98,20.52-8.76,25.12-10.16,1.39-.42,2.13-.01,1.99,1.83-.61,7.78-2.31,27.52-2.42,28.69,1.99,4.7,4.38,13.62,6.8,30.32.02.18.05.35.08.54.71,4.94,2.07,8.65,4.44,10.5,2.2,1.74,4.68,4.15,5.16,7.8.11.87-1.13,2.33-1.1,3.28.11,2.85-.03,5.89-.38,9.04l-.15-.02s-1.29-9.18-13.18-4.24c-9.19,3.81-15.81,9.25-16.29,14.98-2.36-1.97-4.87-3.77-7.48-5.32-9.56-5.66-18.66-8.52-27.15-9.94-1.47-.45-2.48-.81-2.62-1.01-.01-.01-.03-.03-.09-.06-1.16-.78-4.54-1.06-6.67-1.17-1.29-.08-3.27-.18-5.67-.26-4.46-.14-9.09-.14-10.3-.05-1.37.1-2.96.61-4.62,1.49-.17,0-.33.01-.49.02l-.02-.29c-4.49-1.68-9.8-1.46-16.44.14-8.03,1.93-16.77,6.37-23.1,10.03,3-1.93,5.62-3.77,7.87-5.41,5.38-3.94,8.17-6.46,8.52-10.12.58-6.18-5.91-14.59-13.53-13.76-5.91.66-9.13,6.49-9.47,7.13,0,0,.95-11.49-11.87-7.74-1.22.35-2.43.75-3.58,1.18,5.2-5.43,18.29-17.24,37.97-19.17,9.36-.92,17.21.67,22.53,2.29.72-3.04,1.58-7.72,1.61-13.46.02-2.82-.17-4.83-.39-6.54l1.13-.13c.45,2.94,1.61,6.07,4.21,8.73,6.25,6.39,15.67,4.8,16.64,4.62,2.71-1.04,6.69-2.95,10.5-6.41l.41.45c-.08.08-.16.16-.24.26-2.49,2.99-.45,5.85.25,6.38.45.34.95.67,1.5.96.87.46,1.73.76,2.55.97,3.1.76,6.17-1.31,6.67-4.47.28-1.77.54-3.95-.41-5.99-1.25-2.7-1.5-2.99-2.85-4-.38-.28-.56-.34-.62-.25l-2.03-.46c8.1-12.55,4.55-27.31,3.67-30.43,4.83,1.06,9.22,1.74,13.06,1.29-1.82,1.76-3.11,3.62-3.76,5.53Zm34.25,51.18c.34-4.3-.56-8.13-1.78-11.21-.39-1.41-.88-3.45-1.26-5.94-.47-3.13-.4-4.65-1.3-5.06-1.11-.49-2.32,1.3-4.43,2.31-3.92,1.89-7.94-1.57-10.57-.82-10.44,2.98-18.8,8.35-21.63,15.28-11.05-1.12-19.2,2.26-19.2,2.26l1.44,1.6s7.28-1.54,16.75.63c-.1,1.44.04,2.92.44,4.46,2.87,11.26,20.68,21.86,20.68,21.86,1.08-.46,19.57-8.85,20.87-25.37Zm-69.15-5.06c.18-.84-3.85-3.19-8.16-3.19-5.14,0-9.18,3.32-9,3.78.1.26,1.49-.55,3.25.09,1.42.5,2.56,1.8,2.88,2.06,1.61,1.31,1.83,1.8,2.87,1.8,2.03,0,2.9-2.7,5.74-3.87,1.49-.61,2.35-.3,2.43-.68Z"/><path class="cls-44" d="m667.55,518.06l.15.02c-.43,3.95-1.17,8.08-2.16,12.2-.17.72,1.95,1.02,1.31,3.27-.78,2.7-2.85,1.66-3.06,2.47-1.04,3.96-2.08,7.51-2.91,10.35h-.01s-4.62-1.34-9.68-3.67c-3.52-4.68-7.99-9.66-13.11-13.9.48-5.74,7.1-11.17,16.29-14.98,11.89-4.94,13.18,4.24,13.18,4.24Z"/><path class="cls-38" d="m661.51,412.28c1.66,21.6-4.45,56.26-2.01,74.65-2.42-16.7-4.81-25.62-6.8-30.32.11-1.17,1.8-20.91,2.42-28.69.14-1.84-.6-2.24-1.99-1.83l-.31-.95s-.56-3.96-4.33-5.28c1.49-.95,3.3-2.09,5.93-3.68.06-.03,7.07-4.15,7.09-3.9Z"/><path class="cls-45" d="m660.87,546.38h.01c-1.08,3.71-1.8,6.24-1.72,7.01.1.93.11,1.86.02,2.77-1.12-3.05-3.93-8.06-7.99-13.46,5.06,2.33,9.68,3.67,9.68,3.67Z"/><path class="cls-38" d="m659.18,556.16s-.01.01-.01.01c-76.56,25.02-156.72,1.66-157.34-2.11,4.67-6.34,9.69-16.08,22.91-25.45,2.82,3.66,20.62,25.47,39.98,21.16,6.23,7.06,15.08,12.32,15.08,12.32,1.08-.46,36.71-4.43,38.02-20.94.34-4.3,7.99-17.19,6.78-20.27-.4-1.41-6.44-3.06-8.85-3.81-3.78-1.19-9.13-2.57-12.3-3.52,8.5,1.42,17.59,4.27,27.15,9.94,2.61,1.55,5.11,3.35,7.48,5.32-.15,1.68.23,3.38,1.22,5.08,2.12,3.62,7.2,6.65,11.89,8.82,4.06,5.4,6.87,10.41,7.99,13.46Z"/><path class="cls-45" d="m616.04,484.07c.08-1.56.43-3.06,1.02-4.49,2.84-6.94,11.19-12.31,21.63-15.28,2.63-.75,6.65,2.71,10.57.82,2.11-1.01,3.32-2.8,4.43-2.31.9.41.83,1.93,1.3,5.06.38,2.49.87,4.53,1.26,5.94,1.22,3.08,2.13,6.92,1.78,11.21-1.3,16.52-19.78,24.91-20.87,25.37,0,0-17.81-10.6-20.68-21.86-.4-1.54-.54-3.02-.44-4.46Z"/><path class="cls-45" d="m652.82,425.15l.31.95c-4.61,1.4-16.29,12.14-25.12,10.16-1.61-1.26-3.05-1.99-4.24-2.42.64-1.91,1.94-3.77,3.76-5.53,1.25-.14,2.42-.4,3.54-.79,11.44-4.04,13.11-4.93,17.42-7.65,3.77,1.32,4.33,5.28,4.33,5.28Z"/><path class="cls-38" d="m659.17,556.17c-.39,4.59-2.94,8.76-7.07,11.05-3.81,2.12-7.68,3.53-9.75,4.41-18.45,7.88-41.24,8.01-61.16,7.73-11.7-.16-33.4-.52-56.42-5.82-4.06-.93-12.62-3.08-18.51-8.28-3.95-3.49-3.92-9-4.44-11.2.62,3.77,80.78,27.12,157.34,2.11Z"/><path class="cls-36" d="m638.08,528.81c5.12,4.24,9.59,9.22,13.11,13.9-4.69-2.17-9.77-5.2-11.89-8.82-1-1.7-1.37-3.4-1.22-5.08Z"/><path class="cls-45" d="m564.72,549.78c-2.6-2.95-4.75-6.22-5.6-9.54-2.99-11.71,6.5-23.65,14.36-27.75,2.05-.12,4.19-.19,6.42-.23,7.16-.1,15.06-.12,23.54,1.29,3.17.96,8.52,2.33,12.3,3.52,2.41.75,8.45,2.41,8.85,3.81,1.21,3.08-6.43,15.97-6.78,20.27-1.31,16.52-36.94,20.48-38.02,20.94,0,0-8.85-5.26-15.08-12.32Z"/><path d="m616.29,462.15c.95,2.04.69,4.22.41,5.99-.5,3.16-3.57,5.23-6.67,4.47-.82-.2-1.68-.5-2.55-.97-.56-.29-1.05-.61-1.5-.96-.7-.53-2.74-3.39-.25-6.38.08-.1.16-.18.24-.26,1.91-1.97,3.19.68,5.27-.13,3.6-1.39,1.29-5.52,1.58-6.01.06-.1.25-.03.62.25,1.34,1.01,1.6,1.3,2.85,4Z"/><path class="cls-36" d="m617.06,479.58c-.59,1.43-.95,2.93-1.02,4.49-9.46-2.17-16.75-.63-16.75-.63l-1.44-1.6s8.15-3.37,19.2-2.26Z"/><path class="cls-44" d="m600.87,423.79c4.83,1.06,9.39,2.3,13.6,3.22.88,3.11,4.43,17.88-3.67,30.43-.58.9-1.22,1.79-1.93,2.67-1.05,1.31-2.17,2.46-3.3,3.48-3.81,3.46-7.8,5.37-10.5,6.41-.97.18-10.39,1.77-16.64-4.62-2.6-2.66-3.76-5.79-4.21-8.73l-1.13.13c-.18-1.51-.39-2.78-.49-4.16-1.11-14.98,11.92-23.03,8.68-28.1-1.2-1.88-4.17-2.57-7.6-2.63,2.5-.19,5.19-.31,8.06-.37,6.72-.11,13.16.95,19.15,2.26Z"/><path class="cls-44" d="m614.35,426.6c.03.1.08.24.12.42-4.21-.92-8.76-2.16-13.6-3.22,1.9.18,4.1.55,6.29.95,3.02.55,5.48,1.28,7.19,1.86Z"/><path class="cls-36" d="m612.82,457.9c-.29.49,2.02,4.63-1.58,6.01-2.08.81-3.36-1.84-5.27.13l-.41-.45c1.13-1.02,2.24-2.17,3.3-3.48.71-.88,1.35-1.77,1.93-2.67l2.03.46Z"/><path class="cls-36" d="m600.83,512.54c.14.2,1.15.56,2.62,1.01-8.49-1.41-16.38-1.39-23.54-1.29-2.23.03-4.37.11-6.42.23,1.65-.88,3.24-1.4,4.62-1.49,1.21-.09,5.84-.09,10.3.05,2.41.08,4.38.18,5.67.26,2.13.11,5.51.39,6.67,1.17.05.03.08.05.09.06Z"/><path class="cls-34" d="m580.71,476.77c4.32,0,8.35,2.35,8.16,3.19-.08.38-.93.06-2.43.68-2.84,1.17-3.71,3.87-5.74,3.87-1.04,0-1.26-.49-2.87-1.8-.32-.26-1.46-1.56-2.88-2.06-1.76-.63-3.16.17-3.25-.09-.18-.46,3.86-3.78,9-3.78Z"/><path class="cls-50" d="m535.33,429.37h.02c3.71-.24,7.4-1.27,11.84-2.51.02,0,.04-.01.06-.01,5.41-1.25,8.17-2.11,10.4-2.66.06-.01.12-.02.18-.04,4.44-.95,9.6-1.78,15.83-2.23,3.44.06,6.4.75,7.6,2.63,3.24,5.07-9.78,13.11-8.68,28.1.11,1.37.31,2.64.49,4.16.21,1.71.41,3.72.39,6.54-.03,5.74-.89,10.42-1.61,13.46-5.33-1.62-13.18-3.21-22.53-2.29-19.68,1.93-32.77,13.74-37.97,19.17h-.01c-.58.23-1.14.45-1.7.69-1.32-2.96-4.9-12.1-4.36-23.44.68-3.28,1.34-6,1.99-8.27h0c0-.13-.04-1.16-.11-2.8.71-2.38,1.65-4.81,2.87-7.24,3.85-7.67,9.68-13.93,15.48-18.11-9.82-4.78-19.97-12.88-19.7-7.15.32,7.1,1.06,25.47,1.35,32.5-1.16,3.82-1.72,7.55-1.88,11.07-.9,4.34-1.84,9.62-2.77,16.07h-.04c.87-5.53-.1-13.07-.83-21.49-2.01-23.32-1.84-34.08-1.95-38.82-.13-4.76.09-5.96-.01-9.31-.11-4.25-.32-9.18.04-8.81,1.57,1.63,8.84,8.23,20.21,15.36,0,0,4.38,4.32,10.45,5.23,1.7.26,3.32.31,4.94.21Zm17.87,41.32c.69-.53,2.73-3.39.25-6.38-2.05-2.44-3.34.45-5.52-.39-4.36-1.68-.03-7.39-2.2-5.77-1.33,1.01-1.6,1.3-2.85,4-.95,2.04-.69,4.22-.41,5.99.5,3.16,3.57,5.23,6.67,4.47.82-.2,1.68-.5,2.55-.97.56-.29,1.06-.61,1.51-.96Z"/><path class="cls-50" d="m557.83,424.14c1.57-.39,9.51-2.36,15.83-2.23-6.23.45-11.4,1.29-15.83,2.23Z"/><path class="cls-50" d="m572.99,512.51c.16-.01.32-.02.49-.02-7.86,4.1-17.35,16.05-14.36,27.75.85,3.32,3,6.58,5.6,9.54-19.36,4.31-37.15-17.5-39.98-21.16,2.09-1.48,4.4-2.95,6.94-4.4,4.78-2.74,16.18-10.2,41.31-11.71Z"/><path class="cls-36" d="m572.96,512.22l.02.29c-25.13,1.5-36.53,8.97-41.31,11.71-2.53,1.45-4.84,2.92-6.94,4.4-.27-.33-.4-.52-.4-.52,0,0,.82-.57,2.24-1.5.01-.01.02-.01.03-.02,2.45-1.44,4.72-2.84,6.8-4.19,6.34-3.66,15.07-8.1,23.1-10.03,6.65-1.6,11.95-1.82,16.44-.14Z"/><path class="cls-36" d="m557.65,424.18c-2.22.56-4.98,1.42-10.4,2.66,3.04-.86,6.42-1.8,10.4-2.66Z"/><path d="m553.45,464.31c2.48,2.99.44,5.85-.25,6.38-.45.34-.96.67-1.51.96-.87.46-1.73.76-2.55.97-3.1.76-6.17-1.31-6.67-4.47-.28-1.77-.54-3.95.41-5.99,1.25-2.7,1.51-2.99,2.85-4,2.17-1.62-2.16,4.09,2.2,5.77,2.18.84,3.47-2.05,5.52.39Z"/><path class="cls-44" d="m536.27,493.1c7.63-.83,14.11,7.58,13.53,13.76-.34,3.66-3.14,6.18-8.52,10.12-2.26,1.64-4.88,3.48-7.87,5.41-2.85,1.64-5.2,3.14-6.8,4.19-.01.01-.02.01-.03.02-3.91,2.29-8.29,4.65-13.14,6.99,0,0-15.6-9.4-18.09-19.43-.14-.56-.24-1.1-.31-1.64-.98-7.84,5.28-14.23,14.6-18.16.15.34.27.6.35.77.37-.41.82-.89,1.34-1.45h.01c1.15-.44,2.35-.84,3.58-1.19,12.81-3.75,11.87,7.74,11.87,7.74.34-.64,3.57-6.48,9.47-7.13Z"/><path class="cls-50" d="m537.14,428.92c.93-.18,4.66-.83,10.04-2.06-4.44,1.25-8.13,2.28-11.84,2.51.62-.19,1.22-.34,1.79-.45Z"/><path class="cls-44" d="m533.42,522.39c-2.08,1.35-4.35,2.75-6.8,4.19,1.6-1.05,3.95-2.55,6.8-4.19Z"/><path class="cls-50" d="m526.59,526.6c-1.43.93-2.24,1.5-2.24,1.5,0,0,.13.18.4.52-13.22,9.37-18.24,19.11-22.91,25.45-.56-2.32-1.73-8.2-3.02-15.17-.18-.98-3.34,1.05-3.43-3-.05-2.73,2.48-2.19,2.29-3.31-1.24-7.01-2.43-14.38-3.15-20.01l.53-.06c.08.55.17,1.08.31,1.64,2.49,10.03,18.09,19.43,18.09,19.43,4.84-2.34,9.23-4.7,13.14-6.99Z"/><path class="cls-44" d="m525.51,434.5c-5.8,4.18-11.63,10.44-15.48,18.11-1.21,2.43-2.16,4.85-2.87,7.24-.29-7.04-1.03-25.4-1.35-32.5-.27-5.72,9.88,2.37,19.7,7.15Z"/><path class="cls-44" d="m511.34,493.68c-.53.56-.98,1.04-1.34,1.45-.09-.17-.2-.43-.35-.77.56-.24,1.12-.46,1.7-.68Z"/><path class="cls-50" d="m507.27,462.64h0c-.64,2.28-1.31,5.01-1.99,8.28.16-3.52.72-7.25,1.88-11.07.06,1.64.11,2.67.11,2.79Z"/><path class="cls-45" d="m502.51,486.99c.93-6.44,1.87-11.73,2.77-16.07-.54,11.33,3.04,20.47,4.36,23.44-9.31,3.93-15.57,10.32-14.6,18.16l-.53.06c-.49-3.86-.76-6.91-.66-8.46.54-7.86,4.3-8.04,6.83-12.02.9-1.41,1.46-3.14,1.77-5.12h.04Z"/><path class="cls-8" d="m535.33,429.37c-1.62.1-3.24.04-4.94-.21-6.07-.91-10.45-5.23-10.45-5.23-11.37-7.13-18.65-13.73-20.21-15.36-.37-.38-.15,4.55-.04,8.81.1,3.35-.12,4.55.01,9.31.12,4.74-.05,15.5,1.95,38.82.73,8.42,1.7,15.96.83,21.48-.31,1.99-.87,3.72-1.77,5.12-2.53,3.97-6.29,4.16-6.83,12.02-.11,1.56.16,4.61.66,8.46.72,5.63,1.91,13,3.15,20.01.19,1.12-2.34.58-2.29,3.31.09,4.05,3.24,2.02,3.43,3,1.29,6.97,2.46,12.85,3.02,15.17.52,2.2.48,7.71,4.44,11.2,5.89,5.2,14.45,7.35,18.51,8.28,23.02,5.31,44.72,5.66,56.42,5.82,19.91.28,42.71.15,61.16-7.73,2.07-.88,5.94-2.3,9.75-4.41,4.12-2.29,6.68-6.47,7.07-11.05,0,0,.01,0,.01-.01.09-.91.08-1.84-.02-2.77-.09-.77.63-3.31,1.72-7.01.83-2.85,1.87-6.39,2.91-10.35.21-.81,2.28.23,3.06-2.47.64-2.24-1.48-2.55-1.31-3.27.99-4.12,1.73-8.25,2.16-12.2.34-3.16.48-6.2.38-9.04-.03-.95,1.2-2.41,1.1-3.28-.47-3.65-2.95-6.06-5.16-7.8-2.36-1.86-3.73-5.56-4.44-10.5"/><path class="cls-8" d="m547.19,426.85c-4.44,1.25-8.13,2.28-11.84,2.51"/><path class="cls-8" d="m557.65,424.18c-3.97.86-7.36,1.8-10.4,2.66"/><path class="cls-8" d="m659.5,486.93c-2.44-18.39,3.67-53.05,2.01-74.65-.02-.25-7.02,3.87-7.09,3.9-2.63,1.59-4.44,2.74-5.93,3.68-4.31,2.72-5.98,3.61-17.42,7.65-1.13.4-2.3.66-3.54.79-3.85.45-8.23-.23-13.06-1.29-4.21-.92-8.76-2.16-13.6-3.22-5.99-1.31-12.43-2.36-19.15-2.26-2.87.05-5.55.17-8.06.37-6.23.45-11.4,1.29-15.83,2.23"/><path class="cls-8" d="m605.97,464.05c-.08.08-.16.16-.24.26-2.49,2.99-.45,5.85.25,6.38.45.34.95.67,1.5.96.87.46,1.73.76,2.55.97,3.1.76,6.17-1.31,6.67-4.47.28-1.77.54-3.95-.41-5.99-1.25-2.7-1.5-2.99-2.85-4-.38-.28-.56-.34-.62-.25-.29.49,2.02,4.63-1.58,6.01-2.08.81-3.36-1.84-5.27.13Z"/><path class="cls-8" d="m553.45,464.31c2.48,2.99.44,5.85-.25,6.38-.45.34-.96.67-1.51.96-.87.46-1.73.76-2.55.97-3.1.76-6.17-1.31-6.67-4.47-.28-1.77-.54-3.95.41-5.99,1.25-2.7,1.51-2.99,2.85-4,2.17-1.62-2.16,4.09,2.2,5.77,2.18.84,3.47-2.05,5.52.39Z"/><path class="cls-8" d="m501.83,554.07c.62,3.77,80.78,27.12,157.34,2.11h.01"/><path class="cls-8" d="m659.18,556.17h0c-1.12-3.06-3.93-8.07-7.99-13.47-3.52-4.68-7.99-9.66-13.11-13.9-2.36-1.97-4.87-3.77-7.48-5.32-9.56-5.66-18.66-8.52-27.15-9.94-8.49-1.41-16.38-1.39-23.54-1.29-2.23.03-4.37.11-6.42.23-.17,0-.33.01-.49.02-25.13,1.5-36.53,8.97-41.31,11.71-2.53,1.45-4.84,2.92-6.94,4.4-13.22,9.37-18.24,19.11-22.91,25.45"/><path class="cls-8" d="m507.27,462.64c0-.12-.04-1.15-.11-2.79-.29-7.04-1.03-25.4-1.35-32.5-.27-5.72,9.88,2.37,19.7,7.15"/><path class="cls-8" d="m652.7,456.66v-.05c.11-1.17,1.8-20.91,2.42-28.69.14-1.84-.6-2.24-1.99-1.83-4.61,1.4-16.29,12.14-25.12,10.16-.06-.01-.12-.03-.18-.04"/><path class="cls-8" d="m647.81,451.83s2.02-2.04,4.9,4.78c1.99,4.7,4.38,13.62,6.8,30.32.02.18.05.35.08.54"/><path class="cls-8" d="m514.23,451.83s-3.03-3.06-6.96,10.82h0c-.64,2.28-1.31,5.01-1.99,8.28-.9,4.34-1.84,9.62-2.77,16.07-.02.15-.04.31-.06.47"/><path class="cls-8" d="m597.85,481.84s8.15-3.37,19.2-2.26c1.7.17,3.48.44,5.31.86"/><path class="cls-8" d="m599.29,483.44s7.28-1.54,16.75.63c2.43.55,4.99,1.35,7.62,2.48"/><path class="cls-8" d="m561.33,481.84s-10.87-4.49-24.51-1.4"/><path class="cls-8" d="m559.88,483.44s-11.5-2.43-24.35,3.11"/><path class="cls-8" d="m620.37,433.25s1.3-.18,3.39.58c1.19.43,2.63,1.16,4.24,2.42,1.12.86,2.31,1.97,3.56,3.39"/><path class="cls-8" d="m544.62,434.91s-5.02-.69-11.19,6.39"/><path class="cls-8" d="m664.58,535.7s-1.78.01-2.94.24-5.01.02-5.64-.24"/></g></svg>