<?xml version="1.0" encoding="UTF-8"?><svg id="pig" xmlns="http://www.w3.org/2000/svg" viewBox="0 0 170.17 170.43"><defs><style>.cls-1{fill:#ed99eb;}.cls-2{fill:#ed99a1;}.cls-3{fill:#edbcd4;}.cls-4{fill:#db8f88;}.cls-5{stroke-linecap:round;stroke-linejoin:round;stroke-width:.5px;}.cls-5,.cls-6{stroke:#000;}.cls-5,.cls-6,.cls-7{fill:none;}.cls-6,.cls-7{stroke-miterlimit:10;}.cls-7{stroke:#db8f88;}</style></defs><g><g><path class="cls-2" d="m132.37,44.31c-1.48-1.44-4.18-4.22-8.03-7.34,2.43-.87,5.3-.92,6.67-.86.54.03,1.07.09,1.59.2,2.81.58,14.02,2.78,17.74,1.52,0,0,5.6-1.91,6.77-3.91,5.07,5.51-2.72,28.79-20.26,14.53-1.97-2.39-3.67-3.35-4.48-4.13Z"/><path class="cls-1" d="m123.41,69.88c3.08-1.37,6.91.53,8.55,4.25,1.65,3.71.49,7.82-2.59,9.19-3.07,1.37-6.91-.54-8.55-4.25s-.48-7.82,2.59-9.19Z"/><path d="m111.2,63.1c.81,1.66.86,3.36.63,4.81-.41,2.59-2.92,4.29-5.47,3.67-.66-.17-1.37-.42-2.09-.79-.45-.25-.86-.51-1.23-.79-.57-.42-1.95-3.5-.5-6.63.31-.66.75-1.61,1.8-2.33,1.31-.89,3.2-1.14,4.72-.34,1.22.63,1.78,1.67,2.14,2.41Z"/><path class="cls-1" d="m98.32,94.15c-4.9,5.99-12.55,5.94-13.93,5.93-1.31,0-9.16-.06-14.05-6.32-3.16-4.05-3.42-8.55-3.42-10.31,0-1.48.02-4.69,1.97-7.85,4.3-6.96,14-7.24,15.5-7.24h.66c1.27.03,10.19.25,14.57,6.84,2.5,3.76,2.31,7.78,2.24,9.29-.05,1.3-.33,5.72-3.54,9.66Zm-5.89-12.05c0-2.4-.87-4.34-1.94-4.34s-1.94,1.95-1.94,4.34.87,4.33,1.94,4.33,1.94-1.95,1.94-4.33Zm-12.25,0c0-2.4-.86-4.34-1.93-4.34s-1.94,1.95-1.94,4.34.86,4.33,1.94,4.33,1.93-1.95,1.93-4.33Z"/><path class="cls-2" d="m149.38,139.85c-62.8,20.51-128.54,1.35-129.05-1.74,4.44-6.03,9.26-15.8,24.48-24.49,4.26-2.43,12.98-9.5,37.58-9.83,11.77-.17,22.71-.56,38.39,8.71,12.11,7.18,26.49,21.6,28.6,27.3,0,.02,0,.03,0,.04Z"/><path d="m90.49,77.76c1.07,0,1.94,1.95,1.94,4.34s-.87,4.33-1.94,4.33-1.94-1.95-1.94-4.33.87-4.34,1.94-4.34Z"/><path class="cls-3" d="m131.97,74.13c-1.65-3.72-5.47-5.61-8.55-4.25-3.07,1.37-4.24,5.48-2.59,9.19s5.48,5.61,8.55,4.25c3.08-1.37,4.24-5.48,2.59-9.19Zm-47.57,25.95c1.37,0,9.03.06,13.93-5.93,3.22-3.95,3.49-8.36,3.54-9.66.07-1.51.26-5.52-2.24-9.29-4.38-6.59-13.3-6.81-14.57-6.84h-.66c-1.5,0-11.2.28-15.5,7.24-1.96,3.16-1.96,6.37-1.97,7.85,0,1.75.26,6.26,3.42,10.31,4.89,6.26,12.74,6.31,14.05,6.32Zm-38.6-63.35c-2.31-.7-4.85-.73-6.13-.68-.54.02-1.07.09-1.59.19-2.8.59-14.01,2.78-17.73,1.52,0,0-5.61-1.91-6.78-3.91.87-.97,2.14-1.39,3.82-.98,8.65,2.11,15.14-15.81,32.78.6l.14-.16c8.26-5.76,19.81-11.32,34.23-11.31h.11c15.24.03,27.25,5.96,35.57,11.83,17.88-16.92,24.38,1.24,33.09-.89,1.67-.41,2.94,0,3.81.97-1.16,2-6.77,3.91-6.77,3.91-3.73,1.27-14.93-.93-17.74-1.52-.53-.11-1.06-.18-1.59-.2-1.37-.05-4.24,0-6.67.86,3.85,3.12,6.55,5.9,8.03,7.34.81.78,2.5,1.74,4.48,4.13,4.99,6.03,11.75,21.21,10.45,65.71-.02.85,3.7,1.8.49,3.06-.43.18-.61.46-.63.93-.09,2.33-.2,4.72-.33,7.2-.26,4.75,2.26,9.36,2.54,12.18.08.77.08,1.53,0,2.28-2.11-5.7-16.48-20.12-28.6-27.3-15.68-9.28-26.62-8.88-38.39-8.71-24.6.33-33.31,7.4-37.58,9.83-15.22,8.7-20.04,18.47-24.48,24.49-1.56-6.55,1.92-10.68,1.85-13.43-.04-1.64-1.53-3.6-1.56-5.18-.04-2,1.42-3.59,1.41-5.48-.12-42.5,5.88-57.84,11.62-65.49h0c1.05-1.41,2.1-2.55,3.09-3.57.49-.49,1.04-.95,1.55-1.43.18-.16.34-.32.51-.48,1.7-1.68,4.04-3.93,6.99-6.33Zm19.99,33.27c.56-.42,1.95-3.5.5-6.63-.31-.66-.75-1.61-1.8-2.33-1.31-.89-3.2-1.14-4.73-.34-1.22.63-1.77,1.67-2.13,2.41-.82,1.66-.87,3.36-.64,4.81.41,2.59,2.92,4.29,5.47,3.67.67-.17,1.37-.42,2.09-.79.46-.25.87-.51,1.24-.79Zm-19.2,9.07c1.65-3.71.48-7.82-2.59-9.19s-6.91.53-8.55,4.25c-1.65,3.71-.48,7.82,2.59,9.19s6.91-.54,8.55-4.25Zm65.25-11.16c.23-1.45.18-3.15-.63-4.81-.36-.73-.92-1.78-2.14-2.41-1.52-.79-3.41-.55-4.72.34-1.05.71-1.49,1.67-1.8,2.33-1.44,3.14-.07,6.21.5,6.63.37.28.78.55,1.23.79.72.37,1.43.63,2.09.79,2.55.62,5.07-1.08,5.47-3.67Z"/><path d="m78.24,77.76c1.07,0,1.93,1.95,1.93,4.34s-.86,4.33-1.93,4.33-1.94-1.95-1.94-4.33.86-4.34,1.94-4.34Z"/><path d="m66.29,63.36c1.44,3.14.06,6.21-.5,6.63-.37.28-.78.55-1.24.79-.71.37-1.42.63-2.09.79-2.55.62-5.06-1.08-5.47-3.67-.23-1.45-.18-3.15.64-4.81.36-.73.92-1.78,2.13-2.41,1.53-.79,3.42-.55,4.73.34,1.05.71,1.49,1.67,1.8,2.33Z"/><path class="cls-1" d="m44,69.88c3.07,1.37,4.24,5.48,2.59,9.19-1.65,3.71-5.48,5.61-8.55,4.25s-4.24-5.48-2.59-9.19c1.65-3.72,5.48-5.61,8.55-4.25Z"/><path class="cls-2" d="m38.3,43.54c-.51.48-1.06.93-1.55,1.43-1,1.01-2.04,2.16-3.09,3.56h0c-17.41,13.96-25.12-9.16-20.09-14.67,1.16,2,6.78,3.91,6.78,3.91,3.73,1.26,14.93-.93,17.73-1.52.53-.11,1.06-.18,1.59-.19,1.28-.05,3.82-.02,6.13.68-2.95,2.4-5.29,4.64-6.99,6.33-.17.17-.33.33-.51.48Z"/><path class="cls-4" d="m20.33,138.11c.51,3.08,66.25,22.25,129.05,1.74-.33,3.76-2.41,7.18-5.8,9.06-3.12,1.73-6.29,2.89-7.99,3.62-15.14,6.46-33.83,6.57-50.17,6.34-9.59-.13-27.4-.43-46.28-4.78-3.33-.77-10.35-2.53-15.18-6.79-3.24-2.86-3.22-7.38-3.64-9.19Z"/></g><g><path class="cls-6" d="m120.27,33.88s-.04-.03-.06-.04c-8.32-5.88-20.33-11.81-35.57-11.83h-.11c-14.42,0-25.97,5.55-34.23,11.31"/><path class="cls-6" d="m33.65,48.53c-5.74,7.66-11.74,22.99-11.62,65.49,0,1.89-1.44,3.48-1.41,5.48.03,1.58,1.52,3.54,1.56,5.18.07,2.75-3.41,6.87-1.85,13.43.42,1.81.4,6.33,3.64,9.19,4.83,4.26,11.85,6.03,15.18,6.79,18.88,4.34,36.69,4.64,46.28,4.78,16.33.23,35.02.11,50.17-6.34,1.7-.73,4.87-1.89,7.99-3.62,3.39-1.88,5.47-5.29,5.8-9.06,0-.02,0-.03,0-.04.07-.75.07-1.52,0-2.28-.28-2.83-2.79-7.44-2.54-12.18.13-2.48.25-4.87.33-7.2.02-.48.19-.76.63-.93,3.21-1.26-.51-2.21-.49-3.06,1.3-44.5-5.46-59.67-10.45-65.71-1.97-2.39-3.67-3.35-4.48-4.13-1.48-1.44-4.18-4.22-8.03-7.34-.02-.02-.04-.03-.05-.04"/><path class="cls-6" d="m45.9,36.64s-.07.06-.11.09c-2.95,2.4-5.29,4.64-6.99,6.33-.17.17-.33.33-.51.48-.51.48-1.06.93-1.55,1.43-1,1.01-2.04,2.16-3.09,3.56"/><path class="cls-6" d="m102.54,63.36c-1.44,3.14-.07,6.21.5,6.63.37.28.78.55,1.23.79.72.37,1.43.63,2.09.79,2.55.62,5.07-1.08,5.47-3.67.23-1.45.18-3.15-.63-4.81-.36-.73-.92-1.78-2.14-2.41-1.52-.79-3.41-.55-4.72.34-1.05.71-1.49,1.67-1.8,2.33Z"/><path class="cls-6" d="m66.29,63.36c1.44,3.14.06,6.21-.5,6.63-.37.28-.78.55-1.24.79-.71.37-1.42.63-2.09.79-2.55.62-5.06-1.08-5.47-3.67-.23-1.45-.18-3.15.64-4.81.36-.73.92-1.78,2.13-2.41,1.53-.79,3.42-.55,4.73.34,1.05.71,1.49,1.67,1.8,2.33Z"/><path class="cls-6" d="m80.17,82.1c0,2.39-.86,4.33-1.93,4.33s-1.94-1.95-1.94-4.33.86-4.34,1.94-4.34,1.93,1.95,1.93,4.34Z"/><path class="cls-6" d="m92.43,82.1c0,2.39-.87,4.33-1.94,4.33s-1.94-1.95-1.94-4.33.87-4.34,1.94-4.34,1.94,1.95,1.94,4.34Z"/><path class="cls-6" d="m20.33,138.11c.51,3.08,66.25,22.25,129.05,1.74t.02,0"/><path class="cls-7" d="m20.33,138.11c4.44-6.03,9.26-15.8,24.48-24.49,4.26-2.43,12.98-9.5,37.58-9.83,11.77-.17,22.71-.56,38.39,8.71,12.11,7.18,26.49,21.6,28.6,27.3,0,0,.02.03.02.04"/><path class="cls-6" d="m101.86,84.49c-.05,1.3-.33,5.72-3.54,9.66-4.9,5.99-12.55,5.94-13.93,5.93-1.31,0-9.16-.06-14.05-6.32-3.16-4.05-3.42-8.55-3.42-10.31,0-1.48.02-4.69,1.97-7.85,4.3-6.96,14-7.24,15.5-7.24h.66c1.27.03,10.19.25,14.57,6.84,2.5,3.76,2.31,7.78,2.24,9.29Z"/><path class="cls-6" d="m117.12,36.98c1.07-1.16,2.09-2.21,3.08-3.15,17.88-16.92,24.38,1.24,33.09-.89,1.67-.41,2.94,0,3.81.97,5.07,5.51-2.72,28.79-20.26,14.53"/><path class="cls-6" d="m120.78,39.67c.73-1.32,2.06-2.17,3.56-2.7,2.43-.87,5.3-.92,6.67-.86.54.03,1.07.09,1.59.2,2.81.58,14.02,2.78,17.74,1.52,0,0,5.6-1.91,6.77-3.91"/><path class="cls-6" d="m132.37,44.31s12.26,1.73,16.18-1.41"/><path class="cls-6" d="m53.56,36.91c-1.17-1.29-2.31-2.42-3.39-3.44-17.65-16.41-24.13,1.52-32.78-.6-1.68-.41-2.95,0-3.82.98-5.03,5.51,2.68,28.62,20.09,14.68h0c.06-.05.11-.11.18-.15"/><path class="cls-6" d="m49.9,39.6c-.81-1.48-2.4-2.36-4.11-2.87-2.31-.7-4.85-.73-6.13-.68-.54.02-1.07.09-1.59.19-2.8.59-14.01,2.78-17.73,1.52,0,0-5.61-1.91-6.78-3.91"/><path class="cls-6" d="m38.3,43.54s-12.25,2.44-16.18-.7"/><path class="cls-6" d="m84.61,14.91c.74-2.62-.33-6.83-1.26-11.74"/><path class="cls-6" d="m84.61,14.91c-.15-.6-.34-1.17-.59-1.7-.32-.66-.99-2.09-2.24-2.29-1.22-.19-2.42.9-2.95,1.92-.83,1.61-.37,4.09,1.11,4.79,1.37.64,3.37-.37,4.18-1.59.22-.33.38-.71.49-1.13Z"/><path class="cls-6" d="m83.78,25.9s.51-1.65.86-3.89c.33-2.12.51-4.79-.04-7.09"/><path class="cls-7" d="m46.59,79.07c-1.65,3.71-5.48,5.61-8.55,4.25s-4.24-5.48-2.59-9.19c1.65-3.72,5.48-5.61,8.55-4.25s4.24,5.48,2.59,9.19Z"/><path class="cls-7" d="m120.82,79.07c1.65,3.71,5.48,5.61,8.55,4.25,3.08-1.37,4.24-5.48,2.59-9.19-1.65-3.72-5.47-5.61-8.55-4.25-3.07,1.37-4.24,5.48-2.59,9.19Z"/></g></g><path class="cls-6" d="m25.54,143.66s47.89,24.21,119.12,1.23"/><path class="cls-7" d="m30.21,134.46s54.29,17.68,108.62,0"/><path class="cls-5" d="m49.29,56.14s.15-9.55,11.59-5.07"/><path class="cls-5" d="m118.52,56.14s-.15-9.55-11.59-5.07"/></svg>