<?xml version="1.0" encoding="UTF-8"?><svg id="three" xmlns="http://www.w3.org/2000/svg" viewBox="0 0 72.07 70.82"><defs><style>.cls-1{fill:none;stroke:#000;stroke-miterlimit:10;stroke-width:3px;}.cls-2{fill:#c92c5e;}.cls-3{fill:#3cd59c;}</style></defs><g><path class="cls-3" d="m67.59,3.86v63.11H4.48V3.86h63.11Zm-8.37,54.49c2.88-2.92,2.85-7.63-.08-10.52-2.92-2.88-7.63-2.85-10.52.08-2.88,2.92-2.85,7.63.08,10.52,2.92,2.88,7.63,2.85,10.52-.08Zm-17.31-17.56c2.88-2.93,2.85-7.64-.08-10.52-2.92-2.89-7.63-2.86-10.52.07-2.88,2.92-2.85,7.64.08,10.52,2.92,2.89,7.63,2.85,10.52-.07Zm-17.31-17.54c2.88-2.93,2.85-7.64-.08-10.53-2.92-2.88-7.63-2.85-10.52.08-2.88,2.92-2.85,7.63.08,10.52,2.92,2.88,7.63,2.85,10.52-.07Z"/><path class="cls-2" d="m59.14,47.83c2.93,2.89,2.96,7.6.08,10.52-2.89,2.93-7.6,2.96-10.52.08-2.93-2.89-2.96-7.6-.08-10.52,2.89-2.93,7.6-2.96,10.52-.08Z"/><path class="cls-2" d="m41.83,30.27c2.93,2.88,2.96,7.59.08,10.52-2.89,2.92-7.6,2.96-10.52.07-2.93-2.88-2.96-7.6-.08-10.52,2.89-2.93,7.6-2.96,10.52-.07Z"/><path class="cls-2" d="m24.52,12.72c2.93,2.89,2.96,7.6.08,10.53-2.89,2.92-7.6,2.95-10.52.07-2.93-2.89-2.96-7.6-.08-10.52,2.89-2.93,7.6-2.96,10.52-.08Z"/></g><rect class="cls-1" x="4.48" y="3.86" width="63.11" height="63.11"/></svg>