<?xml version="1.0" encoding="UTF-8"?><svg id="four" xmlns="http://www.w3.org/2000/svg" viewBox="0 0 72.07 70.82"><defs><style>.cls-1{fill:none;stroke:#000;stroke-miterlimit:10;stroke-width:3px;}.cls-2{fill:#c92c5e;}.cls-3{fill:#3cd59c;}</style></defs><g><path class="cls-3" d="m67.6,3.86v63.11H4.48V3.86h63.12Zm-9.1,17.38c0-3.66-2.96-6.62-6.61-6.62s-6.62,2.96-6.62,6.62,2.96,6.61,6.62,6.61,6.61-2.96,6.61-6.61Zm0,29.82c0-3.65-2.96-6.61-6.61-6.61s-6.62,2.96-6.62,6.61,2.96,6.62,6.62,6.62,6.61-2.96,6.61-6.62Zm-31.31-29.82c0-3.66-2.96-6.62-6.61-6.62s-6.62,2.96-6.62,6.62,2.96,6.61,6.62,6.61,6.61-2.96,6.61-6.61Zm0,29.82c0-3.65-2.96-6.61-6.61-6.61s-6.62,2.96-6.62,6.61,2.96,6.62,6.62,6.62,6.61-2.96,6.61-6.62Z"/><path class="cls-2" d="m51.89,14.62c3.65,0,6.61,2.96,6.61,6.62s-2.96,6.61-6.61,6.61-6.62-2.96-6.62-6.61,2.96-6.62,6.62-6.62Z"/><path class="cls-2" d="m51.89,44.45c3.65,0,6.61,2.96,6.61,6.61s-2.96,6.62-6.61,6.62-6.62-2.96-6.62-6.62,2.96-6.61,6.62-6.61Z"/><path class="cls-2" d="m20.58,14.62c3.65,0,6.61,2.96,6.61,6.62s-2.96,6.61-6.61,6.61-6.62-2.96-6.62-6.61,2.96-6.62,6.62-6.62Z"/><path class="cls-2" d="m20.58,44.45c3.65,0,6.61,2.96,6.61,6.61s-2.96,6.62-6.61,6.62-6.62-2.96-6.62-6.62,2.96-6.61,6.62-6.61Z"/></g><rect class="cls-1" x="4.48" y="3.86" width="63.12" height="63.11"/></svg>