<?xml version="1.0" encoding="UTF-8"?><svg id="Layer_1" xmlns="http://www.w3.org/2000/svg" viewBox="0 0 1171.94 136.43"><defs><style>.cls-1{fill:#eb9447;}.cls-2{fill:#ca6a16;}.cls-3{fill:#12a57c;}.cls-4{fill:#0e8160;}.cls-5{opacity:.79;}</style></defs><g class="cls-5"><g><path class="cls-3" d="M420.2,76.68c-.31-.87,.31-1.8,1.24-1.79,3.83,.05,12.37,.92,13.73,7.57,0,0,1.08,3.32,2.78,6.15,.74,1.23-8.62-1.37-10.43-2.83-3.28-2.65-3.41,1.67-7.31-9.11Z"/><path d="M420.56,76.59c-.22-.79,.15-1.42,.98-1.5,.34-.03,.72,.02,1.07,.04,.81,.05,1.63,.13,2.43,.26,1.83,.28,3.65,.76,5.3,1.61,1.75,.91,3.26,2.3,4.02,4.15,.25,.6,.36,1.24,.58,1.86,.35,.99,.74,1.96,1.17,2.91,.27,.59,.55,1.16,.85,1.73,.07,.13,.69,1.22,.72,1.14,.03-.08-.24-.03-.44-.05-.32-.03-.64-.08-.95-.14-1.7-.31-3.39-.82-5.02-1.39-1.32-.46-2.58-.97-3.72-1.79-.66-.47-1.35-.74-2.13-.92-.84-.2-1.4-.57-1.91-1.29-1.39-1.94-2.15-4.42-2.95-6.63-.08-.23-.8-.01-.72,.19,.8,2.21,1.57,4.61,2.9,6.57,.51,.76,1.1,1.24,1.99,1.46,1,.25,1.71,.6,2.55,1.2,1.38,.97,3.16,1.48,4.75,1.98s3.32,1.04,5,1.14c.33,.02,.94,.06,1.19-.23,.1-.11,.12-.15,.11-.3-.02-.22-.31-.55-.42-.73-.22-.4-.43-.81-.64-1.22-.58-1.18-1.09-2.4-1.54-3.63-.27-.74-.41-1.52-.73-2.24-.84-1.89-2.43-3.27-4.25-4.18-2.06-1.03-4.38-1.51-6.65-1.73-1.41-.14-4.96-.6-4.27,1.93,.06,.22,.79,.03,.72-.19Z"/></g><path class="cls-4" d="M433.46,84.95s-1.86-7.29-6.48-6.68c0,0-.79-.28-2.32-1.16-1.79-1.03-.3,5.11,1.99,5.67,2.28,.56-.47,2.13,6.81,2.16Z"/></g><g class="cls-5"><g><path class="cls-1" d="M655.16,122.55s-13.22-2.07-13.31-10.47c0,0-.69-1.37-2.61-3.95-2.24-3.02,8.87-1.41,10.42,2.58s3.61-1.21,5.49,11.84Z"/><path d="M655.39,122.44c-2.55-.4-5.12-1.27-7.39-2.48-1.77-.93-3.46-2.16-4.58-3.84-.55-.83-.95-1.75-1.14-2.73-.14-.71-.06-1.27-.43-1.89-.68-1.15-1.46-2.24-2.24-3.32-.28-.38-.64-.95-.11-1.3,.58-.38,1.65-.2,2.3-.13,.93,.11,1.86,.32,2.75,.61,1.71,.55,3.84,1.47,4.7,3.17,.44,.86,.71,1.61,1.59,2.1s1.51,.89,2,1.81c1.31,2.44,1.63,5.5,2.02,8.19,.02,.11,.6-.01,.58-.16-.39-2.65-.72-5.58-1.93-8.01-.44-.88-1.01-1.45-1.87-1.89-.93-.48-1.31-1.11-1.74-2.04-.79-1.71-2.75-2.65-4.43-3.24s-3.6-1.06-5.37-.76c-.43,.07-1.06,.21-1.33,.6-.42,.61,.38,1.37,.7,1.81,.68,.95,1.49,1.96,1.98,3.03,.12,.26,.11,.4,.13,.71,.04,.58,.15,1.16,.33,1.71,.65,2,2.14,3.59,3.85,4.76,2.65,1.83,5.97,3.02,9.16,3.52,.13,.02,.63-.2,.48-.22Z"/></g><path class="cls-2" d="M650.92,118.55s-7.12-1.51-6.9-5.95c0,0-.33-.74-1.29-2.17-1.12-1.67,4.86-.47,5.58,1.69,.72,2.16,2-.52,2.61,6.42Z"/><g><path class="cls-1" d="M656.85,122c-.68,.53-1.73,.22-2.01-.63-1.19-3.51-3.15-11.55,2.43-14.65,0,0,2.66-1.91,4.67-4.26,.88-1.02,1.54,8.25,.8,10.31-1.34,3.73,2.61,2.65-5.88,9.22Z"/><path d="M656.64,121.92c-1.58,1-2.26-3.53-2.42-4.39-.33-1.79-.48-3.65-.18-5.46,.33-1.95,1.24-3.77,2.89-4.91,1.32-.91,2.55-1.88,3.71-2.99,.41-.39,.81-.79,1.19-1.2l.22-.25c.35-.31,.28-.35-.21-.13,0,.01,.11,.14,.11,.18,0,.46,.3,1.1,.38,1.57,.24,1.56,.33,3.16,.35,4.73,.02,1.31,.02,2.65-.36,3.9-.24,.79-.3,1.5-.21,2.31s0,1.42-.5,2.11c-1.29,1.82-3.31,3.22-5.05,4.57-.31,.24,.41,.2,.57,.08,1.74-1.35,3.69-2.74,5.03-4.51,.51-.67,.77-1.33,.7-2.17-.08-1-.03-1.75,.25-2.73,.42-1.48,.32-3.18,.26-4.71-.06-1.64-.09-3.44-.58-5.02-.44-1.41-1.36-.23-1.98,.41-.95,.99-1.98,1.9-3.05,2.75-.58,.46-1.22,.82-1.79,1.28-1.59,1.28-2.44,3.15-2.71,5.14-.31,2.24,0,4.54,.55,6.72,.2,.8,.36,1.91,.84,2.6,.56,.8,1.66,.74,2.41,.27,.41-.26-.23-.3-.44-.17Z"/></g><path class="cls-2" d="M660.05,107.58s-5.99,3.73-3.95,7.78c0,0,0,.8-.3,2.44-.35,1.92,4.72-1.16,4.49-3.4s2.07-.17-.24-6.82Z"/></g><g class="cls-5"><g><path class="cls-1" d="M573.35,97.66c-.79-.34-1.03-1.36-.43-1.98,2.48-2.58,8.53-7.86,13.94-4.53,0,0,2.96,1.39,5.98,2.03,1.31,.28-6.45,5.01-8.6,5.31-3.9,.55-1.04,3.4-10.89-.83Z"/><path d="M573.64,97.49c-2.1-1.15,1.43-3.58,2.38-4.32,1.72-1.33,3.74-2.54,5.94-2.84,1.1-.15,2.22-.06,3.27,.32,.65,.23,1.22,.61,1.85,.88,.81,.35,1.64,.67,2.47,.96,.53,.18,1.07,.35,1.61,.51,.17,.05,1.4,.25,1.45,.37,.17,.49-1.93,1.69-2.22,1.88-1.25,.81-2.55,1.56-3.89,2.21-1.58,.77-3.32,.91-4.8,1.87-.64,.42-1.16,.47-1.92,.34-2.11-.36-4.18-1.34-6.13-2.17-.19-.08-.86,.21-.58,.33,1.99,.85,4.05,1.81,6.19,2.19,.83,.15,1.66,.15,2.43-.23,.65-.33,1.17-.8,1.89-1,1.25-.34,2.37-.65,3.54-1.24,1.58-.78,3.12-1.68,4.56-2.69,.34-.24,1.95-1.18,1.6-1.77-.12-.21-.72-.21-.91-.25-.8-.2-1.6-.45-2.38-.72-.91-.32-1.85-.65-2.72-1.08-1.9-.94-3.66-1.38-5.78-.95-2.39,.49-4.56,1.81-6.44,3.33-1.06,.86-4.3,3.15-1.99,4.42,.19,.1,.86-.18,.58-.33Z"/></g><path class="cls-2" d="M587.47,93.88s-6.17-3.39-8.7,.16c0,0-.7,.36-2.27,.84-1.84,.56,3.3,3.47,5.14,2.27,1.84-1.2,1.15,1.68,5.83-3.27Z"/></g><g class="cls-5"><g><path class="cls-1" d="M379.73,52.63s8.89-2.06,10.88,3.38c0,0,.76,.71,2.57,1.9,2.12,1.39-5.32,3.21-7.23,1.01-1.91-2.2-2.02,1.72-6.23-6.29Z"/><path d="M379.68,52.72c1.68-.39,3.51-.48,5.22-.27,1.33,.16,2.67,.54,3.75,1.36,.58,.43,1.05,.99,1.39,1.62,.22,.41,.27,.65,.62,.94,.69,.57,1.43,1.06,2.16,1.56,.3,.21,.61,.45,.37,.84-.25,.41-.9,.6-1.33,.73-.68,.2-1.39,.3-2.1,.33-1.26,.05-2.66-.1-3.57-1.06-.4-.42-.79-.69-1.37-.77-.65-.09-1.13-.2-1.64-.66-1.4-1.25-2.3-3.16-3.16-4.79-.07-.13-.62,.09-.58,.16,.85,1.6,1.72,3.38,3.03,4.67,.49,.48,.99,.73,1.66,.81s1.06,.33,1.54,.81c.92,.94,2.37,1.08,3.63,1.04s2.57-.25,3.69-.81c.3-.15,.75-.38,.85-.74,.12-.48-.48-.75-.79-.95-.67-.45-1.46-.91-2.02-1.5-.39-.42-.55-1.08-.93-1.55-.89-1.1-2.21-1.73-3.57-2.04-2.16-.5-4.58-.4-6.73,.1-.21,.05-.52,.28-.11,.19Z"/></g><path class="cls-2" d="M382.95,53.96s4.88-.85,5.76,2.09c0,0,.38,.4,1.32,1.08,1.1,.8-2.99,1.56-3.94,.34s-1.15,.86-3.14-3.51Z"/></g><g class="cls-5"><g><path class="cls-1" d="M638.04,25.2c-.29-.81,.29-1.68,1.16-1.67,3.58,.05,11.57,.86,12.84,7.08,0,0,1.01,3.11,2.6,5.75,.69,1.15-8.06-1.28-9.75-2.65-3.06-2.48-3.19,1.56-6.84-8.51Z"/><path d="M638.41,25.1c-.2-.72,.12-1.3,.89-1.38,.32-.03,.68,.02,1,.04,.76,.05,1.52,.12,2.27,.24,1.71,.26,3.41,.71,4.96,1.51,1.64,.85,3.04,2.14,3.75,3.87,.23,.57,.34,1.16,.54,1.74,.33,.92,.69,1.83,1.1,2.72,.25,.55,.51,1.09,.79,1.62,.15,.28,.29,.64,.49,.88-.08-.1,.21,.38,.19,.18-.01-.1,.13,0-.06-.04-.1-.02-.22,0-.33-.02-.3-.02-.6-.08-.89-.13-1.59-.29-3.16-.76-4.69-1.29-1.24-.43-2.41-.9-3.47-1.67-.62-.44-1.27-.69-2-.87-.78-.19-1.3-.53-1.78-1.2-1.3-1.81-2.01-4.13-2.76-6.2-.08-.23-.8-.01-.72,.19,.75,2.06,1.47,4.31,2.71,6.14,.48,.71,1.04,1.16,1.87,1.37,.93,.23,1.59,.56,2.38,1.11,1.29,.91,2.96,1.39,4.45,1.85s3.11,.98,4.69,1.07c.32,.02,.9,.05,1.14-.23,.09-.11,.12-.15,.11-.29-.02-.2-.29-.51-.39-.69-.21-.37-.41-.75-.59-1.14-.54-1.1-1.02-2.24-1.44-3.4-.25-.69-.38-1.42-.68-2.1-.78-1.77-2.27-3.06-3.98-3.91-1.93-.96-4.1-1.41-6.23-1.62-1.33-.13-4.68-.56-4.03,1.82,.06,.22,.79,.03,.72-.19Z"/></g><path class="cls-2" d="M650.45,32.93s-1.74-6.82-6.06-6.24c0,0-.74-.26-2.17-1.09-1.67-.96-.28,4.78,1.86,5.31,2.14,.53-.44,1.99,6.37,2.02Z"/></g><g class="cls-5"><g><path class="cls-1" d="M410.03,116.57s2.68,8.73-2.6,11.09c0,0-.66,.8-1.71,2.7-1.24,2.22-3.58-5.08-1.52-7.14,2.06-2.06-1.85-1.89,5.83-6.65Z"/><path d="M409.74,116.65c.51,1.66,.74,3.49,.67,5.22-.06,1.36-.33,2.76-1.07,3.92-.4,.61-.92,1.13-1.55,1.51-.43,.26-.62,.33-.89,.72-.51,.71-.94,1.48-1.38,2.23-.26,.44-.33,.43-.68,0-.73-.93-.99-2.34-1.11-3.48-.13-1.27-.06-2.62,.83-3.61,.37-.42,.62-.84,.65-1.4,.04-.63,.1-1.1,.49-1.62,1.12-1.49,2.97-2.51,4.52-3.47,.33-.21-.17-.29-.36-.18-1.54,.96-3.22,1.95-4.44,3.32-.45,.51-.75,1.04-.78,1.72-.03,.63-.14,1.06-.58,1.55-.87,.97-1.03,2.21-.94,3.48s.37,2.77,1.13,3.83c.48,.66,1.24,.74,1.72,.02,.53-.81,.96-1.67,1.53-2.46,.28-.39,.69-.46,1.14-.8,1.16-.87,1.84-2.19,2.15-3.58,.5-2.28,.23-4.85-.45-7.07-.06-.21-.64-.05-.58,.16Z"/></g><path class="cls-2" d="M408.94,119.87s1.19,4.81-1.68,5.89c0,0-.37,.41-.98,1.4-.72,1.15-1.77-2.87-.62-3.91s-.94-1.09,3.28-3.38Z"/></g><g class="cls-5"><g><path class="cls-1" d="M481.3,18.08s11.74-2.46,14.32,5.42c0,0,.99,1.06,3.38,2.85,2.79,2.1-7.04,4.3-9.54,1.05s-2.67,2.34-8.15-9.32Z"/><path d="M481.25,18.18c2.31-.48,4.84-.5,7.16-.07,1.82,.34,3.62,1.05,4.99,2.34,.75,.71,1.34,1.59,1.73,2.55,.24,.58,.38,.76,.84,1.19,.91,.84,2.01,1.5,2.89,2.37,.41,.4,.45,.82,.03,1.23-1.19,1.16-3.65,1.22-5.18,1.13-.93-.06-1.89-.22-2.73-.64-.68-.33-1.07-.83-1.57-1.36s-1-.77-1.68-.88c-.88-.15-1.5-.47-2.12-1.14-1.78-1.92-2.9-4.55-4-6.89-.06-.14-.62,.06-.58,.16,1.08,2.29,2.18,4.77,3.84,6.71,.58,.68,1.22,1.18,2.12,1.34,.77,.14,1.32,.3,1.88,.9s1,1.12,1.78,1.46c.82,.36,1.71,.51,2.6,.57,1.71,.11,3.59-.09,5.17-.79,.96-.43,1.9-1.19,.86-2.09s-2.11-1.63-3.08-2.56c-.57-.54-.71-1.44-1.15-2.11-1.09-1.67-2.8-2.74-4.68-3.32-2.83-.88-6.11-.88-9-.28-.22,.05-.52,.29-.11,.21Z"/></g><path class="cls-2" d="M486.06,20.44s6.44-.95,7.57,3.3c0,0,.5,.59,1.73,1.61,1.44,1.2-3.95,2.06-5.2,.27s-1.52,1.16-4.11-5.18Z"/><g><path class="cls-1" d="M480.04,19.17c.42-.73,1.39-.78,1.88-.08,2.05,2.91,6.09,9.83,2.33,14.61,0,0-1.66,2.69-2.66,5.57-.43,1.25-3.75-7.27-3.75-9.45,.01-3.96-2.98-1.62,2.19-10.65Z"/><path d="M480.37,19.16c.82-1.15,1.88,1.04,2.21,1.58,.49,.8,.93,1.62,1.33,2.46,.86,1.83,1.51,3.84,1.52,5.88,0,1-.16,1.99-.53,2.92-.31,.78-.83,1.42-1.24,2.14-.38,.65-.73,1.31-1.06,1.98-.25,.5-.48,1.01-.71,1.52-.14,.33-.28,.66-.41,1-.09,.23-.17,.46-.25,.69,.46,.02,.61-.02,.46-.11,0-.08-.57-.79-.64-.93-.31-.58-.57-1.18-.82-1.78-.6-1.43-1.13-2.91-1.55-4.4-.31-1.08-.37-2.1-.51-3.2-.08-.67-.35-1.22-.59-1.84-.29-.75-.23-1.44,0-2.2,.61-2.03,1.78-3.93,2.83-5.76,.09-.15-.6-.1-.72,.11-1.06,1.86-2.28,3.81-2.87,5.89-.21,.76-.24,1.45,.05,2.19,.31,.78,.57,1.47,.61,2.32,.07,1.47,.5,2.87,.97,4.27,.22,.66,2.04,6.8,3.41,5.48,.24-.23,.3-.71,.41-1.01,.29-.75,.62-1.48,.98-2.21,.4-.81,.81-1.65,1.31-2.41,1.21-1.88,1.8-3.7,1.53-5.96-.3-2.54-1.41-4.96-2.72-7.13-.4-.67-.92-1.86-1.7-2.15-.72-.27-1.54,.08-1.96,.68-.17,.24,.55,.16,.67-.01Z"/></g><path class="cls-2" d="M481.65,33.83s3.93-5.52,1-8.66c0,0-.24-.75-.47-2.4-.28-1.92-3.62,2.67-2.76,4.7,.86,2.04-1.7,.85,2.24,6.35Z"/></g><g class="cls-5"><g><path class="cls-3" d="M779.26,26.29c-.8-.45-.93-1.57-.23-2.16,2.94-2.46,9.99-7.36,15.35-3.2,0,0,2.98,1.82,6.12,2.86,1.36,.45-7.44,4.58-9.76,4.65-4.21,.13-1.5,3.49-11.48-2.15Z"/><path d="M779.59,26.15c-2.15-1.5,1.87-3.66,3.01-4.35,2-1.22,4.27-2.24,6.65-2.3,1.2-.03,2.38,.21,3.46,.73,.64,.31,1.2,.76,1.81,1.12,.8,.46,1.61,.88,2.44,1.27,.6,.28,1.2,.55,1.81,.8,.25,.1,1.44,.38,1.49,.57,.13,.49-2.21,1.53-2.51,1.68-1.51,.77-3.07,1.45-4.67,2-1.73,.6-3.49,.56-5.15,1.38-.76,.37-1.4,.32-2.21,.07-2.18-.66-4.22-1.9-6.19-3.01-.18-.1-.85,.17-.58,.33,2.01,1.13,4.1,2.4,6.33,3.05,.84,.24,1.68,.33,2.51,.01,.72-.28,1.32-.71,2.1-.83,1.39-.22,2.62-.43,3.96-.92,1.76-.65,3.49-1.42,5.14-2.33,.37-.21,2.23-1.05,1.95-1.7-.1-.22-.7-.29-.89-.36-.8-.3-1.59-.63-2.36-1-.96-.45-1.93-.92-2.83-1.49-1.88-1.17-3.59-1.9-5.86-1.73-2.63,.2-5.13,1.36-7.32,2.76-1.19,.76-5.08,2.89-2.78,4.51,.19,.14,.85-.15,.68-.27Z"/></g><path class="cls-4" d="M794.71,23.92s-6.16-4.32-9.27-.84c0,0-.78,.3-2.51,.63-2.02,.38,3.1,4.07,5.2,3.01,2.1-1.06,1.03,1.92,6.58-2.8Z"/></g><g class="cls-5"><g><path class="cls-3" d="M521.7,110.59s16.02-2,18.92,7.71c0,0,1.26,1.35,4.34,3.72,3.61,2.76-9.81,4.59-12.95,.48-3.14-4.12-3.78,2.6-10.31-11.9Z"/><path d="M521.66,110.76c3.03-.37,6.23-.22,9.21,.39,2.43,.5,4.88,1.39,6.77,3.05,.92,.82,1.69,1.81,2.21,2.93,.36,.77,.43,1.25,1.03,1.82,1.09,1.04,2.27,1.99,3.46,2.92,.54,.42,1.31,.97,.66,1.66-.6,.63-1.79,.82-2.6,.96-1.16,.21-2.36,.27-3.54,.23-2.2-.08-4.93-.46-6.48-2.21-.73-.83-1.34-1.52-2.44-1.8s-1.97-.48-2.83-1.34c-2.38-2.37-3.77-5.87-5.13-8.86-.1-.21-.67-.03-.58,.16,1.32,2.93,2.69,6.19,4.87,8.62,.8,.89,1.66,1.42,2.83,1.66,1.27,.27,1.89,.83,2.75,1.8,1.5,1.7,4.07,2.15,6.22,2.29s4.6,.06,6.57-.87c.45-.21,1.07-.55,1.2-1.07,.21-.85-.92-1.44-1.44-1.85-1.09-.86-2.42-1.76-3.3-2.85-.6-.74-.81-1.84-1.36-2.67-1.39-2.06-3.59-3.39-5.9-4.19-3.77-1.32-8.13-1.6-12.09-1.11-.29,.04-.47,.39-.07,.34Z"/></g><path class="cls-4" d="M527.94,113.83s8.76-.61,9.98,4.6c0,0,.63,.75,2.22,2.09,1.86,1.56-5.49,2.16-7.04-.11s-2.14,1.27-5.16-6.58Z"/><g><path class="cls-3" d="M519.91,111.8c.62-.84,1.93-.83,2.54,.06,2.54,3.68,7.5,12.34,2.06,17.79,0,0-2.45,3.1-3.99,6.49-.68,1.48-4.53-9.06-4.36-11.7,.31-4.77-3.91-2.2,3.75-12.65Z"/><path d="M520.25,111.8c1.29-1.43,2.52,1.15,3.03,1.98,.61,1.01,1.17,2.05,1.65,3.12,.95,2.11,1.68,4.41,1.68,6.74,0,2.54-1.05,4.31-2.58,6.23-.59,.74-1.12,1.55-1.64,2.35-.68,1.05-1.7,2.36-2.04,3.59l-.19,.4c.36-.01,.46-.07,.3-.18-.05-.07-.16-.13-.19-.22-.08-.22-.3-.46-.41-.67-.4-.72-.72-1.49-1.02-2.25-.69-1.72-1.29-3.49-1.76-5.28-.57-2.14-.35-4.31-1.15-6.37-.35-.9-.32-1.67,.02-2.58,.93-2.49,2.75-4.74,4.3-6.86,.18-.24-.54-.17-.67,0-1.55,2.12-3.31,4.34-4.29,6.81-.37,.92-.48,1.77-.14,2.71s.68,1.81,.67,2.88c-.02,1.82,.48,3.56,1.01,5.28,.24,.78,2.4,8.31,3.98,6.73,.34-.34,.52-1.04,.74-1.47,.49-.92,1.03-1.82,1.6-2.69,.53-.81,1.07-1.65,1.69-2.39,1.75-2.08,2.65-4.24,2.46-7.01-.21-3.1-1.54-6.07-3.09-8.72-.51-.86-1.12-2.27-2.03-2.74s-1.95-.11-2.6,.6c-.19,.21,.52,.15,.67,0Z"/></g><path class="cls-4" d="M521,129.59s5.71-6.33,1.99-10.34c0,0-.27-.93-.46-2.93-.23-2.34-5.08,2.91-4.07,5.44,1.01,2.52-2.35,.88,2.55,7.84Z"/></g><g class="cls-5"><g><path class="cls-3" d="M739.47,105.72s-9.38-10.36-3.59-17.08c0,0,.39-1.54,.62-4.86,.28-3.88,8.26,4.73,6.74,8.92-1.52,4.2,3.8,1.42-3.78,13.01Z"/><path d="M739.74,105.6c-1.98-2.19-3.64-4.87-4.64-7.64-.77-2.13-1.14-4.49-.43-6.69,.19-.58,.45-1.13,.77-1.65,.22-.34,.59-.67,.74-1.03,.25-.59,.26-1.39,.34-2.01,.1-.8,.18-1.6,.25-2.4,.02-.25-.01-.95,.27-1.13,.47-.3,1.42,.51,1.74,.78,1.51,1.24,2.75,2.95,3.57,4.71,.38,.82,.7,1.71,.78,2.62,.07,.81-.18,1.43-.36,2.19s-.08,1.38,.21,2.09c.38,.92,.47,1.69,.22,2.68-.7,2.73-2.49,5.27-4,7.59-.15,.23,.43,.19,.54,.02,1.48-2.28,3.13-4.7,3.94-7.33,.29-.96,.38-1.88,.02-2.82-.32-.81-.55-1.42-.34-2.31,.18-.75,.42-1.4,.36-2.19-.08-1.02-.44-2-.88-2.91-.87-1.78-2.14-3.54-3.72-4.75-.68-.52-1.98-1.3-2.67-.35-.14,.2-.18,.44-.22,.68-.14,.91-.15,1.84-.27,2.75-.09,.7-.1,1.63-.44,2.25-.31,.56-.77,1.03-1.05,1.62-.25,.53-.45,1.09-.57,1.66-.24,1.11-.24,2.26-.07,3.38,.56,3.81,2.83,7.58,5.38,10.42,.14,.16,.7-.06,.54-.23Z"/></g><path class="cls-4" d="M738.85,100.42s-4.77-5.9-1.49-9.26c0,0,.25-.81,.46-2.57,.25-2.06,4.31,2.84,3.39,5.02s2,.9-2.36,6.81Z"/></g><g class="cls-5"><g><path class="cls-3" d="M866.41,76.68c-.31-.87,.31-1.8,1.24-1.79,3.83,.05,12.37,.92,13.73,7.57,0,0,1.08,3.32,2.78,6.15,.74,1.23-8.62-1.37-10.43-2.83-3.28-2.65-3.41,1.67-7.31-9.11Z"/><path d="M866.77,76.59c-.22-.79,.15-1.42,.98-1.5,.34-.03,.72,.02,1.07,.04,.81,.05,1.63,.13,2.43,.26,1.83,.28,3.65,.76,5.3,1.61,1.75,.91,3.26,2.3,4.02,4.15,.25,.6,.36,1.24,.58,1.86,.35,.99,.74,1.96,1.17,2.91,.27,.59,.55,1.16,.85,1.73,.07,.13,.69,1.22,.72,1.14,.03-.08-.24-.03-.44-.05-.32-.03-.64-.08-.95-.14-1.7-.31-3.39-.82-5.02-1.39-1.32-.46-2.58-.97-3.72-1.79-.66-.47-1.35-.74-2.13-.92-.84-.2-1.4-.57-1.91-1.29-1.39-1.94-2.15-4.42-2.95-6.63-.08-.23-.8-.01-.72,.19,.8,2.21,1.57,4.61,2.9,6.57,.51,.76,1.1,1.24,1.99,1.46,1,.25,1.71,.6,2.55,1.2,1.38,.97,3.16,1.48,4.75,1.98s3.32,1.04,5,1.14c.33,.02,.94,.06,1.19-.23,.1-.11,.12-.15,.11-.3-.02-.22-.31-.55-.42-.73-.22-.4-.43-.81-.64-1.22-.58-1.18-1.09-2.4-1.54-3.63-.27-.74-.41-1.52-.73-2.24-.84-1.89-2.43-3.27-4.25-4.18-2.06-1.03-4.38-1.51-6.65-1.73-1.41-.14-4.96-.6-4.27,1.93,.06,.22,.79,.03,.72-.19Z"/></g><path class="cls-4" d="M879.68,84.95s-1.86-7.29-6.48-6.68c0,0-.79-.28-2.32-1.16-1.79-1.03-.3,5.11,1.99,5.67,2.28,.56-.47,2.13,6.81,2.16Z"/></g><g class="cls-5"><g><path class="cls-3" d="M1020.31,1.18c-.16-.48,.16-1,.62-1,1.91,.03,6.16,.51,6.84,4.23,0,0,.54,1.86,1.38,3.43,.37,.69-4.29-.77-5.2-1.58-1.63-1.48-1.7,.93-3.64-5.08Z"/><path d="M1020.67,1.09c-.07-.27-.05-.65,.26-.71,.15-.03,.35,.01,.51,.02,.42,.03,.84,.08,1.25,.15,.94,.17,1.89,.46,2.7,.98,.86,.55,1.52,1.34,1.85,2.32,.3,.89,.52,1.78,.88,2.66,.13,.32,.27,.64,.43,.96,.04,.08,.15,.43,.24,.48,.09,.05-.11,.1,.16-.04,.24-.12,.04-.06-.12-.08-.17-.02-.33-.06-.5-.09-.91-.2-1.8-.51-2.66-.86-.36-.15-.73-.31-1.07-.51-.23-.14-.42-.34-.65-.49-.31-.21-.67-.32-.99-.41-.42-.12-.67-.41-.89-.78-.64-1.1-1.01-2.38-1.4-3.59-.07-.23-.79-.02-.72,.19,.39,1.21,.76,2.51,1.41,3.61,.23,.39,.51,.73,.95,.87,.4,.13,.76,.21,1.12,.49,.68,.54,1.44,.88,2.26,1.18,.89,.33,1.84,.67,2.79,.76,.29,.03,.68,.04,.92-.16,.08-.06,.12-.12,.12-.23s-.12-.24-.16-.33c-.1-.2-.2-.41-.3-.62-.3-.67-.56-1.36-.79-2.06-.13-.39-.2-.8-.34-1.19-.37-1.06-1.12-1.9-2.08-2.47-1.02-.6-2.21-.9-3.38-1.04-.46-.05-.94-.11-1.4-.09-.7,.02-1.3,.54-1.12,1.28,.05,.22,.78,.04,.72-.19Z"/></g><path class="cls-4" d="M1026.91,5.8s-.93-4.07-3.23-3.73c0,0-.39-.16-1.15-.65-.89-.57-.15,2.85,.99,3.17,1.14,.31-.23,1.19,3.39,1.21Z"/></g><g class="cls-5"><g><path class="cls-1" d="M1111.37,116.55s-13.22-2.07-13.31-10.47c0,0-.69-1.37-2.61-3.95-2.24-3.02,8.87-1.41,10.42,2.58,1.56,4,3.61-1.21,5.49,11.84Z"/><path d="M1111.61,116.44c-2.55-.4-5.12-1.27-7.39-2.48-1.77-.93-3.46-2.16-4.58-3.84-.55-.83-.95-1.75-1.14-2.73-.14-.71-.06-1.27-.43-1.89-.68-1.15-1.46-2.24-2.24-3.32-.28-.38-.64-.95-.11-1.3,.58-.38,1.65-.2,2.3-.13,.93,.11,1.86,.32,2.75,.61,1.71,.55,3.84,1.47,4.7,3.17,.44,.86,.71,1.61,1.59,2.1s1.51,.89,2,1.81c1.31,2.44,1.63,5.5,2.02,8.19,.02,.11,.6-.01,.58-.16-.39-2.65-.72-5.58-1.93-8.01-.44-.88-1.01-1.45-1.87-1.89-.93-.48-1.31-1.11-1.74-2.04-.79-1.71-2.75-2.65-4.43-3.24s-3.6-1.06-5.37-.76c-.43,.07-1.06,.21-1.33,.6-.42,.61,.38,1.37,.7,1.81,.68,.95,1.49,1.96,1.98,3.03,.12,.26,.11,.4,.13,.71,.04,.58,.15,1.16,.33,1.71,.65,2,2.14,3.59,3.85,4.76,2.65,1.83,5.97,3.02,9.16,3.52,.13,.02,.63-.2,.48-.22Z"/></g><path class="cls-2" d="M1107.13,112.55s-7.12-1.51-6.9-5.95c0,0-.33-.74-1.29-2.17-1.12-1.67,4.86-.47,5.58,1.69,.72,2.16,2-.52,2.61,6.42Z"/><g><path class="cls-1" d="M1113.07,116c-.68,.53-1.73,.22-2.01-.63-1.19-3.51-3.15-11.55,2.43-14.65,0,0,2.66-1.91,4.67-4.26,.88-1.02,1.54,8.25,.8,10.31-1.34,3.73,2.61,2.65-5.88,9.22Z"/><path d="M1112.85,115.92c-1.58,1-2.26-3.53-2.42-4.39-.33-1.79-.48-3.65-.18-5.46,.33-1.95,1.24-3.77,2.89-4.91,1.32-.91,2.55-1.88,3.71-2.99,.41-.39,.81-.79,1.19-1.2l.22-.25c.35-.31,.28-.35-.21-.13,0,.01,.11,.14,.11,.18,0,.46,.3,1.1,.38,1.57,.24,1.56,.33,3.16,.35,4.73,.02,1.31,.02,2.65-.36,3.9-.24,.79-.3,1.5-.21,2.31s0,1.42-.5,2.11c-1.29,1.82-3.31,3.22-5.05,4.57-.31,.24,.41,.2,.57,.08,1.74-1.35,3.69-2.74,5.03-4.51,.51-.67,.77-1.33,.7-2.17-.08-1-.03-1.75,.25-2.73,.42-1.48,.32-3.18,.26-4.71-.06-1.64-.09-3.44-.58-5.02-.44-1.41-1.36-.23-1.98,.41-.95,.99-1.98,1.9-3.05,2.75-.58,.46-1.22,.82-1.79,1.28-1.59,1.28-2.44,3.15-2.71,5.14-.31,2.24,0,4.54,.55,6.72,.2,.8,.36,1.91,.84,2.6,.56,.8,1.66,.74,2.41,.27,.41-.26-.23-.3-.44-.17Z"/></g><path class="cls-2" d="M1116.27,101.58s-5.99,3.73-3.95,7.78c0,0,0,.8-.3,2.44-.35,1.92,4.72-1.16,4.49-3.4-.23-2.24,2.07-.17-.24-6.82Z"/></g><g class="cls-5"><g><path class="cls-1" d="M1009.56,73.66c-.79-.34-1.03-1.36-.43-1.98,2.48-2.58,8.53-7.86,13.94-4.53,0,0,2.96,1.39,5.98,2.03,1.31,.28-6.45,5.01-8.6,5.31-3.9,.55-1.04,3.4-10.89-.83Z"/><path d="M1009.85,73.49c-2.1-1.15,1.43-3.58,2.38-4.32,1.72-1.33,3.74-2.54,5.94-2.84,1.1-.15,2.22-.06,3.27,.32,.65,.23,1.22,.61,1.85,.88,.81,.35,1.64,.67,2.47,.96,.53,.18,1.07,.35,1.61,.51,.17,.05,1.4,.25,1.45,.37,.17,.49-1.93,1.69-2.22,1.88-1.25,.81-2.55,1.56-3.89,2.21-1.58,.77-3.32,.91-4.8,1.87-.64,.42-1.16,.47-1.92,.34-2.11-.36-4.18-1.34-6.13-2.17-.19-.08-.86,.21-.58,.33,1.99,.85,4.05,1.81,6.19,2.19,.83,.15,1.66,.15,2.43-.23,.65-.33,1.17-.8,1.89-1,1.25-.34,2.37-.65,3.54-1.24,1.58-.78,3.12-1.68,4.56-2.69,.34-.24,1.95-1.18,1.6-1.77-.12-.21-.72-.21-.91-.25-.8-.2-1.6-.45-2.38-.72-.91-.32-1.85-.65-2.72-1.08-1.9-.94-3.66-1.38-5.78-.95-2.39,.49-4.56,1.81-6.44,3.33-1.06,.86-4.3,3.15-1.99,4.42,.19,.1,.86-.18,.58-.33Z"/></g><path class="cls-2" d="M1023.68,69.88s-6.17-3.39-8.7,.16c0,0-.7,.36-2.27,.84-1.84,.56,3.3,3.47,5.14,2.27,1.84-1.2,1.15,1.68,5.83-3.27Z"/></g><g class="cls-5"><g><path class="cls-1" d="M813.95,62.63s8.89-2.06,10.88,3.38c0,0,.76,.71,2.57,1.9,2.12,1.39-5.32,3.21-7.23,1.01-1.91-2.2-2.02,1.72-6.23-6.29Z"/><path d="M813.89,62.72c1.68-.39,3.51-.48,5.22-.27,1.33,.16,2.67,.54,3.75,1.36,.58,.43,1.05,.99,1.39,1.62,.22,.41,.27,.65,.62,.94,.69,.57,1.43,1.06,2.16,1.56,.3,.21,.61,.45,.37,.84-.25,.41-.9,.6-1.33,.73-.68,.2-1.39,.3-2.1,.33-1.26,.05-2.66-.1-3.57-1.06-.4-.42-.79-.69-1.37-.77-.65-.09-1.13-.2-1.64-.66-1.4-1.25-2.3-3.16-3.16-4.79-.07-.13-.62,.09-.58,.16,.85,1.6,1.72,3.38,3.03,4.67,.49,.48,.99,.73,1.66,.81s1.06,.33,1.54,.81c.92,.94,2.37,1.08,3.63,1.04s2.57-.25,3.69-.81c.3-.15,.75-.38,.85-.74,.12-.48-.48-.75-.79-.95-.67-.45-1.46-.91-2.02-1.5-.39-.42-.55-1.08-.93-1.55-.89-1.1-2.21-1.73-3.57-2.04-2.16-.5-4.58-.4-6.73,.1-.21,.05-.52,.28-.11,.19Z"/></g><path class="cls-2" d="M817.17,63.96s4.88-.85,5.76,2.09c0,0,.38,.4,1.32,1.08,1.1,.8-2.99,1.56-3.94,.34s-1.15,.86-3.14-3.51Z"/></g><g class="cls-5"><g><path class="cls-1" d="M1094.26,45.2c-.29-.81,.29-1.68,1.16-1.67,3.58,.05,11.57,.86,12.84,7.08,0,0,1.01,3.11,2.6,5.75,.69,1.15-8.06-1.28-9.75-2.65-3.06-2.48-3.19,1.56-6.84-8.51Z"/><path d="M1094.62,45.1c-.2-.72,.12-1.3,.89-1.38,.32-.03,.68,.02,1,.04,.76,.05,1.52,.12,2.27,.24,1.71,.26,3.41,.71,4.96,1.51,1.64,.85,3.04,2.14,3.75,3.87,.23,.57,.34,1.16,.54,1.74,.33,.92,.69,1.83,1.1,2.72,.25,.55,.51,1.09,.79,1.62,.15,.28,.29,.64,.49,.88-.08-.1,.21,.38,.19,.18-.01-.1,.13,0-.06-.04-.1-.02-.22,0-.33-.02-.3-.02-.6-.08-.89-.13-1.59-.29-3.16-.76-4.69-1.29-1.24-.43-2.41-.9-3.47-1.67-.62-.44-1.27-.69-2-.87-.78-.19-1.3-.53-1.78-1.2-1.3-1.81-2.01-4.13-2.76-6.2-.08-.23-.8-.01-.72,.19,.75,2.06,1.47,4.31,2.71,6.14,.48,.71,1.04,1.16,1.87,1.37,.93,.23,1.59,.56,2.38,1.11,1.29,.91,2.96,1.39,4.45,1.85s3.11,.98,4.69,1.07c.32,.02,.9,.05,1.14-.23,.09-.11,.12-.15,.11-.29-.02-.2-.29-.51-.39-.69-.21-.37-.41-.75-.59-1.14-.54-1.1-1.02-2.24-1.44-3.4-.25-.69-.38-1.42-.68-2.1-.78-1.77-2.27-3.06-3.98-3.91-1.93-.96-4.1-1.41-6.23-1.62-1.33-.13-4.68-.56-4.03,1.82,.06,.22,.79,.03,.72-.19Z"/></g><path class="cls-2" d="M1106.67,52.93s-1.74-6.82-6.06-6.24c0,0-.74-.26-2.17-1.09-1.67-.96-.28,4.78,1.86,5.31,2.14,.53-.44,1.99,6.37,2.02Z"/></g><g class="cls-5"><g><path class="cls-1" d="M866.25,116.57s2.68,8.73-2.6,11.09c0,0-.66,.8-1.71,2.7-1.24,2.22-3.58-5.08-1.52-7.14,2.06-2.06-1.85-1.89,5.83-6.65Z"/><path d="M865.96,116.65c.51,1.66,.74,3.49,.67,5.22-.06,1.36-.33,2.76-1.07,3.92-.4,.61-.92,1.13-1.55,1.51-.43,.26-.62,.33-.89,.72-.51,.71-.94,1.48-1.38,2.23-.26,.44-.33,.43-.68,0-.73-.93-.99-2.34-1.11-3.48-.13-1.27-.06-2.62,.83-3.61,.37-.42,.62-.84,.65-1.4,.04-.63,.1-1.1,.49-1.62,1.12-1.49,2.97-2.51,4.52-3.47,.33-.21-.17-.29-.36-.18-1.54,.96-3.22,1.95-4.44,3.32-.45,.51-.75,1.04-.78,1.72-.03,.63-.14,1.06-.58,1.55-.87,.97-1.03,2.21-.94,3.48s.37,2.77,1.13,3.83c.48,.66,1.24,.74,1.72,.02,.53-.81,.96-1.67,1.53-2.46,.28-.39,.69-.46,1.14-.8,1.16-.87,1.84-2.19,2.15-3.58,.5-2.28,.23-4.85-.45-7.07-.06-.21-.64-.05-.58,.16Z"/></g><path class="cls-2" d="M865.15,119.87s1.19,4.81-1.68,5.89c0,0-.37,.41-.98,1.4-.72,1.15-1.77-2.87-.62-3.91s-.94-1.09,3.28-3.38Z"/></g><g class="cls-5"><g><path class="cls-1" d="M935.33,38.08s13.15-2.46,16.04,5.42c0,0,1.11,1.06,3.78,2.85,3.12,2.1-7.88,4.3-10.69,1.05s-2.99,2.34-9.13-9.32Z"/><path d="M935.27,38.18c2.53-.47,5.25-.5,7.79-.11,1.97,.3,3.95,.92,5.54,2.14,.82,.63,1.5,1.41,2,2.31,.33,.61,.43,1.02,.94,1.46,.96,.81,1.98,1.54,3.02,2.25,.44,.3,1.1,.69,.73,1.3s-1.41,.85-2.05,1.01c-1.04,.26-2.12,.38-3.18,.38-1.85,.01-3.98-.23-5.33-1.63-.61-.63-1.17-1.1-2.05-1.25-.95-.16-1.66-.34-2.41-1.01-2.06-1.85-3.39-4.65-4.66-7.05-.07-.14-.62,.07-.58,.16,1.25,2.36,2.53,4.97,4.46,6.87,.71,.7,1.44,1.07,2.41,1.21,1.04,.15,1.6,.57,2.34,1.32,1.35,1.37,3.52,1.61,5.35,1.61s3.74-.22,5.34-1.02c.38-.19,.95-.49,1.05-.95,.15-.71-.87-1.16-1.3-1.46-.93-.64-2.11-1.32-2.86-2.19-.55-.63-.79-1.56-1.34-2.24-1.31-1.63-3.24-2.58-5.23-3.1-3.14-.82-6.67-.82-9.86-.23-.23,.04-.52,.28-.11,.21Z"/></g><path class="cls-2" d="M940.66,40.44s7.21-.95,8.49,3.3c0,0,.56,.59,1.94,1.61,1.61,1.2-4.43,2.06-5.83,.27s-1.71,1.16-4.6-5.18Z"/><g><path class="cls-1" d="M933.91,39.17c.47-.73,1.55-.78,2.11-.08,2.29,2.91,6.83,9.83,2.61,14.61,0,0-1.87,2.69-2.97,5.57-.48,1.25-4.21-7.27-4.2-9.45,.01-3.96-3.34-1.62,2.46-10.65Z"/><path d="M934.25,39.16c.94-1.18,2.15,.99,2.54,1.56,.62,.9,1.18,1.83,1.67,2.8,.88,1.76,1.57,3.72,1.54,5.72-.01,.97-.21,1.94-.62,2.82-.35,.76-.9,1.36-1.35,2.05s-.87,1.4-1.27,2.12c-.27,.48-.52,.98-.76,1.47-.13,.26-.25,.53-.37,.8-.07,.16-.14,.33-.21,.49-.25,.39-.16,.46,.28,.22,0,0-.72-.94-.74-.98-.33-.56-.62-1.15-.9-1.74-.66-1.42-1.25-2.88-1.73-4.38-.35-1.09-.42-2.08-.57-3.19-.09-.67-.37-1.21-.64-1.81-.33-.75-.3-1.42-.04-2.2,.68-2.06,2-3.95,3.16-5.76,.16-.25-.55-.16-.67,.01-1.16,1.82-2.48,3.72-3.19,5.79-.27,.78-.35,1.52-.02,2.29s.66,1.44,.71,2.31c.08,1.46,.52,2.82,1.04,4.19,.28,.74,2.32,6.89,3.77,5.65,.26-.22,.33-.7,.46-1,.32-.73,.67-1.44,1.05-2.13,.46-.85,.94-1.71,1.51-2.49,1.29-1.79,2.01-3.53,1.76-5.79-.29-2.58-1.52-5-2.94-7.13-.48-.73-1.09-1.94-1.91-2.3s-1.72-.02-2.23,.63c-.18,.22,.54,.15,.67-.01Z"/></g><path class="cls-2" d="M935.72,53.83s4.4-5.52,1.12-8.66c0,0-.27-.75-.53-2.4-.31-1.92-4.06,2.67-3.09,4.7,.96,2.04-1.9,.85,2.51,6.35Z"/></g><g class="cls-5"><g><path class="cls-3" d="M1150.21,9.17c-.8-.45-.93-1.57-.23-2.16,2.94-2.46,9.99-7.36,15.35-3.2,0,0,2.98,1.82,6.12,2.86,1.36,.45-7.44,4.58-9.76,4.65-4.21,.13-1.5,3.49-11.48-2.15Z"/><path d="M1150.55,9.03c-2.15-1.5,1.87-3.66,3.01-4.35,2-1.22,4.27-2.24,6.65-2.3,1.2-.03,2.38,.21,3.46,.73,.64,.31,1.2,.76,1.81,1.12,.8,.46,1.61,.88,2.44,1.27,.6,.28,1.2,.55,1.81,.8,.25,.1,1.44,.38,1.49,.57,.13,.49-2.21,1.53-2.51,1.68-1.51,.77-3.07,1.45-4.67,2-1.73,.6-3.49,.56-5.15,1.38-.76,.37-1.4,.32-2.21,.07-2.18-.66-4.22-1.9-6.19-3.01-.18-.1-.85,.17-.58,.33,2.01,1.13,4.1,2.4,6.33,3.05,.84,.24,1.68,.33,2.51,.01,.72-.28,1.32-.71,2.1-.83,1.39-.22,2.62-.43,3.96-.92,1.76-.65,3.49-1.42,5.14-2.33,.37-.21,2.23-1.05,1.95-1.7-.1-.22-.7-.29-.89-.36-.8-.3-1.59-.63-2.36-1-.96-.45-1.93-.92-2.83-1.49-1.88-1.17-3.59-1.9-5.86-1.73-2.63,.2-5.13,1.36-7.32,2.76-1.19,.76-5.08,2.89-2.78,4.51,.19,.14,.85-.15,.68-.27Z"/></g><path class="cls-4" d="M1165.67,6.8s-6.16-4.32-9.27-.84c0,0-.78,.3-2.51,.63-2.02,.38,3.1,4.07,5.2,3.01,2.1-1.06,1.03,1.92,6.58-2.8Z"/></g><g class="cls-5"><g><path class="cls-3" d="M977.91,104.59s16.02-2,18.92,7.71c0,0,1.26,1.35,4.34,3.72,3.61,2.76-9.81,4.59-12.95,.48-3.14-4.12-3.78,2.6-10.31-11.9Z"/><path d="M977.87,104.76c3.03-.37,6.23-.22,9.21,.39,2.43,.5,4.88,1.39,6.77,3.05,.92,.82,1.69,1.81,2.21,2.93,.36,.77,.43,1.25,1.03,1.82,1.09,1.04,2.27,1.99,3.46,2.92,.54,.42,1.31,.97,.66,1.66-.6,.63-1.79,.82-2.6,.96-1.16,.21-2.36,.27-3.54,.23-2.2-.08-4.93-.46-6.48-2.21-.73-.83-1.34-1.52-2.44-1.8s-1.97-.48-2.83-1.34c-2.38-2.37-3.77-5.87-5.13-8.86-.1-.21-.67-.03-.58,.16,1.32,2.93,2.69,6.19,4.87,8.62,.8,.89,1.66,1.42,2.83,1.66,1.27,.27,1.89,.83,2.75,1.8,1.5,1.7,4.07,2.15,6.22,2.29s4.6,.06,6.57-.87c.45-.21,1.07-.55,1.2-1.07,.21-.85-.92-1.44-1.44-1.85-1.09-.86-2.42-1.76-3.3-2.85-.6-.74-.81-1.84-1.36-2.67-1.39-2.06-3.59-3.39-5.9-4.19-3.77-1.32-8.13-1.6-12.09-1.11-.29,.04-.47,.39-.07,.34Z"/></g><path class="cls-4" d="M984.16,107.83s8.76-.61,9.98,4.6c0,0,.63,.75,2.22,2.09,1.86,1.56-5.49,2.16-7.04-.11s-2.14,1.27-5.16-6.58Z"/><g><path class="cls-3" d="M976.13,105.8c.62-.84,1.93-.83,2.54,.06,2.54,3.68,7.5,12.34,2.06,17.79,0,0-2.45,3.1-3.99,6.49-.68,1.48-4.53-9.06-4.36-11.7,.31-4.77-3.91-2.2,3.75-12.65Z"/><path d="M976.46,105.8c1.29-1.43,2.52,1.15,3.03,1.98,.61,1.01,1.17,2.05,1.65,3.12,.95,2.11,1.68,4.41,1.68,6.74,0,2.54-1.05,4.31-2.58,6.23-.59,.74-1.12,1.55-1.64,2.35-.68,1.05-1.7,2.36-2.04,3.59l-.19,.4c.36-.01,.46-.07,.3-.18-.05-.07-.16-.13-.19-.22-.08-.22-.3-.46-.41-.67-.4-.72-.72-1.49-1.02-2.25-.69-1.72-1.29-3.49-1.76-5.28-.57-2.14-.35-4.31-1.15-6.37-.35-.9-.32-1.67,.02-2.58,.93-2.49,2.75-4.74,4.3-6.86,.18-.24-.54-.17-.67,0-1.55,2.12-3.31,4.34-4.29,6.81-.37,.92-.48,1.77-.14,2.71s.68,1.81,.67,2.88c-.02,1.82,.48,3.56,1.01,5.28,.24,.78,2.4,8.31,3.98,6.73,.34-.34,.52-1.04,.74-1.47,.49-.92,1.03-1.82,1.6-2.69,.53-.81,1.07-1.65,1.69-2.39,1.75-2.08,2.65-4.24,2.46-7.01-.21-3.1-1.54-6.07-3.09-8.72-.51-.86-1.12-2.27-2.03-2.74s-1.95-.11-2.6,.6c-.19,.21,.52,.15,.67,0Z"/></g><path class="cls-4" d="M977.21,123.59s5.71-6.33,1.99-10.34c0,0-.27-.93-.46-2.93-.23-2.34-5.08,2.91-4.07,5.44,1.01,2.52-2.35,.88,2.55,7.84Z"/></g><g class="cls-5"><g><path class="cls-3" d="M1158.69,84.72s-9.38-10.36-3.59-17.08c0,0,.39-1.54,.62-4.86,.28-3.88,8.26,4.73,6.74,8.92-1.52,4.2,3.8,1.42-3.78,13.01Z"/><path d="M1158.95,84.6c-1.98-2.19-3.64-4.87-4.64-7.64-.77-2.13-1.14-4.49-.43-6.69,.19-.58,.45-1.13,.77-1.65,.22-.34,.59-.67,.74-1.03,.25-.59,.26-1.39,.34-2.01,.1-.8,.18-1.6,.25-2.4,.02-.25-.01-.95,.27-1.13,.47-.3,1.42,.51,1.74,.78,1.51,1.24,2.75,2.95,3.57,4.71,.38,.82,.7,1.71,.78,2.62,.07,.81-.18,1.43-.36,2.19s-.08,1.38,.21,2.09c.38,.92,.47,1.69,.22,2.68-.7,2.73-2.49,5.27-4,7.59-.15,.23,.43,.19,.54,.02,1.48-2.28,3.13-4.7,3.94-7.33,.29-.96,.38-1.88,.02-2.82-.32-.81-.55-1.42-.34-2.31,.18-.75,.42-1.4,.36-2.19-.08-1.02-.44-2-.88-2.91-.87-1.78-2.14-3.54-3.72-4.75-.68-.52-1.98-1.3-2.67-.35-.14,.2-.18,.44-.22,.68-.14,.91-.15,1.84-.27,2.75-.09,.7-.1,1.63-.44,2.25-.31,.56-.77,1.03-1.05,1.62-.25,.53-.45,1.09-.57,1.66-.24,1.11-.24,2.26-.07,3.38,.56,3.81,2.83,7.58,5.38,10.42,.14,.16,.7-.06,.54-.23Z"/></g><path class="cls-4" d="M1158.06,79.42s-4.77-5.9-1.49-9.26c0,0,.25-.81,.46-2.57,.25-2.06,4.31,2.84,3.39,5.02-.92,2.19,2,.9-2.36,6.81Z"/></g><g class="cls-5"><g><path class="cls-3" d="M7.29,76.68c-.31-.87,.31-1.8,1.24-1.79,3.83,.05,12.37,.92,13.73,7.57,0,0,1.08,3.32,2.78,6.15,.74,1.23-8.62-1.37-10.43-2.83-3.28-2.65-3.41,1.67-7.31-9.11Z"/><path d="M7.65,76.59c-.22-.79,.15-1.42,.98-1.5,.34-.03,.72,.02,1.07,.04,.81,.05,1.63,.13,2.43,.26,1.83,.28,3.65,.76,5.3,1.61,1.75,.91,3.26,2.3,4.02,4.15,.25,.6,.36,1.24,.58,1.86,.35,.99,.74,1.96,1.17,2.91,.27,.59,.55,1.16,.85,1.73,.07,.13,.69,1.22,.72,1.14,.03-.08-.24-.03-.44-.05-.32-.03-.64-.08-.95-.14-1.7-.31-3.39-.82-5.02-1.39-1.32-.46-2.58-.97-3.72-1.79-.66-.47-1.35-.74-2.13-.92-.84-.2-1.4-.57-1.91-1.29-1.39-1.94-2.15-4.42-2.95-6.63-.08-.23-.8-.01-.72,.19,.8,2.21,1.57,4.61,2.9,6.57,.51,.76,1.1,1.24,1.99,1.46,1,.25,1.71,.6,2.55,1.2,1.38,.97,3.16,1.48,4.75,1.98s3.32,1.04,5,1.14c.33,.02,.94,.06,1.19-.23,.1-.11,.12-.15,.11-.3-.02-.22-.31-.55-.42-.73-.22-.4-.43-.81-.64-1.22-.58-1.18-1.09-2.4-1.54-3.63-.27-.74-.41-1.52-.73-2.24-.84-1.89-2.43-3.27-4.25-4.18-2.06-1.03-4.38-1.51-6.65-1.73-1.41-.14-4.96-.6-4.27,1.93,.06,.22,.79,.03,.72-.19Z"/></g><path class="cls-4" d="M20.56,84.95s-1.86-7.29-6.48-6.68c0,0-.79-.28-2.32-1.16-1.79-1.03-.3,5.11,1.99,5.67,2.28,.56-.47,2.13,6.81,2.16Z"/></g><g class="cls-5"><g><path class="cls-1" d="M232.25,116.55s-13.22-2.07-13.31-10.47c0,0-.69-1.37-2.61-3.95-2.24-3.02,8.87-1.41,10.42,2.58s3.61-1.21,5.49,11.84Z"/><path d="M232.49,116.44c-2.55-.4-5.12-1.27-7.39-2.48-1.77-.93-3.46-2.16-4.58-3.84-.55-.83-.95-1.75-1.14-2.73-.14-.71-.06-1.27-.43-1.89-.68-1.15-1.46-2.24-2.24-3.32-.28-.38-.64-.95-.11-1.3,.58-.38,1.65-.2,2.3-.13,.93,.11,1.86,.32,2.75,.61,1.71,.55,3.84,1.47,4.7,3.17,.44,.86,.71,1.61,1.59,2.1s1.51,.89,2,1.81c1.31,2.44,1.63,5.5,2.02,8.19,.02,.11,.6-.01,.58-.16-.39-2.65-.72-5.58-1.93-8.01-.44-.88-1.01-1.45-1.87-1.89-.93-.48-1.31-1.11-1.74-2.04-.79-1.71-2.75-2.65-4.43-3.24s-3.6-1.06-5.37-.76c-.43,.07-1.06,.21-1.33,.6-.42,.61,.38,1.37,.7,1.81,.68,.95,1.49,1.96,1.98,3.03,.12,.26,.11,.4,.13,.71,.04,.58,.15,1.16,.33,1.71,.65,2,2.14,3.59,3.85,4.76,2.65,1.83,5.97,3.02,9.16,3.52,.13,.02,.63-.2,.48-.22Z"/></g><path class="cls-2" d="M228.02,112.55s-7.12-1.51-6.9-5.95c0,0-.33-.74-1.29-2.17-1.12-1.67,4.86-.47,5.58,1.69,.72,2.16,2-.52,2.61,6.42Z"/><g><path class="cls-1" d="M233.95,116c-.68,.53-1.73,.22-2.01-.63-1.19-3.51-3.15-11.55,2.43-14.65,0,0,2.66-1.91,4.67-4.26,.88-1.02,1.54,8.25,.8,10.31-1.34,3.73,2.61,2.65-5.88,9.22Z"/><path d="M233.73,115.92c-1.58,1-2.26-3.53-2.42-4.39-.33-1.79-.48-3.65-.18-5.46,.33-1.95,1.24-3.77,2.89-4.91,1.32-.91,2.55-1.88,3.71-2.99,.41-.39,.81-.79,1.19-1.2l.22-.25c.35-.31,.28-.35-.21-.13,0,.01,.11,.14,.11,.18,0,.46,.3,1.1,.38,1.57,.24,1.56,.33,3.16,.35,4.73,.02,1.31,.02,2.65-.36,3.9-.24,.79-.3,1.5-.21,2.31s0,1.42-.5,2.11c-1.29,1.82-3.31,3.22-5.05,4.57-.31,.24,.41,.2,.57,.08,1.74-1.35,3.69-2.74,5.03-4.51,.51-.67,.77-1.33,.7-2.17-.08-1-.03-1.75,.25-2.73,.42-1.48,.32-3.18,.26-4.71-.06-1.64-.09-3.44-.58-5.02-.44-1.41-1.36-.23-1.98,.41-.95,.99-1.98,1.9-3.05,2.75-.58,.46-1.22,.82-1.79,1.28-1.59,1.28-2.44,3.15-2.71,5.14-.31,2.24,0,4.54,.55,6.72,.2,.8,.36,1.91,.84,2.6,.56,.8,1.66,.74,2.41,.27,.41-.26-.23-.3-.44-.17Z"/></g><path class="cls-2" d="M237.15,101.58s-5.99,3.73-3.95,7.78c0,0,0,.8-.3,2.44-.35,1.92,4.72-1.16,4.49-3.4-.23-2.24,2.07-.17-.24-6.82Z"/></g><g class="cls-5"><g><path class="cls-1" d="M130.44,73.66c-.79-.34-1.03-1.36-.43-1.98,2.48-2.58,8.53-7.86,13.94-4.53,0,0,2.96,1.39,5.98,2.03,1.31,.28-6.45,5.01-8.6,5.31-3.9,.55-1.04,3.4-10.89-.83Z"/><path d="M130.73,73.49c-2.1-1.15,1.43-3.58,2.38-4.32,1.72-1.33,3.74-2.54,5.94-2.84,1.1-.15,2.22-.06,3.27,.32,.65,.23,1.22,.61,1.85,.88,.81,.35,1.64,.67,2.47,.96,.53,.18,1.07,.35,1.61,.51,.17,.05,1.4,.25,1.45,.37,.17,.49-1.93,1.69-2.22,1.88-1.25,.81-2.55,1.56-3.89,2.21-1.58,.77-3.32,.91-4.8,1.87-.64,.42-1.16,.47-1.92,.34-2.11-.36-4.18-1.34-6.13-2.17-.19-.08-.86,.21-.58,.33,1.99,.85,4.05,1.81,6.19,2.19,.83,.15,1.66,.15,2.43-.23,.65-.33,1.17-.8,1.89-1,1.25-.34,2.37-.65,3.54-1.24,1.58-.78,3.12-1.68,4.56-2.69,.34-.24,1.95-1.18,1.6-1.77-.12-.21-.72-.21-.91-.25-.8-.2-1.6-.45-2.38-.72-.91-.32-1.85-.65-2.72-1.08-1.9-.94-3.66-1.38-5.78-.95-2.39,.49-4.56,1.81-6.44,3.33-1.06,.86-4.3,3.15-1.99,4.42,.19,.1,.86-.18,.58-.33Z"/></g><path class="cls-2" d="M144.57,69.88s-6.17-3.39-8.7,.16c0,0-.7,.36-2.27,.84-1.84,.56,3.3,3.47,5.14,2.27,1.84-1.2,1.15,1.68,5.83-3.27Z"/></g><g class="cls-5"><g><path class="cls-1" d="M.29,1.39S9.19-.68,11.18,4.77c0,0,.76,.71,2.57,1.9,2.12,1.39-5.32,3.21-7.23,1.01-1.91-2.2-2.02,1.72-6.23-6.29Z"/><path d="M.23,1.48c1.68-.39,3.51-.48,5.22-.27,1.33,.16,2.67,.54,3.75,1.36,.58,.43,1.05,.99,1.39,1.62,.22,.41,.27,.65,.62,.94,.69,.57,1.43,1.06,2.16,1.56,.3,.21,.61,.45,.37,.84-.25,.41-.9,.6-1.33,.73-.68,.2-1.39,.3-2.1,.33-1.26,.05-2.66-.1-3.57-1.06-.4-.42-.79-.69-1.37-.77-.65-.09-1.13-.2-1.64-.66C2.34,4.85,1.44,2.94,.58,1.31,.51,1.18-.04,1.4,0,1.47c.85,1.6,1.72,3.38,3.03,4.67,.49,.48,.99,.73,1.66,.81s1.06,.33,1.54,.81c.92,.94,2.37,1.08,3.63,1.04s2.57-.25,3.69-.81c.3-.15,.75-.38,.85-.74,.12-.48-.48-.75-.79-.95-.67-.45-1.46-.91-2.02-1.5-.39-.42-.55-1.08-.93-1.55-.89-1.1-2.21-1.73-3.57-2.04-2.16-.5-4.58-.4-6.73,.1-.21,.05-.52,.28-.11,.19Z"/></g><path class="cls-2" d="M3.51,2.72s4.88-.85,5.76,2.09c0,0,.38,.4,1.32,1.08,1.1,.8-2.99,1.56-3.94,.34s-1.15,.86-3.14-3.51Z"/></g><g class="cls-5"><g><path class="cls-1" d="M215.14,45.2c-.29-.81,.29-1.68,1.16-1.67,3.58,.05,11.57,.86,12.84,7.08,0,0,1.01,3.11,2.6,5.75,.69,1.15-8.06-1.28-9.75-2.65-3.06-2.48-3.19,1.56-6.84-8.51Z"/><path d="M215.5,45.1c-.2-.72,.12-1.3,.89-1.38,.32-.03,.68,.02,1,.04,.76,.05,1.52,.12,2.27,.24,1.71,.26,3.41,.71,4.96,1.51,1.64,.85,3.04,2.14,3.75,3.87,.23,.57,.34,1.16,.54,1.74,.33,.92,.69,1.83,1.1,2.72,.25,.55,.51,1.09,.79,1.62,.15,.28,.29,.64,.49,.88-.08-.1,.21,.38,.19,.18-.01-.1,.13,0-.06-.04-.1-.02-.22,0-.33-.02-.3-.02-.6-.08-.89-.13-1.59-.29-3.16-.76-4.69-1.29-1.24-.43-2.41-.9-3.47-1.67-.62-.44-1.27-.69-2-.87-.78-.19-1.3-.53-1.78-1.2-1.3-1.81-2.01-4.13-2.76-6.2-.08-.23-.8-.01-.72,.19,.75,2.06,1.47,4.31,2.71,6.14,.48,.71,1.04,1.16,1.87,1.37,.93,.23,1.59,.56,2.38,1.11,1.29,.91,2.96,1.39,4.45,1.85s3.11,.98,4.69,1.07c.32,.02,.9,.05,1.14-.23,.09-.11,.12-.15,.11-.29-.02-.2-.29-.51-.39-.69-.21-.37-.41-.75-.59-1.14-.54-1.1-1.02-2.24-1.44-3.4-.25-.69-.38-1.42-.68-2.1-.78-1.77-2.27-3.06-3.98-3.91-1.93-.96-4.1-1.41-6.23-1.62-1.33-.13-4.68-.56-4.03,1.82,.06,.22,.79,.03,.72-.19Z"/></g><path class="cls-2" d="M227.55,52.93s-1.74-6.82-6.06-6.24c0,0-.74-.26-2.17-1.09-1.67-.96-.28,4.78,1.86,5.31,2.14,.53-.44,1.99,6.37,2.02Z"/></g><g class="cls-5"><g><path class="cls-1" d="M153.06,8.5s2.68,8.73-2.6,11.09c0,0-.66,.8-1.71,2.7-1.24,2.22-3.58-5.08-1.52-7.14,2.06-2.06-1.85-1.89,5.83-6.65Z"/><path d="M152.77,8.57c.51,1.66,.74,3.49,.67,5.22-.06,1.36-.33,2.76-1.07,3.92-.4,.61-.92,1.13-1.55,1.51-.43,.26-.62,.33-.89,.72-.51,.71-.94,1.48-1.38,2.23-.26,.44-.33,.43-.68,0-.73-.93-.99-2.34-1.11-3.48-.13-1.27-.06-2.62,.83-3.61,.37-.42,.62-.84,.65-1.4,.04-.63,.1-1.1,.49-1.62,1.12-1.49,2.97-2.51,4.52-3.47,.33-.21-.17-.29-.36-.18-1.54,.96-3.22,1.95-4.44,3.32-.45,.51-.75,1.04-.78,1.72-.03,.63-.14,1.06-.58,1.55-.87,.97-1.03,2.21-.94,3.48s.37,2.77,1.13,3.83c.48,.66,1.24,.74,1.72,.02,.53-.81,.96-1.67,1.53-2.46,.28-.39,.69-.46,1.14-.8,1.16-.87,1.84-2.19,2.15-3.58,.5-2.28,.23-4.85-.45-7.07-.06-.21-.64-.05-.58,.16Z"/></g><path class="cls-2" d="M151.96,11.8s1.19,4.81-1.68,5.89c0,0-.37,.41-.98,1.4-.72,1.15-1.77-2.87-.62-3.91s-.94-1.09,3.28-3.38Z"/></g><g class="cls-5"><g><path class="cls-1" d="M56.21,38.08s13.15-2.46,16.04,5.42c0,0,1.11,1.06,3.78,2.85,3.12,2.1-7.88,4.3-10.69,1.05s-2.99,2.34-9.13-9.32Z"/><path d="M56.15,38.18c2.53-.47,5.25-.5,7.79-.11,1.97,.3,3.95,.92,5.54,2.14,.82,.63,1.5,1.41,2,2.31,.33,.61,.43,1.02,.94,1.46,.96,.81,1.98,1.54,3.02,2.25,.44,.3,1.1,.69,.73,1.3s-1.41,.85-2.05,1.01c-1.04,.26-2.12,.38-3.18,.38-1.85,.01-3.98-.23-5.33-1.63-.61-.63-1.17-1.1-2.05-1.25-.95-.16-1.66-.34-2.41-1.01-2.06-1.85-3.39-4.65-4.66-7.05-.07-.14-.62,.07-.58,.16,1.25,2.36,2.53,4.97,4.46,6.87,.71,.7,1.44,1.07,2.41,1.21,1.04,.15,1.6,.57,2.34,1.32,1.35,1.37,3.52,1.61,5.35,1.61s3.74-.22,5.34-1.02c.38-.19,.95-.49,1.05-.95,.15-.71-.87-1.16-1.3-1.46-.93-.64-2.11-1.32-2.86-2.19-.55-.63-.79-1.56-1.34-2.24-1.31-1.63-3.24-2.58-5.23-3.1-3.14-.82-6.67-.82-9.86-.23-.23,.04-.52,.28-.11,.21Z"/></g><path class="cls-2" d="M61.54,40.44s7.21-.95,8.49,3.3c0,0,.56,.59,1.94,1.61,1.61,1.2-4.43,2.06-5.83,.27s-1.71,1.16-4.6-5.18Z"/><g><path class="cls-1" d="M54.79,39.17c.47-.73,1.55-.78,2.11-.08,2.29,2.91,6.83,9.83,2.61,14.61,0,0-1.87,2.69-2.97,5.57-.48,1.25-4.21-7.27-4.2-9.45,.01-3.96-3.34-1.62,2.46-10.65Z"/><path d="M55.13,39.16c.94-1.18,2.15,.99,2.54,1.56,.62,.9,1.18,1.83,1.67,2.8,.88,1.76,1.57,3.72,1.54,5.72-.01,.97-.21,1.94-.62,2.82-.35,.76-.9,1.36-1.35,2.05s-.87,1.4-1.27,2.12c-.27,.48-.52,.98-.76,1.47-.13,.26-.25,.53-.37,.8-.07,.16-.14,.33-.21,.49-.25,.39-.16,.46,.28,.22,0,0-.72-.94-.74-.98-.33-.56-.62-1.15-.9-1.74-.66-1.42-1.25-2.88-1.73-4.38-.35-1.09-.42-2.08-.57-3.19-.09-.67-.37-1.21-.64-1.81-.33-.75-.3-1.42-.04-2.2,.68-2.06,2-3.95,3.16-5.76,.16-.25-.55-.16-.67,.01-1.16,1.82-2.48,3.72-3.19,5.79-.27,.78-.35,1.52-.02,2.29s.66,1.44,.71,2.31c.08,1.46,.52,2.82,1.04,4.19,.28,.74,2.32,6.89,3.77,5.65,.26-.22,.33-.7,.46-1,.32-.73,.67-1.44,1.05-2.13,.46-.85,.94-1.71,1.51-2.49,1.29-1.79,2.01-3.53,1.76-5.79-.29-2.58-1.52-5-2.94-7.13-.48-.73-1.09-1.94-1.91-2.3s-1.72-.02-2.23,.63c-.18,.22,.54,.15,.67-.01Z"/></g><path class="cls-2" d="M56.6,53.83s4.4-5.52,1.12-8.66c0,0-.27-.75-.53-2.4-.31-1.92-4.06,2.67-3.09,4.7,.96,2.04-1.9,.85,2.51,6.35Z"/></g><g class="cls-5"><g><path class="cls-3" d="M316.35,40.29c-.8-.45-.93-1.57-.23-2.16,2.94-2.46,9.99-7.36,15.35-3.2,0,0,2.98,1.82,6.12,2.86,1.36,.45-7.44,4.58-9.76,4.65-4.21,.13-1.5,3.49-11.48-2.15Z"/><path d="M316.69,40.15c-2.15-1.5,1.87-3.66,3.01-4.35,2-1.22,4.27-2.24,6.65-2.3,1.2-.03,2.38,.21,3.46,.73,.64,.31,1.2,.76,1.81,1.12,.8,.46,1.61,.88,2.44,1.27,.6,.28,1.2,.55,1.81,.8,.25,.1,1.44,.38,1.49,.57,.13,.49-2.21,1.53-2.51,1.68-1.51,.77-3.07,1.45-4.67,2-1.73,.6-3.49,.56-5.15,1.38-.76,.37-1.4,.32-2.21,.07-2.18-.66-4.22-1.9-6.19-3.01-.18-.1-.85,.17-.58,.33,2.01,1.13,4.1,2.4,6.33,3.05,.84,.24,1.68,.33,2.51,.01,.72-.28,1.32-.71,2.1-.83,1.39-.22,2.62-.43,3.96-.92,1.76-.65,3.49-1.42,5.14-2.33,.37-.21,2.23-1.05,1.95-1.7-.1-.22-.7-.29-.89-.36-.8-.3-1.59-.63-2.36-1-.96-.45-1.93-.92-2.83-1.49-1.88-1.17-3.59-1.9-5.86-1.73-2.63,.2-5.13,1.36-7.32,2.76-1.19,.76-5.08,2.89-2.78,4.51,.19,.14,.85-.15,.68-.27Z"/></g><path class="cls-4" d="M331.81,37.92s-6.16-4.32-9.27-.84c0,0-.78,.3-2.51,.63-2.02,.38,3.1,4.07,5.2,3.01,2.1-1.06,1.03,1.92,6.58-2.8Z"/></g><g class="cls-5"><g><path class="cls-3" d="M98.79,104.59s16.02-2,18.92,7.71c0,0,1.26,1.35,4.34,3.72,3.61,2.76-9.81,4.59-12.95,.48-3.14-4.12-3.78,2.6-10.31-11.9Z"/><path d="M98.76,104.76c3.03-.37,6.23-.22,9.21,.39,2.43,.5,4.88,1.39,6.77,3.05,.92,.82,1.69,1.81,2.21,2.93,.36,.77,.43,1.25,1.03,1.82,1.09,1.04,2.27,1.99,3.46,2.92,.54,.42,1.31,.97,.66,1.66-.6,.63-1.79,.82-2.6,.96-1.16,.21-2.36,.27-3.54,.23-2.2-.08-4.93-.46-6.48-2.21-.73-.83-1.34-1.52-2.44-1.8s-1.97-.48-2.83-1.34c-2.38-2.37-3.77-5.87-5.13-8.86-.1-.21-.67-.03-.58,.16,1.32,2.93,2.69,6.19,4.87,8.62,.8,.89,1.66,1.42,2.83,1.66,1.27,.27,1.89,.83,2.75,1.8,1.5,1.7,4.07,2.15,6.22,2.29s4.6,.06,6.57-.87c.45-.21,1.07-.55,1.2-1.07,.21-.85-.92-1.44-1.44-1.85-1.09-.86-2.42-1.76-3.3-2.85-.6-.74-.81-1.84-1.36-2.67-1.39-2.06-3.59-3.39-5.9-4.19-3.77-1.32-8.13-1.6-12.09-1.11-.29,.04-.47,.39-.07,.34Z"/></g><path class="cls-4" d="M105.04,107.83s8.76-.61,9.98,4.6c0,0,.63,.75,2.22,2.09,1.86,1.56-5.49,2.16-7.04-.11s-2.14,1.27-5.16-6.58Z"/><g><path class="cls-3" d="M97.01,105.8c.62-.84,1.93-.83,2.54,.06,2.54,3.68,7.5,12.34,2.06,17.79,0,0-2.45,3.1-3.99,6.49-.68,1.48-4.53-9.06-4.36-11.7,.31-4.77-3.91-2.2,3.75-12.65Z"/><path d="M97.34,105.8c1.29-1.43,2.52,1.15,3.03,1.98,.61,1.01,1.17,2.05,1.65,3.12,.95,2.11,1.68,4.41,1.68,6.74,0,2.54-1.05,4.31-2.58,6.23-.59,.74-1.12,1.55-1.64,2.35-.68,1.05-1.7,2.36-2.04,3.59l-.19,.4c.36-.01,.46-.07,.3-.18-.05-.07-.16-.13-.19-.22-.08-.22-.3-.46-.41-.67-.4-.72-.72-1.49-1.02-2.25-.69-1.72-1.29-3.49-1.76-5.28-.57-2.14-.35-4.31-1.15-6.37-.35-.9-.32-1.67,.02-2.58,.93-2.49,2.75-4.74,4.3-6.86,.18-.24-.54-.17-.67,0-1.55,2.12-3.31,4.34-4.29,6.81-.37,.92-.48,1.77-.14,2.71s.68,1.81,.67,2.88c-.02,1.82,.48,3.56,1.01,5.28,.24,.78,2.4,8.31,3.98,6.73,.34-.34,.52-1.04,.74-1.47,.49-.92,1.03-1.82,1.6-2.69,.53-.81,1.07-1.65,1.69-2.39,1.75-2.08,2.65-4.24,2.46-7.01-.21-3.1-1.54-6.07-3.09-8.72-.51-.86-1.12-2.27-2.03-2.74s-1.95-.11-2.6,.6c-.19,.21,.52,.15,.67,0Z"/></g><path class="cls-4" d="M98.1,123.59s5.71-6.33,1.99-10.34c0,0-.27-.93-.46-2.93-.23-2.34-5.08,2.91-4.07,5.44,1.01,2.52-2.35,.88,2.55,7.84Z"/></g><g class="cls-5"><g><path class="cls-3" d="M316.57,95.72s-9.38-10.36-3.59-17.08c0,0,.39-1.54,.62-4.86,.28-3.88,8.26,4.73,6.74,8.92-1.52,4.2,3.8,1.42-3.78,13.01Z"/><path d="M316.84,95.6c-1.98-2.19-3.64-4.87-4.64-7.64-.77-2.13-1.14-4.49-.43-6.69,.19-.58,.45-1.13,.77-1.65,.22-.34,.59-.67,.74-1.03,.25-.59,.26-1.39,.34-2.01,.1-.8,.18-1.6,.25-2.4,.02-.25-.01-.95,.27-1.13,.47-.3,1.42,.51,1.74,.78,1.51,1.24,2.75,2.95,3.57,4.71,.38,.82,.7,1.71,.78,2.62,.07,.81-.18,1.43-.36,2.19s-.08,1.38,.21,2.09c.38,.92,.47,1.69,.22,2.68-.7,2.73-2.49,5.27-4,7.59-.15,.23,.43,.19,.54,.02,1.48-2.28,3.13-4.7,3.94-7.33,.29-.96,.38-1.88,.02-2.82-.32-.81-.55-1.42-.34-2.31,.18-.75,.42-1.4,.36-2.19-.08-1.02-.44-2-.88-2.91-.87-1.78-2.14-3.54-3.72-4.75-.68-.52-1.98-1.3-2.67-.35-.14,.2-.18,.44-.22,.68-.14,.91-.15,1.84-.27,2.75-.09,.7-.1,1.63-.44,2.25-.31,.56-.77,1.03-1.05,1.62-.25,.53-.45,1.09-.57,1.66-.24,1.11-.24,2.26-.07,3.38,.56,3.81,2.83,7.58,5.38,10.42,.14,.16,.7-.06,.54-.23Z"/></g><path class="cls-4" d="M315.95,90.42s-4.77-5.9-1.49-9.26c0,0,.25-.81,.46-2.57,.25-2.06,4.31,2.84,3.39,5.02-.92,2.19,2,.9-2.36,6.81Z"/></g></svg>