<?xml version="1.0" encoding="UTF-8"?><svg id="Layer_2" xmlns="http://www.w3.org/2000/svg" xmlns:xlink="http://www.w3.org/1999/xlink" viewBox="0 0 779.37 729.6"><defs><style>.cls-1{filter:url(#drop-shadow-4);}.cls-1,.cls-2{fill:#83430c;}.cls-1,.cls-2,.cls-3,.cls-4,.cls-5,.cls-6{stroke:#000;stroke-miterlimit:10;}.cls-2{filter:url(#drop-shadow-1);}.cls-3{filter:url(#drop-shadow-6);}.cls-3,.cls-4{fill:#ae870a;stroke-width:.3px;}.cls-4{filter:url(#drop-shadow-3);}.cls-7,.cls-5{fill:#eb9447;}.cls-8{fill:#745a07;}.cls-9{fill:#ca6a16;}.cls-10,.cls-6{fill:#12a57c;}.cls-11{fill:#0e8160;}.cls-12{fill:#5d3009;}.cls-5{filter:url(#drop-shadow-2);}.cls-5,.cls-6{stroke-width:.5px;}.cls-6{filter:url(#drop-shadow-5);}.cls-13{opacity:.79;}.cls-14{fill:#381d06;opacity:.74;}</style><filter id="drop-shadow-1" filterUnits="userSpaceOnUse"><feOffset dx="0" dy="0"/><feGaussianBlur result="blur" stdDeviation="2"/><feFlood flood-color="#5c300a" flood-opacity=".61"/><feComposite in2="blur" operator="in"/><feComposite in="SourceGraphic"/></filter><filter id="drop-shadow-2" filterUnits="userSpaceOnUse"><feOffset dx="0" dy="0"/><feGaussianBlur result="blur-2" stdDeviation="2"/><feFlood flood-color="#084937" flood-opacity=".61"/><feComposite in2="blur-2" operator="in"/><feComposite in="SourceGraphic"/></filter><filter id="drop-shadow-3" filterUnits="userSpaceOnUse"><feOffset dx="0" dy="0"/><feGaussianBlur result="blur-3" stdDeviation="2"/><feFlood flood-color="#5c300a" flood-opacity=".61"/><feComposite in2="blur-3" operator="in"/><feComposite in="SourceGraphic"/></filter><filter id="drop-shadow-4" filterUnits="userSpaceOnUse"><feOffset dx="0" dy="0"/><feGaussianBlur result="blur-4" stdDeviation="2"/><feFlood flood-color="#5c300a" flood-opacity=".61"/><feComposite in2="blur-4" operator="in"/><feComposite in="SourceGraphic"/></filter><filter id="drop-shadow-5" filterUnits="userSpaceOnUse"><feOffset dx="0" dy="0"/><feGaussianBlur result="blur-5" stdDeviation="2"/><feFlood flood-color="#084937" flood-opacity=".61"/><feComposite in2="blur-5" operator="in"/><feComposite in="SourceGraphic"/></filter><filter id="drop-shadow-6" filterUnits="userSpaceOnUse"><feOffset dx="0" dy="0"/><feGaussianBlur result="blur-6" stdDeviation="2"/><feFlood flood-color="#5c300a" flood-opacity=".61"/><feComposite in2="blur-6" operator="in"/><feComposite in="SourceGraphic"/></filter></defs><g><path class="cls-2" d="M578.79,363.49c1.76-.03,3.33,1.07,3.91,2.72,1.71,4.84,4.95,14.77,4.38,19.17,0,0-3.29,18.48-2.14,27.66,.03,.23,.04,.41,.02,.64-.22,2.76-1.76,23.33,.48,35.34,.04,.2,.08,.36,.14,.55,.6,1.84,4.38,14.56,3.07,38.57,0,.08,0,.11,0,.19,.03,1.62,.64,32.46,4.06,47.47,.83,3.66-1.53,7.24-5.24,7.79-5.43,.81-13.09,1.78-20.57,2.17-2.49,.13-4.52-1.94-4.31-4.43,1.21-13.73,4.57-54.23,3.26-65.01-1.52-12.53,.72-49.08,.9-51.98,0-.13,0-.25,0-.37l-1.37-44.73-.83-11.21c-.17-2.35,1.66-4.35,4.02-4.39l10.22-.15Z"/><path class="cls-12" d="M578.02,374.52c1.22-.02,2.31,1,2.73,2.53,1.21,4.49,3.48,13.69,3.11,17.76,0,0-2.22,17.1-1.4,25.59,.02,.21,.03,.38,.01,.59-.14,2.56-1.15,21.59,.45,32.71,.03,.18,.05,.33,.1,.51,.42,1.71,3.09,13.49,2.26,35.71,0,.08,0,.1,0,.18,.03,1.5,.55,30.05,2.98,43.95,.59,3.39-1.04,6.7-3.61,7.19-3.77,.73-9.09,1.6-14.28,1.94-1.73,.11-3.15-1.82-3.01-4.11,.79-12.71,2.99-50.18,2.05-60.16-1.1-11.6,.34-45.42,.45-48.11,0-.12,0-.23,0-.35l-1.1-41.4-.62-10.38c-.13-2.17,1.14-4.02,2.77-4.05l7.1-.1Z"/><path class="cls-14" d="M567.12,405.86l17.91-17.21s-.5,13.51-3.05,20.24c-2.43,6.42-5.22,7.84-9.82,8.34-1.83,.2-3.58-1.03-4.3-3.02-.78-2.16-1.43-5.18-.74-8.35Z"/><path class="cls-5" d="M577.42,395.88c-2.7,7.88-15.7,38.51-50.73,22.75,0,0-51.85,32.3-74.79-45.27,0,0-7.81-5.8-1.35-17.27,.61-1.08,.23-2.36-.96-2.91-7.24-3.35-29.26-17.18-19.49-58.53,0,0,10.72-30.52,53.52-31.33,2.08-.04,3.19-2.26,1.86-3.72-7.17-7.91-20.39-27.05-2.55-46.36,0,0,3.65-9.7,12.3-14.71,2.54-1.47,3.54-4.48,2.49-7.05-2.07-5.07-4.23-13.29-1.09-21.04,0,0-3.21-30.95,39.43-58.74,0,0,23.35-15.6,53.32,.97,0,0,18.32-4.12,26.56,15.04,0,0,25.85,8.23,17.54,43.58,0,0,7.36,19.62-15.58,30.13-.11,.05-.13,.19-.01,.2,3.88,.11,34.51,1.74,36.88,24.92,.11,1.07,.77,2.06,1.85,2.49,5.94,2.36,24.92,11.54,20.36,30.84-.21,.88,.35,1.78,1.32,1.96,6.15,1.13,26.41,6.03,29.04,21.78,.06,.38,.39,.65,.8,.62,4.55-.32,29.27-.45,12.86,37.32,0,0-8.76,24.7-32.48,40.09-.9,.58-1.32,1.61-.91,2.54,1.16,2.62,2.41,8.81-4.33,18.68-9.22,13.51-30.5,21.59-50.76,13.72,0,0-19.04,18.54-32.2,9.64,0,0-12.75,0-21.19-10.54-.49-.61-1.5-.54-1.74,.19Z"/><g><g><path class="cls-7" d="M530.32,417.16s10.83,7.86,7.09,15.37c0,0,0,1.53,.53,4.71,.62,3.71-8.54-2.77-8.11-7.04s-3.76-.56,.49-13.04Z"/><path d="M530.09,417.3c2.31,1.68,4.41,3.89,5.93,6.3,1.21,1.91,2.09,4.18,1.83,6.48-.06,.5-.16,.99-.32,1.47-.12,.35-.36,.72-.42,1.08-.09,.63,.08,1.39,.15,2.01s.16,1.3,.26,1.94c.05,.32,.29,1.05,.09,1.38-.31,.5-1.26-.04-1.64-.23-1.66-.84-3.14-2.2-4.28-3.66-.57-.74-1.09-1.54-1.37-2.44-.24-.74-.15-1.41-.16-2.16s-.25-1.29-.66-1.87c-.57-.81-.82-1.56-.8-2.57,.06-2.68,1.07-5.4,1.92-7.91,.07-.21-.51-.14-.58,.07-.84,2.48-1.8,5.13-1.91,7.77-.04,.95,.1,1.8,.64,2.59,.47,.7,.82,1.25,.82,2.14,0,.8-.06,1.48,.22,2.26,.32,.89,.84,1.7,1.42,2.43,1.19,1.5,2.76,2.93,4.51,3.74,.7,.33,2.16,.79,2.5-.28,.09-.28,.02-.59-.02-.87-.13-.87-.27-1.74-.36-2.61-.08-.72-.25-1.48,0-2.16,.83-2.23,.81-4.37-.11-6.59-1.4-3.42-4.22-6.44-7.19-8.6-.16-.12-.69,.12-.46,.29Z"/></g><path class="cls-9" d="M532.27,422.65s5.65,4.59,3.44,8.43c0,0-.04,.81,.16,2.52,.24,1.99-4.54-1.8-4.2-4.05,.34-2.25-2.02-.44,.6-6.91Z"/><g><path class="cls-7" d="M528.56,416.88c.85-.16,1.64,.59,1.51,1.48-.54,3.67-2.45,11.72-8.82,11.94,0,0-3.24,.5-6.09,1.67-1.24,.51,2.39-8.05,3.98-9.55,2.89-2.72-1.12-3.54,9.43-5.54Z"/><path d="M528.5,417.06c2.08-.23,.79,3.64,.52,4.62-.47,1.72-1.12,3.43-2.11,4.93s-2.41,2.86-4.23,3.32c-.65,.16-1.32,.17-1.97,.29-.98,.18-1.96,.41-2.92,.68-.56,.16-1.12,.33-1.67,.52-.28,.1-.76,.19-.99,.37-.34,.26,.2-.1,.17,.03,0-.02-.05-.05-.03-.08,.04-.09,0-.36,.02-.47,.04-.27,.12-.54,.2-.81,.45-1.52,1.09-2.98,1.77-4.41,.59-1.23,1.2-2.6,2.15-3.59,.59-.61,1.04-1.2,1.35-2,.28-.72,.55-1.25,1.26-1.64,1.91-1.06,4.37-1.36,6.48-1.76,.32-.06,.61-.45,.11-.36-2.19,.42-4.52,.78-6.56,1.71-.78,.36-1.46,.82-1.81,1.63s-.58,1.48-1.19,2.12c-1.03,1.08-1.72,2.37-2.37,3.7-.78,1.6-1.55,3.28-2,5.01-.07,.28-.29,.88-.09,1.15,.34,.49,1.61-.29,1.94-.4,1.29-.44,2.62-.77,3.95-1.03,.71-.14,1.43-.15,2.13-.31,1.86-.43,3.42-1.57,4.56-3.08,1.31-1.74,2.12-3.83,2.66-5.93,.24-.91,.44-1.83,.57-2.76,.16-1.17-.6-1.95-1.78-1.82-.33,.04-.62,.41-.11,.36Z"/></g><path class="cls-9" d="M519.15,428.27s7.03-.6,7.06-5.14c0,0,.36-.71,1.38-2.04,1.19-1.55-4.73-1.11-5.54,.99-.82,2.1-1.92-.79-2.89,6.19Z"/></g><path class="cls-9" d="M578.17,395.32c-2.27,6.88-13.21,33.63-42.7,19.86,0,0-43.64,28.2-62.97-39.54,0,0-6.58-5.07-1.14-15.08,.51-.95,.2-2.06-.81-2.54-6.1-2.93-24.64-15.01-16.42-51.11,0,0,9.02-26.65,45.05-27.35,1.75-.03,2.69-1.97,1.57-3.25-6.04-6.91-17.17-23.63-2.15-40.48,0,0,3.07-8.47,10.35-12.84,2.14-1.29,2.98-3.91,2.1-6.16-1.74-4.43-3.56-11.6-.92-18.38,0,0-2.71-27.03,33.18-51.29,0,0,19.65-13.62,44.88,.85,0,0,15.42-3.59,22.36,13.14,0,0,18.47,18.56,11.89,36.3-3.98,12.64-15.74,10.57-9.95,21.25,.05,.09,10.53,2.52,10.63,2.55,7.53,2.44,18.13,5.97,20.14,26.22,.09,.93,.65,1.8,1.56,2.17,5,2.06,20.98,10.08,17.15,26.94-.18,.77,.29,1.56,1.11,1.71,5.18,.99,22.24,5.27,24.45,19.03,.05,.33,.33,.57,.68,.54,3.83-.28,24.64-.39,10.83,32.59,0,0-7.37,21.57-27.34,35.01-.76,.51-1.11,1.41-.76,2.22,.98,2.29,2.03,7.69-3.64,16.31-7.76,11.79-25.67,18.85-42.73,11.97,0,0-16.02,16.19-27.1,8.41,0,0-10.73,0-17.84-9.2-.41-.53-1.26-.47-1.47,.16Z"/><path d="M522.12,189.61c-.9,4.29,1.1,8.97,3.24,12.58,3.12,5.27,7.72,9.7,13.11,12.6,6.42,3.46,13.83,4.52,20.99,3.33,1-.16,1.99-.37,2.97-.61,.23-.05,.52-.09,.73-.18-.03,.01,.59-.21,.33-.22,.03,0,.06,.05,.09,.06,.41,.09,.91,.54,1.28,.74,1.82,.96,3.78,1.72,5.79,2.16,2.79,.62,5.74,.62,8.44-.39,3.73-1.41,6.26-4.55,7.94-8.06,.19-.4-.68-.32-.82-.04-1.54,3.24-3.82,6.25-7.25,7.61-2.48,.98-5.22,.95-7.79,.38-1.96-.44-3.85-1.17-5.63-2.1-.41-.21-.81-.53-1.23-.7-.74-.3-1.61,.18-2.37,.36-7.27,1.7-14.92,1.1-21.66-2.2-5.32-2.6-9.89-6.68-13.18-11.6-2.55-3.82-5.1-9.08-4.11-13.81,.07-.36-.8-.22-.87,.1h0Z"/><path d="M488.59,300.51c1.4-2.25,3.48-4.21,5.65-5.7,2.4-1.65,5.16-2.75,8.08-2.99,1.7-.14,3.42,0,5.09,.36,.93,.2,2.16,.98,3.07,.47,.48-.27,.91-.75,1.34-1.09,1.23-.95,2.51-1.84,3.83-2.67,4.2-2.64,8.81-4.76,13.68-5.78,6-1.26,12.24-.62,17.7,2.24,1.51,.79,2.94,1.73,4.28,2.78,.73,.57,1.43,1.17,2.11,1.8,.45,.42,1,1.25,1.54,1.48,.64,.27,1.49,.31,2.16,.5,3.65,1.07,7.25,3.14,9.29,6.45,1.33,2.16,1.86,4.68,1.76,7.19-.02,.6-.13,.94,.09,1.44,.19,.44,.46,.85,.67,1.28,4.74,9.38,7.51,21.34,3.02,31.32-.71,1.58-1.6,3.05-2.62,4.45-.04,.05,.71,.04,.85-.16,6.33-8.64,5.68-19.79,2.31-29.46-.93-2.65-2.25-5.07-3.36-7.63-.16-.36-.13-.22-.16-.66-.07-1.21,.09-2.39-.1-3.62-.31-1.98-1.1-3.85-2.33-5.43-1.92-2.47-4.72-4.13-7.65-5.14-.87-.3-1.76-.56-2.66-.74-.16-.03-.4-.03-.55-.1-.4-.19-.81-.85-1.15-1.17-.67-.64-1.37-1.26-2.1-1.84-4.06-3.26-8.95-5.37-14.15-5.83-4.33-.38-8.69,.31-12.81,1.65-5.63,1.83-11.28,4.86-15.74,8.8l.8-.19c-5.56-1.81-11.46-1.24-16.41,1.93-2.46,1.57-4.83,3.72-6.39,6.22-.04,.07,.72,.05,.85-.16h0Z"/><path d="M576.83,338.63c6.65,.01,12.5,3.25,15.14,9.47,.41,.96,.55,2.05,.96,2.99,.21,.48,.58,.92,.82,1.38,.55,1.04,1,2.13,1.3,3.27,.38,1.47,.49,3.03,.02,4.49-.71,2.2-2.64,3.48-4.71,4.27-.12,.05-.28,.15-.26,.3,.58,6.03-.48,14.55-6.07,18.04-2.85,1.78-6.33,1.69-9.51,1.03-.28-.06-1.02,.38-.53,.48,5.26,1.1,10.78,.18,13.93-4.54,2.35-3.52,3.05-7.99,3.13-12.14,.02-1.03,.02-2.08-.08-3.11l-.26,.3c3.15-1.19,5.62-3.49,5.55-7.05-.05-2.37-1.02-4.71-2.27-6.69-.43-.68-.58-1.8-.93-2.72-.92-2.38-2.36-4.59-4.26-6.29-3.2-2.87-7.4-3.98-11.63-3.99-.33,0-.92,.5-.34,.5h0Z"/><path d="M560.28,139.66c.54-1.85,2.29-3.26,4.17-3.5,1.01-.13,2.05,0,3.03,.25,.57,.14,1.13,.34,1.68,.55s1.37,.86,1.99,.89,1.48-.58,2.05-.79c3.75-1.39,8.35-2.04,11.93,.15,1,.61,1.78,1.48,2.73,2.15,1.07,.76,2.05,1.64,2.93,2.62,1.34,1.49,2.44,3.24,2.88,5.21,.59,2.59-.16,5.08-1.56,7.27-.25,.38,.64,.36,.82,.07,1.71-2.67,2.37-5.77,1.24-8.79-.85-2.27-2.45-4.19-4.26-5.75-.58-.5-1.2-.93-1.81-1.39-.83-.63-1.51-1.39-2.43-1.93-2.65-1.56-5.85-1.69-8.81-1.17-1.96,.34-3.96,.94-5.74,1.84h.52c-2.9-1.48-6.66-2.75-9.69-.87-1.17,.73-2.17,1.94-2.56,3.28-.11,.38,.78,.27,.88-.08h0Z"/><path d="M641.97,296.88c1.45-1.55,3.25-2.87,5.13-3.83,3.98-2.03,8.05-1.58,11.11,1.81,.14,.15,.42,.12,.58,.04,2.09-1.05,4.54-1.59,6.86-1.74,5.29-.35,10.07,1.97,13.28,6.16,1.16,1.52,2.11,3.2,2.89,4.95,.49,1.1,.79,2.32,1.33,3.38,.45,.88,.98,1.71,1.39,2.61,1.94,4.23,2.92,8.94,2.59,13.59-.65,9.08-6.35,16.44-13.41,21.77-.47,.35,.25,.58,.56,.34,6.46-4.88,11.94-11.41,13.4-19.58,.92-5.15,.16-10.51-1.83-15.32-.5-1.21-1.11-2.35-1.73-3.49-.34-.63-.53-1.29-.79-1.97-.71-1.84-1.57-3.63-2.65-5.29-3.01-4.62-7.72-7.64-13.29-7.75-3-.06-6.26,.54-8.96,1.9l.58,.04c-3.05-3.39-7.21-4.1-11.35-2.33-2.37,1.01-4.64,2.62-6.41,4.51-.36,.39,.48,.47,.72,.21h0Z"/><path d="M492.35,396.03c1.92,6.53,7.68,12.03,14.14,13.91,3.46,1.01,7.09,1.08,10.64,.64l-.36-.07c.82,1.26,2.53,1.96,3.91,2.3,4.68,1.17,9.8-.42,14.12-2.15,.57-.23,.04-.39-.31-.25-4.14,1.66-9.17,3.27-13.63,1.88-1.13-.35-2.57-1.04-3.22-2.03-.07-.11-.25-.08-.36-.07-5.93,.74-11.99-.31-16.77-4.06-2.81-2.2-5.02-5.13-6.5-8.36-.29-.65-.58-1.31-.78-1.99-.07-.23-.94,0-.87,.23h0Z"/><g><path class="cls-7" d="M607.67,127.22s-7.1-10.85-.82-16.16c0,0,.58-1.35,1.27-4.36,.81-3.51,6.88,5.52,4.88,9.15s3.28,1.85-5.34,11.38Z"/><path d="M607.93,127.1c-1.5-2.3-2.63-5-3.14-7.69-.4-2.1-.39-4.38,.65-6.3,.25-.47,.56-.91,.91-1.3,.24-.27,.59-.5,.78-.8,.3-.47,.41-1.16,.57-1.68,.19-.64,.36-1.28,.52-1.92,.07-.26,.12-1.15,.45-1.3,.45-.21,1.19,.65,1.44,.92,1.21,1.32,2.09,3.05,2.6,4.76,.26,.86,.45,1.79,.38,2.69-.06,.72-.37,1.27-.64,1.92s-.28,1.23-.13,1.9c.21,.9,.22,1.61-.15,2.49-1.02,2.41-3.04,4.48-4.75,6.39-.23,.26,.33,.27,.47,.11,1.69-1.87,3.54-3.84,4.66-6.12,.42-.85,.65-1.69,.45-2.63-.17-.78-.31-1.38,0-2.16,.29-.7,.61-1.26,.66-2.05,.05-.91-.12-1.83-.38-2.69-.32-1.07-3.26-7.78-5.19-5.53-.16,.18-.22,.41-.28,.63-.25,.84-.41,1.71-.66,2.55-.19,.63-.34,1.4-.75,1.89-.71,.85-1.39,1.53-1.83,2.58s-.62,2.17-.62,3.29c-.01,3.58,1.5,7.32,3.44,10.3,.11,.17,.67-.02,.54-.23Z"/></g><path class="cls-9" d="M607.91,121.66s-3.52-6.09-.03-8.7c0,0,.34-.7,.79-2.29,.52-1.85,3.54,3.22,2.38,5.09-1.16,1.87,1.7,1.12-3.14,5.9Z"/><g><g><path class="cls-7" d="M609.2,128.1c-.85-.16-1.3-1.11-.84-1.85,1.87-3.05,6.65-9.5,12.65-7.41,0,0,3.19,.72,6.27,.71,1.34,0-5.23,6.27-7.26,7.03-3.7,1.37-.29,3.54-10.81,1.52Z"/><path d="M609.49,127.94c-2.22-.63,.3-3.4,1.05-4.34,1.23-1.54,2.66-2.98,4.38-3.96,.87-.49,1.82-.85,2.82-.97,1.08-.13,2.01,.11,3.05,.36,1.82,.44,3.76,.65,5.63,.7,.68,.02,.83-.08,.46,.52-.32,.52-.77,.97-1.18,1.41-1.05,1.12-2.19,2.17-3.38,3.14-.96,.78-1.89,1.37-2.99,1.89-.64,.3-1.14,.72-1.63,1.22-.54,.55-.99,.77-1.77,.82-2.15,.12-4.4-.41-6.49-.81-.21-.04-.85,.29-.45,.36,2.12,.4,4.35,.9,6.52,.82,.84-.03,1.71-.18,2.38-.73,.57-.46,.97-1.03,1.63-1.39,.49-.26,1.01-.42,1.48-.72,.67-.41,1.29-.9,1.9-1.39,1.35-1.1,2.65-2.3,3.82-3.6,.29-.32,1.56-1.52,.89-1.89-.34-.19-1.21-.04-1.59-.06-.84-.05-1.68-.14-2.51-.26s-1.65-.25-2.45-.47c-2.01-.56-4-.38-5.88,.52-2.11,1-3.84,2.68-5.28,4.49-.82,1.03-3.47,3.95-.97,4.66,.2,.06,.85-.25,.58-.33Z"/></g><path class="cls-9" d="M622.19,121.39s-6.75-1.99-8.47,2.02c0,0-.6,.5-2.04,1.31-1.68,.94,3.97,2.68,5.51,1.12s1.49,1.39,5-4.44Z"/></g><g><g><path class="cls-7" d="M509.85,478.39c.86-.01,1.49,.83,1.2,1.64-1.22,3.37-4.61,10.64-10.9,9.8,0,0-3.27-.07-6.29,.57-1.32,.28,3.86-7.2,5.7-8.34,3.34-2.08-.43-3.53,10.29-3.66Z"/><path d="M509.63,478.57c2.23,.17,.33,3.4-.19,4.42-.82,1.63-1.85,3.22-3.17,4.49-1.49,1.44-3.38,2.37-5.49,2.21-1.63-.12-3.28,0-4.9,.21-.28,.03-1.84,.45-1.96,.32,.12,.13,.12-.24,.14-.29,.16-.5,.42-.97,.69-1.42,.8-1.36,1.72-2.65,2.7-3.88,.79-1,1.61-1.95,2.66-2.68,.62-.43,1.08-.95,1.48-1.58s.79-1.01,1.53-1.23c2.08-.62,4.46-.52,6.6-.55,.25,0,.78-.38,.29-.37-2.19,.03-4.5,0-6.65,.52-.8,.19-1.59,.5-2.12,1.16-.48,.61-.78,1.25-1.4,1.75-1.11,.88-2.05,1.74-2.95,2.86-1.12,1.4-2.19,2.88-3.05,4.45-.32,.59-1.05,1.77,.13,1.61,2.26-.31,4.43-.57,6.71-.47,1.98,.09,3.89-.64,5.43-1.86,1.72-1.36,2.98-3.24,3.98-5.17,.63-1.23,2.65-4.64,0-4.84-.2-.02-.84,.33-.45,.36Z"/></g><path class="cls-9" d="M498.48,487.57s7.01,.59,7.89-3.68c0,0,.49-.61,1.74-1.69,1.45-1.26-4.42-1.83-5.62,.01-1.2,1.84-1.74-1.07-4,5.36Z"/></g><g><g><path class="cls-7" d="M708.5,287.67s-5.97-6.91-2.08-11.2c0,0,.28-1,.48-3.16,.24-2.53,5.32,3.21,4.26,5.93-1.06,2.72,2.46,.99-2.67,8.44Z"/><path d="M708.77,287.56c-1.25-1.46-2.29-3.23-2.9-5.05-.47-1.39-.68-2.94-.18-4.36,.13-.37,.31-.72,.53-1.05,.15-.23,.4-.43,.51-.68,.17-.38,.19-.9,.25-1.31,.08-.52,.14-1.04,.2-1.57,.01-.13,0-.62,.17-.7,.15-.08,.79,.43,.95,.56,.96,.83,1.74,1.96,2.25,3.12,.24,.54,.43,1.13,.47,1.72,.03,.52-.14,.92-.27,1.41s-.07,.91,.11,1.38c.23,.6,.28,1.1,.1,1.74-.5,1.77-1.7,3.39-2.72,4.88-.16,.23,.43,.19,.54,.02,1.01-1.47,2.12-3.03,2.69-4.74,.21-.63,.28-1.24,.05-1.87-.19-.52-.32-.92-.18-1.48,.13-.5,.3-.91,.27-1.44-.04-.69-.27-1.36-.56-1.98-.55-1.17-1.35-2.33-2.37-3.14-.5-.39-1.42-.88-1.9-.17-.1,.14-.12,.31-.15,.48-.1,.61-.13,1.23-.23,1.84-.07,.44-.1,.99-.32,1.37-.4,.7-.87,1.24-1.08,2.05-.19,.72-.21,1.48-.13,2.22,.29,2.53,1.73,5.06,3.37,6.98,.14,.16,.69-.05,.54-.23Z"/></g><path class="cls-9" d="M708.16,283.77s-3.03-3.92-.83-6.07c0,0,.17-.52,.34-1.67,.19-1.34,2.77,1.92,2.14,3.33s1.29,.62-1.64,4.41Z"/><g><path class="cls-7" d="M708.87,287.66c-.6,.08-1.12-.45-.98-1.04,.56-2.46,2.28-7.84,6.75-7.81,0,0,2.29-.24,4.34-.95,.89-.31-2.06,5.37-3.25,6.33-2.15,1.75,.61,2.43-6.86,3.47Z"/><path d="M709.01,287.48c-1.44,.08-.37-2.42-.13-3.09,.42-1.18,.97-2.33,1.75-3.31s1.89-1.85,3.2-2.03c1.15-.16,2.28-.25,3.42-.52,.47-.11,.94-.23,1.4-.38,.06-.02,.18-.04,.24-.08,.13-.11-.16,.09-.1-.05,0,0,0,.06,0,.07-.05,.07-.04,.27-.07,.37-.05,.18-.12,.36-.19,.54-.42,1.06-.97,2.08-1.56,3.06-.47,.78-.95,1.59-1.64,2.19-.42,.37-.72,.78-.96,1.28-.22,.47-.45,.78-.93,1-1.38,.62-3.04,.75-4.52,.96-.33,.05-.62,.43-.11,.36,1.56-.22,3.22-.41,4.7-.98,.57-.22,1.1-.52,1.4-1.06,.27-.49,.46-.97,.88-1.36,.75-.71,1.31-1.49,1.85-2.38,.64-1.07,1.26-2.18,1.69-3.35,.08-.21,.29-.65,.18-.87-.18-.38-.89,0-1.12,.06-.97,.29-1.96,.5-2.95,.65-.51,.08-1.03,.08-1.54,.15-1.35,.2-2.55,.89-3.48,1.88-1.07,1.13-1.77,2.58-2.28,4.03-.21,.6-.39,1.21-.54,1.83-.2,.83,.25,1.47,1.14,1.42,.13,0,.42-.05,.48-.19s-.05-.19-.19-.18Z"/></g><path class="cls-9" d="M716.01,280.25s-4.95,.2-5.19,3.26c0,0-.29,.47-1.06,1.33-.9,1.01,3.25,.89,3.93-.5s1.31,.59,2.32-4.09Z"/></g><g><g><path class="cls-7" d="M630.48,423.46c-.29-.81,.29-1.68,1.16-1.67,3.58,.05,11.57,.86,12.84,7.08,0,0,1.01,3.11,2.6,5.75,.69,1.15-8.06-1.28-9.75-2.65-3.06-2.48-3.19,1.56-6.84-8.51Z"/><path d="M630.84,423.37c-.2-.72,.12-1.3,.89-1.38,.32-.03,.68,.02,1,.04,.76,.05,1.52,.12,2.27,.24,1.71,.26,3.41,.71,4.96,1.51,1.64,.85,3.04,2.14,3.75,3.87,.23,.57,.34,1.16,.54,1.74,.33,.92,.69,1.83,1.1,2.72,.25,.55,.51,1.09,.79,1.62,.15,.28,.29,.64,.49,.88-.08-.1,.21,.38,.19,.18-.01-.1,.13,0-.06-.04-.1-.02-.22,0-.33-.02-.3-.02-.6-.08-.89-.13-1.59-.29-3.16-.76-4.69-1.29-1.24-.43-2.41-.9-3.47-1.67-.62-.44-1.27-.69-2-.87-.78-.19-1.3-.53-1.78-1.2-1.3-1.81-2.01-4.13-2.76-6.2-.08-.23-.8-.01-.72,.19,.75,2.06,1.47,4.31,2.71,6.14,.48,.71,1.04,1.16,1.87,1.37,.93,.23,1.59,.56,2.38,1.11,1.29,.91,2.96,1.39,4.45,1.85s3.11,.98,4.69,1.07c.32,.02,.9,.05,1.14-.23,.09-.11,.12-.15,.11-.29-.02-.2-.29-.51-.39-.69-.21-.37-.41-.75-.59-1.14-.54-1.1-1.02-2.24-1.44-3.4-.25-.69-.38-1.42-.68-2.1-.78-1.77-2.27-3.06-3.98-3.91-1.93-.96-4.1-1.41-6.23-1.62-1.33-.13-4.68-.56-4.03,1.82,.06,.22,.79,.03,.72-.19Z"/></g><path class="cls-9" d="M642.89,431.2s-1.74-6.82-6.06-6.24c0,0-.74-.26-2.17-1.09-1.67-.96-.28,4.78,1.86,5.31,2.14,.53-.44,1.99,6.37,2.02Z"/></g><path class="cls-4" d="M384.63,557.1c-.84,0-1.02-1.18-.21-1.44,7.58-2.42,28.19-6.86,74.38-5.15,0,0,28.62,2.14,52.46-3.95,23.84-6.09,23.62-5.07,45.67-5.15,22.05-.08,30.33-6.76,50.12-.73,19.79,6.03,89.03,3.66,95.44,4.04,31.16,1.85,37.87,8.03,42.9,7.54,13.54-1.31,23.95,3.51,27.28,5.3,.32,.17,.18,.64-.18,.64-22.59-.08-332.13-1.15-387.86-1.11Z"/><path class="cls-8" d="M396.38,556.14c-.59,0,4.23-1.46,4.79-1.64,5.31-1.69,53.27,.39,93.37-2.39,0,0,20.13-.36,36.82-4.62,16.69-4.26,16.53-3.55,31.97-3.6,15.44-.05,21.23-4.73,35.09-.51,13.86,4.22,62.32,2.56,66.81,2.83,21.81,1.3,26.51,5.62,30.03,5.28,9.48-.92,59.95,3.11,63.4,3.73,.1,.02-6.59,1.58-19.31,.94-6.14-.31-23.1-.48-23.13-.48-15.82-.05-280.81,.45-319.82,.48Z"/><g><g><path class="cls-7" d="M530.77,540.65c.71,.08,1.16,.7,.85,1.22-1.28,2.15-4.67,6.72-9.76,5.55,0,0-2.68-.36-5.21-.22-1.1,.06,3.76-4.47,5.37-5.07,2.92-1.08-.06-2.42,8.75-1.48Z"/><path d="M530.54,540.83c1.18,.22,.72,1.11,.28,1.76-.33,.5-.69,.98-1.07,1.44-.91,1.08-2,2.07-3.27,2.7-1.49,.75-2.91,.73-4.52,.49-1.51-.22-3.1-.28-4.62-.24-.52,.01-.62,.13-.3-.35,.25-.38,.6-.73,.92-1.05,.87-.89,1.83-1.73,2.83-2.47s2.23-1.16,3.18-2.06c.38-.36,.79-.46,1.32-.51,1.74-.15,3.54,.1,5.26,.29,.2,.02,.84-.32,.45-.36-1.75-.18-3.54-.41-5.3-.31-.69,.04-1.43,.14-2.01,.55-.38,.27-.65,.66-1.04,.92-.35,.23-.75,.34-1.12,.53-.51,.26-.98,.6-1.43,.95-1.12,.85-2.18,1.79-3.13,2.82-.24,.26-1.3,1.27-.54,1.44,.42,.1,1-.03,1.44-.03,.65,0,1.29,.03,1.94,.07,.61,.04,1.23,.08,1.83,.17,1.74,.27,3.34,.21,4.96-.53s2.94-1.93,4.04-3.29c.46-.57,.91-1.17,1.27-1.81,.44-.77-.12-1.35-.9-1.49-.21-.04-.85,.29-.45,.36Z"/></g><path class="cls-9" d="M520.67,545.74s5.7,1.08,6.78-1.72c0,0,.45-.36,1.57-.97,1.3-.71-3.48-1.66-4.61-.53s-1.34-.89-3.73,3.22Z"/></g><g><g><path class="cls-7" d="M443.88,543.9s8.89-2.06,10.88,3.38c0,0,.76,.71,2.57,1.9,2.12,1.39-5.32,3.21-7.23,1.01-1.91-2.2-2.02,1.72-6.23-6.29Z"/><path d="M443.92,544.05c1.65-.38,3.44-.47,5.12-.28,1.36,.15,2.77,.54,3.86,1.4,.54,.43,1,.97,1.32,1.59,.23,.45,.28,.65,.66,.96,.64,.53,1.33,1,2.02,1.46,.33,.22,.72,.47,.39,.86-.31,.37-.93,.53-1.36,.65-.64,.18-1.3,.28-1.97,.32-1.27,.07-2.71-.05-3.63-1.01-.4-.42-.82-.72-1.41-.8-.63-.09-1.09-.17-1.59-.62-1.39-1.25-2.3-3.15-3.15-4.77-.11-.21-.67-.02-.58,.16,.85,1.61,1.73,3.4,3.04,4.7,.49,.48,1.02,.77,1.7,.85s1.03,.3,1.51,.78c.92,.95,2.37,1.11,3.63,1.08s2.69-.23,3.8-.87c.29-.16,.69-.42,.74-.78,.07-.49-.53-.76-.85-.98-.66-.44-1.46-.9-2-1.49-.37-.41-.53-1.04-.89-1.5-.89-1.13-2.22-1.77-3.59-2.1-2.19-.53-4.64-.42-6.83,.08-.35,.08-.27,.39,.08,.31Z"/></g><path class="cls-9" d="M447.1,545.22s4.88-.85,5.76,2.09c0,0,.38,.4,1.32,1.08,1.1,.8-2.99,1.56-3.94,.34s-1.15,.86-3.14-3.51Z"/></g><g><path class="cls-7" d="M499.95,551.82c-.6,.09-1.12-.44-.99-1.03,.53-2.47,2.21-7.86,6.68-7.87,0,0,2.29-.26,4.33-.99,.89-.32-2.01,5.39-3.19,6.36-2.14,1.77,.63,2.42-6.83,3.53Z"/><path d="M500.1,551.63c-1.44,.1-.39-2.44-.15-3.11,.41-1.17,.95-2.31,1.71-3.3s1.84-1.86,3.13-2.07c.42-.07,.84-.06,1.26-.12,.74-.11,1.48-.25,2.21-.43,.44-.11,.87-.22,1.3-.36,.07-.02,.23-.05,.28-.09,.23-.22-.11,.06-.06-.07,0,.02,.03,.07,.01,.1-.13,.25-.16,.66-.27,.94-.41,1.06-.95,2.08-1.53,3.05-.45,.77-.93,1.57-1.6,2.17-.42,.37-.72,.79-.95,1.29-.21,.46-.43,.77-.91,1-1.37,.64-3.04,.78-4.52,1-.33,.05-.62,.43-.11,.36,1.55-.23,3.19-.44,4.67-1.01,.58-.23,1.12-.53,1.42-1.09,.26-.48,.44-.94,.84-1.34,.75-.74,1.32-1.52,1.86-2.44,.61-1.05,1.21-2.15,1.63-3.3,.08-.22,.3-.68,.19-.92-.17-.39-.89-.02-1.12,.06-.96,.3-1.95,.52-2.95,.68-.51,.08-1.02,.09-1.53,.17-1.36,.21-2.55,.91-3.48,1.92-1.04,1.13-1.73,2.57-2.23,4.01-.21,.61-.39,1.24-.53,1.87-.19,.83,.27,1.46,1.15,1.41,.13,0,.42-.05,.48-.19,.06-.14-.05-.19-.19-.18Z"/></g><path class="cls-9" d="M507.02,544.33s-4.95,.25-5.16,3.31c0,0-.29,.47-1.05,1.34-.9,1.02,3.26,.86,3.92-.54,.66-1.4,1.31,.58,2.29-4.12Z"/><g><g><path class="cls-7" d="M660.84,544.13s6.46-6.45,11.03-2.88c0,0,1.02,.21,3.19,.25,2.54,.06-2.82,5.53-5.61,4.68-2.79-.86-.81,2.52-8.61-2.05Z"/><path d="M661.07,544.18c1.36-1.35,3.04-2.51,4.81-3.23,1.43-.58,3.04-.86,4.52-.27,.48,.19,.9,.61,1.38,.75s1.07,.14,1.56,.17,.98,.04,1.48,.07c.2,.01,.43-.01,.56,.18,.19,.28-.09,.75-.24,.98-.64,1.04-1.7,1.89-2.74,2.51-.58,.34-1.23,.65-1.9,.73-.49,.06-.9-.11-1.38-.18-.51-.08-.97,0-1.43,.21-.56,.26-.96,.36-1.59,.23-1.78-.38-3.48-1.45-5.03-2.36-.17-.1-.7,.15-.46,.29,1.55,.9,3.19,1.91,4.95,2.35,.67,.17,1.35,.2,2-.08,.5-.21,.82-.4,1.39-.29,.53,.11,.98,.23,1.53,.15,.65-.09,1.27-.33,1.84-.63,1.18-.62,2.3-1.5,3.11-2.57,.36-.48,1.02-1.53,.12-1.83-.32-.1-.7-.06-1.02-.08-.52-.02-1.04-.05-1.56-.1-.59-.06-.83-.1-1.3-.41-1.31-.83-2.88-.95-4.37-.63-2.49,.53-4.89,2.12-6.69,3.9-.24,.24,.32,.26,.47,.11Z"/></g><path class="cls-9" d="M664.27,543.55s3.7-3.3,6-1.26c0,0,.54,.14,1.69,.22,1.35,.1-1.72,2.9-3.17,2.37s-.53,1.34-4.52-1.32Z"/></g></g><g><path class="cls-1" d="M266.15,395.94c1.46-.02,2.77,.89,3.26,2.27,1.43,4.04,4.12,12.31,3.65,15.98,0,0-2.74,15.4-1.78,23.05,.02,.19,.03,.34,.02,.53-.18,2.3-1.47,19.44,.4,29.45,.03,.16,.06,.3,.12,.46,.5,1.54,3.65,12.13,2.56,32.14,0,.07,0,.09,0,.16,.02,1.35,.53,27.05,3.39,39.56,.7,3.05-1.28,6.03-4.37,6.49-4.53,.67-10.91,1.48-17.14,1.81-2.07,.11-3.77-1.62-3.59-3.69,1.01-11.44,3.81-45.19,2.71-54.18-1.27-10.44,.6-40.9,.75-43.31,0-.11,0-.21,0-.31l-1.14-37.27-.7-9.34c-.15-1.95,1.39-3.63,3.35-3.66l8.51-.12Z"/><path class="cls-12" d="M265.51,405.13c1.02-.01,1.93,.83,2.27,2.11,1,3.74,2.9,11.41,2.59,14.8,0,0-1.85,14.25-1.16,21.33,.02,.18,.02,.31,.01,.49-.12,2.13-.95,17.99,.38,27.26,.02,.15,.05,.28,.08,.42,.35,1.42,2.58,11.24,1.88,29.76,0,.06,0,.09,0,.15,.02,1.25,.46,25.04,2.48,36.62,.49,2.82-.87,5.58-3.01,5.99-3.14,.61-7.57,1.34-11.9,1.61-1.44,.09-2.62-1.51-2.5-3.43,.66-10.59,2.49-41.82,1.71-50.14-.92-9.67,.28-37.85,.38-40.09,0-.1,0-.19,0-.29l-.91-34.5-.51-8.65c-.11-1.81,.95-3.35,2.31-3.37l5.91-.08Z"/><path class="cls-14" d="M256.43,431.25l14.93-14.34s-.42,11.26-2.54,16.86c-2.02,5.35-4.35,6.53-8.18,6.95-1.53,.17-2.99-.86-3.58-2.52-.65-1.8-1.19-4.32-.62-6.96Z"/><path class="cls-6" d="M265.01,422.93c-2.25,6.56-13.08,32.09-42.27,18.96,0,0-43.21,26.92-62.32-37.72,0,0-6.51-4.84-1.12-14.39,.51-.9,.2-1.97-.8-2.43-6.03-2.79-24.38-14.32-16.24-48.77,0,0,8.93-25.43,44.6-26.11,1.74-.03,2.66-1.88,1.55-3.1-5.98-6.59-17-22.54-2.12-38.63,0,0,3.05-8.08,10.25-12.26,2.12-1.23,2.95-3.73,2.08-5.88-1.72-4.23-3.52-11.07-.9-17.54,0,0-2.68-25.8,32.86-48.95,0,0,19.46-13,44.43,.81,0,0,15.26-3.43,22.14,12.53,0,0,21.54,6.86,14.62,36.32,0,0,6.13,16.35-12.99,25.11-.09,.04-.11,.16-.01,.16,3.23,.09,28.76,1.45,30.74,20.77,.09,.89,.64,1.71,1.54,2.07,4.95,1.97,20.77,9.62,16.97,25.7-.17,.74,.29,1.48,1.1,1.63,5.13,.94,22.01,5.03,24.2,18.15,.05,.31,.32,.54,.67,.52,3.79-.27,24.39-.38,10.72,31.1,0,0-7.3,20.59-27.07,33.41-.75,.49-1.1,1.34-.76,2.12,.97,2.18,2.01,7.34-3.61,15.57-7.69,11.26-25.42,17.99-42.3,11.43,0,0-15.86,15.45-26.83,8.03,0,0-10.63,0-17.65-8.78-.41-.51-1.25-.45-1.45,.15Z"/><g><g><path class="cls-10" d="M225.76,440.67s9.02,6.55,5.91,12.81c0,0,0,1.28,.44,3.92,.52,3.09-7.12-2.31-6.76-5.87s-3.13-.47,.41-10.87Z"/><path d="M225.49,440.77c1.95,1.42,3.74,3.29,5.01,5.33,.93,1.49,1.62,3.23,1.53,5.01-.03,.5-.12,.99-.26,1.47-.1,.33-.32,.66-.38,.99-.08,.45,.06,1.04,.1,1.48,.06,.56,.13,1.12,.22,1.68,.04,.3,.26,.93,.12,1.26-.21,.46-.99-.01-1.32-.18-1.35-.7-2.55-1.79-3.49-2.98-.5-.63-.95-1.33-1.2-2.11-.19-.59-.14-1.11-.14-1.71,0-.64-.19-1.13-.55-1.65-.46-.65-.67-1.26-.67-2.07,.01-2.25,.89-4.57,1.6-6.67,.04-.13-.52-.06-.57,.1-.69,2.05-1.47,4.21-1.59,6.39-.05,.83,.06,1.57,.54,2.25,.37,.54,.65,.99,.67,1.68s-.06,1.25,.16,1.91c.25,.74,.68,1.41,1.16,2.02,1,1.28,2.34,2.5,3.83,3.18,.58,.26,1.81,.61,2.14-.22,.08-.19,.04-.4,.02-.6-.07-.71-.22-1.41-.3-2.12-.06-.53-.24-1.26-.14-1.79,.09-.46,.39-.91,.5-1.39,.1-.44,.15-.89,.15-1.34,0-.96-.21-1.91-.56-2.81-1.13-2.9-3.53-5.49-6.02-7.31-.14-.1-.65,.13-.54,.2Z"/></g><path class="cls-11" d="M227.39,445.24s4.71,3.82,2.86,7.03c0,0-.04,.68,.14,2.1,.2,1.66-3.79-1.5-3.5-3.37s-1.68-.37,.5-5.75Z"/><g><path class="cls-10" d="M224.29,440.43c.71-.13,1.36,.49,1.25,1.23-.45,3.05-2.04,9.76-7.35,9.95,0,0-2.7,.41-5.08,1.39-1.04,.43,1.99-6.71,3.32-7.96,2.41-2.26-.93-2.95,7.85-4.61Z"/><path d="M224.25,440.65c1.64-.18,.58,3.01,.37,3.78-.39,1.43-.93,2.85-1.75,4.1s-1.99,2.35-3.48,2.72c-.53,.13-1.09,.14-1.63,.24-.82,.15-1.64,.34-2.45,.57-.49,.14-.98,.29-1.47,.46-.21,.07-.59,.15-.77,.29-.22,.17,.19,.02,.21,0,.03-.04,0-.31,.02-.37,.04-.23,.1-.45,.16-.67,.38-1.29,.93-2.53,1.51-3.74,.48-.99,.98-2.1,1.75-2.9,.5-.52,.87-1.02,1.13-1.7,.23-.59,.45-1.01,1.03-1.32,1.59-.86,3.61-1.12,5.35-1.45,.35-.07,.59-.52,.09-.42-1.83,.35-3.79,.65-5.5,1.44-.67,.31-1.24,.72-1.54,1.41-.28,.65-.49,1.24-1,1.76-.88,.9-1.45,2.03-2,3.16-.64,1.31-1.27,2.69-1.63,4.11-.06,.25-.24,.76-.06,1,.34,.45,1.49-.25,1.8-.36,1.02-.34,2.08-.6,3.13-.81,.6-.12,1.21-.13,1.81-.27,1.57-.36,2.88-1.34,3.84-2.61,1.1-1.45,1.76-3.21,2.22-4.95,.2-.75,.36-1.52,.47-2.3,.14-1-.53-1.69-1.54-1.58-.36,.04-.59,.48-.09,.42Z"/></g><path class="cls-11" d="M216.45,449.92s5.86-.5,5.88-4.28c0,0,.3-.59,1.15-1.7,.99-1.29-3.94-.93-4.62,.82s-1.6-.66-2.41,5.16Z"/></g><path class="cls-11" d="M265.64,422.47c-1.89,5.73-11.01,28.02-35.58,16.55,0,0-36.37,23.5-52.47-32.95,0,0-5.48-4.23-.95-12.57,.43-.79,.16-1.72-.67-2.12-5.08-2.44-20.53-12.51-13.68-42.6,0,0,7.51-22.21,37.54-22.79,1.46-.03,2.24-1.64,1.31-2.71-5.03-5.76-14.31-19.69-1.79-33.73,0,0,2.56-7.06,8.63-10.7,1.78-1.07,2.48-3.26,1.75-5.13-1.45-3.69-2.97-9.67-.76-15.32,0,0-2.26-22.53,27.65-42.74,0,0,16.38-11.35,37.4,.71,0,0,12.85-3,18.64,10.95,0,0,15.39,15.46,9.91,30.25-3.32,10.54-13.12,8.81-8.29,17.7,.04,.07,8.78,2.1,8.86,2.12,6.27,2.03,15.11,4.98,16.78,21.85,.08,.78,.54,1.5,1.3,1.81,4.17,1.72,17.48,8.4,14.29,22.45-.15,.64,.24,1.3,.92,1.43,4.31,.82,18.53,4.39,20.38,15.85,.04,.27,.27,.47,.56,.45,3.19-.24,20.53-.32,9.03,27.16,0,0-6.14,17.98-22.78,29.17-.63,.42-.93,1.17-.64,1.85,.81,1.9,1.69,6.41-3.04,13.59-6.47,9.83-21.39,15.71-35.61,9.98,0,0-13.35,13.49-22.59,7.01,0,0-8.95,0-14.86-7.67-.34-.44-1.05-.39-1.22,.13Z"/><path d="M218.85,251.03c-.75,3.61,.93,7.54,2.74,10.57,2.62,4.42,6.51,8.14,11.04,10.56,5.37,2.86,11.51,3.73,17.49,2.74,.8-.13,1.59-.29,2.37-.48,.24-.06,.49-.12,.73-.18-.03,0,.34-.19,.14-.2,.03,0,.06,.05,.09,.06,.34,.07,.79,.47,1.1,.63,1.53,.8,3.15,1.43,4.84,1.81,2.35,.53,4.84,.52,7.11-.35,3.1-1.19,5.2-3.83,6.59-6.76,.21-.45-.66-.46-.83-.11-1.29,2.69-3.18,5.18-6.04,6.29-2.05,.8-4.31,.77-6.43,.3-1.63-.36-3.21-.97-4.68-1.75-.33-.17-.65-.43-1-.57-.63-.25-1.31,.11-1.96,.27-6.01,1.42-12.33,.95-17.93-1.74-4.48-2.15-8.33-5.58-11.09-9.71-2.12-3.18-4.22-7.51-3.4-11.44,.09-.43-.8-.33-.88,.06h0Z"/><path d="M191.04,343.54c1.21-1.93,3.02-3.61,4.9-4.86s3.98-2.06,6.21-2.3c1.39-.15,2.8-.08,4.17,.18,.87,.16,2.14,.91,2.96,.45,.39-.22,.75-.62,1.1-.9,1.01-.78,2.07-1.51,3.15-2.19,3.43-2.16,7.18-3.88,11.15-4.76,4.91-1.1,10.05-.7,14.59,1.55,1.39,.69,2.7,1.53,3.92,2.48,.52,.4,1.02,.83,1.51,1.27s1.03,1.24,1.63,1.53c.46,.22,1.16,.24,1.65,.38,3.02,.86,5.98,2.53,7.71,5.22,1.21,1.87,1.65,4.11,1.52,6.32-.05,.89,.22,1.19,.62,1.98,4.62,9.1,6.81,20.97,.39,29.76-.24,.33,.64,.28,.81,.03,5.25-7.19,4.78-16.45,1.99-24.52-.49-1.43-1.06-2.83-1.69-4.21-.35-.76-.83-1.49-1.14-2.27-.37-.94-.04-2.16-.17-3.22-.2-1.59-.75-3.11-1.65-4.43-1.53-2.26-3.95-3.78-6.48-4.71-.8-.3-1.63-.55-2.46-.72-1.17-.25-1.9-1.51-2.82-2.27-6.46-5.37-14.74-6.45-22.62-3.94-4.8,1.53-9.6,4.09-13.4,7.45l.61-.16c-4.7-1.53-9.65-1.01-13.8,1.72-1.99,1.31-3.9,3.07-5.17,5.11-.22,.35,.65,.29,.81,.03h0Z"/><path d="M264.38,375.2c5.55,.02,10.42,2.68,12.66,7.87,.35,.81,.47,1.71,.8,2.51,.52,1.27,1.34,2.33,1.73,3.69,.97,3.43-.4,6.27-3.78,7.55-.08,.03-.29,.11-.28,.23,.47,4.95-.36,11.8-4.74,14.87-2.36,1.65-5.32,1.59-8.04,1.02-.21-.04-.97,.3-.71,.35,4.26,.88,8.88,.25,11.58-3.48,2.12-2.92,2.75-6.75,2.84-10.28,.02-.9,.02-1.82-.06-2.72l-.28,.23c2.57-.98,4.68-2.78,4.69-5.72,0-2.09-.91-3.91-1.88-5.69-.37-.67-.47-1.46-.75-2.19-.73-1.94-1.88-3.74-3.4-5.16-2.67-2.49-6.23-3.45-9.81-3.46-.2,0-.99,.37-.56,.37h0Z"/><path d="M250.8,209.41c.43-1.48,1.8-2.64,3.3-2.87,.86-.13,1.73,0,2.57,.2,.61,.15,1.2,.37,1.77,.61,.39,.17,.89,.58,1.32,.59,.5,.02,1.11-.42,1.56-.59,3.11-1.2,6.95-1.78,9.96,0,.87,.51,1.55,1.26,2.37,1.85s1.63,1.3,2.33,2.06c2.82,3.06,3.53,6.9,1.22,10.5-.23,.37,.64,.32,.82,.05,1.42-2.22,1.98-4.78,1.05-7.3-.72-1.95-2.11-3.61-3.68-4.93-.44-.38-.92-.7-1.38-1.05-.69-.53-1.27-1.17-2.04-1.63-2.2-1.3-4.87-1.41-7.33-.99-1.67,.29-3.37,.79-4.89,1.55l.52-.02c-2.44-1.24-5.59-2.28-8.14-.72-1,.61-1.87,1.63-2.2,2.78-.1,.35,.78,.23,.87-.09h0Z"/><path d="M318.9,340.32c1.16-1.24,2.6-2.31,4.09-3.1,3.34-1.77,6.71-1.29,9.27,1.53,.12,.13,.55-.03,.66-.09,1.77-.89,3.87-1.33,5.84-1.41,4.56-.18,8.58,2.06,11.18,5.77,.89,1.27,1.62,2.66,2.22,4.09,.32,.76,.53,1.59,.9,2.32,.4,.79,.86,1.53,1.22,2.34,1.57,3.5,2.36,7.39,2.08,11.23-.54,7.57-5.33,13.72-11.2,18.17-.35,.27,.51,.16,.67,.04,5.42-4.1,10.01-9.57,11.17-16.45,.71-4.25,.07-8.64-1.58-12.6-.41-.99-.94-1.91-1.43-2.86-.34-.65-.54-1.38-.82-2.06-.63-1.55-1.4-3.06-2.36-4.44-2.59-3.69-6.5-5.93-11.04-5.91-2.47,0-5.13,.54-7.35,1.65l.66-.09c-2.58-2.84-6.05-3.33-9.51-1.88-2.02,.85-3.96,2.2-5.47,3.8-.19,.2,.64,.1,.79-.06h0Z"/><path d="M194.05,423.08c1.61,5.46,6.42,10.05,11.82,11.62,2.89,.84,5.92,.9,8.89,.53l-.36-.08c.7,1.07,2.14,1.66,3.32,1.95,3.92,.96,8.19-.36,11.81-1.81,.57-.23,.04-.41-.32-.27-3.43,1.37-7.62,2.72-11.32,1.55-.93-.29-2.15-.93-2.63-1.66-.08-.12-.24-.1-.36-.08-6.03,.74-11.99-.84-16.13-5.43-1.66-1.85-3.15-4.15-3.86-6.56-.07-.25-.94,0-.87,.23h0Z"/><g><path class="cls-10" d="M290.21,199.05s-5.92-9.04-.68-13.47c0,0,.48-1.13,1.06-3.63,.68-2.93,5.73,4.6,4.07,7.62s2.73,1.54-4.45,9.48Z"/><path d="M290.5,198.98c-1.24-1.9-2.18-4.13-2.62-6.35-.35-1.73-.36-3.61,.45-5.22,.2-.4,.45-.78,.74-1.12,.22-.26,.57-.49,.75-.77,.26-.42,.36-1.03,.5-1.49,.18-.6,.33-1.2,.48-1.81,.05-.21,.1-.69,.32-.83-.1,.07-.06,.01,.07,.05,.11,.03,.22,.1,.32,.17,.22,.14,.42,.33,.6,.52,1.04,1.08,1.79,2.56,2.24,3.99,.22,.69,.37,1.42,.35,2.14-.02,.66-.25,1.14-.51,1.73s-.27,1.07-.13,1.66c.18,.75,.18,1.35-.13,2.08-.85,2.02-2.54,3.75-3.98,5.35-.11,.13,.43,.06,.52-.05,1.4-1.56,2.94-3.2,3.88-5.1,.35-.7,.53-1.4,.36-2.17-.14-.63-.25-1.12,0-1.76,.22-.55,.49-1.01,.55-1.61,.08-.79-.08-1.6-.31-2.35-.31-1.03-2.51-6.29-4.36-4.61-.14,.13-.21,.29-.27,.46-.23,.64-.33,1.36-.52,2.02-.15,.51-.26,1.27-.57,1.72-.22,.32-.61,.58-.87,.9-.32,.4-.58,.85-.78,1.32-.33,.79-.49,1.64-.52,2.49-.11,3.04,1.2,6.27,2.84,8.79,.09,.14,.62-.09,.58-.16Z"/></g><path class="cls-11" d="M290.42,194.42s-2.94-5.07-.02-7.25c0,0,.29-.59,.66-1.91,.44-1.54,2.95,2.69,1.98,4.24-.97,1.56,1.42,.93-2.62,4.92Z"/><g><g><path class="cls-10" d="M291.49,199.79c-.71-.14-1.08-.93-.7-1.54,1.56-2.54,5.55-7.92,10.54-6.18,0,0,2.66,.6,5.23,.59,1.12,0-4.35,5.23-6.05,5.86-3.08,1.14-.24,2.95-9.01,1.27Z"/><path d="M291.7,199.55c-1.14-.33-.54-1.33-.11-1.97,.4-.6,.82-1.17,1.28-1.72,1.04-1.25,2.26-2.43,3.72-3.17,1.54-.78,2.99-.77,4.63-.35,.53,.14,1.09,.21,1.64,.3,.42,.06,.84,.12,1.26,.16,.59,.06,1.44,.26,2.02,.13,.12-.03,.26,.07,.21-.1,.01,.03-.03,.09-.04,.12-.04,.12-.14,.24-.21,.34-.31,.45-.7,.85-1.08,1.24-.89,.92-1.84,1.79-2.84,2.58-1.2,.95-2.63,1.41-3.71,2.49-.43,.43-.85,.57-1.47,.6-1.79,.09-3.65-.34-5.39-.67-.35-.07-.73,.43-.25,.52,1.78,.34,3.64,.75,5.46,.68,.72-.03,1.42-.18,1.97-.66,.48-.42,.83-.88,1.42-1.16,1.08-.52,2-1.11,2.92-1.89,1.11-.93,2.19-1.92,3.13-3.01,.27-.32,1.23-1.27,.53-1.59-.4-.18-1.15-.04-1.6-.07-.63-.04-1.25-.12-1.87-.2-.66-.09-1.49-.23-2.01-.39-1.74-.52-3.54-.28-5.14,.55-1.75,.91-3.18,2.36-4.37,3.9-.73,.95-2.65,3.21-.53,3.81,.31,.09,.85-.36,.42-.48Z"/></g><path class="cls-11" d="M302.31,194.2s-5.62-1.66-7.05,1.68c0,0-.5,.42-1.7,1.09-1.4,.79,3.3,2.24,4.59,.93s1.24,1.16,4.16-3.7Z"/></g><g><g><path class="cls-10" d="M208.7,491.69c.72,0,1.24,.69,1,1.37-1.02,2.81-3.84,8.87-9.08,8.17,0,0-2.72-.06-5.24,.47-1.1,.23,3.21-6,4.75-6.95,2.79-1.74-.36-2.94,8.57-3.05Z"/><path d="M208.4,491.82c1.9,.14,.41,2.7-.03,3.59-.66,1.33-1.47,2.62-2.51,3.69-1.23,1.27-2.79,2.16-4.61,2.02-1.35-.1-2.74,0-4.08,.17-.22,.03-.45,.06-.67,.09-.15,.02-.65,.19-.8,.14s-.13,.05-.12-.19c.01-.35,.33-.79,.49-1.08,.63-1.12,1.39-2.19,2.18-3.21,.67-.86,1.37-1.77,2.28-2.39,.53-.36,.95-.77,1.3-1.31,.31-.49,.59-.87,1.17-1.06,1.69-.56,3.72-.44,5.46-.46,.14,0,.81-.28,.48-.28-1.84,.03-3.75,.01-5.55,.43-.68,.16-1.42,.39-1.89,.94-.4,.47-.63,1.02-1.11,1.43-.35,.3-.75,.51-1.08,.82-.47,.44-.9,.93-1.3,1.43-.96,1.17-1.87,2.42-2.62,3.74-.2,.35-1.02,1.57-.12,1.48,1.31-.14,2.58-.39,3.91-.44,.6-.02,1.17,0,1.76,.03,1.6,.07,3.18-.47,4.47-1.4,1.51-1.1,2.62-2.69,3.47-4.32,.52-.98,2.31-3.96,.13-4.13-.15-.01-.37,0-.51,.1-.03,.02-.27,.16-.09,.17Z"/></g><path class="cls-11" d="M199.22,499.34s5.84,.5,6.57-3.07c0,0,.41-.51,1.45-1.41,1.21-1.05-3.69-1.53-4.68,.01s-1.45-.89-3.33,4.46Z"/></g><g><g><path class="cls-10" d="M374.25,332.76s-4.97-5.76-1.73-9.34c0,0,.23-.83,.4-2.63,.2-2.11,4.43,2.68,3.55,4.94-.88,2.26,2.05,.82-2.22,7.03Z"/><path d="M374.51,332.63c-1.04-1.21-1.91-2.68-2.41-4.19-.39-1.16-.56-2.44-.14-3.62,.11-.3,.26-.59,.44-.85,.13-.19,.32-.36,.42-.57,.14-.32,.16-.76,.21-1.1,.06-.4,.11-.8,.15-1.2,.01-.1,0-.55,.12-.63,.09-.06,.54,.27,.68,.38,.81,.65,1.45,1.59,1.88,2.52,.22,.48,.41,1.01,.44,1.54,.02,.41-.11,.75-.22,1.13-.11,.41-.08,.77,.07,1.17,.18,.48,.25,.87,.11,1.39-.39,1.47-1.41,2.84-2.26,4.07-.21,.31,.33,.4,.49,.18,.84-1.23,1.78-2.53,2.26-3.96,.18-.53,.26-1.06,.06-1.6-.15-.43-.29-.75-.17-1.21,.11-.43,.26-.78,.23-1.24-.03-.56-.21-1.1-.44-1.6-.45-.99-1.11-1.94-1.95-2.65-.44-.37-1.29-.86-1.72-.21-.09,.13-.12,.29-.14,.44-.08,.51-.11,1.03-.19,1.53-.05,.35-.1,.83-.26,1.1-.34,.57-.71,1.02-.89,1.68s-.19,1.29-.12,1.93c.24,2.11,1.44,4.24,2.81,5.83,.18,.2,.72-.03,.53-.26Z"/></g><path class="cls-11" d="M373.96,329.51s-2.52-3.27-.69-5.06c0,0,.15-.44,.28-1.39,.16-1.12,2.31,1.6,1.78,2.78s1.08,.52-1.37,3.68Z"/><g><path class="cls-10" d="M374.55,332.75c-.5,.07-.93-.37-.82-.87,.46-2.05,1.9-6.54,5.63-6.51,0,0,1.91-.2,3.62-.79,.75-.26-1.72,4.47-2.71,5.28-1.79,1.46,.51,2.02-5.72,2.89Z"/><path d="M374.58,332.5c-.74,.04-.43-.89-.33-1.29,.12-.44,.25-.87,.41-1.29,.36-.95,.82-1.89,1.47-2.68s1.55-1.45,2.62-1.58c.97-.12,1.92-.21,2.89-.44,.37-.09,.73-.18,1.09-.3,.04-.01,.31-.09,.31-.1,0,0-.31-.06-.29-.08-.01,0,.03,0,0,.06-.12,.24-.16,.57-.26,.82-.36,.85-.8,1.67-1.27,2.46-.39,.65-.79,1.27-1.35,1.77-.34,.31-.59,.66-.78,1.08s-.34,.59-.75,.77c-1.14,.5-2.51,.62-3.73,.79-.39,.05-.57,.57-.07,.5,1.31-.18,2.7-.34,3.95-.82,.49-.19,.93-.47,1.19-.94,.22-.41,.38-.79,.73-1.11,.65-.59,1.12-1.3,1.57-2.05,.52-.88,1.04-1.81,1.38-2.77,.07-.2,.23-.55,.14-.77-.18-.44-.9-.06-1.18,.02-.76,.22-1.55,.38-2.34,.5-.43,.06-.86,.06-1.29,.13-1.18,.19-2.21,.82-2.99,1.71-.86,.98-1.43,2.18-1.85,3.41-.16,.49-.32,.98-.43,1.49-.16,.76,.37,1.26,1.12,1.22,.4-.02,.57-.53,.07-.5Z"/></g><path class="cls-11" d="M380.5,326.57s-4.12,.17-4.32,2.72c0,0-.24,.39-.89,1.11-.75,.84,2.71,.74,3.27-.42s1.09,.49,1.94-3.41Z"/></g><g><g><path class="cls-10" d="M309.23,445.92c-.24-.68,.24-1.4,.96-1.39,2.98,.04,9.64,.72,10.7,5.9,0,0,.84,2.59,2.16,4.79,.58,.96-6.72-1.07-8.13-2.21-2.55-2.06-2.66,1.3-5.7-7.1Z"/><path d="M309.59,445.82c-.15-.56,.06-1.04,.66-1.1,.27-.03,.57,.02,.83,.03,.63,.04,1.26,.1,1.88,.2,1.42,.22,2.84,.59,4.12,1.25,1.36,.7,2.53,1.78,3.12,3.22,.19,.47,.28,.97,.45,1.45,.27,.77,.58,1.52,.91,2.26,.21,.46,.43,.91,.66,1.35,.12,.22,.24,.55,.41,.73-.04-.04,.08,.15,.08,.15,0,0,0,.01,0,.02,.01,.04,.04,.02,.09-.05-.14-.13,.21,.07,.01-.05-.05-.03-.2,0-.26-.01-.25-.02-.5-.06-.74-.11-1.32-.24-2.63-.63-3.9-1.08-1.03-.36-2-.75-2.89-1.38-.52-.38-1.07-.58-1.68-.73s-1.07-.44-1.46-.99c-1.08-1.51-1.67-3.44-2.29-5.16-.08-.23-.8-.02-.72,.19,.63,1.72,1.23,3.6,2.27,5.13,.41,.6,.88,.98,1.58,1.15,.77,.19,1.31,.46,1.96,.92,1.08,.76,2.47,1.16,3.71,1.55s2.6,.82,3.93,.89c.3,.02,.8,.04,1.02-.21,.09-.1,.11-.14,.1-.27-.02-.17-.24-.42-.32-.57-.17-.31-.34-.63-.49-.95-.45-.92-.85-1.87-1.2-2.83-.21-.58-.32-1.18-.57-1.75-.66-1.48-1.9-2.56-3.33-3.27-1.61-.8-3.42-1.18-5.2-1.36-1.14-.11-4.01-.46-3.46,1.57,.06,.23,.79,.03,.72-.19Z"/></g><path class="cls-11" d="M319.57,452.36s-1.45-5.68-5.05-5.2c0,0-.62-.22-1.81-.9-1.39-.8-.23,3.98,1.55,4.42,1.78,.44-.37,1.66,5.31,1.69Z"/></g><path class="cls-3" d="M104.35,557.28c-.7,0-.85-.99-.18-1.2,6.32-2.01,23.49-5.71,61.99-4.29,0,0,23.85,1.78,43.72-3.3s19.68-4.23,38.06-4.29c18.38-.06,25.27-5.63,41.77-.61,16.49,5.03,74.19,3.05,79.54,3.37,25.97,1.54,31.56,6.69,35.75,6.29,11.28-1.09,19.95,2.92,22.73,4.42,.26,.14,.15,.53-.15,.53-18.83-.07-276.77-.96-323.21-.92Z"/><path class="cls-8" d="M114.15,556.49c-.49,0,3.52-1.22,3.99-1.37,4.42-1.41,44.39,.32,77.81-1.99,0,0,16.77-.3,30.68-3.85,13.91-3.55,13.78-2.96,26.64-3,12.86-.04,17.69-3.94,29.24-.43,11.55,3.52,51.93,2.13,55.67,2.36,18.18,1.08,22.09,4.68,25.02,4.4,7.9-.76,49.96,2.6,52.84,3.11,.08,.01-5.49,1.32-16.09,.78-5.12-.26-19.25-.4-19.28-.4-13.18-.05-234.01,.37-266.52,.4Z"/><g><g><path class="cls-10" d="M226.13,543.57c.59,.06,.96,.58,.71,1.02-1.07,1.79-3.89,5.6-8.13,4.62,0,0-2.23-.3-4.34-.19-.92,.05,3.14-3.73,4.48-4.22,2.43-.9-.05-2.01,7.29-1.23Z"/><path d="M225.91,543.75c.96,.18,.57,.92,.22,1.44-.28,.41-.57,.82-.9,1.2-.75,.9-1.65,1.71-2.71,2.24-1.22,.61-2.38,.59-3.69,.39s-2.59-.23-3.86-.2h-.23c-.25,0-.3,0-.15,.04,0,0,0-.02,0-.02,.01-.1,.09-.2,.15-.28,.21-.32,.5-.6,.76-.88,.73-.74,1.52-1.43,2.35-2.05,.58-.43,1.19-.66,1.8-1.01,.33-.19,.58-.45,.86-.71,.3-.29,.61-.36,1.03-.39,1.44-.12,2.93,.09,4.36,.24,.2,.02,.84-.32,.45-.36-1.46-.15-2.96-.34-4.43-.26-.6,.04-1.24,.12-1.75,.48-.31,.22-.54,.55-.86,.76-.29,.19-.62,.28-.93,.44-.43,.22-.82,.51-1.21,.8-.93,.71-1.82,1.5-2.62,2.36-.21,.22-1.12,1.1-.43,1.23,.37,.07,.83-.02,1.21-.02,.55,0,1.11,.03,1.66,.06,.49,.03,.98,.07,1.46,.14,1.47,.23,2.82,.17,4.2-.45s2.48-1.62,3.4-2.77c.38-.47,.76-.98,1.06-1.51,.37-.66-.1-1.15-.77-1.27-.2-.04-.85,.29-.45,.36Z"/></g><path class="cls-11" d="M217.72,547.81s4.75,.9,5.65-1.43c0,0,.38-.3,1.3-.81,1.08-.59-2.9-1.38-3.85-.44s-1.11-.74-3.11,2.68Z"/></g><g><g><path class="cls-10" d="M153.72,546.28s7.41-1.72,9.07,2.81c0,0,.63,.59,2.14,1.58,1.77,1.16-4.43,2.67-6.03,.84-1.59-1.83-1.68,1.43-5.19-5.24Z"/><path d="M153.75,546.39c.08-.02-.04,0,.03,0,.1-.02,.2-.04,.29-.06,.31-.06,.63-.1,.95-.14,1-.11,2.01-.13,3.01-.01,1.12,.14,2.26,.47,3.15,1.18,.46,.36,.83,.81,1.1,1.33,.19,.37,.24,.54,.55,.79,.58,.48,1.23,.86,1.83,1.31,.23,.17,.4,.37,.19,.64-.24,.31-.74,.45-1.1,.55-.54,.15-1.11,.24-1.67,.26-1.05,.05-2.2-.07-2.96-.87-.34-.35-.68-.58-1.17-.65-.53-.07-.91-.16-1.32-.53-1.16-1.04-1.91-2.62-2.63-3.98-.08-.16-.64,.04-.58,.16,.71,1.34,1.44,2.83,2.53,3.91,.41,.4,.84,.62,1.41,.69s.87,.26,1.27,.67c.77,.79,1.99,.91,3.04,.88s2.27-.21,3.22-.74c.24-.13,.59-.35,.64-.65,.07-.44-.56-.7-.83-.89-.5-.34-1.13-.7-1.54-1.16-.31-.34-.44-.87-.74-1.25-.75-.95-1.89-1.49-3.06-1.75-1.83-.41-3.85-.32-5.67,.1-.34,.08-.29,.29,.06,.22Z"/></g><path class="cls-11" d="M156.41,547.39s4.07-.71,4.8,1.74c0,0,.32,.33,1.1,.9,.92,.66-2.49,1.3-3.29,.28s-.96,.71-2.62-2.92Z"/></g><g><path class="cls-10" d="M200.45,552.88c-.5,.07-.93-.36-.83-.86,.44-2.05,1.84-6.55,5.57-6.56,0,0,1.91-.22,3.61-.82,.74-.26-1.68,4.49-2.66,5.3-1.78,1.47,.53,2.02-5.69,2.94Z"/><path d="M200.6,552.7c-1.15,.08-.28-2.04-.09-2.57,.34-.97,.79-1.92,1.42-2.74s1.49-1.52,2.55-1.69c.35-.06,.7-.05,1.05-.1,.62-.09,1.24-.21,1.85-.36,.36-.09,.73-.19,1.08-.3,.07-.02,.2-.04,.25-.08,.15-.13-.12-.06-.13-.06,0,0,.02,.05,0,.08-.11,.21-.14,.54-.23,.78-.34,.88-.79,1.73-1.27,2.54-.38,.64-.77,1.3-1.32,1.8-.35,.32-.61,.67-.8,1.09-.17,.37-.34,.62-.72,.8-1.13,.53-2.52,.65-3.73,.83-.33,.05-.62,.43-.11,.36,1.31-.2,2.68-.37,3.92-.85,.5-.19,.96-.46,1.22-.94,.21-.4,.36-.78,.69-1.1,.63-.62,1.1-1.27,1.55-2.04,.51-.88,1.01-1.8,1.36-2.76,.07-.19,.25-.57,.16-.77-.15-.36-.79-.03-1,.04-.8,.25-1.62,.43-2.44,.56-.43,.07-.85,.07-1.28,.14-1.16,.18-2.18,.77-2.97,1.63-.87,.94-1.45,2.14-1.86,3.35-.18,.51-.32,1.03-.44,1.56-.16,.71,.24,1.24,1,1.19,.13,0,.43-.05,.48-.19,.05-.14-.04-.19-.19-.18Z"/></g><path class="cls-11" d="M206.34,546.65s-4.12,.21-4.3,2.76c0,0-.24,.39-.88,1.12-.75,.85,2.72,.72,3.27-.45,.55-1.17,1.09,.48,1.91-3.43Z"/><g><g><path class="cls-10" d="M334.52,546.47s5.39-5.37,9.19-2.4c0,0,.85,.17,2.66,.21,2.11,.05-2.35,4.61-4.67,3.9-2.32-.71-.67,2.1-7.17-1.71Z"/><path d="M334.76,546.53c1.13-1.12,2.52-2.08,3.99-2.68,1.17-.48,2.5-.7,3.71-.22,.41,.16,.75,.51,1.16,.63s.9,.12,1.31,.15,.82,.04,1.23,.06c.15,0,.34-.01,.44,.13,.16,.23-.08,.61-.2,.8-.53,.86-1.41,1.56-2.27,2.08-.47,.28-1,.53-1.55,.6-.4,.05-.74-.09-1.12-.15-.44-.07-.84,0-1.24,.18-.45,.21-.77,.3-1.28,.19-1.48-.31-2.89-1.21-4.18-1.96-.17-.1-.7,.15-.46,.29,1.29,.75,2.66,1.59,4.13,1.96,.58,.15,1.16,.17,1.71-.07,.41-.18,.64-.33,1.11-.23s.83,.19,1.3,.13c.55-.07,1.07-.28,1.56-.53,1-.52,1.93-1.26,2.62-2.16,.31-.41,.86-1.3,.09-1.55-.27-.09-.59-.05-.86-.06-.43-.02-.87-.04-1.3-.09-.49-.05-.67-.09-1.06-.33-1.1-.7-2.43-.8-3.69-.53-2.09,.45-4.1,1.78-5.61,3.27-.24,.24,.32,.26,.47,.11Z"/></g><path class="cls-11" d="M337.39,545.99s3.08-2.75,5-1.05c0,0,.45,.11,1.41,.18,1.13,.08-1.43,2.42-2.64,1.97s-.44,1.11-3.77-1.1Z"/></g></g><g class="cls-13"><g><path class="cls-10" d="M371.03,154.6c-1.17-.16-1.85-1.42-1.29-2.45,2.32-4.31,8.35-13.46,16.68-11.06,0,0,4.4,.74,8.61,.49,1.83-.11-6.65,8.95-9.37,10.13-4.93,2.15-.13,4.85-14.63,2.9Z"/><path d="M371.25,154.39c-3.07-.69,.35-4.88,1.28-6.17,1.53-2.13,3.35-4.14,5.57-5.57,2.59-1.67,5.13-1.96,8.1-1.37,2.36,.47,4.89,.58,7.28,.55,.21,0,1.36-.15,1.43,.03,.06,.14-.18,.47-.24,.58-.37,.7-.91,1.32-1.41,1.93-1.36,1.64-2.86,3.17-4.42,4.61-1.26,1.16-2.52,2.08-4.02,2.89-.81,.44-1.45,1.01-2.06,1.71-.72,.83-1.37,1.25-2.49,1.39-2.94,.38-6.11-.19-9.02-.58-.24-.03-.85,.36-.44,.41,2.93,.39,5.98,.88,8.94,.64,1.12-.09,2.24-.35,3.07-1.14,.75-.71,1.27-1.51,2.19-2.04,1.65-.97,3.08-1.9,4.51-3.22,1.77-1.64,3.48-3.39,4.96-5.3,.35-.45,1.83-2.07,.75-2.38-.35-.1-.87,.04-1.24,.04-.54,.01-1.08,0-1.61,0-1.09-.03-2.19-.1-3.28-.21s-2.19-.29-3.29-.51c-2.66-.53-5.34,.07-7.66,1.43-2.66,1.55-4.79,3.93-6.54,6.43-1.06,1.51-4.24,5.49-.8,6.27,.25,.06,.85-.32,.44-.41Z"/></g><path class="cls-11" d="M388.23,144.46s-9.35-2.2-11.39,3.39c0,0-.79,.73-2.68,1.94-2.22,1.42,5.61,3.36,7.6,1.1,1.99-2.25,2.13,1.79,6.48-6.44Z"/></g><g class="cls-13"><g><path class="cls-7" d="M429.38,181.25s9.57-6.66,14.5-1.15c0,0,1.23,.48,3.95,1.03,3.18,.64-4.79,6.33-8.09,4.63-3.31-1.7-1.58,2.99-10.36-4.5Z"/><path d="M429.6,181.25c2.06-1.43,4.53-2.56,6.99-3.03,1.96-.38,4.07-.25,5.77,.88,.52,.35,.91,.9,1.46,1.16,.67,.32,1.49,.45,2.21,.62,.55,.13,2,.11,2.22,.8,.14,.43-.27,.92-.53,1.21-1.05,1.2-2.62,2.06-4.1,2.6-.86,.32-1.83,.55-2.76,.42-.55-.08-.99-.37-1.51-.54-.59-.19-1.14-.16-1.72,0-.84,.22-1.46,.19-2.28-.17-2.12-.92-3.96-2.58-5.7-4.06-.12-.1-.63,.13-.55,.2,1.75,1.49,3.62,3.17,5.76,4.08,.76,.33,1.52,.45,2.33,.25,.77-.18,1.25-.29,2.02,.05,1.37,.59,2.66,.51,4.08,.07,1.58-.49,3.14-1.31,4.39-2.4,.51-.44,1.81-1.69,.77-2.25-.4-.22-.94-.24-1.38-.33-.64-.14-1.29-.3-1.92-.49-.28-.08-.61-.14-.87-.27-.31-.16-.52-.45-.79-.68-1.51-1.29-3.48-1.68-5.42-1.53-3.13,.24-6.36,1.63-8.93,3.41-.23,.16,.34,.08,.44,.01Z"/></g><path class="cls-9" d="M433.83,181.29s5.38-3.32,7.82-.25c0,0,.64,.29,2.08,.65,1.68,.42-2.81,3.26-4.52,2.27s-.96,1.56-5.38-2.67Z"/></g><g class="cls-13"><g><path class="cls-7" d="M218.15,132.84s9.41-6.89,14.47-1.5c0,0,1.24,.46,3.97,.94,3.19,.56-4.63,6.44-7.98,4.82-3.35-1.62-1.51,3.03-10.47-4.26Z"/><path d="M218.37,132.85c2.03-1.48,4.46-2.67,6.91-3.2,1.95-.43,4.06-.35,5.79,.74,.53,.33,.93,.88,1.49,1.13,.68,.3,1.5,.42,2.22,.57,.54,.12,2,.07,2.24,.74,.15,.42-.25,.92-.5,1.22-1.02,1.22-2.57,2.12-4.04,2.7-.84,.33-1.78,.59-2.69,.5-.57-.06-1.04-.35-1.57-.51-.59-.18-1.14-.14-1.72,.03-.83,.24-1.45,.24-2.28-.1-2.14-.87-4.03-2.49-5.8-3.92-.12-.1-.63,.13-.55,.2,1.79,1.45,3.69,3.08,5.86,3.94,.77,.31,1.53,.42,2.33,.21,.76-.2,1.24-.33,2.02-.01,1.38,.56,2.67,.46,4.09-.01,1.57-.52,3.11-1.38,4.34-2.51,.5-.46,1.77-1.73,.72-2.28-.4-.21-.95-.22-1.38-.3-.65-.13-1.29-.27-1.93-.44-.28-.07-.61-.12-.87-.25-.31-.15-.53-.44-.81-.66-1.54-1.25-3.52-1.6-5.46-1.41-3.13,.31-6.32,1.77-8.85,3.62-.23,.17,.34,.09,.44,.02Z"/></g><path class="cls-9" d="M222.59,132.78s5.3-3.45,7.81-.44c0,0,.65,.28,2.09,.6,1.69,.38-2.73,3.33-4.46,2.38s-.92,1.58-5.45-2.54Z"/></g><g class="cls-13"><g><path class="cls-7" d="M455.47,244.18s11.63,.77,12.05,8.15c0,0,.66,1.15,2.44,3.27,2.08,2.48-7.69,1.96-9.21-1.44-1.52-3.39-3.1,1.35-5.29-9.99Z"/><path d="M455.29,244.3c2.19,.15,4.45,.7,6.47,1.56,1.59,.68,3.15,1.64,4.2,3.04,.51,.68,.89,1.45,1.09,2.27,.15,.6,.1,1.13,.44,1.65,.62,.93,1.32,1.81,2.03,2.67,.3,.36,.72,.88,.2,1.25-.49,.36-1.35,.3-1.92,.29-.85-.02-1.7-.14-2.53-.34-1.47-.35-3.34-1-4.13-2.41-.4-.71-.68-1.33-1.45-1.69s-1.34-.65-1.81-1.41c-1.26-2.06-1.67-4.75-2.12-7.07-.02-.12-.61,.01-.58,.16,.45,2.3,.85,4.9,2.05,6.95,.42,.72,.94,1.15,1.69,1.47,.88,.37,1.19,.93,1.64,1.74,.78,1.4,2.56,2.06,4.02,2.43s3.19,.61,4.7,.24c.39-.1,.96-.26,1.18-.64,.29-.52-.28-1.02-.58-1.38-.67-.82-1.51-1.72-1.98-2.68-.12-.24-.11-.47-.15-.75-.07-.49-.2-.98-.39-1.44-.68-1.68-2.06-2.94-3.61-3.82-2.41-1.38-5.33-2.13-8.1-2.32-.13,0-.66,.22-.38,.24Z"/></g><path class="cls-9" d="M458.92,246.99s6.28,.76,6.27,4.68c0,0,.32,.63,1.22,1.81,1.05,1.38-4.23,.8-4.95-1.04-.72-1.84-1.72,.62-2.54-5.45Z"/></g><g class="cls-13"><g><path class="cls-7" d="M21.65,254.71s-10.61,2.69-13.38-3.59c0,0-.96-.81-3.24-2.13-2.66-1.55,6.21-3.92,8.67-1.41,2.46,2.5,2.32-2.07,7.94,7.14Z"/><path d="M21.6,254.52c-2.03,.51-4.23,.68-6.31,.5-1.63-.14-3.3-.54-4.67-1.49-.72-.5-1.32-1.14-1.76-1.9-.3-.52-.38-.7-.84-1.04-.89-.65-1.86-1.16-2.76-1.77-.42-.28-.56-.57-.15-.94,1.01-.89,2.85-1.09,4.13-1.17,1.59-.11,3.17,.06,4.38,1.17,.5,.46,1.02,.73,1.7,.81,.76,.08,1.32,.18,1.94,.68,1.75,1.4,2.97,3.6,4.12,5.47,.13,.21,.69,0,.53-.25-1.14-1.86-2.33-3.92-3.99-5.37-.61-.54-1.25-.84-2.06-.91s-1.29-.32-1.93-.89c-1.14-1.03-2.82-1.18-4.29-1.12s-3.25,.32-4.57,1.13c-.32,.2-.75,.49-.81,.9-.07,.56,.57,.85,.96,1.08,.86,.51,1.92,1.04,2.64,1.74,.45,.45,.68,1.14,1.11,1.65,1.13,1.31,2.75,2.03,4.41,2.39,2.68,.58,5.66,.4,8.31-.27,.36-.09,.26-.47-.1-.38Z"/></g><path class="cls-9" d="M17.18,253.06s-5.84,1.15-7.1-2.26c0,0-.49-.45-1.67-1.22-1.38-.89,3.51-1.91,4.74-.52,1.23,1.39,1.33-1.04,4.03,3.99Z"/><g><path class="cls-7" d="M22.75,253.75c-.34,.62-1.23,.72-1.72,.17-2.02-2.26-6.08-7.67-2.89-11.8,0,0,1.38-2.29,2.14-4.7,.33-1.05,3.81,5.71,3.92,7.5,.19,3.24,2.81,1.15-1.45,8.82Z"/><path d="M22.42,253.76c-.62,.89-1.54-.53-1.91-.99-.55-.68-1.06-1.4-1.51-2.15-.83-1.39-1.52-2.93-1.65-4.56s.48-2.83,1.3-4.22c.35-.6,.67-1.23,.96-1.86,.13-.27,1.22-2.49,1.05-2.63l-.47,.15s.06,.04,.08,.06c.02,.05,.12,.1,.15,.15,.08,.13,.21,.25,.3,.38,.35,.48,.65,1.01,.93,1.53,.6,1.1,1.15,2.24,1.61,3.41,.35,.89,.47,1.72,.66,2.64,.11,.54,.36,.97,.62,1.44,.31,.59,.32,1.14,.15,1.79-.45,1.73-1.44,3.36-2.3,4.91-.08,.15,.61,.09,.72-.11,.86-1.56,1.87-3.21,2.31-4.96,.16-.65,.15-1.22-.16-1.82-.34-.64-.6-1.18-.68-1.91-.13-1.17-.61-2.27-1.09-3.33-.27-.61-2.28-5.61-3.49-4.32-.21,.23-.25,.67-.36,.95-.21,.56-.45,1.12-.7,1.66-.33,.72-.68,1.46-1.11,2.13-.99,1.56-1.46,3.06-1.11,4.92,.39,2.05,1.5,3.93,2.75,5.57,.43,.57,.99,1.52,1.69,1.79s1.51-.04,1.91-.63c.16-.23-.55-.15-.67,.02Z"/></g><path class="cls-9" d="M20.52,241.87s-3.31,4.74-.47,7.13c0,0,.26,.6,.56,1.93,.35,1.56,3.17-2.39,2.28-4-.89-1.61,1.51-.79-2.37-5.06Z"/></g><g class="cls-13"><g><path class="cls-7" d="M26.56,166.56c-.75-.81-.5-2.12,.52-2.54,4.23-1.74,14.01-4.8,18.62,1.87,0,0,2.75,3.14,5.94,5.45,1.39,1.01-10.11,2.54-12.78,1.79-4.84-1.37-2.96,3.44-12.3-6.56Z"/><path d="M26.9,166.4c-1.29-1.69,.84-2.4,2.08-2.83,.99-.35,2-.65,3.03-.89,2.3-.55,4.72-.84,7.07-.47,2.71,.42,4.6,1.77,6.31,3.83,1.25,1.52,2.78,2.9,4.28,4.16,.15,.13,1.76,1.32,1.74,1.36,0,0-.27,.11-.33,.15-.54,.37-1.53,.44-2.16,.56-2,.39-4.04,.62-6.06,.73-1.61,.09-3.02-.04-4.58-.32-.89-.16-1.7-.07-2.58,.07-1.03,.16-1.78-.05-2.66-.63-2.32-1.51-4.24-3.73-6.12-5.73-.22-.24-.91,.05-.66,.32,1.9,2.03,3.87,4.3,6.22,5.83,.88,.57,1.78,.92,2.83,.8s1.98-.3,3.08-.05c1.84,.42,3.72,.32,5.59,.17,2.19-.18,4.45-.42,6.56-1.02,.41-.12,1.19-.27,1.46-.66,.36-.53-.15-.72-.58-1.05-2.23-1.7-4.15-3.67-5.96-5.79-1.7-1.99-4.13-3.05-6.7-3.34-2.88-.32-5.82,.21-8.58,1.04-1.67,.51-5.87,1.53-3.93,4.07,.2,.26,.89-.02,.66-.32Z"/></g><path class="cls-9" d="M45.01,169.41s-5.46-7.13-10.25-4.29c0,0-1,.06-3.09-.19-2.44-.29,2.07,5.75,4.84,5.3,2.77-.45,.48,2.56,8.5-.82Z"/></g><g class="cls-13"><g><path class="cls-10" d="M100.26,184.77c-1.17-.13-1.88-1.37-1.35-2.42,2.22-4.36,8.03-13.65,16.41-11.46,0,0,4.42,.64,8.61,.28,1.83-.15-6.43,9.11-9.13,10.35-4.88,2.26,0,4.85-14.55,3.24Z"/><path d="M100.48,184.57c-3.08-.62,.18-4.83,1.09-6.16,1.46-2.14,3.18-4.17,5.32-5.66,2.57-1.8,5.17-2.21,8.22-1.67,2.22,.39,4.58,.44,6.83,.39,.17,0,1.86-.16,1.9-.07,.06,.15-.1,.42-.16,.54-.31,.68-.83,1.31-1.29,1.9-1.35,1.74-2.86,3.37-4.45,4.89-1.18,1.14-2.37,2.13-3.81,2.91-.86,.47-1.54,1.08-2.16,1.82-.7,.84-1.33,1.29-2.45,1.47-2.93,.46-6.12-.05-9.03-.36-.23-.02-.85,.35-.44,.39,2.93,.32,6,.74,8.95,.42,1.11-.12,2.23-.4,3.05-1.2,.75-.74,1.27-1.57,2.2-2.14,1.65-1,3.06-2.01,4.46-3.38,1.7-1.65,3.34-3.42,4.74-5.33,.35-.47,1.8-2.13,.67-2.39-.41-.09-1.02,.07-1.43,.08-.61,.02-1.22,.03-1.83,.02-1-.01-2-.06-3-.14-1.12-.09-2.18-.27-3.28-.45-2.63-.42-5.26,.25-7.51,1.65-2.62,1.63-4.7,4.06-6.39,6.61-1.02,1.53-4.05,5.53-.63,6.22,.23,.05,.85-.31,.44-.39Z"/></g><path class="cls-11" d="M117.21,174.23s-9.4-1.98-11.3,3.66c0,0-.77,.75-2.64,2-2.18,1.47,5.69,3.22,7.62,.92,1.93-2.3,2.17,1.74,6.32-6.59Z"/></g><g class="cls-13"><g><path class="cls-10" d="M180.45,199.03s-9.43-4.34-7.44-10.61c0,0-.18-1.17-.99-3.5-.94-2.73,7.02,.82,7.21,4.13,.19,3.31,3.01-.14,1.22,9.99Z"/><path d="M180.68,198.88c-1.86-.86-3.65-2.1-5.09-3.55-1.12-1.12-2.08-2.48-2.43-4.05-.18-.83-.16-1.68,.04-2.51,.12-.49,.05-.75-.07-1.25-.11-.44-.23-.87-.36-1.31-.16-.51-.44-1.06-.51-1.59s.24-.54,.68-.48c1.4,.18,2.81,1.04,3.9,1.89,.59,.46,1.15,1,1.57,1.63,.38,.57,.48,1.11,.56,1.78,.08,.6,.32,1.06,.75,1.48,.52,.51,.82,.98,.95,1.72,.35,2.08-.15,4.37-.51,6.41-.04,.26,.54,.17,.58-.06,.35-2,.77-4.14,.55-6.19-.08-.75-.31-1.41-.85-1.95-.46-.46-.77-.83-.88-1.5-.1-.63-.16-1.16-.49-1.73-.39-.67-.96-1.23-1.55-1.72-1.15-.95-2.59-1.8-4.06-2.09-.73-.15-1.95-.09-1.78,.96,.09,.53,.35,1.07,.51,1.59,.14,.47,.28,.95,.39,1.43,.05,.19,.15,.45,.14,.65-.01,.34-.19,.71-.23,1.06-.21,1.68,.39,3.29,1.36,4.64,1.55,2.17,3.97,3.91,6.38,5.03,.2,.09,.72-.18,.45-.31Z"/></g><path class="cls-11" d="M178.48,195.6s-4.98-2.63-3.72-5.89c0,0-.07-.62-.44-1.89-.43-1.48,3.77,.68,3.78,2.44s1.63,.03,.38,5.34Z"/></g></svg>