<?xml version="1.0" encoding="utf-8"?>
<!-- Generator: Adobe Illustrator 27.0.1, SVG Export Plug-In . SVG Version: 6.00 Build 0)  -->
<svg version="1.1" id="Layer_2_00000064321585289609555980000013819869906165303183_"
	 xmlns="http://www.w3.org/2000/svg" xmlns:xlink="http://www.w3.org/1999/xlink" x="0px" y="0px" viewBox="0 0 890 490"
	 style="enable-background:new 0 0 890 490;" xml:space="preserve">
<style type="text/css">
	.st0{fill:#83430C;stroke:#000000;stroke-miterlimit:10;}
	.st1{fill:#5D3009;}
	.st2{opacity:0.74;fill:#381D06;enable-background:new    ;}
	.st3{fill:#EB9447;stroke:#000000;stroke-width:0.5;stroke-miterlimit:10;}
	.st4{fill:#EB9447;}
	.st5{fill:#CA6A16;}
	.st6{fill:#AE870A;stroke:#000000;stroke-width:0.3;stroke-miterlimit:10;}
	.st7{fill:#745A07;}
	.st8{fill:#12A57C;stroke:#000000;stroke-width:0.5;stroke-miterlimit:10;}
	.st9{fill:#12A57C;}
	.st10{fill:#0E8160;}
	.st11{opacity:0.79;}
</style>
<g>
	<path class="st0" d="M597.4,269.9c1.8,0,3.3,1.1,3.9,2.7c1.7,4.8,5,14.8,4.4,19.2c0,0-3.3,18.5-2.1,27.7c0,0.2,0,0.4,0,0.6
		c-0.2,2.8-1.8,23.3,0.5,35.3c0,0.2,0.1,0.4,0.1,0.5c0.6,1.8,4.4,14.6,3.1,38.6c0,0.1,0,0.1,0,0.2c0,1.6,0.6,32.5,4.1,47.5
		c0.8,3.7-1.5,7.2-5.2,7.8c-5.4,0.8-13.1,1.8-20.6,2.2c-2.5,0.1-4.5-1.9-4.3-4.4c1.2-13.7,4.6-54.2,3.3-65
		c-1.5-12.5,0.7-49.1,0.9-52c0-0.1,0-0.2,0-0.4l-1.4-44.7l-0.8-11.2c-0.2-2.4,1.7-4.4,4-4.4L597.4,269.9z"/>
	<path class="st1" d="M596.7,281c1.2,0,2.3,1,2.7,2.5c1.2,4.5,3.5,13.7,3.1,17.8c0,0-2.2,17.1-1.4,25.6c0,0.2,0,0.4,0,0.6
		c-0.1,2.6-1.2,21.6,0.5,32.7c0,0.2,0,0.3,0.1,0.5c0.4,1.7,3.1,13.5,2.3,35.7c0,0.1,0,0.1,0,0.2c0,1.5,0.5,30,3,44
		c0.6,3.4-1,6.7-3.6,7.2c-3.8,0.7-9.1,1.6-14.3,1.9c-1.7,0.1-3.2-1.8-3-4.1c0.8-12.7,3-50.2,2-60.2c-1.1-11.6,0.3-45.4,0.5-48.1
		c0-0.1,0-0.2,0-0.4l-1.1-41.4l-0.6-10.4c-0.1-2.2,1.1-4,2.8-4L596.7,281L596.7,281z"/>
	<path class="st2" d="M585.8,312.3l17.9-17.2c0,0-0.5,13.5-3,20.2c-2.4,6.4-5.2,7.8-9.8,8.3c-1.8,0.2-3.6-1-4.3-3
		C585.7,318.5,585.1,315.5,585.8,312.3z"/>
	<path class="st3" d="M596.1,302.3c-2.7,7.9-15.7,38.5-50.7,22.8c0,0-51.9,32.3-74.8-45.3c0,0-7.8-5.8-1.4-17.3
		c0.6-1.1,0.2-2.4-1-2.9c-7.2-3.4-29.3-17.2-19.5-58.5c0,0,10.7-30.5,53.5-31.3c2.1,0,3.2-2.3,1.9-3.7c-7.2-7.9-20.4-27.1-2.5-46.4
		c0,0,3.6-9.7,12.3-14.7c2.5-1.5,3.5-4.5,2.5-7.1c-2.1-5.1-4.2-13.3-1.1-21c0,0-3.2-30.9,39.4-58.7c0,0,23.3-15.6,53.3,1
		c0,0,18.3-4.1,26.6,15c0,0,25.8,8.2,17.5,43.6c0,0,7.4,19.6-15.6,30.1c-0.1,0.1-0.1,0.2,0,0.2c3.9,0.1,34.5,1.7,36.9,24.9
		c0.1,1.1,0.8,2.1,1.8,2.5c5.9,2.4,24.9,11.5,20.4,30.8c-0.2,0.9,0.3,1.8,1.3,2c6.2,1.1,26.4,6,29,21.8c0.1,0.4,0.4,0.6,0.8,0.6
		c4.5-0.3,29.3-0.5,12.9,37.3c0,0-8.8,24.7-32.5,40.1c-0.9,0.6-1.3,1.6-0.9,2.5c1.2,2.6,2.4,8.8-4.3,18.7
		c-9.2,13.5-30.5,21.6-50.8,13.7c0,0-19,18.5-32.2,9.6c0,0-12.8,0-21.2-10.5C597.3,301.5,596.3,301.6,596.1,302.3L596.1,302.3z"/>
	<g>
		<g>
			<path class="st4" d="M549,323.6c0,0,10.8,7.9,7.1,15.4c0,0,0,1.5,0.5,4.7c0.6,3.7-8.5-2.8-8.1-7S544.7,336.1,549,323.6L549,323.6
				z"/>
			<path d="M548.7,323.7c2.3,1.7,4.4,3.9,5.9,6.3c1.2,1.9,2.1,4.2,1.8,6.5c-0.1,0.5-0.2,1-0.3,1.5c-0.1,0.4-0.4,0.7-0.4,1.1
				c-0.1,0.6,0.1,1.4,0.2,2s0.2,1.3,0.3,1.9c0,0.3,0.3,1,0.1,1.4c-0.3,0.5-1.3,0-1.6-0.2c-1.7-0.8-3.1-2.2-4.3-3.7
				c-0.6-0.7-1.1-1.5-1.4-2.4c-0.2-0.7-0.2-1.4-0.2-2.2s-0.2-1.3-0.7-1.9c-0.6-0.8-0.8-1.6-0.8-2.6c0.1-2.7,1.1-5.4,1.9-7.9
				c0.1-0.2-0.5-0.1-0.6,0.1c-0.8,2.5-1.8,5.1-1.9,7.8c0,1,0.1,1.8,0.6,2.6c0.5,0.7,0.8,1.2,0.8,2.1c0,0.8-0.1,1.5,0.2,2.3
				c0.3,0.9,0.8,1.7,1.4,2.4c1.2,1.5,2.8,2.9,4.5,3.7c0.7,0.3,2.2,0.8,2.5-0.3c0.1-0.3,0-0.6,0-0.9c-0.1-0.9-0.3-1.7-0.4-2.6
				c-0.1-0.7-0.2-1.5,0-2.2c0.8-2.2,0.8-4.4-0.1-6.6c-1.4-3.4-4.2-6.4-7.2-8.6C549,323.3,548.5,323.6,548.7,323.7L548.7,323.7z"/>
		</g>
		<path class="st5" d="M550.9,329.1c0,0,5.7,4.6,3.4,8.4c0,0,0,0.8,0.2,2.5c0.2,2-4.5-1.8-4.2-4
			C550.7,333.7,548.3,335.5,550.9,329.1L550.9,329.1z"/>
		<g>
			<path class="st4" d="M547.2,323.3c0.8-0.2,1.6,0.6,1.5,1.5c-0.5,3.7-2.5,11.7-8.8,11.9c0,0-3.2,0.5-6.1,1.7c-1.2,0.5,2.4-8,4-9.5
				C540.7,326.1,536.7,325.3,547.2,323.3L547.2,323.3z"/>
			<path d="M547.1,323.5c2.1-0.2,0.8,3.6,0.5,4.6c-0.5,1.7-1.1,3.4-2.1,4.9s-2.4,2.9-4.2,3.3c-0.7,0.2-1.3,0.2-2,0.3
				c-1,0.2-2,0.4-2.9,0.7c-0.6,0.2-1.1,0.3-1.7,0.5c-0.3,0.1-0.8,0.2-1,0.4c-0.3,0.3,0.2-0.1,0.2,0c0,0,0,0,0-0.1c0-0.1,0-0.4,0-0.5
				c0-0.3,0.1-0.5,0.2-0.8c0.5-1.5,1.1-3,1.8-4.4c0.6-1.2,1.2-2.6,2.2-3.6c0.6-0.6,1-1.2,1.3-2c0.3-0.7,0.5-1.2,1.3-1.6
				C542.6,324.2,545,323.9,547.1,323.5c0.3-0.1,0.6-0.5,0.1-0.4c-2.2,0.4-4.5,0.8-6.6,1.7c-0.8,0.4-1.5,0.8-1.8,1.6
				s-0.6,1.5-1.2,2.1c-1,1.1-1.7,2.4-2.4,3.7c-0.8,1.6-1.5,3.3-2,5c-0.1,0.3-0.3,0.9-0.1,1.1c0.3,0.5,1.6-0.3,1.9-0.4
				c1.3-0.4,2.6-0.8,4-1c0.7-0.1,1.4-0.1,2.1-0.3c1.9-0.4,3.4-1.6,4.6-3.1c1.3-1.7,2.1-3.8,2.7-5.9c0.2-0.9,0.4-1.8,0.6-2.8
				c0.2-1.2-0.6-2-1.8-1.8C546.9,323.2,546.6,323.5,547.1,323.5L547.1,323.5z"/>
		</g>
		<path class="st5" d="M537.8,334.7c0,0,7-0.6,7.1-5.1c0,0,0.4-0.7,1.4-2c1.2-1.5-4.7-1.1-5.5,1
			C539.9,330.6,538.8,327.7,537.8,334.7L537.8,334.7z"/>
	</g>
	<path class="st5" d="M596.8,301.8c-2.3,6.9-13.2,33.6-42.7,19.9c0,0-43.6,28.2-63-39.5c0,0-6.6-5.1-1.1-15.1c0.5-1,0.2-2.1-0.8-2.5
		c-6.1-2.9-24.6-15-16.4-51.1c0,0,9-26.6,45-27.4c1.8,0,2.7-2,1.6-3.2c-6-6.9-17.2-23.6-2.1-40.5c0,0,3.1-8.5,10.3-12.8
		c2.1-1.3,3-3.9,2.1-6.2c-1.7-4.4-3.6-11.6-0.9-18.4c0,0-2.7-27,33.2-51.3c0,0,19.7-13.6,44.9,0.9c0,0,15.4-3.6,22.4,13.1
		c0,0,18.5,18.6,11.9,36.3c-4,12.6-15.7,10.6-10,21.2c0,0.1,10.5,2.5,10.6,2.6c7.5,2.4,18.1,6,20.1,26.2c0.1,0.9,0.7,1.8,1.6,2.2
		c5,2.1,21,10.1,17.2,26.9c-0.2,0.8,0.3,1.6,1.1,1.7c5.2,1,22.2,5.3,24.5,19c0,0.3,0.3,0.6,0.7,0.5c3.8-0.3,24.6-0.4,10.8,32.6
		c0,0-7.4,21.6-27.3,35c-0.8,0.5-1.1,1.4-0.8,2.2c1,2.3,2,7.7-3.6,16.3c-7.8,11.8-25.7,18.9-42.7,12c0,0-16,16.2-27.1,8.4
		c0,0-10.7,0-17.8-9.2C597.9,301.1,597,301.1,596.8,301.8L596.8,301.8z"/>
	<path d="M540.8,96c-0.9,4.3,1.1,9,3.2,12.6c3.1,5.3,7.7,9.7,13.1,12.6c6.4,3.5,13.8,4.5,21,3.3c1-0.2,2-0.4,3-0.6
		c0.2-0.1,0.5-0.1,0.7-0.2c0,0,0.6-0.2,0.3-0.2c0,0,0.1,0.1,0.1,0.1c0.4,0.1,0.9,0.5,1.3,0.7c1.8,1,3.8,1.7,5.8,2.2
		c2.8,0.6,5.7,0.6,8.4-0.4c3.7-1.4,6.3-4.6,7.9-8.1c0.2-0.4-0.7-0.3-0.8,0c-1.5,3.2-3.8,6.2-7.2,7.6c-2.5,1-5.2,0.9-7.8,0.4
		c-2-0.4-3.8-1.2-5.6-2.1c-0.4-0.2-0.8-0.5-1.2-0.7c-0.7-0.3-1.6,0.2-2.4,0.4c-7.3,1.7-14.9,1.1-21.7-2.2
		c-5.3-2.6-9.9-6.7-13.2-11.6c-2.5-3.8-5.1-9.1-4.1-13.8C541.7,95.6,540.8,95.7,540.8,96L540.8,96L540.8,96z"/>
	<path d="M507.2,206.9c1.4-2.2,3.5-4.2,5.6-5.7c2.4-1.6,5.2-2.8,8.1-3c1.7-0.1,3.4,0,5.1,0.4c0.9,0.2,2.2,1,3.1,0.5
		c0.5-0.3,0.9-0.8,1.3-1.1c1.2-1,2.5-1.8,3.8-2.7c4.2-2.6,8.8-4.8,13.7-5.8c6-1.3,12.2-0.6,17.7,2.2c1.5,0.8,2.9,1.7,4.3,2.8
		c0.7,0.6,1.4,1.2,2.1,1.8c0.5,0.4,1,1.2,1.5,1.5c0.6,0.3,1.5,0.3,2.2,0.5c3.7,1.1,7.2,3.1,9.3,6.5c1.3,2.2,1.9,4.7,1.8,7.2
		c0,0.6-0.1,0.9,0.1,1.4c0.2,0.4,0.5,0.9,0.7,1.3c4.7,9.4,7.5,21.3,3,31.3c-0.7,1.6-1.6,3-2.6,4.5c0,0,0.7,0,0.8-0.2
		c6.3-8.6,5.7-19.8,2.3-29.5c-0.9-2.6-2.2-5.1-3.4-7.6c-0.2-0.4-0.1-0.2-0.2-0.7c-0.1-1.2,0.1-2.4-0.1-3.6c-0.3-2-1.1-3.9-2.3-5.4
		c-1.9-2.5-4.7-4.1-7.7-5.1c-0.9-0.3-1.8-0.6-2.7-0.7c-0.2,0-0.4,0-0.5-0.1c-0.4-0.2-0.8-0.9-1.2-1.2c-0.7-0.6-1.4-1.3-2.1-1.8
		c-4.1-3.3-9-5.4-14.2-5.8c-4.3-0.4-8.7,0.3-12.8,1.6c-5.6,1.8-11.3,4.9-15.7,8.8l0.8-0.2c-5.6-1.8-11.5-1.2-16.4,1.9
		c-2.5,1.6-4.8,3.7-6.4,6.2C506.3,207.2,507.1,207.2,507.2,206.9L507.2,206.9L507.2,206.9z"/>
	<path d="M595.5,245.1c6.7,0,12.5,3.2,15.1,9.5c0.4,1,0.5,2.1,1,3c0.2,0.5,0.6,0.9,0.8,1.4c0.5,1,1,2.1,1.3,3.3c0.4,1.5,0.5,3,0,4.5
		c-0.7,2.2-2.6,3.5-4.7,4.3c-0.1,0-0.3,0.1-0.3,0.3c0.6,6-0.5,14.5-6.1,18c-2.8,1.8-6.3,1.7-9.5,1c-0.3-0.1-1,0.4-0.5,0.5
		c5.3,1.1,10.8,0.2,13.9-4.5c2.3-3.5,3-8,3.1-12.1c0-1,0-2.1-0.1-3.1l-0.3,0.3c3.2-1.2,5.6-3.5,5.5-7c0-2.4-1-4.7-2.3-6.7
		c-0.4-0.7-0.6-1.8-0.9-2.7c-0.9-2.4-2.4-4.6-4.3-6.3c-3.2-2.9-7.4-4-11.6-4C595.5,244.6,594.9,245.1,595.5,245.1L595.5,245.1
		L595.5,245.1z"/>
	<path d="M578.9,46.1c0.5-1.9,2.3-3.3,4.2-3.5c1-0.1,2,0,3,0.2c0.6,0.1,1.1,0.3,1.7,0.6s1.4,0.9,2,0.9s1.5-0.6,2-0.8
		c3.8-1.4,8.3-2,11.9,0.1c1,0.6,1.8,1.5,2.7,2.1c1.1,0.8,2,1.6,2.9,2.6c1.3,1.5,2.4,3.2,2.9,5.2c0.6,2.6-0.2,5.1-1.6,7.3
		c-0.2,0.4,0.6,0.4,0.8,0.1c1.7-2.7,2.4-5.8,1.2-8.8c-0.8-2.3-2.5-4.2-4.3-5.8c-0.6-0.5-1.2-0.9-1.8-1.4c-0.8-0.6-1.5-1.4-2.4-1.9
		c-2.7-1.6-5.8-1.7-8.8-1.2c-2,0.3-4,0.9-5.7,1.8h0.5c-2.9-1.5-6.7-2.8-9.7-0.9c-1.2,0.7-2.2,1.9-2.6,3.3
		C577.9,46.6,578.8,46.5,578.9,46.1L578.9,46.1L578.9,46.1z"/>
	<path d="M660.6,203.3c1.5-1.5,3.2-2.9,5.1-3.8c4-2,8-1.6,11.1,1.8c0.1,0.1,0.4,0.1,0.6,0c2.1-1,4.5-1.6,6.9-1.7
		c5.3-0.4,10.1,2,13.3,6.2c1.2,1.5,2.1,3.2,2.9,5c0.5,1.1,0.8,2.3,1.3,3.4c0.5,0.9,1,1.7,1.4,2.6c1.9,4.2,2.9,8.9,2.6,13.6
		c-0.7,9.1-6.3,16.4-13.4,21.8c-0.5,0.4,0.2,0.6,0.6,0.3c6.5-4.9,11.9-11.4,13.4-19.6c0.9-5.1,0.2-10.5-1.8-15.3
		c-0.5-1.2-1.1-2.4-1.7-3.5c-0.3-0.6-0.5-1.3-0.8-2c-0.7-1.8-1.6-3.6-2.7-5.3c-3-4.6-7.7-7.6-13.3-7.8c-3-0.1-6.3,0.5-9,1.9l0.6,0
		c-3-3.4-7.2-4.1-11.3-2.3c-2.4,1-4.6,2.6-6.4,4.5C659.5,203.5,660.4,203.6,660.6,203.3L660.6,203.3L660.6,203.3z"/>
	<path d="M511,302.5c1.9,6.5,7.7,12,14.1,13.9c3.5,1,7.1,1.1,10.6,0.6l-0.4-0.1c0.8,1.3,2.5,2,3.9,2.3c4.7,1.2,9.8-0.4,14.1-2.1
		c0.6-0.2,0-0.4-0.3-0.2c-4.1,1.7-9.2,3.3-13.6,1.9c-1.1-0.4-2.6-1-3.2-2c-0.1-0.1-0.2-0.1-0.4-0.1c-5.9,0.7-12-0.3-16.8-4.1
		c-2.8-2.2-5-5.1-6.5-8.4c-0.3-0.6-0.6-1.3-0.8-2C511.8,302,510.9,302.2,511,302.5L511,302.5L511,302.5z"/>
	<g>
		<path class="st4" d="M626.3,33.7c0,0-7.1-10.8-0.8-16.2c0,0,0.6-1.3,1.3-4.4c0.8-3.5,6.9,5.5,4.9,9.2S634.9,24.1,626.3,33.7
			L626.3,33.7z"/>
		<path d="M626.6,33.5c-1.5-2.3-2.6-5-3.1-7.7c-0.4-2.1-0.4-4.4,0.7-6.3c0.2-0.5,0.6-0.9,0.9-1.3c0.2-0.3,0.6-0.5,0.8-0.8
			c0.3-0.5,0.4-1.2,0.6-1.7c0.2-0.6,0.4-1.3,0.5-1.9c0.1-0.3,0.1-1.2,0.5-1.3c0.5-0.2,1.2,0.7,1.4,0.9c1.2,1.3,2.1,3.1,2.6,4.8
			c0.3,0.9,0.5,1.8,0.4,2.7c-0.1,0.7-0.4,1.3-0.6,1.9s-0.3,1.2-0.1,1.9c0.2,0.9,0.2,1.6-0.2,2.5c-1,2.4-3,4.5-4.8,6.4
			c-0.2,0.3,0.3,0.3,0.5,0.1c1.7-1.9,3.5-3.8,4.7-6.1c0.4-0.8,0.7-1.7,0.5-2.6c-0.2-0.8-0.3-1.4,0-2.2c0.3-0.7,0.6-1.3,0.7-2.1
			c0-0.9-0.1-1.8-0.4-2.7c-0.3-1.1-3.3-7.8-5.2-5.5c-0.2,0.2-0.2,0.4-0.3,0.6c-0.2,0.8-0.4,1.7-0.7,2.6c-0.2,0.6-0.3,1.4-0.8,1.9
			c-0.7,0.8-1.4,1.5-1.8,2.6s-0.6,2.2-0.6,3.3c0,3.6,1.5,7.3,3.4,10.3C626.1,34,626.7,33.8,626.6,33.5L626.6,33.5z"/>
	</g>
	<path class="st5" d="M626.6,28.1c0,0-3.5-6.1,0-8.7c0,0,0.3-0.7,0.8-2.3c0.5-1.8,3.5,3.2,2.4,5.1S631.4,23.3,626.6,28.1L626.6,28.1
		z"/>
	<g>
		<g>
			<path class="st4" d="M627.8,34.5c-0.8-0.2-1.3-1.1-0.8-1.8c1.9-3.1,6.7-9.5,12.7-7.4c0,0,3.2,0.7,6.3,0.7c1.3,0-5.2,6.3-7.3,7
				C635,34.4,638.4,36.6,627.8,34.5L627.8,34.5z"/>
			<path d="M628.1,34.4c-2.2-0.6,0.3-3.4,1-4.3c1.2-1.5,2.7-3,4.4-4c0.9-0.5,1.8-0.8,2.8-1c1.1-0.1,2,0.1,3,0.4
				c1.8,0.4,3.8,0.7,5.6,0.7c0.7,0,0.8-0.1,0.5,0.5c-0.3,0.5-0.8,1-1.2,1.4c-1,1.1-2.2,2.2-3.4,3.1c-1,0.8-1.9,1.4-3,1.9
				c-0.6,0.3-1.1,0.7-1.6,1.2c-0.5,0.6-1,0.8-1.8,0.8C632.4,35.3,630.2,34.8,628.1,34.4c-0.3-0.1-0.9,0.3-0.5,0.3
				c2.1,0.4,4.3,0.9,6.5,0.8c0.8,0,1.7-0.2,2.4-0.7c0.6-0.5,1-1,1.6-1.4c0.5-0.3,1-0.4,1.5-0.7c0.7-0.4,1.3-0.9,1.9-1.4
				c1.3-1.1,2.7-2.3,3.8-3.6c0.3-0.3,1.6-1.5,0.9-1.9c-0.3-0.2-1.2,0-1.6-0.1c-0.8-0.1-1.7-0.1-2.5-0.3s-1.7-0.2-2.5-0.5
				c-2-0.6-4-0.4-5.9,0.5c-2.1,1-3.8,2.7-5.3,4.5c-0.8,1-3.5,3.9-1,4.7C627.8,34.8,628.4,34.4,628.1,34.4L628.1,34.4z"/>
		</g>
		<path class="st5" d="M640.8,27.8c0,0-6.8-2-8.5,2c0,0-0.6,0.5-2,1.3c-1.7,0.9,4,2.7,5.5,1.1S637.3,33.7,640.8,27.8L640.8,27.8z"/>
	</g>
	<g>
		<g>
			<path class="st4" d="M528.5,384.8c0.9,0,1.5,0.8,1.2,1.6c-1.2,3.4-4.6,10.6-10.9,9.8c0,0-3.3-0.1-6.3,0.6
				c-1.3,0.3,3.9-7.2,5.7-8.3C521.5,386.4,517.8,385,528.5,384.8L528.5,384.8z"/>
			<path d="M528.3,385c2.2,0.2,0.3,3.4-0.2,4.4c-0.8,1.6-1.8,3.2-3.2,4.5c-1.5,1.4-3.4,2.4-5.5,2.2c-1.6-0.1-3.3,0-4.9,0.2
				c-0.3,0-1.8,0.5-2,0.3c0.1,0.1,0.1-0.2,0.1-0.3c0.2-0.5,0.4-1,0.7-1.4c0.8-1.4,1.7-2.6,2.7-3.9c0.8-1,1.6-2,2.7-2.7
				c0.6-0.4,1.1-1,1.5-1.6s0.8-1,1.5-1.2C523.8,385,526.2,385.1,528.3,385c0.3,0,0.9-0.4,0.4-0.4c-2.2,0-4.5,0-6.6,0.5
				c-0.8,0.2-1.6,0.5-2.1,1.2c-0.5,0.6-0.8,1.2-1.4,1.8c-1.1,0.9-2,1.7-3,2.9c-1.1,1.4-2.2,2.9-3,4.5c-0.3,0.6-1,1.8,0.1,1.6
				c2.3-0.3,4.4-0.6,6.7-0.5c2,0.1,3.9-0.6,5.4-1.9c1.7-1.4,3-3.2,4-5.2c0.6-1.2,2.7-4.6,0-4.8C528.5,384.6,527.9,385,528.3,385
				L528.3,385z"/>
		</g>
		<path class="st5" d="M517.1,394c0,0,7,0.6,7.9-3.7c0,0,0.5-0.6,1.7-1.7c1.5-1.3-4.4-1.8-5.6,0C519.9,390.5,519.4,387.6,517.1,394
			L517.1,394z"/>
	</g>
	<g>
		<g>
			<path class="st4" d="M727.1,194.1c0,0-6-6.9-2.1-11.2c0,0,0.3-1,0.5-3.2c0.2-2.5,5.3,3.2,4.3,5.9S732.3,186.7,727.1,194.1
				L727.1,194.1z"/>
			<path d="M727.4,194c-1.2-1.5-2.3-3.2-2.9-5c-0.5-1.4-0.7-2.9-0.2-4.4c0.1-0.4,0.3-0.7,0.5-1c0.2-0.2,0.4-0.4,0.5-0.7
				c0.2-0.4,0.2-0.9,0.2-1.3c0.1-0.5,0.1-1,0.2-1.6c0-0.1,0-0.6,0.2-0.7c0.2-0.1,0.8,0.4,1,0.6c1,0.8,1.7,2,2.2,3.1
				c0.2,0.5,0.4,1.1,0.5,1.7c0,0.5-0.1,0.9-0.3,1.4s-0.1,0.9,0.1,1.4c0.2,0.6,0.3,1.1,0.1,1.7c-0.5,1.8-1.7,3.4-2.7,4.9
				c-0.2,0.2,0.4,0.2,0.5,0c1-1.5,2.1-3,2.7-4.7c0.2-0.6,0.3-1.2,0-1.9c-0.2-0.5-0.3-0.9-0.2-1.5c0.1-0.5,0.3-0.9,0.3-1.4
				c0-0.7-0.3-1.4-0.6-2c-0.5-1.2-1.3-2.3-2.4-3.1c-0.5-0.4-1.4-0.9-1.9-0.2c-0.1,0.1-0.1,0.3-0.2,0.5c-0.1,0.6-0.1,1.2-0.2,1.8
				c-0.1,0.4-0.1,1-0.3,1.4c-0.4,0.7-0.9,1.2-1.1,2c-0.2,0.7-0.2,1.5-0.1,2.2c0.3,2.5,1.7,5.1,3.4,7
				C727,194.4,727.6,194.2,727.4,194L727.4,194z"/>
		</g>
		<path class="st5" d="M726.8,190.2c0,0-3-3.9-0.8-6.1c0,0,0.2-0.5,0.3-1.7c0.2-1.3,2.8,1.9,2.1,3.3S729.7,186.4,726.8,190.2
			L726.8,190.2z"/>
		<g>
			<path class="st4" d="M727.5,194.1c-0.6,0.1-1.1-0.5-1-1c0.6-2.5,2.3-7.8,6.8-7.8c0,0,2.3-0.2,4.3-1c0.9-0.3-2.1,5.4-3.2,6.3
				C732.2,192.4,735,193.1,727.5,194.1L727.5,194.1z"/>
			<path d="M727.7,193.9c-1.4,0.1-0.4-2.4-0.1-3.1c0.4-1.2,1-2.3,1.8-3.3s1.9-1.9,3.2-2c1.2-0.2,2.3-0.2,3.4-0.5
				c0.5-0.1,0.9-0.2,1.4-0.4c0.1,0,0.2,0,0.2-0.1c0.1-0.1-0.2,0.1-0.1,0c0,0,0,0.1,0,0.1c0,0.1,0,0.3-0.1,0.4c0,0.2-0.1,0.4-0.2,0.5
				c-0.4,1.1-1,2.1-1.6,3.1c-0.5,0.8-1,1.6-1.6,2.2c-0.4,0.4-0.7,0.8-1,1.3c-0.2,0.5-0.5,0.8-0.9,1
				C730.7,193.6,729,193.7,727.7,193.9c-0.4,0.1-0.7,0.4-0.2,0.4c1.6-0.2,3.2-0.4,4.7-1c0.6-0.2,1.1-0.5,1.4-1.1
				c0.3-0.5,0.5-1,0.9-1.4c0.8-0.7,1.3-1.5,1.8-2.4c0.6-1.1,1.3-2.2,1.7-3.4c0.1-0.2,0.3-0.6,0.2-0.9c-0.2-0.4-0.9,0-1.1,0.1
				c-1,0.3-2,0.5-3,0.6c-0.5,0.1-1,0.1-1.5,0.1c-1.3,0.2-2.5,0.9-3.5,1.9c-1.1,1.1-1.8,2.6-2.3,4c-0.2,0.6-0.4,1.2-0.5,1.8
				c-0.2,0.8,0.2,1.5,1.1,1.4c0.1,0,0.4,0,0.5-0.2S727.8,193.9,727.7,193.9L727.7,193.9z"/>
		</g>
		<path class="st5" d="M734.7,186.7c0,0-5,0.2-5.2,3.3c0,0-0.3,0.5-1.1,1.3c-0.9,1,3.2,0.9,3.9-0.5S733.6,191.4,734.7,186.7z"/>
	</g>
	<g>
		<g>
			<path class="st4" d="M649.1,329.9c-0.3-0.8,0.3-1.7,1.2-1.7c3.6,0,11.6,0.9,12.8,7.1c0,0,1,3.1,2.6,5.8c0.7,1.1-8.1-1.3-9.8-2.6
				C652.9,335.9,652.8,340,649.1,329.9L649.1,329.9z"/>
			<path d="M649.5,329.8c-0.2-0.7,0.1-1.3,0.9-1.4c0.3,0,0.7,0,1,0c0.8,0,1.5,0.1,2.3,0.2c1.7,0.3,3.4,0.7,5,1.5
				c1.6,0.9,3,2.1,3.8,3.9c0.2,0.6,0.3,1.2,0.5,1.7c0.3,0.9,0.7,1.8,1.1,2.7c0.2,0.5,0.5,1.1,0.8,1.6c0.2,0.3,0.3,0.6,0.5,0.9
				c-0.1-0.1,0.2,0.4,0.2,0.2c0-0.1,0.1,0-0.1,0c-0.1,0-0.2,0-0.3,0c-0.3,0-0.6-0.1-0.9-0.1c-1.6-0.3-3.2-0.8-4.7-1.3
				c-1.2-0.4-2.4-0.9-3.5-1.7c-0.6-0.4-1.3-0.7-2-0.9c-0.8-0.2-1.3-0.5-1.8-1.2C650.9,334.2,650.2,331.9,649.5,329.8
				c-0.1-0.2-0.8,0-0.7,0.2c0.8,2.1,1.5,4.3,2.7,6.1c0.5,0.7,1,1.2,1.9,1.4c0.9,0.2,1.6,0.6,2.4,1.1c1.3,0.9,3,1.4,4.5,1.9
				s3.1,1,4.7,1.1c0.3,0,0.9,0,1.1-0.2c0.1-0.1,0.1-0.1,0.1-0.3c0-0.2-0.3-0.5-0.4-0.7c-0.2-0.4-0.4-0.8-0.6-1.1
				c-0.5-1.1-1-2.2-1.4-3.4c-0.2-0.7-0.4-1.4-0.7-2.1c-0.8-1.8-2.3-3.1-4-3.9c-1.9-1-4.1-1.4-6.2-1.6c-1.3-0.1-4.7-0.6-4,1.8
				C648.8,330.2,649.6,330,649.5,329.8L649.5,329.8z"/>
		</g>
		<path class="st5" d="M661.5,337.6c0,0-1.7-6.8-6.1-6.2c0,0-0.7-0.3-2.2-1.1c-1.7-1-0.3,4.8,1.9,5.3S654.7,337.6,661.5,337.6z"/>
	</g>
	<path class="st6" d="M403.3,463.5c-0.8,0-1-1.2-0.2-1.4c7.6-2.4,28.2-6.9,74.4-5.2c0,0,28.6,2.1,52.5-4c23.8-6.1,23.6-5.1,45.7-5.2
		s30.3-6.8,50.1-0.7s89,3.7,95.4,4c31.2,1.8,37.9,8,42.9,7.5c13.5-1.3,24,3.5,27.3,5.3c0.3,0.2,0.2,0.6-0.2,0.6
		C768.5,464.6,459,463.5,403.3,463.5L403.3,463.5z"/>
	<path class="st7" d="M415,462.6c-0.6,0,4.2-1.5,4.8-1.6c5.3-1.7,53.3,0.4,93.4-2.4c0,0,20.1-0.4,36.8-4.6s16.5-3.5,32-3.6
		c15.4,0,21.2-4.7,35.1-0.5c13.9,4.2,62.3,2.6,66.8,2.8c21.8,1.3,26.5,5.6,30,5.3c9.5-0.9,60,3.1,63.4,3.7c0.1,0-6.6,1.6-19.3,0.9
		c-6.1-0.3-23.1-0.5-23.1-0.5C719,462.1,454.1,462.6,415,462.6L415,462.6z"/>
	<g>
		<g>
			<path class="st4" d="M549.4,447.1c0.7,0.1,1.2,0.7,0.8,1.2c-1.3,2.2-4.7,6.7-9.8,5.5c0,0-2.7-0.4-5.2-0.2
				c-1.1,0.1,3.8-4.5,5.4-5.1C543.6,447.5,540.6,446.1,549.4,447.1L549.4,447.1z"/>
			<path d="M549.2,447.3c1.2,0.2,0.7,1.1,0.3,1.8c-0.3,0.5-0.7,1-1.1,1.4c-0.9,1.1-2,2.1-3.3,2.7c-1.5,0.8-2.9,0.7-4.5,0.5
				c-1.5-0.2-3.1-0.3-4.6-0.2c-0.5,0-0.6,0.1-0.3-0.3c0.2-0.4,0.6-0.7,0.9-1c0.9-0.9,1.8-1.7,2.8-2.5s2.2-1.2,3.2-2.1
				c0.4-0.4,0.8-0.5,1.3-0.5C545.7,446.8,547.5,447.1,549.2,447.3c0.2,0,0.9-0.3,0.5-0.4c-1.8-0.2-3.5-0.4-5.3-0.3
				c-0.7,0-1.4,0.1-2,0.5c-0.4,0.3-0.7,0.7-1,0.9c-0.3,0.2-0.8,0.3-1.1,0.5c-0.5,0.3-1,0.6-1.4,1c-1.1,0.8-2.2,1.8-3.1,2.8
				c-0.2,0.3-1.3,1.3-0.5,1.4c0.4,0.1,1,0,1.4,0c0.7,0,1.3,0,1.9,0.1c0.6,0,1.2,0.1,1.8,0.2c1.7,0.3,3.3,0.2,5-0.5s2.9-1.9,4-3.3
				c0.5-0.6,0.9-1.2,1.3-1.8c0.4-0.8-0.1-1.3-0.9-1.5C549.4,446.9,548.8,447.2,549.2,447.3L549.2,447.3z"/>
		</g>
		<path class="st5" d="M539.3,452.2c0,0,5.7,1.1,6.8-1.7c0,0,0.5-0.4,1.6-1c1.3-0.7-3.5-1.7-4.6-0.5S541.7,448.1,539.3,452.2
			L539.3,452.2z"/>
	</g>
	<g>
		<g>
			<path class="st4" d="M462.5,450.3c0,0,8.9-2.1,10.9,3.4c0,0,0.8,0.7,2.6,1.9c2.1,1.4-5.3,3.2-7.2,1S466.7,458.3,462.5,450.3
				L462.5,450.3z"/>
			<path d="M462.6,450.5c1.6-0.4,3.4-0.5,5.1-0.3c1.4,0.2,2.8,0.5,3.9,1.4c0.5,0.4,1,1,1.3,1.6c0.2,0.5,0.3,0.7,0.7,1
				c0.6,0.5,1.3,1,2,1.5c0.3,0.2,0.7,0.5,0.4,0.9c-0.3,0.4-0.9,0.5-1.4,0.7c-0.6,0.2-1.3,0.3-2,0.3c-1.3,0.1-2.7,0-3.6-1
				c-0.4-0.4-0.8-0.7-1.4-0.8c-0.6-0.1-1.1-0.2-1.6-0.6c-1.4-1.2-2.3-3.2-3.1-4.8c-0.1-0.2-0.7,0-0.6,0.2c0.9,1.6,1.7,3.4,3,4.7
				c0.5,0.5,1,0.8,1.7,0.8s1,0.3,1.5,0.8c0.9,1,2.4,1.1,3.6,1.1s2.7-0.2,3.8-0.9c0.3-0.2,0.7-0.4,0.7-0.8c0.1-0.5-0.5-0.8-0.9-1
				c-0.7-0.4-1.5-0.9-2-1.5c-0.4-0.4-0.5-1-0.9-1.5c-0.9-1.1-2.2-1.8-3.6-2.1c-2.2-0.5-4.6-0.4-6.8,0.1
				C462.2,450.3,462.2,450.6,462.6,450.5L462.6,450.5z"/>
		</g>
		<path class="st5" d="M465.7,451.7c0,0,4.9-0.8,5.8,2.1c0,0,0.4,0.4,1.3,1.1c1.1,0.8-3,1.6-3.9,0.3S467.7,456,465.7,451.7
			L465.7,451.7z"/>
	</g>
	<g>
		<path class="st4" d="M518.6,458.3c-0.6,0.1-1.1-0.4-1-1c0.5-2.5,2.2-7.9,6.7-7.9c0,0,2.3-0.3,4.3-1c0.9-0.3-2,5.4-3.2,6.4
			C523.3,456.5,526.1,457.1,518.6,458.3z"/>
		<path d="M518.7,458.1c-1.4,0.1-0.4-2.4-0.2-3.1c0.4-1.2,1-2.3,1.7-3.3c0.8-1,1.8-1.9,3.1-2.1c0.4-0.1,0.8-0.1,1.3-0.1
			c0.7-0.1,1.5-0.2,2.2-0.4c0.4-0.1,0.9-0.2,1.3-0.4c0.1,0,0.2,0,0.3-0.1c0.2-0.2-0.1,0.1-0.1-0.1c0,0,0,0.1,0,0.1
			c-0.1,0.2-0.2,0.7-0.3,0.9c-0.4,1.1-1,2.1-1.5,3c-0.5,0.8-0.9,1.6-1.6,2.2c-0.4,0.4-0.7,0.8-1,1.3c-0.2,0.5-0.4,0.8-0.9,1
			C521.8,457.7,520.1,457.8,518.7,458.1c-0.4,0-0.7,0.4-0.2,0.4c1.5-0.2,3.2-0.4,4.7-1c0.6-0.2,1.1-0.5,1.4-1.1
			c0.3-0.5,0.4-0.9,0.8-1.3c0.8-0.7,1.3-1.5,1.9-2.4c0.6-1,1.2-2.2,1.6-3.3c0.1-0.2,0.3-0.7,0.2-0.9c-0.2-0.4-0.9,0-1.1,0.1
			c-1,0.3-2,0.5-3,0.7c-0.5,0.1-1,0.1-1.5,0.2c-1.4,0.2-2.5,0.9-3.5,1.9c-1,1.1-1.7,2.6-2.2,4c-0.2,0.6-0.4,1.2-0.5,1.9
			c-0.2,0.8,0.3,1.5,1.1,1.4c0.1,0,0.4,0,0.5-0.2S518.9,458.1,518.7,458.1L518.7,458.1z"/>
	</g>
	<path class="st5" d="M525.7,450.8c0,0-5,0.2-5.2,3.3c0,0-0.3,0.5-1,1.3c-0.9,1,3.3,0.9,3.9-0.5C524,453.5,524.7,455.5,525.7,450.8
		L525.7,450.8z"/>
	<g>
		<g>
			<path class="st4" d="M679.5,450.6c0,0,6.5-6.5,11-2.9c0,0,1,0.2,3.2,0.2c2.5,0.1-2.8,5.5-5.6,4.7
				C685.3,451.8,687.3,455.1,679.5,450.6L679.5,450.6z"/>
			<path d="M679.7,450.6c1.4-1.3,3-2.5,4.8-3.2c1.4-0.6,3-0.9,4.5-0.3c0.5,0.2,0.9,0.6,1.4,0.8s1.1,0.1,1.6,0.2s1,0,1.5,0.1
				c0.2,0,0.4,0,0.6,0.2c0.2,0.3-0.1,0.8-0.2,1c-0.6,1-1.7,1.9-2.7,2.5c-0.6,0.3-1.2,0.7-1.9,0.7c-0.5,0.1-0.9-0.1-1.4-0.2
				c-0.5-0.1-1,0-1.4,0.2c-0.6,0.3-1,0.4-1.6,0.2c-1.8-0.4-3.5-1.5-5-2.4c-0.2-0.1-0.7,0.2-0.5,0.3c1.5,0.9,3.2,1.9,5,2.3
				c0.7,0.2,1.3,0.2,2-0.1c0.5-0.2,0.8-0.4,1.4-0.3c0.5,0.1,1,0.2,1.5,0.2c0.7-0.1,1.3-0.3,1.8-0.6c1.2-0.6,2.3-1.5,3.1-2.6
				c0.4-0.5,1-1.5,0.1-1.8c-0.3-0.1-0.7-0.1-1-0.1c-0.5,0-1,0-1.6-0.1c-0.6-0.1-0.8-0.1-1.3-0.4c-1.3-0.8-2.9-1-4.4-0.6
				c-2.5,0.5-4.9,2.1-6.7,3.9C679,450.7,679.6,450.7,679.7,450.6L679.7,450.6z"/>
		</g>
		<path class="st5" d="M682.9,450c0,0,3.7-3.3,6-1.3c0,0,0.5,0.1,1.7,0.2c1.3,0.1-1.7,2.9-3.2,2.4S686.9,452.7,682.9,450L682.9,450z
			"/>
	</g>
</g>
<g>
	<path class="st0" d="M284.8,302.4c1.5,0,2.8,0.9,3.3,2.3c1.4,4,4.1,12.3,3.6,16c0,0-2.7,15.4-1.8,23c0,0.2,0,0.3,0,0.5
		c-0.2,2.3-1.5,19.4,0.4,29.5c0,0.2,0.1,0.3,0.1,0.5c0.5,1.5,3.6,12.1,2.6,32.1c0,0.1,0,0.1,0,0.2c0,1.4,0.5,27.1,3.4,39.6
		c0.7,3-1.3,6-4.4,6.5c-4.5,0.7-10.9,1.5-17.1,1.8c-2.1,0.1-3.8-1.6-3.6-3.7c1-11.4,3.8-45.2,2.7-54.2c-1.3-10.4,0.6-40.9,0.7-43.3
		c0-0.1,0-0.2,0-0.3l-1.1-37.3l-0.7-9.3c-0.1-2,1.4-3.6,3.4-3.7L284.8,302.4L284.8,302.4z"/>
	<path class="st1" d="M284.2,311.6c1,0,1.9,0.8,2.3,2.1c1,3.7,2.9,11.4,2.6,14.8c0,0-1.9,14.2-1.2,21.3c0,0.2,0,0.3,0,0.5
		c-0.1,2.1-1,18,0.4,27.3c0,0.1,0,0.3,0.1,0.4c0.4,1.4,2.6,11.2,1.9,29.8c0,0.1,0,0.1,0,0.1c0,1.2,0.5,25,2.5,36.6
		c0.5,2.8-0.9,5.6-3,6c-3.1,0.6-7.6,1.3-11.9,1.6c-1.4,0.1-2.6-1.5-2.5-3.4c0.7-10.6,2.5-41.8,1.7-50.1c-0.9-9.7,0.3-37.9,0.4-40.1
		c0-0.1,0-0.2,0-0.3l-0.9-34.5l-0.5-8.6c-0.1-1.8,1-3.4,2.3-3.4L284.2,311.6L284.2,311.6z"/>
	<path class="st2" d="M275.1,337.7l14.9-14.3c0,0-0.4,11.3-2.5,16.9c-2,5.4-4.4,6.5-8.2,7c-1.5,0.2-3-0.9-3.6-2.5
		C275.1,342.8,274.5,340.3,275.1,337.7L275.1,337.7z"/>
	<path class="st8" d="M283.7,329.4c-2.2,6.6-13.1,32.1-42.3,19c0,0-43.2,26.9-62.3-37.7c0,0-6.5-4.8-1.1-14.4c0.5-0.9,0.2-2-0.8-2.4
		c-6-2.8-24.4-14.3-16.2-48.8c0,0,8.9-25.4,44.6-26.1c1.7,0,2.7-1.9,1.6-3.1c-6-6.6-17-22.5-2.1-38.6c0,0,3.1-8.1,10.2-12.3
		c2.1-1.2,2.9-3.7,2.1-5.9c-1.7-4.2-3.5-11.1-0.9-17.5c0,0-2.7-25.8,32.9-48.9c0,0,19.5-13,44.4,0.8c0,0,15.3-3.4,22.1,12.5
		c0,0,21.5,6.9,14.6,36.3c0,0,6.1,16.4-13,25.1c-0.1,0-0.1,0.2,0,0.2c3.2,0.1,28.8,1.5,30.7,20.8c0.1,0.9,0.6,1.7,1.5,2.1
		c5,2,20.8,9.6,17,25.7c-0.2,0.7,0.3,1.5,1.1,1.6c5.1,0.9,22,5,24.2,18.1c0,0.3,0.3,0.5,0.7,0.5c3.8-0.3,24.4-0.4,10.7,31.1
		c0,0-7.3,20.6-27.1,33.4c-0.8,0.5-1.1,1.3-0.8,2.1c1,2.2,2,7.3-3.6,15.6c-7.7,11.3-25.4,18-42.3,11.4c0,0-15.9,15.5-26.8,8
		c0,0-10.6,0-17.6-8.8C284.7,328.7,283.9,328.7,283.7,329.4L283.7,329.4z"/>
	<g>
		<g>
			<path class="st9" d="M244.4,347.1c0,0,9,6.5,5.9,12.8c0,0,0,1.3,0.4,3.9c0.5,3.1-7.1-2.3-6.8-5.9S240.9,357.5,244.4,347.1
				L244.4,347.1z"/>
			<path d="M244.1,347.2c1.9,1.4,3.7,3.3,5,5.3c0.9,1.5,1.6,3.2,1.5,5c0,0.5-0.1,1-0.3,1.5c-0.1,0.3-0.3,0.7-0.4,1
				c-0.1,0.5,0.1,1,0.1,1.5c0.1,0.6,0.1,1.1,0.2,1.7c0,0.3,0.3,0.9,0.1,1.3c-0.2,0.5-1,0-1.3-0.2c-1.4-0.7-2.6-1.8-3.5-3
				c-0.5-0.6-0.9-1.3-1.2-2.1c-0.2-0.6-0.1-1.1-0.1-1.7c0-0.6-0.2-1.1-0.6-1.6c-0.5-0.6-0.7-1.3-0.7-2.1c0-2.2,0.9-4.6,1.6-6.7
				C244.7,346.9,244.2,347,244.1,347.2c-0.7,2-1.5,4.2-1.6,6.3c-0.1,0.8,0.1,1.6,0.5,2.2c0.4,0.5,0.6,1,0.7,1.7s-0.1,1.2,0.2,1.9
				c0.2,0.7,0.7,1.4,1.2,2c1,1.3,2.3,2.5,3.8,3.2c0.6,0.3,1.8,0.6,2.1-0.2c0.1-0.2,0-0.4,0-0.6c-0.1-0.7-0.2-1.4-0.3-2.1
				c-0.1-0.5-0.2-1.3-0.1-1.8c0.1-0.5,0.4-0.9,0.5-1.4c0.1-0.4,0.1-0.9,0.1-1.3c0-1-0.2-1.9-0.6-2.8c-1.1-2.9-3.5-5.5-6-7.3
				C244.6,346.9,244,347.1,244.1,347.2L244.1,347.2z"/>
		</g>
		<path class="st10" d="M246,351.7c0,0,4.7,3.8,2.9,7c0,0,0,0.7,0.1,2.1c0.2,1.7-3.8-1.5-3.5-3.4S243.9,357.1,246,351.7L246,351.7z"
			/>
		<g>
			<path class="st9" d="M242.9,346.9c0.7-0.1,1.4,0.5,1.2,1.2c-0.4,3-2,9.8-7.4,10c0,0-2.7,0.4-5.1,1.4c-1,0.4,2-6.7,3.3-8
				C237.5,349.2,234.1,348.5,242.9,346.9L242.9,346.9z"/>
			<path d="M242.9,347.1c1.6-0.2,0.6,3,0.4,3.8c-0.4,1.4-0.9,2.9-1.8,4.1s-2,2.4-3.5,2.7c-0.5,0.1-1.1,0.1-1.6,0.2
				c-0.8,0.1-1.6,0.3-2.4,0.6c-0.5,0.1-1,0.3-1.5,0.5c-0.2,0.1-0.6,0.1-0.8,0.3c-0.2,0.2,0.2,0,0.2,0c0,0,0-0.3,0-0.4
				c0-0.2,0.1-0.5,0.2-0.7c0.4-1.3,0.9-2.5,1.5-3.7c0.5-1,1-2.1,1.8-2.9c0.5-0.5,0.9-1,1.1-1.7c0.2-0.6,0.4-1,1-1.3
				C239.1,347.7,241.1,347.4,242.9,347.1c0.3-0.1,0.6-0.5,0.1-0.4c-1.8,0.4-3.8,0.6-5.5,1.4c-0.7,0.3-1.2,0.7-1.5,1.4
				c-0.3,0.6-0.5,1.2-1,1.8c-0.9,0.9-1.4,2-2,3.2c-0.6,1.3-1.3,2.7-1.6,4.1c-0.1,0.2-0.2,0.8-0.1,1c0.3,0.5,1.5-0.2,1.8-0.4
				c1-0.3,2.1-0.6,3.1-0.8c0.6-0.1,1.2-0.1,1.8-0.3c1.6-0.4,2.9-1.3,3.8-2.6c1.1-1.5,1.8-3.2,2.2-5c0.2-0.8,0.4-1.5,0.5-2.3
				c0.1-1-0.5-1.7-1.5-1.6C242.6,346.7,242.4,347.2,242.9,347.1L242.9,347.1z"/>
		</g>
		<path class="st10" d="M235.1,356.4c0,0,5.9-0.5,5.9-4.3c0,0,0.3-0.6,1.1-1.7c1-1.3-3.9-0.9-4.6,0.8S235.9,350.5,235.1,356.4z"/>
	</g>
	<path class="st10" d="M284.3,328.9c-1.9,5.7-11,28-35.6,16.5c0,0-36.4,23.5-52.5-33c0,0-5.5-4.2-0.9-12.6c0.4-0.8,0.2-1.7-0.7-2.1
		c-5.1-2.4-20.5-12.5-13.7-42.6c0,0,7.5-22.2,37.5-22.8c1.5,0,2.2-1.6,1.3-2.7c-5-5.8-14.3-19.7-1.8-33.7c0,0,2.6-7.1,8.6-10.7
		c1.8-1.1,2.5-3.3,1.8-5.1c-1.4-3.7-3-9.7-0.8-15.3c0,0-2.3-22.5,27.6-42.7c0,0,16.4-11.4,37.4,0.7c0,0,12.9-3,18.6,10.9
		c0,0,15.4,15.5,9.9,30.3c-3.3,10.5-13.1,8.8-8.3,17.7c0,0.1,8.8,2.1,8.9,2.1c6.3,2,15.1,5,16.8,21.9c0.1,0.8,0.5,1.5,1.3,1.8
		c4.2,1.7,17.5,8.4,14.3,22.5c-0.1,0.6,0.2,1.3,0.9,1.4c4.3,0.8,18.5,4.4,20.4,15.9c0,0.3,0.3,0.5,0.6,0.5c3.2-0.2,20.5-0.3,9,27.2
		c0,0-6.1,18-22.8,29.2c-0.6,0.4-0.9,1.2-0.6,1.9c0.8,1.9,1.7,6.4-3,13.6c-6.5,9.8-21.4,15.7-35.6,10c0,0-13.4,13.5-22.6,7
		c0,0-9,0-14.9-7.7C285.2,328.3,284.5,328.4,284.3,328.9L284.3,328.9z"/>
	<path d="M237.5,157.5c-0.8,3.6,0.9,7.5,2.7,10.6c2.6,4.4,6.5,8.1,11,10.6c5.4,2.9,11.5,3.7,17.5,2.7c0.8-0.1,1.6-0.3,2.4-0.5
		c0.2-0.1,0.5-0.1,0.7-0.2c0,0,0.3-0.2,0.1-0.2c0,0,0.1,0,0.1,0.1c0.3,0.1,0.8,0.5,1.1,0.6c1.5,0.8,3.1,1.4,4.8,1.8
		c2.4,0.5,4.8,0.5,7.1-0.4c3.1-1.2,5.2-3.8,6.6-6.8c0.2-0.5-0.7-0.5-0.8-0.1c-1.3,2.7-3.2,5.2-6,6.3c-2,0.8-4.3,0.8-6.4,0.3
		c-1.6-0.4-3.2-1-4.7-1.8c-0.3-0.2-0.6-0.4-1-0.6c-0.6-0.2-1.3,0.1-2,0.3c-6,1.4-12.3,1-17.9-1.7c-4.5-2.1-8.3-5.6-11.1-9.7
		c-2.1-3.2-4.2-7.5-3.4-11.4C238.5,157,237.6,157.1,237.5,157.5L237.5,157.5L237.5,157.5z"/>
	<path d="M209.7,250c1.2-1.9,3-3.6,4.9-4.9s4-2.1,6.2-2.3c1.4-0.1,2.8-0.1,4.2,0.2c0.9,0.2,2.1,0.9,3,0.5c0.4-0.2,0.8-0.6,1.1-0.9
		c1-0.8,2.1-1.5,3.1-2.2c3.4-2.2,7.2-3.9,11.1-4.8c4.9-1.1,10.1-0.7,14.6,1.5c1.4,0.7,2.7,1.5,3.9,2.5c0.5,0.4,1,0.8,1.5,1.3
		s1,1.2,1.6,1.5c0.5,0.2,1.2,0.2,1.6,0.4c3,0.9,6,2.5,7.7,5.2c1.2,1.9,1.6,4.1,1.5,6.3c0,0.9,0.2,1.2,0.6,2c4.6,9.1,6.8,21,0.4,29.8
		c-0.2,0.3,0.6,0.3,0.8,0c5.2-7.2,4.8-16.5,2-24.5c-0.5-1.4-1.1-2.8-1.7-4.2c-0.4-0.8-0.8-1.5-1.1-2.3c-0.4-0.9,0-2.2-0.2-3.2
		c-0.2-1.6-0.8-3.1-1.6-4.4c-1.5-2.3-3.9-3.8-6.5-4.7c-0.8-0.3-1.6-0.5-2.5-0.7c-1.2-0.2-1.9-1.5-2.8-2.3
		c-6.5-5.4-14.7-6.5-22.6-3.9c-4.8,1.5-9.6,4.1-13.4,7.5l0.6-0.2c-4.7-1.5-9.6-1-13.8,1.7c-2,1.3-3.9,3.1-5.2,5.1
		C208.7,250.3,209.5,250.2,209.7,250L209.7,250L209.7,250z"/>
	<path d="M283,281.6c5.5,0,10.4,2.7,12.7,7.9c0.4,0.8,0.5,1.7,0.8,2.5c0.5,1.3,1.3,2.3,1.7,3.7c1,3.4-0.4,6.3-3.8,7.5
		c-0.1,0-0.3,0.1-0.3,0.2c0.5,5-0.4,11.8-4.7,14.9c-2.4,1.6-5.3,1.6-8,1c-0.2,0-1,0.3-0.7,0.4c4.3,0.9,8.9,0.2,11.6-3.5
		c2.1-2.9,2.8-6.8,2.8-10.3c0-0.9,0-1.8-0.1-2.7l-0.3,0.2c2.6-1,4.7-2.8,4.7-5.7c0-2.1-0.9-3.9-1.9-5.7c-0.4-0.7-0.5-1.5-0.8-2.2
		c-0.7-1.9-1.9-3.7-3.4-5.2c-2.7-2.5-6.2-3.5-9.8-3.5C283.4,281.3,282.6,281.6,283,281.6L283,281.6L283,281.6z"/>
	<path d="M269.4,115.8c0.4-1.5,1.8-2.6,3.3-2.9c0.9-0.1,1.7,0,2.6,0.2c0.6,0.1,1.2,0.4,1.8,0.6c0.4,0.2,0.9,0.6,1.3,0.6
		c0.5,0,1.1-0.4,1.6-0.6c3.1-1.2,7-1.8,10,0c0.9,0.5,1.5,1.3,2.4,1.9s1.6,1.3,2.3,2.1c2.8,3.1,3.5,6.9,1.2,10.5
		c-0.2,0.4,0.6,0.3,0.8,0.1c1.4-2.2,2-4.8,1-7.3c-0.7-1.9-2.1-3.6-3.7-4.9c-0.4-0.4-0.9-0.7-1.4-1.1c-0.7-0.5-1.3-1.2-2-1.6
		c-2.2-1.3-4.9-1.4-7.3-1c-1.7,0.3-3.4,0.8-4.9,1.6l0.5,0c-2.4-1.2-5.6-2.3-8.1-0.7c-1,0.6-1.9,1.6-2.2,2.8
		C268.5,116.3,269.4,116.2,269.4,115.8L269.4,115.8L269.4,115.8z"/>
	<path d="M337.5,246.8c1.2-1.2,2.6-2.3,4.1-3.1c3.3-1.8,6.7-1.3,9.3,1.5c0.1,0.1,0.5,0,0.7-0.1c1.8-0.9,3.9-1.3,5.8-1.4
		c4.6-0.2,8.6,2.1,11.2,5.8c0.9,1.3,1.6,2.7,2.2,4.1c0.3,0.8,0.5,1.6,0.9,2.3c0.4,0.8,0.9,1.5,1.2,2.3c1.6,3.5,2.4,7.4,2.1,11.2
		c-0.5,7.6-5.3,13.7-11.2,18.2c-0.4,0.3,0.5,0.2,0.7,0c5.4-4.1,10-9.6,11.2-16.5c0.7-4.2,0.1-8.6-1.6-12.6c-0.4-1-0.9-1.9-1.4-2.9
		c-0.3-0.6-0.5-1.4-0.8-2.1c-0.6-1.5-1.4-3.1-2.4-4.4c-2.6-3.7-6.5-5.9-11-5.9c-2.5,0-5.1,0.5-7.4,1.6l0.7-0.1
		c-2.6-2.8-6-3.3-9.5-1.9c-2,0.9-4,2.2-5.5,3.8C336.6,247,337.4,246.9,337.5,246.8L337.5,246.8L337.5,246.8z"/>
	<path d="M212.7,329.5c1.6,5.5,6.4,10,11.8,11.6c2.9,0.8,5.9,0.9,8.9,0.5l-0.4-0.1c0.7,1.1,2.1,1.7,3.3,2c3.9,1,8.2-0.4,11.8-1.8
		c0.6-0.2,0-0.4-0.3-0.3c-3.4,1.4-7.6,2.7-11.3,1.5c-0.9-0.3-2.1-0.9-2.6-1.7c-0.1-0.1-0.2-0.1-0.4-0.1c-6,0.7-12-0.8-16.1-5.4
		c-1.7-1.9-3.1-4.1-3.9-6.6C213.5,329,212.6,329.3,212.7,329.5L212.7,329.5L212.7,329.5z"/>
	<g>
		<path class="st9" d="M308.9,105.5c0,0-5.9-9-0.7-13.5c0,0,0.5-1.1,1.1-3.6c0.7-2.9,5.7,4.6,4.1,7.6S316,97.5,308.9,105.5
			L308.9,105.5z"/>
		<path d="M309.1,105.4c-1.2-1.9-2.2-4.1-2.6-6.4c-0.4-1.7-0.4-3.6,0.5-5.2c0.2-0.4,0.5-0.8,0.7-1.1c0.2-0.3,0.6-0.5,0.8-0.8
			c0.3-0.4,0.4-1,0.5-1.5c0.2-0.6,0.3-1.2,0.5-1.8c0-0.2,0.1-0.7,0.3-0.8c-0.1,0.1-0.1,0,0.1,0.1c0.1,0,0.2,0.1,0.3,0.2
			c0.2,0.1,0.4,0.3,0.6,0.5c1,1.1,1.8,2.6,2.2,4c0.2,0.7,0.4,1.4,0.4,2.1c0,0.7-0.2,1.1-0.5,1.7s-0.3,1.1-0.1,1.7
			c0.2,0.8,0.2,1.4-0.1,2.1c-0.9,2-2.5,3.8-4,5.4C308.5,105.6,309,105.6,309.1,105.4c1.4-1.5,2.9-3.1,3.9-5.1
			c0.4-0.7,0.5-1.4,0.4-2.2c-0.1-0.6-0.2-1.1,0-1.8c0.2-0.6,0.5-1,0.5-1.6c0.1-0.8-0.1-1.6-0.3-2.4c-0.3-1-2.5-6.3-4.4-4.6
			c-0.1,0.1-0.2,0.3-0.3,0.5c-0.2,0.6-0.3,1.4-0.5,2c-0.1,0.5-0.3,1.3-0.6,1.7c-0.2,0.3-0.6,0.6-0.9,0.9c-0.3,0.4-0.6,0.9-0.8,1.3
			c-0.3,0.8-0.5,1.6-0.5,2.5c-0.1,3,1.2,6.3,2.8,8.8C308.6,105.7,309.2,105.5,309.1,105.4L309.1,105.4z"/>
	</g>
	<path class="st10" d="M309.1,100.9c0,0-2.9-5.1,0-7.2c0,0,0.3-0.6,0.7-1.9c0.4-1.5,3,2.7,2,4.2C310.7,97.5,313.1,96.9,309.1,100.9
		L309.1,100.9z"/>
	<g>
		<g>
			<path class="st9" d="M310.1,106.2c-0.7-0.1-1.1-0.9-0.7-1.5c1.6-2.5,5.5-7.9,10.5-6.2c0,0,2.7,0.6,5.2,0.6c1.1,0-4.4,5.2-6,5.9
				C316.1,106.1,318.9,107.9,310.1,106.2L310.1,106.2z"/>
			<path d="M310.3,106c-1.1-0.3-0.5-1.3-0.1-2c0.4-0.6,0.8-1.2,1.3-1.7c1-1.2,2.3-2.4,3.7-3.2c1.5-0.8,3-0.8,4.6-0.4
				c0.5,0.1,1.1,0.2,1.6,0.3c0.4,0.1,0.8,0.1,1.3,0.2c0.6,0.1,1.4,0.3,2,0.1c0.1,0,0.3,0.1,0.2-0.1c0,0,0,0.1,0,0.1
				c0,0.1-0.1,0.2-0.2,0.3c-0.3,0.4-0.7,0.9-1.1,1.2c-0.9,0.9-1.8,1.8-2.8,2.6c-1.2,0.9-2.6,1.4-3.7,2.5c-0.4,0.4-0.9,0.6-1.5,0.6
				C313.9,106.7,312,106.3,310.3,106c-0.4-0.1-0.8,0.4-0.3,0.5c1.8,0.3,3.6,0.8,5.5,0.7c0.7,0,1.4-0.2,2-0.7
				c0.5-0.4,0.8-0.9,1.4-1.2c1.1-0.5,2-1.1,2.9-1.9c1.1-0.9,2.2-1.9,3.1-3c0.3-0.3,1.2-1.3,0.5-1.6c-0.4-0.2-1.1,0-1.6-0.1
				c-0.6,0-1.2-0.1-1.9-0.2c-0.7-0.1-1.5-0.2-2-0.4c-1.7-0.5-3.5-0.3-5.1,0.6c-1.8,0.9-3.2,2.4-4.4,3.9c-0.7,0.9-2.6,3.2-0.5,3.8
				C310.2,106.5,310.8,106.1,310.3,106L310.3,106z"/>
		</g>
		<path class="st10" d="M321,100.6c0,0-5.6-1.7-7,1.7c0,0-0.5,0.4-1.7,1.1c-1.4,0.8,3.3,2.2,4.6,0.9S318,105.5,321,100.6L321,100.6z
			"/>
	</g>
	<g>
		<g>
			<path class="st9" d="M227.3,398.1c0.7,0,1.2,0.7,1,1.4c-1,2.8-3.8,8.9-9.1,8.2c0,0-2.7-0.1-5.2,0.5c-1.1,0.2,3.2-6,4.8-7
				C221.6,399.4,218.4,398.2,227.3,398.1L227.3,398.1z"/>
			<path d="M227,398.3c1.9,0.1,0.4,2.7,0,3.6c-0.7,1.3-1.5,2.6-2.5,3.7c-1.2,1.3-2.8,2.2-4.6,2c-1.4-0.1-2.7,0-4.1,0.2
				c-0.2,0-0.4,0.1-0.7,0.1c-0.1,0-0.6,0.2-0.8,0.1s-0.1,0-0.1-0.2c0-0.4,0.3-0.8,0.5-1.1c0.6-1.1,1.4-2.2,2.2-3.2
				c0.7-0.9,1.4-1.8,2.3-2.4c0.5-0.4,0.9-0.8,1.3-1.3c0.3-0.5,0.6-0.9,1.2-1.1C223.3,398.2,225.4,398.3,227,398.3
				c0.2,0,0.9-0.3,0.5-0.3c-1.8,0-3.8,0-5.6,0.4c-0.7,0.2-1.4,0.4-1.9,0.9c-0.4,0.5-0.6,1-1.1,1.4c-0.4,0.3-0.8,0.5-1.1,0.8
				c-0.5,0.4-0.9,0.9-1.3,1.4c-1,1.2-1.9,2.4-2.6,3.7c-0.2,0.4-1,1.6-0.1,1.5c1.3-0.1,2.6-0.4,3.9-0.4c0.6,0,1.2,0,1.8,0
				c1.6,0.1,3.2-0.5,4.5-1.4c1.5-1.1,2.6-2.7,3.5-4.3c0.5-1,2.3-4,0.1-4.1c-0.1,0-0.4,0-0.5,0.1C227.1,398.1,226.9,398.2,227,398.3
				L227,398.3z"/>
		</g>
		<path class="st10" d="M217.9,405.8c0,0,5.8,0.5,6.6-3.1c0,0,0.4-0.5,1.4-1.4c1.2-1-3.7-1.5-4.7,0S219.8,400.4,217.9,405.8
			L217.9,405.8z"/>
	</g>
	<g>
		<g>
			<path class="st9" d="M392.9,239.2c0,0-5-5.8-1.7-9.3c0,0,0.2-0.8,0.4-2.6c0.2-2.1,4.4,2.7,3.5,4.9S397.2,233,392.9,239.2
				L392.9,239.2z"/>
			<path d="M393.2,239.1c-1-1.2-1.9-2.7-2.4-4.2c-0.4-1.2-0.6-2.4-0.1-3.6c0.1-0.3,0.3-0.6,0.4-0.9c0.1-0.2,0.3-0.4,0.4-0.6
				c0.1-0.3,0.2-0.8,0.2-1.1c0.1-0.4,0.1-0.8,0.1-1.2c0-0.1,0-0.5,0.1-0.6c0.1-0.1,0.5,0.3,0.7,0.4c0.8,0.6,1.5,1.6,1.9,2.5
				c0.2,0.5,0.4,1,0.4,1.5c0,0.4-0.1,0.8-0.2,1.1c-0.1,0.4-0.1,0.8,0.1,1.2c0.2,0.5,0.2,0.9,0.1,1.4c-0.4,1.5-1.4,2.8-2.3,4.1
				c-0.2,0.3,0.3,0.4,0.5,0.2c0.8-1.2,1.8-2.5,2.3-4c0.2-0.5,0.3-1.1,0.1-1.6c-0.1-0.4-0.3-0.8-0.2-1.2c0.1-0.4,0.3-0.8,0.2-1.2
				c0-0.6-0.2-1.1-0.4-1.6c-0.5-1-1.1-1.9-2-2.6c-0.4-0.4-1.3-0.9-1.7-0.2c-0.1,0.1-0.1,0.3-0.1,0.4c-0.1,0.5-0.1,1-0.2,1.5
				c0,0.4-0.1,0.8-0.3,1.1c-0.3,0.6-0.7,1-0.9,1.7s-0.2,1.3-0.1,1.9c0.2,2.1,1.4,4.2,2.8,5.8C392.8,239.5,393.3,239.3,393.2,239.1
				L393.2,239.1z"/>
		</g>
		<path class="st10" d="M392.6,235.9c0,0-2.5-3.3-0.7-5.1c0,0,0.1-0.4,0.3-1.4c0.2-1.1,2.3,1.6,1.8,2.8S395.1,232.8,392.6,235.9
			L392.6,235.9z"/>
		<g>
			<path class="st9" d="M393.2,239.2c-0.5,0.1-0.9-0.4-0.8-0.9c0.5-2,1.9-6.5,5.6-6.5c0,0,1.9-0.2,3.6-0.8c0.8-0.3-1.7,4.5-2.7,5.3
				C397.1,237.8,399.4,238.3,393.2,239.2z"/>
			<path d="M393.2,238.9c-0.7,0-0.4-0.9-0.3-1.3c0.1-0.4,0.2-0.9,0.4-1.3c0.4-1,0.8-1.9,1.5-2.7s1.5-1.5,2.6-1.6
				c1-0.1,1.9-0.2,2.9-0.4c0.4-0.1,0.7-0.2,1.1-0.3c0,0,0.3-0.1,0.3-0.1c0,0-0.3-0.1-0.3-0.1c0,0,0,0,0,0.1
				c-0.1,0.2-0.2,0.6-0.3,0.8c-0.4,0.9-0.8,1.7-1.3,2.5c-0.4,0.6-0.8,1.3-1.4,1.8c-0.3,0.3-0.6,0.7-0.8,1.1s-0.3,0.6-0.8,0.8
				C395.8,238.6,394.5,238.8,393.2,238.9c-0.4,0-0.5,0.6,0,0.5c1.3-0.2,2.7-0.3,4-0.8c0.5-0.2,0.9-0.5,1.2-0.9
				c0.2-0.4,0.4-0.8,0.7-1.1c0.6-0.6,1.1-1.3,1.6-2c0.5-0.9,1-1.8,1.4-2.8c0.1-0.2,0.2-0.5,0.1-0.8c-0.2-0.4-0.9-0.1-1.2,0
				c-0.8,0.2-1.5,0.4-2.3,0.5c-0.4,0.1-0.9,0.1-1.3,0.1c-1.2,0.2-2.2,0.8-3,1.7c-0.9,1-1.4,2.2-1.9,3.4c-0.2,0.5-0.3,1-0.4,1.5
				c-0.2,0.8,0.4,1.3,1.1,1.2C393.6,239.4,393.8,238.9,393.2,238.9L393.2,238.9z"/>
		</g>
		<path class="st10" d="M399.1,233c0,0-4.1,0.2-4.3,2.7c0,0-0.2,0.4-0.9,1.1c-0.8,0.8,2.7,0.7,3.3-0.4S398.3,236.9,399.1,233
			L399.1,233z"/>
	</g>
	<g>
		<g>
			<path class="st9" d="M327.9,352.4c-0.2-0.7,0.2-1.4,1-1.4c3,0,9.6,0.7,10.7,5.9c0,0,0.8,2.6,2.2,4.8c0.6,1-6.7-1.1-8.1-2.2
				C331,357.4,330.9,360.7,327.9,352.4L327.9,352.4z"/>
			<path d="M328.2,352.3c-0.1-0.6,0.1-1,0.7-1.1c0.3,0,0.6,0,0.8,0c0.6,0,1.3,0.1,1.9,0.2c1.4,0.2,2.8,0.6,4.1,1.2
				c1.4,0.7,2.5,1.8,3.1,3.2c0.2,0.5,0.3,1,0.5,1.5c0.3,0.8,0.6,1.5,0.9,2.3c0.2,0.5,0.4,0.9,0.7,1.4c0.1,0.2,0.2,0.5,0.4,0.7
				c0,0,0.1,0.1,0.1,0.1s0,0,0,0c0,0,0,0,0.1,0c-0.1-0.1,0.2,0.1,0,0c0,0-0.2,0-0.3,0c-0.2,0-0.5-0.1-0.7-0.1
				c-1.3-0.2-2.6-0.6-3.9-1.1c-1-0.4-2-0.8-2.9-1.4c-0.5-0.4-1.1-0.6-1.7-0.7s-1.1-0.4-1.5-1C329.4,355.9,328.9,354,328.2,352.3
				c-0.1-0.2-0.8,0-0.7,0.2c0.6,1.7,1.2,3.6,2.3,5.1c0.4,0.6,0.9,1,1.6,1.1c0.8,0.2,1.3,0.5,2,0.9c1.1,0.8,2.5,1.2,3.7,1.5
				s2.6,0.8,3.9,0.9c0.3,0,0.8,0,1-0.2c0.1-0.1,0.1-0.1,0.1-0.3c0-0.2-0.2-0.4-0.3-0.6c-0.2-0.3-0.3-0.6-0.5-1
				c-0.5-0.9-0.9-1.9-1.2-2.8c-0.2-0.6-0.3-1.2-0.6-1.8c-0.7-1.5-1.9-2.6-3.3-3.3c-1.6-0.8-3.4-1.2-5.2-1.4c-1.1-0.1-4-0.5-3.5,1.6
				C327.6,352.7,328.3,352.5,328.2,352.3L328.2,352.3z"/>
		</g>
		<path class="st10" d="M338.2,358.8c0,0-1.5-5.7-5-5.2c0,0-0.6-0.2-1.8-0.9c-1.4-0.8-0.2,4,1.5,4.4S332.5,358.8,338.2,358.8
			L338.2,358.8z"/>
	</g>
	<path class="st6" d="M123,463.7c-0.7,0-0.8-1-0.2-1.2c6.3-2,23.5-5.7,62-4.3c0,0,23.9,1.8,43.7-3.3s19.7-4.2,38.1-4.3
		s25.3-5.6,41.8-0.6c16.5,5,74.2,3,79.5,3.4c26,1.5,31.6,6.7,35.8,6.3c11.3-1.1,20,2.9,22.7,4.4c0.3,0.1,0.1,0.5-0.1,0.5
		C427.4,464.6,169.5,463.7,123,463.7L123,463.7z"/>
	<path class="st7" d="M132.8,462.9c-0.5,0,3.5-1.2,4-1.4c4.4-1.4,44.4,0.3,77.8-2c0,0,16.8-0.3,30.7-3.8c13.9-3.5,13.8-3,26.6-3
		c12.9,0,17.7-3.9,29.2-0.4c11.5,3.5,51.9,2.1,55.7,2.4c18.2,1.1,22.1,4.7,25,4.4c7.9-0.8,50,2.6,52.8,3.1c0.1,0-5.5,1.3-16.1,0.8
		c-5.1-0.3-19.2-0.4-19.3-0.4C386.1,462.5,165.3,462.9,132.8,462.9L132.8,462.9z"/>
	<g>
		<g>
			<path class="st9" d="M244.8,450c0.6,0.1,1,0.6,0.7,1c-1.1,1.8-3.9,5.6-8.1,4.6c0,0-2.2-0.3-4.3-0.2c-0.9,0,3.1-3.7,4.5-4.2
				C239.9,450.3,237.4,449.2,244.8,450L244.8,450z"/>
			<path d="M244.6,450.2c1,0.2,0.6,0.9,0.2,1.4c-0.3,0.4-0.6,0.8-0.9,1.2c-0.8,0.9-1.6,1.7-2.7,2.2c-1.2,0.6-2.4,0.6-3.7,0.4
				s-2.6-0.2-3.9-0.2h-0.2c-0.2,0-0.3,0-0.1,0v0c0-0.1,0.1-0.2,0.1-0.3c0.2-0.3,0.5-0.6,0.8-0.9c0.7-0.7,1.5-1.4,2.4-2
				c0.6-0.4,1.2-0.7,1.8-1c0.3-0.2,0.6-0.5,0.9-0.7c0.3-0.3,0.6-0.4,1-0.4C241.6,449.8,243.1,450,244.6,450.2c0.2,0,0.8-0.3,0.4-0.4
				c-1.5-0.2-3-0.3-4.4-0.3c-0.6,0-1.2,0.1-1.8,0.5c-0.3,0.2-0.5,0.5-0.9,0.8c-0.3,0.2-0.6,0.3-0.9,0.4c-0.4,0.2-0.8,0.5-1.2,0.8
				c-0.9,0.7-1.8,1.5-2.6,2.4c-0.2,0.2-1.1,1.1-0.4,1.2c0.4,0.1,0.8,0,1.2,0c0.6,0,1.1,0,1.7,0.1c0.5,0,1,0.1,1.5,0.1
				c1.5,0.2,2.8,0.2,4.2-0.5s2.5-1.6,3.4-2.8c0.4-0.5,0.8-1,1.1-1.5c0.4-0.7-0.1-1.2-0.8-1.3C244.8,449.8,244.1,450.1,244.6,450.2
				L244.6,450.2z"/>
		</g>
		<path class="st10" d="M236.4,454.2c0,0,4.8,0.9,5.6-1.4c0,0,0.4-0.3,1.3-0.8c1.1-0.6-2.9-1.4-3.9-0.4S238.4,450.8,236.4,454.2
			L236.4,454.2z"/>
	</g>
	<g>
		<g>
			<path class="st9" d="M172.4,452.7c0,0,7.4-1.7,9.1,2.8c0,0,0.6,0.6,2.1,1.6c1.8,1.2-4.4,2.7-6,0.8
				C176,456.1,175.9,459.4,172.4,452.7L172.4,452.7z"/>
			<path d="M172.4,452.8C172.5,452.8,172.4,452.8,172.4,452.8c0.1,0,0.2,0,0.3-0.1c0.3-0.1,0.6-0.1,0.9-0.1c1-0.1,2-0.1,3,0
				c1.1,0.1,2.3,0.5,3.1,1.2c0.5,0.4,0.8,0.8,1.1,1.3c0.2,0.4,0.2,0.5,0.6,0.8c0.6,0.5,1.2,0.9,1.8,1.3c0.2,0.2,0.4,0.4,0.2,0.6
				c-0.2,0.3-0.7,0.5-1.1,0.5c-0.5,0.2-1.1,0.2-1.7,0.3c-1.1,0-2.2-0.1-3-0.9c-0.3-0.3-0.7-0.6-1.2-0.7c-0.5-0.1-0.9-0.2-1.3-0.5
				c-1.2-1-1.9-2.6-2.6-4c-0.1-0.2-0.6,0-0.6,0.2c0.7,1.3,1.4,2.8,2.5,3.9c0.4,0.4,0.8,0.6,1.4,0.7s0.9,0.3,1.3,0.7
				c0.8,0.8,2,0.9,3,0.9s2.3-0.2,3.2-0.7c0.2-0.1,0.6-0.3,0.6-0.7c0.1-0.4-0.6-0.7-0.8-0.9c-0.5-0.3-1.1-0.7-1.5-1.2
				c-0.3-0.3-0.4-0.9-0.7-1.2c-0.8-1-1.9-1.5-3.1-1.8c-1.8-0.4-3.9-0.3-5.7,0.1C172,452.7,172,452.9,172.4,452.8L172.4,452.8z"/>
		</g>
		<path class="st10" d="M175.1,453.8c0,0,4.1-0.7,4.8,1.7c0,0,0.3,0.3,1.1,0.9c0.9,0.7-2.5,1.3-3.3,0.3S176.7,457.5,175.1,453.8
			L175.1,453.8z"/>
	</g>
	<g>
		<path class="st9" d="M219.1,459.3c-0.5,0.1-0.9-0.4-0.8-0.9c0.4-2,1.8-6.5,5.6-6.6c0,0,1.9-0.2,3.6-0.8c0.7-0.3-1.7,4.5-2.7,5.3
			C223,457.8,225.3,458.4,219.1,459.3z"/>
		<path d="M219.2,459.1c-1.1,0.1-0.3-2-0.1-2.6c0.3-1,0.8-1.9,1.4-2.7s1.5-1.5,2.6-1.7c0.4-0.1,0.7,0,1.1-0.1
			c0.6-0.1,1.2-0.2,1.9-0.4c0.4-0.1,0.7-0.2,1.1-0.3c0.1,0,0.2,0,0.2-0.1c0.1-0.1-0.1-0.1-0.1-0.1c0,0,0,0,0,0.1
			c-0.1,0.2-0.1,0.5-0.2,0.8c-0.3,0.9-0.8,1.7-1.3,2.5c-0.4,0.6-0.8,1.3-1.3,1.8c-0.4,0.3-0.6,0.7-0.8,1.1c-0.2,0.4-0.3,0.6-0.7,0.8
			C221.8,458.9,220.4,459,219.2,459.1c-0.4,0.1-0.7,0.5-0.2,0.4c1.3-0.2,2.7-0.4,3.9-0.8c0.5-0.2,1-0.5,1.2-0.9
			c0.2-0.4,0.4-0.8,0.7-1.1c0.6-0.6,1.1-1.3,1.6-2c0.5-0.9,1-1.8,1.4-2.8c0.1-0.2,0.2-0.6,0.2-0.8c-0.1-0.4-0.8,0-1,0
			c-0.8,0.2-1.6,0.4-2.4,0.6c-0.4,0.1-0.9,0.1-1.3,0.1c-1.2,0.2-2.2,0.8-3,1.6c-0.9,0.9-1.4,2.1-1.9,3.3c-0.2,0.5-0.3,1-0.4,1.6
			c-0.2,0.7,0.2,1.2,1,1.2c0.1,0,0.4,0,0.5-0.2S219.4,459.1,219.2,459.1L219.2,459.1z"/>
	</g>
	<path class="st10" d="M225,453.1c0,0-4.1,0.2-4.3,2.8c0,0-0.2,0.4-0.9,1.1c-0.8,0.8,2.7,0.7,3.3-0.5S224.2,457,225,453.1z"/>
	<g>
		<g>
			<path class="st9" d="M353.2,452.9c0,0,5.4-5.4,9.2-2.4c0,0,0.9,0.2,2.7,0.2c2.1,0-2.4,4.6-4.7,3.9
				C358,453.9,359.7,456.7,353.2,452.9L353.2,452.9z"/>
			<path d="M353.4,453c1.1-1.1,2.5-2.1,4-2.7c1.2-0.5,2.5-0.7,3.7-0.2c0.4,0.2,0.8,0.5,1.2,0.6s0.9,0.1,1.3,0.2s0.8,0,1.2,0.1
				c0.1,0,0.3,0,0.4,0.1c0.2,0.2-0.1,0.6-0.2,0.8c-0.5,0.9-1.4,1.6-2.3,2.1c-0.5,0.3-1,0.5-1.5,0.6c-0.4,0-0.7-0.1-1.1-0.2
				c-0.4-0.1-0.8,0-1.2,0.2c-0.5,0.2-0.8,0.3-1.3,0.2c-1.5-0.3-2.9-1.2-4.2-2c-0.2-0.1-0.7,0.2-0.5,0.3c1.3,0.8,2.7,1.6,4.1,2
				c0.6,0.2,1.2,0.2,1.7-0.1c0.4-0.2,0.6-0.3,1.1-0.2s0.8,0.2,1.3,0.1c0.5-0.1,1.1-0.3,1.6-0.5c1-0.5,1.9-1.3,2.6-2.2
				c0.3-0.4,0.9-1.3,0.1-1.5c-0.3-0.1-0.6,0-0.9-0.1c-0.4,0-0.9,0-1.3-0.1c-0.5,0-0.7-0.1-1.1-0.3c-1.1-0.7-2.4-0.8-3.7-0.5
				c-2.1,0.5-4.1,1.8-5.6,3.3C352.7,453.1,353.3,453.1,353.4,453L353.4,453z"/>
		</g>
		<path class="st10" d="M356,452.4c0,0,3.1-2.8,5-1c0,0,0.5,0.1,1.4,0.2c1.1,0.1-1.4,2.4-2.6,2S359.4,454.6,356,452.4z"/>
	</g>
</g>
<g class="st11">
	<g>
		<path class="st9" d="M389.7,61c-1.2-0.2-1.9-1.4-1.3-2.4c2.3-4.3,8.4-13.5,16.7-11.1c0,0,4.4,0.7,8.6,0.5
			c1.8-0.1-6.6,8.9-9.4,10.1C399.4,60.3,404.2,63,389.7,61L389.7,61z"/>
		<path d="M389.9,60.8c-3.1-0.7,0.4-4.9,1.3-6.2c1.5-2.1,3.4-4.1,5.6-5.6c2.6-1.7,5.1-2,8.1-1.4c2.4,0.5,4.9,0.6,7.3,0.6
			c0.2,0,1.4-0.1,1.4,0c0.1,0.1-0.2,0.5-0.2,0.6c-0.4,0.7-0.9,1.3-1.4,1.9c-1.4,1.6-2.9,3.2-4.4,4.6c-1.3,1.2-2.5,2.1-4,2.9
			c-0.8,0.4-1.5,1-2.1,1.7c-0.7,0.8-1.4,1.2-2.5,1.4C396,61.8,392.8,61.2,389.9,60.8c-0.2,0-0.8,0.4-0.4,0.4c2.9,0.4,6,0.9,8.9,0.6
			c1.1-0.1,2.2-0.4,3.1-1.1c0.8-0.7,1.3-1.5,2.2-2c1.6-1,3.1-1.9,4.5-3.2c1.8-1.6,3.5-3.4,5-5.3c0.4-0.4,1.8-2.1,0.8-2.4
			c-0.4-0.1-0.9,0-1.2,0c-0.5,0-1.1,0-1.6,0c-1.1,0-2.2-0.1-3.3-0.2s-2.2-0.3-3.3-0.5c-2.7-0.5-5.3,0.1-7.7,1.4
			c-2.7,1.6-4.8,3.9-6.5,6.4c-1.1,1.5-4.2,5.5-0.8,6.3C389.7,61.3,390.3,60.9,389.9,60.8L389.9,60.8z"/>
	</g>
	<path class="st10" d="M406.9,50.9c0,0-9.4-2.2-11.4,3.4c0,0-0.8,0.7-2.7,1.9c-2.2,1.4,5.6,3.4,7.6,1.1
		C402.4,55.1,402.5,59.1,406.9,50.9L406.9,50.9z"/>
</g>
<g class="st11">
	<g>
		<path class="st4" d="M448,87.7c0,0,9.6-6.7,14.5-1.1c0,0,1.2,0.5,4,1c3.2,0.6-4.8,6.3-8.1,4.6C455.1,90.5,456.8,95.2,448,87.7
			L448,87.7z"/>
		<path d="M448.2,87.7c2.1-1.4,4.5-2.6,7-3c2-0.4,4.1-0.2,5.8,0.9c0.5,0.4,0.9,0.9,1.5,1.2c0.7,0.3,1.5,0.4,2.2,0.6
			c0.5,0.1,2,0.1,2.2,0.8c0.1,0.4-0.3,0.9-0.5,1.2c-1,1.2-2.6,2.1-4.1,2.6c-0.9,0.3-1.8,0.6-2.8,0.4c-0.5-0.1-1-0.4-1.5-0.5
			c-0.6-0.2-1.1-0.2-1.7,0c-0.8,0.2-1.5,0.2-2.3-0.2c-2.1-0.9-4-2.6-5.7-4.1c-0.1-0.1-0.6,0.1-0.5,0.2c1.8,1.5,3.6,3.2,5.8,4.1
			c0.8,0.3,1.5,0.4,2.3,0.2c0.8-0.2,1.2-0.3,2,0.1c1.4,0.6,2.7,0.5,4.1,0.1c1.6-0.5,3.1-1.3,4.4-2.4c0.5-0.4,1.8-1.7,0.8-2.2
			c-0.4-0.2-0.9-0.2-1.4-0.3c-0.6-0.1-1.3-0.3-1.9-0.5c-0.3-0.1-0.6-0.1-0.9-0.3c-0.3-0.2-0.5-0.4-0.8-0.7c-1.5-1.3-3.5-1.7-5.4-1.5
			c-3.1,0.2-6.4,1.6-8.9,3.4C447.6,87.8,448.1,87.8,448.2,87.7L448.2,87.7z"/>
	</g>
	<path class="st5" d="M452.5,87.7c0,0,5.4-3.3,7.8-0.2c0,0,0.6,0.3,2.1,0.6c1.7,0.4-2.8,3.3-4.5,2.3S456.9,92,452.5,87.7z"/>
</g>
<g class="st11">
	<g>
		<path class="st4" d="M236.8,39.3c0,0,9.4-6.9,14.5-1.5c0,0,1.2,0.5,4,0.9c3.2,0.6-4.6,6.4-8,4.8C243.9,41.9,245.7,46.6,236.8,39.3
			L236.8,39.3z"/>
		<path d="M237,39.3c2-1.5,4.5-2.7,6.9-3.2c1.9-0.4,4.1-0.4,5.8,0.7c0.5,0.3,0.9,0.9,1.5,1.1c0.7,0.3,1.5,0.4,2.2,0.6
			c0.5,0.1,2,0.1,2.2,0.7c0.1,0.4-0.2,0.9-0.5,1.2c-1,1.2-2.6,2.1-4,2.7c-0.8,0.3-1.8,0.6-2.7,0.5c-0.6-0.1-1-0.4-1.6-0.5
			c-0.6-0.2-1.1-0.1-1.7,0c-0.8,0.2-1.4,0.2-2.3-0.1C240.7,42.2,238.8,40.6,237,39.3c-0.1-0.2-0.6,0-0.5,0.1
			c1.8,1.4,3.7,3.1,5.9,3.9c0.8,0.3,1.5,0.4,2.3,0.2c0.8-0.2,1.2-0.3,2,0c1.4,0.6,2.7,0.5,4.1,0c1.6-0.5,3.1-1.4,4.3-2.5
			c0.5-0.5,1.8-1.7,0.7-2.3c-0.4-0.2-0.9-0.2-1.4-0.3c-0.6-0.1-1.3-0.3-1.9-0.4c-0.3-0.1-0.6-0.1-0.9-0.2c-0.3-0.1-0.5-0.4-0.8-0.7
			c-1.5-1.2-3.5-1.6-5.5-1.4c-3.1,0.3-6.3,1.8-8.9,3.6C236.3,39.5,236.9,39.4,237,39.3L237,39.3z"/>
	</g>
	<path class="st5" d="M241.2,39.2c0,0,5.3-3.4,7.8-0.4c0,0,0.6,0.3,2.1,0.6c1.7,0.4-2.7,3.3-4.5,2.4S245.8,43.3,241.2,39.2
		L241.2,39.2z"/>
</g>
<g class="st11">
	<g>
		<path class="st4" d="M474.1,150.6c0,0,11.6,0.8,12,8.1c0,0,0.7,1.1,2.4,3.3c2.1,2.5-7.7,2-9.2-1.4
			C477.9,157.2,476.3,161.9,474.1,150.6L474.1,150.6z"/>
		<path d="M473.9,150.7c2.2,0.1,4.5,0.7,6.5,1.6c1.6,0.7,3.1,1.6,4.2,3c0.5,0.7,0.9,1.4,1.1,2.3c0.1,0.6,0.1,1.1,0.4,1.6
			c0.6,0.9,1.3,1.8,2,2.7c0.3,0.4,0.7,0.9,0.2,1.2c-0.5,0.4-1.4,0.3-1.9,0.3c-0.9,0-1.7-0.1-2.5-0.3c-1.5-0.4-3.3-1-4.1-2.4
			c-0.4-0.7-0.7-1.3-1.5-1.7s-1.3-0.6-1.8-1.4c-1.3-2.1-1.7-4.8-2.1-7.1c0-0.1-0.6,0-0.6,0.2c0.5,2.3,0.9,4.9,2,6.9
			c0.4,0.7,0.9,1.1,1.7,1.5c0.9,0.4,1.2,0.9,1.6,1.7c0.8,1.4,2.6,2.1,4,2.4s3.2,0.6,4.7,0.2c0.4-0.1,1-0.3,1.2-0.6
			c0.3-0.5-0.3-1-0.6-1.4c-0.7-0.8-1.5-1.7-2-2.7c-0.1-0.2-0.1-0.5-0.1-0.8c-0.1-0.5-0.2-1-0.4-1.4c-0.7-1.7-2.1-2.9-3.6-3.8
			c-2.4-1.4-5.3-2.1-8.1-2.3C474.2,150.5,473.6,150.7,473.9,150.7L473.9,150.7z"/>
	</g>
	<path class="st5" d="M477.6,153.4c0,0,6.3,0.8,6.3,4.7c0,0,0.3,0.6,1.2,1.8c1,1.4-4.2,0.8-5-1S478.4,159.5,477.6,153.4L477.6,153.4
		z"/>
</g>
<g class="st11">
	<g>
		<path class="st4" d="M40.3,161.1c0,0-10.6,2.7-13.4-3.6c0,0-1-0.8-3.2-2.1c-2.7-1.6,6.2-3.9,8.7-1.4
			C34.8,156.5,34.7,151.9,40.3,161.1L40.3,161.1z"/>
		<path d="M40.2,161c-2,0.5-4.2,0.7-6.3,0.5c-1.6-0.1-3.3-0.5-4.7-1.5c-0.7-0.5-1.3-1.1-1.8-1.9c-0.3-0.5-0.4-0.7-0.8-1
			c-0.9-0.6-1.9-1.2-2.8-1.8c-0.4-0.3-0.6-0.6-0.1-0.9c1-0.9,2.9-1.1,4.1-1.2c1.6-0.1,3.2,0.1,4.4,1.2c0.5,0.5,1,0.7,1.7,0.8
			c0.8,0.1,1.3,0.2,1.9,0.7c1.8,1.4,3,3.6,4.1,5.5c0.1,0.2,0.7,0,0.5-0.2c-1.1-1.9-2.3-3.9-4-5.4c-0.6-0.5-1.2-0.8-2.1-0.9
			c-0.8-0.1-1.3-0.3-1.9-0.9c-1.1-1-2.8-1.2-4.3-1.1c-1.5,0.1-3.2,0.3-4.6,1.1c-0.3,0.2-0.8,0.5-0.8,0.9c-0.1,0.6,0.6,0.9,1,1.1
			c0.9,0.5,1.9,1,2.6,1.7c0.5,0.4,0.7,1.1,1.1,1.6c1.1,1.3,2.8,2,4.4,2.4c2.7,0.6,5.7,0.4,8.3-0.3C40.7,161.3,40.6,160.9,40.2,161
			L40.2,161z"/>
	</g>
	<path class="st5" d="M35.8,159.5c0,0-5.8,1.1-7.1-2.3c0,0-0.5-0.4-1.7-1.2c-1.4-0.9,3.5-1.9,4.7-0.5
		C33,156.9,33.1,154.5,35.8,159.5L35.8,159.5z"/>
	<g>
		<path class="st4" d="M41.4,160.2c-0.3,0.6-1.2,0.7-1.7,0.2c-2-2.3-6.1-7.7-2.9-11.8c0,0,1.4-2.3,2.1-4.7c0.3-1.1,3.8,5.7,3.9,7.5
			C43,154.6,45.7,152.5,41.4,160.2L41.4,160.2z"/>
		<path d="M41.1,160.2c-0.6,0.9-1.5-0.5-1.9-1c-0.5-0.7-1.1-1.4-1.5-2.1c-0.8-1.4-1.5-2.9-1.6-4.6c-0.1-1.6,0.5-2.8,1.3-4.2
			c0.3-0.6,0.7-1.2,1-1.9c0.1-0.3,1.2-2.5,1-2.6l-0.5,0.1c0,0,0.1,0,0.1,0.1c0,0.1,0.1,0.1,0.1,0.1c0.1,0.1,0.2,0.2,0.3,0.4
			c0.4,0.5,0.7,1,0.9,1.5c0.6,1.1,1.2,2.2,1.6,3.4c0.4,0.9,0.5,1.7,0.7,2.6c0.1,0.5,0.4,1,0.6,1.4c0.3,0.6,0.3,1.1,0.1,1.8
			C42.9,157.1,41.9,158.7,41.1,160.2c-0.1,0.2,0.6,0.1,0.7-0.1c0.9-1.6,1.9-3.2,2.3-5c0.2-0.6,0.2-1.2-0.2-1.8
			c-0.3-0.6-0.6-1.2-0.7-1.9c-0.1-1.2-0.6-2.3-1.1-3.3c-0.3-0.6-2.3-5.6-3.5-4.3c-0.2,0.2-0.2,0.7-0.4,0.9c-0.2,0.6-0.5,1.1-0.7,1.7
			c-0.3,0.7-0.7,1.5-1.1,2.1c-1,1.6-1.5,3.1-1.1,4.9c0.4,2.1,1.5,3.9,2.8,5.6c0.4,0.6,1,1.5,1.7,1.8s1.5,0,1.9-0.6
			C41.9,160,41.2,160,41.1,160.2L41.1,160.2z"/>
	</g>
	<path class="st5" d="M39.2,148.3c0,0-3.3,4.7-0.5,7.1c0,0,0.3,0.6,0.6,1.9c0.4,1.6,3.2-2.4,2.3-4S43,152.6,39.2,148.3z"/>
</g>
<g class="st11">
	<g>
		<path class="st4" d="M45.2,73c-0.8-0.8-0.5-2.1,0.5-2.5c4.2-1.7,14-4.8,18.6,1.9c0,0,2.8,3.1,5.9,5.4c1.4,1-10.1,2.5-12.8,1.8
			C52.7,78.2,54.5,83,45.2,73L45.2,73z"/>
		<path d="M45.5,72.8c-1.3-1.7,0.8-2.4,2.1-2.8c1-0.4,2-0.6,3-0.9c2.3-0.6,4.7-0.8,7.1-0.5c2.7,0.4,4.6,1.8,6.3,3.8
			c1.2,1.5,2.8,2.9,4.3,4.2c0.2,0.1,1.8,1.3,1.7,1.4c0,0-0.3,0.1-0.3,0.1c-0.5,0.4-1.5,0.4-2.2,0.6c-2,0.4-4,0.6-6.1,0.7
			c-1.6,0.1-3,0-4.6-0.3C56,79,55.2,79,54.3,79.2c-1,0.2-1.8-0.1-2.7-0.6C49.4,77,47.4,74.8,45.5,72.8c-0.2-0.3-0.9,0-0.6,0.3
			c1.9,2,3.9,4.3,6.2,5.8c0.9,0.6,1.8,0.9,2.8,0.8s2-0.3,3.1-0.1c1.8,0.4,3.7,0.3,5.6,0.2c2.2-0.2,4.5-0.4,6.6-1
			c0.4-0.1,1.2-0.3,1.5-0.7c0.4-0.5-0.2-0.7-0.6-1.1c-2.2-1.7-4.2-3.7-6-5.8c-1.7-2-4.1-3.1-6.7-3.3c-2.9-0.3-5.8,0.2-8.6,1
			c-1.7,0.5-5.9,1.5-3.9,4.1C45.1,73.4,45.8,73.1,45.5,72.8L45.5,72.8z"/>
	</g>
	<path class="st5" d="M63.7,75.8c0,0-5.5-7.1-10.2-4.3c0,0-1,0.1-3.1-0.2c-2.4-0.3,2.1,5.8,4.8,5.3S55.6,79.2,63.7,75.8z"/>
</g>
<g class="st11">
	<g>
		<path class="st9" d="M118.9,91.2c-1.2-0.1-1.9-1.4-1.3-2.4c2.2-4.4,8-13.6,16.4-11.5c0,0,4.4,0.6,8.6,0.3
			c1.8-0.1-6.4,9.1-9.1,10.4C128.6,90.2,133.4,92.8,118.9,91.2L118.9,91.2z"/>
		<path d="M119.1,91c-3.1-0.6,0.2-4.8,1.1-6.2c1.5-2.1,3.2-4.2,5.3-5.7c2.6-1.8,5.2-2.2,8.2-1.7c2.2,0.4,4.6,0.4,6.8,0.4
			c0.2,0,1.9-0.2,1.9-0.1c0.1,0.1-0.1,0.4-0.2,0.5c-0.3,0.7-0.8,1.3-1.3,1.9c-1.4,1.7-2.9,3.4-4.4,4.9c-1.2,1.1-2.4,2.1-3.8,2.9
			c-0.9,0.5-1.5,1.1-2.2,1.8c-0.7,0.8-1.3,1.3-2.4,1.5C125.2,91.8,122,91.3,119.1,91c-0.2,0-0.8,0.3-0.4,0.4c2.9,0.3,6,0.7,8.9,0.4
			c1.1-0.1,2.2-0.4,3.1-1.2c0.8-0.7,1.3-1.6,2.2-2.1c1.6-1,3.1-2,4.5-3.4c1.7-1.6,3.3-3.4,4.7-5.3c0.3-0.5,1.8-2.1,0.7-2.4
			c-0.4-0.1-1,0.1-1.4,0.1c-0.6,0-1.2,0-1.8,0c-1,0-2-0.1-3-0.1c-1.1-0.1-2.2-0.3-3.3-0.4c-2.6-0.4-5.3,0.2-7.5,1.6
			c-2.6,1.6-4.7,4.1-6.4,6.6c-1,1.5-4.1,5.5-0.6,6.2C118.9,91.4,119.5,91.1,119.1,91L119.1,91z"/>
	</g>
	<path class="st10" d="M135.9,80.7c0,0-9.4-2-11.3,3.7c0,0-0.8,0.8-2.6,2c-2.2,1.5,5.7,3.2,7.6,0.9C131.5,84.9,131.7,89,135.9,80.7
		L135.9,80.7z"/>
</g>
<g class="st11">
	<g>
		<path class="st9" d="M199.1,105.5c0,0-9.4-4.3-7.4-10.6c0,0-0.2-1.2-1-3.5c-0.9-2.7,7,0.8,7.2,4.1S200.9,95.3,199.1,105.5
			L199.1,105.5z"/>
		<path d="M199.3,105.3c-1.9-0.9-3.6-2.1-5.1-3.6c-1.1-1.1-2.1-2.5-2.4-4.1c-0.2-0.8-0.2-1.7,0-2.5c0.1-0.5,0.1-0.8-0.1-1.2
			c-0.1-0.4-0.2-0.9-0.4-1.3c-0.2-0.5-0.4-1.1-0.5-1.6s0.2-0.5,0.7-0.5c1.4,0.2,2.8,1,3.9,1.9c0.6,0.5,1.1,1,1.6,1.6
			c0.4,0.6,0.5,1.1,0.6,1.8c0.1,0.6,0.3,1.1,0.8,1.5c0.5,0.5,0.8,1,0.9,1.7c0.4,2.1-0.1,4.4-0.5,6.4c0,0.3,0.5,0.2,0.6-0.1
			c0.4-2,0.8-4.1,0.6-6.2c-0.1-0.8-0.3-1.4-0.9-1.9c-0.5-0.5-0.8-0.8-0.9-1.5c-0.1-0.6-0.2-1.2-0.5-1.7c-0.4-0.7-1-1.2-1.6-1.7
			c-1.1-0.9-2.6-1.8-4.1-2.1c-0.7-0.1-1.9-0.1-1.8,1c0.1,0.5,0.4,1.1,0.5,1.6c0.1,0.5,0.3,0.9,0.4,1.4c0.1,0.2,0.1,0.4,0.1,0.6
			c0,0.3-0.2,0.7-0.2,1.1c-0.2,1.7,0.4,3.3,1.4,4.6c1.6,2.2,4,3.9,6.4,5C199.1,105.7,199.6,105.4,199.3,105.3L199.3,105.3z"/>
	</g>
	<path class="st10" d="M197.1,102c0,0-5-2.6-3.7-5.9c0,0-0.1-0.6-0.4-1.9c-0.4-1.5,3.8,0.7,3.8,2.4S198.4,96.7,197.1,102z"/>
</g>
</svg>
