<?xml version="1.0" encoding="utf-8"?>
<!-- Generator: Adobe Illustrator 27.0.1, SVG Export Plug-In . SVG Version: 6.00 Build 0)  -->
<svg version="1.1" id="Layer_2_00000057834933379097359970000006688859536083717811_"
	 xmlns="http://www.w3.org/2000/svg" xmlns:xlink="http://www.w3.org/1999/xlink" x="0px" y="0px" viewBox="0 0 890 490"
	 style="enable-background:new 0 0 890 490;" xml:space="preserve">
<style type="text/css">
	.st0{fill:#83430C;stroke:#000000;stroke-miterlimit:10;}
	.st1{fill:#5D3009;}
	.st2{opacity:0.74;fill:#381D06;enable-background:new    ;}
	.st3{fill:#12A57C;stroke:#000000;stroke-width:0.5;stroke-miterlimit:10;}
	.st4{fill:#12A57C;}
	.st5{fill:#0E8160;}
	.st6{fill:#AE870A;stroke:#000000;stroke-width:0.3;stroke-miterlimit:10;}
	.st7{fill:#745A07;}
	.st8{fill:#EB9447;stroke:#000000;stroke-width:0.5;stroke-miterlimit:10;}
	.st9{fill:#EB9447;}
	.st10{fill:#CA6A16;}
	.st11{opacity:0.79;}
</style>
<g>
	<path class="st0" d="M597.8,269.5c1.8,0,3.3,1.1,3.9,2.7c1.7,4.8,5,14.8,4.4,19.2c0,0-3.3,18.5-2.1,27.7c0,0.2,0,0.4,0,0.6
		c-0.2,2.8-1.8,23.3,0.5,35.3c0,0.2,0.1,0.4,0.1,0.5c0.6,1.8,4.4,14.6,3.1,38.6c0,0.1,0,0.1,0,0.2c0,1.6,0.6,32.5,4.1,47.5
		c0.8,3.7-1.5,7.2-5.2,7.8c-5.4,0.8-13.1,1.8-20.6,2.2c-2.5,0.1-4.5-1.9-4.3-4.4c1.2-13.7,4.6-54.2,3.3-65
		c-1.5-12.5,0.7-49.1,0.9-52c0-0.1,0-0.2,0-0.4l-1.4-44.7l-0.8-11.2c-0.2-2.4,1.7-4.4,4-4.4L597.8,269.5z"/>
	<path class="st1" d="M597,280.5c1.2,0,2.3,1,2.7,2.5c1.2,4.5,3.5,13.7,3.1,17.8c0,0-2.2,17.1-1.4,25.6c0,0.2,0,0.4,0,0.6
		c-0.1,2.6-1.2,21.6,0.5,32.7c0,0.2,0,0.3,0.1,0.5c0.4,1.7,3.1,13.5,2.3,35.7c0,0.1,0,0.1,0,0.2c0,1.5,0.5,30,3,44
		c0.6,3.4-1,6.7-3.6,7.2c-3.8,0.7-9.1,1.6-14.3,1.9c-1.7,0.1-3.2-1.8-3-4.1c0.8-12.7,3-50.2,2-60.2c-1.1-11.6,0.3-45.4,0.5-48.1
		c0-0.1,0-0.2,0-0.4l-1.1-41.4l-0.6-10.4c-0.1-2.2,1.1-4,2.8-4L597,280.5L597,280.5z"/>
	<path class="st2" d="M586.1,311.9l17.9-17.2c0,0-0.5,13.5-3,20.2c-2.4,6.4-5.2,7.8-9.8,8.3c-1.8,0.2-3.6-1-4.3-3
		C586.1,318,585.4,315,586.1,311.9z"/>
	<path class="st3" d="M596.4,301.9c-2.7,7.9-15.7,38.5-50.7,22.8c0,0-51.9,32.3-74.8-45.3c0,0-7.8-5.8-1.4-17.3
		c0.6-1.1,0.2-2.4-1-2.9c-7.2-3.4-29.3-17.2-19.5-58.5c0,0,10.7-30.5,53.5-31.3c2.1,0,3.2-2.3,1.9-3.7c-7.2-7.9-20.4-27.1-2.5-46.4
		c0,0,3.6-9.7,12.3-14.7c2.5-1.5,3.5-4.5,2.5-7.1c-2.1-5.1-4.2-13.3-1.1-21c0,0-3.2-30.9,39.4-58.7c0,0,23.3-15.6,53.3,1
		c0,0,18.3-4.1,26.6,15c0,0,25.8,8.2,17.5,43.6c0,0,7.4,19.6-15.6,30.1c-0.1,0.1-0.1,0.2,0,0.2c3.9,0.1,34.5,1.7,36.9,24.9
		c0.1,1.1,0.8,2.1,1.8,2.5c5.9,2.4,24.9,11.5,20.4,30.8c-0.2,0.9,0.3,1.8,1.3,2c6.2,1.1,26.4,6,29,21.8c0.1,0.4,0.4,0.6,0.8,0.6
		c4.5-0.3,29.3-0.5,12.9,37.3c0,0-8.8,24.7-32.5,40.1c-0.9,0.6-1.3,1.6-0.9,2.5c1.2,2.6,2.4,8.8-4.3,18.7
		c-9.2,13.5-30.5,21.6-50.8,13.7c0,0-19,18.5-32.2,9.6c0,0-12.8,0-21.2-10.5C597.6,301.1,596.6,301.1,596.4,301.9L596.4,301.9z"/>
	<g>
		<g>
			<path class="st4" d="M549.3,323.2c0,0,10.8,7.9,7.1,15.4c0,0,0,1.5,0.5,4.7c0.6,3.7-8.5-2.8-8.1-7S545.1,335.6,549.3,323.2
				L549.3,323.2z"/>
			<path d="M549.1,323.3c2.3,1.7,4.4,3.9,5.9,6.3c1.2,1.9,2.1,4.2,1.8,6.5c-0.1,0.5-0.2,1-0.3,1.5c-0.1,0.4-0.4,0.7-0.4,1.1
				c-0.1,0.6,0.1,1.4,0.2,2s0.2,1.3,0.3,1.9c0,0.3,0.3,1,0.1,1.4c-0.3,0.5-1.3,0-1.6-0.2c-1.7-0.8-3.1-2.2-4.3-3.7
				c-0.6-0.7-1.1-1.5-1.4-2.4c-0.2-0.7-0.2-1.4-0.2-2.2s-0.2-1.3-0.7-1.9c-0.6-0.8-0.8-1.6-0.8-2.6c0.1-2.7,1.1-5.4,1.9-7.9
				c0.1-0.2-0.5-0.1-0.6,0.1c-0.8,2.5-1.8,5.1-1.9,7.8c0,1,0.1,1.8,0.6,2.6c0.5,0.7,0.8,1.2,0.8,2.1c0,0.8-0.1,1.5,0.2,2.3
				c0.3,0.9,0.8,1.7,1.4,2.4c1.2,1.5,2.8,2.9,4.5,3.7c0.7,0.3,2.2,0.8,2.5-0.3c0.1-0.3,0-0.6,0-0.9c-0.1-0.9-0.3-1.7-0.4-2.6
				c-0.1-0.7-0.2-1.5,0-2.2c0.8-2.2,0.8-4.4-0.1-6.6c-1.4-3.4-4.2-6.4-7.2-8.6C549.4,322.9,548.9,323.1,549.1,323.3L549.1,323.3z"/>
		</g>
		<path class="st5" d="M551.3,328.6c0,0,5.7,4.6,3.4,8.4c0,0,0,0.8,0.2,2.5c0.2,2-4.5-1.8-4.2-4S548.6,335.1,551.3,328.6
			L551.3,328.6z"/>
		<g>
			<path class="st4" d="M547.6,322.9c0.8-0.2,1.6,0.6,1.5,1.5c-0.5,3.7-2.5,11.7-8.8,11.9c0,0-3.2,0.5-6.1,1.7c-1.2,0.5,2.4-8,4-9.5
				C541,325.7,537,324.9,547.6,322.9L547.6,322.9z"/>
			<path d="M547.5,323.1c2.1-0.2,0.8,3.6,0.5,4.6c-0.5,1.7-1.1,3.4-2.1,4.9s-2.4,2.9-4.2,3.3c-0.7,0.2-1.3,0.2-2,0.3
				c-1,0.2-2,0.4-2.9,0.7c-0.6,0.2-1.1,0.3-1.7,0.5c-0.3,0.1-0.8,0.2-1,0.4c-0.3,0.3,0.2-0.1,0.2,0c0,0,0,0,0-0.1s0-0.4,0-0.5
				c0-0.3,0.1-0.5,0.2-0.8c0.5-1.5,1.1-3,1.8-4.4c0.6-1.2,1.2-2.6,2.2-3.6c0.6-0.6,1-1.2,1.3-2c0.3-0.7,0.5-1.2,1.3-1.6
				C542.9,323.8,545.4,323.5,547.5,323.1c0.3-0.1,0.6-0.5,0.1-0.4c-2.2,0.4-4.5,0.8-6.6,1.7c-0.8,0.4-1.5,0.8-1.8,1.6
				s-0.6,1.5-1.2,2.1c-1,1.1-1.7,2.4-2.4,3.7c-0.8,1.6-1.5,3.3-2,5c-0.1,0.3-0.3,0.9-0.1,1.1c0.3,0.5,1.6-0.3,1.9-0.4
				c1.3-0.4,2.6-0.8,4-1c0.7-0.1,1.4-0.1,2.1-0.3c1.9-0.4,3.4-1.6,4.6-3.1c1.3-1.7,2.1-3.8,2.7-5.9c0.2-0.9,0.4-1.8,0.6-2.8
				c0.2-1.2-0.6-2-1.8-1.8C547.3,322.7,547,323.1,547.5,323.1L547.5,323.1z"/>
		</g>
		<path class="st5" d="M538.2,334.3c0,0,7-0.6,7.1-5.1c0,0,0.4-0.7,1.4-2c1.2-1.5-4.7-1.1-5.5,1
			C540.2,330.2,539.1,327.3,538.2,334.3L538.2,334.3z"/>
	</g>
	<path class="st5" d="M597.2,301.3c-2.3,6.9-13.2,33.6-42.7,19.9c0,0-43.6,28.2-63-39.5c0,0-6.6-5.1-1.1-15.1c0.5-1,0.2-2.1-0.8-2.5
		c-6.1-2.9-24.6-15-16.4-51.1c0,0,9-26.6,45-27.4c1.8,0,2.7-2,1.6-3.2c-6-6.9-17.2-23.6-2.1-40.5c0,0,3.1-8.5,10.4-12.8
		c2.1-1.3,3-3.9,2.1-6.2c-1.7-4.4-3.6-11.6-0.9-18.4c0,0-2.7-27,33.2-51.3c0,0,19.7-13.6,44.9,0.9c0,0,15.4-3.6,22.4,13.1
		c0,0,18.5,18.6,11.9,36.3c-4,12.6-15.7,10.6-10,21.2c0,0.1,10.5,2.5,10.6,2.6c7.5,2.4,18.1,6,20.1,26.2c0.1,0.9,0.7,1.8,1.6,2.2
		c5,2.1,21,10.1,17.2,26.9c-0.2,0.8,0.3,1.6,1.1,1.7c5.2,1,22.2,5.3,24.5,19c0,0.3,0.3,0.6,0.7,0.5c3.8-0.3,24.6-0.4,10.8,32.6
		c0,0-7.4,21.6-27.3,35c-0.8,0.5-1.1,1.4-0.8,2.2c1,2.3,2,7.7-3.6,16.3c-7.8,11.8-25.7,18.9-42.7,12c0,0-16,16.2-27.1,8.4
		c0,0-10.7,0-17.8-9.2C598.2,300.6,597.4,300.7,597.2,301.3L597.2,301.3z"/>
	<path d="M541.1,95.6c-0.9,4.3,1.1,9,3.2,12.6c3.1,5.3,7.7,9.7,13.1,12.6c6.4,3.5,13.8,4.5,21,3.3c1-0.2,2-0.4,3-0.6
		c0.2-0.1,0.5-0.1,0.7-0.2c0,0,0.6-0.2,0.3-0.2l0.1,0.1c0.4,0.1,0.9,0.5,1.3,0.7c1.8,1,3.8,1.7,5.8,2.2c2.8,0.6,5.7,0.6,8.4-0.4
		c3.7-1.4,6.3-4.6,7.9-8.1c0.2-0.4-0.7-0.3-0.8,0c-1.5,3.2-3.8,6.2-7.2,7.6c-2.5,1-5.2,0.9-7.8,0.4c-2-0.4-3.8-1.2-5.6-2.1
		c-0.4-0.2-0.8-0.5-1.2-0.7c-0.7-0.3-1.6,0.2-2.4,0.4c-7.3,1.7-14.9,1.1-21.7-2.2c-5.3-2.6-9.9-6.7-13.2-11.6
		c-2.5-3.8-5.1-9.1-4.1-13.8C542.1,95.2,541.2,95.3,541.1,95.6L541.1,95.6L541.1,95.6z"/>
	<path d="M507.6,206.5c1.4-2.2,3.5-4.2,5.6-5.7c2.4-1.6,5.2-2.8,8.1-3c1.7-0.1,3.4,0,5.1,0.4c0.9,0.2,2.2,1,3.1,0.5
		c0.5-0.3,0.9-0.8,1.3-1.1c1.2-1,2.5-1.8,3.8-2.7c4.2-2.6,8.8-4.8,13.7-5.8c6-1.3,12.2-0.6,17.7,2.2c1.5,0.8,2.9,1.7,4.3,2.8
		c0.7,0.6,1.4,1.2,2.1,1.8c0.5,0.4,1,1.2,1.5,1.5c0.6,0.3,1.5,0.3,2.2,0.5c3.7,1.1,7.2,3.1,9.3,6.5c1.3,2.2,1.9,4.7,1.8,7.2
		c0,0.6-0.1,0.9,0.1,1.4c0.2,0.4,0.5,0.9,0.7,1.3c4.7,9.4,7.5,21.3,3,31.3c-0.7,1.6-1.6,3-2.6,4.5c0,0,0.7,0,0.8-0.2
		c6.3-8.6,5.7-19.8,2.3-29.5c-0.9-2.6-2.2-5.1-3.4-7.6c-0.2-0.4-0.1-0.2-0.2-0.7c-0.1-1.2,0.1-2.4-0.1-3.6c-0.3-2-1.1-3.9-2.3-5.4
		c-1.9-2.5-4.7-4.1-7.7-5.1c-0.9-0.3-1.8-0.6-2.7-0.7c-0.2,0-0.4,0-0.5-0.1c-0.4-0.2-0.8-0.9-1.2-1.2c-0.7-0.6-1.4-1.3-2.1-1.8
		c-4.1-3.3-9-5.4-14.2-5.8c-4.3-0.4-8.7,0.3-12.8,1.6c-5.6,1.8-11.3,4.9-15.7,8.8l0.8-0.2c-5.6-1.8-11.5-1.2-16.4,1.9
		c-2.5,1.6-4.8,3.7-6.4,6.2C506.7,206.7,507.4,206.7,507.6,206.5L507.6,206.5L507.6,206.5z"/>
	<path d="M595.8,244.6c6.7,0,12.5,3.2,15.1,9.5c0.4,1,0.5,2,1,3c0.2,0.5,0.6,0.9,0.8,1.4c0.5,1,1,2.1,1.3,3.3c0.4,1.5,0.5,3,0,4.5
		c-0.7,2.2-2.6,3.5-4.7,4.3c-0.1,0-0.3,0.1-0.3,0.3c0.6,6-0.5,14.5-6.1,18c-2.8,1.8-6.3,1.7-9.5,1c-0.3-0.1-1,0.4-0.5,0.5
		c5.3,1.1,10.8,0.2,13.9-4.5c2.3-3.5,3-8,3.1-12.1c0-1,0-2.1-0.1-3.1l-0.3,0.3c3.2-1.2,5.6-3.5,5.5-7c0-2.4-1-4.7-2.3-6.7
		c-0.4-0.7-0.6-1.8-0.9-2.7c-0.9-2.4-2.4-4.6-4.3-6.3c-3.2-2.9-7.4-4-11.6-4C595.8,244.1,595.2,244.6,595.8,244.6L595.8,244.6
		L595.8,244.6z"/>
	<path d="M579.3,45.7c0.5-1.9,2.3-3.3,4.2-3.5c1-0.1,2,0,3,0.2c0.6,0.1,1.1,0.3,1.7,0.6s1.4,0.9,2,0.9s1.5-0.6,2-0.8
		c3.8-1.4,8.3-2,11.9,0.1c1,0.6,1.8,1.5,2.7,2.1c1.1,0.8,2,1.6,2.9,2.6c1.3,1.5,2.4,3.2,2.9,5.2c0.6,2.6-0.2,5.1-1.6,7.3
		c-0.2,0.4,0.6,0.4,0.8,0.1c1.7-2.7,2.4-5.8,1.2-8.8c-0.8-2.3-2.5-4.2-4.3-5.8c-0.6-0.5-1.2-0.9-1.8-1.4c-0.8-0.6-1.5-1.4-2.4-1.9
		c-2.7-1.6-5.8-1.7-8.8-1.2c-2,0.3-4,0.9-5.7,1.8h0.5c-2.9-1.5-6.7-2.8-9.7-0.9c-1.2,0.7-2.2,1.9-2.6,3.3
		C578.3,46.1,579.2,46,579.3,45.7L579.3,45.7L579.3,45.7z"/>
	<path d="M661,202.9c1.5-1.5,3.2-2.9,5.1-3.8c4-2,8-1.6,11.1,1.8c0.1,0.1,0.4,0.1,0.6,0c2.1-1,4.5-1.6,6.9-1.7
		c5.3-0.4,10.1,2,13.3,6.2c1.2,1.5,2.1,3.2,2.9,5c0.5,1.1,0.8,2.3,1.3,3.4c0.5,0.9,1,1.7,1.4,2.6c1.9,4.2,2.9,8.9,2.6,13.6
		c-0.7,9.1-6.3,16.4-13.4,21.8c-0.5,0.4,0.2,0.6,0.6,0.3c6.5-4.9,11.9-11.4,13.4-19.6c0.9-5.1,0.2-10.5-1.8-15.3
		c-0.5-1.2-1.1-2.4-1.7-3.5c-0.3-0.6-0.5-1.3-0.8-2c-0.7-1.8-1.6-3.6-2.7-5.3c-3-4.6-7.7-7.6-13.3-7.8c-3-0.1-6.3,0.5-9,1.9h0.6
		c-3-3.4-7.2-4.1-11.3-2.3c-2.4,1-4.6,2.6-6.4,4.5C659.9,203.1,660.7,203.2,661,202.9L661,202.9L661,202.9z"/>
	<path d="M511.4,302c1.9,6.5,7.7,12,14.1,13.9c3.5,1,7.1,1.1,10.6,0.6l-0.4-0.1c0.8,1.3,2.5,2,3.9,2.3c4.7,1.2,9.8-0.4,14.1-2.1
		c0.6-0.2,0-0.4-0.3-0.2c-4.1,1.7-9.2,3.3-13.6,1.9c-1.1-0.4-2.6-1-3.2-2c-0.1-0.1-0.2-0.1-0.4-0.1c-5.9,0.7-12-0.3-16.8-4.1
		c-2.8-2.2-5-5.1-6.5-8.4c-0.3-0.6-0.6-1.3-0.8-2C512.2,301.6,511.3,301.8,511.4,302L511.4,302L511.4,302z"/>
	<g>
		<path class="st4" d="M626.7,33.2c0,0-7.1-10.8-0.8-16.2c0,0,0.6-1.3,1.3-4.4c0.8-3.5,6.9,5.5,4.9,9.2S635.3,23.7,626.7,33.2
			L626.7,33.2z"/>
		<path d="M626.9,33.1c-1.5-2.3-2.6-5-3.1-7.7c-0.4-2.1-0.4-4.4,0.7-6.3c0.2-0.5,0.6-0.9,0.9-1.3c0.2-0.3,0.6-0.5,0.8-0.8
			c0.3-0.5,0.4-1.2,0.6-1.7c0.2-0.6,0.4-1.3,0.5-1.9c0.1-0.3,0.1-1.2,0.5-1.3c0.5-0.2,1.2,0.7,1.4,0.9c1.2,1.3,2.1,3.1,2.6,4.8
			c0.3,0.9,0.5,1.8,0.4,2.7c-0.1,0.7-0.4,1.3-0.6,1.9s-0.3,1.2-0.1,1.9c0.2,0.9,0.2,1.6-0.2,2.5c-1,2.4-3,4.5-4.8,6.4
			c-0.2,0.3,0.3,0.3,0.5,0.1c1.7-1.9,3.5-3.8,4.7-6.1c0.4-0.8,0.7-1.7,0.5-2.6c-0.2-0.8-0.3-1.4,0-2.2c0.3-0.7,0.6-1.3,0.7-2.1
			c0-0.9-0.1-1.8-0.4-2.7c-0.3-1.1-3.3-7.8-5.2-5.5c-0.2,0.2-0.2,0.4-0.3,0.6c-0.2,0.8-0.4,1.7-0.7,2.6c-0.2,0.6-0.3,1.4-0.8,1.9
			c-0.7,0.8-1.4,1.5-1.8,2.6s-0.6,2.2-0.6,3.3c0,3.6,1.5,7.3,3.4,10.3C626.5,33.5,627.1,33.3,626.9,33.1L626.9,33.1z"/>
	</g>
	<path class="st5" d="M626.9,27.7c0,0-3.5-6.1,0-8.7c0,0,0.3-0.7,0.8-2.3c0.5-1.8,3.5,3.2,2.4,5.1S631.7,22.9,626.9,27.7L626.9,27.7
		z"/>
	<g>
		<g>
			<path class="st4" d="M628.2,34.1c-0.8-0.2-1.3-1.1-0.8-1.8c1.9-3.1,6.7-9.5,12.7-7.4c0,0,3.2,0.7,6.3,0.7c1.3,0-5.2,6.3-7.3,7
				C635.3,34,638.7,36.1,628.2,34.1L628.2,34.1z"/>
			<path d="M628.5,33.9c-2.2-0.6,0.3-3.4,1-4.3c1.2-1.5,2.7-3,4.4-4c0.9-0.5,1.8-0.8,2.8-1c1.1-0.1,2,0.1,3,0.4
				c1.8,0.4,3.8,0.7,5.6,0.7c0.7,0,0.8-0.1,0.5,0.5c-0.3,0.5-0.8,1-1.2,1.4c-1,1.1-2.2,2.2-3.4,3.1c-1,0.8-1.9,1.4-3,1.9
				c-0.6,0.3-1.1,0.7-1.6,1.2c-0.5,0.6-1,0.8-1.8,0.8C632.8,34.9,630.5,34.3,628.5,33.9c-0.3-0.1-0.9,0.3-0.5,0.3
				c2.1,0.4,4.3,0.9,6.5,0.8c0.8,0,1.7-0.2,2.4-0.7c0.6-0.5,1-1,1.6-1.4c0.5-0.3,1-0.4,1.5-0.7c0.7-0.4,1.3-0.9,1.9-1.4
				c1.3-1.1,2.7-2.3,3.8-3.6c0.3-0.3,1.6-1.5,0.9-1.9c-0.3-0.2-1.2,0-1.6-0.1c-0.8-0.1-1.7-0.1-2.5-0.3s-1.7-0.2-2.5-0.5
				c-2-0.6-4-0.4-5.9,0.5c-2.1,1-3.8,2.7-5.3,4.5c-0.8,1-3.5,3.9-1,4.7C628.1,34.3,628.8,34,628.5,33.9L628.5,33.9z"/>
		</g>
		<path class="st5" d="M641.2,27.4c0,0-6.8-2-8.5,2c0,0-0.6,0.5-2,1.3c-1.7,0.9,4,2.7,5.5,1.1S637.7,33.2,641.2,27.4L641.2,27.4z"/>
	</g>
	<g>
		<g>
			<path class="st4" d="M528.9,384.4c0.9,0,1.5,0.8,1.2,1.6c-1.2,3.4-4.6,10.6-10.9,9.8c0,0-3.3-0.1-6.3,0.6
				c-1.3,0.3,3.9-7.2,5.7-8.3C521.9,386,518.1,384.5,528.9,384.4L528.9,384.4z"/>
			<path d="M528.6,384.6c2.2,0.2,0.3,3.4-0.2,4.4c-0.8,1.6-1.9,3.2-3.2,4.5c-1.5,1.4-3.4,2.4-5.5,2.2c-1.6-0.1-3.3,0-4.9,0.2
				c-0.3,0-1.8,0.5-2,0.3c0.1,0.1,0.1-0.2,0.1-0.3c0.2-0.5,0.4-1,0.7-1.4c0.8-1.4,1.7-2.6,2.7-3.9c0.8-1,1.6-2,2.7-2.7
				c0.6-0.4,1.1-1,1.5-1.6c0.4-0.6,0.8-1,1.5-1.2C524.2,384.5,526.6,384.6,528.6,384.6c0.3,0,0.9-0.4,0.4-0.4c-2.2,0-4.5,0-6.6,0.5
				c-0.8,0.2-1.6,0.5-2.1,1.2c-0.5,0.6-0.8,1.2-1.4,1.8c-1.1,0.9-2,1.7-3,2.9c-1.1,1.4-2.2,2.9-3,4.5c-0.3,0.6-1,1.8,0.1,1.6
				c2.3-0.3,4.4-0.6,6.7-0.5c2,0.1,3.9-0.6,5.4-1.9c1.7-1.4,3-3.2,4-5.2c0.6-1.2,2.7-4.6,0-4.8C528.9,384.2,528.3,384.6,528.6,384.6
				L528.6,384.6z"/>
		</g>
		<path class="st5" d="M517.5,393.6c0,0,7,0.6,7.9-3.7c0,0,0.5-0.6,1.7-1.7c1.5-1.3-4.4-1.8-5.6,0
			C520.3,390.1,519.8,387.1,517.5,393.6L517.5,393.6z"/>
	</g>
	<g>
		<g>
			<path class="st4" d="M727.5,193.7c0,0-6-6.9-2.1-11.2c0,0,0.3-1,0.5-3.2c0.2-2.5,5.3,3.2,4.3,5.9S732.6,186.2,727.5,193.7
				L727.5,193.7z"/>
			<path d="M727.8,193.6c-1.2-1.5-2.3-3.2-2.9-5c-0.5-1.4-0.7-2.9-0.2-4.4c0.1-0.4,0.3-0.7,0.5-1c0.2-0.2,0.4-0.4,0.5-0.7
				c0.2-0.4,0.2-0.9,0.2-1.3c0.1-0.5,0.1-1,0.2-1.6c0-0.1,0-0.6,0.2-0.7c0.2-0.1,0.8,0.4,1,0.6c1,0.8,1.7,2,2.2,3.1
				c0.2,0.5,0.4,1.1,0.5,1.7c0,0.5-0.1,0.9-0.3,1.4s-0.1,0.9,0.1,1.4c0.2,0.6,0.3,1.1,0.1,1.7c-0.5,1.8-1.7,3.4-2.7,4.9
				c-0.2,0.2,0.4,0.2,0.5,0c1-1.5,2.1-3,2.7-4.7c0.2-0.6,0.3-1.2,0-1.9c-0.2-0.5-0.3-0.9-0.2-1.5c0.1-0.5,0.3-0.9,0.3-1.4
				c0-0.7-0.3-1.4-0.6-2c-0.5-1.2-1.3-2.3-2.4-3.1c-0.5-0.4-1.4-0.9-1.9-0.2c-0.1,0.1-0.1,0.3-0.2,0.5c-0.1,0.6-0.1,1.2-0.2,1.8
				c-0.1,0.4-0.1,1-0.3,1.4c-0.4,0.7-0.9,1.2-1.1,2c-0.2,0.7-0.2,1.5-0.1,2.2c0.3,2.5,1.7,5.1,3.4,7
				C727.4,193.9,727.9,193.7,727.8,193.6L727.8,193.6z"/>
		</g>
		<path class="st5" d="M727.2,189.8c0,0-3-3.9-0.8-6.1c0,0,0.2-0.5,0.3-1.7c0.2-1.3,2.8,1.9,2.1,3.3S730.1,186,727.2,189.8
			L727.2,189.8z"/>
		<g>
			<path class="st4" d="M727.9,193.7c-0.6,0.1-1.1-0.5-1-1c0.6-2.5,2.3-7.8,6.8-7.8c0,0,2.3-0.2,4.3-1c0.9-0.3-2.1,5.4-3.2,6.3
				C732.6,191.9,735.3,192.6,727.9,193.7L727.9,193.7z"/>
			<path d="M728,193.5c-1.4,0.1-0.4-2.4-0.1-3.1c0.4-1.2,1-2.3,1.8-3.3s1.9-1.9,3.2-2c1.2-0.2,2.3-0.2,3.4-0.5
				c0.5-0.1,0.9-0.2,1.4-0.4c0.1,0,0.2,0,0.2-0.1c0.1-0.1-0.2,0.1-0.1,0v0.1c0,0.1,0,0.3-0.1,0.4c0,0.2-0.1,0.4-0.2,0.5
				c-0.4,1.1-1,2.1-1.6,3.1c-0.5,0.8-1,1.6-1.6,2.2c-0.4,0.4-0.7,0.8-1,1.3c-0.2,0.5-0.5,0.8-0.9,1
				C731.1,193.2,729.4,193.3,728,193.5c-0.4,0.1-0.7,0.4-0.2,0.4c1.6-0.2,3.2-0.4,4.7-1c0.6-0.2,1.1-0.5,1.4-1.1
				c0.3-0.5,0.5-1,0.9-1.4c0.8-0.7,1.3-1.5,1.8-2.4c0.6-1.1,1.3-2.2,1.7-3.4c0.1-0.2,0.3-0.6,0.2-0.9c-0.2-0.4-0.9,0-1.1,0.1
				c-1,0.3-2,0.5-3,0.6c-0.5,0.1-1,0.1-1.5,0.1c-1.3,0.2-2.5,0.9-3.5,1.9c-1.1,1.1-1.8,2.6-2.3,4c-0.2,0.6-0.4,1.2-0.5,1.8
				c-0.2,0.8,0.2,1.5,1.1,1.4c0.1,0,0.4,0,0.5-0.2S728.2,193.5,728,193.5L728,193.5z"/>
		</g>
		<path class="st5" d="M735,186.2c0,0-5,0.2-5.2,3.3c0,0-0.3,0.5-1.1,1.3c-0.9,1,3.2,0.9,3.9-0.5S734,190.9,735,186.2z"/>
	</g>
	<g>
		<g>
			<path class="st4" d="M649.5,329.5c-0.3-0.8,0.3-1.7,1.2-1.7c3.6,0,11.6,0.9,12.8,7.1c0,0,1,3.1,2.6,5.8c0.7,1.1-8.1-1.3-9.8-2.6
				C653.3,335.5,653.1,339.5,649.5,329.5L649.5,329.5z"/>
			<path d="M649.8,329.4c-0.2-0.7,0.1-1.3,0.9-1.4c0.3,0,0.7,0,1,0c0.8,0,1.5,0.1,2.3,0.2c1.7,0.3,3.4,0.7,5,1.5
				c1.6,0.9,3,2.1,3.8,3.9c0.2,0.6,0.3,1.2,0.5,1.7c0.3,0.9,0.7,1.8,1.1,2.7c0.2,0.5,0.5,1.1,0.8,1.6c0.2,0.3,0.3,0.6,0.5,0.9
				c-0.1-0.1,0.2,0.4,0.2,0.2c0-0.1,0.1,0-0.1,0c-0.1,0-0.2,0-0.3,0c-0.3,0-0.6-0.1-0.9-0.1c-1.6-0.3-3.2-0.8-4.7-1.3
				c-1.2-0.4-2.4-0.9-3.5-1.7c-0.6-0.4-1.3-0.7-2-0.9c-0.8-0.2-1.3-0.5-1.8-1.2C651.3,333.8,650.6,331.4,649.8,329.4
				c-0.1-0.2-0.8,0-0.7,0.2c0.8,2.1,1.5,4.3,2.7,6.1c0.5,0.7,1,1.2,1.9,1.4c0.9,0.2,1.6,0.6,2.4,1.1c1.3,0.9,3,1.4,4.5,1.9
				s3.1,1,4.7,1.1c0.3,0,0.9,0,1.1-0.2c0.1-0.1,0.1-0.1,0.1-0.3c0-0.2-0.3-0.5-0.4-0.7c-0.2-0.4-0.4-0.8-0.6-1.1
				c-0.5-1.1-1-2.2-1.4-3.4c-0.2-0.7-0.4-1.4-0.7-2.1c-0.8-1.8-2.3-3.1-4-3.9c-1.9-1-4.1-1.4-6.2-1.6c-1.3-0.1-4.7-0.6-4,1.8
				C649.2,329.8,649.9,329.6,649.8,329.4L649.8,329.4z"/>
		</g>
		<path class="st5" d="M661.9,337.2c0,0-1.7-6.8-6.1-6.2c0,0-0.7-0.3-2.2-1.1c-1.7-1-0.3,4.8,1.9,5.3S655.1,337.2,661.9,337.2z"/>
	</g>
	<path class="st6" d="M403.6,463.1c-0.8,0-1-1.2-0.2-1.4c7.6-2.4,28.2-6.9,74.4-5.2c0,0,28.6,2.1,52.5-4c23.8-6.1,23.6-5.1,45.7-5.2
		s30.3-6.8,50.1-0.7s89,3.7,95.4,4c31.2,1.8,37.9,8,42.9,7.5c13.5-1.3,24,3.5,27.3,5.3c0.3,0.2,0.2,0.6-0.2,0.6
		C768.9,464.1,459.4,463,403.6,463.1L403.6,463.1z"/>
	<path class="st7" d="M415.4,462.1c-0.6,0,4.2-1.5,4.8-1.6c5.3-1.7,53.3,0.4,93.4-2.4c0,0,20.1-0.4,36.8-4.6s16.5-3.5,32-3.6
		c15.4,0,21.2-4.7,35.1-0.5c13.9,4.2,62.3,2.6,66.8,2.8c21.8,1.3,26.5,5.6,30,5.3c9.5-0.9,60,3.1,63.4,3.7c0.1,0-6.6,1.6-19.3,0.9
		c-6.1-0.3-23.1-0.5-23.1-0.5C719.4,461.6,454.4,462.1,415.4,462.1L415.4,462.1z"/>
	<g>
		<g>
			<path class="st4" d="M549.8,446.7c0.7,0.1,1.2,0.7,0.8,1.2c-1.3,2.2-4.7,6.7-9.8,5.5c0,0-2.7-0.4-5.2-0.2
				c-1.1,0.1,3.8-4.5,5.4-5.1C543.9,447,541,445.7,549.8,446.7L549.8,446.7z"/>
			<path d="M549.5,446.8c1.2,0.2,0.7,1.1,0.3,1.8c-0.3,0.5-0.7,1-1.1,1.4c-0.9,1.1-2,2.1-3.3,2.7c-1.5,0.8-2.9,0.7-4.5,0.5
				c-1.5-0.2-3.1-0.3-4.6-0.2c-0.5,0-0.6,0.1-0.3-0.3c0.2-0.4,0.6-0.7,0.9-1c0.9-0.9,1.8-1.7,2.8-2.5s2.2-1.2,3.2-2.1
				c0.4-0.4,0.8-0.5,1.3-0.5C546,446.4,547.8,446.6,549.5,446.8c0.2,0,0.9-0.3,0.5-0.4c-1.8-0.2-3.5-0.4-5.3-0.3
				c-0.7,0-1.4,0.1-2,0.5c-0.4,0.3-0.7,0.7-1,0.9c-0.3,0.2-0.8,0.3-1.1,0.5c-0.5,0.3-1,0.6-1.4,1c-1.1,0.8-2.2,1.8-3.1,2.8
				c-0.2,0.3-1.3,1.3-0.5,1.4c0.4,0.1,1,0,1.4,0c0.7,0,1.3,0,1.9,0.1c0.6,0,1.2,0.1,1.8,0.2c1.7,0.3,3.3,0.2,5-0.5s2.9-1.9,4-3.3
				c0.5-0.6,0.9-1.2,1.3-1.8c0.4-0.8-0.1-1.3-0.9-1.5C549.8,446.4,549.2,446.8,549.5,446.8L549.5,446.8z"/>
		</g>
		<path class="st5" d="M539.7,451.7c0,0,5.7,1.1,6.8-1.7c0,0,0.5-0.4,1.6-1c1.3-0.7-3.5-1.7-4.6-0.5S542.1,447.6,539.7,451.7
			L539.7,451.7z"/>
	</g>
	<g>
		<g>
			<path class="st4" d="M462.9,449.9c0,0,8.9-2.1,10.9,3.4c0,0,0.8,0.7,2.6,1.9c2.1,1.4-5.3,3.2-7.2,1S467.1,457.9,462.9,449.9
				L462.9,449.9z"/>
			<path d="M462.9,450c1.6-0.4,3.4-0.5,5.1-0.3c1.4,0.2,2.8,0.5,3.9,1.4c0.5,0.4,1,1,1.3,1.6c0.2,0.5,0.3,0.7,0.7,1
				c0.6,0.5,1.3,1,2,1.5c0.3,0.2,0.7,0.5,0.4,0.9c-0.3,0.4-0.9,0.5-1.4,0.7c-0.6,0.2-1.3,0.3-2,0.3c-1.3,0.1-2.7,0-3.6-1
				c-0.4-0.4-0.8-0.7-1.4-0.8c-0.6-0.1-1.1-0.2-1.6-0.6c-1.4-1.2-2.3-3.2-3.1-4.8c-0.1-0.2-0.7,0-0.6,0.2c0.9,1.6,1.7,3.4,3,4.7
				c0.5,0.5,1,0.8,1.7,0.8s1,0.3,1.5,0.8c0.9,1,2.4,1.1,3.6,1.1s2.7-0.2,3.8-0.9c0.3-0.2,0.7-0.4,0.7-0.8c0.1-0.5-0.5-0.8-0.9-1
				c-0.7-0.4-1.5-0.9-2-1.5c-0.4-0.4-0.5-1-0.9-1.5c-0.9-1.1-2.2-1.8-3.6-2.1c-2.2-0.5-4.6-0.4-6.8,0.1
				C462.5,449.8,462.6,450.1,462.9,450L462.9,450z"/>
		</g>
		<path class="st5" d="M466.1,451.2c0,0,4.9-0.8,5.8,2.1c0,0,0.4,0.4,1.3,1.1c1.1,0.8-3,1.6-3.9,0.3S468.1,455.6,466.1,451.2
			L466.1,451.2z"/>
	</g>
	<g>
		<path class="st4" d="M519,457.8c-0.6,0.1-1.1-0.4-1-1c0.5-2.5,2.2-7.9,6.7-7.9c0,0,2.3-0.3,4.3-1c0.9-0.3-2,5.4-3.2,6.4
			C523.6,456.1,526.4,456.7,519,457.8z"/>
		<path d="M519.1,457.6c-1.4,0.1-0.4-2.4-0.1-3.1c0.4-1.2,1-2.3,1.7-3.3s1.8-1.9,3.1-2.1c0.4-0.1,0.8-0.1,1.3-0.1
			c0.7-0.1,1.5-0.2,2.2-0.4c0.4-0.1,0.9-0.2,1.3-0.4c0.1,0,0.2,0,0.3-0.1c0.2-0.2-0.1,0.1-0.1-0.1v0.1c-0.1,0.2-0.2,0.7-0.3,0.9
			c-0.4,1.1-1,2.1-1.5,3c-0.5,0.8-0.9,1.6-1.6,2.2c-0.4,0.4-0.7,0.8-1,1.3c-0.2,0.5-0.4,0.8-0.9,1
			C522.2,457.3,520.5,457.4,519.1,457.6c-0.4,0-0.7,0.4-0.2,0.4c1.5-0.2,3.2-0.4,4.7-1c0.6-0.2,1.1-0.5,1.4-1.1
			c0.3-0.5,0.4-0.9,0.8-1.3c0.8-0.7,1.3-1.5,1.9-2.4c0.6-1,1.2-2.2,1.6-3.3c0.1-0.2,0.3-0.7,0.2-0.9c-0.2-0.4-0.9,0-1.1,0.1
			c-1,0.3-2,0.5-3,0.7c-0.5,0.1-1,0.1-1.5,0.2c-1.4,0.2-2.5,0.9-3.5,1.9c-1,1.1-1.7,2.6-2.2,4c-0.2,0.6-0.4,1.2-0.5,1.9
			c-0.2,0.8,0.3,1.5,1.1,1.4c0.1,0,0.4,0,0.5-0.2S519.3,457.6,519.1,457.6L519.1,457.6z"/>
	</g>
	<path class="st5" d="M526,450.3c0,0-5,0.2-5.2,3.3c0,0-0.3,0.5-1,1.3c-0.9,1,3.3,0.9,3.9-0.5C524.4,453,525,455,526,450.3
		L526,450.3z"/>
	<g>
		<g>
			<path class="st4" d="M679.8,450.1c0,0,6.5-6.5,11-2.9c0,0,1,0.2,3.2,0.2c2.5,0.1-2.8,5.5-5.6,4.7
				C685.7,451.3,687.6,454.7,679.8,450.1L679.8,450.1z"/>
			<path d="M680.1,450.2c1.4-1.3,3-2.5,4.8-3.2c1.4-0.6,3-0.9,4.5-0.3c0.5,0.2,0.9,0.6,1.4,0.8s1.1,0.1,1.6,0.2s1,0,1.5,0.1
				c0.2,0,0.4,0,0.6,0.2c0.2,0.3-0.1,0.8-0.2,1c-0.6,1-1.7,1.9-2.7,2.5c-0.6,0.3-1.2,0.7-1.9,0.7c-0.5,0.1-0.9-0.1-1.4-0.2
				s-1,0-1.4,0.2c-0.6,0.3-1,0.4-1.6,0.2c-1.8-0.4-3.5-1.5-5-2.4c-0.2-0.1-0.7,0.2-0.5,0.3c1.5,0.9,3.2,1.9,5,2.3
				c0.7,0.2,1.3,0.2,2-0.1c0.5-0.2,0.8-0.4,1.4-0.3c0.5,0.1,1,0.2,1.5,0.2c0.7-0.1,1.3-0.3,1.8-0.6c1.2-0.6,2.3-1.5,3.1-2.6
				c0.4-0.5,1-1.5,0.1-1.8c-0.3-0.1-0.7-0.1-1-0.1c-0.5,0-1,0-1.6-0.1s-0.8-0.1-1.3-0.4c-1.3-0.8-2.9-1-4.4-0.6
				c-2.5,0.5-4.9,2.1-6.7,3.9C679.4,450.3,679.9,450.3,680.1,450.2L680.1,450.2z"/>
		</g>
		<path class="st5" d="M683.3,449.5c0,0,3.7-3.3,6-1.3c0,0,0.5,0.1,1.7,0.2c1.3,0.1-1.7,2.9-3.2,2.4S687.3,452.2,683.3,449.5
			L683.3,449.5z"/>
	</g>
</g>
<g>
	<path class="st0" d="M285.1,301.9c1.5,0,2.8,0.9,3.3,2.3c1.4,4,4.1,12.3,3.6,16c0,0-2.7,15.4-1.8,23c0,0.2,0,0.3,0,0.5
		c-0.2,2.3-1.5,19.4,0.4,29.5c0,0.2,0.1,0.3,0.1,0.5c0.5,1.5,3.6,12.1,2.6,32.1c0,0.1,0,0.1,0,0.2c0,1.4,0.5,27.1,3.4,39.6
		c0.7,3-1.3,6-4.4,6.5c-4.5,0.7-10.9,1.5-17.1,1.8c-2.1,0.1-3.8-1.6-3.6-3.7c1-11.4,3.8-45.2,2.7-54.2c-1.3-10.4,0.6-40.9,0.7-43.3
		c0-0.1,0-0.2,0-0.3l-1.1-37.3l-0.7-9.3c-0.1-2,1.4-3.6,3.4-3.7L285.1,301.9L285.1,301.9z"/>
	<path class="st1" d="M284.5,311.1c1,0,1.9,0.8,2.3,2.1c1,3.7,2.9,11.4,2.6,14.8c0,0-1.9,14.2-1.2,21.3c0,0.2,0,0.3,0,0.5
		c-0.1,2.1-1,18,0.4,27.3c0,0.1,0,0.3,0.1,0.4c0.4,1.4,2.6,11.2,1.9,29.8c0,0.1,0,0.1,0,0.1c0,1.2,0.5,25,2.5,36.6
		c0.5,2.8-0.9,5.6-3,6c-3.1,0.6-7.6,1.3-11.9,1.6c-1.4,0.1-2.6-1.5-2.5-3.4c0.7-10.6,2.5-41.8,1.7-50.1c-0.9-9.7,0.3-37.9,0.4-40.1
		c0-0.1,0-0.2,0-0.3l-0.9-34.5l-0.5-8.6c-0.1-1.8,1-3.4,2.3-3.4L284.5,311.1L284.5,311.1z"/>
	<path class="st2" d="M275.4,337.2l14.9-14.3c0,0-0.4,11.3-2.5,16.9c-2,5.4-4.4,6.5-8.2,7c-1.5,0.2-3-0.9-3.6-2.5
		C275.4,342.4,274.9,339.9,275.4,337.2L275.4,337.2z"/>
	<path class="st8" d="M284,328.9c-2.2,6.6-13.1,32.1-42.3,19c0,0-43.2,26.9-62.3-37.7c0,0-6.5-4.8-1.1-14.4c0.5-0.9,0.2-2-0.8-2.4
		c-6-2.8-24.4-14.3-16.2-48.8c0,0,8.9-25.4,44.6-26.1c1.7,0,2.7-1.9,1.6-3.1c-6-6.6-17-22.5-2.1-38.6c0,0,3.1-8.1,10.2-12.3
		c2.1-1.2,2.9-3.7,2.1-5.9c-1.7-4.2-3.5-11.1-0.9-17.5c0,0-2.7-25.8,32.9-48.9c0,0,19.5-13,44.4,0.8c0,0,15.3-3.4,22.1,12.5
		c0,0,21.5,6.9,14.6,36.3c0,0,6.1,16.4-13,25.1c-0.1,0-0.1,0.2,0,0.2c3.2,0.1,28.8,1.5,30.7,20.8c0.1,0.9,0.6,1.7,1.5,2.1
		c5,2,20.8,9.6,17,25.7c-0.2,0.7,0.3,1.5,1.1,1.6c5.1,0.9,22,5,24.2,18.1c0,0.3,0.3,0.5,0.7,0.5c3.8-0.3,24.4-0.4,10.7,31.1
		c0,0-7.3,20.6-27.1,33.4c-0.8,0.5-1.1,1.3-0.8,2.1c1,2.2,2,7.3-3.6,15.6c-7.7,11.3-25.4,18-42.3,11.4c0,0-15.9,15.5-26.8,8
		c0,0-10.6,0-17.6-8.8C285.1,328.2,284.2,328.3,284,328.9L284,328.9z"/>
	<g>
		<g>
			<path class="st9" d="M244.8,346.7c0,0,9,6.5,5.9,12.8c0,0,0,1.3,0.4,3.9c0.5,3.1-7.1-2.3-6.8-5.9S241.2,357.1,244.8,346.7
				L244.8,346.7z"/>
			<path d="M244.5,346.8c1.9,1.4,3.7,3.3,5,5.3c0.9,1.5,1.6,3.2,1.5,5c0,0.5-0.1,1-0.3,1.5c-0.1,0.3-0.3,0.7-0.4,1
				c-0.1,0.5,0.1,1,0.1,1.5c0.1,0.6,0.1,1.1,0.2,1.7c0,0.3,0.3,0.9,0.1,1.3c-0.2,0.5-1,0-1.3-0.2c-1.4-0.7-2.6-1.8-3.5-3
				c-0.5-0.6-0.9-1.3-1.2-2.1c-0.2-0.6-0.1-1.1-0.1-1.7s-0.2-1.1-0.6-1.6c-0.5-0.6-0.7-1.3-0.7-2.1c0-2.2,0.9-4.6,1.6-6.7
				C245.1,346.5,244.5,346.6,244.5,346.8c-0.7,2-1.5,4.2-1.6,6.3c-0.1,0.8,0.1,1.6,0.5,2.2c0.4,0.5,0.6,1,0.7,1.7s-0.1,1.2,0.2,1.9
				c0.2,0.7,0.7,1.4,1.2,2c1,1.3,2.3,2.5,3.8,3.2c0.6,0.3,1.8,0.6,2.1-0.2c0.1-0.2,0-0.4,0-0.6c-0.1-0.7-0.2-1.4-0.3-2.1
				c-0.1-0.5-0.2-1.3-0.1-1.8c0.1-0.5,0.4-0.9,0.5-1.4c0.1-0.4,0.1-0.9,0.1-1.3c0-1-0.2-1.9-0.6-2.8c-1.1-2.9-3.5-5.5-6-7.3
				C244.9,346.5,244.4,346.7,244.5,346.8L244.5,346.8z"/>
		</g>
		<path class="st10" d="M246.4,351.2c0,0,4.7,3.8,2.9,7c0,0,0,0.7,0.1,2.1c0.2,1.7-3.8-1.5-3.5-3.4S244.2,356.6,246.4,351.2
			L246.4,351.2z"/>
		<g>
			<path class="st9" d="M243.3,346.4c0.7-0.1,1.4,0.5,1.2,1.2c-0.4,3-2,9.8-7.4,10c0,0-2.7,0.4-5.1,1.4c-1,0.4,2-6.7,3.3-8
				C237.8,348.8,234.5,348.1,243.3,346.4L243.3,346.4z"/>
			<path d="M243.2,346.6c1.6-0.2,0.6,3,0.4,3.8c-0.4,1.4-0.9,2.9-1.8,4.1s-2,2.4-3.5,2.7c-0.5,0.1-1.1,0.1-1.6,0.2
				c-0.8,0.1-1.6,0.3-2.4,0.6c-0.5,0.1-1,0.3-1.5,0.5c-0.2,0.1-0.6,0.1-0.8,0.3c-0.2,0.2,0.2,0,0.2,0s0-0.3,0-0.4
				c0-0.2,0.1-0.5,0.2-0.7c0.4-1.3,0.9-2.5,1.5-3.7c0.5-1,1-2.1,1.8-2.9c0.5-0.5,0.9-1,1.1-1.7c0.2-0.6,0.4-1,1-1.3
				C239.5,347.2,241.5,347,243.2,346.6c0.3-0.1,0.6-0.5,0.1-0.4c-1.8,0.4-3.8,0.6-5.5,1.4c-0.7,0.3-1.2,0.7-1.5,1.4
				c-0.3,0.6-0.5,1.2-1,1.8c-0.9,0.9-1.4,2-2,3.2c-0.6,1.3-1.3,2.7-1.6,4.1c-0.1,0.2-0.2,0.8-0.1,1c0.3,0.5,1.5-0.2,1.8-0.4
				c1-0.3,2.1-0.6,3.1-0.8c0.6-0.1,1.2-0.1,1.8-0.3c1.6-0.4,2.9-1.3,3.8-2.6c1.1-1.5,1.8-3.2,2.2-5c0.2-0.8,0.4-1.5,0.5-2.3
				c0.1-1-0.5-1.7-1.5-1.6C243,346.3,242.7,346.7,243.2,346.6L243.2,346.6z"/>
		</g>
		<path class="st10" d="M235.4,355.9c0,0,5.9-0.5,5.9-4.3c0,0,0.3-0.6,1.1-1.7c1-1.3-3.9-0.9-4.6,0.8S236.3,350.1,235.4,355.9z"/>
	</g>
	<path class="st10" d="M284.6,328.5c-1.9,5.7-11,28-35.6,16.5c0,0-36.4,23.5-52.5-33c0,0-5.5-4.2-0.9-12.6c0.4-0.8,0.2-1.7-0.7-2.1
		c-5.1-2.4-20.5-12.5-13.7-42.6c0,0,7.5-22.2,37.5-22.8c1.5,0,2.2-1.6,1.3-2.7c-5-5.8-14.3-19.7-1.8-33.7c0,0,2.6-7.1,8.6-10.7
		c1.8-1.1,2.5-3.3,1.8-5.1c-1.4-3.7-3-9.7-0.8-15.3c0,0-2.3-22.5,27.6-42.7c0,0,16.4-11.4,37.4,0.7c0,0,12.9-3,18.6,10.9
		c0,0,15.4,15.5,9.9,30.3c-3.3,10.5-13.1,8.8-8.3,17.7c0,0.1,8.8,2.1,8.9,2.1c6.3,2,15.1,5,16.8,21.9c0.1,0.8,0.5,1.5,1.3,1.8
		c4.2,1.7,17.5,8.4,14.3,22.5c-0.1,0.6,0.2,1.3,0.9,1.4c4.3,0.8,18.5,4.4,20.4,15.9c0,0.3,0.3,0.5,0.6,0.5c3.2-0.2,20.5-0.3,9,27.2
		c0,0-6.1,18-22.8,29.2c-0.6,0.4-0.9,1.2-0.6,1.9c0.8,1.9,1.7,6.4-3,13.6c-6.5,9.8-21.4,15.7-35.6,10c0,0-13.4,13.5-22.6,7
		c0,0-9,0-14.9-7.7C285.5,327.9,284.8,327.9,284.6,328.5L284.6,328.5z"/>
	<path d="M237.9,157c-0.8,3.6,0.9,7.5,2.7,10.6c2.6,4.4,6.5,8.1,11,10.6c5.4,2.9,11.5,3.7,17.5,2.7c0.8-0.1,1.6-0.3,2.4-0.5
		c0.2-0.1,0.5-0.1,0.7-0.2c0,0,0.3-0.2,0.1-0.2c0,0,0.1,0,0.1,0.1c0.3,0.1,0.8,0.5,1.1,0.6c1.5,0.8,3.2,1.4,4.8,1.8
		c2.4,0.5,4.8,0.5,7.1-0.4c3.1-1.2,5.2-3.8,6.6-6.8c0.2-0.5-0.7-0.5-0.8-0.1c-1.3,2.7-3.2,5.2-6,6.3c-2,0.8-4.3,0.8-6.4,0.3
		c-1.6-0.4-3.2-1-4.7-1.8c-0.3-0.2-0.6-0.4-1-0.6c-0.6-0.2-1.3,0.1-2,0.3c-6,1.4-12.3,1-17.9-1.7c-4.5-2.1-8.3-5.6-11.1-9.7
		c-2.1-3.2-4.2-7.5-3.4-11.4C238.8,156.5,237.9,156.6,237.9,157L237.9,157L237.9,157z"/>
	<path d="M210,249.5c1.2-1.9,3-3.6,4.9-4.9s4-2.1,6.2-2.3c1.4-0.1,2.8-0.1,4.2,0.2c0.9,0.2,2.1,0.9,3,0.5c0.4-0.2,0.8-0.6,1.1-0.9
		c1-0.8,2.1-1.5,3.1-2.2c3.4-2.2,7.2-3.9,11.1-4.8c4.9-1.1,10.1-0.7,14.6,1.5c1.4,0.7,2.7,1.5,3.9,2.5c0.5,0.4,1,0.8,1.5,1.3
		s1,1.2,1.6,1.5c0.5,0.2,1.2,0.2,1.6,0.4c3,0.9,6,2.5,7.7,5.2c1.2,1.9,1.7,4.1,1.5,6.3c0,0.9,0.2,1.2,0.6,2c4.6,9.1,6.8,21,0.4,29.8
		c-0.2,0.3,0.6,0.3,0.8,0c5.2-7.2,4.8-16.5,2-24.5c-0.5-1.4-1.1-2.8-1.7-4.2c-0.4-0.8-0.8-1.5-1.1-2.3c-0.4-0.9,0-2.2-0.2-3.2
		c-0.2-1.6-0.8-3.1-1.6-4.4c-1.5-2.3-3.9-3.8-6.5-4.7c-0.8-0.3-1.6-0.5-2.5-0.7c-1.2-0.2-1.9-1.5-2.8-2.3
		c-6.5-5.4-14.7-6.5-22.6-3.9c-4.8,1.5-9.6,4.1-13.4,7.5l0.6-0.2c-4.7-1.5-9.6-1-13.8,1.7c-2,1.3-3.9,3.1-5.2,5.1
		C209,249.9,209.9,249.8,210,249.5L210,249.5L210,249.5z"/>
	<path d="M283.4,281.2c5.5,0,10.4,2.7,12.7,7.9c0.4,0.8,0.5,1.7,0.8,2.5c0.5,1.3,1.3,2.3,1.7,3.7c1,3.4-0.4,6.3-3.8,7.5
		c-0.1,0-0.3,0.1-0.3,0.2c0.5,5-0.4,11.8-4.7,14.9c-2.4,1.6-5.3,1.6-8,1c-0.2,0-1,0.3-0.7,0.4c4.3,0.9,8.9,0.2,11.6-3.5
		c2.1-2.9,2.8-6.8,2.8-10.3c0-0.9,0-1.8-0.1-2.7l-0.3,0.2c2.6-1,4.7-2.8,4.7-5.7c0-2.1-0.9-3.9-1.9-5.7c-0.4-0.7-0.5-1.5-0.8-2.2
		c-0.7-1.9-1.9-3.7-3.4-5.2c-2.7-2.5-6.2-3.5-9.8-3.5C283.8,280.8,283,281.2,283.4,281.2L283.4,281.2L283.4,281.2z"/>
	<path d="M269.8,115.4c0.4-1.5,1.8-2.6,3.3-2.9c0.9-0.1,1.7,0,2.6,0.2c0.6,0.1,1.2,0.4,1.8,0.6c0.4,0.2,0.9,0.6,1.3,0.6
		c0.5,0,1.1-0.4,1.6-0.6c3.1-1.2,7-1.8,10,0c0.9,0.5,1.5,1.3,2.4,1.9s1.6,1.3,2.3,2.1c2.8,3.1,3.5,6.9,1.2,10.5
		c-0.2,0.4,0.6,0.3,0.8,0.1c1.4-2.2,2-4.8,1-7.3c-0.7-1.9-2.1-3.6-3.7-4.9c-0.4-0.4-0.9-0.7-1.4-1.1c-0.7-0.5-1.3-1.2-2-1.6
		c-2.2-1.3-4.9-1.4-7.3-1c-1.7,0.3-3.4,0.8-4.9,1.6h0.5c-2.4-1.2-5.6-2.3-8.1-0.7c-1,0.6-1.9,1.6-2.2,2.8
		C268.8,115.9,269.7,115.7,269.8,115.4L269.8,115.4L269.8,115.4z"/>
	<path d="M337.9,246.3c1.2-1.2,2.6-2.3,4.1-3.1c3.3-1.8,6.7-1.3,9.3,1.5c0.1,0.1,0.5,0,0.7-0.1c1.8-0.9,3.9-1.3,5.8-1.4
		c4.6-0.2,8.6,2.1,11.2,5.8c0.9,1.3,1.6,2.7,2.2,4.1c0.3,0.8,0.5,1.6,0.9,2.3c0.4,0.8,0.9,1.5,1.2,2.3c1.6,3.5,2.4,7.4,2.1,11.2
		c-0.5,7.6-5.3,13.7-11.2,18.2c-0.4,0.3,0.5,0.2,0.7,0c5.4-4.1,10-9.6,11.2-16.5c0.7-4.2,0.1-8.6-1.6-12.6c-0.4-1-0.9-1.9-1.4-2.9
		c-0.3-0.6-0.5-1.4-0.8-2.1c-0.6-1.5-1.4-3.1-2.4-4.4c-2.6-3.7-6.5-5.9-11-5.9c-2.5,0-5.1,0.5-7.4,1.6l0.7-0.1
		c-2.6-2.8-6-3.3-9.5-1.9c-2,0.9-4,2.2-5.5,3.8C336.9,246.6,337.7,246.5,337.9,246.3L337.9,246.3L337.9,246.3z"/>
	<path d="M213.1,329.1c1.6,5.5,6.4,10,11.8,11.6c2.9,0.8,5.9,0.9,8.9,0.5l-0.4-0.1c0.7,1.1,2.1,1.7,3.3,2c3.9,1,8.2-0.4,11.8-1.8
		c0.6-0.2,0-0.4-0.3-0.3c-3.4,1.4-7.6,2.7-11.3,1.5c-0.9-0.3-2.1-0.9-2.6-1.7c-0.1-0.1-0.2-0.1-0.4-0.1c-6,0.7-12-0.8-16.1-5.4
		c-1.7-1.9-3.1-4.1-3.9-6.6C213.8,328.6,213,328.8,213.1,329.1L213.1,329.1L213.1,329.1z"/>
	<g>
		<path class="st9" d="M309.2,105.1c0,0-5.9-9-0.7-13.5c0,0,0.5-1.1,1.1-3.6c0.7-2.9,5.7,4.6,4.1,7.6S316.4,97.1,309.2,105.1
			L309.2,105.1z"/>
		<path d="M309.5,105c-1.2-1.9-2.2-4.1-2.6-6.4c-0.4-1.7-0.4-3.6,0.5-5.2c0.2-0.4,0.5-0.8,0.7-1.1c0.2-0.3,0.6-0.5,0.8-0.8
			c0.3-0.4,0.4-1,0.5-1.5c0.2-0.6,0.3-1.2,0.5-1.8c0-0.2,0.1-0.7,0.3-0.8c-0.1,0.1-0.1,0,0.1,0.1c0.1,0,0.2,0.1,0.3,0.2
			c0.2,0.1,0.4,0.3,0.6,0.5c1,1.1,1.8,2.6,2.2,4c0.2,0.7,0.4,1.4,0.4,2.1s-0.2,1.1-0.5,1.7s-0.3,1.1-0.1,1.7
			c0.2,0.8,0.2,1.4-0.1,2.1c-0.9,2-2.5,3.8-4,5.4C308.8,105.2,309.4,105.1,309.5,105c1.4-1.5,2.9-3.1,3.9-5.1
			c0.4-0.7,0.5-1.4,0.4-2.2c-0.1-0.6-0.2-1.1,0-1.8c0.2-0.6,0.5-1,0.5-1.6c0.1-0.8-0.1-1.6-0.3-2.4c-0.3-1-2.5-6.3-4.4-4.6
			c-0.1,0.1-0.2,0.3-0.3,0.5c-0.2,0.6-0.3,1.4-0.5,2c-0.1,0.5-0.3,1.3-0.6,1.7c-0.2,0.3-0.6,0.6-0.9,0.9c-0.3,0.4-0.6,0.9-0.8,1.3
			c-0.3,0.8-0.5,1.6-0.5,2.5c-0.1,3,1.2,6.3,2.8,8.8C309,105.3,309.5,105,309.5,105L309.5,105z"/>
	</g>
	<path class="st10" d="M309.4,100.4c0,0-2.9-5.1,0-7.2c0,0,0.3-0.6,0.7-1.9c0.4-1.5,3,2.7,2,4.2C311.1,97.1,313.5,96.4,309.4,100.4
		L309.4,100.4z"/>
	<g>
		<g>
			<path class="st9" d="M310.5,105.8c-0.7-0.1-1.1-0.9-0.7-1.5c1.6-2.5,5.5-7.9,10.5-6.2c0,0,2.7,0.6,5.2,0.6c1.1,0-4.4,5.2-6,5.9
				C316.4,105.7,319.3,107.5,310.5,105.8L310.5,105.8z"/>
			<path d="M310.7,105.6c-1.1-0.3-0.5-1.3-0.1-2c0.4-0.6,0.8-1.2,1.3-1.7c1-1.2,2.3-2.4,3.7-3.2c1.5-0.8,3-0.8,4.6-0.4
				c0.5,0.1,1.1,0.2,1.6,0.3c0.4,0.1,0.8,0.1,1.3,0.2c0.6,0.1,1.4,0.3,2,0.1c0.1,0,0.3,0.1,0.2-0.1v0.1c0,0.1-0.1,0.2-0.2,0.3
				c-0.3,0.4-0.7,0.9-1.1,1.2c-0.9,0.9-1.8,1.8-2.8,2.6c-1.2,0.9-2.6,1.4-3.7,2.5c-0.4,0.4-0.9,0.6-1.5,0.6
				C314.2,106.3,312.4,105.9,310.7,105.6c-0.4-0.1-0.8,0.4-0.3,0.5c1.8,0.3,3.6,0.8,5.5,0.7c0.7,0,1.4-0.2,2-0.7
				c0.5-0.4,0.8-0.9,1.4-1.2c1.1-0.5,2-1.1,2.9-1.9c1.1-0.9,2.2-1.9,3.1-3c0.3-0.3,1.2-1.3,0.5-1.6c-0.4-0.2-1.1,0-1.6-0.1
				c-0.6,0-1.2-0.1-1.9-0.2c-0.7-0.1-1.5-0.2-2-0.4c-1.7-0.5-3.5-0.3-5.1,0.6c-1.8,0.9-3.2,2.4-4.4,3.9c-0.7,0.9-2.6,3.2-0.5,3.8
				C310.6,106.1,311.1,105.7,310.7,105.6L310.7,105.6z"/>
		</g>
		<path class="st10" d="M321.3,100.2c0,0-5.6-1.7-7,1.7c0,0-0.5,0.4-1.7,1.1c-1.4,0.8,3.3,2.2,4.6,0.9S318.4,105.1,321.3,100.2
			L321.3,100.2z"/>
	</g>
	<g>
		<g>
			<path class="st9" d="M227.7,397.7c0.7,0,1.2,0.7,1,1.4c-1,2.8-3.8,8.9-9.1,8.2c0,0-2.7-0.1-5.2,0.5c-1.1,0.2,3.2-6,4.8-7
				C221.9,399,218.8,397.8,227.7,397.7L227.7,397.7z"/>
			<path d="M227.4,397.8c1.9,0.1,0.4,2.7,0,3.6c-0.7,1.3-1.5,2.6-2.5,3.7c-1.2,1.3-2.8,2.2-4.6,2c-1.4-0.1-2.7,0-4.1,0.2
				c-0.2,0-0.4,0.1-0.7,0.1c-0.1,0-0.6,0.2-0.8,0.1s-0.1,0-0.1-0.2c0-0.4,0.3-0.8,0.5-1.1c0.6-1.1,1.4-2.2,2.2-3.2
				c0.7-0.9,1.4-1.8,2.3-2.4c0.5-0.4,0.9-0.8,1.3-1.3c0.3-0.5,0.6-0.9,1.2-1.1C223.7,397.7,225.7,397.8,227.4,397.8
				c0.2,0,0.9-0.3,0.5-0.3c-1.8,0-3.8,0-5.6,0.4c-0.7,0.2-1.4,0.4-1.9,0.9c-0.4,0.5-0.6,1-1.1,1.4c-0.4,0.3-0.8,0.5-1.1,0.8
				c-0.5,0.4-0.9,0.9-1.3,1.4c-1,1.2-1.9,2.4-2.6,3.7c-0.2,0.4-1,1.6-0.1,1.5c1.3-0.1,2.6-0.4,3.9-0.4c0.6,0,1.2,0,1.8,0
				c1.6,0.1,3.2-0.5,4.5-1.4c1.5-1.1,2.6-2.7,3.5-4.3c0.5-1,2.3-4,0.1-4.1c-0.1,0-0.4,0-0.5,0.1
				C227.5,397.7,227.2,397.8,227.4,397.8L227.4,397.8z"/>
		</g>
		<path class="st10" d="M218.2,405.3c0,0,5.8,0.5,6.6-3.1c0,0,0.4-0.5,1.4-1.4c1.2-1-3.7-1.5-4.7,0S220.1,400,218.2,405.3
			L218.2,405.3z"/>
	</g>
	<g>
		<g>
			<path class="st9" d="M393.2,238.8c0,0-5-5.8-1.7-9.3c0,0,0.2-0.8,0.4-2.6c0.2-2.1,4.4,2.7,3.5,4.9S397.5,232.6,393.2,238.8
				L393.2,238.8z"/>
			<path d="M393.5,238.6c-1-1.2-1.9-2.7-2.4-4.2c-0.4-1.2-0.6-2.4-0.1-3.6c0.1-0.3,0.3-0.6,0.4-0.9c0.1-0.2,0.3-0.4,0.4-0.6
				c0.1-0.3,0.2-0.8,0.2-1.1c0.1-0.4,0.1-0.8,0.1-1.2c0-0.1,0-0.5,0.1-0.6s0.5,0.3,0.7,0.4c0.8,0.6,1.5,1.6,1.9,2.5
				c0.2,0.5,0.4,1,0.4,1.5c0,0.4-0.1,0.8-0.2,1.1c-0.1,0.4-0.1,0.8,0.1,1.2c0.2,0.5,0.2,0.9,0.1,1.4c-0.4,1.5-1.4,2.8-2.3,4.1
				c-0.2,0.3,0.3,0.4,0.5,0.2c0.8-1.2,1.8-2.5,2.3-4c0.2-0.5,0.3-1.1,0.1-1.6c-0.1-0.4-0.3-0.8-0.2-1.2c0.1-0.4,0.3-0.8,0.2-1.2
				c0-0.6-0.2-1.1-0.4-1.6c-0.5-1-1.1-1.9-2-2.6c-0.4-0.4-1.3-0.9-1.7-0.2c-0.1,0.1-0.1,0.3-0.1,0.4c-0.1,0.5-0.1,1-0.2,1.5
				c0,0.4-0.1,0.8-0.3,1.1c-0.3,0.6-0.7,1-0.9,1.7s-0.2,1.3-0.1,1.9c0.2,2.1,1.4,4.2,2.8,5.8C393.1,239.1,393.7,238.9,393.5,238.6
				L393.5,238.6z"/>
		</g>
		<path class="st10" d="M393,235.5c0,0-2.5-3.3-0.7-5.1c0,0,0.1-0.4,0.3-1.4c0.2-1.1,2.3,1.6,1.8,2.8S395.4,232.4,393,235.5
			L393,235.5z"/>
		<g>
			<path class="st9" d="M393.5,238.8c-0.5,0.1-0.9-0.4-0.8-0.9c0.5-2,1.9-6.5,5.6-6.5c0,0,1.9-0.2,3.6-0.8c0.8-0.3-1.7,4.5-2.7,5.3
				C397.5,237.3,399.8,237.9,393.5,238.8z"/>
			<path d="M393.6,238.5c-0.7,0-0.4-0.9-0.3-1.3c0.1-0.4,0.2-0.9,0.4-1.3c0.4-1,0.8-1.9,1.5-2.7s1.5-1.5,2.6-1.6
				c1-0.1,1.9-0.2,2.9-0.4c0.4-0.1,0.7-0.2,1.1-0.3l0.3-0.1l-0.3-0.1c0,0,0,0,0,0.1c-0.1,0.2-0.2,0.6-0.3,0.8
				c-0.4,0.9-0.8,1.7-1.3,2.5c-0.4,0.6-0.8,1.3-1.4,1.8c-0.3,0.3-0.6,0.7-0.8,1.1s-0.3,0.6-0.8,0.8
				C396.2,238.2,394.8,238.3,393.6,238.5c-0.4,0-0.5,0.6,0,0.5c1.3-0.2,2.7-0.3,4-0.8c0.5-0.2,0.9-0.5,1.2-0.9
				c0.2-0.4,0.4-0.8,0.7-1.1c0.6-0.6,1.1-1.3,1.6-2c0.5-0.9,1-1.8,1.4-2.8c0.1-0.2,0.2-0.5,0.1-0.8c-0.2-0.4-0.9-0.1-1.2,0
				c-0.8,0.2-1.5,0.4-2.3,0.5c-0.4,0.1-0.9,0.1-1.3,0.1c-1.2,0.2-2.2,0.8-3,1.7c-0.9,1-1.4,2.2-1.9,3.4c-0.2,0.5-0.3,1-0.4,1.5
				c-0.2,0.8,0.4,1.3,1.1,1.2C393.9,239,394.1,238.5,393.6,238.5L393.6,238.5z"/>
		</g>
		<path class="st10" d="M399.5,232.6c0,0-4.1,0.2-4.3,2.7c0,0-0.2,0.4-0.9,1.1c-0.8,0.8,2.7,0.7,3.3-0.4S398.6,236.5,399.5,232.6
			L399.5,232.6z"/>
	</g>
	<g>
		<g>
			<path class="st9" d="M328.2,351.9c-0.2-0.7,0.2-1.4,1-1.4c3,0,9.6,0.7,10.7,5.9c0,0,0.8,2.6,2.2,4.8c0.6,1-6.7-1.1-8.1-2.2
				C331.4,357,331.3,360.3,328.2,351.9L328.2,351.9z"/>
			<path d="M328.6,351.8c-0.1-0.6,0.1-1,0.7-1.1c0.3,0,0.6,0,0.8,0c0.6,0,1.3,0.1,1.9,0.2c1.4,0.2,2.8,0.6,4.1,1.2
				c1.4,0.7,2.5,1.8,3.1,3.2c0.2,0.5,0.3,1,0.5,1.5c0.3,0.8,0.6,1.5,0.9,2.3c0.2,0.5,0.4,0.9,0.7,1.4c0.1,0.2,0.2,0.5,0.4,0.7
				l0.1,0.1l0,0c0,0,0,0,0.1,0c-0.1-0.1,0.2,0.1,0,0c0,0-0.2,0-0.3,0c-0.2,0-0.5-0.1-0.7-0.1c-1.3-0.2-2.6-0.6-3.9-1.1
				c-1-0.4-2-0.8-2.9-1.4c-0.5-0.4-1.1-0.6-1.7-0.7s-1.1-0.4-1.5-1C329.8,355.5,329.2,353.5,328.6,351.8c-0.1-0.2-0.8,0-0.7,0.2
				c0.6,1.7,1.2,3.6,2.3,5.1c0.4,0.6,0.9,1,1.6,1.1c0.8,0.2,1.3,0.5,2,0.9c1.1,0.8,2.5,1.2,3.7,1.5s2.6,0.8,3.9,0.9
				c0.3,0,0.8,0,1-0.2c0.1-0.1,0.1-0.1,0.1-0.3c0-0.2-0.2-0.4-0.3-0.6c-0.2-0.3-0.3-0.6-0.5-1c-0.5-0.9-0.9-1.9-1.2-2.8
				c-0.2-0.6-0.3-1.2-0.6-1.8c-0.7-1.5-1.9-2.6-3.3-3.3c-1.6-0.8-3.4-1.2-5.2-1.4c-1.1-0.1-4-0.5-3.5,1.6
				C327.9,352.2,328.7,352,328.6,351.8L328.6,351.8z"/>
		</g>
		<path class="st10" d="M338.6,358.4c0,0-1.5-5.7-5-5.2c0,0-0.6-0.2-1.8-0.9c-1.4-0.8-0.2,4,1.5,4.4S332.9,358.3,338.6,358.4
			L338.6,358.4z"/>
	</g>
	<path class="st6" d="M123.3,463.3c-0.7,0-0.8-1-0.2-1.2c6.3-2,23.5-5.7,62-4.3c0,0,23.9,1.8,43.7-3.3s19.7-4.2,38.1-4.3
		s25.3-5.6,41.8-0.6s74.2,3,79.5,3.4c26,1.5,31.6,6.7,35.8,6.3c11.3-1.1,20,2.9,22.7,4.4c0.3,0.1,0.1,0.5-0.1,0.5
		C427.8,464.1,169.8,463.2,123.3,463.3L123.3,463.3z"/>
	<path class="st7" d="M133.2,462.5c-0.5,0,3.5-1.2,4-1.4c4.4-1.4,44.4,0.3,77.8-2c0,0,16.8-0.3,30.7-3.8c13.9-3.5,13.8-3,26.6-3
		c12.8,0,17.7-3.9,29.2-0.4s51.9,2.1,55.7,2.4c18.2,1.1,22.1,4.7,25,4.4c7.9-0.8,50,2.6,52.8,3.1c0.1,0-5.5,1.3-16.1,0.8
		c-5.1-0.3-19.2-0.4-19.3-0.4C386.5,462.1,165.7,462.5,133.2,462.5L133.2,462.5z"/>
	<g>
		<g>
			<path class="st9" d="M245.1,449.6c0.6,0.1,1,0.6,0.7,1c-1.1,1.8-3.9,5.6-8.1,4.6c0,0-2.2-0.3-4.3-0.2c-0.9,0,3.1-3.7,4.5-4.2
				C240.3,449.9,237.8,448.8,245.1,449.6L245.1,449.6z"/>
			<path d="M244.9,449.8c1,0.2,0.6,0.9,0.2,1.4c-0.3,0.4-0.6,0.8-0.9,1.2c-0.8,0.9-1.6,1.7-2.7,2.2c-1.2,0.6-2.4,0.6-3.7,0.4
				s-2.6-0.2-3.9-0.2h-0.2c-0.2,0-0.3,0-0.1,0l0,0c0-0.1,0.1-0.2,0.1-0.3c0.2-0.3,0.5-0.6,0.8-0.9c0.7-0.7,1.5-1.4,2.4-2
				c0.6-0.4,1.2-0.7,1.8-1c0.3-0.2,0.6-0.5,0.9-0.7c0.3-0.3,0.6-0.4,1-0.4C242,449.4,243.5,449.6,244.9,449.8c0.2,0,0.8-0.3,0.4-0.4
				c-1.5-0.2-3-0.3-4.4-0.3c-0.6,0-1.2,0.1-1.8,0.5c-0.3,0.2-0.5,0.5-0.9,0.8c-0.3,0.2-0.6,0.3-0.9,0.4c-0.4,0.2-0.8,0.5-1.2,0.8
				c-0.9,0.7-1.8,1.5-2.6,2.4c-0.2,0.2-1.1,1.1-0.4,1.2c0.4,0.1,0.8,0,1.2,0c0.6,0,1.1,0,1.7,0.1c0.5,0,1,0.1,1.5,0.1
				c1.5,0.2,2.8,0.2,4.2-0.5s2.5-1.6,3.4-2.8c0.4-0.5,0.8-1,1.1-1.5c0.4-0.7-0.1-1.2-0.8-1.3C245.1,449.3,244.5,449.7,244.9,449.8
				L244.9,449.8z"/>
		</g>
		<path class="st10" d="M236.7,453.8c0,0,4.8,0.9,5.6-1.4c0,0,0.4-0.3,1.3-0.8c1.1-0.6-2.9-1.4-3.9-0.4S238.7,450.4,236.7,453.8
			L236.7,453.8z"/>
	</g>
	<g>
		<g>
			<path class="st9" d="M172.7,452.3c0,0,7.4-1.7,9.1,2.8c0,0,0.6,0.6,2.1,1.6c1.8,1.2-4.4,2.7-6,0.8
				C176.3,455.7,176.2,458.9,172.7,452.3L172.7,452.3z"/>
			<path d="M172.8,452.4C172.8,452.4,172.7,452.4,172.8,452.4s0.2,0,0.3-0.1c0.3-0.1,0.6-0.1,0.9-0.1c1-0.1,2-0.1,3,0
				c1.1,0.1,2.3,0.5,3.1,1.2c0.5,0.4,0.8,0.8,1.1,1.3c0.2,0.4,0.2,0.5,0.6,0.8c0.6,0.5,1.2,0.9,1.8,1.3c0.2,0.2,0.4,0.4,0.2,0.6
				c-0.2,0.3-0.7,0.5-1.1,0.5c-0.5,0.2-1.1,0.2-1.7,0.3c-1.1,0-2.2-0.1-3-0.9c-0.3-0.3-0.7-0.6-1.2-0.7s-0.9-0.2-1.3-0.5
				c-1.2-1-1.9-2.6-2.6-4c-0.1-0.2-0.6,0-0.6,0.2c0.7,1.3,1.4,2.8,2.5,3.9c0.4,0.4,0.8,0.6,1.4,0.7s0.9,0.3,1.3,0.7
				c0.8,0.8,2,0.9,3,0.9s2.3-0.2,3.2-0.7c0.2-0.1,0.6-0.3,0.6-0.7c0.1-0.4-0.6-0.7-0.8-0.9c-0.5-0.3-1.1-0.7-1.5-1.2
				c-0.3-0.3-0.4-0.9-0.7-1.2c-0.8-1-1.9-1.5-3.1-1.8c-1.8-0.4-3.9-0.3-5.7,0.1C172.3,452.3,172.4,452.5,172.8,452.4L172.8,452.4z"
				/>
		</g>
		<path class="st10" d="M175.4,453.4c0,0,4.1-0.7,4.8,1.7c0,0,0.3,0.3,1.1,0.9c0.9,0.7-2.5,1.3-3.3,0.3S177.1,457,175.4,453.4
			L175.4,453.4z"/>
	</g>
	<g>
		<path class="st9" d="M219.4,458.9c-0.5,0.1-0.9-0.4-0.8-0.9c0.4-2,1.8-6.5,5.6-6.6c0,0,1.9-0.2,3.6-0.8c0.7-0.3-1.7,4.5-2.7,5.3
			C223.4,457.4,225.7,458,219.4,458.9z"/>
		<path d="M219.6,458.7c-1.1,0.1-0.3-2-0.1-2.6c0.3-1,0.8-1.9,1.4-2.7s1.5-1.5,2.6-1.7c0.4-0.1,0.7,0,1.1-0.1
			c0.6-0.1,1.2-0.2,1.9-0.4c0.4-0.1,0.7-0.2,1.1-0.3c0.1,0,0.2,0,0.2-0.1c0.1-0.1-0.1-0.1-0.1-0.1s0,0,0,0.1
			c-0.1,0.2-0.1,0.5-0.2,0.8c-0.3,0.9-0.8,1.7-1.3,2.5c-0.4,0.6-0.8,1.3-1.3,1.8c-0.4,0.3-0.6,0.7-0.8,1.1s-0.3,0.6-0.7,0.8
			C222.1,458.4,220.7,458.5,219.6,458.7c-0.4,0.1-0.7,0.5-0.2,0.4c1.3-0.2,2.7-0.4,3.9-0.8c0.5-0.2,1-0.5,1.2-0.9s0.4-0.8,0.7-1.1
			c0.6-0.6,1.1-1.3,1.6-2c0.5-0.9,1-1.8,1.4-2.8c0.1-0.2,0.2-0.6,0.2-0.8c-0.1-0.4-0.8,0-1,0c-0.8,0.2-1.6,0.4-2.4,0.6
			c-0.4,0.1-0.9,0.1-1.3,0.1c-1.2,0.2-2.2,0.8-3,1.6c-0.9,0.9-1.4,2.1-1.9,3.3c-0.2,0.5-0.3,1-0.4,1.6c-0.2,0.7,0.2,1.2,1,1.2
			c0.1,0,0.4,0,0.5-0.2S219.8,458.7,219.6,458.7L219.6,458.7z"/>
	</g>
	<path class="st10" d="M225.3,452.7c0,0-4.1,0.2-4.3,2.8c0,0-0.2,0.4-0.9,1.1c-0.8,0.8,2.7,0.7,3.3-0.5S224.5,456.6,225.3,452.7z"/>
	<g>
		<g>
			<path class="st9" d="M353.5,452.5c0,0,5.4-5.4,9.2-2.4c0,0,0.9,0.2,2.7,0.2c2.1,0-2.4,4.6-4.7,3.9S360,456.3,353.5,452.5
				L353.5,452.5z"/>
			<path d="M353.8,452.5c1.1-1.1,2.5-2.1,4-2.7c1.2-0.5,2.5-0.7,3.7-0.2c0.4,0.2,0.8,0.5,1.2,0.6s0.9,0.1,1.3,0.2s0.8,0,1.2,0.1
				c0.1,0,0.3,0,0.4,0.1c0.2,0.2-0.1,0.6-0.2,0.8c-0.5,0.9-1.4,1.6-2.3,2.1c-0.5,0.3-1,0.5-1.5,0.6c-0.4,0-0.7-0.1-1.1-0.2
				s-0.8,0-1.2,0.2c-0.5,0.2-0.8,0.3-1.3,0.2c-1.5-0.3-2.9-1.2-4.2-2c-0.2-0.1-0.7,0.2-0.5,0.3c1.3,0.8,2.7,1.6,4.1,2
				c0.6,0.2,1.2,0.2,1.7-0.1c0.4-0.2,0.6-0.3,1.1-0.2s0.8,0.2,1.3,0.1s1.1-0.3,1.6-0.5c1-0.5,1.9-1.3,2.6-2.2
				c0.3-0.4,0.9-1.3,0.1-1.5c-0.3-0.1-0.6,0-0.9-0.1c-0.4,0-0.9,0-1.3-0.1c-0.5,0-0.7-0.1-1.1-0.3c-1.1-0.7-2.4-0.8-3.7-0.5
				c-2.1,0.5-4.1,1.8-5.6,3.3C353.1,452.7,353.6,452.7,353.8,452.5L353.8,452.5z"/>
		</g>
		<path class="st10" d="M356.4,452c0,0,3.1-2.8,5-1c0,0,0.5,0.1,1.4,0.2c1.1,0.1-1.4,2.4-2.6,2S359.7,454.2,356.4,452z"/>
	</g>
</g>
<g class="st11">
	<g>
		<path class="st4" d="M390,60.6c-1.2-0.2-1.9-1.4-1.3-2.4c2.3-4.3,8.4-13.5,16.7-11.1c0,0,4.4,0.7,8.6,0.5
			c1.8-0.1-6.6,8.9-9.4,10.1C399.7,59.9,404.5,62.6,390,60.6L390,60.6z"/>
		<path d="M390.2,60.4c-3.1-0.7,0.4-4.9,1.3-6.2c1.5-2.1,3.4-4.1,5.6-5.6c2.6-1.7,5.1-2,8.1-1.4c2.4,0.5,4.9,0.6,7.3,0.6
			c0.2,0,1.4-0.1,1.4,0c0.1,0.1-0.2,0.5-0.2,0.6c-0.4,0.7-0.9,1.3-1.4,1.9c-1.4,1.6-2.9,3.2-4.4,4.6c-1.3,1.2-2.5,2.1-4,2.9
			c-0.8,0.4-1.5,1-2.1,1.7c-0.7,0.8-1.4,1.2-2.5,1.4C396.3,61.4,393.2,60.8,390.2,60.4c-0.2,0-0.8,0.4-0.4,0.4
			c2.9,0.4,6,0.9,8.9,0.6c1.1-0.1,2.2-0.4,3.1-1.1c0.8-0.7,1.3-1.5,2.2-2c1.6-1,3.1-1.9,4.5-3.2c1.8-1.6,3.5-3.4,5-5.3
			c0.4-0.4,1.8-2.1,0.8-2.4c-0.4-0.1-0.9,0-1.2,0c-0.5,0-1.1,0-1.6,0c-1.1,0-2.2-0.1-3.3-0.2s-2.2-0.3-3.3-0.5
			c-2.7-0.5-5.3,0.1-7.7,1.4c-2.7,1.6-4.8,3.9-6.5,6.4c-1.1,1.5-4.2,5.5-0.8,6.3C390.1,60.9,390.7,60.5,390.2,60.4L390.2,60.4z"/>
	</g>
	<path class="st5" d="M407.2,50.5c0,0-9.4-2.2-11.4,3.4c0,0-0.8,0.7-2.7,1.9c-2.2,1.4,5.6,3.4,7.6,1.1
		C402.8,54.6,402.9,58.7,407.2,50.5L407.2,50.5z"/>
</g>
<g class="st11">
	<g>
		<path class="st9" d="M448.4,87.2c0,0,9.6-6.7,14.5-1.1c0,0,1.2,0.5,4,1c3.2,0.6-4.8,6.3-8.1,4.6C455.4,90.1,457.2,94.8,448.4,87.2
			L448.4,87.2z"/>
		<path d="M448.6,87.2c2.1-1.4,4.5-2.6,7-3c2-0.4,4.1-0.2,5.8,0.9c0.5,0.4,0.9,0.9,1.5,1.2c0.7,0.3,1.5,0.4,2.2,0.6
			c0.5,0.1,2,0.1,2.2,0.8c0.1,0.4-0.3,0.9-0.5,1.2c-1,1.2-2.6,2.1-4.1,2.6c-0.9,0.3-1.8,0.6-2.8,0.4c-0.5-0.1-1-0.4-1.5-0.5
			c-0.6-0.2-1.1-0.2-1.7,0c-0.8,0.2-1.5,0.2-2.3-0.2c-2.1-0.9-4-2.6-5.7-4.1c-0.1-0.1-0.6,0.1-0.5,0.2c1.8,1.5,3.6,3.2,5.8,4.1
			c0.8,0.3,1.5,0.4,2.3,0.2c0.8-0.2,1.2-0.3,2,0.1c1.4,0.6,2.7,0.5,4.1,0.1c1.6-0.5,3.1-1.3,4.4-2.4c0.5-0.4,1.8-1.7,0.8-2.2
			c-0.4-0.2-0.9-0.2-1.4-0.3c-0.6-0.1-1.3-0.3-1.9-0.5c-0.3-0.1-0.6-0.1-0.9-0.3c-0.3-0.2-0.5-0.4-0.8-0.7c-1.5-1.3-3.5-1.7-5.4-1.5
			c-3.1,0.2-6.4,1.6-8.9,3.4C447.9,87.4,448.5,87.3,448.6,87.2L448.6,87.2z"/>
	</g>
	<path class="st10" d="M452.8,87.3c0,0,5.4-3.3,7.8-0.2c0,0,0.6,0.3,2.1,0.6c1.7,0.4-2.8,3.3-4.5,2.3S457.2,91.5,452.8,87.3z"/>
</g>
<g class="st11">
	<g>
		<path class="st9" d="M237.1,38.8c0,0,9.4-6.9,14.5-1.5c0,0,1.2,0.5,4,0.9c3.2,0.6-4.6,6.4-8,4.8C244.3,41.5,246.1,46.1,237.1,38.8
			L237.1,38.8z"/>
		<path d="M237.4,38.9c2-1.5,4.5-2.7,6.9-3.2c1.9-0.4,4.1-0.4,5.8,0.7c0.5,0.3,0.9,0.9,1.5,1.1c0.7,0.3,1.5,0.4,2.2,0.6
			c0.5,0.1,2,0.1,2.2,0.7c0.1,0.4-0.2,0.9-0.5,1.2c-1,1.2-2.6,2.1-4,2.7c-0.8,0.3-1.8,0.6-2.7,0.5c-0.6-0.1-1-0.4-1.6-0.5
			c-0.6-0.2-1.1-0.1-1.7,0c-0.8,0.2-1.4,0.2-2.3-0.1C241.1,41.8,239.2,40.2,237.4,38.9c-0.1-0.2-0.6,0-0.5,0.1
			c1.8,1.4,3.7,3.1,5.9,3.9c0.8,0.3,1.5,0.4,2.3,0.2s1.2-0.3,2,0c1.4,0.6,2.7,0.5,4.1,0c1.6-0.5,3.1-1.4,4.3-2.5
			c0.5-0.5,1.8-1.7,0.7-2.3c-0.4-0.2-0.9-0.2-1.4-0.3c-0.6-0.1-1.3-0.3-1.9-0.4c-0.3-0.1-0.6-0.1-0.9-0.2c-0.3-0.1-0.5-0.4-0.8-0.7
			c-1.5-1.2-3.5-1.6-5.5-1.4c-3.1,0.3-6.3,1.8-8.9,3.6C236.7,39,237.3,38.9,237.4,38.9L237.4,38.9z"/>
	</g>
	<path class="st10" d="M241.6,38.8c0,0,5.3-3.4,7.8-0.4c0,0,0.6,0.3,2.1,0.6c1.7,0.4-2.7,3.3-4.5,2.4S246.1,42.9,241.6,38.8
		L241.6,38.8z"/>
</g>
<g class="st11">
	<g>
		<path class="st9" d="M474.5,150.2c0,0,11.6,0.8,12,8.1c0,0,0.7,1.1,2.4,3.3c2.1,2.5-7.7,2-9.2-1.4
			C478.2,156.8,476.6,161.5,474.5,150.2L474.5,150.2z"/>
		<path d="M474.3,150.3c2.2,0.1,4.5,0.7,6.5,1.6c1.6,0.7,3.1,1.6,4.2,3c0.5,0.7,0.9,1.4,1.1,2.3c0.1,0.6,0.1,1.1,0.4,1.6
			c0.6,0.9,1.3,1.8,2,2.7c0.3,0.4,0.7,0.9,0.2,1.2c-0.5,0.4-1.4,0.3-1.9,0.3c-0.9,0-1.7-0.1-2.5-0.3c-1.5-0.4-3.3-1-4.1-2.4
			c-0.4-0.7-0.7-1.3-1.5-1.7s-1.3-0.6-1.8-1.4c-1.3-2.1-1.7-4.8-2.1-7.1C474.8,150,474.2,150.1,474.3,150.3c0.4,2.3,0.8,4.9,1.9,6.9
			c0.4,0.7,0.9,1.1,1.7,1.5c0.9,0.4,1.2,0.9,1.6,1.7c0.8,1.4,2.6,2.1,4,2.4s3.2,0.6,4.7,0.2c0.4-0.1,1-0.3,1.2-0.6
			c0.3-0.5-0.3-1-0.6-1.4c-0.7-0.8-1.5-1.7-2-2.7c-0.1-0.2-0.1-0.5-0.1-0.8c-0.1-0.5-0.2-1-0.4-1.4c-0.7-1.7-2.1-2.9-3.6-3.8
			c-2.4-1.4-5.3-2.1-8.1-2.3C474.5,150.1,474,150.3,474.3,150.3L474.3,150.3z"/>
	</g>
	<path class="st10" d="M477.9,153c0,0,6.3,0.8,6.3,4.7c0,0,0.3,0.6,1.2,1.8c1,1.4-4.2,0.8-5-1S478.7,159.1,477.9,153L477.9,153z"/>
</g>
<g class="st11">
	<g>
		<path class="st9" d="M40.6,160.7c0,0-10.6,2.7-13.4-3.6c0,0-1-0.8-3.2-2.1c-2.7-1.6,6.2-3.9,8.7-1.4
			C35.2,156.1,35,151.5,40.6,160.7L40.6,160.7z"/>
		<path d="M40.6,160.5c-2,0.5-4.2,0.7-6.3,0.5c-1.6-0.1-3.3-0.5-4.7-1.5c-0.7-0.5-1.3-1.1-1.8-1.9c-0.3-0.5-0.4-0.7-0.8-1
			c-0.9-0.6-1.9-1.2-2.8-1.8c-0.4-0.3-0.6-0.6-0.2-0.9c1-0.9,2.8-1.1,4.1-1.2c1.6-0.1,3.2,0.1,4.4,1.2c0.5,0.5,1,0.7,1.7,0.8
			c0.8,0.1,1.3,0.2,1.9,0.7c1.8,1.4,3,3.6,4.1,5.5c0.1,0.2,0.7,0,0.5-0.2c-1.1-1.9-2.3-3.9-4-5.4c-0.6-0.5-1.2-0.8-2.1-0.9
			c-0.9-0.1-1.3-0.3-1.9-0.9c-1.1-1-2.8-1.2-4.3-1.1s-3.2,0.3-4.6,1.1c-0.3,0.2-0.8,0.5-0.8,0.9c-0.1,0.6,0.6,0.9,1,1.1
			c0.9,0.5,1.9,1,2.6,1.7c0.4,0.4,0.7,1.1,1.1,1.6c1.1,1.3,2.8,2,4.4,2.4c2.7,0.6,5.7,0.4,8.3-0.3C41.1,160.8,41,160.4,40.6,160.5
			L40.6,160.5z"/>
	</g>
	<path class="st10" d="M36.2,159.1c0,0-5.8,1.1-7.1-2.3c0,0-0.5-0.4-1.7-1.2c-1.4-0.9,3.5-1.9,4.7-0.5
		C33.3,156.5,33.5,154,36.2,159.1L36.2,159.1z"/>
	<g>
		<path class="st9" d="M41.8,159.8c-0.3,0.6-1.2,0.7-1.7,0.2c-2-2.3-6.1-7.7-2.9-11.8c0,0,1.4-2.3,2.1-4.7c0.3-1.1,3.8,5.7,3.9,7.5
			C43.4,154.2,46,152.1,41.8,159.8L41.8,159.8z"/>
		<path d="M41.4,159.8c-0.6,0.9-1.5-0.5-1.9-1c-0.5-0.7-1.1-1.4-1.5-2.1c-0.8-1.4-1.5-2.9-1.6-4.6c-0.1-1.7,0.5-2.8,1.3-4.2
			c0.4-0.6,0.7-1.2,1-1.9c0.1-0.3,1.2-2.5,1-2.6l-0.5,0.1c0,0,0.1,0,0.1,0.1s0.1,0.1,0.1,0.1c0.1,0.1,0.2,0.2,0.3,0.4
			c0.4,0.5,0.6,1,0.9,1.5c0.6,1.1,1.1,2.2,1.6,3.4c0.4,0.9,0.5,1.7,0.7,2.6c0.1,0.5,0.4,1,0.6,1.4c0.3,0.6,0.3,1.1,0.1,1.8
			C43.2,156.6,42.2,158.3,41.4,159.8c-0.1,0.2,0.6,0.1,0.7-0.1c0.9-1.6,1.9-3.2,2.3-5c0.2-0.6,0.1-1.2-0.2-1.8
			c-0.3-0.6-0.6-1.2-0.7-1.9c-0.1-1.2-0.6-2.3-1.1-3.3c-0.3-0.6-2.3-5.6-3.5-4.3c-0.2,0.2-0.2,0.7-0.4,0.9c-0.2,0.6-0.5,1.1-0.7,1.7
			c-0.3,0.7-0.7,1.5-1.1,2.1c-1,1.6-1.5,3.1-1.1,4.9c0.4,2.1,1.5,3.9,2.8,5.6c0.4,0.6,1,1.5,1.7,1.8c0.7,0.3,1.5,0,1.9-0.6
			C42.2,159.5,41.5,159.6,41.4,159.8L41.4,159.8z"/>
	</g>
	<path class="st10" d="M39.5,147.9c0,0-3.3,4.7-0.5,7.1c0,0,0.3,0.6,0.6,1.9c0.4,1.6,3.2-2.4,2.3-4S43.4,152.1,39.5,147.9z"/>
</g>
<g class="st11">
	<g>
		<path class="st9" d="M45.6,72.6c-0.8-0.8-0.5-2.1,0.5-2.5c4.2-1.7,14-4.8,18.6,1.9c0,0,2.8,3.1,5.9,5.4c1.4,1-10.1,2.5-12.8,1.8
			C53,77.8,54.9,82.6,45.6,72.6L45.6,72.6z"/>
		<path d="M45.9,72.4c-1.3-1.7,0.8-2.4,2.1-2.8c1-0.4,2-0.6,3-0.9c2.3-0.6,4.7-0.8,7.1-0.5c2.7,0.4,4.6,1.8,6.3,3.8
			c1.2,1.5,2.8,2.9,4.3,4.2c0.2,0.1,1.8,1.3,1.7,1.4l-0.3,0.1c-0.5,0.4-1.5,0.4-2.2,0.6c-2,0.4-4,0.6-6.1,0.7c-1.6,0.1-3,0-4.6-0.3
			c-0.9-0.2-1.7-0.1-2.6,0.1c-1,0.2-1.8-0.1-2.7-0.6C49.7,76.6,47.8,74.4,45.9,72.4c-0.2-0.3-0.9,0-0.6,0.3c1.9,2,3.9,4.3,6.2,5.8
			c0.9,0.6,1.8,0.9,2.8,0.8s2-0.3,3.1-0.1c1.8,0.4,3.7,0.3,5.6,0.2c2.2-0.2,4.5-0.4,6.6-1c0.4-0.1,1.2-0.3,1.5-0.7
			c0.4-0.5-0.2-0.7-0.6-1.1c-2.2-1.7-4.2-3.7-6-5.8c-1.7-2-4.1-3.1-6.7-3.3c-2.9-0.3-5.8,0.2-8.6,1c-1.7,0.5-5.9,1.5-3.9,4.1
			C45.4,73,46.1,72.7,45.9,72.4L45.9,72.4z"/>
	</g>
	<path class="st10" d="M64,75.4c0,0-5.5-7.1-10.2-4.3c0,0-1,0.1-3.1-0.2c-2.4-0.3,2.1,5.8,4.8,5.3S56,78.8,64,75.4z"/>
</g>
<g class="st11">
	<g>
		<path class="st4" d="M119.3,90.8c-1.2-0.1-1.9-1.4-1.3-2.4c2.2-4.4,8-13.6,16.4-11.5c0,0,4.4,0.6,8.6,0.3
			c1.8-0.1-6.4,9.1-9.1,10.4C128.9,89.8,133.8,92.4,119.3,90.8L119.3,90.8z"/>
		<path d="M119.5,90.6c-3.1-0.6,0.2-4.8,1.1-6.2c1.5-2.1,3.2-4.2,5.3-5.7c2.6-1.8,5.2-2.2,8.2-1.7c2.2,0.4,4.6,0.4,6.8,0.4
			c0.2,0,1.9-0.2,1.9-0.1c0.1,0.1-0.1,0.4-0.2,0.5c-0.3,0.7-0.8,1.3-1.3,1.9c-1.3,1.7-2.9,3.4-4.4,4.9c-1.2,1.1-2.4,2.1-3.8,2.9
			c-0.9,0.5-1.5,1.1-2.2,1.8c-0.7,0.8-1.3,1.3-2.4,1.5C125.6,91.4,122.4,90.9,119.5,90.6c-0.2,0-0.8,0.3-0.4,0.4
			c2.9,0.3,6,0.7,8.9,0.4c1.1-0.1,2.2-0.4,3.1-1.2c0.8-0.7,1.3-1.6,2.2-2.1c1.7-1,3.1-2,4.5-3.4c1.7-1.6,3.3-3.4,4.7-5.3
			c0.3-0.5,1.8-2.1,0.7-2.4c-0.4-0.1-1,0.1-1.4,0.1c-0.6,0-1.2,0-1.8,0c-1,0-2-0.1-3-0.1c-1.1-0.1-2.2-0.3-3.3-0.4
			c-2.6-0.4-5.3,0.2-7.5,1.6c-2.6,1.6-4.7,4.1-6.4,6.6c-1,1.5-4.1,5.5-0.6,6.2C119.3,91,119.9,90.6,119.5,90.6L119.5,90.6z"/>
	</g>
	<path class="st5" d="M136.2,80.2c0,0-9.4-2-11.3,3.7c0,0-0.8,0.8-2.6,2c-2.2,1.5,5.7,3.2,7.6,0.9C131.8,84.5,132.1,88.6,136.2,80.2
		L136.2,80.2z"/>
</g>
<g class="st11">
	<g>
		<path class="st4" d="M199.4,105c0,0-9.4-4.3-7.4-10.6c0,0-0.2-1.2-1-3.5c-0.9-2.7,7,0.8,7.2,4.1S201.2,94.9,199.4,105L199.4,105z"
			/>
		<path d="M199.7,104.9c-1.9-0.9-3.6-2.1-5.1-3.6c-1.1-1.1-2.1-2.5-2.4-4.1c-0.2-0.8-0.2-1.7,0-2.5c0.1-0.5,0.1-0.8-0.1-1.2
			c-0.1-0.4-0.2-0.9-0.4-1.3c-0.2-0.5-0.4-1.1-0.5-1.6s0.2-0.5,0.7-0.5c1.4,0.2,2.8,1,3.9,1.9c0.6,0.5,1.1,1,1.6,1.6
			c0.4,0.6,0.5,1.1,0.6,1.8c0.1,0.6,0.3,1.1,0.8,1.5c0.5,0.5,0.8,1,0.9,1.7c0.4,2.1-0.1,4.4-0.5,6.4c0,0.3,0.5,0.2,0.6-0.1
			c0.4-2,0.8-4.1,0.6-6.2c-0.1-0.8-0.3-1.4-0.9-1.9c-0.5-0.5-0.8-0.8-0.9-1.5c-0.1-0.6-0.2-1.2-0.5-1.7c-0.4-0.7-1-1.2-1.6-1.7
			c-1.1-0.9-2.6-1.8-4.1-2.1c-0.7-0.1-1.9-0.1-1.8,1c0.1,0.5,0.4,1.1,0.5,1.6s0.3,0.9,0.4,1.4c0.1,0.2,0.1,0.4,0.1,0.6
			c0,0.3-0.2,0.7-0.2,1.1c-0.2,1.7,0.4,3.3,1.4,4.6c1.6,2.2,4,3.9,6.4,5C199.4,105.3,199.9,105,199.7,104.9L199.7,104.9z"/>
	</g>
	<path class="st5" d="M197.5,101.6c0,0-5-2.6-3.7-5.9c0,0-0.1-0.6-0.4-1.9c-0.4-1.5,3.8,0.7,3.8,2.4S198.7,96.3,197.5,101.6z"/>
</g>
</svg>
