<?xml version="1.0" encoding="UTF-8"?><svg id="cow" xmlns="http://www.w3.org/2000/svg" viewBox="0 0 170.17 170.43"><defs><style>.cls-1{fill:#ed99a1;}.cls-2{fill:#ffd1cc;}.cls-3{fill:#ffd1b5;}.cls-4{fill:#c07a49;}.cls-5{fill:#754c24;}.cls-6{fill:none;stroke:#000;stroke-miterlimit:10;}</style></defs><g><path class="cls-3" d="m150.2,95.19c1.19,11.84-9.35,9.56-11.54-.64-.86-4.01-.72-12.47-4.17-17.75-3.45-5.28-10.68-5.65-9.74-12.24,2.09-14.57,12.61-10.99,12.61-10.99l.15-.1c7.16,10.69,11.13,24.69,12.78,41.7h-.09Z"/><path class="cls-1" d="m149.13,143.09h0s0,0,0,0c0,0,0,0,0,0Z"/><path class="cls-1" d="m126.91,41.92c-2.05-1.62-4.24-3.1-6.6-4.42l.06-.1s13.6-9.85,15.28-13.97c2.2-5.39,3.78-3.44,4.52-1.92.03.05.04.1.07.15,3.84,9.05,5.09,26.61-7.99,25.18-1.66-1.77-3.44-3.41-5.35-4.92Z"/><path class="cls-4" d="m140.17,21.51c-.74-1.52-2.33-3.47-4.52,1.92-1.68,4.11-15.28,13.97-15.28,13.97l-.06.1c-1.95-1.11-4.02-2.11-6.21-3.01l.03-.09c-1.39-2.14,15.52-8.03,19.77-16.33,1.74-3.38,4.32-1.07,6.26,3.44Z"/><path class="cls-2" d="m113.84,34.39c-.56,2-1.76,3.87-3.95,5.34-9.9,6.65-8.91-4.63-8.91-4.63,0,0,.13-3.61,1.8-4.64.21-.13.48-.32.78-.57,2.1-1.71,6.02-5.97,6.02-8.66,0-2.4,6.21,6.14,4.26,13.17Z"/><path d="m111.51,69.03c.39,2.55-1.45,4.9-4.03,5.09-.68.04-1.41.03-2.2-.11-.5-.09-.96-.22-1.4-.36-2.48-.86-3.65-3.73-2.47-6.08,1.48-2.93,3.5-4.62,5.31-4.47,1.27.1,2.2,1.07,2.73,1.61,1.26,1.3,1.82,2.89,2.05,4.32Z"/><path class="cls-1" d="m100.1,78.73c.92,1.61.8,3.74.62,7.99-.23,5.4-.35,8.1-1.91,10.03-3.32,4.11-10.29,4.04-13.71,4.01-3.46-.03-10.17-.09-13.49-4.17-1.59-1.95-1.77-4.59-2.14-9.88-.28-4.04-.44-6.08.36-7.63,3.18-6.18,13.37-6.41,15.27-6.41,1.52,0,11.51-.03,15.01,6.05Zm-7.63,7.47c0-2.35-.86-4.27-1.91-4.27s-1.91,1.92-1.91,4.27.85,4.27,1.91,4.27,1.91-1.91,1.91-4.27Zm-10.04,0c0-2.35-.85-4.27-1.91-4.27s-1.91,1.92-1.91,4.27.86,4.27,1.91,4.27,1.91-1.91,1.91-4.27Z"/><path class="cls-5" d="m74.63,27.77c-1.66-2.06-2.15-4.51.4-7.18,7.07-7.37,5-7.55,1.68-7.99-3.33-.45,7.48-3.7,7.48.16s.86-7.59,6.01-7.78c0,0-3.71,7.48,2.07,12.63,3.85,3.44,6.52,6.48,2.84,10.14-1.84,1.82-5.25,3.8-10.88,6.05,0,0-6.65-2.38-9.6-6.02Z"/><ellipse cx="90.56" cy="86.2" rx="1.91" ry="4.27"/><ellipse cx="80.51" cy="86.2" rx="1.91" ry="4.27"/><path d="m69.38,68.62c.56,1.57-.05,3.33-1.48,4.18-.89.54-2.04,1.02-3.45,1.22-1.11.16-2.12.08-2.98-.09-1.78-.36-2.97-2.02-2.79-3.83.36-3.81,1.87-6.46,3.83-6.92,1.24-.29,2.43.35,3.1.71,2.11,1.14,3.21,3.11,3.78,4.72Z"/><path class="cls-2" d="m56.21,34.13c-1.45-6.91,4.41-14.9,4.41-12.57,0,2.49,3.35,6.33,5.51,8.25.52.45.96.8,1.28,1,1.67,1.02,1.8,4.63,1.8,4.63,0,0,.99,11.28-8.91,4.63-2.4-1.61-3.63-3.72-4.09-5.95Z"/><path class="cls-5" d="m149.12,143.1c-61.87,20.21-126.64,1.34-127.15-1.7,4.37-5.95,9.12-15.56,24.12-24.13,1.02-.58,2.4-1.42,4.27-2.38,5.83-2.99,16.33-7.02,34.7-7.28,11.59-.16,25.52-.07,40.97,9.08,11.95,7.08,21.06,20.8,23.1,26.4,0,0,0,0,0,0Z"/><path class="cls-1" d="m36.87,47.76c-13.05,1.67-11.74-15.61-7.79-25.17.7-1.54,2.88-4.73,5.15.84,1.68,4.11,15.34,14.01,15.34,14.01-2.42,1.4-4.66,2.93-6.74,4.63-2.16,1.74-4.14,3.64-5.95,5.69Z"/><path class="cls-4" d="m29.08,22.59c2.14-5.18,5.05-8.09,6.88-4.51,4.2,8.18,20.72,14.03,19.81,16.24-2.19.95-4.25,2-6.21,3.12,0,0-13.66-9.89-15.34-14.01-2.27-5.57-4.44-2.38-5.15-.84Z"/><path class="cls-4" d="m24.48,71.07c2.85-9.36,6.87-17.07,12.39-23.3,1.81-2.06,3.79-3.96,5.95-5.69,2.08-1.69,4.32-3.23,6.74-4.63,1.95-1.13,4.02-2.17,6.21-3.12.15-.06.3-.12.44-.19.46,2.22,1.68,4.33,4.09,5.95,9.9,6.65,8.91-4.63,8.91-4.63,0,0-.13-3.61-1.8-4.63-.32-.2-.76-.55-1.28-1,2.71-.88,5.53-1.55,8.5-2.03,2.95,3.65,9.6,6.02,9.6,6.02,5.63-2.25,9.04-4.23,10.88-6.05,2.81.48,5.86,1.3,8.45,2.14-.3.25-.57.44-.78.57-1.67,1.03-1.8,4.64-1.8,4.64,0,0-.99,11.27,8.91,4.63,2.19-1.47,3.39-3.34,3.95-5.34l.26.1c2.19.9,4.25,1.9,6.21,3.01,2.36,1.32,4.55,2.79,6.6,4.42,1.91,1.51,3.69,3.15,5.35,4.92,1.92,2.04,3.66,4.25,5.25,6.63l-.15.1s-10.52-3.58-12.61,10.99c-.95,6.59,6.28,6.96,9.74,12.24,3.45,5.28,3.32,13.74,4.17,17.75,2.2,10.2,12.73,12.48,11.54.64h.09c.69,6.99.98,14.5.95,22.5,0,.24,1.54.15,1.59,1.91.04,1.28-1.61,1.54-1.61,1.93q0,.86-.03,1.73c0,.38,1.38.43,1.35,1.08-.03.95-1.4.91-1.41,1.34-.04,1.43-.09,2.88-.15,4.35-.17,4.7-2.17,8.04-1.87,10.83.08.76.09,1.5.02,2.24-2.04-5.61-11.14-19.32-23.1-26.4-15.45-9.15-29.38-9.23-40.97-9.08-18.37.26-28.87,4.3-34.7,7.28,0,0-3.52-4.06.8-6.36,4.32-2.29-1.89-19.16-5.94-18.17-4.05.98-4.59,6.98-6.21,8.73-1.61,1.75-10.12.4-10.21-5.23-.1-5.62,7.38-10.57,6.97-16.09-.41-5.52-4.17-6.1-7.49-6.6-1.55-.23-3.8-.1-3.8-.1Zm83,3.05c2.58-.18,4.42-2.53,4.03-5.09-.23-1.43-.79-3.02-2.05-4.32-.53-.55-1.47-1.52-2.73-1.61-1.81-.15-3.84,1.54-5.31,4.47-1.18,2.34,0,5.22,2.47,6.08.43.15.89.28,1.4.36.78.14,1.52.16,2.2.11Zm-6.77,12.61c.18-4.25.3-6.39-.62-7.99-3.5-6.08-13.49-6.06-15.01-6.05-1.9,0-12.09.23-15.27,6.41-.8,1.54-.63,3.58-.36,7.63.36,5.29.55,7.92,2.14,9.88,3.32,4.08,10.02,4.14,13.49,4.17,3.43.03,10.39.1,13.71-4.01,1.56-1.94,1.68-4.63,1.91-10.03Zm-32.82-13.92c1.43-.85,2.04-2.61,1.48-4.18-.56-1.61-1.67-3.58-3.78-4.72-.67-.36-1.86-1-3.1-.71-1.95.46-3.47,3.11-3.83,6.92-.17,1.81,1.02,3.47,2.79,3.83.86.16,1.87.24,2.98.09,1.41-.19,2.56-.68,3.45-1.22Z"/><path class="cls-5" d="m40.51,157.14c-3.28-.76-10.2-2.5-14.95-6.7-3.19-2.82-3.66-7.22-3.58-9.04.5,3.04,65.28,21.92,127.15,1.7-.31,3.71-2.38,7.07-5.71,8.92-3.08,1.71-6.21,2.86-7.88,3.57-14.91,6.37-33.33,6.48-49.42,6.26-9.45-.13-26.99-.43-45.59-4.7Z"/><path class="cls-3" d="m28.8,93.86c.09,5.62,8.59,6.98,10.21,5.23,1.62-1.75,2.16-7.75,6.21-8.73,4.04-.99,10.26,15.88,5.94,18.17-4.32,2.3-.8,6.36-.8,6.36-1.87.95-3.25,1.8-4.27,2.38-15,8.57-19.75,18.18-24.12,24.13.15-3.54-3.33-4.04-3.4-11.55-.03-3.16-.03-6.24,0-9.24,0-1.08-1.24-2.21-1.22-3.28.02-1.03,1.31-2,1.34-3.01.49-17.2,2.21-31.52,5.79-43.24,0,0,2.25-.12,3.8.1,3.32.49,7.08,1.08,7.49,6.6.41,5.52-7.07,10.47-6.97,16.09Z"/></g><g><path class="cls-6" d="m56.21,34.13c.46,2.22,1.68,4.33,4.09,5.95,9.9,6.65,8.91-4.63,8.91-4.63,0,0-.13-3.61-1.8-4.63-.32-.2-.76-.55-1.28-1-2.16-1.92-5.51-5.75-5.51-8.25,0-2.33-5.86,5.66-4.41,12.57Z"/><path class="cls-6" d="m113.84,34.39c-.56,2-1.76,3.87-3.95,5.34-9.9,6.65-8.91-4.63-8.91-4.63,0,0,.13-3.61,1.8-4.64.21-.13.48-.32.78-.57,2.1-1.71,6.02-5.97,6.02-8.66,0-2.4,6.21,6.14,4.26,13.17Z"/><path class="cls-6" d="m74.79,27.75c-.05,0-.11.02-.16.03-2.97.48-5.79,1.15-8.5,2.03-.02,0-.04,0-.06.02"/><path class="cls-6" d="m103.69,29.93s-.09-.03-.13-.04c-2.59-.83-5.63-1.66-8.45-2.14"/><path class="cls-6" d="m56.28,34.1s-.04.02-.07.03c-.15.07-.3.13-.44.19-2.19.95-4.25,2-6.21,3.12-2.42,1.4-4.66,2.93-6.74,4.63-2.16,1.74-4.14,3.64-5.95,5.69-5.51,6.23-9.54,13.95-12.39,23.3-3.58,11.73-5.3,26.04-5.79,43.24-.03,1.01-1.32,1.98-1.34,3.01-.03,1.07,1.22,2.2,1.22,3.28-.03,3-.03,6.08,0,9.24.07,7.51,3.55,8.01,3.4,11.55-.08,1.82.39,6.22,3.58,9.04,4.76,4.2,11.67,5.95,14.95,6.7,18.6,4.28,36.14,4.57,45.59,4.7,16.09.23,34.51.11,49.42-6.26,1.68-.71,4.8-1.86,7.88-3.57,3.33-1.85,5.4-5.22,5.71-8.92,0,0,0,0,0,0,.07-.74.06-1.48-.02-2.24-.3-2.79,1.7-6.14,1.87-10.83.06-1.47.1-2.92.15-4.35,0-.43,1.37-.39,1.41-1.34.03-.66-1.36-.7-1.35-1.08q.02-.87.03-1.73c0-.39,1.66-.64,1.61-1.93-.05-1.76-1.59-1.67-1.59-1.91.03-7.99-.26-15.51-.95-22.51-1.66-17.01-5.62-31.01-12.78-41.7-1.59-2.38-3.33-4.59-5.25-6.63-1.66-1.77-3.44-3.41-5.35-4.92-2.05-1.62-4.24-3.1-6.6-4.42-1.95-1.11-4.02-2.11-6.21-3.01l-.26-.1s-.04-.02-.06-.03"/><path class="cls-6" d="m58.68,70.1c-.17,1.81,1.02,3.47,2.79,3.83.86.16,1.87.24,2.98.09,1.41-.19,2.56-.68,3.45-1.22,1.43-.85,2.04-2.61,1.48-4.18-.56-1.61-1.67-3.58-3.78-4.72-.67-.36-1.86-1-3.1-.71-1.95.46-3.47,3.11-3.83,6.92Z"/><path class="cls-6" d="m101.41,67.56c-1.18,2.34,0,5.22,2.47,6.08.43.15.89.28,1.4.36.78.14,1.52.16,2.2.11,2.58-.18,4.42-2.53,4.03-5.09-.23-1.43-.79-3.02-2.05-4.32-.53-.55-1.47-1.52-2.73-1.61-1.81-.15-3.84,1.54-5.31,4.47Z"/><ellipse class="cls-6" cx="80.51" cy="86.2" rx="1.91" ry="4.27"/><ellipse class="cls-6" cx="90.56" cy="86.2" rx="1.91" ry="4.27"/><path class="cls-6" d="m95.11,27.75c-1.84,1.82-5.25,3.8-10.88,6.05,0,0-6.65-2.38-9.6-6.02-1.66-2.06-2.15-4.51.4-7.18,7.07-7.37,5-7.55,1.68-7.99-3.33-.45,7.48-3.7,7.48.16s.86-7.59,6.01-7.78c0,0-3.71,7.48,2.07,12.63,3.85,3.44,6.52,6.48,2.84,10.14Z"/><path class="cls-6" d="m21.97,141.4c.5,3.04,65.28,21.92,127.15,1.7h0"/><path class="cls-6" d="m21.97,141.4c4.37-5.95,9.12-15.56,24.12-24.13,1.02-.58,2.4-1.42,4.27-2.38,5.83-2.99,16.33-7.02,34.7-7.28,11.59-.16,25.52-.07,40.97,9.08,11.95,7.08,21.06,20.8,23.1,26.4h0"/><path class="cls-6" d="m24.48,71.07s2.25-.12,3.8.1c3.32.49,7.08,1.08,7.49,6.6.41,5.52-7.07,10.47-6.97,16.09.09,5.62,8.59,6.98,10.21,5.23,1.62-1.75,2.16-7.75,6.21-8.73,4.04-.99,10.26,15.88,5.94,18.17-4.32,2.3-.8,6.36-.8,6.36"/><path class="cls-6" d="m100.71,86.72c-.23,5.4-.35,8.1-1.91,10.03-3.32,4.11-10.29,4.04-13.71,4.01-3.46-.03-10.17-.09-13.49-4.17-1.59-1.95-1.77-4.59-2.14-9.88-.28-4.04-.44-6.08.36-7.63,3.18-6.18,13.37-6.41,15.27-6.41,1.52,0,11.51-.03,15.01,6.05.92,1.61.8,3.74.62,7.99Z"/><path class="cls-6" d="m137.36,53.57s-10.52-3.58-12.61,10.99c-.95,6.59,6.28,6.96,9.74,12.24,3.45,5.28,3.32,13.74,4.17,17.75,2.2,10.2,12.73,12.48,11.54.64-.03-.21-.05-.43-.08-.64"/><path class="cls-6" d="m55.73,34.4s.03-.06.03-.09c.91-2.2-15.61-8.05-19.81-16.24-1.83-3.58-4.75-.67-6.88,4.51-3.96,9.56-5.26,26.84,7.79,25.17"/><path class="cls-6" d="m49.56,37.44s-13.66-9.89-15.34-14.01c-2.27-5.57-4.44-2.38-5.15-.84"/><path class="cls-6" d="m42.82,42.07s-12.36-5.81-12.55-10.75"/><path class="cls-6" d="m140.24,21.66c3.84,9.05,5.09,26.61-7.99,25.18-.09,0-.18-.02-.28-.03"/><path class="cls-6" d="m114.14,34.4c-1.39-2.14,15.52-8.03,19.77-16.33,1.74-3.38,4.32-1.07,6.26,3.44"/><path class="cls-6" d="m120.37,37.4s13.6-9.85,15.28-13.97c2.2-5.39,3.78-3.44,4.52-1.92.03.05.04.1.07.15"/><path class="cls-6" d="m126.84,41.96s.03,0,.07-.03c1.01-.46,12.52-5.88,12.7-10.61"/><path class="cls-6" d="m52.95,58.59s.15-9.41,11.42-4.99"/><path class="cls-6" d="m115.11,58.59s-.15-9.41-11.42-4.99"/></g></svg>