<?xml version="1.0" encoding="UTF-8"?><svg xmlns="http://www.w3.org/2000/svg" xmlns:xlink="http://www.w3.org/1999/xlink" viewBox="0 0 1366 768"><defs><style>.cls-1,.cls-2,.cls-3,.cls-4,.cls-5,.cls-6,.cls-7,.cls-8,.cls-9{fill:none;}.cls-10{letter-spacing:.05em;}.cls-11{letter-spacing:-.05em;}.cls-12{letter-spacing:-.05em;}.cls-13{letter-spacing:-.05em;}.cls-2{stroke-width:3px;}.cls-2,.cls-3,.cls-4,.cls-5,.cls-14,.cls-15,.cls-6,.cls-7,.cls-8{stroke-miterlimit:10;}.cls-2,.cls-4,.cls-5,.cls-14,.cls-15,.cls-6,.cls-7,.cls-9{stroke:#000;}.cls-3,.cls-4,.cls-16,.cls-9{opacity:.28;}.cls-3,.cls-8{stroke:#db8f88;}.cls-17{letter-spacing:-.02em;}.cls-5{stroke-width:6px;}.cls-18{clip-path:url(#clippath);}.cls-19{letter-spacing:0em;}.cls-20{letter-spacing:0em;}.cls-21{letter-spacing:.03em;}.cls-22{letter-spacing:.03em;}.cls-23,.cls-14,.cls-24{fill:#008ba6;}.cls-25{fill:#674a74;}.cls-26{fill:#ed99eb;}.cls-27{fill:#ed99a1;}.cls-28{fill:#fff;}.cls-29{fill:#ffd1cc;}.cls-30{fill:#ffd1c4;}.cls-31{fill:#ffd1b5;}.cls-32{fill:#edbcd4;}.cls-33,.cls-34{fill:#81779c;}.cls-35{fill:#c07a49;}.cls-36{fill:#db8f88;}.cls-37{fill:#db8f49;}.cls-38{fill:#d4cbe1;}.cls-39{fill:#c92c5e;}.cls-40{fill:#3cd59c;}.cls-41{fill:#754c24;}.cls-42{fill:#4b4649;}.cls-43{fill:#46bfd3;}.cls-14,.cls-6{stroke-width:2px;}.cls-44{letter-spacing:.04em;}.cls-45{letter-spacing:.02em;}.cls-46{letter-spacing:1.99em;}.cls-47{letter-spacing:.03em;}.cls-48{letter-spacing:.05em;}.cls-49{letter-spacing:.05em;}.cls-50{letter-spacing:.03em;}.cls-51,.cls-52{font-family:SpaceGrotesk-Regular, 'Space Grotesk';font-size:16px;}.cls-53{letter-spacing:.03em;}.cls-15{fill:#e9779c;}.cls-54{letter-spacing:.03em;}.cls-55{letter-spacing:0em;}.cls-52,.cls-56{letter-spacing:.04em;}.cls-57{letter-spacing:.03em;}.cls-58{letter-spacing:.02em;}.cls-59,.cls-60,.cls-61,.cls-62{font-family:SpaceGrotesk-Bold, 'Space Grotesk';font-weight:700;}.cls-59,.cls-63{letter-spacing:.03em;}.cls-59,.cls-62{font-size:18px;}.cls-60{font-size:24px;}.cls-64{letter-spacing:.02em;}.cls-65{letter-spacing:.05em;}.cls-66{letter-spacing:.02em;}.cls-61{font-size:12px;}.cls-61,.cls-67{letter-spacing:.03em;}.cls-68{opacity:.37;}.cls-69{letter-spacing:.02em;}.cls-70{letter-spacing:.04em;}.cls-9{stroke-linecap:round;stroke-linejoin:round;stroke-width:.5px;}.cls-71{letter-spacing:.04em;}.cls-72{letter-spacing:.03em;}.cls-34{opacity:.42;}.cls-24{opacity:.38;}.cls-73{fill:#373f74;opacity:.65;}</style><clipPath id="clippath"><polygon class="cls-1" points="1366.31 787.61 -1.22 791.24 0 -68.78 1367.53 -72.41 1366.31 787.61"/></clipPath></defs><g id="Layer_1"><g class="cls-18"><polygon class="cls-15" points="1382.17 768 -29.79 768 -28.82 0 1383.14 0 1382.17 768"/><g><path class="cls-43" d="m1063.43,92.01l1.02,673.19H303.58l-1.01-673.19c0-10.87,8.81-19.69,19.68-19.69h721.5c10.87,0,19.68,8.82,19.68,19.69Z"/><path class="cls-5" d="m1064.45,765.2H303.58l-1.01-673.19c0-10.87,8.81-19.69,19.68-19.69h721.5c10.87,0,19.68,8.82,19.68,19.69l1.02,673.19Z"/></g><polygon class="cls-24" points="364.34 500.3 340.2 655.74 1031.62 655.74 1004.07 500.3 364.34 500.3"/><polygon class="cls-24" points="335.77 666.38 333.54 762.47 1031.62 762.47 1031.62 666.38 335.77 666.38"/><g class="cls-68"><path class="cls-43" d="m272.96,83.29v684.71H39.08V83.29c.01-6.06,4.9-10.97,10.92-10.97h212.05c6.02,0,10.91,4.91,10.91,10.97Z"/><path class="cls-6" d="m272.95,768H39.08V83.29c.01-6.06,4.9-10.97,10.92-10.97h212.05c6.02,0,10.91,4.91,10.91,10.97v684.71Z"/></g><g class="cls-68"><path class="cls-43" d="m1329.29,80.8v686.54h-233.88V80.8c.01-6.08,4.9-11.01,10.92-11.01h212.05c6.02,0,10.91,4.93,10.91,11.01Z"/><path class="cls-6" d="m1329.28,767.35h-233.87V80.8c.01-6.08,4.9-11.01,10.92-11.01h212.05c6.02,0,10.91,4.93,10.91,11.01v686.54Z"/></g><g><circle class="cls-25" cx="404.56" cy="601.54" r="42.22"/><circle class="cls-2" cx="404.56" cy="601.54" r="42.22"/></g><g><path class="cls-40" d="m404.56,567.23c18.94,0,34.31,15.36,34.31,34.31s-15.37,34.31-34.31,34.31-34.32-15.36-34.32-34.31,15.37-34.31,34.32-34.31Z"/><path class="cls-7" d="m438.87,601.54c0,18.95-15.37,34.31-34.31,34.31s-34.32-15.36-34.32-34.31,15.37-34.31,34.32-34.31,34.31,15.36,34.31,34.31Z"/></g><g><g><path class="cls-25" d="m539.31,571.04v64.38c0,2.3-1.86,4.16-4.16,4.16h-64.38c-2.29,0-4.15-1.86-4.15-4.16v-64.38c0-2.29,1.86-4.15,4.15-4.15h64.38c2.3,0,4.16,1.86,4.16,4.15Zm-7.56,56.83v-49.27c0-2.3-1.86-4.16-4.15-4.16h-49.27c-2.3,0-4.16,1.86-4.16,4.16v49.27c0,2.29,1.86,4.15,4.16,4.15h49.27c2.29,0,4.15-1.86,4.15-4.15Z"/><path class="cls-39" d="m531.75,578.6v49.27c0,2.29-1.86,4.15-4.15,4.15h-49.27c-2.3,0-4.16-1.86-4.16-4.15v-49.27c0-2.3,1.86-4.16,4.16-4.16h49.27c2.29,0,4.15,1.86,4.15,4.16Z"/></g><g><path class="cls-2" d="m535.15,639.58h-64.38c-2.29,0-4.15-1.86-4.15-4.16v-64.38c0-2.29,1.86-4.15,4.15-4.15h64.38c2.3,0,4.16,1.86,4.16,4.15v64.38c0,2.3-1.86,4.16-4.16,4.16Z"/><path class="cls-7" d="m527.6,632.02h-49.27c-2.3,0-4.16-1.86-4.16-4.15v-49.27c0-2.3,1.86-4.16,4.16-4.16h49.27c2.29,0,4.15,1.86,4.15,4.16v49.27c0,2.29-1.86,4.15-4.15,4.15Z"/></g></g><rect class="cls-14" x="814.79" y="689.32" width="185.65" height="49.76" rx="6.44" ry="6.44"/><text class="cls-61" transform="translate(825.94 682.39)"><tspan x="0" y="0">SCORE:</tspan></text><rect class="cls-14" x="365.29" y="689.32" width="183.97" height="49.76" rx="6.41" ry="6.41"/><text class="cls-61" transform="translate(376.43 682.39)"><tspan x="0" y="0">SCORE:</tspan></text><text class="cls-62" transform="translate(382.54 607.4)"><tspan class="cls-63" x="0" y="0">ROL</tspan><tspan class="cls-55" x="34.7" y="0">L</tspan></text><text class="cls-59" transform="translate(482.91 607.4)"><tspan x="0" y="0">SKIP</tspan></text><text class="cls-62" transform="translate(851.3 603.22)"><tspan class="cls-63" x="0" y="0">ROL</tspan><tspan class="cls-55" x="34.7" y="0">L</tspan></text><text class="cls-59" transform="translate(951.67 603.22)"><tspan x="0" y="0">SKIP</tspan></text><g><g><path class="cls-38" d="m1002.07,150.3v327.72c0,2.74-1.11,5.23-2.91,7.03l-.4-.4-31.2-50.1V140.36h24.57c5.49,0,9.94,4.45,9.94,9.94Z"/><path class="cls-25" d="m1000.07,571.86v64.38c0,2.3-1.86,4.16-4.16,4.16h-64.37c-2.3,0-4.16-1.86-4.16-4.16v-64.38c0-2.29,1.86-4.15,4.16-4.15h64.37c2.3,0,4.16,1.86,4.16,4.15Zm-7.55,56.83v-49.27c0-2.3-1.86-4.16-4.16-4.16h-49.27c-2.29,0-4.15,1.86-4.15,4.16v49.27c0,2.29,1.86,4.15,4.15,4.15h49.27c2.3,0,4.16-1.86,4.16-4.15Z"/><path class="cls-33" d="m998.76,484.65l.4.4c-1.8,1.8-4.28,2.91-7.03,2.91h-194.17l-16.16-53.41h185.76l31.2,50.1Z"/><path class="cls-39" d="m992.52,579.42v49.27c0,2.29-1.86,4.15-4.16,4.15h-49.27c-2.29,0-4.15-1.86-4.15-4.15v-49.27c0-2.3,1.86-4.16,4.15-4.16h49.27c2.3,0,4.16,1.86,4.16,4.16Z"/><polygon class="cls-38" points="967.56 140.36 967.56 434.55 781.8 434.55 580.75 434.55 396.85 434.55 396.85 140.36 967.56 140.36"/><path class="cls-25" d="m866.32,560.14c23.32,0,42.22,18.9,42.22,42.22,0,21.82-16.56,39.79-37.81,41.99h-8.82c-21.25-2.2-37.81-20.17-37.81-41.99,0-23.32,18.9-42.22,42.22-42.22Zm34.31,42.22c0-18.95-15.36-34.31-34.31-34.31s-34.31,15.36-34.31,34.31,15.36,34.31,34.31,34.31,34.31-15.36,34.31-34.31Z"/><circle class="cls-40" cx="866.32" cy="602.36" r="34.31"/><path class="cls-25" d="m861.91,644.35h8.82c-1.45.15-2.92.23-4.41.23s-2.96-.08-4.41-.23Z"/><polygon class="cls-25" points="781.8 434.55 797.96 487.96 568.2 487.96 580.75 434.55 781.8 434.55"/><path class="cls-25" d="m790.06,644.35v3.75c0,2.58-2.1,4.67-4.67,4.67h-204.78c-2.57,0-4.67-2.09-4.67-4.67v-3.75h214.12Z"/><path class="cls-25" d="m790.06,518.16v126.19h-214.12v-126.19c0-2.58,2.1-4.67,4.67-4.67h204.78c2.57,0,4.67,2.09,4.67,4.67Zm-10.71,119.38v-108.83c0-2.57-2.09-4.67-4.67-4.67h-183.36c-2.58,0-4.67,2.1-4.67,4.67v108.83c0,2.58,2.09,4.67,4.67,4.67h183.36c2.58,0,4.67-2.09,4.67-4.67Z"/><rect class="cls-23" x="586.65" y="524.04" width="192.7" height="118.17" rx="4.67" ry="4.67"/><path class="cls-33" d="m580.75,434.55l-12.55,53.41h-195.93c-2.92,0-5.54-1.26-7.35-3.26l.37-.32,31.56-49.83h183.9Z"/><path class="cls-38" d="m396.85,140.36v294.19l-31.56,49.83-.37.32c-1.6-1.76-2.58-4.11-2.58-6.68V150.3c0-5.49,4.44-9.94,9.93-9.94h24.58Z"/></g><g><path class="cls-5" d="m999.16,485.05c-1.8,1.8-4.28,2.91-7.03,2.91H372.27c-2.92,0-5.54-1.26-7.35-3.26-1.6-1.76-2.58-4.11-2.58-6.68V150.3c0-5.49,4.44-9.94,9.93-9.94h619.86c5.49,0,9.94,4.45,9.94,9.94v327.72c0,2.74-1.11,5.23-2.91,7.03Z"/><polyline class="cls-7" points="396.85 140.36 396.85 434.55 365.29 484.38"/><polyline class="cls-7" points="998.76 484.65 967.56 434.55 967.56 140.36"/><polyline class="cls-7" points="396.85 434.55 580.75 434.55 781.8 434.55 967.56 434.55"/><path class="cls-2" d="m790.06,644.35v3.75c0,2.58-2.1,4.67-4.67,4.67h-204.78c-2.57,0-4.67-2.09-4.67-4.67v-129.94c0-2.58,2.1-4.67,4.67-4.67h204.78c2.57,0,4.67,2.09,4.67,4.67v126.19Z"/><rect class="cls-7" x="586.65" y="524.04" width="192.7" height="118.17" rx="4.67" ry="4.67"/><path class="cls-2" d="m861.91,644.35c-21.25-2.2-37.81-20.17-37.81-41.99,0-23.32,18.9-42.22,42.22-42.22s42.22,18.9,42.22,42.22c0,21.82-16.56,39.79-37.81,41.99-1.45.15-2.92.23-4.41.23s-2.96-.08-4.41-.23Z"/><circle class="cls-7" cx="866.32" cy="602.36" r="34.31"/><path class="cls-6" d="m995.91,640.4h-64.37c-2.3,0-4.16-1.86-4.16-4.16v-64.38c0-2.29,1.86-4.15,4.16-4.15h64.37c2.3,0,4.16,1.86,4.16,4.15v64.38c0,2.3-1.86,4.16-4.16,4.16Z"/><path class="cls-7" d="m988.36,632.84h-49.27c-2.29,0-4.15-1.86-4.15-4.15v-49.27c0-2.3,1.86-4.16,4.15-4.16h49.27c2.3,0,4.16,1.86,4.16,4.16v49.27c0,2.29-1.86,4.15-4.16,4.15Z"/><line class="cls-7" x1="568.2" y1="487.96" x2="580.75" y2="434.55"/><line class="cls-7" x1="797.96" y1="487.96" x2="781.8" y2="434.55"/></g></g><g><path d="m373.35,536.07v-16.8h6.91c1.06,0,1.99.21,2.8.64.81.42,1.44,1.02,1.9,1.79s.68,1.68.68,2.74v.34c0,1.04-.24,1.95-.71,2.72-.47.78-1.11,1.38-1.92,1.8-.81.42-1.72.64-2.75.64h-3.74v6.14h-3.17Zm3.17-9.02h3.43c.75,0,1.36-.21,1.82-.62.46-.42.7-.98.7-1.7v-.24c0-.72-.23-1.29-.7-1.7s-1.07-.62-1.82-.62h-3.43v4.9Z"/><path d="m388.47,536.07v-16.8h3.17v13.92h7.68v2.88h-10.85Z"/><path d="m400.95,536.07l4.42-16.8h5.52l4.42,16.8h-3.26l-.91-3.7h-6l-.91,3.7h-3.26Zm4.92-6.62h4.51l-2.04-8.18h-.43l-2.04,8.18Z"/><path d="m420.54,536.07v-5.78l-5.71-11.02h3.53l3.55,7.2h.43l3.55-7.2h3.53l-5.71,11.02v5.78h-3.17Z"/><path d="m431.82,536.07v-16.8h10.8v2.88h-7.63v4.01h6.96v2.88h-6.96v4.15h7.78v2.88h-10.94Z"/><path d="m445.74,536.07v-16.8h7.3c1.06,0,1.98.18,2.76.55.78.37,1.39.89,1.82,1.56.43.67.65,1.46.65,2.38v.29c0,1.01-.24,1.82-.72,2.45s-1.07,1.08-1.78,1.37v.43c.64.03,1.14.25,1.49.66.35.41.53.95.53,1.62v5.5h-3.17v-5.04c0-.38-.1-.7-.3-.94-.2-.24-.53-.36-1-.36h-4.42v6.34h-3.17Zm3.17-9.22h3.79c.75,0,1.34-.2,1.76-.61.42-.41.64-.95.64-1.62v-.24c0-.67-.21-1.21-.62-1.62-.42-.41-1.01-.61-1.78-.61h-3.79v4.7Z"/><path d="m472.86,536.07v-14.54h-.43l-2.26,5.33h-3.22l3.43-7.58h5.54v16.8h-3.07Z"/></g><text class="cls-60" transform="translate(886.5 536.07)"><tspan class="cls-67" x="0" y="0">PL</tspan><tspan class="cls-13" x="28.75" y="0">A</tspan><tspan class="cls-67" x="42.86" y="0">YER 2</tspan></text><line class="cls-7" x1="404.56" y1="567.34" x2="404.56" y2="559.43"/><line class="cls-7" x1="404.56" y1="643.64" x2="404.56" y2="635.74"/><line class="cls-7" x1="438.87" y1="603.23" x2="446.78" y2="603.23"/><line class="cls-7" x1="362.34" y1="603.23" x2="370.24" y2="603.23"/><line class="cls-7" x1="468.12" y1="567.85" x2="476.05" y2="576.04"/><line class="cls-7" x1="476.05" y1="630.17" x2="468.12" y2="638.36"/><line class="cls-7" x1="538.17" y1="568.04" x2="530.24" y2="576.24"/><line class="cls-7" x1="530.44" y1="629.51" x2="538.37" y2="637.7"/><line class="cls-7" x1="577.27" y1="514.74" x2="588.23" y2="524.95"/><line class="cls-7" x1="778.32" y1="641.02" x2="789.28" y2="651.23"/><line class="cls-7" x1="588.23" y1="641.02" x2="577.27" y2="651.23"/><line class="cls-7" x1="788.53" y1="515.22" x2="777.57" y2="525.43"/><line class="cls-7" x1="866.32" y1="568.16" x2="866.32" y2="560.25"/><line class="cls-7" x1="866.32" y1="644.46" x2="866.32" y2="636.56"/><line class="cls-7" x1="900.63" y1="604.05" x2="908.54" y2="604.05"/><line class="cls-7" x1="824.1" y1="604.05" x2="832.01" y2="604.05"/><line class="cls-7" x1="928.24" y1="568.87" x2="935.87" y2="576.76"/><line class="cls-7" x1="936.44" y1="631.21" x2="928.52" y2="639.41"/><line class="cls-7" x1="999.12" y1="568.46" x2="991.2" y2="576.65"/><line class="cls-7" x1="992.07" y1="631.21" x2="999.44" y2="638.83"/><text class="cls-62" transform="translate(844.3 608.15)"><tspan class="cls-63" x="0" y="0">ROL</tspan><tspan class="cls-55" x="34.7" y="0">L</tspan></text><text class="cls-59" transform="translate(944.67 608.15)"><tspan x="0" y="0">SKIP</tspan></text><g><g><path class="cls-25" d="m772.28,686.07v46.1c0,3.19-2.59,5.78-5.79,5.78h-165.97c-3.2,0-5.79-2.59-5.79-5.78v-46.1c0-3.2,2.59-5.78,5.79-5.78h165.97c3.2,0,5.79,2.59,5.79,5.78Zm-9.94,38.02v-28.69c0-3.18-2.56-5.76-5.74-5.76h-146.67c-3.2,0-5.76,2.58-5.76,5.76v28.69c0,3.18,2.56,5.76,5.76,5.76h146.67c3.18,0,5.74-2.58,5.74-5.76Z"/><path class="cls-39" d="m762.33,695.4v28.69c0,3.18-2.56,5.76-5.74,5.76h-146.67c-3.2,0-5.76-2.58-5.76-5.76v-28.69c0-3.18,2.56-5.76,5.76-5.76h146.67c3.18,0,5.74,2.58,5.74,5.76Z"/></g><g><path class="cls-6" d="m766.49,737.96h-165.97c-3.2,0-5.79-2.59-5.79-5.78v-46.1c0-3.2,2.59-5.78,5.79-5.78h165.97c3.2,0,5.79,2.59,5.79,5.78v46.1c0,3.19-2.59,5.78-5.79,5.78Z"/><path class="cls-7" d="m756.6,729.85h-146.67c-3.2,0-5.76-2.58-5.76-5.76v-28.69c0-3.18,2.56-5.76,5.76-5.76h146.67c3.18,0,5.74,2.58,5.74,5.76v28.69c0,3.18-2.56,5.76-5.74,5.76Z"/></g></g><text class="cls-62" transform="translate(661.66 717.35)"><tspan class="cls-10" x="0" y="0">PL</tspan><tspan class="cls-17" x="22.39" y="0">A</tspan><tspan class="cls-71" x="33.39" y="0">Y</tspan></text><line class="cls-7" x1="596.23" y1="681.44" x2="605.84" y2="691.33"/><line class="cls-7" x1="605.57" y1="727.86" x2="596.68" y2="736.51"/><line class="cls-7" x1="770.27" y1="681.44" x2="760.86" y2="691.55"/><line class="cls-7" x1="760.86" y1="727.67" x2="770.9" y2="735.91"/><line class="cls-7" x1="574.47" y1="459.06" x2="789.88" y2="459.06"/><g><path class="cls-43" d="m232.62,92.01l.21,672.76h-760.87l-.2-672.76c0-10.87,8.81-19.69,19.68-19.69H212.94c10.87,0,19.68,8.82,19.68,19.69Z"/><path class="cls-5" d="m232.83,764.77h-760.87l-.2-672.76c0-10.87,8.81-19.69,19.68-19.69H212.94c10.87,0,19.68,8.82,19.68,19.69l.21,672.76Z"/></g><polygon class="cls-24" points="-468.32 500.3 -499.11 651.23 198.96 655.74 171.42 500.3 -468.32 500.3"/><polygon class="cls-24" points="-495.05 666.38 -497.27 762.47 200.81 762.47 200.81 666.38 -495.05 666.38"/><rect class="cls-14" x="-16.02" y="689.32" width="185.65" height="49.76" rx="6.44" ry="6.44"/><text class="cls-61" transform="translate(-12.71 682.39)"><tspan x="0" y="0">SCORE:</tspan></text><text class="cls-62" transform="translate(12.65 603.22)"><tspan class="cls-63" x="0" y="0">ROL</tspan><tspan class="cls-55" x="34.7" y="0">L</tspan></text><text class="cls-59" transform="translate(113.02 603.22)"><tspan x="0" y="0">SKIP</tspan></text><g><g><path class="cls-38" d="m171.26,150.3v327.72c0,2.74-1.11,5.23-2.91,7.03l-.4-.4-25.09-50.1V140.36h18.46c5.49,0,9.94,4.45,9.94,9.94Z"/><path class="cls-25" d="m169.26,571.86v64.38c0,2.3-1.86,4.16-4.16,4.16h-64.37c-2.3,0-4.16-1.86-4.16-4.16v-64.38c0-2.29,1.86-4.15,4.16-4.15h64.37c2.3,0,4.16,1.86,4.16,4.15Zm-7.55,56.83v-49.27c0-2.3-1.86-4.16-4.16-4.16h-49.27c-2.29,0-4.15,1.86-4.15,4.16v49.27c0,2.29,1.86,4.15,4.15,4.15h49.27c2.3,0,4.16-1.86,4.16-4.15Z"/><path class="cls-33" d="m167.95,484.65l.4.4c-1.8,1.8-4.28,2.91-7.03,2.91H-32.85l-16.16-53.41h191.87l25.09,50.1Z"/><path class="cls-39" d="m161.71,579.42v49.27c0,2.29-1.86,4.15-4.16,4.15h-49.27c-2.29,0-4.15-1.86-4.15-4.15v-49.27c0-2.3,1.86-4.16,4.15-4.16h49.27c2.3,0,4.16,1.86,4.16,4.16Z"/><polygon class="cls-38" points="142.86 140.36 142.86 434.55 -49.01 434.55 -250.06 434.55 -433.96 434.55 -433.96 140.36 142.86 140.36"/><path class="cls-25" d="m35.51,560.14c23.32,0,42.22,18.9,42.22,42.22,0,21.82-16.56,39.79-37.81,41.99h-8.82c-21.25-2.2-37.81-20.17-37.81-41.99,0-23.32,18.9-42.22,42.22-42.22Zm34.31,42.22c0-18.95-15.36-34.31-34.31-34.31s-34.31,15.36-34.31,34.31,15.36,34.31,34.31,34.31,34.31-15.36,34.31-34.31Z"/><circle class="cls-40" cx="35.51" cy="602.36" r="34.31"/><path class="cls-25" d="m31.1,644.35h8.82c-1.45.15-2.92.23-4.41.23s-2.96-.08-4.41-.23Z"/></g><g><path class="cls-5" d="m168.35,485.05c-1.8,1.8-4.28,2.91-7.03,2.91H-458.54c-2.92,0-5.54-1.26-7.35-3.26-1.6-1.76-2.58-4.11-2.58-6.68V150.3c0-5.49,4.44-9.94,9.93-9.94H161.32c5.49,0,9.94,4.45,9.94,9.94v327.72c0,2.74-1.11,5.23-2.91,7.03Z"/><polyline class="cls-7" points="167.95 484.65 142.86 434.55 142.86 140.36"/><polyline class="cls-7" points="-433.96 434.55 -250.06 434.55 -49.01 434.55 142.86 434.55"/><path class="cls-2" d="m31.1,644.35c-21.25-2.2-37.81-20.17-37.81-41.99,0-23.32,18.9-42.22,42.22-42.22s42.22,18.9,42.22,42.22c0,21.82-16.56,39.79-37.81,41.99-1.45.15-2.92.23-4.41.23s-2.96-.08-4.41-.23Z"/><circle class="cls-7" cx="35.51" cy="602.36" r="34.31"/><path class="cls-6" d="m165.1,640.4h-64.37c-2.3,0-4.16-1.86-4.16-4.16v-64.38c0-2.29,1.86-4.15,4.16-4.15h64.37c2.3,0,4.16,1.86,4.16,4.15v64.38c0,2.3-1.86,4.16-4.16,4.16Z"/><path class="cls-7" d="m157.55,632.84h-49.27c-2.29,0-4.15-1.86-4.15-4.15v-49.27c0-2.3,1.86-4.16,4.15-4.16h49.27c2.3,0,4.16,1.86,4.16,4.16v49.27c0,2.29-1.86,4.15-4.16,4.15Z"/></g></g><text class="cls-60" transform="translate(57.84 536.07)"><tspan class="cls-67" x="0" y="0">PL</tspan><tspan class="cls-11" x="28.75" y="0">A</tspan><tspan class="cls-72" x="42.86" y="0">YER 2</tspan></text><line class="cls-7" x1="35.51" y1="568.16" x2="35.51" y2="560.25"/><line class="cls-7" x1="35.51" y1="644.46" x2="35.51" y2="636.56"/><line class="cls-7" x1="69.82" y1="604.05" x2="77.73" y2="604.05"/><line class="cls-7" x1="-6.71" y1="604.05" x2="1.19" y2="604.05"/><line class="cls-7" x1="97.43" y1="568.87" x2="105.06" y2="576.76"/><line class="cls-7" x1="105.63" y1="631.21" x2="97.7" y2="639.41"/><line class="cls-7" x1="168.31" y1="568.46" x2="160.38" y2="576.65"/><line class="cls-7" x1="161.25" y1="631.21" x2="168.62" y2="638.83"/><text class="cls-62" transform="translate(12.65 608.15)"><tspan class="cls-63" x="0" y="0">ROL</tspan><tspan class="cls-55" x="34.7" y="0">L</tspan></text><text class="cls-59" transform="translate(114.02 608.15)"><tspan x="0" y="0">SKIP</tspan></text><g><path class="cls-43" d="m1891.93,89.49v675.99h-760.86V89.49c0-10.87,8.81-19.69,19.68-19.69h721.5c10.87,0,19.68,8.82,19.68,19.69Z"/><path class="cls-5" d="m1891.93,765.48h-760.86V89.49c0-10.87,8.81-19.69,19.68-19.69h721.5c10.87,0,19.68,8.82,19.68,19.69v675.99Z"/></g><polygon class="cls-24" points="1192.85 500.3 1162.06 651.23 1860.13 655.74 1832.59 500.3 1192.85 500.3"/><polygon class="cls-24" points="1164.28 666.38 1162.06 762.47 1860.13 762.47 1860.13 666.38 1164.28 666.38"/><g><circle class="cls-25" cx="1233.08" cy="601.54" r="42.22"/><circle class="cls-2" cx="1233.08" cy="601.54" r="42.22"/></g><g><path class="cls-40" d="m1233.08,567.23c18.94,0,34.31,15.36,34.31,34.31s-15.37,34.31-34.31,34.31-34.32-15.36-34.32-34.31,15.37-34.31,34.32-34.31Z"/><path class="cls-7" d="m1267.39,601.54c0,18.95-15.37,34.31-34.31,34.31s-34.32-15.36-34.32-34.31,15.37-34.31,34.32-34.31,34.31,15.36,34.31,34.31Z"/></g><g><g><path class="cls-25" d="m1367.83,571.04v64.38c0,2.3-1.86,4.16-4.16,4.16h-64.38c-2.29,0-4.15-1.86-4.15-4.16v-64.38c0-2.29,1.86-4.15,4.15-4.15h64.38c2.3,0,4.16,1.86,4.16,4.15Zm-7.56,56.83v-49.27c0-2.3-1.86-4.16-4.15-4.16h-49.27c-2.3,0-4.16,1.86-4.16,4.16v49.27c0,2.29,1.86,4.15,4.16,4.15h49.27c2.29,0,4.15-1.86,4.15-4.15Z"/><path class="cls-39" d="m1360.27,578.6v49.27c0,2.29-1.86,4.15-4.15,4.15h-49.27c-2.3,0-4.16-1.86-4.16-4.15v-49.27c0-2.3,1.86-4.16,4.16-4.16h49.27c2.29,0,4.15,1.86,4.15,4.16Z"/></g><g><path class="cls-2" d="m1363.67,639.58h-64.38c-2.29,0-4.15-1.86-4.15-4.16v-64.38c0-2.29,1.86-4.15,4.15-4.15h64.38c2.3,0,4.16,1.86,4.16,4.15v64.38c0,2.3-1.86,4.16-4.16,4.16Z"/><path class="cls-7" d="m1356.12,632.02h-49.27c-2.3,0-4.16-1.86-4.16-4.15v-49.27c0-2.3,1.86-4.16,4.16-4.16h49.27c2.29,0,4.15,1.86,4.15,4.16v49.27c0,2.29-1.86,4.15-4.15,4.15Z"/></g></g><rect class="cls-14" x="1193.8" y="689.32" width="183.97" height="49.76" rx="6.41" ry="6.41"/><text class="cls-61" transform="translate(1197.11 682.39)"><tspan x="0" y="0">SCORE:</tspan></text><text class="cls-62" transform="translate(1210.21 607.4)"><tspan class="cls-63" x="0" y="0">ROL</tspan><tspan class="cls-55" x="34.7" y="0">L</tspan></text><text class="cls-59" transform="translate(1311.58 607.4)"><tspan x="0" y="0">SKIP</tspan></text><g><g><polygon class="cls-38" points="1796.08 140.36 1796.08 434.55 1610.32 434.55 1409.27 434.55 1219.27 434.55 1219.27 140.36 1796.08 140.36"/><path class="cls-33" d="m1409.27,434.55l-12.55,53.41h-195.93c-2.92,0-5.54-1.26-7.35-3.26l.37-.32,25.46-49.83h190Z"/><path class="cls-38" d="m1219.27,140.36v294.19l-25.46,49.83-.37.32c-1.6-1.76-2.58-4.11-2.58-6.68V150.3c0-5.49,4.44-9.94,9.93-9.94h18.48Z"/></g><g><path class="cls-5" d="m1827.68,485.05c-1.8,1.8-4.28,2.91-7.03,2.91h-619.86c-2.92,0-5.54-1.26-7.35-3.26-1.6-1.76-2.58-4.11-2.58-6.68V150.3c0-5.49,4.44-9.94,9.93-9.94h619.86c5.49,0,9.94,4.45,9.94,9.94v327.72c0,2.74-1.11,5.23-2.91,7.03Z"/><polyline class="cls-7" points="1219.27 140.36 1219.27 434.55 1193.81 484.38"/><polyline class="cls-7" points="1219.27 434.55 1409.27 434.55 1610.32 434.55 1796.08 434.55"/></g></g><text class="cls-60" transform="translate(1192.45 536.07)"><tspan class="cls-67" x="0" y="0">PL</tspan><tspan class="cls-11" x="28.75" y="0">A</tspan><tspan class="cls-72" x="42.86" y="0">YER 1</tspan></text><line class="cls-7" x1="1233.07" y1="567.34" x2="1233.07" y2="559.43"/><line class="cls-7" x1="1233.07" y1="643.64" x2="1233.07" y2="635.74"/><line class="cls-7" x1="1267.38" y1="603.23" x2="1275.29" y2="603.23"/><line class="cls-7" x1="1296.64" y1="567.85" x2="1304.56" y2="576.04"/><line class="cls-7" x1="1304.56" y1="630.17" x2="1296.64" y2="638.36"/><line class="cls-7" x1="1366.69" y1="568.04" x2="1358.76" y2="576.24"/><line class="cls-7" x1="1358.96" y1="629.51" x2="1366.88" y2="637.7"/><g class="cls-16"><g><path class="cls-28" d="m16.19,186.84c-.88-.37-2.06-.71-3.6-.84-5.92-3.44-6.89-15.41-8.74-18.55-.55-.94-1.18-1.09-2.04,0-3.64,4.62-12.8,16.41-13.38,17.17-1.11.5-2.46,1.22-4.1,2.21.86.29.62,1.91,1.27,3.56,1.2,3.06,5.21,3.21,6.28,4.97,4.38,7.18,6.24,14.61,4.03,19.95,7.09,5.13,10.03,11.5,10.03,11.5l-1.63.14s-3.49-4.92-10.3-8.62c-.62.71-1.37,1.34-2.23,1.89-7.37,4.78-22.71,1.52-22.71,1.52-.36-.82-6.33-14.97,1.43-24.82.1-.12.2-.24.3-.36-.56.45-1.13.91-1.72,1.38-.11.09-.22.18-.32.27-2.94,2.39-5.6,3.74-7.86,3.56-2.11-.17-4.73-.11-6.86,1.69-.51.42-.57,1.86-1.07,2.37-1.52,1.53-3.01,3.29-4.44,5.22l.09.07s5.43-4.44,9.51,4.41c3.14,6.85,4.03,13.26,1.35,16.7,2.32.12,4.64.4,6.88.89,1.37.29,2.69.62,3.97.99.94-.59,5.15,1.6,6.87,2.42.03.02.07.03.11.05,2.44,1.04,4.7,2.2,6.81,3.45.02,0,.03.02.05.03,1.9.97,3.38,1.68,3.65,1.62.02,0,.03,0,.09,0,1.05.16,3.07,1.75,4.31,2.79.75.62,1.9,1.57,3.28,2.76,2.55,2.21,5.11,4.59,5.75,5.27.58.61,1.09,1.45,1.51,2.45,7.13-.09,13.48,2.39,17.38,8.23.24.37.47.75.69,1.13,3.41-2.88,10.14-3.55,13.54.37,2.95,3.39,1.75,8.29,1.61,8.82,0,0,5.38-6.87,10.56,1.8.5.84.96,1.68,1.38,2.52-.08-5.67-1.29-18.96-11.24-30.17-4.72-5.32-9.91-8.47-13.69-10.3,1.02-1.81,2.63-4.38,4.99-7.14-6.75.34-11.18-5.37-11.62-5.97-1.25-2.55-2.95-7.02-2.59-12.58.88-13.34,12.83-20.66,14.17-21.44.94.41,2.15,1,3.52,1.79l.22-.38c-6.03-3.39-11.56-6.14-14.71-9.81.1,1.91-.13,3.61-.75,5Zm-13.69,22.69c.75-1.13,1.74-2.48,3.3-3.12,2.08-.86,2.38-.89,3.63-.76,2.04.21-3.3,1.16-1.74,4.33.78,1.59,2.99.64,2.87,3.05-.15,2.93-2.76,3.48-3.41,3.42-.42-.05-.87-.13-1.33-.25-.72-.19-1.35-.46-1.91-.77-2.12-1.17-2.75-3.89-1.41-5.91Zm9.4,20.85c.33-.55,3.77.21,6.17,2.43,2.86,2.64,3.39,6.55,3.06,6.72-.19.09-.55-1.07-1.86-1.62-1.05-.45-2.35-.31-2.66-.33-1.57-.1-1.94.06-2.51-.46-1.13-1.04-.23-2.99-1.21-5.1-.51-1.11-1.14-1.38-1-1.63Z"/><path class="cls-30" d="m6.31,155.49c-10.79,10-23.49,29.05-33.79,39.32,1.54-1.4,3.18-2.42,4.74-3.16,1.35-1,2.59-1.87,3.74-2.64h.01c1.86-1.51,2.61-2.39,3.32-2.15,1.64-1,2.99-1.72,4.1-2.21.59-.76,9.74-12.55,13.38-17.17.86-1.09,1.49-.94,2.04,0l.66-.37s2.35-1.91,5.11-.71c-.34-1.29-.74-2.86-1.4-5.09-.01-.05-1.8-5.93-1.92-5.81Z"/><path class="cls-30" d="m-66.3,236.61h0c29.69,53.22,86.21,81.41,88.5,79.65.65-5.93,2.88-13.91.34-25.89-3.55.59-25.31,3.65-33.51-9.47-7.15.79-14.97-.87-14.97-.87-.36-.82-18.12-21.31-10.37-31.16,2.02-2.56,4.39-13.65,6.65-14.73-1.28-.36-2.6-.7-3.97-.99-2.24-.48-4.56-.76-6.88-.89-.78,1.01-1.86,1.76-3.29,2.19-3.03.92-7.41,0-11.13-1.21-5.04.91-9.17,2.25-11.36,3.37Z"/><path class="cls-37" d="m4.52,167.09l-.66.37c1.85,3.14,2.82,15.11,8.74,18.55,1.54.13,2.71.46,3.6.84.62-1.39.86-3.09.75-5-.62-.72-1.14-1.46-1.56-2.26-4.27-8.11-4.75-9.47-5.76-13.2-2.76-1.2-5.11.71-5.11.71Z"/><path class="cls-30" d="m-66.31,236.62c-2.14,2.76-2.85,6.39-1.74,9.78,1.03,3.12,2.45,5.9,3.14,7.46,6.21,13.86,18.8,25.64,30.01,35.71,6.57,5.91,18.81,16.86,34.33,25.74,2.74,1.57,8.59,4.77,14.53,4.9,3.99.09,6.8-2.99,8.22-3.94-2.28,1.76-58.81-26.43-88.5-79.64Z"/><path class="cls-37" d="m-29.67,234.13c-2.26,1.08-4.63,12.18-6.65,14.73-7.76,9.85,10.01,30.34,10.37,31.16,0,0,7.82,1.66,14.97.87-1.51-2.41-2.57-5.36-2.97-8.99,0,0-10.11-8.64,2.21-13.74,4.73-1.96,9.57-3.09,14.12-3.2-.67-.66-1.36-1.34-2.08-2.02-4.49-4.26-9.56-8.96-16.13-12.86-.02-.01-.04-.02-.05-.03-2.1-1.08-4.73-2.47-6.81-3.45-2.17-.93-4.49-1.76-6.98-2.47Z"/><path class="cls-28" d="m-4.08,215.32c-.45,1.11-1.08,2.13-1.91,3.03,6.82,3.7,10.3,8.62,10.3,8.62l1.63-.14s-2.94-6.38-10.03-11.5Z"/><path d="m5.8,206.41c-1.57.64-2.55,1.99-3.3,3.12-1.34,2.01-.71,4.74,1.41,5.91.56.31,1.19.58,1.91.77.46.12.91.2,1.33.25.65.06,3.26-.49,3.41-3.42.12-2.41-2.09-1.46-2.87-3.05-1.56-3.18,3.78-4.13,1.74-4.33-1.25-.13-1.56-.1-3.63.76Z"/><path class="cls-36" d="m27.92,190.23c-1.33.78-13.29,8.1-14.17,21.44-.36,5.56,1.34,10.03,2.59,12.58.44.6,4.86,6.31,11.62,5.97.32-.39.67-.78,1.03-1.17,2.71-2.97,4.36-3.98,5.98-5.48,6.08-5.68,6.05-13.17,7.33-17.24-.56-3.17-1.69-6.11-3.13-8.47-.86-1.4-3.55-3.23-6.3-4.97-.49-.31-.97-.59-1.43-.86-1.37-.79-2.58-1.38-3.52-1.79Z"/><path class="cls-37" d="m31.66,191.65l-.22.38c.46.27.94.56,1.43.86,2.74,1.74,5.44,3.56,6.3,4.97,1.44,2.36,2.57,5.3,3.13,8.47.46-1.49,1.1-2.52,2.28-2.83,1.66-.43,3.68.74,5.63,2.49-1.31-1.41-2.75-2.87-4.34-4.38-4.42-4.23-9.47-7.3-14.21-9.96Z"/><path class="cls-28" d="m-12.19,241.7c-.27.06-1.74-.65-3.65-1.62,6.57,3.91,11.64,8.6,16.13,12.86.72.68,1.41,1.36,2.08,2.02.13,0,.25,0,.37,0-.42-1-.93-1.84-1.51-2.45-.64-.68-3.2-3.06-5.75-5.27-1.38-1.19-2.53-2.14-3.28-2.76-1.24-1.03-3.26-2.63-4.31-2.79-.05,0-.07,0-.09,0Z"/><path class="cls-27" d="m18.07,232.81c-2.4-2.22-5.84-2.98-6.17-2.43-.15.25.49.52,1,1.63.98,2.11.08,4.06,1.21,5.1.57.53.95.37,2.51.46.31.02,1.61-.11,2.66.33,1.31.56,1.67,1.71,1.86,1.62.33-.16-.2-4.08-3.06-6.72Z"/><path class="cls-37" d="m-11.74,258.16c-12.32,5.11-2.21,13.74-2.21,13.74.4,3.62,1.45,6.58,2.97,8.99,2.87-.31,5.64-1.02,7.75-2.39,7.72-5,8.54-16.63,6.24-22.92-.2-.21-.41-.42-.62-.63-4.54.12-9.39,1.25-14.12,3.2Z"/><path class="cls-42" d="m70.44,237.68c-.62-3.13-1.62-5.85-2.82-7.89h0c-1.98-2.08-3.53-4.62-5.41-7.66-2.36-3.47-3.44-5.33-4.38-6.77,0,0-.01-.02-.02-.03-1.97-2.79-4.39-5.89-7.6-9.33-1.95-1.76-3.97-2.93-5.63-2.49-1.18.31-1.82,1.34-2.28,2.83.95,5.36.28,11.38-3.24,16.41-1.55,2.21-5.03,7.18-11.1,7.49-2.36,2.77-3.97,5.34-4.99,7.14,3.79,1.83,8.97,4.98,13.69,10.3,9.95,11.2,11.16,24.5,11.24,30.17.22.41.41.82.6,1.24,2.25-.97,8.91-4.21,14.44-10.75,1.31-2.19,2.34-4.05,3.16-5.66,0,0,.56-.56,1.51-1.5.82-1.69,1.55-3.52,2.11-5.49,1.81-6.23,1.77-12.69.7-18Zm-33.96,5.88c-.12-.65.23-3.3,3.14-3.67,2.39-.31,1.62,1.97,3.26,2.61,3.29,1.3,3.82-4.09,4.19-2.07.23,1.24.22,1.54-.47,3.68-.52,1.61-1.79,2.7-2.85,3.54-1.9,1.49-4.67,1.07-6-.94-.35-.53-.67-1.14-.92-1.84-.16-.45-.26-.89-.34-1.3Z"/><path class="cls-42" d="m39.06,222.73c3.52-5.03,4.18-11.05,3.24-16.41-1.28,4.06-1.24,11.55-7.33,17.24-1.61,1.51-3.27,2.51-5.98,5.48-.36.39-.71.79-1.03,1.17,6.07-.31,9.55-5.28,11.1-7.49Z"/><path class="cls-28" d="m2.75,254.96c-.12,0-.25,0-.37,0,.21.22.42.42.62.63-.08-.22-.16-.42-.25-.63Z"/><path class="cls-28" d="m2.75,254.96c.09.2.17.41.25.63,14.06,14.27,16.65,24.68,17.94,28.75.67,2.11,1.19,4.12,1.59,6.03.32-.06.49-.09.49-.09,0,0,.02-.1.06-.3-1.83-5.73-2.99-10.68-3.76-14.6-.98-4.95-1.23-7.79.46-9.99.29-.39.64-.74,1.03-1.07-.22-.39-.44-.76-.69-1.13-3.9-5.84-10.25-8.32-17.38-8.23Z"/><path class="cls-42" d="m57.81,215.32c-.67-1.01-4.04-6.14-7.6-9.33,3.21,3.44,5.63,6.54,7.6,9.33Z"/><path class="cls-42" d="m-10.99,280.89c8.21,13.12,29.97,10.07,33.51,9.47-.4-1.9-.92-3.91-1.59-6.03-1.29-4.07-3.88-14.48-17.94-28.75,2.31,6.29,1.49,17.92-6.24,22.92-2.11,1.37-4.88,2.08-7.75,2.39Z"/><path class="cls-28" d="m57.82,215.35c.95,1.44,2.02,3.31,4.38,6.77-1.24-2.03-2.62-4.27-4.38-6.77Z"/><path d="m39.61,239.89c-2.91.37-3.26,3.02-3.14,3.67.08.42.19.85.34,1.3.25.7.57,1.31.92,1.84,1.33,2.02,4.1,2.44,6,.94,1.07-.84,2.33-1.93,2.85-3.54.69-2.14.7-2.44.47-3.68-.36-2.02-.9,3.38-4.19,2.07-1.64-.65-.87-2.93-3.26-2.61Z"/><path class="cls-36" d="m20.81,264.33c-.39.33-.74.68-1.03,1.07-1.69,2.2-1.44,5.04-.46,9.99.77,3.92,1.93,8.87,3.76,14.6.4-2.24,2.77-16.63-2.27-25.65Z"/><path class="cls-42" d="m62.32,222.29c-.04-.06-.07-.11-.12-.16,1.88,3.04,3.42,5.58,5.41,7.65-.25-.43-.51-.83-.77-1.19-.43-.58-2.16-2.85-4.52-6.3Z"/><path class="cls-36" d="m34.36,264.7c-3.41-3.93-10.13-3.25-13.54-.37,5.03,9.03,2.67,23.41,2.27,25.65.88,2.81,1.93,5.79,3.17,8.94,0,0,13.5,2.78,20.02-1.51.36-.24.7-.48,1.02-.75,4.57-3.85,4.37-10.62,1.22-17.58-.26.11-.46.2-.59.25,0-.41.01-.91,0-1.49-.42-.84-.88-1.68-1.38-2.52-5.19-8.67-10.56-1.8-10.56-1.8.14-.53,1.35-5.43-1.61-8.82Z"/><path class="cls-42" d="m70.47,232.2c-1.08-.73-2-1.53-2.85-2.42,1.2,2.04,2.19,4.76,2.82,7.89,7.91,2.39,17.7,3.09,14.62,6.14-3.82,3.77-13.66,13.58-17.43,17.35-1.33,2.73-2.95,5.11-4.67,7.16-1.72,2.86-3.92,6.26-6.7,10.31l.04.02c2.34-3.5,6.76-7.2,11.48-11.51,13.09-11.92,18.52-17.99,21.03-20.55,2.51-2.59,3.01-3.36,4.78-5.17,2.25-2.3,4.9-4.94,4.5-4.91-1.7.11-9.12.03-19.12-1.85,0,0-4.65.15-8.49-2.46Z"/><path class="cls-42" d="m23.08,289.98c-.04.19-.06.3-.06.3,0,0-.17.03-.49.09,2.54,11.99.32,19.97-.34,25.89,3.36-2.25,17.59-12.77,25.36-19.29l-.27-.31c-.32.27-.65.51-1.02.75-6.52,4.29-20.02,1.51-20.02,1.51-1.24-3.15-2.29-6.13-3.17-8.94Z"/><path class="cls-36" d="m70.44,237.68c1.07,5.31,1.11,11.77-.7,18-.57,1.98-1.29,3.8-2.11,5.49,3.77-3.77,13.61-13.58,17.43-17.35,3.08-3.05-6.71-3.76-14.62-6.14Z"/><path class="cls-36" d="m47.91,277.84c.02.58,0,1.08,0,1.49.14-.05.33-.13.59-.25-.19-.42-.38-.83-.6-1.24Z"/><path class="cls-42" d="m67.62,261.17c-.95.94-1.51,1.5-1.51,1.5-.82,1.6-1.85,3.47-3.16,5.66,1.72-2.05,3.34-4.43,4.67-7.16Z"/><path class="cls-37" d="m56.25,278.63c2.78-4.05,4.97-7.45,6.7-10.31-5.53,6.54-12.19,9.78-14.44,10.75,3.15,6.96,3.34,13.73-1.22,17.58l.27.31c2.25-1.9,3.97-3.46,4.71-4.38,3.74-4.64,1.75-6.67,2.38-10.18.23-1.24.8-2.48,1.65-3.75l-.04-.02Z"/></g><g><path class="cls-7" d="m67.62,229.78c.85.89,1.78,1.69,2.85,2.42,3.83,2.6,8.49,2.46,8.49,2.46,9.99,1.88,17.41,1.96,19.12,1.85.4-.03-2.25,2.61-4.5,4.91-1.77,1.82-2.27,2.58-4.78,5.17-2.5,2.57-7.94,8.63-21.03,20.55-4.72,4.31-9.14,8.01-11.48,11.51-.85,1.27-1.43,2.51-1.65,3.75-.63,3.51,1.36,5.54-2.38,10.18-.74.92-2.46,2.48-4.71,4.38-7.77,6.52-22,17.04-25.36,19.29-1.42.95-4.23,4.03-8.22,3.94-5.94-.13-11.79-3.33-14.53-4.9-15.51-8.87-27.75-19.82-34.33-25.74-11.21-10.07-23.79-21.85-30.01-35.71-.69-1.56-2.11-4.33-3.14-7.46-1.12-3.39-.4-7.02,1.74-9.78"/><path class="cls-7" d="m57.82,215.35c1.76,2.5,3.15,4.75,4.38,6.77,1.88,3.04,3.42,5.58,5.41,7.65"/><path class="cls-7" d="m-28.52,195.83c.35-.33.7-.67,1.05-1.02,10.3-10.28,23-29.32,33.79-39.32.13-.13,1.91,5.76,1.92,5.81.65,2.23,1.06,3.8,1.4,5.09,1,3.73,1.48,5.09,5.76,13.2.42.8.94,1.54,1.56,2.26,3.15,3.67,8.69,6.42,14.71,9.81,4.74,2.67,9.79,5.73,14.21,9.96,1.59,1.51,3.03,2.97,4.34,4.38,3.21,3.44,5.63,6.54,7.6,9.33"/><path class="cls-7" d="m10.57,213.04c-.15,2.93-2.76,3.48-3.41,3.42-.42-.05-.87-.13-1.33-.25-.72-.19-1.35-.46-1.91-.77-2.12-1.17-2.75-3.89-1.41-5.91.75-1.13,1.74-2.48,3.3-3.12,2.08-.86,2.38-.89,3.63-.76,2.04.21-3.3,1.16-1.74,4.33.78,1.59,2.99.64,2.87,3.05Z"/><path class="cls-7" d="m39.61,239.89c-2.91.37-3.26,3.02-3.14,3.67.08.42.19.85.34,1.3.25.7.57,1.31.92,1.84,1.33,2.02,4.1,2.44,6,.94,1.07-.84,2.33-1.93,2.85-3.54.69-2.14.7-2.44.47-3.68-.36-2.02-.9,3.38-4.19,2.07-1.64-.65-.87-2.93-3.26-2.61Z"/><path class="cls-7" d="m22.19,316.26c-2.28,1.76-58.81-26.43-88.5-79.64"/><path class="cls-7" d="m-15.83,240.07c6.57,3.91,11.64,8.6,16.13,12.86.72.68,1.41,1.36,2.08,2.02.21.22.42.42.62.63,14.06,14.27,16.65,24.68,17.94,28.75.67,2.11,1.19,4.12,1.59,6.03,2.54,11.99.32,19.97-.34,25.89"/><path class="cls-7" d="m66.11,262.67s.56-.56,1.51-1.5c3.77-3.77,13.61-13.58,17.43-17.35,3.08-3.05-6.71-3.76-14.62-6.14-3.5-1.05-6.62-2.43-8.11-4.48"/><path class="cls-7" d="m-11.6,184.67l.03-.04c.59-.76,9.74-12.55,13.38-17.17.86-1.09,1.49-.94,2.04,0,1.85,3.14,2.82,15.11,8.74,18.55.04.03.08.04.12.07"/><path class="cls-7" d="m67.8,253.09s3.26-.14-1.69,9.58c-.82,1.6-1.85,3.47-3.16,5.66-1.72,2.86-3.92,6.26-6.7,10.31-.07.09-.14.2-.21.3"/><path class="cls-7" d="m5.94,226.82s-2.94-6.38-10.03-11.5c-.88-.65-1.84-1.27-2.87-1.87"/><path class="cls-7" d="m4.32,226.97s-3.49-4.92-10.3-8.62c-1.45-.8-3.06-1.54-4.82-2.16"/><path class="cls-7" d="m26.23,245.58s8.34,3.08,14.34,11.81"/><path class="cls-7" d="m26.21,247.21s7.64,4.56,11.93,14.24"/><path class="cls-7" d="m18.37,188.26s-.63-.77-2.18-1.42c-.88-.37-2.06-.71-3.6-.84-1.06-.1-2.29-.09-3.72.06"/><path class="cls-7" d="m59.61,228.08s3.14,2.21,2.93,9.3"/><line class="cls-7" x1="67.61" y1="229.78" x2="67.62" y2="229.78"/><path class="cls-7" d="m57.81,215.32s.01.02.02.03"/></g></g><g><g class="cls-16"><g><g><path class="cls-27" d="m87.02,273.84c.38-.5,1.07-1.45,2.08-2.55-.77-.15-1.63-.04-2.04.04-.16.03-.32.07-.47.13-.81.3-4.07,1.45-5.24,1.24,0,0-1.76-.32-2.2-.87-1.27,1.88,2.09,8.49,6.7,3.46h0c.48-.81.95-1.17,1.15-1.44Z"/><path class="cls-32" d="m90.2,270.16c-6.1-4.27-7.24,1.45-9.94,1.19-.52-.05-.88.14-1.1.46.44.55,2.2.87,2.2.87,1.17.21,4.43-.94,5.24-1.24.15-.05.31-.1.47-.13.41-.08,1.27-.19,2.04-.04-1.01,1.11-1.7,2.06-2.08,2.55-.21.27-.67.63-1.15,1.43h0c-1.22,2.04-2.58,6.88-.22,20.12.05.25-1.03.7-.01.94.14.03.2.11.23.25.13.69.27,1.4.42,2.14.29,1.41-.26,2.9-.22,3.76.01.24.04.46.1.69.37-1.79,4.04-6.75,7.35-9.44,4.28-3.47,7.58-3.83,11.1-4.3,7.38-.98,10.3.75,11.68,1.29,4.94,1.93,6.81,4.64,8.41,6.25.17-2.03-1.05-3.11-1.15-3.94-.06-.49.3-1.15.24-1.62-.08-.6-.58-1.01-.67-1.58-1.84-12.74-4.32-17.06-6.38-19.09-.38-.37-.74-.66-1.08-.92-.17-.13-.35-.24-.53-.36-.06-.04-.12-.08-.17-.12-.58-.43-1.38-1-2.37-1.58.66-.31,1.42-.43,1.8-.47.16-.02.32-.02.49,0,.87.05,4.32.21,5.38-.33,0,0,1.59-.82,1.85-1.47-.3-.25-.7-.32-1.18-.12-2.5,1.02-5.23-4.07-9.78,1.63l-.05-.04c-2.73-1.36-6.43-2.51-10.74-1.88h-.03c-4.56.69-7.89,2.99-10.12,5.12Zm-.56,15.21c-.98-.28-1.51-1.46-1.18-2.64s1.39-1.92,2.37-1.65c.98.27,1.51,1.45,1.18,2.64-.33,1.18-1.39,1.92-2.37,1.65Zm4.57-5.39c-.13-.42-.19-.94-.02-1.47.08-.24.2-.57.53-.82.42-.3,1-.31,1.43-.1.34.16.52.43.64.62.57.87.3,1.86.15,2.01-.1.1-.21.2-.34.29-.2.14-.4.25-.59.33-.73.3-1.56-.1-1.8-.86Zm3.72,4.52c-.09-.45-.32-1.64.26-2.88,1.02-2.16,3.68-2.62,4.06-2.69l.2-.03c.45-.07,3.36-.41,4.96,1.48.72.86.87,1.82.93,2.26.08.53.2,1.89-.57,3.24-1.19,2.09-3.53,2.45-3.93,2.51-.41.06-2.7.42-4.43-1.16-1.14-1.04-1.41-2.35-1.49-2.74Zm10.16-5.93c-.19-.1-.74-.96-.44-1.96.06-.21.15-.52.43-.77.36-.32.91-.48,1.4-.31.39.14.61.42.75.63.32.46.41.97.4,1.41,0,.79-.69,1.41-1.48,1.34-.21-.02-.43-.06-.66-.15-.14-.05-.28-.11-.4-.18Zm6.15,1.87c-.66-1.04-.49-2.32.37-2.87.86-.54,2.09-.14,2.75.89s.49,2.32-.37,2.87c-.86.54-2.09.14-2.75-.89Z"/><path class="cls-27" d="m86.15,303.17s0,0,0,0c19.7,3.37,38.52-5.27,38.54-6.21-1.6-1.61-3.47-4.32-8.41-6.25-1.39-.54-4.3-2.27-11.68-1.29-3.53.47-6.82.84-11.1,4.3-3.32,2.68-6.98,7.64-7.35,9.44Z"/><path class="cls-36" d="m86.15,303.17c.26,1.11,1.04,2.04,2.14,2.46,1.01.38,2.01.59,2.55.73,4.81,1.27,10.41.48,15.29-.31,2.86-.47,8.18-1.34,13.64-3.47.96-.38,2.99-1.22,4.24-2.71.85-1,.64-2.35.69-2.91-.02.95-18.85,9.58-38.54,6.21Z"/><path class="cls-26" d="m88.45,282.74c-.33,1.18.2,2.36,1.18,2.64.98.27,2.04-.47,2.37-1.65.33-1.19-.2-2.37-1.18-2.64-.98-.27-2.04.47-2.37,1.65Z"/><path d="m94.18,278.52c-.17.53-.11,1.04.02,1.47.24.76,1.06,1.15,1.8.86.19-.08.39-.18.59-.33.13-.09.24-.19.34-.29.15-.15.43-1.13-.15-2.01-.12-.19-.29-.45-.64-.62-.43-.21-1.01-.2-1.43.1-.34.24-.46.58-.53.82Z"/><path class="cls-26" d="m98.18,281.63c-.58,1.24-.35,2.43-.26,2.88.08.39.35,1.7,1.49,2.74,1.73,1.58,4.02,1.23,4.43,1.16.39-.06,2.74-.42,3.93-2.51.77-1.35.65-2.71.57-3.24-.07-.44-.21-1.4-.93-2.26-1.59-1.9-4.51-1.55-4.96-1.48l-.2.03c-.38.06-3.04.52-4.06,2.69Zm2.46,1.75c-.11-.72.07-1.34.39-1.38s.66.49.77,1.21-.07,1.34-.39,1.38-.67-.49-.77-1.21Zm3.66-.54c-.11-.72.07-1.34.39-1.38s.67.49.77,1.21-.07,1.34-.39,1.38-.67-.49-.77-1.21Z"/><path d="m101.03,281.99c-.32.05-.49.67-.39,1.38s.45,1.26.77,1.21.49-.67.39-1.38-.45-1.26-.77-1.21Z"/><ellipse cx="104.89" cy="282.75" rx=".59" ry="1.31" transform="translate(-40.15 18.34) rotate(-8.39)"/><path d="m107.64,276.62c-.29,1,.25,1.86.44,1.96.12.07.26.13.4.18.23.08.45.13.66.15.79.07,1.47-.54,1.48-1.34,0-.45-.09-.95-.4-1.41-.14-.21-.35-.49-.75-.63-.49-.17-1.04-.01-1.4.31-.28.26-.37.56-.43.77Z"/><path class="cls-26" d="m114.59,277.58c-.86.54-1.03,1.83-.37,2.87.65,1.04,1.88,1.44,2.75.89.86-.55,1.03-1.83.37-2.87s-1.89-1.44-2.75-.89Z"/><path class="cls-27" d="m115.13,269.45c.18.12.36.23.53.36.34.26.7.55,1.08.92,5.84,3.42,7.12-3.85,5.37-5.27-.26.65-1.85,1.47-1.85,1.47-1.06.54-4.51.38-5.38.33-.16,0-.32,0-.49,0-.38.04-1.14.17-1.8.47.99.59,1.79,1.16,2.37,1.58.06.04.11.08.17.12Z"/></g><g><path class="cls-7" d="m90.18,270.18s.01,0,.02-.02c2.23-2.13,5.56-4.43,10.12-5.11h.03c4.32-.64,8.02.51,10.74,1.87"/><path class="cls-7" d="m85.86,275.27c.48-.8.95-1.16,1.15-1.43.38-.5,1.07-1.45,2.08-2.55,0,0,0,0,.01-.02"/><path class="cls-7" d="m112.56,267.72s.02.01.03.02c.99.59,1.79,1.16,2.37,1.58.06.04.11.08.17.12.18.12.36.23.53.36.34.26.7.55,1.08.92,2.06,2.04,4.53,6.35,6.38,19.09.08.57.59.98.67,1.58.06.47-.3,1.12-.24,1.62.1.82,1.32,1.9,1.15,3.94-.05.56.16,1.91-.69,2.91-1.25,1.49-3.28,2.33-4.24,2.71-5.46,2.13-10.77,3.01-13.64,3.47-4.88.79-10.48,1.58-15.29.31-.54-.14-1.54-.35-2.55-.73-1.1-.41-1.87-1.35-2.14-2.46,0,0,0,0,0,0-.05-.22-.09-.45-.1-.69-.04-.86.51-2.35.22-3.76-.15-.74-.29-1.45-.42-2.14-.03-.14-.09-.22-.23-.25-1.02-.24.06-.68.01-.94-2.35-13.24-1-18.09.22-20.12"/><path class="cls-7" d="m96.78,278.22c.57.87.3,1.86.15,2.01-.1.1-.21.2-.34.29-.2.14-.4.25-.59.33-.73.3-1.56-.1-1.8-.86-.13-.42-.19-.94-.02-1.47.08-.24.2-.57.53-.82.42-.3,1-.31,1.43-.1.34.16.52.43.64.62Z"/><path class="cls-7" d="m107.64,276.62c-.29,1,.25,1.86.44,1.96.12.07.26.13.4.18.23.08.45.13.66.15.79.07,1.47-.54,1.48-1.34,0-.45-.09-.95-.4-1.41-.14-.21-.35-.49-.75-.63-.49-.17-1.04-.01-1.4.31-.28.26-.37.56-.43.77Z"/><ellipse class="cls-7" cx="104.89" cy="282.75" rx=".59" ry="1.31" transform="translate(-40.15 18.34) rotate(-8.39)"/><path class="cls-7" d="m100.64,283.38c.11.72.45,1.26.77,1.21s.49-.67.39-1.38-.45-1.26-.77-1.21-.49.67-.39,1.38Z"/><path class="cls-7" d="m124.69,296.96c-.02.95-18.85,9.58-38.54,6.21h0"/><path class="cls-8" d="m124.69,296.96c-1.6-1.61-3.47-4.32-8.41-6.25-1.39-.54-4.3-2.27-11.68-1.29-3.53.47-6.82.84-11.1,4.3-3.32,2.68-6.98,7.64-7.35,9.44t0,0"/><path class="cls-7" d="m97.92,284.51c.08.39.35,1.7,1.49,2.74,1.73,1.58,4.02,1.23,4.43,1.16.39-.06,2.74-.42,3.93-2.51.77-1.35.65-2.71.57-3.24-.07-.44-.21-1.4-.93-2.26-1.59-1.9-4.51-1.55-4.96-1.48l-.2.03c-.38.06-3.04.52-4.06,2.69-.58,1.24-.35,2.43-.26,2.88Z"/><path class="cls-7" d="m91.26,270.97c-.37-.3-.72-.57-1.06-.81-6.1-4.27-7.24,1.45-9.94,1.19-.52-.05-.88.14-1.1.46-1.27,1.88,2.09,8.49,6.7,3.46h0"/><path class="cls-7" d="m90.28,271.93c-.28-.36-.71-.55-1.18-.65-.77-.15-1.63-.04-2.04.04-.16.03-.32.07-.47.13-.81.3-4.07,1.45-5.24,1.24,0,0-1.76-.32-2.2-.87"/><path class="cls-7" d="m87.02,273.84s-3.59,1.06-4.9.29"/><path class="cls-7" d="m110.28,268.14c.29-.44.58-.83.86-1.18,4.56-5.69,7.29-.61,9.78-1.63.48-.2.88-.13,1.18.12,1.75,1.42.47,8.69-5.37,5.27-.02,0-.04-.02-.05-.03"/><path class="cls-7" d="m111.49,268.78c.18-.48.61-.81,1.1-1.04.66-.31,1.42-.43,1.8-.47.16-.02.32-.02.49,0,.87.05,4.32.21,5.38-.33,0,0,1.59-.82,1.85-1.47"/><path class="cls-7" d="m115.13,269.45s3.78.19,4.81-.92"/><path class="cls-7" d="m100.02,262.93c-.34-.75-.2-2.06-.14-3.57"/><path class="cls-7" d="m100.02,262.93c.02-.19.05-.37.1-.53.06-.21.2-.67.57-.78.36-.11.76.16.96.44.32.45.29,1.21-.12,1.48-.38.26-1.03.04-1.32-.29-.08-.09-.14-.2-.2-.32Z"/><path class="cls-7" d="m100.75,266.18s-.23-.47-.43-1.13c-.19-.62-.36-1.41-.3-2.12"/><path class="cls-8" d="m114.22,280.45c.65,1.04,1.88,1.44,2.75.89.86-.55,1.03-1.83.37-2.87s-1.89-1.44-2.75-.89c-.86.54-1.03,1.83-.37,2.87Z"/><path class="cls-8" d="m92.01,283.73c-.33,1.18-1.39,1.92-2.37,1.65-.98-.28-1.51-1.46-1.18-2.64s1.39-1.92,2.37-1.65c.98.27,1.51,1.45,1.18,2.64Z"/></g></g></g><path class="cls-4" d="m123.37,298.85s-13.26,9.36-35.59,5.63"/><path class="cls-3" d="m121.57,296.3s-15.46,7.69-32.5,4.8"/><path class="cls-9" d="m112.4,273.7s-.47-2.85-3.69-1"/><path class="cls-9" d="m91.69,276.76s-.38-2.86,3.25-2.03"/></g><rect class="cls-34" x="1219.18" y="143.15" width="264.81" height="293.08"/></g><path class="cls-73" d="m624.14,446.76c-6.19.4-11.86,3.6-14.66,8.66-2.64,4.78-2.64,10.93,7.92,16.4,21.13,10.94,128.56,11.79,137.26-2.42,8.7-14.21-9.74-18.58-13.91-19.24s-42.44-8.26-116.62-3.41Z"/><g><g class="cls-16"><g><path class="cls-28" d="m841.36,186.84c-.88-.37-2.06-.71-3.6-.84-5.92-3.44-6.89-15.41-8.74-18.55-.55-.94-1.18-1.09-2.04,0-3.64,4.62-12.8,16.41-13.38,17.17-1.11.5-2.46,1.22-4.1,2.21.86.29.62,1.91,1.27,3.56,1.2,3.06,5.21,3.21,6.28,4.97,4.38,7.18,6.24,14.61,4.03,19.95,7.09,5.13,10.03,11.5,10.03,11.5l-1.63.14s-3.49-4.92-10.3-8.62c-.62.71-1.37,1.34-2.23,1.89-7.37,4.78-22.71,1.52-22.71,1.52-.36-.82-6.33-14.97,1.43-24.82.1-.12.2-.24.3-.36-.56.45-1.13.91-1.72,1.38-.11.09-.22.18-.32.27-2.94,2.39-5.6,3.74-7.86,3.56-2.11-.17-4.73-.11-6.86,1.69-.51.42-.57,1.86-1.07,2.37-1.52,1.53-3.01,3.29-4.44,5.22l.09.07s5.43-4.44,9.51,4.41c3.14,6.85,4.03,13.26,1.35,16.7,2.32.12,4.64.4,6.88.89,1.37.29,2.69.62,3.97.99.94-.59,5.15,1.6,6.87,2.42.03.02.07.03.11.05,2.44,1.04,4.7,2.2,6.81,3.45.02,0,.03.02.05.03,1.9.97,3.38,1.68,3.65,1.62.02,0,.03,0,.09,0,1.05.16,3.07,1.75,4.31,2.79.75.62,1.9,1.57,3.28,2.76,2.55,2.21,5.11,4.59,5.75,5.27.58.61,1.09,1.45,1.51,2.45,7.13-.09,13.48,2.39,17.38,8.23.24.37.47.75.69,1.13,3.41-2.88,10.14-3.55,13.54.37,2.95,3.39,1.75,8.29,1.61,8.82,0,0,5.38-6.87,10.56,1.8.5.84.96,1.68,1.38,2.52-.08-5.67-1.29-18.96-11.24-30.17-4.72-5.32-9.91-8.47-13.69-10.3,1.02-1.81,2.63-4.38,4.99-7.14-6.75.34-11.18-5.37-11.62-5.97-1.25-2.55-2.95-7.02-2.59-12.58.88-13.34,12.83-20.66,14.17-21.44.94.41,2.15,1,3.52,1.79l.22-.38c-6.03-3.39-11.56-6.14-14.71-9.81.1,1.91-.13,3.61-.75,5Zm-13.69,22.69c.75-1.13,1.74-2.48,3.3-3.12,2.08-.86,2.38-.89,3.63-.76,2.04.21-3.3,1.16-1.74,4.33.78,1.59,2.99.64,2.87,3.05-.15,2.93-2.76,3.48-3.41,3.42-.42-.05-.87-.13-1.33-.25-.72-.19-1.35-.46-1.91-.77-2.12-1.17-2.75-3.89-1.41-5.91Zm9.4,20.85c.33-.55,3.77.21,6.17,2.43,2.86,2.64,3.39,6.55,3.06,6.72-.19.09-.55-1.07-1.86-1.62-1.05-.45-2.35-.31-2.66-.33-1.57-.1-1.94.06-2.51-.46-1.13-1.04-.23-2.99-1.21-5.1-.51-1.11-1.14-1.38-1-1.63Z"/><path class="cls-36" d="m773.79,211.15l-.09-.07c-1.79,2.42-3.49,5.09-5.06,7.89-.27.49-1.62-.43-2.41,1.15-.95,1.9.73,2.39.44,2.94-1.46,2.74-2.7,5.25-3.71,7.25h0s3.26,1.63,7.27,2.93c4.36-.79,9.4-1.26,14.42-.98,2.68-3.43,1.79-9.85-1.35-16.7-4.08-8.85-9.51-4.41-9.51-4.41Z"/><path class="cls-30" d="m831.48,155.49c-10.79,10-23.49,29.05-33.79,39.32,1.54-1.4,3.18-2.42,4.74-3.16,1.35-1,2.59-1.87,3.74-2.64h.01c1.86-1.51,2.61-2.39,3.32-2.15,1.64-1,2.99-1.72,4.1-2.21.59-.76,9.74-12.55,13.38-17.17.86-1.09,1.49-.94,2.04,0l.66-.37s2.35-1.91,5.11-.71c-.34-1.29-.74-2.86-1.4-5.09-.01-.05-1.8-5.93-1.92-5.81Z"/><path class="cls-37" d="m762.97,230.31h0c-1.31,2.6-2.21,4.38-2.65,4.77-.53.47-1.01.98-1.44,1.52,2.19-1.12,6.33-2.46,11.36-3.37-4.01-1.3-7.27-2.92-7.27-2.92Z"/><path class="cls-30" d="m758.87,236.61h0c29.69,53.22,86.21,81.41,88.5,79.65.65-5.93,2.88-13.91.34-25.89-3.55.59-25.31,3.65-33.51-9.47-7.15.79-14.97-.87-14.97-.87-.36-.82-18.12-21.31-10.37-31.16,2.02-2.56,4.39-13.65,6.65-14.73-1.28-.36-2.6-.7-3.97-.99-2.24-.48-4.56-.76-6.88-.89-.78,1.01-1.86,1.76-3.29,2.19-3.03.92-7.41,0-11.13-1.21-5.04.91-9.17,2.25-11.36,3.37Z"/><path class="cls-28" d="m796.57,195.92c-.79.74-1.56,1.44-2.31,2.06.59-.47,1.16-.94,1.72-1.38.19-.23.39-.46.59-.67Z"/><path class="cls-37" d="m796.65,195.83l-.08.08c-.2.21-.4.44-.59.67,2.39-1.91,4.54-3.54,6.45-4.95-1.56.74-3.2,1.76-4.74,3.16-.35.35-.7.69-1.05,1.02Z"/><path class="cls-37" d="m797.69,194.81c-.36.32-.71.66-1.05,1.02.35-.33.7-.67,1.05-1.02Z"/><path class="cls-37" d="m821.09,215.32c2.21-5.34.34-12.77-4.03-19.95-1.07-1.76-5.08-1.91-6.28-4.97-.65-1.64-.41-3.27-1.27-3.56-1,.6-2.1,1.31-3.32,2.14h-.01c-1.48,1.2-2.8,2.07-3.74,2.65-1.92,1.4-4.06,3.04-6.45,4.95-.1.12-.2.24-.3.36-7.76,9.85-1.79,24-1.43,24.82,0,0,15.34,3.26,22.71-1.52.86-.56,1.6-1.18,2.23-1.89.82-.9,1.45-1.92,1.91-3.03Z"/><path class="cls-28" d="m806.17,189c-1.14.77-2.38,1.65-3.74,2.64.94-.58,2.25-1.46,3.74-2.64Z"/><path class="cls-37" d="m809.5,186.85c-.71-.24-1.46.64-3.32,2.14,1.22-.83,2.32-1.54,3.32-2.14Z"/><path class="cls-37" d="m829.69,167.09l-.66.37c1.85,3.14,2.82,15.11,8.74,18.55,1.54.13,2.71.46,3.6.84.62-1.39.86-3.09.75-5-.62-.72-1.14-1.46-1.56-2.26-4.27-8.11-4.75-9.47-5.76-13.2-2.76-1.2-5.11.71-5.11.71Z"/><path class="cls-30" d="m758.87,236.62c-2.14,2.76-2.85,6.39-1.74,9.78,1.03,3.12,2.45,5.9,3.14,7.46,6.21,13.86,18.8,25.64,30.01,35.71,6.57,5.91,18.81,16.86,34.33,25.74,2.74,1.57,8.59,4.77,14.53,4.9,3.99.09,6.8-2.99,8.22-3.94-2.28,1.76-58.81-26.43-88.5-79.64Z"/><path class="cls-28" d="m784.65,232.26c-5.02-.28-10.06.19-14.42.98,3.72,1.21,8.1,2.13,11.13,1.21,1.43-.43,2.51-1.19,3.29-2.19Z"/><path class="cls-37" d="m795.5,234.13c-2.26,1.08-4.63,12.18-6.65,14.73-7.76,9.85,10.01,30.34,10.37,31.16,0,0,7.82,1.66,14.97.87-1.51-2.41-2.57-5.36-2.97-8.99,0,0-10.11-8.64,2.21-13.74,4.73-1.96,9.57-3.09,14.12-3.2-.67-.66-1.36-1.34-2.08-2.02-4.49-4.26-9.56-8.96-16.13-12.86-.02-.01-.04-.02-.05-.03-2.1-1.08-4.73-2.47-6.81-3.45-2.17-.93-4.49-1.76-6.98-2.47Z"/><path class="cls-28" d="m802.37,236.55c-1.73-.81-5.93-3-6.87-2.42,2.49.71,4.81,1.54,6.98,2.47-.04-.02-.08-.04-.11-.05Z"/><path class="cls-28" d="m821.09,215.32c-.45,1.11-1.08,2.13-1.91,3.03,6.82,3.7,10.3,8.62,10.3,8.62l1.63-.14s-2.94-6.38-10.03-11.5Z"/><path d="m830.98,206.41c-1.57.64-2.55,1.99-3.3,3.12-1.34,2.01-.71,4.74,1.41,5.91.56.31,1.19.58,1.91.77.46.12.91.2,1.33.25.65.06,3.26-.49,3.41-3.42.12-2.41-2.09-1.46-2.87-3.05-1.56-3.18,3.78-4.13,1.74-4.33-1.25-.13-1.56-.1-3.63.76Z"/><path class="cls-36" d="m853.09,190.23c-1.33.78-13.29,8.1-14.17,21.44-.36,5.56,1.34,10.03,2.59,12.58.44.6,4.86,6.31,11.62,5.97.32-.39.67-.78,1.03-1.17,2.71-2.97,4.36-3.98,5.98-5.48,6.08-5.68,6.05-13.17,7.33-17.24-.56-3.17-1.69-6.11-3.13-8.47-.86-1.4-3.55-3.23-6.3-4.97-.49-.31-.97-.59-1.43-.86-1.37-.79-2.58-1.38-3.52-1.79Z"/><path class="cls-28" d="m802.48,236.6c2.08.98,4.7,2.37,6.81,3.45-2.1-1.25-4.36-2.4-6.81-3.45Z"/><path class="cls-37" d="m856.83,191.65l-.22.38c.46.27.94.56,1.43.86,2.74,1.74,5.44,3.56,6.3,4.97,1.44,2.36,2.57,5.3,3.13,8.47.46-1.49,1.1-2.52,2.28-2.83,1.66-.43,3.68.74,5.63,2.49-1.31-1.41-2.75-2.87-4.34-4.38-4.42-4.23-9.47-7.3-14.21-9.96Z"/><path class="cls-28" d="m812.98,241.7c-.27.06-1.74-.65-3.65-1.62,6.57,3.91,11.64,8.6,16.13,12.86.72.68,1.41,1.36,2.08,2.02.13,0,.25,0,.37,0-.42-1-.93-1.84-1.51-2.45-.64-.68-3.2-3.06-5.75-5.27-1.38-1.19-2.53-2.14-3.28-2.76-1.24-1.03-3.26-2.63-4.31-2.79-.05,0-.07,0-.09,0Z"/><path class="cls-27" d="m843.24,232.81c-2.4-2.22-5.84-2.98-6.17-2.43-.15.25.49.52,1,1.63.98,2.11.08,4.06,1.21,5.1.57.53.95.37,2.51.46.31.02,1.61-.11,2.66.33,1.31.56,1.67,1.71,1.86,1.62.33-.16-.2-4.08-3.06-6.72Z"/><path class="cls-37" d="m813.43,258.16c-12.32,5.11-2.21,13.74-2.21,13.74.4,3.62,1.45,6.58,2.97,8.99,2.87-.31,5.64-1.02,7.75-2.39,7.72-5,8.54-16.63,6.24-22.92-.2-.21-.41-.42-.62-.63-4.54.12-9.39,1.25-14.12,3.2Z"/><path class="cls-42" d="m895.61,237.68c-.62-3.13-1.62-5.85-2.82-7.89h0c-1.98-2.08-3.53-4.62-5.41-7.66-2.36-3.47-3.44-5.33-4.38-6.77,0,0-.01-.02-.02-.03-1.97-2.79-4.39-5.89-7.6-9.33-1.95-1.76-3.97-2.93-5.63-2.49-1.18.31-1.82,1.34-2.28,2.83.95,5.36.28,11.38-3.24,16.41-1.55,2.21-5.03,7.18-11.1,7.49-2.36,2.77-3.97,5.34-4.99,7.14,3.79,1.83,8.97,4.98,13.69,10.3,9.95,11.2,11.16,24.5,11.24,30.17.22.41.41.82.6,1.24,2.25-.97,8.91-4.21,14.44-10.75,1.31-2.19,2.34-4.05,3.16-5.66,0,0,.56-.56,1.51-1.5.82-1.69,1.55-3.52,2.11-5.49,1.81-6.23,1.77-12.69.7-18Zm-33.96,5.88c-.12-.65.23-3.3,3.14-3.67,2.39-.31,1.62,1.97,3.26,2.61,3.29,1.3,3.82-4.09,4.19-2.07.23,1.24.22,1.54-.47,3.68-.52,1.61-1.79,2.7-2.85,3.54-1.9,1.49-4.67,1.07-6-.94-.35-.53-.67-1.14-.92-1.84-.16-.45-.26-.89-.34-1.3Z"/><path class="cls-42" d="m864.23,222.73c3.52-5.03,4.18-11.05,3.24-16.41-1.28,4.06-1.24,11.55-7.33,17.24-1.61,1.51-3.27,2.51-5.98,5.48-.36.39-.71.79-1.03,1.17,6.07-.31,9.55-5.28,11.1-7.49Z"/><path class="cls-28" d="m827.92,254.96c-.12,0-.25,0-.37,0,.21.22.42.42.62.63-.08-.22-.16-.42-.25-.63Z"/><path class="cls-28" d="m827.92,254.96c.09.2.17.41.25.63,14.06,14.27,16.65,24.68,17.94,28.75.67,2.11,1.19,4.12,1.59,6.03.32-.06.49-.09.49-.09,0,0,.02-.1.06-.3-1.83-5.73-2.99-10.68-3.76-14.6-.98-4.95-1.23-7.79.46-9.99.29-.39.64-.74,1.03-1.07-.22-.39-.44-.76-.69-1.13-3.9-5.84-10.25-8.32-17.38-8.23Z"/><path class="cls-42" d="m882.98,215.32c-.67-1.01-4.04-6.14-7.6-9.33,3.21,3.44,5.63,6.54,7.6,9.33Z"/><path class="cls-42" d="m814.18,280.89c8.21,13.12,29.97,10.07,33.51,9.47-.4-1.9-.92-3.91-1.59-6.03-1.29-4.07-3.88-14.48-17.94-28.75,2.31,6.29,1.49,17.92-6.24,22.92-2.11,1.37-4.88,2.08-7.75,2.39Z"/><path class="cls-28" d="m883,215.35c.95,1.44,2.02,3.31,4.38,6.77-1.24-2.03-2.62-4.27-4.38-6.77Z"/><path d="m864.78,239.89c-2.91.37-3.26,3.02-3.14,3.67.08.42.19.85.34,1.3.25.7.57,1.31.92,1.84,1.33,2.02,4.1,2.44,6,.94,1.07-.84,2.33-1.93,2.85-3.54.69-2.14.7-2.44.47-3.68-.36-2.02-.9,3.38-4.19,2.07-1.64-.65-.87-2.93-3.26-2.61Z"/><path class="cls-36" d="m845.99,264.33c-.39.33-.74.68-1.03,1.07-1.69,2.2-1.44,5.04-.46,9.99.77,3.92,1.93,8.87,3.76,14.6.4-2.24,2.77-16.63-2.27-25.65Z"/><path class="cls-42" d="m887.5,222.29c-.04-.06-.07-.11-.12-.16,1.88,3.04,3.42,5.58,5.41,7.65-.25-.43-.51-.83-.77-1.19-.43-.58-2.16-2.85-4.52-6.3Z"/><path class="cls-36" d="m859.53,264.7c-3.41-3.93-10.13-3.25-13.54-.37,5.03,9.03,2.67,23.41,2.27,25.65.88,2.81,1.93,5.79,3.17,8.94,0,0,13.5,2.78,20.02-1.51.36-.24.7-.48,1.02-.75,4.57-3.85,4.37-10.62,1.22-17.58-.26.11-.46.2-.59.25,0-.41.01-.91,0-1.49-.42-.84-.88-1.68-1.38-2.52-5.19-8.67-10.56-1.8-10.56-1.8.14-.53,1.35-5.43-1.61-8.82Z"/><path class="cls-42" d="m895.65,232.2c-1.08-.73-2-1.53-2.85-2.42,1.2,2.04,2.19,4.76,2.82,7.89,7.91,2.39,17.7,3.09,14.62,6.14-3.82,3.77-13.66,13.58-17.43,17.35-1.33,2.73-2.95,5.11-4.67,7.16-1.72,2.86-3.92,6.26-6.7,10.31l.04.02c2.34-3.5,6.76-7.2,11.48-11.51,13.09-11.92,18.52-17.99,21.03-20.55,2.51-2.59,3.01-3.36,4.78-5.17,2.25-2.3,4.9-4.94,4.5-4.91-1.7.11-9.12.03-19.12-1.85,0,0-4.65.15-8.49-2.46Z"/><path class="cls-42" d="m848.25,289.98c-.04.19-.06.3-.06.3,0,0-.17.03-.49.09,2.54,11.99.32,19.97-.34,25.89,3.36-2.25,17.59-12.77,25.36-19.29l-.27-.31c-.32.27-.65.51-1.02.75-6.52,4.29-20.02,1.51-20.02,1.51-1.24-3.15-2.29-6.13-3.17-8.94Z"/><path class="cls-36" d="m895.61,237.68c1.07,5.31,1.11,11.77-.7,18-.57,1.98-1.29,3.8-2.11,5.49,3.77-3.77,13.61-13.58,17.43-17.35,3.08-3.05-6.71-3.76-14.62-6.14Z"/><path class="cls-36" d="m873.08,277.84c.02.58,0,1.08,0,1.49.14-.05.33-.13.59-.25-.19-.42-.38-.83-.6-1.24Z"/><path class="cls-42" d="m892.79,261.17c-.95.94-1.51,1.5-1.51,1.5-.82,1.6-1.85,3.47-3.16,5.66,1.72-2.05,3.34-4.43,4.67-7.16Z"/><path class="cls-37" d="m881.43,278.63c2.78-4.05,4.97-7.45,6.7-10.31-5.53,6.54-12.19,9.78-14.44,10.75,3.15,6.96,3.34,13.73-1.22,17.58l.27.31c2.25-1.9,3.97-3.46,4.71-4.38,3.74-4.64,1.75-6.67,2.38-10.18.23-1.24.8-2.48,1.65-3.75l-.04-.02Z"/></g><g><path class="cls-7" d="m892.79,229.78c.85.89,1.78,1.69,2.85,2.42,3.83,2.6,8.49,2.46,8.49,2.46,9.99,1.88,17.41,1.96,19.12,1.85.4-.03-2.25,2.61-4.5,4.91-1.77,1.82-2.27,2.58-4.78,5.17-2.5,2.57-7.94,8.63-21.03,20.55-4.72,4.31-9.14,8.01-11.48,11.51-.85,1.27-1.43,2.51-1.65,3.75-.63,3.51,1.36,5.54-2.38,10.18-.74.92-2.46,2.48-4.71,4.38-7.77,6.52-22,17.04-25.36,19.29-1.42.95-4.23,4.03-8.22,3.94-5.94-.13-11.79-3.33-14.53-4.9-15.51-8.87-27.75-19.82-34.33-25.74-11.21-10.07-23.79-21.85-30.01-35.71-.69-1.56-2.11-4.33-3.14-7.46-1.12-3.39-.4-7.02,1.74-9.78"/><path class="cls-7" d="m883,215.35c1.76,2.5,3.15,4.75,4.38,6.77,1.88,3.04,3.42,5.58,5.41,7.65"/><path class="cls-7" d="m796.65,195.83c.35-.33.7-.67,1.05-1.02,10.3-10.28,23-29.32,33.79-39.32.13-.13,1.91,5.76,1.92,5.81.65,2.23,1.06,3.8,1.4,5.09,1,3.73,1.48,5.09,5.76,13.2.42.8.94,1.54,1.56,2.26,3.15,3.67,8.69,6.42,14.71,9.81,4.74,2.67,9.79,5.73,14.21,9.96,1.59,1.51,3.03,2.97,4.34,4.38,3.21,3.44,5.63,6.54,7.6,9.33"/><path class="cls-7" d="m794.26,197.97c.75-.62,1.52-1.31,2.31-2.06"/><path class="cls-7" d="m758.87,236.61c.43-.55.91-1.05,1.44-1.52.44-.39,1.34-2.17,2.65-4.78,1-2.01,2.24-4.51,3.71-7.25.29-.55-1.39-1.04-.44-2.94.79-1.58,2.14-.66,2.41-1.15,1.57-2.8,3.26-5.47,5.06-7.89,1.43-1.93,2.92-3.7,4.44-5.22.5-.51.56-1.95,1.07-2.37,2.14-1.8,4.75-1.86,6.86-1.69,2.27.18,4.93-1.18,7.86-3.56"/><path class="cls-7" d="m835.74,213.04c-.15,2.93-2.76,3.48-3.41,3.42-.42-.05-.87-.13-1.33-.25-.72-.19-1.35-.46-1.91-.77-2.12-1.17-2.75-3.89-1.41-5.91.75-1.13,1.74-2.48,3.3-3.12,2.08-.86,2.38-.89,3.63-.76,2.04.21-3.3,1.16-1.74,4.33.78,1.59,2.99.64,2.87,3.05Z"/><path class="cls-7" d="m864.78,239.89c-2.91.37-3.26,3.02-3.14,3.67.08.42.19.85.34,1.3.25.7.57,1.31.92,1.84,1.33,2.02,4.1,2.44,6,.94,1.07-.84,2.33-1.93,2.85-3.54.69-2.14.7-2.44.47-3.68-.36-2.02-.9,3.38-4.19,2.07-1.64-.65-.87-2.93-3.26-2.61Z"/><path class="cls-7" d="m847.36,316.26c-2.28,1.76-58.81-26.43-88.5-79.64"/><path class="cls-7" d="m809.34,240.07c6.57,3.91,11.64,8.6,16.13,12.86.72.68,1.41,1.36,2.08,2.02.21.22.42.42.62.63,14.06,14.27,16.65,24.68,17.94,28.75.67,2.11,1.19,4.12,1.59,6.03,2.54,11.99.32,19.97-.34,25.89"/><path class="cls-7" d="m758.87,236.62h0c2.19-1.13,6.33-2.47,11.36-3.38,4.36-.79,9.4-1.26,14.42-.98,2.32.12,4.64.4,6.88.89,1.37.29,2.69.62,3.97.99,2.49.71,4.81,1.54,6.98,2.47,2.44,1.04,4.7,2.2,6.81,3.45"/><path class="cls-7" d="m891.28,262.67s.56-.56,1.51-1.5c3.77-3.77,13.61-13.58,17.43-17.35,3.08-3.05-6.71-3.76-14.62-6.14-3.5-1.05-6.62-2.43-8.11-4.48"/><path class="cls-7" d="m813.57,184.67l.03-.04c.59-.76,9.74-12.55,13.38-17.17.86-1.09,1.49-.94,2.04,0,1.85,3.14,2.82,15.11,8.74,18.55.04.03.08.04.12.07"/><path class="cls-7" d="m802.43,191.64c-1.92,1.4-4.06,3.04-6.45,4.95-.56.45-1.13.91-1.72,1.38-.11.09-.22.18-.32.27"/><path class="cls-7" d="m818.78,184.5s-.07-2.17-5.17.13c-1.11.5-2.46,1.22-4.1,2.21-1,.6-2.1,1.31-3.32,2.14"/><path class="cls-7" d="m892.97,253.09s3.26-.14-1.69,9.58c-.82,1.6-1.85,3.47-3.16,5.66-1.72,2.86-3.92,6.26-6.7,10.31-.07.09-.14.2-.21.3"/><path class="cls-7" d="m831.12,226.82s-2.94-6.38-10.03-11.5c-.88-.65-1.84-1.27-2.87-1.87"/><path class="cls-7" d="m829.49,226.97s-3.49-4.92-10.3-8.62c-1.45-.8-3.06-1.54-4.82-2.16"/><path class="cls-7" d="m851.4,245.58s8.34,3.08,14.34,11.81"/><path class="cls-7" d="m851.38,247.21s7.64,4.56,11.93,14.24"/><path class="cls-7" d="m843.55,188.26s-.63-.77-2.18-1.42c-.88-.37-2.06-.71-3.6-.84-1.06-.1-2.29-.09-3.72.06"/><path class="cls-7" d="m884.78,228.08s3.14,2.21,2.93,9.3"/><path class="cls-7" d="m796.57,195.92l.08-.08"/><line class="cls-7" x1="892.79" y1="229.78" x2="892.79" y2="229.78"/><path class="cls-7" d="m882.98,215.32s.01.02.02.03"/></g></g><path class="cls-4" d="m766.66,223.06s.97.93,1.38,1.79,2.76,2.6,3.39,2.62"/></g><g><g class="cls-16"><g><g><path class="cls-27" d="m912.19,273.84c.38-.5,1.07-1.45,2.08-2.55-.77-.15-1.63-.04-2.04.04-.16.03-.32.07-.47.13-.81.3-4.07,1.45-5.24,1.24,0,0-1.76-.32-2.2-.87-1.27,1.88,2.09,8.49,6.7,3.46h0c.48-.81.95-1.17,1.15-1.44Z"/><path class="cls-32" d="m937.76,267.74c.66-.31,1.42-.43,1.8-.47.16-.02.32-.02.49,0,.87.05,4.32.21,5.38-.33,0,0,1.59-.82,1.85-1.47-.3-.25-.7-.32-1.18-.12-2.5,1.02-5.23-4.07-9.78,1.63l-.05-.04c-2.73-1.36-6.43-2.51-10.74-1.88h-.03c-4.56.69-7.89,2.99-10.12,5.12-6.1-4.27-7.24,1.45-9.94,1.19-.52-.05-.88.14-1.1.46.44.55,2.2.87,2.2.87,1.17.21,4.43-.94,5.24-1.24.15-.05.31-.1.47-.13.41-.08,1.27-.19,2.04-.04-1.01,1.11-1.7,2.06-2.08,2.55-.21.27-.67.63-1.15,1.43h0c-1.22,2.04-2.58,6.88-.22,20.12.05.25-1.03.7-.01.94.14.03.2.11.23.25.13.69.27,1.4.42,2.14.29,1.41-.26,2.9-.22,3.76.01.24.04.46.1.69.37-1.79,4.04-6.75,7.35-9.44,4.28-3.47,7.58-3.83,11.1-4.3,7.38-.98,10.3.75,11.68,1.29,4.94,1.93,6.81,4.64,8.41,6.25.17-2.03-1.05-3.11-1.15-3.94-.06-.49.3-1.15.24-1.62-.08-.6-.58-1.01-.67-1.58-1.84-12.74-4.32-17.06-6.38-19.09-.38-.37-.74-.66-1.08-.92-.17-.13-.35-.24-.53-.36-.06-.04-.12-.08-.17-.12-.58-.43-1.38-1-2.37-1.58Zm-22.95,17.63c-.98-.28-1.51-1.46-1.18-2.64s1.39-1.92,2.37-1.65c.98.27,1.51,1.45,1.18,2.64-.33,1.18-1.39,1.92-2.37,1.65Zm4.57-5.39c-.13-.42-.19-.94-.02-1.47.08-.24.2-.57.53-.82.42-.3,1-.31,1.43-.1.34.16.52.43.64.62.57.87.3,1.86.15,2.01-.1.1-.21.2-.34.29-.2.14-.4.25-.59.33-.73.3-1.56-.1-1.8-.86Zm3.72,4.52c-.09-.45-.32-1.64.26-2.88,1.02-2.16,3.68-2.62,4.06-2.69l.2-.03c.45-.07,3.36-.41,4.96,1.48.72.86.87,1.82.93,2.26.08.53.2,1.89-.57,3.24-1.19,2.09-3.53,2.45-3.93,2.51-.41.06-2.7.42-4.43-1.16-1.14-1.04-1.41-2.35-1.49-2.74Zm10.16-5.93c-.19-.1-.74-.96-.44-1.96.06-.21.15-.52.43-.77.36-.32.91-.48,1.4-.31.39.14.61.42.75.63.32.46.41.97.4,1.41,0,.79-.69,1.41-1.48,1.34-.21-.02-.43-.06-.66-.15-.14-.05-.28-.11-.4-.18Zm6.15,1.87c-.66-1.04-.49-2.32.37-2.87.86-.54,2.09-.14,2.75.89s.49,2.32-.37,2.87c-.86.54-2.09.14-2.75-.89Z"/><path class="cls-27" d="m911.32,303.17s0,0,0,0c19.7,3.37,38.52-5.27,38.54-6.21-1.6-1.61-3.47-4.32-8.41-6.25-1.39-.54-4.3-2.27-11.68-1.29-3.53.47-6.82.84-11.1,4.3-3.32,2.68-6.98,7.64-7.35,9.44Z"/><path class="cls-36" d="m911.32,303.17c.26,1.11,1.04,2.04,2.14,2.46,1.01.38,2.01.59,2.55.73,4.81,1.27,10.41.48,15.29-.31,2.86-.47,8.18-1.34,13.64-3.47.96-.38,2.99-1.22,4.24-2.71.85-1,.64-2.35.69-2.91-.02.95-18.85,9.58-38.54,6.21Z"/><path class="cls-26" d="m913.63,282.74c-.33,1.18.2,2.36,1.18,2.64.98.27,2.04-.47,2.37-1.65.33-1.19-.2-2.37-1.18-2.64-.98-.27-2.04.47-2.37,1.65Z"/><path d="m919.35,278.52c-.17.53-.11,1.04.02,1.47.24.76,1.06,1.15,1.8.86.19-.08.39-.18.59-.33.13-.09.24-.19.34-.29.15-.15.43-1.13-.15-2.01-.12-.19-.29-.45-.64-.62-.43-.21-1.01-.2-1.43.1-.34.24-.46.58-.53.82Z"/><path class="cls-26" d="m923.36,281.63c-.58,1.24-.35,2.43-.26,2.88.08.39.35,1.7,1.49,2.74,1.73,1.58,4.02,1.23,4.43,1.16.39-.06,2.74-.42,3.93-2.51.77-1.35.65-2.71.57-3.24-.07-.44-.21-1.4-.93-2.26-1.59-1.9-4.51-1.55-4.96-1.48l-.2.03c-.38.06-3.04.52-4.06,2.69Zm2.46,1.75c-.11-.72.07-1.34.39-1.38s.66.49.77,1.21-.07,1.34-.39,1.38-.67-.49-.77-1.21Zm3.66-.54c-.11-.72.07-1.34.39-1.38s.67.49.77,1.21-.07,1.34-.39,1.38-.67-.49-.77-1.21Z"/><path d="m926.2,281.99c-.32.05-.49.67-.39,1.38s.45,1.26.77,1.21.49-.67.39-1.38-.45-1.26-.77-1.21Z"/><ellipse cx="930.06" cy="282.75" rx=".59" ry="1.31" transform="translate(-31.31 138.78) rotate(-8.39)"/><path d="m932.81,276.62c-.29,1,.25,1.86.44,1.96.12.07.26.13.4.18.23.08.45.13.66.15.79.07,1.47-.54,1.48-1.34,0-.45-.09-.95-.4-1.41-.14-.21-.35-.49-.75-.63-.49-.17-1.04-.01-1.4.31-.28.26-.37.56-.43.77Z"/><path class="cls-26" d="m939.77,277.58c-.86.54-1.03,1.83-.37,2.87.65,1.04,1.88,1.44,2.75.89.86-.55,1.03-1.83.37-2.87s-1.89-1.44-2.75-.89Z"/><path class="cls-27" d="m940.31,269.45c.18.12.36.23.53.36.34.26.7.55,1.08.92,5.84,3.42,7.12-3.85,5.37-5.27-.26.65-1.85,1.47-1.85,1.47-1.06.54-4.51.38-5.38.33-.16,0-.32,0-.49,0-.38.04-1.14.17-1.8.47.99.59,1.79,1.16,2.37,1.58.06.04.11.08.17.12Z"/></g><g><path class="cls-7" d="m915.35,270.18s.01,0,.02-.02c2.23-2.13,5.56-4.43,10.12-5.11h.03c4.32-.64,8.02.51,10.74,1.87"/><path class="cls-7" d="m911.04,275.27c.48-.8.95-1.16,1.15-1.43.38-.5,1.07-1.45,2.08-2.55,0,0,0,0,.01-.02"/><path class="cls-7" d="m937.73,267.72s.02.01.03.02c.99.59,1.79,1.16,2.37,1.58.06.04.11.08.17.12.18.12.36.23.53.36.34.26.7.55,1.08.92,2.06,2.04,4.53,6.35,6.38,19.09.08.57.59.98.67,1.58.06.47-.3,1.12-.24,1.62.1.82,1.32,1.9,1.15,3.94-.05.56.16,1.91-.69,2.91-1.25,1.49-3.28,2.33-4.24,2.71-5.46,2.13-10.77,3.01-13.64,3.47-4.88.79-10.48,1.58-15.29.31-.54-.14-1.54-.35-2.55-.73-1.1-.41-1.87-1.35-2.14-2.46,0,0,0,0,0,0-.05-.22-.09-.45-.1-.69-.04-.86.51-2.35.22-3.76-.15-.74-.29-1.45-.42-2.14-.03-.14-.09-.22-.23-.25-1.02-.24.06-.68.01-.94-2.35-13.24-1-18.09.22-20.12"/><path class="cls-7" d="m921.96,278.22c.57.87.3,1.86.15,2.01-.1.1-.21.2-.34.29-.2.14-.4.25-.59.33-.73.3-1.56-.1-1.8-.86-.13-.42-.19-.94-.02-1.47.08-.24.2-.57.53-.82.42-.3,1-.31,1.43-.1.34.16.52.43.64.62Z"/><path class="cls-7" d="m932.81,276.62c-.29,1,.25,1.86.44,1.96.12.07.26.13.4.18.23.08.45.13.66.15.79.07,1.47-.54,1.48-1.34,0-.45-.09-.95-.4-1.41-.14-.21-.35-.49-.75-.63-.49-.17-1.04-.01-1.4.31-.28.26-.37.56-.43.77Z"/><ellipse class="cls-7" cx="930.06" cy="282.75" rx=".59" ry="1.31" transform="translate(-31.31 138.78) rotate(-8.39)"/><path class="cls-7" d="m925.81,283.38c.11.72.45,1.26.77,1.21s.49-.67.39-1.38-.45-1.26-.77-1.21-.49.67-.39,1.38Z"/><path class="cls-7" d="m949.86,296.96c-.02.95-18.85,9.58-38.54,6.21h0"/><path class="cls-8" d="m949.86,296.96c-1.6-1.61-3.47-4.32-8.41-6.25-1.39-.54-4.3-2.27-11.68-1.29-3.53.47-6.82.84-11.1,4.3-3.32,2.68-6.98,7.64-7.35,9.44t0,0"/><path class="cls-7" d="m923.09,284.51c.08.39.35,1.7,1.49,2.74,1.73,1.58,4.02,1.23,4.43,1.16.39-.06,2.74-.42,3.93-2.51.77-1.35.65-2.71.57-3.24-.07-.44-.21-1.4-.93-2.26-1.59-1.9-4.51-1.55-4.96-1.48l-.2.03c-.38.06-3.04.52-4.06,2.69-.58,1.24-.35,2.43-.26,2.88Z"/><path class="cls-7" d="m916.43,270.97c-.37-.3-.72-.57-1.06-.81-6.1-4.27-7.24,1.45-9.94,1.19-.52-.05-.88.14-1.1.46-1.27,1.88,2.09,8.49,6.7,3.46h0"/><path class="cls-7" d="m915.46,271.93c-.28-.36-.71-.55-1.18-.65-.77-.15-1.63-.04-2.04.04-.16.03-.32.07-.47.13-.81.3-4.07,1.45-5.24,1.24,0,0-1.76-.32-2.2-.87"/><path class="cls-7" d="m912.19,273.84s-3.59,1.06-4.9.29"/><path class="cls-7" d="m935.45,268.14c.29-.44.58-.83.86-1.18,4.56-5.69,7.29-.61,9.78-1.63.48-.2.88-.13,1.18.12,1.75,1.42.47,8.69-5.37,5.27-.02,0-.04-.02-.05-.03"/><path class="cls-7" d="m936.66,268.78c.18-.48.61-.81,1.1-1.04.66-.31,1.42-.43,1.8-.47.16-.02.32-.02.49,0,.87.05,4.32.21,5.38-.33,0,0,1.59-.82,1.85-1.47"/><path class="cls-7" d="m940.31,269.45s3.78.19,4.81-.92"/><path class="cls-7" d="m925.19,262.93c-.34-.75-.2-2.06-.14-3.57"/><path class="cls-7" d="m925.19,262.93c.02-.19.05-.37.1-.53.06-.21.2-.67.57-.78.36-.11.76.16.96.44.32.45.29,1.21-.12,1.48-.38.26-1.03.04-1.32-.29-.08-.09-.14-.2-.2-.32Z"/><path class="cls-7" d="m925.92,266.18s-.23-.47-.43-1.13c-.19-.62-.36-1.41-.3-2.12"/><path class="cls-8" d="m939.4,280.45c.65,1.04,1.88,1.44,2.75.89.86-.55,1.03-1.83.37-2.87s-1.89-1.44-2.75-.89c-.86.54-1.03,1.83-.37,2.87Z"/><path class="cls-8" d="m917.18,283.73c-.33,1.18-1.39,1.92-2.37,1.65-.98-.28-1.51-1.46-1.18-2.64s1.39-1.92,2.37-1.65c.98.27,1.51,1.45,1.18,2.64Z"/></g></g></g><path class="cls-4" d="m948.55,298.85s-13.26,9.36-35.59,5.63"/><path class="cls-3" d="m946.74,296.3s-15.46,7.69-32.5,4.8"/><path class="cls-9" d="m937.58,273.7s-.47-2.85-3.69-1"/><path class="cls-9" d="m916.86,276.76s-.38-2.86,3.25-2.03"/></g><g class="cls-16"><g><g><path class="cls-35" d="m727,184.19c-.08-.03-.16-.05-.24-.07-.1,1.24-.62,2.47-1.82,3.51-4.94,4.3-5.17-1.91-5.17-1.91,0,0-.18-1.97.66-2.65.16-.13.38-.35.63-.63-1.53-.29-3.12-.47-4.76-.53-1.36,2.19-4.81,3.93-4.81,3.93-3.22-.84-5.21-1.68-6.34-2.55-1.49.45-3.11,1.1-4.46,1.74.19.11.35.2.47.26.98.45,1.29,2.4,1.29,2.4,0,0,1.31,6.07-4.54,3.13-1.29-.65-2.08-1.59-2.51-2.64l-.13.07c-1.13.64-2.18,1.33-3.17,2.07-1.18.88-2.26,1.83-3.25,2.86-.91.94-1.75,1.95-2.51,3.01-.91,1.26-1.71,2.6-2.42,4.03,0,0,5.48-2.66,7.61,5.13.96,3.52-2.95,4.22-4.47,7.33s-.87,7.7-1.06,9.95c-.49,5.68-6.05,7.65-6.23,1.2.13,5.8.82,12.13,1.94,18.95.42,2.54,1.73,4.23,1.76,5.76,0,.42.06.83.14,1.23.73-3.19,4.75-11.28,10.77-15.95,7.78-6.03,15.36-7.03,21.68-7.73,10.01-1.12,16.01.37,19.39,1.6,0,0,1.64-2.45-.87-3.41-2.5-.95-.28-10.56,2-10.3,2.27.26,2.97,3.49,3.97,4.33,1,.84,5.54-.47,5.2-3.54-.34-3.07-4.74-5.25-4.9-8.28-.16-3.04,1.85-3.61,3.63-4.1.57-.16,1.53-.25,2.08-.29-2.19-4.91-4.92-8.85-8.35-11.87-1.13-1-2.33-1.89-3.62-2.69-1.25-.77-2.58-1.46-3.99-2.05-1.15-.49-2.34-.91-3.6-1.28Zm-25.42,25.19c-1.42.08-2.58-1.08-2.54-2.5.02-.79.22-1.69.82-2.49.25-.33.69-.93,1.38-1.07.97-.2,2.19.58,3.19,2.08.8,1.2.36,2.84-.93,3.48-.23.11-.47.21-.74.29-.42.13-.82.19-1.18.21Zm4.54,6.4c-.39-2.3-.6-3.46-.21-4.39,1.49-3.55,6.93-4.22,7.76-4.32,1.04-.13,6.6-.7,8.75,2.45.54.79.59,1.9.71,4.13.16,2.9.24,4.35-.49,5.52-1.52,2.44-5.17,2.93-7.06,3.19-1.86.25-5.64.76-7.74-1.25-.98-.94-1.23-2.4-1.72-5.33Zm16.91-9.82c-.84-.37-1.29-1.28-1.09-2.18.2-.92.66-2.06,1.74-2.83.34-.24.94-.67,1.64-.59,1.09.12,2.1,1.45,2.56,3.5.21.97-.32,1.96-1.26,2.27-.46.15-1,.26-1.62.26-.78,0-1.44-.2-1.96-.43Z"/><path class="cls-31" d="m679.76,223.83c.18,6.45,5.74,4.48,6.23-1.2.19-2.24-.46-6.84,1.06-9.95s5.43-3.8,4.47-7.33c-2.13-7.79-7.61-5.13-7.61-5.13-3.1,6.25-4.33,14.05-4.16,23.18,0,.14,0,.28,0,.42Z"/><path class="cls-41" d="m683.61,249.77h0c35.06,6.79,69.03-7.91,69.1-9.6-2.79-2.94-6.03-7.85-14.78-11.49-.59-.25-1.41-.61-2.49-1-3.38-1.23-9.37-2.71-19.39-1.6-6.32.7-13.89,1.7-21.68,7.73-6.03,4.68-10.05,12.76-10.77,15.95Z"/><path class="cls-41" d="m683.61,249.78c.42,2,1.78,3.69,3.72,4.47,1.79.72,3.57,1.13,4.53,1.4,8.56,2.45,18.59,1.25,27.33.03,5.14-.72,14.66-2.07,24.5-5.67,1.73-.64,5.38-2.06,7.68-4.67,1.55-1.75,1.51-4.18,1.34-5.17-.07,1.69-34.04,16.38-69.1,9.6Z"/><path class="cls-27" d="m688.84,193.2c.99-1.03,2.07-1.98,3.25-2.86l-.05-.06s-8.07-4.44-9.26-6.56c-1.61-2.87-2.34-1.53-2.62-.65-1.48,5.21-.94,14.93,6.17,13.14.76-1.06,1.6-2.07,2.51-3.01Z"/><path class="cls-35" d="m680.16,183.07c.28-.88,1.01-2.23,2.62.65,1.19,2.13,9.26,6.56,9.26,6.56l.05.06c.99-.74,2.04-1.43,3.17-2.07l-.02-.04c.61-1.26-9-3.31-11.88-7.54-1.19-1.74-2.46-.25-3.2,2.38Z"/><path class="cls-29" d="m695.4,188.19c.43,1.05,1.22,1.99,2.51,2.64,5.84,2.94,4.54-3.13,4.54-3.13,0,0-.32-1.96-1.29-2.4-.12-.06-.28-.15-.47-.26-1.26-.8-3.68-2.85-3.86-4.31-.16-1.31-2.96,3.77-1.42,7.46Z"/><path d="m699.03,206.88c-.04,1.42,1.12,2.58,2.54,2.5.37-.02.77-.08,1.18-.21.27-.08.51-.18.74-.29,1.29-.64,1.73-2.28.93-3.48-1-1.5-2.22-2.27-3.19-2.08-.68.14-1.13.74-1.38,1.07-.6.8-.8,1.69-.82,2.49Z"/><path class="cls-27" d="m705.9,211.39c-.39.94-.18,2.09.21,4.39.5,2.92.74,4.38,1.72,5.33,2.09,2.01,5.88,1.5,7.74,1.25,1.89-.26,5.54-.75,7.06-3.19.73-1.17.65-2.62.49-5.52-.12-2.23-.17-3.34-.71-4.13-2.15-3.15-7.71-2.58-8.75-2.45-.82.1-6.27.77-7.76,4.32Zm4.67,3.55c-.16-1.29.17-2.38.75-2.45s1.16.91,1.33,2.19-.17,2.38-.74,2.45-1.17-.91-1.33-2.19Zm5.47-.69c-.16-1.29.17-2.38.74-2.45s1.17.91,1.33,2.19-.17,2.38-.75,2.45-1.16-.91-1.33-2.19Z"/><path class="cls-41" d="m716.29,181.92c.77-1.23.86-2.6-.71-3.88-4.35-3.53-3.24-3.77-1.45-4.24,1.78-.47-4.33-1.5-4.07.6s-.99-4.07-3.8-3.82c0,0,2.52,3.82-.27,7.02-1.86,2.13-3.11,3.97-.86,5.71,1.13.87,3.12,1.71,6.34,2.55,0,0,3.46-1.75,4.81-3.93Z"/><path d="m711.32,212.48c-.58.07-.91,1.17-.75,2.45s.75,2.27,1.33,2.19.9-1.17.74-2.45-.75-2.27-1.33-2.19Z"/><path d="m716.78,211.8c-.57.07-.9,1.17-.74,2.45s.75,2.27,1.33,2.19.91-1.17.75-2.45-.75-2.27-1.33-2.19Z"/><path d="m721.93,203.79c-.2.89.26,1.81,1.09,2.18.52.23,1.18.42,1.96.43.62,0,1.16-.1,1.62-.26.94-.31,1.47-1.3,1.26-2.27-.45-2.05-1.47-3.39-2.56-3.5-.7-.08-1.3.35-1.64.59-1.07.77-1.54,1.92-1.74,2.83Z"/><path class="cls-29" d="m721.05,182.44c-.25.28-.47.5-.63.63-.84.67-.66,2.65-.66,2.65,0,0,.23,6.21,5.17,1.91,1.2-1.04,1.72-2.27,1.82-3.51.32-3.86-3.42-7.81-3.26-6.54.17,1.36-1.4,3.67-2.44,4.86Z"/><path class="cls-35" d="m736.67,174c-1.73,4.75-10.32,9.05-9.68,10.19,1.26.37,2.46.79,3.6,1.28,0,0,6.76-6.32,7.39-8.68.82-3.04,2.14-1.72,2.68-.92-1.5-2.6-3.25-3.92-3.99-1.87Z"/><path class="cls-31" d="m736.57,213.97c-2.27-.26-4.5,9.35-2,10.3,2.51.96.87,3.41.87,3.41,1.08.39,1.89.76,2.49,1,8.75,3.64,11.99,8.55,14.78,11.49-.33-1.92,1.54-2.43,1.06-6.52-1.54-13.24-3.69-23.67-7.22-31.57-.55.05-1.51.14-2.08.29-1.78.5-3.78,1.06-3.63,4.1.16,3.03,4.56,5.21,4.9,8.28.34,3.07-4.2,4.38-5.2,3.54-1-.85-1.71-4.07-3.97-4.33Z"/><path class="cls-27" d="m734.58,187.52c1.29.8,2.5,1.7,3.62,2.69,7.26.02,5.3-9.41,2.47-14.32,0,0-.01,0-.01-.02-.55-.8-1.86-2.13-2.68.92-.63,2.35-7.39,8.68-7.39,8.68,1.41.6,2.74,1.28,3.99,2.05Z"/></g><g><path class="cls-7" d="m726.75,184.12c-.1,1.24-.62,2.47-1.82,3.51-4.94,4.3-5.17-1.91-5.17-1.91,0,0-.18-1.97.66-2.65.16-.13.38-.35.63-.63,1.04-1.2,2.61-3.51,2.44-4.86-.16-1.27,3.58,2.68,3.26,6.54Z"/><path class="cls-7" d="m695.4,188.19c.43,1.05,1.22,1.99,2.51,2.64,5.84,2.94,4.54-3.13,4.54-3.13,0,0-.32-1.96-1.29-2.4-.12-.06-.28-.15-.47-.26-1.26-.8-3.68-2.85-3.86-4.31-.16-1.31-2.96,3.77-1.42,7.46Z"/><path class="cls-7" d="m716.2,181.92s.06,0,.09,0c1.65.06,3.23.23,4.76.53,0,0,.02,0,.03,0"/><path class="cls-7" d="m700.62,185.07s.04-.02.06-.03c1.35-.63,2.96-1.29,4.46-1.74"/><path class="cls-7" d="m679.75,223.42c-.17-9.13,1.05-16.93,4.16-23.18.7-1.42,1.51-2.77,2.42-4.03.76-1.06,1.6-2.07,2.51-3.01.99-1.03,2.07-1.98,3.25-2.86.99-.74,2.04-1.43,3.17-2.07l.13-.07s.02-.01.03-.02"/><path class="cls-7" d="m683.61,249.77c-.08-.4-.13-.81-.14-1.23-.03-1.54-1.34-3.22-1.76-5.76-1.12-6.82-1.81-13.15-1.94-18.95"/><path class="cls-7" d="m726.71,184.11s.03.01.04.01c.08.02.16.05.24.07,1.26.37,2.46.79,3.6,1.28,1.41.6,2.74,1.28,3.99,2.05,1.29.8,2.5,1.7,3.62,2.69,3.43,3.02,6.16,6.95,8.35,11.87,3.52,7.9,5.68,18.33,7.22,31.57.47,4.09-1.39,4.6-1.06,6.52.17.99.21,3.41-1.34,5.17-2.3,2.61-5.95,4.03-7.68,4.67-9.83,3.6-19.36,4.95-24.5,5.67-8.74,1.22-18.77,2.42-27.33-.03-.96-.27-2.74-.68-4.53-1.4-1.94-.77-3.3-2.47-3.72-4.47"/><path class="cls-7" d="m727.87,203.87c.21.97-.32,1.96-1.26,2.27-.46.15-1,.26-1.62.26-.78,0-1.44-.2-1.96-.43-.84-.37-1.29-1.28-1.09-2.18.2-.92.66-2.06,1.74-2.83.34-.24.94-.67,1.64-.59,1.09.12,2.1,1.45,2.56,3.5Z"/><path class="cls-7" d="m704.42,205.4c.8,1.2.36,2.84-.93,3.48-.23.11-.47.21-.74.29-.42.13-.82.19-1.18.21-1.42.08-2.58-1.08-2.54-2.5.02-.79.22-1.69.82-2.49.25-.33.69-.93,1.38-1.07.97-.2,2.19.58,3.19,2.08Z"/><path class="cls-7" d="m716.04,214.25c.16,1.29.75,2.27,1.33,2.19s.91-1.17.75-2.45-.75-2.27-1.33-2.19-.9,1.17-.74,2.45Z"/><path class="cls-7" d="m710.57,214.94c.16,1.29.75,2.27,1.33,2.19s.9-1.17.74-2.45-.75-2.27-1.33-2.19-.91,1.17-.75,2.45Z"/><path class="cls-7" d="m705.14,183.3c1.13.87,3.12,1.71,6.34,2.55,0,0,3.46-1.75,4.81-3.93.77-1.23.86-2.6-.71-3.88-4.35-3.53-3.24-3.77-1.45-4.24,1.78-.47-4.33-1.5-4.07.6s-.99-4.07-3.8-3.82c0,0,2.52,3.82-.27,7.02-1.86,2.13-3.11,3.97-.86,5.71Z"/><path class="cls-7" d="m752.71,240.17c-.07,1.69-34.04,16.38-69.1,9.6"/><path class="cls-7" d="m752.71,240.17c-2.79-2.94-6.03-7.85-14.78-11.49-.59-.25-1.41-.61-2.49-1-3.38-1.23-9.37-2.71-19.39-1.6-6.32.7-13.89,1.7-21.68,7.73-6.03,4.68-10.05,12.76-10.77,15.95h0"/><path class="cls-7" d="m746.99,202.05s-.17.01-.43.03c-.55.05-1.51.14-2.08.29-1.78.5-3.78,1.06-3.63,4.1.16,3.03,4.56,5.21,4.9,8.28.34,3.07-4.2,4.38-5.2,3.54-1-.85-1.71-4.07-3.97-4.33-2.27-.26-4.5,9.35-2,10.3,2.51.96.87,3.41.87,3.41"/><path class="cls-7" d="m706.11,215.79c.5,2.92.74,4.38,1.72,5.33,2.09,2.01,5.88,1.5,7.74,1.25,1.89-.26,5.54-.75,7.06-3.19.73-1.17.65-2.62.49-5.52-.12-2.23-.17-3.34-.71-4.13-2.15-3.15-7.71-2.58-8.75-2.45-.82.1-6.27.77-7.76,4.32-.39.94-.18,2.09.21,4.39Z"/><path class="cls-7" d="m683.91,200.23s5.48-2.66,7.61,5.13c.96,3.52-2.95,4.22-4.47,7.33s-.87,7.7-1.06,9.95c-.49,5.68-6.05,7.65-6.23,1.2,0-.13-.01-.27,0-.42"/><path class="cls-7" d="m740.68,175.89c2.83,4.91,4.79,14.34-2.47,14.32"/><path class="cls-7" d="m727.03,184.24s-.02-.03-.03-.04c-.64-1.14,7.95-5.45,9.68-10.19.74-2.05,2.49-.72,3.99,1.87"/><path class="cls-7" d="m730.6,185.47s6.76-6.32,7.39-8.68c.82-3.04,2.14-1.72,2.68-.92,0,0,0,.01.01.02.02.03.04.06.05.09"/><path class="cls-7" d="m734.58,187.52s6.33-4,6.09-6.7"/><path class="cls-7" d="m695.24,188.22c.61-1.26-9-3.31-11.88-7.54-1.19-1.74-2.46-.25-3.2,2.38-1.48,5.21-.94,14.93,6.17,13.14.01,0,.03,0,.05-.01"/><path class="cls-7" d="m692.05,190.28s-8.07-4.44-9.26-6.56c-1.61-2.87-2.34-1.53-2.62-.65"/><path class="cls-7" d="m688.84,193.2s-7.23-2.24-7.67-4.92"/><path class="cls-7" d="m730.2,197.21s-.72-5.11-6.56-1.94"/><path class="cls-7" d="m696.36,201.45s-.57-5.13,5.88-3.5"/></g></g></g></g><g id="Layer_4"><path class="cls-4" d="m546.19,393.22s-1.27.06-2.09.42-3.58.14-4.04-.24"/><rect class="cls-34" x="396.85" y="143.15" width="264.81" height="293.08"/><text transform="translate(408.48 169.15)"><tspan class="cls-60"><tspan class="cls-10" x="0" y="0">H</tspan><tspan class="cls-65" x="16.92" y="0">o</tspan><tspan class="cls-10" x="32.74" y="0">w </tspan><tspan class="cls-21" x="60" y="0">t</tspan><tspan class="cls-49" x="71.69" y="0">o pl</tspan><tspan class="cls-54" x="118.87" y="0">a</tspan><tspan class="cls-48" x="133.58" y="0">y:</tspan></tspan><tspan class="cls-51"><tspan class="cls-56" x="0" y="24"> Roll the dice </tspan><tspan class="cls-69" x="127.47" y="24">t</tspan><tspan class="cls-70" x="135.2" y="24">o g</tspan><tspan class="cls-45" x="161.44" y="24">e</tspan><tspan class="cls-56" x="171.25" y="24">t poi</tspan><tspan class="cls-50" x="210.11" y="24">n</tspan><tspan class="cls-70" x="220.35" y="24">ts</tspan></tspan><tspan class="cls-51"><tspan class="cls-56" x="0" y="47"> Fi</tspan><tspan class="cls-22" x="32.1" y="47">r</tspan><tspan class="cls-57" x="38.62" y="47">s</tspan><tspan class="cls-70" x="47.54" y="47">t </tspan><tspan class="cls-66" x="60.32" y="47">t</tspan><tspan class="cls-70" x="68.05" y="47">o 35 poi</tspan><tspan class="cls-47" x="134.77" y="47">n</tspan><tspan class="cls-70" x="145.01" y="47">ts wins</tspan></tspan><tspan class="cls-52"><tspan x="0" y="70"> Roll a one: </tspan></tspan><tspan class="cls-51"><tspan class="cls-46" x="0" y="88">	</tspan><tspan class="cls-12" x="36" y="88">Y</tspan><tspan class="cls-70" x="45.02" y="88">our turn ends</tspan><tspan class="cls-19" x="158.49" y="88">,</tspan><tspan class="cls-70" x="162.64" y="88"> </tspan></tspan><tspan class="cls-51"><tspan class="cls-46" x="0" y="103">	</tspan><tspan class="cls-56" x="36" y="105">Gain 0 poi</tspan><tspan class="cls-47" x="118.64" y="105">n</tspan><tspan class="cls-56" x="128.88" y="105">ts this </tspan><tspan class="cls-64" x="187.66" y="105">r</tspan><tspan class="cls-56" x="194.06" y="105">ound</tspan></tspan><tspan class="cls-51"><tspan class="cls-56" x="0" y="126"> Roll sna</tspan><tspan class="cls-58" x="82.85" y="126">k</tspan><tspan class="cls-56" x="91.7" y="126">e eyes: </tspan></tspan><tspan class="cls-51"><tspan class="cls-46" x="0" y="149">	</tspan><tspan class="cls-44" x="36" y="143">L</tspan><tspan class="cls-70" x="45.33" y="143">ose all your poi</tspan><tspan class="cls-47" x="172.61" y="143">n</tspan><tspan class="cls-70" x="182.85" y="143">ts</tspan><tspan class="cls-20" x="199.95" y="143">,</tspan></tspan><tspan class="cls-51"><tspan class="cls-46" x="0" y="166">	</tspan><tspan class="cls-56" x="36" y="159">Co</tspan><tspan class="cls-47" x="57.47" y="159">n</tspan><tspan class="cls-56" x="67.71" y="159">ti</tspan><tspan class="cls-53" x="80.3" y="159">n</tspan><tspan class="cls-56" x="90.64" y="159">ue your turn</tspan><tspan class="cls-56" x="194.5" y="166"> </tspan></tspan></text></g></svg>