<?xml version="1.0" encoding="UTF-8"?><svg id="six" xmlns="http://www.w3.org/2000/svg" viewBox="0 0 72.07 70.82"><defs><style>.cls-1{fill:none;stroke:#000;stroke-miterlimit:10;stroke-width:3px;}.cls-2{fill:#c92c5e;}.cls-3{fill:#3cd59c;}</style></defs><g><path class="cls-3" d="m67.6,3.86v63.11H4.48V3.86h63.12Zm-11.27,15.9c0-3.65-2.96-6.61-6.61-6.61s-6.62,2.96-6.62,6.61,2.97,6.61,6.62,6.61,6.61-2.96,6.61-6.61Zm0,16.46c0-3.65-2.96-6.61-6.61-6.61s-6.62,2.96-6.62,6.61,2.97,6.62,6.62,6.62,6.61-2.96,6.61-6.62Zm0,16.85c0-3.65-2.96-6.61-6.61-6.61s-6.62,2.96-6.62,6.61,2.97,6.61,6.62,6.61,6.61-2.96,6.61-6.61ZM28.98,19.76c0-3.65-2.96-6.61-6.62-6.61s-6.61,2.96-6.61,6.61,2.96,6.61,6.61,6.61,6.62-2.96,6.62-6.61Zm0,16.65c0-3.65-2.96-6.61-6.62-6.61s-6.61,2.96-6.61,6.61,2.96,6.62,6.61,6.62,6.62-2.96,6.62-6.62Zm0,16.66c0-3.65-2.96-6.61-6.62-6.61s-6.61,2.96-6.61,6.61,2.96,6.61,6.61,6.61,6.62-2.96,6.62-6.61Z"/><path class="cls-2" d="m49.72,13.15c3.65,0,6.61,2.96,6.61,6.61s-2.96,6.61-6.61,6.61-6.62-2.96-6.62-6.61,2.97-6.61,6.62-6.61Z"/><path class="cls-2" d="m49.72,29.61c3.65,0,6.61,2.96,6.61,6.61s-2.96,6.62-6.61,6.62-6.62-2.96-6.62-6.62,2.97-6.61,6.62-6.61Z"/><path class="cls-2" d="m49.72,46.46c3.65,0,6.61,2.96,6.61,6.61s-2.96,6.61-6.61,6.61-6.62-2.96-6.62-6.61,2.97-6.61,6.62-6.61Z"/><path class="cls-2" d="m22.36,13.15c3.66,0,6.62,2.96,6.62,6.61s-2.96,6.61-6.62,6.61-6.61-2.96-6.61-6.61,2.96-6.61,6.61-6.61Z"/><path class="cls-2" d="m22.36,29.8c3.66,0,6.62,2.96,6.62,6.61s-2.96,6.62-6.62,6.62-6.61-2.96-6.61-6.62,2.96-6.61,6.61-6.61Z"/><path class="cls-2" d="m22.36,46.46c3.66,0,6.62,2.96,6.62,6.61s-2.96,6.61-6.62,6.61-6.61-2.96-6.61-6.61,2.96-6.61,6.61-6.61Z"/></g><rect class="cls-1" x="4.48" y="3.86" width="63.12" height="63.11"/></svg>