<?xml version="1.0" encoding="UTF-8"?><svg id="cat" xmlns="http://www.w3.org/2000/svg" viewBox="0 0 170.17 170.43"><defs><style>.cls-1{fill:#ed99a1;}.cls-2{fill:#fff;}.cls-3{fill:#ffd1c4;}.cls-4{fill:#db8f88;}.cls-5{fill:#db8f49;}.cls-6{fill:#4b4649;}.cls-7{fill:none;stroke:#000;stroke-miterlimit:10;}</style></defs><g><g><path class="cls-6" d="m61.57,64.6c.44-.24.84-.49,1.19-.76.54-.41,2.15-2.68.19-5.02-1.61-1.93-2.63.36-4.35-.3-3.44-1.33-.03-5.84-1.74-4.55-1.05.79-1.26,1.02-2.24,3.14-.75,1.61-.54,3.33-.32,4.73.4,2.49,2.81,4.12,5.26,3.52.64-.15,1.32-.4,2.01-.75Zm15.91,4.06c-4.2-1.28-10.39-2.54-17.77-1.81-15.55,1.54-25.88,10.87-29.97,15.14-.45.17-.89.35-1.32.53-1.03-2.34-3.85-9.55-3.43-18.48.53-2.58,1.06-4.73,1.57-6.53,0,0-.03-.83-.08-2.21.56-1.88,1.3-3.79,2.26-5.71,3.03-6.05,7.62-10.98,12.2-14.27-7.74-3.77-15.74-10.16-15.53-5.64.25,5.6.84,20.07,1.07,25.62-.91,3.02-1.36,5.96-1.48,8.74-.71,3.41-1.45,7.58-2.19,12.66h-.03c.69-4.35-.08-10.3-.65-16.94-1.58-18.39-1.45-26.87-1.54-30.61-.1-3.76.06-4.7,0-7.34-.08-3.36-.25-7.25.03-6.95,1.24,1.29,6.97,6.48,15.94,12.11,0,0,3.46,3.4,8.23,4.12,1.33.2,2.61.25,3.88.17h.02c2.99-.19,5.96-1.03,9.56-2.03,4.27-.98,6.42-1.65,8.17-2.08t.02,0c3.48-.75,7.53-1.4,12.42-1.76,2.74.04,5.11.57,6.06,2.08,2.56,3.99-7.72,10.33-6.84,22.16.08,1.08.25,2.08.39,3.27.17,1.35.32,2.93.3,5.16-.03,4.53-.7,8.22-1.27,10.62Z"/><path class="cls-6" d="m58.02,29.27c.07-.02.14-.03.2-.04-3.6,1-6.57,1.85-9.56,2.03.5-.15.98-.27,1.44-.36.74-.14,3.68-.65,7.92-1.63Z"/><path class="cls-4" d="m100.39,26.87c3.79.83,7.38,1.8,10.69,2.53.69,2.46,3.49,14.09-2.9,23.99-.46.72-.97,1.42-1.52,2.11-.78.97-1.59,1.82-2.42,2.58-3.06,2.83-6.28,4.39-8.46,5.23-.76.14-8.19,1.39-13.12-3.65-2.05-2.09-2.96-4.56-3.32-6.89l-.89.1c-.14-1.19-.3-2.19-.39-3.27-.87-11.82,9.4-18.17,6.84-22.16-.96-1.51-3.33-2.03-6.06-2.08,1.99-.15,4.12-.25,6.42-.29,5.32-.09,10.4.75,15.14,1.79Z"/><path class="cls-4" d="m40.92,35.31c-4.57,3.29-9.16,8.22-12.2,14.27-.96,1.91-1.7,3.83-2.26,5.71-.23-5.55-.81-20.02-1.07-25.62-.21-4.51,7.78,1.87,15.53,5.64Z"/><path class="cls-2" d="m84.45,68.63c-4.06,0-7.24,2.63-7.1,2.98.08.2,1.18-.42,2.57.08,1.12.4,2.02,1.41,2.27,1.63,1.27,1.02,1.44,1.42,2.26,1.42,1.59,0,2.29-2.13,4.52-3.05,1.18-.49,1.85-.25,1.91-.54.14-.66-3.03-2.51-6.44-2.52Zm57.54-11c-.87-.39-1.83,1.02-3.49,1.82-3.09,1.48-6.27-1.24-8.33-.65-8.23,2.35-14.81,6.58-17.05,12.05-8.72-.88-15.16,1.78-15.16,1.78l1.14,1.27s5.75-1.21,13.2.5c-.08,1.13.03,2.3.35,3.51,2.26,8.88,16.3,17.24,16.3,17.24.86-.37,15.43-6.98,16.46-20.01.27-3.4-.44-6.41-1.41-8.84-.3-1.12-.7-2.72-.99-4.69-.37-2.46-.31-3.67-1.02-3.98Zm-.78-4.9c1.58,3.7,3.46,10.73,5.37,23.91.02.14.04.28.06.42.56,3.9,1.63,6.82,3.5,8.28,1.74,1.37,3.69,3.27,4.07,6.16.08.69-.89,1.83-.86,2.57.08,2.24-.03,4.65-.3,7.14l-.12-.02s-1.02-7.24-10.39-3.35c-7.26,3.02-12.48,7.29-12.86,11.82-1.86-1.55-3.84-2.97-5.9-4.19-7.56-4.48-14.75-6.73-21.45-7.85-.02,0-.03,0-.03,0-1.13-.34-1.88-.61-1.98-.77,0-.02-.03-.03-.07-.06-.91-.62-3.58-.83-5.26-.91-1.02-.07-2.57-.15-4.47-.21-3.51-.11-7.17-.1-8.12-.03-1.08.08-2.34.48-3.64,1.17-.14,0-.27.02-.4.03l-.02-.24c-3.53-1.32-7.72-1.15-12.96.12-6.39,1.54-13.34,5.08-18.35,7.99,2.41-1.56,4.52-3.03,6.34-4.35,4.24-3.1,6.45-5.09,6.72-7.97.46-4.87-4.67-11.51-10.67-10.85-4.66.51-7.2,5.11-7.47,5.62,0,0,.75-9.06-9.36-6.1-.98.29-1.93.6-2.85.95,4.1-4.28,14.42-13.6,29.97-15.14,7.38-.73,13.57.53,17.77,1.81.57-2.4,1.25-6.09,1.27-10.62.02-2.23-.14-3.81-.3-5.16l.89-.1c.36,2.33,1.27,4.79,3.32,6.89,4.93,5.04,12.36,3.79,13.12,3.65,2.18-.84,5.4-2.4,8.46-5.23l.32.35c-.12.11-.24.23-.36.38-1.97,2.35-.36,4.62.19,5.02.36.27.75.53,1.19.76.69.36,1.36.6,2.01.75,2.45.6,4.86-1.03,5.26-3.52.22-1.4.42-3.12-.32-4.73-.98-2.12-1.19-2.35-2.24-3.14-.3-.23-.44-.27-.49-.19l-1.6-.37c6.39-9.89,3.59-21.53,2.9-23.99,3.81.84,7.27,1.36,10.29,1.02-1.43,1.39-2.45,2.85-2.96,4.36.93.34,2.07.91,3.33,1.89,6.96,1.58,16.19-6.89,19.83-8,1.09-.33,1.68,0,1.57,1.44-.48,6.12-1.83,21.69-1.91,22.61Z"/><path class="cls-6" d="m40.31,109.54c-10.42,7.38-14.37,15.06-18.06,20.06-.44-1.84-1.37-6.46-2.38-11.97-.14-.77-2.63.83-2.7-2.35-.04-2.16,1.96-1.73,1.8-2.61-.98-5.53-1.92-11.34-2.49-15.78l.42-.05c.06.43.14.86.25,1.3,1.97,7.9,14.26,15.32,14.26,15.32,3.83-1.85,7.28-3.73,10.38-5.53-1.14.75-1.8,1.2-1.8,1.2,0,0,.11.14.31.42Z"/><path class="cls-2" d="m109.78,53.76c-.23.39,1.59,3.64-1.25,4.74-1.58.61-2.57-1.29-3.98-.08l-.32-.35c.83-.76,1.64-1.62,2.42-2.58.56-.69,1.07-1.39,1.52-2.11l1.6.37Z"/><path class="cls-3" d="m148.17,17.78c1.31,17.04-3.51,44.37-1.58,58.87-1.91-13.18-3.79-20.21-5.37-23.91.08-.92,1.43-16.49,1.91-22.61.11-1.45-.47-1.77-1.57-1.44l-.25-.75s-.44-3.13-3.4-4.17c1.18-.74,2.59-1.65,4.67-2.9.05-.03,5.57-3.27,5.59-3.08Z"/><path class="cls-4" d="m152.93,101.2l.12.02c-.34,3.12-.92,6.36-1.7,9.61-.14.57,1.54.81,1.02,2.58-.61,2.13-2.24,1.31-2.41,1.94-.82,3.13-1.64,5.92-2.3,8.16h0s-3.64-1.06-7.64-2.91c-2.78-3.69-6.3-7.61-10.34-10.94.38-4.53,5.6-8.81,12.86-11.82,9.38-3.89,10.39,3.35,10.39,3.35Z"/><path class="cls-5" d="m147.66,123.52h0c-.86,2.93-1.42,4.93-1.36,5.54.08.74.08,1.47.02,2.19-.88-2.41-3.1-6.37-6.31-10.63,4,1.85,7.64,2.91,7.64,2.91Z"/><path class="cls-3" d="m146.33,131.25s0,0,0,0c-60.38,19.73-123.58,1.3-124.08-1.66,3.68-5,7.64-12.68,18.06-20.06,2.25,2.91,16.29,20.07,31.53,16.68,4.91,5.56,11.89,9.71,11.89,9.71.86-.37,28.95-3.49,29.98-16.52.26-3.4,6.3-13.55,5.34-15.98-.31-1.12-5.08-2.41-6.98-3.02-3-.95-7.26-2.03-9.75-2.79,6.71,1.12,13.9,3.37,21.45,7.85,2.06,1.22,4.03,2.64,5.9,4.19-.11,1.32.19,2.67.97,4.01,1.67,2.85,5.67,5.23,9.37,6.94,3.21,4.26,5.43,8.22,6.31,10.63Z"/><path class="cls-5" d="m112.31,74.4c.06-1.24.34-2.41.81-3.55,2.24-5.47,8.82-9.7,17.05-12.05,2.07-.58,5.24,2.13,8.33.65,1.66-.8,2.62-2.21,3.49-1.82.71.31.65,1.52,1.02,3.98.29,1.97.69,3.57.99,4.69.97,2.43,1.68,5.45,1.41,8.84-1.02,13.03-15.6,19.63-16.46,20.01,0,0-14.04-8.36-16.3-17.24-.31-1.21-.42-2.38-.35-3.51Z"/><path class="cls-5" d="m141.32,27.92l.25.75c-3.64,1.1-12.87,9.58-19.83,8-1.26-.97-2.4-1.55-3.33-1.89.51-1.51,1.52-2.97,2.96-4.36.98-.11,1.91-.31,2.8-.63,9.02-3.18,10.34-3.89,13.75-6.04,2.96,1.04,3.4,4.17,3.4,4.17Z"/><path class="cls-3" d="m146.33,131.26c-.3,3.62-2.32,6.9-5.57,8.72-3.01,1.66-6.06,2.78-7.69,3.48-14.56,6.21-32.52,6.32-48.23,6.1-9.22-.13-26.34-.42-44.49-4.59-3.2-.74-9.95-2.43-14.59-6.53-3.12-2.76-3.09-7.1-3.5-8.83.49,2.96,63.69,21.39,124.08,1.66Z"/><path class="cls-2" d="m129.68,109.67c4.04,3.34,7.56,7.25,10.34,10.94-3.69-1.7-7.7-4.09-9.37-6.94-.79-1.34-1.08-2.68-.97-4.01Z"/><path class="cls-5" d="m71.84,126.22c-2.05-2.33-3.74-4.9-4.41-7.52-2.35-9.23,5.12-18.66,11.32-21.89,1.62-.09,3.3-.15,5.06-.18,5.62-.08,11.82-.09,18.48,1,0,0,.02.02.03,0,2.49.75,6.75,1.84,9.75,2.79,1.9.6,6.67,1.9,6.98,3.02.96,2.43-5.08,12.59-5.34,15.98-1.03,13.03-29.13,16.14-29.98,16.52,0,0-6.98-4.15-11.89-9.71Z"/><path d="m112.51,57.1c.75,1.61.54,3.33.32,4.73-.4,2.49-2.81,4.12-5.26,3.52-.64-.15-1.32-.4-2.01-.75-.44-.24-.83-.49-1.19-.76-.54-.41-2.15-2.68-.19-5.02.13-.15.25-.27.36-.38,1.41-1.21,2.41.69,3.98.08,2.84-1.1,1.02-4.35,1.25-4.74.05-.08.19-.03.49.19,1.06.79,1.26,1.02,2.24,3.14Z"/><path class="cls-2" d="m113.12,70.85c-.47,1.13-.75,2.31-.81,3.55-7.45-1.71-13.2-.5-13.2-.5l-1.14-1.27s6.44-2.66,15.16-1.78Z"/><path class="cls-4" d="m110.98,29.08c.03.08.06.19.09.33-3.31-.74-6.89-1.7-10.69-2.53,1.49.14,3.22.42,4.93.74,2.38.43,4.32,1.01,5.67,1.47Z"/><path class="cls-2" d="m100.32,96.85c.1.16.86.43,1.98.77-6.67-1.09-12.86-1.08-18.48-1-1.76.03-3.45.08-5.06.18,1.3-.69,2.56-1.09,3.64-1.17.96-.07,4.61-.08,8.12.03,1.9.06,3.46.14,4.47.21,1.68.08,4.35.3,5.26.91.04.03.06.04.07.06Z"/><path class="cls-1" d="m84.45,68.63c3.4,0,6.57,1.85,6.44,2.52-.06.3-.74.05-1.91.54-2.24.92-2.93,3.05-4.52,3.05-.82,0-.99-.4-2.26-1.42-.25-.21-1.15-1.23-2.27-1.63-1.39-.5-2.49.13-2.57-.08-.14-.36,3.04-2.98,7.1-2.98Z"/><path class="cls-6" d="m66.41,27.14c1.23-.3,7.44-1.85,12.42-1.76-4.89.36-8.94,1.02-12.42,1.76Z"/><path class="cls-6" d="m78.36,96.83c.13,0,.26-.02.4-.03-6.2,3.24-13.68,12.66-11.32,21.89.67,2.62,2.36,5.19,4.41,7.52-15.25,3.4-29.28-13.76-31.53-16.68,1.65-1.18,3.47-2.35,5.48-3.49,3.77-2.15,12.76-8.04,32.57-9.22Z"/><path class="cls-2" d="m78.34,96.59l.02.24c-19.81,1.19-28.8,7.07-32.57,9.22-2.01,1.14-3.83,2.31-5.48,3.49-.2-.27-.31-.42-.31-.42,0,0,.65-.46,1.8-1.2,0,0,.02,0,.03-.02,1.85-1.08,3.56-2.14,5.14-3.17.03,0,.05-.03.08-.04,5.01-2.91,11.96-6.45,18.35-7.99,5.24-1.27,9.43-1.44,12.96-.12Z"/><path class="cls-2" d="m66.4,27.14c-1.75.43-3.9,1.1-8.17,2.08,2.39-.68,5.05-1.42,8.17-2.08Z"/><path d="m62.95,58.81c1.97,2.35.36,4.62-.19,5.02-.36.27-.75.53-1.19.76-.69.36-1.36.6-2.01.75-2.45.6-4.86-1.03-5.26-3.52-.22-1.4-.42-3.12.32-4.73.98-2.12,1.19-2.35,2.24-3.14,1.71-1.29-1.7,3.22,1.74,4.55,1.72.66,2.74-1.63,4.35.3Z"/><path class="cls-4" d="m49.41,81.52c6.01-.66,11.13,5.98,10.67,10.85-.27,2.88-2.47,4.87-6.72,7.97-1.81,1.32-3.92,2.8-6.34,4.35-.03.02-.05.03-.08.04-2.13,1.25-3.91,2.36-5.14,3.17,0,0-.02,0-.03.02-3.09,1.8-6.55,3.68-10.38,5.53,0,0-12.3-7.42-14.26-15.32-.11-.44-.19-.86-.25-1.3-.77-6.18,4.17-11.22,11.5-14.32.12.27.21.47.28.61.29-.31.64-.7,1.04-1.13.92-.35,1.87-.66,2.85-.95,10.1-2.96,9.36,6.1,9.36,6.1.27-.51,2.81-5.11,7.47-5.62Z"/><path class="cls-4" d="m46.96,104.74c-1.58,1.02-3.29,2.08-5.14,3.17,1.23-.8,3.01-1.92,5.14-3.17Z"/><path class="cls-4" d="m29.73,81.99c-.41.43-.75.82-1.04,1.13-.07-.14-.16-.34-.28-.61.43-.18.87-.36,1.32-.53Z"/><path class="cls-6" d="m26.46,55.29c.05,1.38.08,2.21.08,2.21-.51,1.8-1.03,3.95-1.57,6.53.12-2.78.57-5.72,1.48-8.74Z"/><path class="cls-5" d="m22.79,76.69c.74-5.08,1.47-9.25,2.19-12.66-.42,8.94,2.4,16.14,3.43,18.48-7.33,3.1-12.27,8.14-11.5,14.32l-.42.05c-.38-3.05-.59-5.45-.51-6.68.42-6.2,3.39-6.34,5.39-9.48.71-1.11,1.15-2.46,1.4-4.04h.03Z"/></g><g><path class="cls-7" d="m48.64,31.26c-1.27.08-2.55.03-3.88-.17-4.78-.72-8.23-4.12-8.23-4.12-8.97-5.63-14.7-10.82-15.94-12.11-.29-.3-.12,3.58-.03,6.95.07,2.64-.09,3.58,0,7.34.09,3.74-.04,12.22,1.54,30.61.58,6.64,1.34,12.59.65,16.93-.25,1.58-.69,2.93-1.4,4.04-2,3.13-4.96,3.28-5.39,9.48-.08,1.24.13,3.63.51,6.68.57,4.44,1.51,10.25,2.49,15.78.15.88-1.85.45-1.8,2.61.07,3.18,2.56,1.58,2.7,2.35,1.01,5.51,1.94,10.13,2.38,11.97.41,1.74.38,6.07,3.5,8.83,4.64,4.1,11.39,5.79,14.59,6.53,18.15,4.18,35.27,4.46,44.49,4.59,15.7.22,33.67.11,48.23-6.1,1.63-.7,4.68-1.82,7.69-3.48,3.25-1.81,5.27-5.1,5.57-8.72,0,0,0,0,0,0,.07-.72.06-1.45-.02-2.19-.07-.61.5-2.61,1.36-5.54.65-2.24,1.47-5.04,2.3-8.16.16-.63,1.8.19,2.41-1.94.52-1.77-1.16-2.02-1.02-2.58.78-3.25,1.36-6.5,1.7-9.61.27-2.49.38-4.9.3-7.14-.03-.75.95-1.89.86-2.57-.37-2.89-2.33-4.79-4.07-6.16-1.86-1.47-2.94-4.39-3.5-8.28"/><path class="cls-7" d="m66.4,27.14c-3.13.66-5.78,1.41-8.17,2.08-3.6,1-6.57,1.85-9.56,2.03"/><path class="cls-7" d="m146.59,76.64c-1.92-14.49,2.9-41.82,1.58-58.87-.02-.19-5.54,3.06-5.59,3.08-2.08,1.25-3.49,2.16-4.67,2.9-3.4,2.15-4.73,2.85-13.75,6.04-.89.31-1.82.52-2.8.63-3.02.35-6.48-.18-10.29-1.02-3.31-.74-6.89-1.7-10.69-2.53-4.73-1.04-9.82-1.88-15.14-1.79-2.3.03-4.43.14-6.42.29-4.89.36-8.94,1.02-12.42,1.76"/><path class="cls-7" d="m104.55,58.43c-.12.11-.24.23-.36.38-1.97,2.35-.36,4.62.19,5.02.36.27.75.53,1.19.76.69.36,1.36.6,2.01.75,2.45.6,4.86-1.03,5.26-3.52.22-1.4.42-3.12-.32-4.73-.98-2.12-1.19-2.35-2.24-3.14-.3-.23-.44-.27-.49-.19-.23.39,1.59,3.64-1.25,4.74-1.58.61-2.57-1.29-3.98-.08Z"/><path class="cls-7" d="m62.95,58.81c1.97,2.35.36,4.62-.19,5.02-.36.27-.75.53-1.19.76-.69.36-1.36.6-2.01.75-2.45.6-4.86-1.03-5.26-3.52-.22-1.4-.42-3.12.32-4.73.98-2.12,1.19-2.35,2.24-3.14,1.71-1.29-1.7,3.22,1.74,4.55,1.72.66,2.74-1.63,4.35.3Z"/><path class="cls-7" d="m22.25,129.6c.49,2.96,63.69,21.39,124.08,1.66h0"/><path class="cls-7" d="m102.3,97.62c-6.67-1.09-12.86-1.08-18.48-1-1.76.03-3.45.08-5.06.18-.14,0-.27.02-.4.03-19.81,1.19-28.8,7.07-32.57,9.22-2.01,1.14-3.83,2.31-5.48,3.49-10.42,7.38-14.37,15.06-18.06,20.06"/><path class="cls-7" d="m146.33,131.26h0c-.88-2.42-3.1-6.38-6.31-10.64-2.78-3.69-6.3-7.61-10.34-10.94-1.86-1.55-3.84-2.97-5.9-4.19-7.56-4.48-14.75-6.73-21.45-7.85"/><path class="cls-7" d="m40.93,35.31c3.42,1.67,6.78,2.83,9.37,2.3"/><path class="cls-7" d="m26.54,57.5s-.03-.83-.08-2.21c-.23-5.55-.81-20.02-1.07-25.62-.21-4.51,7.78,1.87,15.53,5.64"/><path class="cls-7" d="m141.22,52.77v-.04c.08-.92,1.43-16.49,1.91-22.61.11-1.45-.47-1.77-1.57-1.44-3.64,1.1-12.87,9.58-19.83,8l-.13-.03"/><path class="cls-7" d="m137.36,48.97s1.59-1.61,3.86,3.76c1.58,3.7,3.46,10.73,5.37,23.91.02.14.04.28.06.42"/><path class="cls-7" d="m32.03,48.97s-2.39-2.41-5.49,8.53c-.51,1.8-1.03,3.95-1.57,6.53-.71,3.41-1.45,7.58-2.19,12.66-.02.12-.03.25-.05.37"/><path class="cls-7" d="m97.96,72.63s6.44-2.66,15.16-1.78c1.34.14,2.74.35,4.18.68"/><path class="cls-7" d="m99.11,73.9s5.75-1.21,13.2.5c1.91.44,3.93,1.07,6,1.96"/><path class="cls-7" d="m69.17,72.63s-8.57-3.54-19.33-1.1"/><path class="cls-7" d="m68.03,73.9s-9.07-1.91-19.2,2.46"/><path class="cls-7" d="m115.73,34.33s1.02-.14,2.68.46c.93.34,2.07.91,3.33,1.89.88.68,1.84,1.56,2.82,2.69"/><path class="cls-7" d="m55.99,35.62s-3.96-.54-8.83,5.04"/></g></g><path class="cls-7" d="m150.59,115.11s-1.4,0-2.32.19-3.95.02-4.44-.19"/></svg>