<?xml version="1.0" encoding="UTF-8"?><svg id="pigcatcow" xmlns="http://www.w3.org/2000/svg" viewBox="0 0 538.29 179.7"><defs><style>.cls-1{fill:#ed99eb;}.cls-2{fill:#ed99a1;}.cls-3{fill:#fff;}.cls-4{fill:#ffd1cc;}.cls-5{fill:#ffd1c4;}.cls-6{fill:#ffd1b5;}.cls-7{fill:#edbcd4;}.cls-8{fill:#c07a49;}.cls-9{fill:#db8f88;}.cls-10{fill:#db8f49;}.cls-11{fill:#754c24;}.cls-12{fill:#4b4649;}.cls-13{stroke-linecap:round;stroke-linejoin:round;stroke-width:.5px;}.cls-13,.cls-14{stroke:#000;}.cls-13,.cls-14,.cls-15{fill:none;}.cls-14,.cls-15{stroke-miterlimit:10;}.cls-15{stroke:#db8f88;}</style></defs><g><g><path class="cls-8" d="m429.85,39.7h0c.14-.07.29-.13.43-.19.47,2.21,1.68,4.32,4.1,5.94,9.9,6.65,8.91-4.63,8.91-4.63,0,0-.13-3.62-1.8-4.64-.32-.2-.76-.55-1.28-1,2.7-.87,5.53-1.55,8.5-2.03,2.95,3.65,9.6,6.02,9.6,6.02,5.63-2.25,9.04-4.23,10.88-6.05,2.8.48,5.88,1.3,8.45,2.14-.31.24-.58.44-.79.57-1.67,1.02-1.8,4.63-1.8,4.63,0,0-.99,11.28,8.91,4.63,2.19-1.47,3.39-3.34,3.94-5.34.09.03.17.07.25.1,2.19.89,4.26,1.9,6.22,3.01,2.35,1.32,4.55,2.79,6.59,4.42,1.91,1.5,3.69,3.14,5.35,4.91,1.92,2.04,3.66,4.24,5.25,6.62l-.15.1s-10.51-3.58-12.6,11c-.95,6.58,6.28,6.95,9.74,12.23s3.32,13.74,4.17,17.75c2.19,10.21,12.73,12.48,11.54.64h.1c.69,6.99.98,14.5.95,22.5,0,.24,1.53.15,1.58,1.91.04,1.28-1.61,1.54-1.61,1.93,0,.86-.02.86-.03,1.73,0,.38,1.38.43,1.35,1.08-.03.95-1.4.91-1.41,1.34-.03,1.44-.09,2.89-.14,4.35-.18,4.7-2.18,8.04-1.88,10.83.08.76.09,1.5.03,2.24-2.04-5.6-11.14-19.32-23.1-26.4-15.44-9.14-29.37-9.23-40.97-9.08-18.37.26-28.86,4.3-34.69,7.28,0,0-3.52-4.06.8-6.35,4.31-2.3-1.89-19.17-5.95-18.18-4.04.98-4.58,6.98-6.21,8.73s-10.13.41-10.22-5.23c-.09-5.62,7.38-10.57,6.98-16.09-.41-5.52-4.17-6.1-7.49-6.59-1.49-.23-3.64-.12-3.8-.11,2.85-9.36,6.87-17.07,12.39-23.3,1.81-2.06,3.79-3.95,5.95-5.69,2.08-1.68,4.33-3.22,6.74-4.62,1.95-1.14,4.03-2.18,6.21-3.12Zm51.7,39.79c2.58-.18,4.43-2.53,4.03-5.09-.22-1.43-.78-3.02-2.05-4.32-.52-.55-1.47-1.52-2.73-1.61-1.81-.14-3.83,1.54-5.3,4.47-1.18,2.34,0,5.22,2.46,6.08.43.16.9.28,1.41.36.78.14,1.52.16,2.19.11Zm-6.76,12.61c.18-4.24.3-6.39-.62-7.99-3.5-6.08-13.5-6.05-15.01-6.05-1.91,0-12.09.24-15.27,6.41-.8,1.55-.64,3.58-.36,7.63.36,5.29.55,7.93,2.14,9.88,3.31,4.08,10.02,4.14,13.49,4.17,3.43.03,10.38.1,13.71-4.01,1.56-1.94,1.68-4.63,1.91-10.03Zm-32.82-13.92c1.42-.85,2.04-2.61,1.48-4.18-.57-1.61-1.67-3.58-3.78-4.72-.67-.36-1.86-1-3.1-.71-1.94.46-3.47,3.11-3.83,6.92-.16,1.81,1.02,3.47,2.79,3.83.86.16,1.87.24,2.99.09,1.4-.19,2.55-.68,3.45-1.22Z"/><path class="cls-6" d="m524.27,100.56c1.2,11.84-9.35,9.56-11.54-.64-.86-4.01-.72-12.47-4.17-17.75s-10.68-5.65-9.74-12.23c2.09-14.58,12.6-11,12.6-11l.15-.1c7.17,10.68,11.14,24.69,12.79,41.71h-.1Z"/><path class="cls-11" d="m523.2,148.46h0c-61.88,20.22-126.65,1.35-127.16-1.69,4.38-5.94,9.13-15.56,24.13-24.13,1.02-.58,2.4-1.42,4.27-2.38,5.83-2.99,16.33-7.02,34.69-7.28,11.6-.16,25.53-.06,40.97,9.08,11.96,7.08,21.07,20.8,23.1,26.4Z"/><path class="cls-11" d="m523.2,148.47c-.31,3.71-2.39,7.08-5.73,8.93-3.07,1.7-6.2,2.85-7.87,3.57-14.92,6.36-33.34,6.47-49.42,6.25-9.45-.13-26.99-.43-45.59-4.7-3.28-.76-10.2-2.49-14.95-6.69-3.19-2.82-3.67-7.22-3.59-9.05.51,3.04,65.29,21.92,127.16,1.7Z"/><path class="cls-2" d="m500.98,47.3c-2.04-1.63-4.24-3.1-6.59-4.42l.06-.11s13.59-9.85,15.27-13.97c2.2-5.39,3.78-3.44,4.53-1.92.03.05.04.1.07.15,3.84,9.05,5.08,26.62-7.99,25.18-1.66-1.77-3.44-3.41-5.35-4.91Z"/><path class="cls-8" d="m514.25,26.89c-.75-1.52-2.33-3.47-4.53,1.92-1.68,4.11-15.27,13.97-15.27,13.97l-.06.11c-1.96-1.11-4.04-2.12-6.22-3.01l.04-.1c-1.38-2.14,15.52-8.03,19.77-16.33,1.74-3.38,4.32-1.07,6.27,3.44Z"/><path class="cls-4" d="m487.91,39.77c-.55,2-1.75,3.87-3.94,5.34-9.9,6.65-8.91-4.63-8.91-4.63,0,0,.13-3.61,1.8-4.63.21-.13.48-.33.79-.57,2.1-1.74,6.01-5.98,6.01-8.67,0-2.4,6.21,6.14,4.26,13.18Z"/><path d="m485.58,74.4c.4,2.55-1.45,4.9-4.03,5.09-.67.05-1.41.03-2.19-.11-.5-.09-.97-.21-1.41-.36-2.47-.86-3.65-3.73-2.46-6.08,1.48-2.93,3.5-4.61,5.3-4.47,1.27.1,2.21,1.07,2.73,1.61,1.27,1.3,1.83,2.89,2.05,4.32Z"/><path class="cls-2" d="m474.17,84.1c.92,1.61.8,3.75.62,7.99-.23,5.4-.35,8.1-1.91,10.03-3.33,4.11-10.29,4.04-13.71,4.01-3.47-.03-10.18-.09-13.49-4.17-1.59-1.94-1.77-4.59-2.14-9.88-.29-4.04-.44-6.08.36-7.63,3.18-6.17,13.36-6.41,15.27-6.41,1.51,0,11.51-.03,15.01,6.05Zm-7.64,7.48c0-2.36-.85-4.28-1.91-4.28s-1.9,1.92-1.9,4.28.85,4.27,1.9,4.27,1.91-1.92,1.91-4.27Zm-10.04,0c0-2.36-.85-4.28-1.9-4.28s-1.91,1.92-1.91,4.28.85,4.27,1.91,4.27,1.9-1.92,1.9-4.27Z"/><path class="cls-11" d="m448.71,33.15c-1.67-2.06-2.15-4.51.4-7.18,7.07-7.37,5-7.55,1.67-7.99-3.32-.44,7.49-3.7,7.49.16s.86-7.58,6.01-7.77c0,0-3.7,7.47,2.07,12.62,3.85,3.44,6.53,6.48,2.85,10.14-1.84,1.82-5.25,3.8-10.88,6.05,0,0-6.65-2.38-9.6-6.02Z"/><path d="m464.63,87.31c1.06,0,1.91,1.92,1.91,4.28s-.85,4.27-1.91,4.27-1.9-1.92-1.9-4.27.85-4.28,1.9-4.28Z"/><path d="m454.59,87.31c1.05,0,1.9,1.92,1.9,4.28s-.85,4.27-1.9,4.27-1.91-1.92-1.91-4.27.85-4.28,1.91-4.28Z"/><path d="m443.46,73.99c.56,1.57-.06,3.33-1.48,4.18-.89.54-2.05,1.02-3.45,1.22-1.12.16-2.13.08-2.99-.09-1.77-.36-2.96-2.02-2.79-3.83.36-3.81,1.88-6.46,3.83-6.92,1.24-.29,2.43.36,3.1.71,2.12,1.14,3.21,3.12,3.78,4.72Z"/><path class="cls-4" d="m430.28,39.51c-1.45-6.91,4.41-14.91,4.41-12.58,0,2.49,3.36,6.33,5.52,8.25.52.45.96.8,1.28,1,1.67,1.02,1.8,4.64,1.8,4.64,0,0,.99,11.27-8.91,4.63-2.41-1.61-3.63-3.72-4.1-5.94Z"/><path class="cls-8" d="m410.04,23.45c4.2,8.19,20.72,14.03,19.81,16.24h0c-2.19.95-4.26,2-6.21,3.13h0s-13.65-9.9-15.33-14.02c-2.18-5.36-4.28-2.6-5.08-1.02,2.14-5.06,5-7.86,6.81-4.33Z"/><path class="cls-6" d="m419.29,95.73c4.05-.99,10.26,15.88,5.95,18.18-4.32,2.29-.8,6.35-.8,6.35-1.87.95-3.25,1.8-4.27,2.38-15,8.57-19.75,18.19-24.13,24.13.16-3.54-3.33-4.04-3.4-11.55-.03-3.16-.03-6.24,0-9.23.02-1.09-1.23-2.22-1.22-3.29.02-1.03,1.31-2,1.34-3.01.49-17.2,2.21-31.52,5.8-43.24.16,0,2.31-.11,3.8.11,3.32.49,7.08,1.07,7.49,6.59.4,5.52-7.07,10.47-6.98,16.09.09,5.63,8.59,6.98,10.22,5.23s2.16-7.75,6.21-8.73Z"/><path class="cls-2" d="m416.89,47.44c-2.15,1.74-4.13,3.64-5.95,5.69-13.12,1.68-11.73-15.82-7.72-25.34t0,0c.8-1.57,2.9-4.34,5.08,1.02,1.68,4.11,15.33,14.01,15.33,14.01h0c-2.41,1.41-4.66,2.94-6.74,4.63Z"/></g><g><path class="cls-14" d="m430.28,39.51c.47,2.21,1.68,4.32,4.1,5.94,9.9,6.65,8.91-4.63,8.91-4.63,0,0-.13-3.62-1.8-4.64-.32-.2-.76-.55-1.28-1-2.16-1.92-5.52-5.75-5.52-8.25,0-2.33-5.86,5.67-4.41,12.58Z"/><path class="cls-14" d="m487.91,39.77c-.55,2-1.75,3.87-3.94,5.34-9.9,6.65-8.91-4.63-8.91-4.63,0,0,.13-3.61,1.8-4.63.21-.13.48-.33.79-.57,2.1-1.74,6.01-5.98,6.01-8.67,0-2.4,6.21,6.14,4.26,13.18Z"/><path class="cls-14" d="m448.87,33.12c-.05,0-.11.02-.16.03-2.97.48-5.8,1.16-8.5,2.03-.02,0-.04,0-.06.02"/><path class="cls-14" d="m477.76,35.3s-.07-.03-.11-.03c-2.58-.84-5.65-1.67-8.45-2.14"/><path class="cls-14" d="m523.2,148.46c.06-.74.05-1.48-.03-2.24-.3-2.79,1.7-6.14,1.88-10.83.05-1.46.1-2.91.14-4.35,0-.43,1.38-.38,1.41-1.34.03-.66-1.35-.7-1.35-1.08.02-.87.03-.87.03-1.73,0-.39,1.65-.64,1.61-1.93-.05-1.76-1.58-1.67-1.58-1.91.03-7.99-.26-15.51-.95-22.51-1.66-17.02-5.62-31.03-12.79-41.71-1.59-2.38-3.33-4.58-5.25-6.62-1.66-1.77-3.44-3.41-5.35-4.91-2.04-1.63-4.24-3.1-6.59-4.42-1.96-1.11-4.04-2.12-6.22-3.01-.08-.03-.16-.07-.25-.1-.02,0-.04-.02-.06-.03"/><path class="cls-14" d="m429.85,39.7c-2.19.95-4.26,1.99-6.21,3.12-2.41,1.4-4.66,2.93-6.74,4.62-2.15,1.74-4.13,3.64-5.95,5.69-5.51,6.23-9.54,13.95-12.39,23.3-3.58,11.73-5.31,26.04-5.8,43.24-.03,1.02-1.32,1.98-1.34,3.01-.02,1.07,1.23,2.2,1.22,3.29-.03,2.99-.03,6.08,0,9.23.07,7.52,3.56,8.01,3.4,11.55-.08,1.83.4,6.23,3.59,9.05,4.76,4.2,11.67,5.94,14.95,6.69,18.6,4.28,36.14,4.57,45.59,4.7,16.08.23,34.5.11,49.42-6.25,1.68-.72,4.8-1.87,7.87-3.57,3.34-1.85,5.42-5.23,5.73-8.93"/><path class="cls-14" d="m430.36,39.47s-.05.03-.08.03c-.15.06-.3.12-.43.18"/><path class="cls-14" d="m432.75,75.48c-.16,1.81,1.02,3.47,2.79,3.83.86.16,1.87.24,2.99.09,1.4-.19,2.55-.68,3.45-1.22,1.42-.85,2.04-2.61,1.48-4.18-.57-1.61-1.67-3.58-3.78-4.72-.67-.36-1.86-1-3.1-.71-1.94.46-3.47,3.11-3.83,6.92Z"/><path class="cls-14" d="m475.49,72.93c-1.18,2.34,0,5.22,2.46,6.08.43.16.9.28,1.41.36.78.14,1.52.16,2.19.11,2.58-.18,4.43-2.53,4.03-5.09-.22-1.43-.78-3.02-2.05-4.32-.52-.55-1.47-1.52-2.73-1.61-1.81-.14-3.83,1.54-5.3,4.47Z"/><path class="cls-14" d="m456.49,91.59c0,2.35-.85,4.27-1.9,4.27s-1.91-1.92-1.91-4.27.85-4.28,1.91-4.28,1.9,1.92,1.9,4.28Z"/><path class="cls-14" d="m466.53,91.59c0,2.35-.85,4.27-1.91,4.27s-1.9-1.92-1.9-4.27.85-4.28,1.9-4.28,1.91,1.92,1.91,4.28Z"/><path class="cls-14" d="m469.19,33.12c-1.84,1.82-5.25,3.8-10.88,6.05,0,0-6.65-2.38-9.6-6.02-1.67-2.06-2.15-4.51.4-7.18,7.07-7.37,5-7.55,1.67-7.99-3.32-.44,7.49-3.7,7.49.16s.86-7.58,6.01-7.77c0,0-3.7,7.47,2.07,12.62,3.85,3.44,6.53,6.48,2.85,10.14Z"/><path class="cls-14" d="m396.04,146.77c.51,3.04,65.29,21.92,127.16,1.7"/><path class="cls-14" d="m396.04,146.77c4.38-5.94,9.13-15.56,24.13-24.13,1.02-.58,2.4-1.42,4.27-2.38,5.83-2.99,16.33-7.02,34.69-7.28,11.6-.16,25.53-.06,40.97,9.08,11.96,7.08,21.07,20.8,23.1,26.4h0"/><path class="cls-14" d="m398.55,76.44h0c.16,0,2.31-.11,3.8.11,3.32.49,7.08,1.07,7.49,6.59.4,5.52-7.07,10.47-6.98,16.09.09,5.63,8.59,6.98,10.22,5.23s2.16-7.75,6.21-8.73c4.05-.99,10.26,15.88,5.95,18.18-4.32,2.29-.8,6.35-.8,6.35"/><path class="cls-14" d="m474.79,92.1c-.23,5.4-.35,8.1-1.91,10.03-3.33,4.11-10.29,4.04-13.71,4.01-3.47-.03-10.18-.09-13.49-4.17-1.59-1.94-1.77-4.59-2.14-9.88-.29-4.04-.44-6.08.36-7.63,3.18-6.17,13.36-6.41,15.27-6.41,1.51,0,11.51-.03,15.01,6.05.92,1.61.8,3.75.62,7.99Z"/><path class="cls-14" d="m511.43,58.94s-10.51-3.58-12.6,11c-.95,6.58,6.28,6.95,9.74,12.23s3.32,13.74,4.17,17.75c2.19,10.21,12.73,12.48,11.54.64-.02-.21-.04-.43-.07-.64"/><path class="cls-14" d="m403.23,27.79c-4.01,9.52-5.41,27.02,7.72,25.34"/><path class="cls-14" d="m429.81,39.78s.03-.05.03-.08h0c.91-2.21-15.61-8.05-19.81-16.25-1.81-3.53-4.68-.73-6.81,4.33"/><path class="cls-14" d="m423.63,42.82s-13.65-9.89-15.33-14.01c-2.18-5.36-4.28-2.6-5.08-1.02t0,0c-.03.06-.05.12-.08.17"/><path class="cls-14" d="m416.89,47.44s-12.36-5.81-12.54-10.75"/><path class="cls-14" d="m514.32,27.04c3.84,9.05,5.08,26.62-7.99,25.18-.09,0-.17-.02-.27-.03"/><path class="cls-14" d="m488.21,39.78c-1.38-2.14,15.52-8.03,19.77-16.33,1.74-3.38,4.32-1.07,6.27,3.44"/><path class="cls-14" d="m494.45,42.77s13.59-9.85,15.27-13.97c2.2-5.39,3.78-3.44,4.53-1.92.03.05.04.1.07.15"/><path class="cls-14" d="m500.91,47.33s.02,0,.06-.03c.94-.43,12.52-5.87,12.7-10.62"/><path class="cls-14" d="m427.02,63.96s.15-9.41,11.42-4.99"/><path class="cls-14" d="m489.18,63.96s-.15-9.41-11.42-4.99"/></g></g><g><g><g><path class="cls-2" d="m129.62,54.37c-1.48-1.44-4.18-4.22-8.03-7.34,2.44-.86,5.3-.91,6.67-.85.54.02,1.07.09,1.59.19,2.81.58,14.02,2.78,17.74,1.52,0,0,5.6-1.9,6.77-3.91,5.06,5.51-2.72,28.79-20.26,14.53-1.97-2.39-3.67-3.35-4.48-4.13Z"/><path class="cls-7" d="m121.59,47.03c3.85,3.12,6.55,5.9,8.03,7.34.81.78,2.5,1.74,4.48,4.13,4.99,6.03,11.75,21.21,10.45,65.71-.02.85,3.7,1.8.49,3.07-.44.17-.61.46-.63.93-.09,2.33-.2,4.72-.33,7.2-.26,4.75,2.26,9.37,2.54,12.19.08.77.08,1.52,0,2.27-2.11-5.7-16.48-20.12-28.61-27.29-15.67-9.29-26.62-8.89-38.39-8.72-24.6.33-33.31,7.4-37.58,9.84-15.22,8.69-20.04,18.46-24.49,24.48-1.55-6.55,1.93-10.68,1.86-13.42-.04-1.65-1.53-3.61-1.56-5.19-.04-2,1.42-3.59,1.41-5.48-.12-42.5,5.88-57.83,11.62-65.49h0c1.06-1.41,2.1-2.55,3.09-3.56.49-.5,1.04-.96,1.55-1.44.18-.16.34-.32.51-.48,1.7-1.68,4.04-3.93,6.99-6.33-2.31-.7-4.85-.73-6.13-.68-.54.02-1.07.09-1.59.2-2.8.58-14.02,2.78-17.73,1.52,0,0-5.61-1.91-6.78-3.91.87-.96,2.14-1.39,3.82-.98,8.65,2.12,15.14-15.81,32.77.6l.15-.16c8.26-5.76,19.81-11.31,34.23-11.31.13,0,.27,0,.41,0,15.1.1,27,5.99,35.27,11.82,17.88-16.92,24.38,1.24,33.09-.89,1.67-.41,2.94,0,3.81.97-1.16,2.01-6.77,3.91-6.77,3.91-3.73,1.27-14.93-.93-17.74-1.52-.53-.11-1.06-.18-1.59-.19-1.37-.05-4.23,0-6.67.85Zm5.04,46.34c3.07-1.37,4.24-5.48,2.59-9.19s-5.48-5.61-8.55-4.25-4.24,5.48-2.59,9.19,5.48,5.61,8.55,4.25Zm-17.54-15.4c.23-1.45.18-3.16-.63-4.81-.36-.74-.92-1.79-2.14-2.41-1.52-.79-3.41-.55-4.73.34-1.04.71-1.48,1.67-1.79,2.33-1.44,3.15-.07,6.21.5,6.64.37.27.78.55,1.23.78.71.38,1.42.63,2.09.79,2.55.63,5.06-1.07,5.47-3.67Zm-9.97,16.57c.07-1.51.26-5.52-2.24-9.29-4.38-6.59-13.3-6.81-14.57-6.83-.29,0-.52,0-.66,0-1.51,0-11.2.28-15.5,7.25-1.96,3.16-1.96,6.36-1.97,7.84,0,1.76.26,6.26,3.42,10.31,4.89,6.26,12.74,6.31,14.05,6.32,1.37,0,9.03.06,13.93-5.93,3.22-3.95,3.48-8.36,3.54-9.66Zm-36.08-14.48c.56-.43,1.95-3.5.5-6.64-.31-.66-.75-1.61-1.8-2.33-1.31-.89-3.2-1.14-4.73-.34-1.22.63-1.77,1.67-2.14,2.41-.81,1.65-.86,3.36-.63,4.81.41,2.59,2.92,4.29,5.47,3.67.67-.17,1.37-.41,2.09-.79.46-.24.87-.51,1.24-.78Zm-19.2,9.07c1.65-3.71.48-7.82-2.59-9.19s-6.91.54-8.55,4.25-.48,7.82,2.59,9.19,6.91-.54,8.55-4.25Z"/><path class="cls-2" d="m146.63,149.86s0,.04,0,.04c-62.8,20.51-128.54,1.36-129.06-1.74,4.45-6.03,9.27-15.8,24.49-24.48,4.26-2.44,12.98-9.51,37.58-9.84,11.77-.17,22.71-.56,38.39,8.72,12.12,7.17,26.5,21.59,28.61,27.29Z"/><path class="cls-9" d="m146.63,149.91c-.33,3.76-2.41,7.18-5.8,9.06-3.12,1.73-6.29,2.9-7.99,3.62-15.14,6.46-33.83,6.57-50.17,6.34-9.59-.13-27.4-.42-46.28-4.78-3.33-.77-10.35-2.53-15.18-6.79-3.24-2.86-3.22-7.38-3.65-9.19.52,3.09,66.26,22.25,129.06,1.74Z"/><path class="cls-1" d="m129.22,84.18c1.65,3.71.48,7.82-2.59,9.19s-6.91-.54-8.55-4.25-.48-7.82,2.59-9.19,6.91.54,8.55,4.25Z"/><path d="m108.45,73.16c.81,1.65.86,3.36.63,4.81-.41,2.59-2.92,4.29-5.47,3.67-.67-.17-1.37-.41-2.09-.79-.45-.24-.86-.51-1.23-.78-.57-.43-1.95-3.5-.5-6.64.31-.66.75-1.61,1.79-2.33,1.32-.89,3.21-1.14,4.73-.34,1.22.63,1.78,1.67,2.14,2.41Z"/><path class="cls-1" d="m96.88,85.26c2.5,3.76,2.31,7.78,2.24,9.29-.06,1.3-.33,5.72-3.54,9.66-4.9,5.99-12.55,5.94-13.93,5.93-1.31,0-9.16-.06-14.05-6.32-3.16-4.04-3.42-8.55-3.42-10.31,0-1.48.02-4.68,1.97-7.84,4.3-6.97,13.99-7.24,15.5-7.25.14,0,.37,0,.66,0,1.27.02,10.19.24,14.57,6.83Zm-7.2,6.9c0-2.4-.87-4.33-1.94-4.33s-1.94,1.94-1.94,4.33.86,4.33,1.94,4.33,1.94-1.94,1.94-4.33Zm-12.25,0c0-2.4-.86-4.33-1.93-4.33s-1.94,1.94-1.94,4.33.86,4.33,1.94,4.33,1.93-1.94,1.93-4.33Z"/><ellipse cx="87.74" cy="92.15" rx="1.94" ry="4.33"/><path d="m75.49,87.82c1.07,0,1.93,1.94,1.93,4.33s-.86,4.33-1.93,4.33-1.94-1.94-1.94-4.33.86-4.33,1.94-4.33Z"/><path d="m63.54,73.42c1.44,3.15.06,6.21-.5,6.64-.37.27-.78.55-1.24.78-.71.38-1.42.63-2.09.79-2.55.63-5.06-1.07-5.47-3.67-.23-1.45-.18-3.16.63-4.81.37-.74.93-1.79,2.14-2.41,1.53-.79,3.42-.55,4.73.34,1.05.71,1.49,1.67,1.8,2.33Z"/><path class="cls-1" d="m41.25,79.93c3.07,1.37,4.24,5.48,2.59,9.19s-5.48,5.61-8.55,4.25-4.24-5.48-2.59-9.19,5.48-5.61,8.55-4.25Z"/><path class="cls-2" d="m35.55,53.59c-.51.48-1.06.93-1.55,1.44-1,1-2.04,2.15-3.09,3.55h0c-17.41,13.96-25.12-9.16-20.09-14.67,1.16,2,6.78,3.91,6.78,3.91,3.72,1.26,14.93-.93,17.73-1.52.53-.11,1.06-.19,1.59-.2,1.28-.05,3.82-.02,6.13.68-2.95,2.4-5.29,4.64-6.99,6.33-.17.17-.33.33-.51.48Z"/></g><g><path class="cls-14" d="m117.52,43.94s-.04-.03-.06-.04c-8.26-5.83-20.17-11.73-35.27-11.82-.13,0-.27,0-.41,0-14.42,0-25.97,5.55-34.23,11.31"/><path class="cls-14" d="m30.9,58.59c-5.74,7.66-11.74,22.99-11.62,65.49,0,1.89-1.44,3.48-1.41,5.48.03,1.58,1.52,3.54,1.56,5.19.07,2.74-3.41,6.86-1.86,13.42.43,1.81.41,6.33,3.65,9.19,4.83,4.26,11.85,6.03,15.18,6.79,18.88,4.35,36.69,4.64,46.28,4.78,16.33.23,35.02.11,50.17-6.34,1.7-.72,4.87-1.89,7.99-3.62,3.39-1.88,5.47-5.29,5.8-9.06,0,0,0-.03,0-.04.07-.75.07-1.51,0-2.27-.28-2.83-2.79-7.44-2.54-12.19.13-2.48.25-4.87.33-7.2.02-.47.19-.76.63-.93,3.21-1.27-.51-2.21-.49-3.07,1.3-44.5-5.46-59.67-10.45-65.71-1.97-2.39-3.67-3.35-4.48-4.13-1.48-1.44-4.18-4.22-8.03-7.34-.02-.02-.04-.03-.05-.04"/><path class="cls-14" d="m43.15,46.69s-.07.06-.11.09c-2.95,2.4-5.29,4.64-6.99,6.33-.17.17-.33.33-.51.48-.51.48-1.06.93-1.55,1.44-1,1-2.04,2.15-3.09,3.55"/><path class="cls-14" d="m99.79,73.42c-1.44,3.15-.07,6.21.5,6.64.37.27.78.55,1.23.78.71.38,1.42.63,2.09.79,2.55.63,5.06-1.07,5.47-3.67.23-1.45.18-3.16-.63-4.81-.36-.74-.92-1.79-2.14-2.41-1.52-.79-3.41-.55-4.73.34-1.04.71-1.48,1.67-1.79,2.33Z"/><path class="cls-14" d="m63.54,73.42c1.44,3.15.06,6.21-.5,6.64-.37.27-.78.55-1.24.78-.71.38-1.42.63-2.09.79-2.55.63-5.06-1.07-5.47-3.67-.23-1.45-.18-3.16.63-4.81.37-.74.93-1.79,2.14-2.41,1.53-.79,3.42-.55,4.73.34,1.05.71,1.49,1.67,1.8,2.33Z"/><path class="cls-14" d="m77.42,92.15c0,2.4-.86,4.33-1.93,4.33s-1.94-1.94-1.94-4.33.86-4.33,1.94-4.33,1.93,1.94,1.93,4.33Z"/><ellipse class="cls-14" cx="87.74" cy="92.15" rx="1.94" ry="4.33"/><path class="cls-14" d="m17.57,148.17c.52,3.09,66.26,22.25,129.06,1.74t.02,0"/><path class="cls-15" d="m17.57,148.17c4.45-6.03,9.27-15.8,24.49-24.48,4.26-2.44,12.98-9.51,37.58-9.84,11.77-.17,22.71-.56,38.39,8.72,12.12,7.17,26.5,21.59,28.61,27.29,0,0,.02.03.02.04"/><path class="cls-14" d="m99.11,94.54c-.06,1.3-.33,5.72-3.54,9.66-4.9,5.99-12.55,5.94-13.93,5.93-1.31,0-9.16-.06-14.05-6.32-3.16-4.04-3.42-8.55-3.42-10.31,0-1.48.02-4.68,1.97-7.84,4.3-6.97,13.99-7.24,15.5-7.25.14,0,.37,0,.66,0,1.27.02,10.19.24,14.57,6.83,2.5,3.76,2.31,7.78,2.24,9.29Z"/><path class="cls-14" d="m114.37,47.04c1.07-1.16,2.09-2.21,3.08-3.15,17.88-16.92,24.38,1.24,33.09-.89,1.67-.41,2.94,0,3.81.97,5.06,5.51-2.72,28.79-20.26,14.53"/><path class="cls-14" d="m118.02,49.72c.73-1.32,2.07-2.16,3.57-2.7,2.44-.86,5.3-.91,6.67-.85.54.02,1.07.09,1.59.19,2.81.58,14.02,2.78,17.74,1.52,0,0,5.6-1.9,6.77-3.91"/><path class="cls-14" d="m129.62,54.37s12.26,1.74,16.18-1.41"/><path class="cls-14" d="m50.81,46.98c-1.18-1.29-2.31-2.43-3.4-3.44-17.64-16.41-24.12,1.52-32.77-.6-1.68-.41-2.95.02-3.82.98-5.03,5.51,2.68,28.62,20.09,14.68h0c.06-.05.11-.11.18-.15"/><path class="cls-14" d="m47.15,49.65c-.81-1.48-2.4-2.36-4.11-2.87-2.31-.7-4.85-.73-6.13-.68-.54.02-1.07.09-1.59.2-2.8.58-14.02,2.78-17.73,1.52,0,0-5.61-1.91-6.78-3.91"/><path class="cls-14" d="m35.55,53.59s-12.25,2.44-16.18-.7"/><path class="cls-14" d="m81.85,27.97c.75-2.63-.32-6.84-1.25-11.75"/><path class="cls-14" d="m81.85,27.97c-.14-.6-.33-1.17-.58-1.7-.32-.66-1-2.1-2.24-2.29-1.22-.19-2.42.9-2.95,1.91-.83,1.62-.37,4.1,1.11,4.79,1.37.65,3.37-.36,4.17-1.59.22-.33.38-.71.49-1.13Z"/><path class="cls-14" d="m81.03,38.96h0s1.03-3.29,1.16-6.89c.05-1.37-.03-2.79-.34-4.1"/><path class="cls-15" d="m43.84,89.12c-1.65,3.71-5.48,5.61-8.55,4.25s-4.24-5.48-2.59-9.19,5.48-5.61,8.55-4.25,4.24,5.48,2.59,9.19Z"/><path class="cls-15" d="m118.07,89.12c1.65,3.71,5.48,5.61,8.55,4.25s4.24-5.48,2.59-9.19-5.48-5.61-8.55-4.25-4.24,5.48-2.59,9.19Z"/></g></g><path class="cls-14" d="m22.79,153.72s47.89,24.21,119.12,1.23"/><path class="cls-15" d="m27.46,144.52s54.29,17.68,108.62,0"/><path class="cls-13" d="m46.54,66.19s.15-9.55,11.59-5.07"/><path class="cls-13" d="m115.77,66.19s-.15-9.55-11.59-5.07"/></g><g><g><g><path class="cls-3" d="m294.83,45.79c.94.34,2.08.91,3.35,1.91,6.95,1.56,16.17-6.91,19.8-8.01,1.09-.33,1.68,0,1.57,1.44-.48,6.12-1.81,21.62-1.91,22.61,1.57,3.7,3.46,10.73,5.37,23.9.02.14.04.3.06.44.57,3.9,1.64,6.82,3.5,8.28,1.73,1.36,3.69,3.26,4.06,6.15.09.69-.89,1.83-.86,2.57.08,2.24-.03,4.65-.3,7.14l-.12-.02s-1.02-7.24-10.4-3.35c-7.25,3.02-12.47,7.3-12.85,11.82-1.86-1.55-3.84-2.97-5.9-4.19-7.54-4.46-14.71-6.72-21.41-7.84-1.17-.35-1.95-.63-2.06-.79,0-.02-.03-.03-.07-.05-.91-.62-3.59-.84-5.27-.92-1.02-.06-2.57-.14-4.46-.2-3.52-.12-7.17-.11-8.13-.04-1.08.08-2.33.48-3.63,1.17-.14,0-.27,0-.41.02l-.02-.22c-3.54-1.33-7.72-1.16-12.97.11-6.38,1.54-13.32,5.07-18.33,7.98,2.41-1.56,4.51-3.02,6.32-4.35,4.25-3.1,6.45-5.08,6.72-7.97.46-4.87-4.66-11.51-10.67-10.85-4.65.51-7.2,5.12-7.46,5.62,0,0,.75-9.05-9.37-6.1-.97.28-1.91.59-2.82.93,4.1-4.29,14.42-13.59,29.94-15.12,7.38-.73,13.58.53,17.77,1.8.57-2.4,1.25-6.09,1.28-10.62.02-2.21-.14-3.8-.3-5.14l.87-.11c.36,2.32,1.28,4.79,3.33,6.88,4.93,5.05,12.35,3.79,13.11,3.65,2.18-.84,5.4-2.4,8.47-5.23l.31.35c-.12.1-.24.23-.36.38-1.96,2.35-.36,4.62.19,5.03.36.26.75.53,1.19.75.69.36,1.36.6,2,.76,2.46.6,4.87-1.03,5.26-3.52.23-1.4.43-3.12-.31-4.73-.98-2.13-1.19-2.35-2.24-3.15-.35-.26-.48-.28-.51-.14l-1.58-.42c6.38-9.89,3.58-21.54,2.9-24,3.81.84,7.27,1.36,10.29,1.02-1.43,1.39-2.46,2.85-2.96,4.36Zm27.01,40.36c.26-3.39-.45-6.41-1.41-8.84-.3-1.11-.69-2.72-.99-4.68-.36-2.46-.31-3.67-1.02-3.99-.86-.39-1.82,1.02-3.48,1.82-3.09,1.49-6.27-1.24-8.33-.64-8.23,2.35-14.81,6.57-17.06,12.04-8.72-.88-15.15,1.79-15.15,1.79l1.14,1.26s5.74-1.21,13.2.5c-.08,1.13.04,2.3.35,3.51,2.27,8.88,16.31,17.24,16.31,17.24.85-.37,15.42-6.98,16.46-20.01Zm-54.53-4c.14-.65-3.03-2.51-6.45-2.51-4.06,0-7.23,2.62-7.1,2.97.08.21,1.18-.42,2.57.08,1.12.4,2.02,1.42,2.27,1.63,1.27,1.03,1.44,1.42,2.25,1.42,1.6,0,2.29-2.13,4.53-3.05,1.18-.48,1.85-.25,1.91-.54Z"/><path class="cls-9" d="m329.35,112.21l.12.02c-.34,3.12-.93,6.37-1.71,9.61-.14.57,1.54.81,1.03,2.58-.62,2.13-2.24,1.31-2.41,1.95-.82,3.13-1.64,5.92-2.3,8.16h0s-3.63-1.06-7.62-2.89c-2.77-3.69-6.3-7.62-10.35-10.97.38-4.52,5.6-8.81,12.85-11.82,9.38-3.89,10.4,3.35,10.4,3.35Z"/><path class="cls-5" d="m324.58,28.78c1.31,17.04-3.5,44.37-1.58,58.86-1.91-13.17-3.8-20.2-5.37-23.9.09-1,1.42-16.5,1.91-22.61.11-1.45-.47-1.77-1.57-1.44l-.25-.75s-.44-3.13-3.41-4.17c1.18-.74,2.6-1.65,4.68-2.91.04-.03,5.57-3.27,5.58-3.08Z"/><path class="cls-10" d="m324.07,134.53h0c-.85,2.92-1.41,4.92-1.36,5.53.08.74.08,1.47.02,2.19-.86-2.41-3.08-6.35-6.29-10.61,3.99,1.83,7.62,2.89,7.62,2.89Z"/><path class="cls-10" d="m289.53,81.85c2.24-5.47,8.83-9.7,17.06-12.04,2.07-.59,5.24,2.13,8.33.64,1.66-.8,2.62-2.21,3.48-1.82.71.32.66,1.52,1.02,3.99.3,1.97.69,3.57.99,4.68.97,2.43,1.68,5.45,1.41,8.84-1.03,13.03-15.61,19.63-16.46,20.01,0,0-14.04-8.36-16.31-17.24-.3-1.21-.42-2.39-.35-3.51.06-1.24.34-2.42.81-3.55Z"/><path class="cls-10" d="m317.73,38.93l.25.75c-3.63,1.1-12.85,9.57-19.8,8.01-1.27-.99-2.41-1.57-3.35-1.91.5-1.51,1.52-2.97,2.96-4.36.98-.11,1.91-.31,2.8-.63,8.99-3.18,10.33-3.89,13.73-6.03,2.97,1.04,3.41,4.17,3.41,4.17Z"/><path class="cls-5" d="m322.74,142.26c-.3,3.63-2.33,6.92-5.58,8.72-3,1.66-6.05,2.78-7.68,3.48-14.56,6.21-32.53,6.32-48.24,6.1-9.22-.13-26.33-.41-44.48-4.59-3.21-.74-9.95-2.43-14.59-6.53-3.12-2.75-3.09-7.1-3.51-8.83.5,2.96,63.71,21.39,124.08,1.66Z"/><path class="cls-5" d="m316.45,131.64c3.21,4.26,5.43,8.21,6.29,10.61-60.37,19.73-123.58,1.3-124.08-1.66,3.69-5,7.64-12.68,18.07-20.06,2.25,2.91,16.28,20.07,31.53,16.68,4.91,5.56,11.89,9.71,11.89,9.71.85-.37,28.95-3.49,29.97-16.52.27-3.39,6.31-13.55,5.34-15.98-.3-1.11-5.07-2.41-6.98-3.02-2.98-.94-7.21-2.02-9.7-2.78,6.7,1.13,13.87,3.38,21.41,7.84,2.06,1.22,4.03,2.64,5.9,4.19-.12,1.32.18,2.67.97,4.01,1.68,2.85,5.68,5.24,9.38,6.96Z"/><path class="cls-3" d="m306.1,120.68c4.05,3.35,7.58,7.28,10.35,10.97-3.7-1.72-7.71-4.12-9.38-6.96-.79-1.34-1.08-2.68-.97-4.01Z"/><path class="cls-10" d="m248.26,137.22c-2.06-2.33-3.75-4.9-4.42-7.52-2.36-9.24,5.14-18.67,11.34-21.89,1.61-.09,3.29-.15,5.05-.18,5.65-.08,11.87-.09,18.57,1.02,2.49.75,6.72,1.84,9.7,2.78,1.91.6,6.67,1.91,6.98,3.02.97,2.43-5.07,12.59-5.34,15.98-1.02,13.03-29.13,16.14-29.97,16.52,0,0-6.98-4.15-11.89-9.71Z"/><path d="m288.93,68.11c.75,1.61.54,3.33.31,4.73-.39,2.49-2.8,4.12-5.26,3.52-.64-.16-1.31-.4-2-.76-.44-.23-.84-.49-1.19-.75-.55-.42-2.15-2.68-.19-5.03.13-.15.25-.28.36-.38,1.41-1.21,2.41.69,3.99.08,2.74-1.06,1.12-4.15,1.23-4.69.03-.14.16-.12.51.14,1.05.8,1.26,1.02,2.24,3.15Z"/><path class="cls-3" d="m289.53,81.85c-.47,1.13-.75,2.31-.81,3.55-7.45-1.71-13.2-.5-13.2-.5l-1.14-1.26s6.44-2.67,15.15-1.79Z"/><path class="cls-9" d="m276.78,37.87c3.81.84,7.39,1.81,10.71,2.54.69,2.46,3.48,14.1-2.9,24-.46.71-.97,1.42-1.52,2.11-.78.97-1.59,1.82-2.42,2.57-3.07,2.83-6.29,4.39-8.47,5.23-.76.14-8.18,1.4-13.11-3.65-2.05-2.09-2.97-4.56-3.33-6.88l-.87.11c-.15-1.2-.31-2.2-.4-3.29-.88-11.82,9.4-18.16,6.84-22.16-.96-1.48-3.29-2.02-6.01-2.08,1.97-.15,4.09-.25,6.35-.29,5.31-.09,10.38.75,15.12,1.78Z"/><path class="cls-9" d="m287.4,40.08c.03.08.05.19.09.33-3.32-.73-6.9-1.7-10.71-2.54,1.5.14,3.23.43,4.95.75,2.38.43,4.33,1.01,5.67,1.47Z"/><path class="cls-3" d="m286.18,64.82c-.11.54,1.52,3.63-1.23,4.69-1.58.61-2.58-1.29-3.99-.08l-.31-.35c.83-.75,1.64-1.61,2.42-2.57.56-.69,1.07-1.4,1.52-2.11l1.58.42Z"/><path class="cls-3" d="m276.74,107.85c.11.16.89.44,2.06.79-6.69-1.11-12.92-1.09-18.57-1.02-1.75.03-3.44.08-5.05.18,1.3-.69,2.54-1.09,3.63-1.17.97-.07,4.61-.08,8.13.04,1.9.06,3.45.14,4.46.2,1.68.08,4.35.3,5.27.92.03.03.06.03.07.05Z"/><path class="cls-2" d="m260.86,79.64c3.41,0,6.58,1.85,6.45,2.51-.07.3-.74.06-1.91.54-2.24.92-2.93,3.05-4.53,3.05-.81,0-.98-.39-2.25-1.42-.25-.2-1.15-1.23-2.27-1.63-1.4-.5-2.49.14-2.57-.08-.14-.36,3.04-2.97,7.1-2.97Z"/><path class="cls-12" d="m217.34,46.31c-7.74-3.77-15.74-10.16-15.53-5.64.25,5.59.85,20.03,1.07,25.6-.91,3.04-1.36,6.01-1.49,8.81-.7,3.4-1.43,7.56-2.17,12.62h-.04c.69-4.35-.08-10.31-.65-16.95-1.58-18.39-1.45-26.87-1.54-30.61-.09-3.75.07-4.7,0-7.34-.09-3.35-.25-7.25.03-6.95,1.23,1.29,6.96,6.49,15.94,12.11,0,0,3.46,3.4,8.23,4.12,1.35.2,2.64.25,3.93.17,2.96-.19,5.91-1.02,9.48-2.02,3.69-.87,6.21-1.58,7.89-2.02.12-.03.23-.06.35-.08,3.5-.75,7.57-1.41,12.48-1.76,2.72.05,5.05.59,6.01,2.08,2.56,4-7.72,10.34-6.84,22.16.08,1.08.25,2.08.4,3.29.16,1.34.31,2.93.3,5.14-.03,4.53-.71,8.22-1.28,10.62-4.19-1.28-10.39-2.53-17.77-1.8-15.52,1.52-25.84,10.83-29.94,15.12h0c-.46.18-.9.36-1.34.54-1.03-2.34-3.85-9.51-3.45-18.43.54-2.6,1.08-4.77,1.58-6.57h0c0-.1-.03-.92-.09-2.24.56-1.87,1.3-3.78,2.26-5.69,3.03-6.04,7.63-10.97,12.21-14.27Zm21.84,28.53c.55-.42,2.16-2.68.19-5.03-1.61-1.93-2.63.36-4.35-.3-3.44-1.33-.03-5.84-1.74-4.55-1.06.8-1.27,1.02-2.25,3.15-.74,1.61-.53,3.33-.31,4.73.4,2.49,2.81,4.12,5.26,3.52.64-.16,1.32-.4,2.01-.76.43-.23.83-.49,1.19-.75Z"/><path class="cls-12" d="m242.82,38.14c1.24-.3,7.5-1.86,12.48-1.76-4.91.36-8.99,1.02-12.48,1.76Z"/><path class="cls-12" d="m254.77,107.82c.14,0,.27-.02.41-.02-6.2,3.23-13.7,12.65-11.34,21.89.67,2.62,2.36,5.19,4.42,7.52-15.25,3.4-29.28-13.76-31.53-16.68,1.65-1.17,3.47-2.34,5.48-3.48,3.77-2.16,12.76-8.05,32.57-9.24Z"/><path class="cls-3" d="m254.76,107.6l.02.22c-19.81,1.19-28.8,7.08-32.57,9.24-2.01,1.14-3.83,2.31-5.48,3.48-.2-.27-.31-.42-.31-.42,0,0,.65-.46,1.8-1.2,0,0,.02,0,.03-.02,1.84-1.08,3.55-2.13,5.13-3.17.03,0,.06-.03.09-.05,5.01-2.91,11.95-6.44,18.33-7.98,5.25-1.27,9.43-1.44,12.97-.11Z"/><path class="cls-3" d="m242.48,38.22c-1.68.43-4.19,1.14-7.89,2.02,2.31-.65,4.89-1.36,7.89-2.02Z"/><path d="m239.37,69.81c1.97,2.35.36,4.62-.19,5.03-.36.26-.75.53-1.19.75-.69.36-1.36.6-2.01.76-2.45.6-4.86-1.03-5.26-3.52-.22-1.4-.42-3.12.31-4.73.98-2.13,1.19-2.35,2.25-3.15,1.7-1.29-1.7,3.22,1.74,4.55,1.71.66,2.74-1.63,4.35.3Z"/><path class="cls-9" d="m225.82,92.52c6.01-.66,11.13,5.98,10.67,10.85-.27,2.89-2.46,4.87-6.72,7.97-1.81,1.32-3.91,2.79-6.32,4.35-.03.02-.06.04-.09.05-2.13,1.25-3.91,2.36-5.13,3.17,0,0-.02,0-.03.02-3.09,1.81-6.55,3.68-10.38,5.53,0,0-12.3-7.41-14.25-15.32-.11-.43-.19-.87-.25-1.3-.77-6.18,4.17-11.22,11.5-14.32.12.27.21.47.28.61.29-.32.64-.7,1.06-1.14h0c.91-.35,1.85-.66,2.82-.94,10.11-2.96,9.37,6.1,9.37,6.1.26-.5,2.81-5.11,7.46-5.62Z"/><path class="cls-12" d="m233.78,40.42c.28-.06.55-.13.81-.19-3.57,1-6.51,1.83-9.48,2.02.48-.15.95-.27,1.41-.36.74-.14,3.02-.5,7.26-1.47Z"/><path class="cls-9" d="m223.37,115.74c-1.58,1.03-3.29,2.09-5.13,3.17,1.22-.8,3-1.92,5.13-3.17Z"/><path class="cls-12" d="m218.21,118.92c-1.14.75-1.8,1.2-1.8,1.2,0,0,.11.14.31.42-10.43,7.38-14.37,15.06-18.07,20.06-.43-1.83-1.36-6.46-2.38-11.96-.14-.77-2.63.82-2.7-2.36-.04-2.16,1.97-1.73,1.8-2.61-.97-5.53-1.92-11.34-2.48-15.78l.42-.05c.05.42.14.86.25,1.3,1.96,7.91,14.25,15.32,14.25,15.32,3.84-1.85,7.29-3.72,10.38-5.53Z"/><path class="cls-9" d="m217.34,46.31c-4.57,3.3-9.17,8.23-12.21,14.27-.96,1.91-1.7,3.82-2.26,5.69-.22-5.57-.81-20.01-1.07-25.6-.2-4.51,7.79,1.87,15.53,5.64Z"/><path class="cls-9" d="m206.16,92.98c-.42.44-.77.82-1.06,1.14-.07-.14-.16-.34-.28-.61.44-.19.88-.36,1.34-.53Z"/><path class="cls-12" d="m202.96,68.5h0c-.51,1.81-1.04,3.98-1.58,6.58.14-2.8.58-5.77,1.49-8.81.06,1.31.09,2.13.09,2.23Z"/><path class="cls-10" d="m199.21,87.7c.74-5.06,1.47-9.22,2.17-12.62-.4,8.92,2.41,16.09,3.45,18.43-7.33,3.1-12.27,8.14-11.5,14.32l-.42.05c-.39-3.05-.59-5.45-.51-6.68.42-6.19,3.38-6.34,5.39-9.48.7-1.1,1.14-2.46,1.39-4.03h.04Z"/></g><g><path class="cls-14" d="m199.17,87.69c-.25,1.57-.69,2.93-1.39,4.03-2.01,3.13-4.96,3.29-5.39,9.48-.08,1.24.12,3.63.51,6.68.56,4.44,1.51,10.25,2.48,15.78.16.88-1.85.45-1.8,2.61.07,3.18,2.56,1.59,2.7,2.36,1.02,5.5,1.95,10.13,2.38,11.96.42,1.74.39,6.08,3.51,8.83,4.64,4.1,11.38,5.79,14.59,6.53,18.15,4.18,35.26,4.46,44.48,4.59,15.7.22,33.68.11,48.24-6.1,1.63-.7,4.68-1.82,7.68-3.48,3.25-1.8,5.28-5.09,5.58-8.72.07-.72.06-1.46-.02-2.19-.06-.61.51-2.61,1.36-5.53.65-2.24,1.47-5.04,2.3-8.16.17-.64,1.8.18,2.41-1.95.51-1.77-1.17-2.02-1.03-2.58.78-3.24,1.37-6.5,1.71-9.61.27-2.49.38-4.9.3-7.14-.03-.75.95-1.89.86-2.57-.36-2.89-2.33-4.79-4.06-6.15-1.85-1.47-2.93-4.39-3.5-8.28"/><path class="cls-14" d="m242.48,38.22c-3,.65-5.57,1.36-7.89,2.02-3.57,1-6.51,1.83-9.48,2.02"/><path class="cls-14" d="m323.01,87.63c-1.92-14.49,2.89-41.82,1.58-58.86,0-.19-5.54,3.06-5.58,3.08-2.08,1.25-3.51,2.17-4.68,2.91-3.4,2.14-4.73,2.85-13.73,6.03-.89.31-1.82.52-2.8.63-3.02.35-6.48-.18-10.29-1.02-3.32-.73-6.9-1.7-10.71-2.54-4.73-1.03-9.81-1.87-15.12-1.78-2.26.04-4.38.14-6.35.29-4.91.36-8.99,1.02-12.48,1.76"/><path class="cls-14" d="m280.96,69.43c-.12.1-.24.23-.36.38-1.96,2.35-.36,4.62.19,5.03.36.26.75.53,1.19.75.69.36,1.36.6,2,.76,2.46.6,4.87-1.03,5.26-3.52.23-1.4.43-3.12-.31-4.73-.98-2.13-1.19-2.35-2.24-3.15-.35-.26-.48-.28-.51-.14-.11.54,1.52,3.63-1.23,4.69-1.58.61-2.58-1.29-3.99-.08Z"/><path class="cls-14" d="m239.37,69.81c1.97,2.35.36,4.62-.19,5.03-.36.26-.75.53-1.19.75-.69.36-1.36.6-2.01.76-2.45.6-4.86-1.03-5.26-3.52-.22-1.4-.42-3.12.31-4.73.98-2.13,1.19-2.35,2.25-3.15,1.7-1.29-1.7,3.22,1.74,4.55,1.71.66,2.74-1.63,4.35.3Z"/><path class="cls-14" d="m198.66,140.6c.5,2.96,63.71,21.39,124.08,1.66"/><path class="cls-14" d="m322.74,142.26c-.86-2.41-3.08-6.35-6.29-10.61-2.77-3.69-6.3-7.62-10.35-10.97-1.86-1.55-3.84-2.97-5.9-4.19-7.54-4.46-14.71-6.72-21.41-7.84-6.69-1.11-12.92-1.09-18.57-1.02-1.75.03-3.44.08-5.05.18-.14,0-.27,0-.41.02-19.81,1.19-28.8,7.08-32.57,9.24-2.01,1.14-3.83,2.31-5.48,3.48-10.43,7.38-14.37,15.06-18.07,20.06"/><path class="cls-14" d="m202.96,68.5c0-.09-.03-.91-.09-2.23-.22-5.57-.81-20.01-1.07-25.6-.2-4.51,7.79,1.87,15.53,5.64"/><path class="cls-14" d="m317.64,63.78v-.05c.09-1,1.42-16.5,1.91-22.61.11-1.45-.47-1.77-1.57-1.44-3.63,1.1-12.85,9.57-19.8,8.01-.05,0-.09-.03-.14-.03"/><path class="cls-14" d="m313.77,59.97s1.59-1.61,3.86,3.76c1.57,3.7,3.46,10.73,5.37,23.9.02.14.04.3.06.44"/><path class="cls-14" d="m208.45,59.97s-2.4-2.41-5.49,8.53h0c-.51,1.81-1.04,3.98-1.58,6.58-.7,3.4-1.43,7.56-2.17,12.62-.02.12-.03.25-.05.37"/><path class="cls-14" d="m274.38,83.64s6.44-2.67,15.15-1.79c1.34.14,2.74.36,4.18.69"/><path class="cls-14" d="m275.52,84.9s5.74-1.21,13.2.5c1.91.43,3.94,1.07,6.01,1.96"/><path class="cls-14" d="m245.58,83.64s-8.56-3.55-19.33-1.1"/><path class="cls-14" d="m244.45,84.9s-9.07-1.91-19.21,2.46"/><path class="cls-14" d="m292.15,45.33s1.02-.14,2.68.46c.94.34,2.08.91,3.35,1.91.88.68,1.82,1.55,2.8,2.68"/><path class="cls-14" d="m232.41,46.62s-3.96-.53-8.83,5.05"/><path class="cls-14" d="m242.82,38.14c-.12.03-.23.05-.35.08"/></g></g><path class="cls-14" d="m327,126.11s-1.4,0-2.32.19-3.95.02-4.44-.19"/></g><path class="cls-14" d="m199.76,84.05s-3.42-55.94-2.76-58.19c.03-.1.09-.14.09-.14.45-.25,2.2,2.08,2.63,2.63,1.96,2.51,3.73,2.9,12.44,8.85,3.75,2.56,4.58,3.29,6.7,4.02,2.49.86,4.72,1.03,6.25,1.03"/></svg>