<?xml version="1.0" encoding="UTF-8"?><svg id="Layer_1" xmlns="http://www.w3.org/2000/svg" viewBox="0 0 1366 768"><defs><style>.cls-1{fill:#00bbd6;}.cls-2{fill:#ffc74e;}.cls-3{fill:#824737;}.cls-4{fill:#c08329;}.cls-5{fill:#577483;}.cls-6{fill:#497775;}.cls-7{fill:#789971;}.cls-8{stroke-width:.85px;}.cls-8,.cls-9,.cls-10{fill:none;stroke:#000;stroke-miterlimit:10;}.cls-9{stroke-width:.75px;}</style></defs><g><g><path class="cls-4" d="m1273.18,645.66l-83.96-39.03s0-.01,0-.02l-1.5-15.71s.02-.03.04-.02l85.43,37.04v17.74Z"/><polygon class="cls-5" points="1273.18 624.91 1194.85 591.64 1194.85 590.44 1194.85 583.02 1194.85 581.27 1273.18 612.4 1273.18 624.91"/><polygon class="cls-5" points="1273.18 595.01 1273.18 612.4 1194.85 581.27 1198.5 580.78 1224.69 577.28 1273.18 595.01"/><polygon class="cls-4" points="1194.85 591.64 1273.18 624.91 1273.18 627.92 1187.75 590.88 1187.75 590.86 1194.85 590.44 1194.85 591.64"/><polygon class="cls-7" points="1194.31 583.02 1147.28 587.22 1147.28 582.84 1164.33 581.13 1171.63 580.4 1198.42 577.71 1198.42 580.2 1198.5 580.78 1194.85 581.27 1194.85 583.02 1194.31 583.02"/><path class="cls-6" d="m1185.2,657.7v7.8l-21.63,3.58-.39-2.38s1.02-2.35,2.86-3.6v-2.81l11.16-1.51,7.99-1.08h.01Z"/><path class="cls-6" d="m1155.27,661.74l-12.72,1.72-7.45,1.01.11-12.36,49.98-6.45h.01v12.04h-.01l-7.99,1.08-.17-1.25c-1.8-.17-4.18-2.21-4.18-2.21,1.23-4.21-.96-4.29-.96-4.29-5.28-.72-7.88,5.15-6.92,5.15s1.07,2.21,1.07,2.21v1.9l-10.77,1.45Z"/><path class="cls-6" d="m1172.85,655.32s2.38,2.04,4.18,2.21l.17,1.25-11.16,1.51v-1.9s-.1-2.21-1.07-2.21,1.64-5.87,6.92-5.15c0,0,2.19.08.96,4.29Z"/><path class="cls-7" d="m1170.01,577.63c.56.55,1.02.78,1.42.78l.2,1.99-7.3.73-.21-2.09c.43-.08,1.04-.42,1.92-1.33,2.34-2.43,1.27-2.74,3.97-.08Z"/><polygon class="cls-2" points="1198.42 565.22 1147.28 568.32 1095.07 547.38 1095.07 547.37 1145.35 543.94 1198.42 565.22"/><path class="cls-6" d="m1166.04,660.29v2.81c-1.84,1.25-2.86,3.6-2.86,3.6,0,0-1.44,0-3.88-1.11-2.85-1.3-3.75-2.89-4.03-3.85l10.77-1.45Z"/><path class="cls-7" d="m1164.33,581.13l-17.05,1.71v-14.52l51.14-3.1v12.49l-26.79,2.69-.2-1.99c-.4,0-.86-.23-1.42-.78-2.7-2.66-1.63-2.35-3.97.08-.88.91-1.49,1.25-1.92,1.33l.21,2.09Z"/><path class="cls-1" d="m1160.59,638.73c.98-.35,2.99,1.97,1.91,3.77s-1.8,2.61-7.35,2.07-7.87.99-9.58,2.07-11.07,4.14-14.04-.98c-2.97-5.13-2.7-1.54-9.63-3.34-1.31-.34-2.3-.74-3.03-1.16-3.13-1.78-1.65-3.97-1.65-3.97,8.82,1.53,5.13-3.87,3.06-3.42s-7.29,1.17-4.86-2.61,8.46-1.62,8.46-1.62c0,0,3.33-.27,7.98-2.34.94-.42,1.94-.65,2.93-.74,3.89-.35,7.61,1.5,6.84,2.8-1.31,2.2,7.19.45,9.34,1.96,1.73,1.2-.64,3.82-.25,5.62s8.9,2.24,9.87,1.89Z"/><path class="cls-6" d="m1159.3,665.59c2.44,1.11,3.88,1.11,3.88,1.11l.39,2.38-28.56,4.73v-.02l.09-9.32,7.45-1.01,12.72-1.72c.28.96,1.18,2.55,4.03,3.85Z"/><polygon class="cls-7" points="1147.28 582.84 1147.28 587.22 1147.16 587.23 1095.03 563.47 1095.03 559.64 1147.28 582.84"/><path class="cls-7" d="m1147.28,568.32v14.52l-52.25-23.2v-12.23s.02-.04.04-.03l52.21,20.94Z"/><path class="cls-3" d="m1141.63,629.26c.77-1.3-2.95-3.15-6.84-2.8l-.18-2.01,8.89-.8,1.86,1.02.03.02,39.8,20.96h0s-49.98,6.46-49.98,6.46l-2.23-1.24-14.89-8.31.78-1.4c.73.42,1.72.82,3.03,1.16,6.93,1.8,6.66-1.79,9.63,3.34,2.97,5.12,12.33,2.06,14.04.98s4.03-2.61,9.58-2.07,6.27-.27,7.35-2.07-.93-4.12-1.91-3.77c-.97.35-9.48-.09-9.87-1.89s1.98-4.42.25-5.62c-2.15-1.51-10.65.24-9.34-1.96Z"/><path class="cls-6" d="m1131.56,653.42l1.42-2.55,2.23,1.24-.11,12.36h-.09s-10.24-6.33-10.24-6.33c1.35-1.28,1.97-2.86,2.48-2.86.69.01,3.36-2.34,4.31-1.86Z"/><path class="cls-3" d="m1092.54,628.25l42.07-3.8.18,2.01c-.99.09-1.99.32-2.93.74-4.65,2.07-7.98,2.34-7.98,2.34,0,0-6.03-2.16-8.46,1.62s2.79,3.06,4.86,2.61,5.76,4.95-3.06,3.42c0,0-1.48,2.19,1.65,3.97l-.78,1.4-6.1-3.4-19.46-10.86s-.01-.02-.01-.03,0-.02.02-.02Z"/><path class="cls-6" d="m1114.64,651.87l10.13,6.27c-.75.73-1.73,1.37-3.06,1.59-3.7.63-4.44-4.01-6.03-5.3-1.39-1.12-1.16-1.5-1.04-2.56Z"/><path class="cls-6" d="m1115.67,647.97c-.06,2.4-.92,1.86-.98,3.36-.01.2-.03.38-.05.54l-7.77-4.81c.03-.14.06-.29.08-.44.52-3.76-.63-5.98.84-6.04,1.07-.04,2.33.04,3.13.5.31.18.55.42.69.73.49,1.11,1.61,2.28,2.22,2.4s1.9,1.35,1.84,3.76Z"/><path class="cls-6" d="m1114.69,651.33c.06-1.5.92-.96.98-3.36.06-2.41-1.23-3.64-1.84-3.76s-1.73-1.29-2.22-2.4c-.14-.31-.38-.55-.69-.73l1.07-1.92,6.1,3.4,14.89,8.31-1.42,2.55c-.95-.48-3.62,1.87-4.31,1.86-.51,0-1.13,1.58-2.48,2.86l-10.13-6.27c.02-.16.04-.34.05-.54Z"/><path class="cls-6" d="m1098.46,641.85l8.41,5.21c-.67,3.25-3.38,2.5-3.38,2.5,0,0-5.86-2.8-5.35-5.7.13-.71.23-1.39.32-2.01Z"/><path class="cls-1" d="m1098.76,638.6s-.06,1.35-.3,3.25l-3.3-2.04c.68-1.57,3.6-1.21,3.6-1.21Z"/><path class="cls-6" d="m1095.03,640.25c-.3,2.06-1.33,4.03-1.33,4.03h-1.24v-6.1h.06l2.64,1.63c-.06.13-.11.28-.13.44Z"/><path class="cls-6" d="m1103.49,649.56s2.71.75,3.38-2.5l7.77,4.81c-.12,1.06-.35,1.44,1.04,2.56,1.59,1.29,2.33,5.93,6.03,5.3,1.33-.22,2.31-.86,3.06-1.59l10.24,6.34h.09s-.09,9.31-.09,9.31c0,0-.01,0-.02,0l-42.53-27.89v-1.63h1.24s1.03-1.97,1.33-4.03c.02-.16.07-.31.13-.44l3.3,2.04c-.09.62-.19,1.3-.32,2.01-.51,2.9,5.35,5.7,5.35,5.7Z"/><path class="cls-6" d="m1107.79,640.58c-1.47.06-.32,2.28-.84,6.04-.02.15-.05.3-.08.44l-8.41-5.21c.24-1.9.3-3.25.3-3.25,0,0-2.92-.36-3.6,1.21l-2.64-1.63h-.06v-9.91h.06s0,.03.01.03l19.46,10.86-1.07,1.92c-.8-.46-2.06-.54-3.13-.5Z"/></g><g><line class="cls-10" x1="1273.18" y1="768" x2="1280.37" y2="768"/><polyline class="cls-10" points="1273.18 594.65 1273.18 595.01 1273.18 612.4 1273.18 624.91 1273.18 627.92 1273.18 645.66"/><path class="cls-10" d="m1194.31,583.02l-47.03,4.2h-.12s-52.13-23.75-52.13-23.75v-16.06s.02-.04.04-.03l52.21,20.94"/><polyline class="cls-10" points="1147.28 587.23 1147.28 587.22 1147.28 582.84 1147.28 568.32 1198.42 565.22 1198.42 577.71 1198.42 580.2"/><polyline class="cls-10" points="1145.35 543.17 1145.35 543.94 1095.07 547.37 1095.03 547.37"/><line class="cls-10" x1="1198.42" y1="565.22" x2="1145.35" y2="543.94"/><polyline class="cls-10" points="1095.03 559.64 1147.28 582.84 1164.33 581.13 1171.63 580.4 1198.42 577.71"/><line class="cls-9" x1="1145.36" y1="624.67" x2="1145.35" y2="624.7"/><polyline class="cls-9" points="1185.19 645.66 1185.19 645.65 1145.39 624.69"/><path class="cls-9" d="m1146.73,625.42l-1.34-.73-.03-.02-1.86-1.02-8.89.8-42.07,3.8s-.02.01-.02.02,0,.03.01.03l19.46,10.86,6.1,3.4,14.89,8.31,2.23,1.24,49.98-6.45h.01"/><path class="cls-9" d="m1135.21,652.11l-.11,12.36-.09,9.32s-.01,0-.02,0l-42.53-27.89v-17.64h0"/><polyline class="cls-9" points="1185.2 645.66 1185.2 657.7 1185.2 665.5 1163.57 669.08 1135.01 673.81"/><path class="cls-9" d="m1273.18,645.66l-83.96-39.03s0-.01,0-.02l-1.5-15.71s.02-.03.04-.02l85.43,37.04.25.11"/><polyline class="cls-9" points="1273.43 625.02 1273.18 624.91 1194.85 591.64 1194.85 590.44 1194.85 583.02 1194.85 581.27 1273.18 612.4 1273.43 612.5"/><polyline class="cls-9" points="1273.18 595.01 1224.69 577.28 1198.5 580.78 1194.85 581.27"/><polyline class="cls-9" points="1187.71 590.86 1187.75 590.86 1194.85 590.44"/><path class="cls-10" d="m1122.12,549.46s15.26-.32,17.2-.56c1.95-.25,3.33-.65,4.14-.73.82-.09,1.22,2.43-9.98,3.24s3.08,2.44,3.08,2.44"/><path class="cls-10" d="m1143.82,554.25s-.19.73-1.49,1.38,3.02,2.68,3.02,2.68"/><path class="cls-10" d="m1151.82,555.63s-6.08,3.07-5.68,4.01c.41.94,5.2-1.59,6.09,0"/><path class="cls-10" d="m1156.21,560.5s6.98-1.04,8.76-.64c1.79.4,2.44-1.39-7.14-4.23"/><path class="cls-10" d="m1164.97,564.24s7.76.52,9.42-3.74"/><path class="cls-10" d="m1153.04,563.75s-5.92.18-3.16,1.47"/><path class="cls-10" d="m1105.31,556.28s-.64,4.3,0,4.22c.65-.08,1.63.54,1.63.54"/><path class="cls-10" d="m1110.19,559.29s6.49-.9,5.84,2.11c-.65,3,2.27,4.15,4.71,3.82"/><path class="cls-10" d="m1124.71,565.28s.25,2.34,3.98,2.03"/><path class="cls-10" d="m1132.34,567.34s-.4,3.52,1.79,3.9"/><path class="cls-10" d="m1160.59,575.19s3-4.38,2.6,3.33c0,0,.2.64.93.52.43-.08,1.04-.42,1.92-1.33,2.34-2.43,1.27-2.74,3.97-.08.56.55,1.02.78,1.42.78,1.55,0,2.33-3.32,4.91-4.46,3.24-1.43,3.89-.38,5.11-1.03s4.71-4.14,5.2-2.27c.48,1.87-1.36,4.95,1.06,4.54"/><path class="cls-10" d="m1210.65,584.3s1.85.55,1.85,0-2.07-1.24,1.36-1.46c3.42-.22,5.65-.22,5.65-.22"/><line class="cls-10" x1="1225.33" y1="583.32" x2="1227.02" y2="585.12"/><path class="cls-10" d="m1231.91,586.91v2.5c0,.65,2.99-1.68,3.91-1.68s1.85.11,1.85.11"/><path class="cls-10" d="m1238.92,586.59s2.72,2.55,3.81,2.55"/><path class="cls-10" d="m1249.09,591.37h2.61s-.38,1.09.81,1.03"/><path class="cls-10" d="m1244.9,592.4l5.11,5.66,9.46.65s1.36,2.55,2.72,2.61c1.36.05,4.89.49,4.89.49"/><path class="cls-10" d="m1264.2,596.32s-.82,2.28,4.08,1.84c4.9-.43,1.76.68,1.76.68"/><path class="cls-10" d="m1217.26,595.01s-1.42,3.13,4.31,3.41c5.74.27,2.66,2.52,5.14,3.58"/><path class="cls-10" d="m1234.14,604.34s1.9-2.48,8.59,2.47c6.69,4.96,7.47,3.03,7.47,3.03"/><path class="cls-10" d="m1192.94,597.11s.35,5.44-.82,6.61c-1.18,1.16,1.53,1.15,1.53,1.15,0,0,3.29-6.02,3.53-3.06.23,2.95,4.11,2.15,4.93,1.91"/><path class="cls-10" d="m1205.88,606.96s2.47,1.57,3.76,1.57"/><line class="cls-10" x1="1213.76" y1="611.11" x2="1215.08" y2="611.7"/><path class="cls-10" d="m1218.46,612.53s.59,3.41,2.35,3.41"/><path class="cls-10" d="m1227.63,612.53s-5.17,5.59-3.05,5.73c2.11.15,4.35,1.72,4.7,2.93"/><path class="cls-10" d="m1238.92,625.02s-.23,2.44,2.71,2.32c2.94-.11,3.88.01,3.88.01"/><path class="cls-10" d="m1244.22,618.26s-8,.03-6,1.91,6,0,6,0"/><path class="cls-10" d="m1246.22,622.17s5.74,2.83,2.87,5.18"/><path class="cls-10" d="m1253.39,628.17s1.53,4.23,7.17,5.52c5.65,1.3,2.94-7.05,8.47-4.11s-4.59,2.47-.94,9.76"/><polyline class="cls-10" points="1092.52 638.18 1095.16 639.81 1098.46 641.85 1106.87 647.06 1114.64 651.87 1124.77 658.14 1135.01 664.48 1135.1 664.47 1142.55 663.46 1155.27 661.74 1166.04 660.29 1177.2 658.78 1185.19 657.7"/><path class="cls-8" d="m1153.04,658.39c-1.28,1.66-2.87,0-2.87,0-3.19-7.61-6.45,1.34-6.45,1.34,0,0-1.03,1.81-1.17,3.73-.08,1.16.17,2.37,1.17,3.24"/><path class="cls-8" d="m1155.15,660.88s-.03.34.12.86c.28.96,1.18,2.55,4.03,3.85,2.44,1.11,3.88,1.11,3.88,1.11,0,0,1.02-2.35,2.86-3.6v-4.71s-.1-2.21-1.07-2.21,1.64-5.87,6.92-5.15c0,0,2.19.08.96,4.29,0,0,2.38,2.04,4.18,2.21"/><path class="cls-8" d="m1131.86,653.87c-.05-.23-.15-.38-.3-.45-.95-.48-3.62,1.87-4.31,1.86-.51,0-1.13,1.58-2.48,2.86-.75.73-1.73,1.37-3.06,1.59-3.7.63-4.44-4.01-6.03-5.3-1.39-1.12-1.16-1.5-1.04-2.56.02-.16.04-.34.05-.54.06-1.5.92-.96.98-3.36.06-2.41-1.23-3.64-1.84-3.76s-1.73-1.29-2.22-2.4c-.14-.31-.38-.55-.69-.73-.8-.46-2.06-.54-3.13-.5-1.47.06-.32,2.28-.84,6.04-.02.15-.05.3-.08.44-.67,3.25-3.38,2.5-3.38,2.5,0,0-5.86-2.8-5.35-5.7.13-.71.23-1.39.32-2.01.24-1.9.3-3.25.3-3.25,0,0-2.92-.36-3.6,1.21-.06.13-.11.28-.13.44-.3,2.06-1.33,4.03-1.33,4.03"/><path class="cls-8" d="m1134.79,626.46c-.99.09-1.99.32-2.93.74-4.65,2.07-7.98,2.34-7.98,2.34,0,0-6.03-2.16-8.46,1.62s2.79,3.06,4.86,2.61,5.76,4.95-3.06,3.42c0,0-1.48,2.19,1.65,3.97.73.42,1.72.82,3.03,1.16,6.93,1.8,6.66-1.79,9.63,3.34,2.97,5.12,12.33,2.06,14.04.98s4.03-2.61,9.58-2.07,6.27-.27,7.35-2.07-.93-4.12-1.91-3.77c-.97.35-9.48-.09-9.87-1.89s1.98-4.42.25-5.62c-2.15-1.51-10.65.24-9.34-1.96.77-1.3-2.95-3.15-6.84-2.8Z"/></g></g><line class="cls-10" y1="0" x2="1367.09" y2="0"/><rect class="cls-10" y="0" width="1366" height="768"/></svg>