<?xml version="1.0" encoding="UTF-8"?><svg id="Layer_1" xmlns="http://www.w3.org/2000/svg" viewBox="0 0 1366 768"><defs><style>.cls-1{fill:#f58e81;}.cls-2,.cls-3{fill:#f9a01b;}.cls-4{fill:#fff;}.cls-5,.cls-6{fill:#e68a1b;}.cls-7{fill:#6c3300;}.cls-8{fill:#b07e09;}.cls-9{fill:#d9bb81;}.cls-10{fill:#e2984a;}.cls-11,.cls-6,.cls-3,.cls-12,.cls-13,.cls-14{stroke:#000;stroke-miterlimit:10;}.cls-11,.cls-12,.cls-14{fill:none;}.cls-11,.cls-13{stroke-width:.75px;}.cls-13{fill:#a46c35;}.cls-14{stroke-width:.5px;}</style></defs><g><g><path class="cls-7" d="m439.81,496.55s-.01.01-.01.02c-3.35,4.91-10.08,6.35-10.08,6.35h-10.66l11.86-6.37h8.89Z"/><polygon class="cls-10" points="419.85 598.5 419.85 604.51 384.82 626.06 384.63 618.65 419.85 598.5"/><polygon class="cls-9" points="419.85 593.81 419.85 598.5 384.63 618.65 384.43 610.6 419.85 593.81"/><path class="cls-7" d="m419.85,593.81l-35.42,16.79h-73.41l41.35-16.79h3.83v7.98s13.76,10.71,27.18-.58v-7.4h36.47Z"/><path class="cls-9" d="m400.4,531.65c7.36-2.17,26.47-13.82,29.32-28.73,0,0,6.73-1.44,10.08-6.35-.21.83-7.46,27.21-39.4,35.08Z"/><path class="cls-5" d="m416.02,469.24s6.22,2.18.86,14.65c-.44-1.96-1.75-5.04-5.52-7.94,0,0-.17-.12-.46-.3,0,0,3.01-5.09,5.12-6.41Z"/><path class="cls-8" d="m412.49,484.76s.46,1.94-.9,2.29c-1.33.34-2.61-.49-2.25-2.35.51-.6,1.08-1.08,1.61-1.09.68-.01,1.13.55,1.54,1.15Z"/><path class="cls-2" d="m403.51,517.98c.14-1.44.69-3.52,4.97-2.77-2,1.81-3.72,3.08-5.07,3.94h0s.02-.26.11-1.17Z"/><path class="cls-1" d="m406.86,489.66s-.83,1.69-1.15,1.71c-.31.01-1.06.01-1.06.01l-1.12-1.63s1.42-.8,3.33-.09Z"/><path class="cls-10" d="m408.48,515.21c.94-.85,1.94-1.82,3-2.93,2.3-2.42,4.86-5.48,7.58-9.36h10.66c-2.85,14.91-21.96,26.56-29.32,28.73-.17.05-.34.09-.51.13-.54.15-1,.22-1.37.23-2,.06-8.24.04-15.14.09-3.95.03-8.11.08-11.83.18h-.06c0-.25-.04-.53-.1-.82-.47-2.25-7.05.92-6.28-5.17,0,0,.8-1.83,1.46-4.24l26.84-.3c.68,1.2,1.4,2.57,2.19,3.32.91.87,2.99,1.99,4.55,1.99.65,0,1.21-.19,1.56-.68l.15-.21v-.02c1.07-1.6,1.48-3.47-1.81-5.24,0,0,1.22-.39,3.35-1.75,0,.02,0-.01,0-.01,1.35-.86,3.07-2.13,5.07-3.94Z"/><path class="cls-8" d="m400.56,484.95c.36,1.86-.92,2.69-2.25,2.35-1.27-.33-.96-2.05-.91-2.27.41-.61.87-1.18,1.55-1.18.53.01,1.1.5,1.61,1.1Z"/><polygon class="cls-10" points="384.63 618.65 384.82 626.06 311.02 624.5 311.02 617.07 384.41 618.78 384.63 618.65"/><polygon class="cls-9" points="384.43 610.6 384.63 618.65 384.41 618.78 311.02 617.07 311.02 610.6 384.43 610.6"/><path class="cls-9" d="m383.38,595.55v5.66c-13.42,11.29-27.18.58-27.18.58v-2.1c18.6,8.09,27.18-4.14,27.18-4.14Z"/><path class="cls-9" d="m383.38,553.11v6.66s-12.39,11.69-27.18,5.71v-13.51s17.96,11.88,27.18,1.14Z"/><path class="cls-9" d="m356.2,567.18s15.27,13.33,27.18,2.52v1.25c-9.32,15.42-27.18,2.1-27.18,2.1v-5.87Z"/><path class="cls-9" d="m356.2,576.02s14.85,11.52,27.18,5.94v.65c-14.09,14.21-27.18,6.46-27.18,6.46v-13.05Z"/><path class="cls-9" d="m356.2,542.38s4.71,8.44,27.18,4.02c-1.5,8.93-26.87,6.54-27.18,4.9v-8.92Z"/><path class="cls-9" d="m368.53,535.5c.74-.14,1.53-.45,2.1-1.01.53-.5.88-1.22.86-2.21h.06c3.72-.1,7.88-.15,11.83-.18v6.37c-18.67,9.24-27.18,2.09-27.18,2.09v-8.22h0c2.62.02,3.62-.06,3.62-.06.12.27.25.45.38.49,0,0,5.38,2,6.2,2.6.3.22,1.18.32,2.13.13Z"/><path class="cls-9" d="m383.38,595.55s-8.58,12.23-27.18,4.14v-9.42s10.81,9.87,27.18,4.53v.75Z"/><path class="cls-9" d="m356.2,573.05s17.86,13.32,27.18-2.1v11.01c-12.33,5.58-27.18-5.94-27.18-5.94v-2.97Z"/><path class="cls-10" d="m355.22,526.72s1.24.43,1.97-.43h0s.23.73-.42,1.43c0,0,1.14-.07,1.98-.8.08.76.48,4.09,1.06,5.36,0,0-1,.08-3.62.05-2.48-.01-6.4-.12-12.31-.46-8.81-.51-17.39-4.44-17.39-4.44,2.48-2.97,1.8-4.45,5.16-7.73,0,0,15.48,2.35,23.31,2.35,0,0,2.17.26,1.49,2.9,0,0-.14,1.25-1.24,1.77Z"/><path class="cls-9" d="m356.2,542.38v-1.82s8.51,7.15,27.18-2.09v7.93c-22.47,4.42-27.18-4.02-27.18-4.02Z"/><path class="cls-5" d="m410.95,483.61c-.53.01-1.1.49-1.61,1.09-.36,1.86.92,2.69,2.25,2.35,1.36-.35.9-2.29.9-2.29-.41-.6-.86-1.16-1.54-1.15Zm-10.39,1.34c-.51-.6-1.08-1.09-1.61-1.1-.68,0-1.14.57-1.55,1.18-.05.22-.36,1.94.91,2.27,1.33.34,2.61-.49,2.25-2.35Zm4.09,6.43s.75,0,1.06-.01c.32-.02,1.15-1.71,1.15-1.71-1.91-.71-3.33.09-3.33.09l1.12,1.63Zm-51.29,5.78c.2-.04,2.41-.47,6.39-.79,4.28-.36,10.6-.61,18.7-.19,0,0,1.29-.06-.15-.97,0,0,1.31-.85,2.24.3,0,0,2.75.25,5.04-.25,2.28-.5-1.59-1.03-2.06-.79,0,0-.6-2.38,4.72-.66,0,0,2.09.23,2.4-.23l.12-.32c-.24-.19-.49-.34-.77-.43,1.64-.91,2.03-1.87,2.07-1.99-2.31,1.33-3.14-.01-3.14-.01,2.63-2.27,3.24-4.47,3.34-5.75h0c.05-.69-.04-1.1-.04-1.1-3.97-10.76-.81-14.51-.81-14.51,4.7,1.05,7.26,5.88,7.26,5.88,2.65-.08,4.14-1.73,4.14-1.73,2.13-2.28,5.47-.86,5.47-.86-.2,1.25-1.55,1.65-1.55,1.65,1.54-.2,3.34.74,4.17,1.24.29.18.46.3.46.3,3.77,2.9,5.08,5.98,5.52,7.94.29,1.25.22,2.05.22,2.05-.37,1.28,2.75,3.38,2.75,3.38-.61,1.06-2.54.89-2.54.89.87.07.52,4.88.39,3.44-.14-1.44-1.75-.47-1.75-.47.16,2.71-5.01,5.09-6.93,5.87h1.88s.75,3.65,4.58,3.17c0,0-1.42,1.22-3.36.98v.03s.42,6.84-.64,9.05c-1.06,1.11-2.06,2.08-3,2.93-4.28-.75-4.83,1.33-4.97,2.77-.09.91-.11,1.14-.11,1.18-2.13,1.36-3.35,1.75-3.35,1.75,3.29,1.77,2.88,3.64,1.81,5.24v.02l-.15.21c-.35.49-.91.68-1.56.68-1.56,0-3.64-1.12-4.55-1.99-.79-.75-1.51-2.12-2.19-3.32l-26.84.3c-.66,2.41-1.46,4.24-1.46,4.24-.77,6.09,5.81,2.92,6.28,5.17.06.29.09.57.1.82.02.99-.33,1.71-.86,2.21-.57.56-1.36.87-2.1,1.01-.95.19-1.83.09-2.13-.13-.82-.6-6.2-2.6-6.2-2.6-.13-.04-.26-.22-.38-.49-.58-1.27-.98-4.6-1.06-5.36-.84.73-1.98.8-1.98.8.65-.7.42-1.43.42-1.43h0c-.73.86-1.97.43-1.97.43,1.1-.52,1.24-1.77,1.24-1.77.68-2.64-1.49-2.9-1.49-2.9-1.11-.1-1.87-.34-2.37-.64-4.68,0-7.14-2.86-7.68-3.58l-.1-.24c-.88.33-1.91-.48-1.91-.48,1.29-.89.47-1.67-.25-2.1-1.32,1.76-10.66,4.36-10.66,4.36-.12.11-.23.22-.34.33-3.36,3.28-2.68,4.76-5.16,7.73-.99,1.18-2.47,2.59-4.9,4.44-8.75,6.65-19.2.3-12.06-3.4,7.15-3.71,7.6-4.93,7.6-4.93,0,0,5.45-3.4,6.23-5.71.08-.24.17-.47.27-.69.86-1.92,2.66-3.24,8.34-6.22,5.16-2.71,5.28-2.04,7.22-3.63.89-.72,2.49-2.08,3.25-2.92,1.91-2.13,1.45-1.51,3.47-3.35.65-.61,2.74-2.07,4.33-2.39l2.33-.6s-3.37-.9-3.04-2.52c0,0,2.2,1.36,3.81,1.65h.01Z"/><path class="cls-9" d="m356.2,567.18v-1.7c14.79,5.98,27.18-5.71,27.18-5.71v9.93c-11.91,10.81-27.18-2.52-27.18-2.52Z"/><path class="cls-9" d="m383.38,594.8c-16.37,5.34-27.18-4.53-27.18-4.53v-1.2s13.09,7.75,27.18-6.46v12.19Z"/><path class="cls-9" d="m356.2,551.97v-.67c.31,1.64,25.68,4.03,27.18-4.9v6.71c-9.22,10.74-27.18-1.14-27.18-1.14Z"/><path class="cls-9" d="m342.91,517.11s1.03.81,1.91.48l.1.24c.54.72,3,3.58,7.68,3.58.5.3,1.26.54,2.37.64-7.83,0-23.31-2.35-23.31-2.35.11-.11.22-.22.34-.33,0,0,9.34-2.6,10.66-4.36.72.43,1.54,1.21.25,2.1Z"/><path class="cls-9" d="m338.74,497.63c.95,3.6,3.71,6.74,3.71,6.74-.76.84-2.36,2.2-3.25,2.92-1.94,1.59-2.06.92-7.22,3.63-5.68,2.98-7.48,4.3-8.34,6.22-11.67-6.33-9.92-15.98-9.92-15.98l25.02-3.53Z"/><polygon class="cls-7" points="338.74 497.63 313.72 501.16 306 497.63 331.54 494.97 338.74 497.63"/><path class="cls-10" d="m323.64,517.14c-.1.22-.19.45-.27.69-.78,2.31-6.23,5.71-6.23,5.71-16.77-11.49-11.14-25.91-11.14-25.91l7.72,3.53s-1.75,9.65,9.92,15.98Z"/></g><g><path class="cls-12" d="m342.45,504.37s-2.76-3.14-3.71-6.74l-7.2-2.66-25.54,2.66s-5.63,14.42,11.14,25.91c0,0-.45,1.22-7.6,4.93-7.14,3.7,3.31,10.05,12.06,3.4,2.43-1.85,3.91-3.26,4.9-4.44,2.48-2.97,1.8-4.45,5.16-7.73.11-.11.22-.22.34-.33,0,0,9.34-2.6,10.66-4.36.04-.05.07-.09.09-.14"/><polyline class="cls-12" points="306 497.63 313.72 501.16 338.74 497.63"/><path class="cls-12" d="m313.72,501.16s-1.75,9.65,9.92,15.98"/><path class="cls-12" d="m353.35,497.16c-1.61-.29-3.81-1.65-3.81-1.65-.33,1.62,3.04,2.52,3.04,2.52l-2.33.6c-1.59.32-3.68,1.78-4.33,2.39-2.02,1.84-1.56,1.22-3.47,3.35-.76.84-2.36,2.2-3.25,2.92-1.94,1.59-2.06.92-7.22,3.63-5.68,2.98-7.48,4.3-8.34,6.22-.1.22-.19.45-.27.69-.78,2.31-6.23,5.71-6.23,5.71"/><path class="cls-12" d="m353.47,497.18s-.07-.01-.11-.02"/><path class="cls-12" d="m353.35,497.16h.01c.2-.04,2.41-.47,6.39-.79,4.28-.36,10.6-.61,18.7-.19,0,0,1.29-.06-.15-.97,0,0,1.31-.85,2.24.3,0,0,2.75.25,5.04-.25,2.28-.5-1.59-1.03-2.06-.79,0,0-.6-2.38,4.72-.66,0,0,2.09.23,2.4-.23"/><path class="cls-12" d="m392.07,490.83h-.01c-.04.13-.43,1.09-2.07,2,.28.09.53.24.77.43,1.7,1.32,3.12,4.73,12.26,6.03"/><path class="cls-12" d="m392.26,485.08c-.1,1.28-.71,3.48-3.34,5.75,0,0,.83,1.34,3.14.01"/><path class="cls-12" d="m408.32,499.33s.27-.1.7-.28c1.92-.78,7.09-3.16,6.93-5.87,0,0,1.61-.97,1.75.47.13,1.44.48-3.37-.39-3.44,0,0,1.93.17,2.54-.89,0,0-3.12-2.1-2.75-3.38,0,0,.07-.8-.22-2.05-.44-1.96-1.75-5.04-5.52-7.94,0,0-.17-.12-.46-.3-.83-.5-2.63-1.44-4.17-1.24,0,0,1.35-.4,1.55-1.65,0,0-3.34-1.42-5.47.86,0,0-1.49,1.65-4.14,1.73,0,0-2.56-4.83-7.26-5.88,0,0-3.16,3.75.81,14.51,0,0,.09.41.04,1.09"/><path class="cls-12" d="m410.9,475.65s3.01-5.09,5.12-6.41c0,0,6.22,2.18.86,14.65"/><path class="cls-12" d="m410.9,499.06s.75,3.64,4.58,3.16c0,0-1.42,1.22-3.36.98-.33-.03-.68-.11-1.04-.25"/><path class="cls-12" d="m412.12,503.23s.42,6.84-.64,9.05c-.11.25-.24.43-.4.55"/><path class="cls-12" d="m326.5,527.43s8.58,3.93,17.39,4.44c5.91.34,9.83.45,12.31.46,2.62.03,3.62-.05,3.62-.05"/><path class="cls-12" d="m331.66,519.7s15.48,2.35,23.31,2.35"/><path class="cls-12" d="m341.94,514.66s.35.13.72.35c.72.43,1.54,1.21.25,2.1,0,0,1.03.81,1.91.48.41-.14.79-.53,1.01-1.36"/><path class="cls-12" d="m344.8,517.67s.04.06.12.16c.54.72,3,3.58,7.68,3.58"/><path class="cls-12" d="m351.58,519.7s-.19,1.01,1.02,1.71c.5.3,1.26.54,2.37.64,0,0,2.17.26,1.49,2.9,0,0-.14,1.25-1.24,1.77,0,0,1.24.43,1.97-.43h0c.1-.11.17-.22.24-.35"/><path class="cls-12" d="m357.2,526.29s.23.73-.42,1.43c0,0,1.14-.07,1.98-.8.16-.13.3-.29.43-.47"/><path class="cls-12" d="m358.74,526.76s.01.06.02.16c.08.76.48,4.09,1.06,5.36.12.27.25.45.38.49,0,0,5.38,2,6.2,2.6.3.22,1.18.32,2.13.13.74-.14,1.53-.45,2.1-1.01.53-.5.88-1.22.86-2.21,0-.25-.04-.53-.1-.82-.47-2.25-7.05.92-6.28-5.17,0,0,.8-1.83,1.46-4.24.99-3.64,1.66-8.58-1.22-10.53,0,0-1.01-.68,1.89-.98,0,0-1.41-2.08-3.61,0,0,0-3.74-.05-4.07-1.01"/><path class="cls-14" d="m375.81,515s-.8,1.6-1.96,1.88c0,0,2.81.67,3.53-.94,0,0,.86,1.9,3.49.78,0,0-3.1-.98-2.63-1.9"/><path class="cls-12" d="m392.26,485.08h0c.03-.13.5-2.15,2.06-2.46"/><path class="cls-11" d="m402,487.21s-.64-1.28-1.44-2.26c-.51-.6-1.08-1.09-1.61-1.1-.68,0-1.14.57-1.55,1.18-.44.63-.83,1.3-1.4,1.37"/><path class="cls-11" d="m397.4,485.01v.02c-.05.22-.36,1.94.91,2.27,1.33.34,2.61-.49,2.25-2.35-.01-.03-.01-.06-.02-.09"/><path class="cls-11" d="m407.9,486.96s.63-1.28,1.44-2.26c.51-.6,1.08-1.08,1.61-1.09.68-.01,1.13.55,1.54,1.15.44.64.83,1.32,1.41,1.39"/><path class="cls-11" d="m412.49,484.76s.46,1.94-.9,2.29c-1.33.34-2.61-.49-2.25-2.35.01-.03.01-.06.02-.09"/><path class="cls-11" d="m398.89,481.07s-1.23-.03-1.93-1.21"/><path class="cls-11" d="m410.77,481.27s1.61-.58,1.75-1.6"/><path class="cls-11" d="m403.53,489.75s1.42-.8,3.33-.09c0,0-.83,1.69-1.15,1.71-.31.01-1.06.01-1.06.01l-1.12-1.63Z"/><path class="cls-11" d="m401.75,493.56c1.8.15,2.78-.59,3.19-1.54.09-.22.39-.23.5-.02.42.84,1.96,1.64,3.2,1.51"/><path class="cls-12" d="m393.03,519.65c-.21.21-.42.37-.62.49-.08.04-.16.08-.23.12-1.88.9-3.14-1.57-3.14-1.57,1.65.49,2.14.15,2.14.15l-.51-2.73s-.92-2.64-.61-4.68c0,0-1.54.2-2.5-2.18"/><path class="cls-12" d="m401.86,526.17l-.15.21c-.35.49-.91.68-1.56.68-1.56,0-3.64-1.12-4.55-1.99-.79-.75-1.51-2.12-2.19-3.32-.34-.62-.68-1.19-1-1.61-.08-.11-.15-.2-.23-.29"/><path class="cls-12" d="m397.9,508.66s-1.3,10.4,2.15,12.25c3.29,1.77,2.88,3.64,1.81,5.24"/><line class="cls-12" x1="366.57" y1="522.05" x2="393.41" y2="521.75"/><path class="cls-12" d="m399.89,531.78c-.54.15-1,.22-1.37.23-2,.06-8.24.04-15.14.09-3.95.03-8.11.08-11.83.18"/><path class="cls-12" d="m400.05,520.91s1.22-.39,3.35-1.75h0c1.35-.87,3.07-2.14,5.07-3.95.94-.85,1.94-1.82,3-2.93,2.3-2.42,4.86-5.48,7.58-9.36h10.66c-2.85,14.91-21.96,26.56-29.32,28.73"/><path class="cls-12" d="m408.51,515.21h-.03c-4.28-.75-4.83,1.33-4.97,2.77-.09.91-.11,1.14-.11,1.18,0,.02,0-.01,0-.01"/><path class="cls-12" d="m439.8,496.57c-.21.83-7.46,27.21-39.4,35.08-.17.05-.34.09-.51.13"/><polyline class="cls-12" points="419.06 502.92 430.92 496.55 439.81 496.55"/><path class="cls-12" d="m429.72,502.92s6.73-1.44,10.08-6.35c0-.01.01-.01.01-.02"/><path class="cls-12" d="m356.2,532.34v69.45s13.76,10.71,27.18-.58v-69.09"/><path class="cls-11" d="m369.42,532.72s1.86.59,1.21,1.77"/><path class="cls-11" d="m367.93,533.6s-.15,1.46.6,1.9c.08.05.16.08.26.1"/><path class="cls-11" d="m400.06,527.26s.04-.08.09-.2c.15-.35.36-1.09-.17-1.55"/><path class="cls-11" d="m401.86,526.17v-.02c.05-.17.31-1.24-.73-1.55"/><path class="cls-11" d="m356.2,540.56s8.51,7.15,27.18-2.09"/><path class="cls-11" d="m356.2,551.3c.31,1.64,25.68,4.03,27.18-4.9-22.47,4.42-27.18-4.02-27.18-4.02"/><path class="cls-11" d="m356.2,551.97s17.96,11.88,27.18,1.14"/><path class="cls-11" d="m383.38,559.77s-12.39,11.69-27.18,5.71"/><path class="cls-11" d="m356.2,567.18s15.27,13.33,27.18,2.52"/><path class="cls-11" d="m356.2,573.05s17.86,13.32,27.18-2.1"/><path class="cls-11" d="m356.2,576.02s14.85,11.52,27.18,5.94"/><path class="cls-11" d="m356.2,589.07s13.09,7.75,27.18-6.46"/><path class="cls-11" d="m383.38,594.8c-16.37,5.34-27.18-4.53-27.18-4.53"/><path class="cls-11" d="m383.38,595.55s-8.58,12.23-27.18,4.14"/><polyline class="cls-12" points="383.38 593.81 419.85 593.81 419.85 598.5 419.85 604.51 384.82 626.06 311.02 624.5 311.02 617.07 311.02 610.6 352.37 593.81 356.2 593.81"/><polyline class="cls-12" points="311.02 617.07 384.41 618.78 384.63 618.65 419.85 598.5 420.23 598.5"/><polyline class="cls-12" points="311.02 610.6 384.43 610.6 419.85 593.81"/><polyline class="cls-12" points="384.43 610.6 384.63 618.65 384.82 626.06"/><line class="cls-12" x1="1273.18" y1="768" x2="1280.37" y2="768"/></g></g><line class="cls-12" y1="0" x2="1367.09" y2="0"/><path class="cls-3" d="m399.27,485.53c0,.17-.24.3-.26.3s-.34-.08-.34-.25.26-.36.27-.36.32.14.32.3Z"/><path class="cls-3" d="m411.17,485.28c0,.14-.21.26-.22.26s-.28-.07-.28-.21.22-.3.23-.3.27.12.27.26Z"/><ellipse class="cls-4" cx="399.41" cy="485.26" rx=".21" ry=".18"/><ellipse class="cls-4" cx="410.55" cy="485.02" rx=".21" ry=".18"/><path class="cls-6" d="m393.41,480.47s-2.23-5.79-1.15-7.75c0,0,3.17,1.75,4.71,3.85"/><path class="cls-12" d="m412.15,476.59l3.8-4.94s1.33.39,1.33,4.17-1.41,5.08-1.41,5.08"/><path class="cls-13" d="m411.08,508.03s.15,3.75-2.57,6.13"/><rect class="cls-12" y="0" width="1366" height="768"/></svg>