<?xml version="1.0" encoding="UTF-8"?><svg id="Layer_1" xmlns="http://www.w3.org/2000/svg" viewBox="0 0 1366 768"><defs><style>.cls-1{fill:#f3ac71;}.cls-2{fill:#adc6b9;}.cls-3{fill:#d0ecf4;}.cls-4{fill:#3e7b7d;}.cls-5,.cls-6{fill:none;stroke:#000;stroke-miterlimit:10;}.cls-6{stroke-width:.5px;}</style></defs><g><g><path class="cls-4" d="m502.69,595.78l-18.21,3.46-3.56-26.27,17.51-4.15s2.88,9.68,4.26,26.96Zm-16.01.81l13.24-2.88s-.35-3.9-1.66-12.17c-.43-2.76-.96-6-1.63-9.75l-12.91,3.15,1.36,9.94,1.6,11.71Z"/><path class="cls-1" d="m496.94,581.58l1.32-.04c1.31,8.27,1.66,12.17,1.66,12.17l-13.24,2.88-1.6-11.71c3.06-2.22,1.3-4.8,1.3-4.8l.12-.49s.67-1.3,2.7,3.11c0,0,.38.6.87.21h.48c0,.32,0,.74.01,1.28v.34h-1.1v1.95h3.16c.75-.02.48-1.95.48-1.95v-.34h.68v-1.49l-1.01.11-.04-.36c-.54-.69.98-.51,1.34-2.5.37-2,1.09.36,1.09.36,0,0,.29-.07.69-.29.35-.19.95,1.22,1.09,1.56Zm-.51,2.75l-.22-1.63-1.42-.11v1.74h1.64Zm-8.34,2.39v-2.19h-1.59v2.19h1.59Z"/><path class="cls-2" d="m490.55,582.91h-.48c-.49.39-.87-.21-.87-.21-2.03-4.41-2.7-3.11-2.7-3.11l-.12.49s1.76,2.58-1.3,4.8l-1.36-9.94,12.91-3.15c.67,3.75,1.2,6.99,1.63,9.75l-1.32.04c-.14-.34-.74-1.75-1.09-1.56-.4.22-.69.29-.69.29,0,0-.72-2.36-1.09-.36-.36,1.99-1.88,1.81-1.34,2.5l.04.36-.36.04v1.34h.69v.34s.27,1.93-.48,1.95h-1.37v-1.95h-.69v-.34c-.01-.54-.01-.96-.01-1.28Z"/><polygon class="cls-3" points="496.21 582.7 496.43 584.33 494.79 584.33 494.79 582.59 496.21 582.7"/><polygon class="cls-3" points="493.78 582.7 493.78 584.19 493.1 584.19 492.41 584.19 492.41 582.85 492.77 582.81 493.78 582.7"/><polygon class="cls-3" points="491.25 584.53 491.25 586.48 489.46 586.48 489.46 584.53 490.56 584.53 491.25 584.53"/><polygon class="cls-3" points="488.09 584.53 488.09 586.72 486.72 586.72 486.5 586.72 486.5 584.53 488.09 584.53"/><polygon class="cls-4" points="480.92 572.97 484.48 599.24 482.11 599.99 478.5 574.12 480.92 572.97"/></g><g><line class="cls-5" x1="1273.18" y1="768" x2="1280.37" y2="768"/><path class="cls-5" d="m480.92,572.97l17.51-4.15s2.88,9.68,4.26,26.96l-18.21,3.46-3.56-26.27Z"/><polyline class="cls-5" points="480.92 572.97 478.5 574.12 482.11 599.99 484.48 599.24"/><path class="cls-5" d="m498.26,581.54c-.43-2.76-.96-6-1.63-9.75l-12.91,3.15,1.36,9.94,1.6,11.71,13.24-2.88s-.35-3.9-1.66-12.17Z"/><path class="cls-6" d="m490.56,584.19c-.01-.54-.01-.96-.01-1.28.01-2.59.17,1.35-1.45-2.03-1.83-3.8-2.85-2.19-2.85-2.19"/><polygon class="cls-6" points="490.56 584.53 489.46 584.53 489.46 586.48 491.25 586.48 491.25 584.53 490.56 584.53"/><polygon class="cls-6" points="486.72 586.72 488.09 586.72 488.09 584.53 486.5 584.53 486.5 586.72 486.72 586.72"/><path class="cls-6" d="m490.74,586.72s.25,2.22,1.74,3.01c1.49.8,1.59,2.39,1.59,2.39"/><path class="cls-6" d="m492.73,582.45c-.54-.69.98-.51,1.34-2.5.37-2,1.09.36,1.09.36,0,0,.29-.07.69-.29.35-.19.95,1.22,1.09,1.56.02.04.03.07.03.07"/><path class="cls-6" d="m494.98,581.07s.51-.4.76-.27,1.05,1.32.94,1.9"/><polygon class="cls-6" points="493.1 584.19 492.41 584.19 492.41 582.85 492.77 582.81 493.78 582.7 493.78 584.19 493.1 584.19"/><polygon class="cls-6" points="494.79 582.59 494.79 584.33 496.43 584.33 496.21 582.7 494.79 582.59"/><path class="cls-6" d="m493.1,584.53s.27,1.93-.48,1.95"/><path class="cls-6" d="m486.5,579.59s.67-1.3,2.7,3.11c0,0,.38.6.87.21"/><path class="cls-6" d="m486.38,580.08s1.76,2.58-1.3,4.8"/></g></g><line class="cls-5" y1="0" x2="1367.09" y2="0"/><rect class="cls-5" y="0" width="1366" height="768"/></svg>