<?xml version="1.0" encoding="UTF-8"?><svg id="Layer_1" xmlns="http://www.w3.org/2000/svg" viewBox="0 0 1366 768"><defs><style>.cls-1{fill:#efc7b0;}.cls-2{fill:#f0beb4;}.cls-3{fill:#fbc926;}.cls-4{fill:#92d7e7;}.cls-5{fill:#aa5f00;}.cls-6{fill:#d00;}.cls-7,.cls-8{fill:#252a26;}.cls-9{fill:#5f3f2b;}.cls-10,.cls-8,.cls-11,.cls-12{stroke:#000;stroke-miterlimit:10;}.cls-10,.cls-11{fill:none;}.cls-10,.cls-12{stroke-width:.75px;}.cls-12{fill:#efb7c0;}</style></defs><g><g><path class="cls-4" d="m886.23,348.1c1-.77,1.89-2.06,2.31-4.21,0,0-2.11-2.91-2.31,4.21Zm15.84,1.37c.07.26.17.53.29.82,0,0,.03.22.22.32.7.36,2.45-.32,3.06-3.77l.02-.24-1.17-.12c.1-1.48-3.51-.79-2.42,2.99Zm-10.48,2.63c.82,1.3,2.49,2.41,3.41.3.69-1.6-.08-3.06-.56-3.75-.02-.17-.12-.3-.31-.4,0-.01-.01-.01-.01-.01-1.86-1-3.15,1.18-2.99,2.67.04.35.21.78.46,1.19Zm-5.26.95c-2.8.75-3.81,3.72-2.27,4.29,2.08.77,2.34-3.18,2.34-3.18-.03-.38-.05-.75-.07-1.11Zm3.72,32.76c-.2-.58-.4-1.16-.58-1.73-.02-.35-.02-.78,0-1.29l.96.03h.91s1.74,6.69,7.52,7.43l2.03,1.14c-.29.67-.62,1.36-.99,2.08l2.31,1.31s2.78-1.16,4.35-3.48l1.67.29c-.22.44-.35.79-.27,1.07,0,0-1.31,1.86,2.73,5.56,2.92,2.67,2.99,3.41,2.8,3.61-.05.04-.11.06-.17.08h-54.08v-73.21h77.79v73.21h-23.71s.11,0,.17-.08c1.9-.85.57-5.57-1.1-6.31-1.25-.56-.72-1.83-.72-3.32l.74-.02c-.01-.64-.01-1.31-.06-1.93-.16-2.08,2.41-2,2.19-4.78s-2.86-8.69-4.82-8.91c-.23-.03-.44-.13-.63-.31.99-1.62-2.79-7.38-2.79-7.38h-.01c-.23-.51-.48-.98-.78-1.38-1.02-1.41-3.49-2.04-5.71-2.33-.57-.07-1.13-.12-1.65-.15-.5-.04-.96-.06-1.34-.06.32-.22.65-.27.65-.27,0,0-.54-.01-1.2.11v-.09c-.78.09-4.74.72-5.12,3.22-.02.09-.03.18-.03.27-.32.8-2.46,2.74-2.92,4.57,0,0-2.23,2.11-1.83,5.73.4,3.61-3.87,3.95-.33,11.76.65,1.43-.93,3.22-2.81,4.73-.26.1-.43.23-.52.39.18-.13.35-.26.52-.39.58-.25,1.62-.35,3.32-.2,6.12.54,5.06-4.29,3.52-8.97Z"/><path class="cls-3" d="m914.53,385.47c.22,2.78-2.35,2.7-2.19,4.78.05.62.05,1.29.06,1.93l-.74.02c0-.55-.07-1.13-.33-1.71-.57-1.3,1.82-2.57,1.01-5.63v-.02l-.2-2.51-1.72-4.56s-3.61-.15-5.01-4.78c-1.05-3.48-3.95-6.41-5.34-7.66-.07-.07-.17-.12-.28-.17,2.22.29,4.69.92,5.71,2.33.3.4.55.87.78,1.38,1.19,2.63,1.63,6.29,2.8,7.38.19.18.4.28.63.31,1.96.22,4.6,6.13,4.82,8.91Z"/><path class="cls-3" d="m903.64,374.97c.34.29.71.58,1.09.89,5.13,4.13,7.07,6.95,7.61,8.98v.02c.81,3.06-1.58,4.33-1.01,5.63.26.58.33,1.16.33,1.71,0,1.49-.53,2.76.72,3.32,1.67.74,3,5.46,1.1,6.31.19-.2.12-.94-2.8-3.61-4.04-3.7-2.73-5.56-2.73-5.56-.08-.28.05-.63.27-1.07,1.2-2.36,5.12-7.16-6.83-16.3-9.79-7.49-7.91-9.69-5.83-10.34,0,0,.48-.02,1.24,0-.95.65-1.77,2.86,6.83,10.01h0Z"/><path class="cls-4" d="m913.31,401.91c.06-.02.12-.04.17-.08-.06.08-.17.08-.17.08Z"/><path class="cls-3" d="m912.14,382.33l.2,2.51c-.54-2.03-2.48-4.85-7.61-8.98-.38-.31-.75-.6-1.09-.89h0c-.35-.41-.77-1.63-.93-2.96-.16-1.42-4.58-6.7-4.58-6.7l.02-.3c.52.03,1.08.08,1.65.15.11.05.21.1.28.17,1.39,1.25,4.29,4.18,5.34,7.66,1.4,4.63,5.01,4.78,5.01,4.78l1.72,4.56Z"/><path class="cls-3" d="m901.39,375.29c11.95,9.14,8.03,13.94,6.83,16.3l-1.67-.29c1.61-2.37,1.93-5.97-3.34-10.78h0c-1.05-.95-2.32-1.96-3.84-3.01-1.03-.71-1.94-1.38-2.75-2.02-1.69-1.33-2.93-2.5-3.8-3.53h0c-.19-.34-.44-.67-.77-1.03t0-.02c-.72-1.08-.98-1.98-.94-2.72.06-.12.07-.21.03-.27.38-2.5,4.34-3.13,5.11-3.22v.09c-.21.03-.45.09-.68.16-2.08.65-3.96,2.85,5.83,10.34Z"/><path class="cls-3" d="m903.21,380.52c5.27,4.81,4.95,8.41,3.34,10.78-1.57,2.32-4.35,3.48-4.35,3.48l-2.31-1.31c1.13-1.03,1.77-2.73,2-4.61,1.9-5.38,1.31-8.34,1.31-8.34h.01Z"/><path class="cls-4" d="m905.66,346.6l-.02.24c-.61,3.45-2.36,4.13-3.06,3.77-.19-.1-.22-.32-.22-.32-.12-.29-.22-.56-.29-.82,1.16-.97,2.36-2.18,2.42-2.99l1.17.12Z"/><path class="cls-4" d="m902.07,349.47c-1.09-3.78,2.52-4.47,2.42-2.99-.06.81-1.26,2.02-2.42,2.99Z"/><path class="cls-3" d="m903.2,380.52s.59,2.96-1.31,8.34c.5-4-.83-8.78-3.04-9.33-3.25-.81-2.23-4.04-2.23-4.04.81.64,1.72,1.31,2.75,2.02,1.52,1.05,2.79,2.06,3.84,3h0s-.01.01-.01.01Z"/><path class="cls-3" d="m902.7,372.01c.16,1.33.58,2.55.93,2.95-8.6-7.15-7.78-9.36-6.83-10.01.38,0,.84.02,1.34.06l-.02.3s4.42,5.28,4.58,6.7Z"/><path class="cls-2" d="m898.85,379.53c2.21.55,3.54,5.33,3.04,9.33-.28.79-.61,1.64-1.01,2.53l-2.03-1.14c-5.78-.74-7.52-7.43-7.52-7.43h-.91l-.96-.03c.03-.62.08-1.37.17-2.27.35-3.67,5.09-5.29,3.19-8.56.87,1.03,2.11,2.2,3.8,3.53,0,0-1.02,3.23,2.23,4.04Z"/><path class="cls-4" d="m900.88,391.39c.4-.89.73-1.74,1.01-2.53-.23,1.88-.87,3.58-2,4.61.37-.72.7-1.41.99-2.08Z"/><path class="cls-4" d="m894.44,348.65c.48.69,1.25,2.15.56,3.75-.92,2.11-2.59,1-3.41-.3,1.32-1.07,2.98-2.61,2.85-3.45Z"/><path class="cls-4" d="m894.44,348.65c.13.84-1.53,2.38-2.85,3.45-.25-.41-.42-.84-.46-1.19-.16-1.49,1.13-3.67,2.99-2.67,0,0,.01,0,.01.01.04.05.16.19.31.4Z"/><path class="cls-3" d="m889.47,384.08c.05,1.6.39,1.77.58,1.73,1.54,4.68,2.6,9.51-3.52,8.97-1.7-.15-2.74-.05-3.32.2,1.88-1.51,3.46-3.3,2.81-4.73-3.54-7.81.73-8.15.33-11.76-.4-3.62,1.83-5.73,1.83-5.73.46-1.83,2.6-3.77,2.92-4.57-.04.74.22,1.64.94,2.72t0,.02c.21.32.47.66.77,1.02h0c1.9,3.28-2.84,4.9-3.19,8.57-.09.9-.14,1.65-.17,2.27-.01.51-.01.94,0,1.29Z"/><path class="cls-4" d="m886.23,348.1c.2-7.12,2.31-4.21,2.31-4.21-.42,2.15-1.31,3.44-2.31,4.21Z"/><path class="cls-4" d="m886.33,353.05c.02.36.04.73.07,1.11,0,0-.26,3.95-2.34,3.18-1.54-.57-.53-3.54,2.27-4.29Z"/><path class="cls-4" d="m883.21,394.98c-.17.13-.34.26-.52.39.09-.16.26-.29.52-.39Z"/><path class="cls-7" d="m829.59,385.42c-.62-2.2.18-4.39.18-4.39.6,1.2,1.67,2.5,2.86,3.23,1.92,1.17,3.03-.56,3.03-.56,0,0-.43-2.9-2.72-4.57-1.24-.91-.86-2.94-.71-5.22.13-1.92.1-4.02-1.2-5.76-2.84-3.82-7.97-1.32-7.97-1.32-3.34.48-3.4,4.33-3.4,4.33-.83.98-.96,6.55-1.91,7.97s-2.35,2.45-.81,5.46c.08.16.16.31.24.43,1.39,2.3,2.18-.07,2.73.37,3.69,3.03,2.04-1.29,3.22-.8.46.19.82.06,1.09-.31h0c.16-.23.28-.54.37-.92.15-.19.33-.32.52-.41.54-.26,1.12-.19,1.12-.19,0,0,.37,1.07.48,2.81.07.88.06,1.94-.09,3.11-.44,3.46.1,4.75.14,5.75.03,1.01.57,6.4.23,7.48h-41.52v-.88l1.31-23.99.11,6.96,2.26,8.23,2.81-2.74-2.56-6.73.78-.39-2.69-5.67-.17-.36s-3.13-3.54-6.95-3.13c0,0-.18-.21-.33-1.34l-.54-1.2,1.95-2.12c0-1.28.79-2.44,0-4.14s-.31-4.01-.31-4.01l.73-1.02c.63-.03,1.16-.15,1.1-.63-.11-.89.22-1.73-.67-2.01s-1.45-.39-2.06-.33c-.61.05-1.06-.67-.61-1.06.44-.39-2.62-.5-2.84,0-.23.5-2.51.17-2.68.72-.17.56-1.39.78-1.45,1.73-.05.95-.5,3.59-.22,4.12.22.42.24.66.24.75v.04c-.05.33-.07.55-.07.55,0,0-.45-.16-1.12.45s2.34,3.12,2.34,3.12l.94,1.32s.54.64.67,1.49c.03.16.04.33.03.5-.05,1.08-.35,3.07-.35,3.07,0,0-4.03.6-5.45,2.63-1.41,2.02-3.43,6.47-3.43,6.47,0,0,.27.43.68.98l-2.73,4.52h-1.02v-59.11h77.79v73.21h-8.02v-1.97c-2.78-1.17-1.61-10.98-2.93-13.46-.18-.35-.32-.7-.42-1.06Zm-27.05-14.26c1.27,2.09,2.3,3.42,2.3,3.42,1.28-.74,2.91-2.29,2.83-3.06-.08-.78-.31-1.87-.31-1.87.2-.1.36-.2.42-.27,1.43-1.64,1.79-3.63,1.74-5.36h.01c.2-1.58.23-5.01,0-5.23-.23-.23-4.41-1.5-6.65-.97-2.18.51-1.31,5.91-1.26,6.19h0s-.32,1.42-.32,1.42c.06,1.73.87,3.32,2.16,4.15v1.14l-.92.44Z"/><path class="cls-6" d="m832.94,379.13c2.29,1.67,2.72,4.57,2.72,4.57,0,0-1.11,1.73-3.03.56-1.19-.73-2.26-2.03-2.86-3.23-.38-.74-.58-1.44-.53-1.96l-.06-.06c1.13-.99,1.61-3.49,1.73-5.2l1.32.1c-.15,2.28-.53,4.31.71,5.22Z"/><path class="cls-6" d="m831.03,368.15c1.3,1.74,1.33,3.84,1.2,5.76l-1.32-.1c.06-.89.02-1.56-.07-1.7-.31-.47-.37-2.53-.37-2.53-3.2-1.43-6.53.55-6.53.55,0,0-1.65,1.01-.47,4.45.35,1.03.63,2.06.84,3.06.48,2.33.58,4.44.28,5.72-.18.22-.32.51-.37.91h0c-.27.38-.63.51-1.09.32-1.18-.49.47,3.83-3.22.8-.55-.44-1.34,1.93-2.73-.37-.08-.12-.16-.27-.24-.43-1.54-3.01-.14-4.04.81-5.46s1.08-6.99,1.91-7.97c0,0,.06-3.85,3.4-4.33,0,0,5.13-2.5,7.97,1.32Z"/><path class="cls-1" d="m830.84,372.11c.09.14.13.81.07,1.7-.12,1.71-.6,4.21-1.73,5.2-.27.24-.58.39-.93.43,0,0,.38.67-3.94-1.8-.21-1-.49-2.03-.84-3.06-1.18-3.44.47-4.45.47-4.45,0,0,3.33-1.98,6.53-.55,0,0,.06,2.06.37,2.53Z"/><path class="cls-1" d="m826.72,385.57h0c-.11-1.74-.48-2.81-.48-2.81l-1.22-1.65.1,1.84c-.19.09-.37.22-.52.41.3-1.28.2-3.39-.28-5.72,4.32,2.47,3.94,1.8,3.94,1.8.35-.04.66-.19.93-.43l.06.06c-.05.52.15,1.22.53,1.96,0,0-.8,2.19-.18,4.39-2.71.5-2.87.22-2.87.15Z"/><path class="cls-7" d="m825.01,381.11l1.22,1.65s-.58-.07-1.12.19l-.1-1.84Z"/><path class="cls-6" d="m824.59,383.36c-.09.38-.21.69-.37.91.05-.4.19-.69.37-.91Z"/><path class="cls-9" d="m809.53,358.79c.23.22.2,3.65,0,5.23h-.01c-.03-1.35-.31-2.53-.53-3.27-.15-.51-.56-.9-1.09-1.07-1.95-.63-3.37-.59-4.25-.44-.62.11-1.1.58-1.23,1.18l-.8,3.59c-.05-.28-.92-5.68,1.26-6.19,2.24-.53,6.42.74,6.65.97Z"/><path class="cls-1" d="m809.52,364.02c.05,1.73-.31,3.72-1.74,5.36-.06.07-.22.17-.42.27-.47.24-1.17.5-1.39.52-.95.1-1.8-.13-2.51-.59-1.29-.83-2.1-2.42-2.16-4.15l.32-1.41h0s.8-3.6.8-3.6c.13-.6.61-1.07,1.23-1.18.88-.15,2.3-.19,4.25.44.53.17.94.56,1.09,1.07.22.74.5,1.92.53,3.27Z"/><path class="cls-1" d="m803.46,370.72v-1.14c.71.46,1.56.69,2.51.59.22-.02.92-.28,1.39-.52,0,0,.23,1.09.31,1.87.08.77-1.55,2.32-2.83,3.06,0,0-1.03-1.33-2.3-3.42l.92-.44Z"/><polygon class="cls-1" points="789.4 382.76 791.96 389.49 789.15 392.23 786.89 384 789.4 382.76"/><polygon class="cls-7" points="787.49 376.7 790.18 382.37 789.4 382.76 786.89 384 786.78 377.04 787.49 376.7"/><path class="cls-7" d="m787.32,376.34l.17.36-.71.34-1.31,23.99v.88h-14.08v-2.1l-.5-16.59-1.22,2.22c-.16.04-.33.02-.52-.06-.75-.26-1.63-1.3-2.23-2.09-.41-.55-.68-.98-.68-.98,0,0,2.02-4.45,3.43-6.47,1.42-2.03,5.45-2.63,5.45-2.63,0,0,3.06.24,5.25,0,3.82-.41,6.95,3.13,6.95,3.13Z"/><path class="cls-5" d="m781.87,359.38c-.56.04-1.2-.01-1.57.04-.78.11-4.96-1.01-6.13-.56-.89.34-1.32,2.69-1.49,3.81,0-.09-.02-.33-.24-.75-.28-.53.17-3.17.22-4.12.06-.95,1.28-1.17,1.45-1.73.17-.55,2.45-.22,2.68-.72.22-.5,3.28-.39,2.84,0-.45.39,0,1.11.61,1.06.61-.06,1.17.05,2.06.33s.56,1.12.67,2.01c.06.48-.47.6-1.1.63Z"/><path class="cls-1" d="m781.87,359.38l-.73,1.02s-.48,2.31.31,4.01,0,2.86,0,4.14l-1.95,2.12c-1.76,0-3.58-1.09-3.58-1.09l-.48.06c-.13-.85-.67-1.49-.67-1.49l-.94-1.32s-3.01-2.51-2.34-3.12,1.12-.45,1.12-.45c0,0,.02-.22.07-.55v-.04c.17-1.12.6-3.47,1.49-3.81,1.17-.45,5.35.67,6.13.56.37-.05,1.01,0,1.57-.04Z"/><path class="cls-1" d="m780.04,371.87c.15,1.13.33,1.34.33,1.34-2.19.24-5.25,0-5.25,0,0,0,.3-1.99.35-3.07.01-.17,0-.34-.03-.5l.48-.06s1.82,1.09,3.58,1.09l.54,1.2Z"/><path class="cls-7" d="m771.39,399.81v2.1h-8.22v-14.1h1.02l2.28,4.77,2.68-7.19h0c.19.07.36.09.52.05l1.22-2.22.5,16.59Z"/><path class="cls-1" d="m769.15,385.38h0s-2.68,7.2-2.68,7.2l-2.28-4.77,2.73-4.52c.6.79,1.48,1.83,2.23,2.09Z"/></g><g><polygon class="cls-11" points="832.94 401.91 840.96 401.91 840.96 328.7 763.17 328.7 763.17 387.81 763.17 401.91 771.39 401.91 785.47 401.91 826.99 401.91 832.94 401.91"/><polygon class="cls-11" points="859.23 328.7 859.23 401.91 913.31 401.91 937.02 401.91 937.02 328.7 859.23 328.7"/><path class="cls-10" d="m772.68,362.67c.17-1.12.6-3.47,1.49-3.81,1.17-.45,5.35.67,6.13.56.37-.05,1.01,0,1.57-.04.63-.03,1.16-.15,1.1-.63-.11-.89.22-1.73-.67-2.01s-1.45-.39-2.06-.33c-.61.05-1.06-.67-.61-1.06.44-.39-2.62-.5-2.84,0-.23.5-2.51.17-2.68.72-.17.56-1.39.78-1.45,1.73-.05.95-.5,3.59-.22,4.12.22.42.24.66.24.75"/><path class="cls-10" d="m772.68,362.67v.04"/><path class="cls-10" d="m785.47,401.03l1.31-23.99.11,6.96,2.51-1.24.78-.39-2.69-5.67-.17-.36s-3.13-3.54-6.95-3.13c-2.19.24-5.25,0-5.25,0,0,0,.3-1.99.35-3.07.01-.17,0-.34-.03-.5-.13-.85-.67-1.49-.67-1.49l-.94-1.32s-3.01-2.51-2.34-3.12,1.12-.45,1.12-.45c0,0,.02-.22.07-.55"/><path class="cls-10" d="m775.12,373.21s-4.03.6-5.45,2.63c-1.41,2.02-3.43,6.47-3.43,6.47,0,0,.27.43.68.98.6.79,1.48,1.83,2.23,2.09.19.08.36.1.52.06l1.22-2.22.5,16.59v2.1"/><polyline class="cls-10" points="786.89 384 789.15 392.23 791.96 389.49 789.4 382.76"/><polyline class="cls-10" points="766.92 383.29 764.19 387.81 766.47 392.58 769.15 385.39"/><path class="cls-10" d="m782.05,359.14l-.18.24-.73,1.02s-.48,2.31.31,4.01,0,2.86,0,4.14l-1.95,2.12c-1.76,0-3.58-1.09-3.58-1.09"/><path class="cls-10" d="m780.37,373.21s-.18-.21-.33-1.34"/><path class="cls-10" d="m801.62,364.01l.8-3.59c.13-.6.61-1.07,1.23-1.18.88-.15,2.3-.19,4.25.44.53.17.94.56,1.09,1.07.22.74.5,1.92.53,3.27.05,1.73-.31,3.72-1.74,5.36-.06.07-.22.17-.42.27-.47.24-1.17.5-1.39.52-.95.1-1.8-.13-2.51-.59-1.29-.83-2.1-2.42-2.16-4.15l.32-1.41"/><path class="cls-10" d="m801.62,364.02h0c-.05-.29-.92-5.69,1.26-6.2,2.24-.53,6.42.74,6.65.97.23.22.2,3.65,0,5.23"/><polyline class="cls-10" points="803.46 369.58 803.46 370.72 803.46 371.87"/><path class="cls-10" d="m807.36,369.65s.23,1.09.31,1.87c.08.77-1.55,2.32-2.83,3.06,0,0-1.03-1.33-2.3-3.42"/><polyline class="cls-10" points="815.64 373.93 808.24 371.69 807.67 371.52"/><path class="cls-10" d="m803.46,370.72l-.92.44-8.44,4.03s-1.46,3.24-.83,7.11"/><path class="cls-10" d="m807.67,398.21s-1.03-25.53.57-26.52"/><path class="cls-10" d="m802.54,371.16s.9,27.02-.3,28.78"/><path class="cls-10" d="m824.22,384.27c.16-.22.28-.53.37-.91.3-1.28.2-3.39-.28-5.72-.21-1-.49-2.03-.84-3.06-1.18-3.44.47-4.45.47-4.45,0,0,3.33-1.98,6.53-.55,0,0,.06,2.06.37,2.53.09.14.13.81.07,1.7-.12,1.71-.6,4.21-1.73,5.2-.27.24-.58.39-.93.43,0,0,.38.67-3.94-1.8"/><path class="cls-10" d="m829.24,379.07c-.05.52.15,1.22.53,1.96.6,1.2,1.67,2.5,2.86,3.23,1.92,1.17,3.03-.56,3.03-.56,0,0-.43-2.9-2.72-4.57-1.24-.91-.86-2.94-.71-5.22.13-1.92.1-4.02-1.2-5.76-2.84-3.82-7.97-1.32-7.97-1.32-3.34.48-3.4,4.33-3.4,4.33-.83.98-.96,6.55-1.91,7.97s-2.35,2.45-.81,5.46c.08.16.16.31.24.43,1.39,2.3,2.18-.07,2.73.37,3.69,3.03,2.04-1.29,3.22-.8.46.19.82.06,1.09-.31"/><path class="cls-10" d="m824.22,384.28h0c.05-.41.19-.7.37-.92.15-.19.33-.32.52-.41.54-.26,1.12-.19,1.12-.19l-1.22-1.65.1,1.84"/><path class="cls-10" d="m826.23,382.76s.37,1.07.48,2.81c.07.88.06,1.94-.09,3.11-.44,3.46.1,4.75.14,5.75.03,1.01.57,6.4.23,7.48"/><path class="cls-10" d="m826.72,385.55v.02c0,.07.16.35,2.87-.15l.18-.03"/><path class="cls-10" d="m829.77,381.03s-.8,2.19-.18,4.39c.1.36.24.71.42,1.06,1.32,2.48.15,12.29,2.93,13.46"/><path class="cls-10" d="m889.99,353.31h.01c.1-.07.79-.56,1.59-1.21,1.32-1.07,2.98-2.61,2.85-3.45-.02-.17-.12-.3-.31-.4,0-.01-.01-.01-.01-.01-1.86-1-3.15,1.18-2.99,2.67.04.35.21.78.46,1.19.82,1.3,2.49,2.41,3.41.3.69-1.6-.08-3.06-.56-3.75-.15-.21-.27-.35-.31-.4"/><path class="cls-10" d="m886.33,353.05c.95-.26,2.11-.26,3.44.18l.23.07"/><path class="cls-10" d="m886.33,353.05c.02.36.04.73.07,1.11,0,0-.26,3.95-2.34,3.18-1.54-.57-.53-3.54,2.27-4.29Z"/><path class="cls-10" d="m886.23,348.1c-.04,1.29-.01,2.91.1,4.95"/><path class="cls-10" d="m886.23,348.1c1-.77,1.89-2.06,2.31-4.21,0,0-2.11-2.91-2.31,4.21Z"/><path class="cls-10" d="m881.72,349.09s2.49.57,4.51-.99"/><path class="cls-10" d="m895.22,351.76s2.06.78,2.23-1.48c.15-2,.18-2.11.18-2.11,0,0,.5,3.47,1.69,3.48,1.19,0,1.63-6.11,1.63-6.11"/><path class="cls-10" d="m899.89,351.14s1.07-.73,2.18-1.67c1.16-.97,2.36-2.18,2.42-2.99.1-1.48-3.51-.79-2.42,2.99.07.26.17.53.29.82,0,0,.03.22.22.32.7.36,2.45-.32,3.06-3.77l.02-.24.07-.62s1.77-1.79,3.2-2.49c0,0-2.78,7.95.14,6.05s5.46-7.39,5.46-7.39"/><path class="cls-10" d="m890.42,382.82h.91s1.74,6.69,7.52,7.43"/><path class="cls-10" d="m893.5,380.56s.66,2.11,1.61.52c1.03-1.71-3.19-2.3-4.19-1.02"/><path class="cls-10" d="m892.82,371.96c.87,1.03,2.11,2.2,3.8,3.53.81.64,1.72,1.31,2.75,2.02,1.52,1.05,2.79,2.06,3.84,3h0c5.27,4.82,4.95,8.42,3.34,10.79-1.57,2.32-4.35,3.48-4.35,3.48"/><path class="cls-10" d="m892.05,370.93c.21.32.47.66.77,1.02"/><path class="cls-10" d="m896.37,364.68s-.05,0-.13.02c-.77.09-4.73.72-5.11,3.22-.02.09-.03.18-.03.27-.04.74.22,1.64.94,2.72"/><path class="cls-10" d="m896.62,375.49s-1.02,3.23,2.23,4.04c2.21.55,3.54,5.33,3.04,9.33-.23,1.88-.87,3.58-2,4.61"/><path class="cls-10" d="m903.2,380.52s.59,2.96-1.31,8.34c-.28.79-.61,1.64-1.01,2.53-.29.67-.62,1.36-.99,2.08"/><path class="cls-10" d="m912.34,384.86c.81,3.06-1.58,4.33-1.01,5.63.26.58.33,1.16.33,1.71,0,1.49-.53,2.76.72,3.32,1.67.74,3,5.46,1.1,6.31-.05.04-.11.06-.17.08"/><path class="cls-10" d="m903.64,374.97c.34.29.71.58,1.09.89,5.13,4.13,7.07,6.95,7.61,8.98"/><path class="cls-10" d="m913.31,401.91s.11,0,.17-.08c.19-.2.12-.94-2.8-3.61-4.04-3.7-2.73-5.56-2.73-5.56-.08-.28.05-.63.27-1.07,1.2-2.36,5.12-7.16-6.83-16.3-9.79-7.49-7.91-9.69-5.83-10.34.23-.07.47-.13.69-.16.66-.12,1.2-.11,1.2-.11,0,0-.33.05-.65.27-.95.65-1.77,2.86,6.83,10.01"/><path class="cls-10" d="m898.12,365.31s4.42,5.28,4.58,6.7c.16,1.33.58,2.55.93,2.95h0s.05.06.07.08"/><path class="cls-10" d="m898.3,364.94s.92-.02,1.49.22c.11.05.21.1.28.17,1.39,1.25,4.29,4.18,5.34,7.66,1.4,4.63,5.01,4.78,5.01,4.78l1.72,4.56.2,2.51v.02"/><path class="cls-10" d="m895.56,364.95s.48-.02,1.24,0c.38,0,.84.02,1.34.06.52.03,1.08.08,1.65.15,2.22.29,4.69.92,5.71,2.33.3.4.55.87.78,1.38,1.19,2.63,1.63,6.29,2.8,7.38.19.18.4.28.63.31,1.96.22,4.6,6.13,4.82,8.91s-2.35,2.7-2.19,4.78c.05.62.05,1.29.06,1.93.03,1.52.13,2.89,1.13,3.13,1.42.34,1.56,2.91,1.56,2.91"/><path class="cls-10" d="m906.29,368.87s3.78,5.76,2.79,7.38"/><path class="cls-10" d="m882.68,395.38c-2.02,1.53-4.18,2.68-4.18,2.68"/><path class="cls-10" d="m891.13,367.92c.04.06.03.15-.03.27-.32.8-2.46,2.74-2.92,4.57,0,0-2.23,2.11-1.83,5.73.4,3.61-3.87,3.95-.33,11.76.65,1.43-.93,3.22-2.81,4.73-.17.13-.34.26-.52.39"/><path class="cls-10" d="m891.13,373.46s-3.23,1.36-2.94,5.91c.08,1.2.64,2.89,1.28,4.71.18.57.38,1.15.58,1.73,1.54,4.68,2.6,9.51-3.52,8.97-1.7-.15-2.74-.05-3.32.2-.26.1-.43.23-.52.39t-.01.01c-.64,1.02,1.72,2.86,2.13,3.14"/><path class="cls-10" d="m892.04,370.91s0,.01,0,.02c.33.36.58.69.77,1.02h0c1.9,3.28-2.84,4.9-3.19,8.57-.09.9-.14,1.65-.17,2.27-.01.51-.01.94,0,1.29.05,1.6.39,1.77.58,1.73.08-.01.14-.07.14-.07"/><path class="cls-10" d="m886.16,393.47s1.53-1.13,1.26-2.51-1.62-2.76-1.58-3.83c.04-1.08.7-4.68,1.4-7.4"/><path class="cls-10" d="m887.42,383.13s-.5,3.65.19,3.88,2.22,2.88,1.95,3.99-1.65,2.44-1.95,2.47"/></g></g><line class="cls-11" y1="0" x2="1367.09" y2="0"/><path class="cls-10" d="m815.99,401.91s1.09-8.52.88-12.26.69-4.1.69-4.1"/><path class="cls-8" d="m835.66,383.7s1.45,1.66,2.72,7.87-.27,4.08.71,10.34"/><path class="cls-12" d="m859.23,338.12c5.59.82,9.04,10.67,10.37,8.91s10.96-.28,12.01,6.59-5.86,11.77-7.44,11.32c-1.44-.41-5.39,1.5-14.95,2.16"/><path class="cls-12" d="m936.57,352.61c-5.59.82-9.04,10.67-10.37,8.91s-10.96-.28-12.01,6.59,5.86,11.77,7.44,11.32c1.44-.41,5.39,1.5,14.95,2.16"/></svg>